ISO-10303-21;
HEADER;
FILE_DESCRIPTION(('AquaSentinel R3 - planar B-rep export'),'2;1');
FILE_NAME('Controller board (ESP32, RS485, RTC, microSD, LTE Cat-1)','2026-10-04T21:49:43',('AquaSentinel team'),('Sanjivani University'),'AquaSentinel R3 python build','AquaSentinel R3','');
FILE_SCHEMA(('AUTOMOTIVE_DESIGN { 1 0 10303 214 1 1 1 1 }'));
ENDSEC;
DATA;
#1=APPLICATION_CONTEXT('core data for automotive mechanical design processes');
#2=APPLICATION_PROTOCOL_DEFINITION('international standard','automotive_design',2000,#1);
#3=PRODUCT_CONTEXT('',#1,'mechanical');
#4=PRODUCT_DEFINITION_CONTEXT('part definition',#1,'design');
#5=(LENGTH_UNIT()NAMED_UNIT(*)SI_UNIT(.MILLI.,.METRE.));
#6=(NAMED_UNIT(*)PLANE_ANGLE_UNIT()SI_UNIT($,.RADIAN.));
#7=(NAMED_UNIT(*)SI_UNIT($,.STERADIAN.)SOLID_ANGLE_UNIT());
#8=UNCERTAINTY_MEASURE_WITH_UNIT(LENGTH_MEASURE(1.E-04),#5,'distance_accuracy_value','confusion accuracy');
#9=(GEOMETRIC_REPRESENTATION_CONTEXT(3)GLOBAL_UNCERTAINTY_ASSIGNED_CONTEXT((#8))GLOBAL_UNIT_ASSIGNED_CONTEXT((#5,#6,#7))REPRESENTATION_CONTEXT('Context','3D Context with UNIT and UNCERTAINTY'));
#10=PRODUCT('AS3-515','Controller board (ESP32, RS485, RTC, microSD, LTE Cat-1)','',(#3));
#11=PRODUCT_DEFINITION_FORMATION('','',#10);
#12=PRODUCT_DEFINITION('design','',#11,#4);
#13=PRODUCT_DEFINITION_SHAPE('','',#12);
#14=CARTESIAN_POINT('',(0.,0.,0.));
#15=DIRECTION('',(0.,0.,1.));
#16=DIRECTION('',(1.,0.,0.));
#17=AXIS2_PLACEMENT_3D('',#14,#15,#16);
#18=CARTESIAN_POINT('',(477.,5.,345.));
#19=VERTEX_POINT('',#18);
#20=CARTESIAN_POINT('',(477.,105.,345.));
#21=VERTEX_POINT('',#20);
#22=DIRECTION('',(0.,1.,0.));
#23=VECTOR('',#22,100.);
#24=LINE('',#18,#23);
#25=EDGE_CURVE('',#19,#21,#24,.T.);
#26=ORIENTED_EDGE('',*,*,#25,.T.);
#27=CARTESIAN_POINT('',(637.,105.,345.));
#28=VERTEX_POINT('',#27);
#29=DIRECTION('',(-1.,0.,0.));
#30=VECTOR('',#29,160.);
#31=LINE('',#27,#30);
#32=EDGE_CURVE('',#28,#21,#31,.T.);
#33=ORIENTED_EDGE('',*,*,#32,.F.);
#34=CARTESIAN_POINT('',(637.,5.,345.));
#35=VERTEX_POINT('',#34);
#36=DIRECTION('',(0.,1.,0.));
#37=VECTOR('',#36,100.);
#38=LINE('',#34,#37);
#39=EDGE_CURVE('',#35,#28,#38,.T.);
#40=ORIENTED_EDGE('',*,*,#39,.F.);
#41=DIRECTION('',(1.,0.,0.));
#42=VECTOR('',#41,160.);
#43=LINE('',#18,#42);
#44=EDGE_CURVE('',#19,#35,#43,.T.);
#45=ORIENTED_EDGE('',*,*,#44,.F.);
#46=EDGE_LOOP('',(#26,#33,#40,#45));
#47=FACE_OUTER_BOUND('',#46,.T.);
#48=CARTESIAN_POINT('',(477.,5.,345.));
#49=DIRECTION('',(0.,0.,-1.));
#50=DIRECTION('',(0.,1.,0.));
#51=AXIS2_PLACEMENT_3D('',#48,#49,#50);
#52=PLANE('',#51);
#53=ADVANCED_FACE('',(#47),#52,.T.);
#54=CARTESIAN_POINT('',(477.,5.,346.6));
#55=VERTEX_POINT('',#54);
#56=CARTESIAN_POINT('',(637.,5.,346.6));
#57=VERTEX_POINT('',#56);
#58=DIRECTION('',(1.,0.,0.));
#59=VECTOR('',#58,160.);
#60=LINE('',#54,#59);
#61=EDGE_CURVE('',#55,#57,#60,.T.);
#62=ORIENTED_EDGE('',*,*,#61,.T.);
#63=CARTESIAN_POINT('',(637.,105.,346.6));
#64=VERTEX_POINT('',#63);
#65=DIRECTION('',(0.,1.,0.));
#66=VECTOR('',#65,100.);
#67=LINE('',#56,#66);
#68=EDGE_CURVE('',#57,#64,#67,.T.);
#69=ORIENTED_EDGE('',*,*,#68,.T.);
#70=CARTESIAN_POINT('',(477.,105.,346.6));
#71=VERTEX_POINT('',#70);
#72=DIRECTION('',(-1.,0.,0.));
#73=VECTOR('',#72,160.);
#74=LINE('',#63,#73);
#75=EDGE_CURVE('',#64,#71,#74,.T.);
#76=ORIENTED_EDGE('',*,*,#75,.T.);
#77=DIRECTION('',(0.,1.,0.));
#78=VECTOR('',#77,100.);
#79=LINE('',#54,#78);
#80=EDGE_CURVE('',#55,#71,#79,.T.);
#81=ORIENTED_EDGE('',*,*,#80,.F.);
#82=EDGE_LOOP('',(#62,#69,#76,#81));
#83=FACE_OUTER_BOUND('',#82,.T.);
#84=CARTESIAN_POINT('',(477.,5.,346.6));
#85=DIRECTION('',(0.,0.,1.));
#86=DIRECTION('',(1.,0.,0.));
#87=AXIS2_PLACEMENT_3D('',#84,#85,#86);
#88=PLANE('',#87);
#89=ADVANCED_FACE('',(#83),#88,.T.);
#90=ORIENTED_EDGE('',*,*,#44,.T.);
#91=DIRECTION('',(0.,0.,1.));
#92=VECTOR('',#91,1.6);
#93=LINE('',#34,#92);
#94=EDGE_CURVE('',#35,#57,#93,.T.);
#95=ORIENTED_EDGE('',*,*,#94,.T.);
#96=ORIENTED_EDGE('',*,*,#61,.F.);
#97=DIRECTION('',(0.,0.,1.));
#98=VECTOR('',#97,1.6);
#99=LINE('',#18,#98);
#100=EDGE_CURVE('',#19,#55,#99,.T.);
#101=ORIENTED_EDGE('',*,*,#100,.F.);
#102=EDGE_LOOP('',(#90,#95,#96,#101));
#103=FACE_OUTER_BOUND('',#102,.T.);
#104=CARTESIAN_POINT('',(477.,5.,345.));
#105=DIRECTION('',(0.,-1.,0.));
#106=DIRECTION('',(1.,0.,0.));
#107=AXIS2_PLACEMENT_3D('',#104,#105,#106);
#108=PLANE('',#107);
#109=ADVANCED_FACE('',(#103),#108,.T.);
#110=ORIENTED_EDGE('',*,*,#39,.T.);
#111=DIRECTION('',(0.,0.,1.));
#112=VECTOR('',#111,1.6);
#113=LINE('',#27,#112);
#114=EDGE_CURVE('',#28,#64,#113,.T.);
#115=ORIENTED_EDGE('',*,*,#114,.T.);
#116=ORIENTED_EDGE('',*,*,#68,.F.);
#117=ORIENTED_EDGE('',*,*,#94,.F.);
#118=EDGE_LOOP('',(#110,#115,#116,#117));
#119=FACE_OUTER_BOUND('',#118,.T.);
#120=CARTESIAN_POINT('',(637.,5.,345.));
#121=DIRECTION('',(1.,0.,0.));
#122=DIRECTION('',(0.,1.,0.));
#123=AXIS2_PLACEMENT_3D('',#120,#121,#122);
#124=PLANE('',#123);
#125=ADVANCED_FACE('',(#119),#124,.T.);
#126=ORIENTED_EDGE('',*,*,#32,.T.);
#127=DIRECTION('',(0.,0.,1.));
#128=VECTOR('',#127,1.6);
#129=LINE('',#20,#128);
#130=EDGE_CURVE('',#21,#71,#129,.T.);
#131=ORIENTED_EDGE('',*,*,#130,.T.);
#132=ORIENTED_EDGE('',*,*,#75,.F.);
#133=ORIENTED_EDGE('',*,*,#114,.F.);
#134=EDGE_LOOP('',(#126,#131,#132,#133));
#135=FACE_OUTER_BOUND('',#134,.T.);
#136=CARTESIAN_POINT('',(637.,105.,345.));
#137=DIRECTION('',(0.,1.,0.));
#138=DIRECTION('',(-1.,0.,0.));
#139=AXIS2_PLACEMENT_3D('',#136,#137,#138);
#140=PLANE('',#139);
#141=ADVANCED_FACE('',(#135),#140,.T.);
#142=ORIENTED_EDGE('',*,*,#25,.F.);
#143=ORIENTED_EDGE('',*,*,#100,.T.);
#144=ORIENTED_EDGE('',*,*,#80,.T.);
#145=ORIENTED_EDGE('',*,*,#130,.F.);
#146=EDGE_LOOP('',(#142,#143,#144,#145));
#147=FACE_OUTER_BOUND('',#146,.T.);
#148=CARTESIAN_POINT('',(477.,105.,345.));
#149=DIRECTION('',(-1.,0.,0.));
#150=DIRECTION('',(0.,-1.,0.));
#151=AXIS2_PLACEMENT_3D('',#148,#149,#150);
#152=PLANE('',#151);
#153=ADVANCED_FACE('',(#147),#152,.T.);
#154=CLOSED_SHELL('',(#53,#89,#109,#125,#141,#153));
#155=MANIFOLD_SOLID_BREP('',#154);
#156=COLOUR_RGB('',0.05,0.35,0.18);
#157=FILL_AREA_STYLE_COLOUR('',#156);
#158=FILL_AREA_STYLE('',(#157));
#159=SURFACE_STYLE_FILL_AREA(#158);
#160=SURFACE_SIDE_STYLE('',(#159));
#161=SURFACE_STYLE_USAGE(.BOTH.,#160);
#162=PRESENTATION_STYLE_ASSIGNMENT((#161));
#163=STYLED_ITEM('color',(#162),#155);
#164=CARTESIAN_POINT('',(497.,30.,346.6));
#165=VERTEX_POINT('',#164);
#166=CARTESIAN_POINT('',(497.,48.,346.6));
#167=VERTEX_POINT('',#166);
#168=DIRECTION('',(0.,1.,0.));
#169=VECTOR('',#168,18.);
#170=LINE('',#164,#169);
#171=EDGE_CURVE('',#165,#167,#170,.T.);
#172=ORIENTED_EDGE('',*,*,#171,.T.);
#173=CARTESIAN_POINT('',(522.,48.,346.6));
#174=VERTEX_POINT('',#173);
#175=DIRECTION('',(-1.,0.,0.));
#176=VECTOR('',#175,25.);
#177=LINE('',#173,#176);
#178=EDGE_CURVE('',#174,#167,#177,.T.);
#179=ORIENTED_EDGE('',*,*,#178,.F.);
#180=CARTESIAN_POINT('',(522.,30.,346.6));
#181=VERTEX_POINT('',#180);
#182=DIRECTION('',(0.,1.,0.));
#183=VECTOR('',#182,18.);
#184=LINE('',#180,#183);
#185=EDGE_CURVE('',#181,#174,#184,.T.);
#186=ORIENTED_EDGE('',*,*,#185,.F.);
#187=DIRECTION('',(1.,0.,0.));
#188=VECTOR('',#187,25.);
#189=LINE('',#164,#188);
#190=EDGE_CURVE('',#165,#181,#189,.T.);
#191=ORIENTED_EDGE('',*,*,#190,.F.);
#192=EDGE_LOOP('',(#172,#179,#186,#191));
#193=FACE_OUTER_BOUND('',#192,.T.);
#194=CARTESIAN_POINT('',(497.,30.,346.6));
#195=DIRECTION('',(0.,0.,-1.));
#196=DIRECTION('',(0.,1.,0.));
#197=AXIS2_PLACEMENT_3D('',#194,#195,#196);
#198=PLANE('',#197);
#199=ADVANCED_FACE('',(#193),#198,.T.);
#200=CARTESIAN_POINT('',(497.,30.,349.6));
#201=VERTEX_POINT('',#200);
#202=CARTESIAN_POINT('',(522.,30.,349.6));
#203=VERTEX_POINT('',#202);
#204=DIRECTION('',(1.,0.,0.));
#205=VECTOR('',#204,25.);
#206=LINE('',#200,#205);
#207=EDGE_CURVE('',#201,#203,#206,.T.);
#208=ORIENTED_EDGE('',*,*,#207,.T.);
#209=CARTESIAN_POINT('',(522.,48.,349.6));
#210=VERTEX_POINT('',#209);
#211=DIRECTION('',(0.,1.,0.));
#212=VECTOR('',#211,18.);
#213=LINE('',#202,#212);
#214=EDGE_CURVE('',#203,#210,#213,.T.);
#215=ORIENTED_EDGE('',*,*,#214,.T.);
#216=CARTESIAN_POINT('',(497.,48.,349.6));
#217=VERTEX_POINT('',#216);
#218=DIRECTION('',(-1.,0.,0.));
#219=VECTOR('',#218,25.);
#220=LINE('',#209,#219);
#221=EDGE_CURVE('',#210,#217,#220,.T.);
#222=ORIENTED_EDGE('',*,*,#221,.T.);
#223=DIRECTION('',(0.,1.,0.));
#224=VECTOR('',#223,18.);
#225=LINE('',#200,#224);
#226=EDGE_CURVE('',#201,#217,#225,.T.);
#227=ORIENTED_EDGE('',*,*,#226,.F.);
#228=EDGE_LOOP('',(#208,#215,#222,#227));
#229=FACE_OUTER_BOUND('',#228,.T.);
#230=CARTESIAN_POINT('',(497.,30.,349.6));
#231=DIRECTION('',(0.,0.,1.));
#232=DIRECTION('',(1.,0.,0.));
#233=AXIS2_PLACEMENT_3D('',#230,#231,#232);
#234=PLANE('',#233);
#235=ADVANCED_FACE('',(#229),#234,.T.);
#236=ORIENTED_EDGE('',*,*,#190,.T.);
#237=DIRECTION('',(0.,0.,1.));
#238=VECTOR('',#237,3.);
#239=LINE('',#180,#238);
#240=EDGE_CURVE('',#181,#203,#239,.T.);
#241=ORIENTED_EDGE('',*,*,#240,.T.);
#242=ORIENTED_EDGE('',*,*,#207,.F.);
#243=DIRECTION('',(0.,0.,1.));
#244=VECTOR('',#243,3.);
#245=LINE('',#164,#244);
#246=EDGE_CURVE('',#165,#201,#245,.T.);
#247=ORIENTED_EDGE('',*,*,#246,.F.);
#248=EDGE_LOOP('',(#236,#241,#242,#247));
#249=FACE_OUTER_BOUND('',#248,.T.);
#250=CARTESIAN_POINT('',(497.,30.,346.6));
#251=DIRECTION('',(0.,-1.,0.));
#252=DIRECTION('',(1.,0.,0.));
#253=AXIS2_PLACEMENT_3D('',#250,#251,#252);
#254=PLANE('',#253);
#255=ADVANCED_FACE('',(#249),#254,.T.);
#256=ORIENTED_EDGE('',*,*,#185,.T.);
#257=DIRECTION('',(0.,0.,1.));
#258=VECTOR('',#257,3.);
#259=LINE('',#173,#258);
#260=EDGE_CURVE('',#174,#210,#259,.T.);
#261=ORIENTED_EDGE('',*,*,#260,.T.);
#262=ORIENTED_EDGE('',*,*,#214,.F.);
#263=ORIENTED_EDGE('',*,*,#240,.F.);
#264=EDGE_LOOP('',(#256,#261,#262,#263));
#265=FACE_OUTER_BOUND('',#264,.T.);
#266=CARTESIAN_POINT('',(522.,30.,346.6));
#267=DIRECTION('',(1.,0.,0.));
#268=DIRECTION('',(0.,1.,0.));
#269=AXIS2_PLACEMENT_3D('',#266,#267,#268);
#270=PLANE('',#269);
#271=ADVANCED_FACE('',(#265),#270,.T.);
#272=ORIENTED_EDGE('',*,*,#178,.T.);
#273=DIRECTION('',(0.,0.,1.));
#274=VECTOR('',#273,3.);
#275=LINE('',#166,#274);
#276=EDGE_CURVE('',#167,#217,#275,.T.);
#277=ORIENTED_EDGE('',*,*,#276,.T.);
#278=ORIENTED_EDGE('',*,*,#221,.F.);
#279=ORIENTED_EDGE('',*,*,#260,.F.);
#280=EDGE_LOOP('',(#272,#277,#278,#279));
#281=FACE_OUTER_BOUND('',#280,.T.);
#282=CARTESIAN_POINT('',(522.,48.,346.6));
#283=DIRECTION('',(0.,1.,0.));
#284=DIRECTION('',(-1.,0.,0.));
#285=AXIS2_PLACEMENT_3D('',#282,#283,#284);
#286=PLANE('',#285);
#287=ADVANCED_FACE('',(#281),#286,.T.);
#288=ORIENTED_EDGE('',*,*,#171,.F.);
#289=ORIENTED_EDGE('',*,*,#246,.T.);
#290=ORIENTED_EDGE('',*,*,#226,.T.);
#291=ORIENTED_EDGE('',*,*,#276,.F.);
#292=EDGE_LOOP('',(#288,#289,#290,#291));
#293=FACE_OUTER_BOUND('',#292,.T.);
#294=CARTESIAN_POINT('',(497.,48.,346.6));
#295=DIRECTION('',(-1.,0.,0.));
#296=DIRECTION('',(0.,-1.,0.));
#297=AXIS2_PLACEMENT_3D('',#294,#295,#296);
#298=PLANE('',#297);
#299=ADVANCED_FACE('',(#293),#298,.T.);
#300=CLOSED_SHELL('',(#199,#235,#255,#271,#287,#299));
#301=MANIFOLD_SOLID_BREP('',#300);
#302=STYLED_ITEM('color',(#162),#301);
#303=CARTESIAN_POINT('',(547.,45.,346.6));
#304=VERTEX_POINT('',#303);
#305=CARTESIAN_POINT('',(547.,85.,346.6));
#306=VERTEX_POINT('',#305);
#307=DIRECTION('',(0.,1.,0.));
#308=VECTOR('',#307,40.);
#309=LINE('',#303,#308);
#310=EDGE_CURVE('',#304,#306,#309,.T.);
#311=ORIENTED_EDGE('',*,*,#310,.T.);
#312=CARTESIAN_POINT('',(587.,85.,346.6));
#313=VERTEX_POINT('',#312);
#314=DIRECTION('',(-1.,0.,0.));
#315=VECTOR('',#314,40.);
#316=LINE('',#312,#315);
#317=EDGE_CURVE('',#313,#306,#316,.T.);
#318=ORIENTED_EDGE('',*,*,#317,.F.);
#319=CARTESIAN_POINT('',(587.,45.,346.6));
#320=VERTEX_POINT('',#319);
#321=DIRECTION('',(0.,1.,0.));
#322=VECTOR('',#321,40.);
#323=LINE('',#319,#322);
#324=EDGE_CURVE('',#320,#313,#323,.T.);
#325=ORIENTED_EDGE('',*,*,#324,.F.);
#326=DIRECTION('',(1.,0.,0.));
#327=VECTOR('',#326,40.);
#328=LINE('',#303,#327);
#329=EDGE_CURVE('',#304,#320,#328,.T.);
#330=ORIENTED_EDGE('',*,*,#329,.F.);
#331=EDGE_LOOP('',(#311,#318,#325,#330));
#332=FACE_OUTER_BOUND('',#331,.T.);
#333=CARTESIAN_POINT('',(547.,45.,346.6));
#334=DIRECTION('',(0.,0.,-1.));
#335=DIRECTION('',(0.,1.,0.));
#336=AXIS2_PLACEMENT_3D('',#333,#334,#335);
#337=PLANE('',#336);
#338=ADVANCED_FACE('',(#332),#337,.T.);
#339=CARTESIAN_POINT('',(547.,45.,350.6));
#340=VERTEX_POINT('',#339);
#341=CARTESIAN_POINT('',(587.,45.,350.6));
#342=VERTEX_POINT('',#341);
#343=DIRECTION('',(1.,0.,0.));
#344=VECTOR('',#343,40.);
#345=LINE('',#339,#344);
#346=EDGE_CURVE('',#340,#342,#345,.T.);
#347=ORIENTED_EDGE('',*,*,#346,.T.);
#348=CARTESIAN_POINT('',(587.,85.,350.6));
#349=VERTEX_POINT('',#348);
#350=DIRECTION('',(0.,1.,0.));
#351=VECTOR('',#350,40.);
#352=LINE('',#341,#351);
#353=EDGE_CURVE('',#342,#349,#352,.T.);
#354=ORIENTED_EDGE('',*,*,#353,.T.);
#355=CARTESIAN_POINT('',(547.,85.,350.6));
#356=VERTEX_POINT('',#355);
#357=DIRECTION('',(-1.,0.,0.));
#358=VECTOR('',#357,40.);
#359=LINE('',#348,#358);
#360=EDGE_CURVE('',#349,#356,#359,.T.);
#361=ORIENTED_EDGE('',*,*,#360,.T.);
#362=DIRECTION('',(0.,1.,0.));
#363=VECTOR('',#362,40.);
#364=LINE('',#339,#363);
#365=EDGE_CURVE('',#340,#356,#364,.T.);
#366=ORIENTED_EDGE('',*,*,#365,.F.);
#367=EDGE_LOOP('',(#347,#354,#361,#366));
#368=FACE_OUTER_BOUND('',#367,.T.);
#369=CARTESIAN_POINT('',(547.,45.,350.6));
#370=DIRECTION('',(0.,0.,1.));
#371=DIRECTION('',(1.,0.,0.));
#372=AXIS2_PLACEMENT_3D('',#369,#370,#371);
#373=PLANE('',#372);
#374=ADVANCED_FACE('',(#368),#373,.T.);
#375=ORIENTED_EDGE('',*,*,#329,.T.);
#376=DIRECTION('',(0.,0.,1.));
#377=VECTOR('',#376,4.);
#378=LINE('',#319,#377);
#379=EDGE_CURVE('',#320,#342,#378,.T.);
#380=ORIENTED_EDGE('',*,*,#379,.T.);
#381=ORIENTED_EDGE('',*,*,#346,.F.);
#382=DIRECTION('',(0.,0.,1.));
#383=VECTOR('',#382,4.);
#384=LINE('',#303,#383);
#385=EDGE_CURVE('',#304,#340,#384,.T.);
#386=ORIENTED_EDGE('',*,*,#385,.F.);
#387=EDGE_LOOP('',(#375,#380,#381,#386));
#388=FACE_OUTER_BOUND('',#387,.T.);
#389=CARTESIAN_POINT('',(547.,45.,346.6));
#390=DIRECTION('',(0.,-1.,0.));
#391=DIRECTION('',(1.,0.,0.));
#392=AXIS2_PLACEMENT_3D('',#389,#390,#391);
#393=PLANE('',#392);
#394=ADVANCED_FACE('',(#388),#393,.T.);
#395=ORIENTED_EDGE('',*,*,#324,.T.);
#396=DIRECTION('',(0.,0.,1.));
#397=VECTOR('',#396,4.);
#398=LINE('',#312,#397);
#399=EDGE_CURVE('',#313,#349,#398,.T.);
#400=ORIENTED_EDGE('',*,*,#399,.T.);
#401=ORIENTED_EDGE('',*,*,#353,.F.);
#402=ORIENTED_EDGE('',*,*,#379,.F.);
#403=EDGE_LOOP('',(#395,#400,#401,#402));
#404=FACE_OUTER_BOUND('',#403,.T.);
#405=CARTESIAN_POINT('',(587.,45.,346.6));
#406=DIRECTION('',(1.,0.,0.));
#407=DIRECTION('',(0.,1.,0.));
#408=AXIS2_PLACEMENT_3D('',#405,#406,#407);
#409=PLANE('',#408);
#410=ADVANCED_FACE('',(#404),#409,.T.);
#411=ORIENTED_EDGE('',*,*,#317,.T.);
#412=DIRECTION('',(0.,0.,1.));
#413=VECTOR('',#412,4.);
#414=LINE('',#305,#413);
#415=EDGE_CURVE('',#306,#356,#414,.T.);
#416=ORIENTED_EDGE('',*,*,#415,.T.);
#417=ORIENTED_EDGE('',*,*,#360,.F.);
#418=ORIENTED_EDGE('',*,*,#399,.F.);
#419=EDGE_LOOP('',(#411,#416,#417,#418));
#420=FACE_OUTER_BOUND('',#419,.T.);
#421=CARTESIAN_POINT('',(587.,85.,346.6));
#422=DIRECTION('',(0.,1.,0.));
#423=DIRECTION('',(-1.,0.,0.));
#424=AXIS2_PLACEMENT_3D('',#421,#422,#423);
#425=PLANE('',#424);
#426=ADVANCED_FACE('',(#420),#425,.T.);
#427=ORIENTED_EDGE('',*,*,#310,.F.);
#428=ORIENTED_EDGE('',*,*,#385,.T.);
#429=ORIENTED_EDGE('',*,*,#365,.T.);
#430=ORIENTED_EDGE('',*,*,#415,.F.);
#431=EDGE_LOOP('',(#427,#428,#429,#430));
#432=FACE_OUTER_BOUND('',#431,.T.);
#433=CARTESIAN_POINT('',(547.,85.,346.6));
#434=DIRECTION('',(-1.,0.,0.));
#435=DIRECTION('',(0.,-1.,0.));
#436=AXIS2_PLACEMENT_3D('',#433,#434,#435);
#437=PLANE('',#436);
#438=ADVANCED_FACE('',(#432),#437,.T.);
#439=CLOSED_SHELL('',(#338,#374,#394,#410,#426,#438));
#440=MANIFOLD_SOLID_BREP('',#439);
#441=STYLED_ITEM('color',(#162),#440);
#442=CARTESIAN_POINT('',(602.,20.,346.6));
#443=VERTEX_POINT('',#442);
#444=CARTESIAN_POINT('',(602.,40.,346.6));
#445=VERTEX_POINT('',#444);
#446=DIRECTION('',(0.,1.,0.));
#447=VECTOR('',#446,20.);
#448=LINE('',#442,#447);
#449=EDGE_CURVE('',#443,#445,#448,.T.);
#450=ORIENTED_EDGE('',*,*,#449,.T.);
#451=CARTESIAN_POINT('',(625.,40.,346.6));
#452=VERTEX_POINT('',#451);
#453=DIRECTION('',(-1.,0.,0.));
#454=VECTOR('',#453,23.);
#455=LINE('',#451,#454);
#456=EDGE_CURVE('',#452,#445,#455,.T.);
#457=ORIENTED_EDGE('',*,*,#456,.F.);
#458=CARTESIAN_POINT('',(625.,20.,346.6));
#459=VERTEX_POINT('',#458);
#460=DIRECTION('',(0.,1.,0.));
#461=VECTOR('',#460,20.);
#462=LINE('',#458,#461);
#463=EDGE_CURVE('',#459,#452,#462,.T.);
#464=ORIENTED_EDGE('',*,*,#463,.F.);
#465=DIRECTION('',(1.,0.,0.));
#466=VECTOR('',#465,23.);
#467=LINE('',#442,#466);
#468=EDGE_CURVE('',#443,#459,#467,.T.);
#469=ORIENTED_EDGE('',*,*,#468,.F.);
#470=EDGE_LOOP('',(#450,#457,#464,#469));
#471=FACE_OUTER_BOUND('',#470,.T.);
#472=CARTESIAN_POINT('',(602.,20.,346.6));
#473=DIRECTION('',(0.,0.,-1.));
#474=DIRECTION('',(0.,1.,0.));
#475=AXIS2_PLACEMENT_3D('',#472,#473,#474);
#476=PLANE('',#475);
#477=ADVANCED_FACE('',(#471),#476,.T.);
#478=CARTESIAN_POINT('',(602.,20.,349.));
#479=VERTEX_POINT('',#478);
#480=CARTESIAN_POINT('',(625.,20.,349.));
#481=VERTEX_POINT('',#480);
#482=DIRECTION('',(1.,0.,0.));
#483=VECTOR('',#482,23.);
#484=LINE('',#478,#483);
#485=EDGE_CURVE('',#479,#481,#484,.T.);
#486=ORIENTED_EDGE('',*,*,#485,.T.);
#487=CARTESIAN_POINT('',(625.,40.,349.));
#488=VERTEX_POINT('',#487);
#489=DIRECTION('',(0.,1.,0.));
#490=VECTOR('',#489,20.);
#491=LINE('',#480,#490);
#492=EDGE_CURVE('',#481,#488,#491,.T.);
#493=ORIENTED_EDGE('',*,*,#492,.T.);
#494=CARTESIAN_POINT('',(602.,40.,349.));
#495=VERTEX_POINT('',#494);
#496=DIRECTION('',(-1.,0.,0.));
#497=VECTOR('',#496,23.);
#498=LINE('',#487,#497);
#499=EDGE_CURVE('',#488,#495,#498,.T.);
#500=ORIENTED_EDGE('',*,*,#499,.T.);
#501=DIRECTION('',(0.,1.,0.));
#502=VECTOR('',#501,20.);
#503=LINE('',#478,#502);
#504=EDGE_CURVE('',#479,#495,#503,.T.);
#505=ORIENTED_EDGE('',*,*,#504,.F.);
#506=EDGE_LOOP('',(#486,#493,#500,#505));
#507=FACE_OUTER_BOUND('',#506,.T.);
#508=CARTESIAN_POINT('',(602.,20.,349.));
#509=DIRECTION('',(0.,0.,1.));
#510=DIRECTION('',(1.,0.,0.));
#511=AXIS2_PLACEMENT_3D('',#508,#509,#510);
#512=PLANE('',#511);
#513=ADVANCED_FACE('',(#507),#512,.T.);
#514=ORIENTED_EDGE('',*,*,#468,.T.);
#515=DIRECTION('',(0.,0.,1.));
#516=VECTOR('',#515,2.4);
#517=LINE('',#458,#516);
#518=EDGE_CURVE('',#459,#481,#517,.T.);
#519=ORIENTED_EDGE('',*,*,#518,.T.);
#520=ORIENTED_EDGE('',*,*,#485,.F.);
#521=DIRECTION('',(0.,0.,1.));
#522=VECTOR('',#521,2.4);
#523=LINE('',#442,#522);
#524=EDGE_CURVE('',#443,#479,#523,.T.);
#525=ORIENTED_EDGE('',*,*,#524,.F.);
#526=EDGE_LOOP('',(#514,#519,#520,#525));
#527=FACE_OUTER_BOUND('',#526,.T.);
#528=CARTESIAN_POINT('',(602.,20.,346.6));
#529=DIRECTION('',(0.,-1.,0.));
#530=DIRECTION('',(1.,0.,0.));
#531=AXIS2_PLACEMENT_3D('',#528,#529,#530);
#532=PLANE('',#531);
#533=ADVANCED_FACE('',(#527),#532,.T.);
#534=ORIENTED_EDGE('',*,*,#463,.T.);
#535=DIRECTION('',(0.,0.,1.));
#536=VECTOR('',#535,2.4);
#537=LINE('',#451,#536);
#538=EDGE_CURVE('',#452,#488,#537,.T.);
#539=ORIENTED_EDGE('',*,*,#538,.T.);
#540=ORIENTED_EDGE('',*,*,#492,.F.);
#541=ORIENTED_EDGE('',*,*,#518,.F.);
#542=EDGE_LOOP('',(#534,#539,#540,#541));
#543=FACE_OUTER_BOUND('',#542,.T.);
#544=CARTESIAN_POINT('',(625.,20.,346.6));
#545=DIRECTION('',(1.,0.,0.));
#546=DIRECTION('',(0.,1.,0.));
#547=AXIS2_PLACEMENT_3D('',#544,#545,#546);
#548=PLANE('',#547);
#549=ADVANCED_FACE('',(#543),#548,.T.);
#550=ORIENTED_EDGE('',*,*,#456,.T.);
#551=DIRECTION('',(0.,0.,1.));
#552=VECTOR('',#551,2.4);
#553=LINE('',#444,#552);
#554=EDGE_CURVE('',#445,#495,#553,.T.);
#555=ORIENTED_EDGE('',*,*,#554,.T.);
#556=ORIENTED_EDGE('',*,*,#499,.F.);
#557=ORIENTED_EDGE('',*,*,#538,.F.);
#558=EDGE_LOOP('',(#550,#555,#556,#557));
#559=FACE_OUTER_BOUND('',#558,.T.);
#560=CARTESIAN_POINT('',(625.,40.,346.6));
#561=DIRECTION('',(0.,1.,0.));
#562=DIRECTION('',(-1.,0.,0.));
#563=AXIS2_PLACEMENT_3D('',#560,#561,#562);
#564=PLANE('',#563);
#565=ADVANCED_FACE('',(#559),#564,.T.);
#566=ORIENTED_EDGE('',*,*,#449,.F.);
#567=ORIENTED_EDGE('',*,*,#524,.T.);
#568=ORIENTED_EDGE('',*,*,#504,.T.);
#569=ORIENTED_EDGE('',*,*,#554,.F.);
#570=EDGE_LOOP('',(#566,#567,#568,#569));
#571=FACE_OUTER_BOUND('',#570,.T.);
#572=CARTESIAN_POINT('',(602.,40.,346.6));
#573=DIRECTION('',(-1.,0.,0.));
#574=DIRECTION('',(0.,-1.,0.));
#575=AXIS2_PLACEMENT_3D('',#572,#573,#574);
#576=PLANE('',#575);
#577=ADVANCED_FACE('',(#571),#576,.T.);
#578=CLOSED_SHELL('',(#477,#513,#533,#549,#565,#577));
#579=MANIFOLD_SOLID_BREP('',#578);
#580=STYLED_ITEM('color',(#162),#579);
#581=CARTESIAN_POINT('',(485.,10.,323.));
#582=VERTEX_POINT('',#581);
#583=CARTESIAN_POINT('',(484.42705,11.76336,323.));
#584=VERTEX_POINT('',#583);
#585=DIRECTION('',(-0.30902,0.95106,0.));
#586=VECTOR('',#585,1.8541);
#587=LINE('',#581,#586);
#588=EDGE_CURVE('',#582,#584,#587,.T.);
#589=ORIENTED_EDGE('',*,*,#588,.T.);
#590=CARTESIAN_POINT('',(484.42705,11.76336,345.));
#591=VERTEX_POINT('',#590);
#592=DIRECTION('',(0.,0.,1.));
#593=VECTOR('',#592,22.);
#594=LINE('',#583,#593);
#595=EDGE_CURVE('',#584,#591,#594,.T.);
#596=ORIENTED_EDGE('',*,*,#595,.T.);
#597=CARTESIAN_POINT('',(485.,10.,345.));
#598=VERTEX_POINT('',#597);
#599=DIRECTION('',(-0.30902,0.95106,0.));
#600=VECTOR('',#599,1.8541);
#601=LINE('',#597,#600);
#602=EDGE_CURVE('',#598,#591,#601,.T.);
#603=ORIENTED_EDGE('',*,*,#602,.F.);
#604=DIRECTION('',(0.,0.,1.));
#605=VECTOR('',#604,22.);
#606=LINE('',#581,#605);
#607=EDGE_CURVE('',#582,#598,#606,.T.);
#608=ORIENTED_EDGE('',*,*,#607,.F.);
#609=EDGE_LOOP('',(#589,#596,#603,#608));
#610=FACE_OUTER_BOUND('',#609,.T.);
#611=CARTESIAN_POINT('',(485.,10.,323.));
#612=DIRECTION('',(0.95106,0.30902,0.));
#613=DIRECTION('',(-0.30902,0.95106,0.));
#614=AXIS2_PLACEMENT_3D('',#611,#612,#613);
#615=PLANE('',#614);
#616=ADVANCED_FACE('',(#610),#615,.T.);
#617=CARTESIAN_POINT('',(482.92705,12.85317,323.));
#618=VERTEX_POINT('',#617);
#619=DIRECTION('',(-0.80902,0.58779,0.));
#620=VECTOR('',#619,1.8541);
#621=LINE('',#583,#620);
#622=EDGE_CURVE('',#584,#618,#621,.T.);
#623=ORIENTED_EDGE('',*,*,#622,.T.);
#624=CARTESIAN_POINT('',(482.92705,12.85317,345.));
#625=VERTEX_POINT('',#624);
#626=DIRECTION('',(0.,0.,1.));
#627=VECTOR('',#626,22.);
#628=LINE('',#617,#627);
#629=EDGE_CURVE('',#618,#625,#628,.T.);
#630=ORIENTED_EDGE('',*,*,#629,.T.);
#631=DIRECTION('',(-0.80902,0.58779,0.));
#632=VECTOR('',#631,1.8541);
#633=LINE('',#590,#632);
#634=EDGE_CURVE('',#591,#625,#633,.T.);
#635=ORIENTED_EDGE('',*,*,#634,.F.);
#636=ORIENTED_EDGE('',*,*,#595,.F.);
#637=EDGE_LOOP('',(#623,#630,#635,#636));
#638=FACE_OUTER_BOUND('',#637,.T.);
#639=CARTESIAN_POINT('',(484.42705,11.76336,323.));
#640=DIRECTION('',(0.58779,0.80902,0.));
#641=DIRECTION('',(-0.80902,0.58779,0.));
#642=AXIS2_PLACEMENT_3D('',#639,#640,#641);
#643=PLANE('',#642);
#644=ADVANCED_FACE('',(#638),#643,.T.);
#645=CARTESIAN_POINT('',(481.07295,12.85317,323.));
#646=VERTEX_POINT('',#645);
#647=DIRECTION('',(-1.,0.,0.));
#648=VECTOR('',#647,1.8541);
#649=LINE('',#617,#648);
#650=EDGE_CURVE('',#618,#646,#649,.T.);
#651=ORIENTED_EDGE('',*,*,#650,.T.);
#652=CARTESIAN_POINT('',(481.07295,12.85317,345.));
#653=VERTEX_POINT('',#652);
#654=DIRECTION('',(0.,0.,1.));
#655=VECTOR('',#654,22.);
#656=LINE('',#645,#655);
#657=EDGE_CURVE('',#646,#653,#656,.T.);
#658=ORIENTED_EDGE('',*,*,#657,.T.);
#659=DIRECTION('',(-1.,0.,0.));
#660=VECTOR('',#659,1.8541);
#661=LINE('',#624,#660);
#662=EDGE_CURVE('',#625,#653,#661,.T.);
#663=ORIENTED_EDGE('',*,*,#662,.F.);
#664=ORIENTED_EDGE('',*,*,#629,.F.);
#665=EDGE_LOOP('',(#651,#658,#663,#664));
#666=FACE_OUTER_BOUND('',#665,.T.);
#667=CARTESIAN_POINT('',(482.92705,12.85317,323.));
#668=DIRECTION('',(0.,1.,0.));
#669=DIRECTION('',(-1.,0.,0.));
#670=AXIS2_PLACEMENT_3D('',#667,#668,#669);
#671=PLANE('',#670);
#672=ADVANCED_FACE('',(#666),#671,.T.);
#673=CARTESIAN_POINT('',(479.57295,11.76336,323.));
#674=VERTEX_POINT('',#673);
#675=DIRECTION('',(-0.80902,-0.58779,0.));
#676=VECTOR('',#675,1.8541);
#677=LINE('',#645,#676);
#678=EDGE_CURVE('',#646,#674,#677,.T.);
#679=ORIENTED_EDGE('',*,*,#678,.T.);
#680=CARTESIAN_POINT('',(479.57295,11.76336,345.));
#681=VERTEX_POINT('',#680);
#682=DIRECTION('',(0.,0.,1.));
#683=VECTOR('',#682,22.);
#684=LINE('',#673,#683);
#685=EDGE_CURVE('',#674,#681,#684,.T.);
#686=ORIENTED_EDGE('',*,*,#685,.T.);
#687=DIRECTION('',(-0.80902,-0.58779,0.));
#688=VECTOR('',#687,1.8541);
#689=LINE('',#652,#688);
#690=EDGE_CURVE('',#653,#681,#689,.T.);
#691=ORIENTED_EDGE('',*,*,#690,.F.);
#692=ORIENTED_EDGE('',*,*,#657,.F.);
#693=EDGE_LOOP('',(#679,#686,#691,#692));
#694=FACE_OUTER_BOUND('',#693,.T.);
#695=CARTESIAN_POINT('',(481.07295,12.85317,323.));
#696=DIRECTION('',(-0.58779,0.80902,0.));
#697=DIRECTION('',(-0.80902,-0.58779,0.));
#698=AXIS2_PLACEMENT_3D('',#695,#696,#697);
#699=PLANE('',#698);
#700=ADVANCED_FACE('',(#694),#699,.T.);
#701=CARTESIAN_POINT('',(479.,10.,323.));
#702=VERTEX_POINT('',#701);
#703=DIRECTION('',(-0.30902,-0.95106,0.));
#704=VECTOR('',#703,1.8541);
#705=LINE('',#673,#704);
#706=EDGE_CURVE('',#674,#702,#705,.T.);
#707=ORIENTED_EDGE('',*,*,#706,.T.);
#708=CARTESIAN_POINT('',(479.,10.,345.));
#709=VERTEX_POINT('',#708);
#710=DIRECTION('',(0.,0.,1.));
#711=VECTOR('',#710,22.);
#712=LINE('',#701,#711);
#713=EDGE_CURVE('',#702,#709,#712,.T.);
#714=ORIENTED_EDGE('',*,*,#713,.T.);
#715=DIRECTION('',(-0.30902,-0.95106,0.));
#716=VECTOR('',#715,1.8541);
#717=LINE('',#680,#716);
#718=EDGE_CURVE('',#681,#709,#717,.T.);
#719=ORIENTED_EDGE('',*,*,#718,.F.);
#720=ORIENTED_EDGE('',*,*,#685,.F.);
#721=EDGE_LOOP('',(#707,#714,#719,#720));
#722=FACE_OUTER_BOUND('',#721,.T.);
#723=CARTESIAN_POINT('',(479.57295,11.76336,323.));
#724=DIRECTION('',(-0.95106,0.30902,0.));
#725=DIRECTION('',(-0.30902,-0.95106,0.));
#726=AXIS2_PLACEMENT_3D('',#723,#724,#725);
#727=PLANE('',#726);
#728=ADVANCED_FACE('',(#722),#727,.T.);
#729=CARTESIAN_POINT('',(479.57295,8.23664,323.));
#730=VERTEX_POINT('',#729);
#731=DIRECTION('',(0.30902,-0.95106,0.));
#732=VECTOR('',#731,1.8541);
#733=LINE('',#701,#732);
#734=EDGE_CURVE('',#702,#730,#733,.T.);
#735=ORIENTED_EDGE('',*,*,#734,.T.);
#736=CARTESIAN_POINT('',(479.57295,8.23664,345.));
#737=VERTEX_POINT('',#736);
#738=DIRECTION('',(0.,0.,1.));
#739=VECTOR('',#738,22.);
#740=LINE('',#729,#739);
#741=EDGE_CURVE('',#730,#737,#740,.T.);
#742=ORIENTED_EDGE('',*,*,#741,.T.);
#743=DIRECTION('',(0.30902,-0.95106,0.));
#744=VECTOR('',#743,1.8541);
#745=LINE('',#708,#744);
#746=EDGE_CURVE('',#709,#737,#745,.T.);
#747=ORIENTED_EDGE('',*,*,#746,.F.);
#748=ORIENTED_EDGE('',*,*,#713,.F.);
#749=EDGE_LOOP('',(#735,#742,#747,#748));
#750=FACE_OUTER_BOUND('',#749,.T.);
#751=CARTESIAN_POINT('',(479.,10.,323.));
#752=DIRECTION('',(-0.95106,-0.30902,0.));
#753=DIRECTION('',(0.30902,-0.95106,0.));
#754=AXIS2_PLACEMENT_3D('',#751,#752,#753);
#755=PLANE('',#754);
#756=ADVANCED_FACE('',(#750),#755,.T.);
#757=CARTESIAN_POINT('',(481.07295,7.14683,323.));
#758=VERTEX_POINT('',#757);
#759=DIRECTION('',(0.80902,-0.58779,0.));
#760=VECTOR('',#759,1.8541);
#761=LINE('',#729,#760);
#762=EDGE_CURVE('',#730,#758,#761,.T.);
#763=ORIENTED_EDGE('',*,*,#762,.T.);
#764=CARTESIAN_POINT('',(481.07295,7.14683,345.));
#765=VERTEX_POINT('',#764);
#766=DIRECTION('',(0.,0.,1.));
#767=VECTOR('',#766,22.);
#768=LINE('',#757,#767);
#769=EDGE_CURVE('',#758,#765,#768,.T.);
#770=ORIENTED_EDGE('',*,*,#769,.T.);
#771=DIRECTION('',(0.80902,-0.58779,0.));
#772=VECTOR('',#771,1.8541);
#773=LINE('',#736,#772);
#774=EDGE_CURVE('',#737,#765,#773,.T.);
#775=ORIENTED_EDGE('',*,*,#774,.F.);
#776=ORIENTED_EDGE('',*,*,#741,.F.);
#777=EDGE_LOOP('',(#763,#770,#775,#776));
#778=FACE_OUTER_BOUND('',#777,.T.);
#779=CARTESIAN_POINT('',(479.57295,8.23664,323.));
#780=DIRECTION('',(-0.58779,-0.80902,0.));
#781=DIRECTION('',(0.80902,-0.58779,0.));
#782=AXIS2_PLACEMENT_3D('',#779,#780,#781);
#783=PLANE('',#782);
#784=ADVANCED_FACE('',(#778),#783,.T.);
#785=CARTESIAN_POINT('',(482.92705,7.14683,323.));
#786=VERTEX_POINT('',#785);
#787=DIRECTION('',(1.,0.,0.));
#788=VECTOR('',#787,1.8541);
#789=LINE('',#757,#788);
#790=EDGE_CURVE('',#758,#786,#789,.T.);
#791=ORIENTED_EDGE('',*,*,#790,.T.);
#792=CARTESIAN_POINT('',(482.92705,7.14683,345.));
#793=VERTEX_POINT('',#792);
#794=DIRECTION('',(0.,0.,1.));
#795=VECTOR('',#794,22.);
#796=LINE('',#785,#795);
#797=EDGE_CURVE('',#786,#793,#796,.T.);
#798=ORIENTED_EDGE('',*,*,#797,.T.);
#799=DIRECTION('',(1.,0.,0.));
#800=VECTOR('',#799,1.8541);
#801=LINE('',#764,#800);
#802=EDGE_CURVE('',#765,#793,#801,.T.);
#803=ORIENTED_EDGE('',*,*,#802,.F.);
#804=ORIENTED_EDGE('',*,*,#769,.F.);
#805=EDGE_LOOP('',(#791,#798,#803,#804));
#806=FACE_OUTER_BOUND('',#805,.T.);
#807=CARTESIAN_POINT('',(481.07295,7.14683,323.));
#808=DIRECTION('',(0.,-1.,0.));
#809=DIRECTION('',(1.,0.,0.));
#810=AXIS2_PLACEMENT_3D('',#807,#808,#809);
#811=PLANE('',#810);
#812=ADVANCED_FACE('',(#806),#811,.T.);
#813=CARTESIAN_POINT('',(484.42705,8.23664,323.));
#814=VERTEX_POINT('',#813);
#815=DIRECTION('',(0.80902,0.58779,0.));
#816=VECTOR('',#815,1.8541);
#817=LINE('',#785,#816);
#818=EDGE_CURVE('',#786,#814,#817,.T.);
#819=ORIENTED_EDGE('',*,*,#818,.T.);
#820=CARTESIAN_POINT('',(484.42705,8.23664,345.));
#821=VERTEX_POINT('',#820);
#822=DIRECTION('',(0.,0.,1.));
#823=VECTOR('',#822,22.);
#824=LINE('',#813,#823);
#825=EDGE_CURVE('',#814,#821,#824,.T.);
#826=ORIENTED_EDGE('',*,*,#825,.T.);
#827=DIRECTION('',(0.80902,0.58779,0.));
#828=VECTOR('',#827,1.8541);
#829=LINE('',#792,#828);
#830=EDGE_CURVE('',#793,#821,#829,.T.);
#831=ORIENTED_EDGE('',*,*,#830,.F.);
#832=ORIENTED_EDGE('',*,*,#797,.F.);
#833=EDGE_LOOP('',(#819,#826,#831,#832));
#834=FACE_OUTER_BOUND('',#833,.T.);
#835=CARTESIAN_POINT('',(482.92705,7.14683,323.));
#836=DIRECTION('',(0.58779,-0.80902,0.));
#837=DIRECTION('',(0.80902,0.58779,0.));
#838=AXIS2_PLACEMENT_3D('',#835,#836,#837);
#839=PLANE('',#838);
#840=ADVANCED_FACE('',(#834),#839,.T.);
#841=DIRECTION('',(-0.30902,-0.95106,0.));
#842=VECTOR('',#841,1.8541);
#843=LINE('',#581,#842);
#844=EDGE_CURVE('',#582,#814,#843,.T.);
#845=ORIENTED_EDGE('',*,*,#844,.F.);
#846=ORIENTED_EDGE('',*,*,#607,.T.);
#847=DIRECTION('',(-0.30902,-0.95106,0.));
#848=VECTOR('',#847,1.8541);
#849=LINE('',#597,#848);
#850=EDGE_CURVE('',#598,#821,#849,.T.);
#851=ORIENTED_EDGE('',*,*,#850,.T.);
#852=ORIENTED_EDGE('',*,*,#825,.F.);
#853=EDGE_LOOP('',(#845,#846,#851,#852));
#854=FACE_OUTER_BOUND('',#853,.T.);
#855=CARTESIAN_POINT('',(484.42705,8.23664,323.));
#856=DIRECTION('',(0.95106,-0.30902,0.));
#857=DIRECTION('',(0.30902,0.95106,0.));
#858=AXIS2_PLACEMENT_3D('',#855,#856,#857);
#859=PLANE('',#858);
#860=ADVANCED_FACE('',(#854),#859,.T.);
#861=ORIENTED_EDGE('',*,*,#818,.F.);
#862=ORIENTED_EDGE('',*,*,#790,.F.);
#863=ORIENTED_EDGE('',*,*,#762,.F.);
#864=ORIENTED_EDGE('',*,*,#734,.F.);
#865=ORIENTED_EDGE('',*,*,#706,.F.);
#866=ORIENTED_EDGE('',*,*,#678,.F.);
#867=ORIENTED_EDGE('',*,*,#650,.F.);
#868=ORIENTED_EDGE('',*,*,#622,.F.);
#869=ORIENTED_EDGE('',*,*,#588,.F.);
#870=ORIENTED_EDGE('',*,*,#844,.T.);
#871=EDGE_LOOP('',(#861,#862,#863,#864,#865,#866,#867,#868,#869,#870));
#872=FACE_OUTER_BOUND('',#871,.T.);
#873=CARTESIAN_POINT('',(484.42705,8.23664,323.));
#874=DIRECTION('',(0.,0.,-1.));
#875=DIRECTION('',(-0.80902,-0.58779,0.));
#876=AXIS2_PLACEMENT_3D('',#873,#874,#875);
#877=PLANE('',#876);
#878=ADVANCED_FACE('',(#872),#877,.T.);
#879=ORIENTED_EDGE('',*,*,#602,.T.);
#880=ORIENTED_EDGE('',*,*,#634,.T.);
#881=ORIENTED_EDGE('',*,*,#662,.T.);
#882=ORIENTED_EDGE('',*,*,#690,.T.);
#883=ORIENTED_EDGE('',*,*,#718,.T.);
#884=ORIENTED_EDGE('',*,*,#746,.T.);
#885=ORIENTED_EDGE('',*,*,#774,.T.);
#886=ORIENTED_EDGE('',*,*,#802,.T.);
#887=ORIENTED_EDGE('',*,*,#830,.T.);
#888=ORIENTED_EDGE('',*,*,#850,.F.);
#889=EDGE_LOOP('',(#879,#880,#881,#882,#883,#884,#885,#886,#887,#888));
#890=FACE_OUTER_BOUND('',#889,.T.);
#891=CARTESIAN_POINT('',(485.,10.,345.));
#892=DIRECTION('',(0.,0.,1.));
#893=DIRECTION('',(-0.30902,0.95106,0.));
#894=AXIS2_PLACEMENT_3D('',#891,#892,#893);
#895=PLANE('',#894);
#896=ADVANCED_FACE('',(#890),#895,.T.);
#897=CLOSED_SHELL('',(#616,#644,#672,#700,#728,#756,#784,#812,#840,#860,#878,#896));
#898=MANIFOLD_SOLID_BREP('',#897);
#899=STYLED_ITEM('color',(#162),#898);
#900=CARTESIAN_POINT('',(485.,100.,323.));
#901=VERTEX_POINT('',#900);
#902=CARTESIAN_POINT('',(484.42705,101.76336,323.));
#903=VERTEX_POINT('',#902);
#904=DIRECTION('',(-0.30902,0.95106,0.));
#905=VECTOR('',#904,1.8541);
#906=LINE('',#900,#905);
#907=EDGE_CURVE('',#901,#903,#906,.T.);
#908=ORIENTED_EDGE('',*,*,#907,.T.);
#909=CARTESIAN_POINT('',(484.42705,101.76336,345.));
#910=VERTEX_POINT('',#909);
#911=DIRECTION('',(0.,0.,1.));
#912=VECTOR('',#911,22.);
#913=LINE('',#902,#912);
#914=EDGE_CURVE('',#903,#910,#913,.T.);
#915=ORIENTED_EDGE('',*,*,#914,.T.);
#916=CARTESIAN_POINT('',(485.,100.,345.));
#917=VERTEX_POINT('',#916);
#918=DIRECTION('',(-0.30902,0.95106,0.));
#919=VECTOR('',#918,1.8541);
#920=LINE('',#916,#919);
#921=EDGE_CURVE('',#917,#910,#920,.T.);
#922=ORIENTED_EDGE('',*,*,#921,.F.);
#923=DIRECTION('',(0.,0.,1.));
#924=VECTOR('',#923,22.);
#925=LINE('',#900,#924);
#926=EDGE_CURVE('',#901,#917,#925,.T.);
#927=ORIENTED_EDGE('',*,*,#926,.F.);
#928=EDGE_LOOP('',(#908,#915,#922,#927));
#929=FACE_OUTER_BOUND('',#928,.T.);
#930=CARTESIAN_POINT('',(485.,100.,323.));
#931=DIRECTION('',(0.95106,0.30902,0.));
#932=DIRECTION('',(-0.30902,0.95106,0.));
#933=AXIS2_PLACEMENT_3D('',#930,#931,#932);
#934=PLANE('',#933);
#935=ADVANCED_FACE('',(#929),#934,.T.);
#936=CARTESIAN_POINT('',(482.92705,102.85317,323.));
#937=VERTEX_POINT('',#936);
#938=DIRECTION('',(-0.80902,0.58779,0.));
#939=VECTOR('',#938,1.8541);
#940=LINE('',#902,#939);
#941=EDGE_CURVE('',#903,#937,#940,.T.);
#942=ORIENTED_EDGE('',*,*,#941,.T.);
#943=CARTESIAN_POINT('',(482.92705,102.85317,345.));
#944=VERTEX_POINT('',#943);
#945=DIRECTION('',(0.,0.,1.));
#946=VECTOR('',#945,22.);
#947=LINE('',#936,#946);
#948=EDGE_CURVE('',#937,#944,#947,.T.);
#949=ORIENTED_EDGE('',*,*,#948,.T.);
#950=DIRECTION('',(-0.80902,0.58779,0.));
#951=VECTOR('',#950,1.8541);
#952=LINE('',#909,#951);
#953=EDGE_CURVE('',#910,#944,#952,.T.);
#954=ORIENTED_EDGE('',*,*,#953,.F.);
#955=ORIENTED_EDGE('',*,*,#914,.F.);
#956=EDGE_LOOP('',(#942,#949,#954,#955));
#957=FACE_OUTER_BOUND('',#956,.T.);
#958=CARTESIAN_POINT('',(484.42705,101.76336,323.));
#959=DIRECTION('',(0.58779,0.80902,0.));
#960=DIRECTION('',(-0.80902,0.58779,0.));
#961=AXIS2_PLACEMENT_3D('',#958,#959,#960);
#962=PLANE('',#961);
#963=ADVANCED_FACE('',(#957),#962,.T.);
#964=CARTESIAN_POINT('',(481.07295,102.85317,323.));
#965=VERTEX_POINT('',#964);
#966=DIRECTION('',(-1.,0.,0.));
#967=VECTOR('',#966,1.8541);
#968=LINE('',#936,#967);
#969=EDGE_CURVE('',#937,#965,#968,.T.);
#970=ORIENTED_EDGE('',*,*,#969,.T.);
#971=CARTESIAN_POINT('',(481.07295,102.85317,345.));
#972=VERTEX_POINT('',#971);
#973=DIRECTION('',(0.,0.,1.));
#974=VECTOR('',#973,22.);
#975=LINE('',#964,#974);
#976=EDGE_CURVE('',#965,#972,#975,.T.);
#977=ORIENTED_EDGE('',*,*,#976,.T.);
#978=DIRECTION('',(-1.,0.,0.));
#979=VECTOR('',#978,1.8541);
#980=LINE('',#943,#979);
#981=EDGE_CURVE('',#944,#972,#980,.T.);
#982=ORIENTED_EDGE('',*,*,#981,.F.);
#983=ORIENTED_EDGE('',*,*,#948,.F.);
#984=EDGE_LOOP('',(#970,#977,#982,#983));
#985=FACE_OUTER_BOUND('',#984,.T.);
#986=CARTESIAN_POINT('',(482.92705,102.85317,323.));
#987=DIRECTION('',(0.,1.,0.));
#988=DIRECTION('',(-1.,0.,0.));
#989=AXIS2_PLACEMENT_3D('',#986,#987,#988);
#990=PLANE('',#989);
#991=ADVANCED_FACE('',(#985),#990,.T.);
#992=CARTESIAN_POINT('',(479.57295,101.76336,323.));
#993=VERTEX_POINT('',#992);
#994=DIRECTION('',(-0.80902,-0.58779,0.));
#995=VECTOR('',#994,1.8541);
#996=LINE('',#964,#995);
#997=EDGE_CURVE('',#965,#993,#996,.T.);
#998=ORIENTED_EDGE('',*,*,#997,.T.);
#999=CARTESIAN_POINT('',(479.57295,101.76336,345.));
#1000=VERTEX_POINT('',#999);
#1001=DIRECTION('',(0.,0.,1.));
#1002=VECTOR('',#1001,22.);
#1003=LINE('',#992,#1002);
#1004=EDGE_CURVE('',#993,#1000,#1003,.T.);
#1005=ORIENTED_EDGE('',*,*,#1004,.T.);
#1006=DIRECTION('',(-0.80902,-0.58779,0.));
#1007=VECTOR('',#1006,1.8541);
#1008=LINE('',#971,#1007);
#1009=EDGE_CURVE('',#972,#1000,#1008,.T.);
#1010=ORIENTED_EDGE('',*,*,#1009,.F.);
#1011=ORIENTED_EDGE('',*,*,#976,.F.);
#1012=EDGE_LOOP('',(#998,#1005,#1010,#1011));
#1013=FACE_OUTER_BOUND('',#1012,.T.);
#1014=CARTESIAN_POINT('',(481.07295,102.85317,323.));
#1015=DIRECTION('',(-0.58779,0.80902,0.));
#1016=DIRECTION('',(-0.80902,-0.58779,0.));
#1017=AXIS2_PLACEMENT_3D('',#1014,#1015,#1016);
#1018=PLANE('',#1017);
#1019=ADVANCED_FACE('',(#1013),#1018,.T.);
#1020=CARTESIAN_POINT('',(479.,100.,323.));
#1021=VERTEX_POINT('',#1020);
#1022=DIRECTION('',(-0.30902,-0.95106,0.));
#1023=VECTOR('',#1022,1.8541);
#1024=LINE('',#992,#1023);
#1025=EDGE_CURVE('',#993,#1021,#1024,.T.);
#1026=ORIENTED_EDGE('',*,*,#1025,.T.);
#1027=CARTESIAN_POINT('',(479.,100.,345.));
#1028=VERTEX_POINT('',#1027);
#1029=DIRECTION('',(0.,0.,1.));
#1030=VECTOR('',#1029,22.);
#1031=LINE('',#1020,#1030);
#1032=EDGE_CURVE('',#1021,#1028,#1031,.T.);
#1033=ORIENTED_EDGE('',*,*,#1032,.T.);
#1034=DIRECTION('',(-0.30902,-0.95106,0.));
#1035=VECTOR('',#1034,1.8541);
#1036=LINE('',#999,#1035);
#1037=EDGE_CURVE('',#1000,#1028,#1036,.T.);
#1038=ORIENTED_EDGE('',*,*,#1037,.F.);
#1039=ORIENTED_EDGE('',*,*,#1004,.F.);
#1040=EDGE_LOOP('',(#1026,#1033,#1038,#1039));
#1041=FACE_OUTER_BOUND('',#1040,.T.);
#1042=CARTESIAN_POINT('',(479.57295,101.76336,323.));
#1043=DIRECTION('',(-0.95106,0.30902,0.));
#1044=DIRECTION('',(-0.30902,-0.95106,0.));
#1045=AXIS2_PLACEMENT_3D('',#1042,#1043,#1044);
#1046=PLANE('',#1045);
#1047=ADVANCED_FACE('',(#1041),#1046,.T.);
#1048=CARTESIAN_POINT('',(479.57295,98.23664,323.));
#1049=VERTEX_POINT('',#1048);
#1050=DIRECTION('',(0.30902,-0.95106,0.));
#1051=VECTOR('',#1050,1.8541);
#1052=LINE('',#1020,#1051);
#1053=EDGE_CURVE('',#1021,#1049,#1052,.T.);
#1054=ORIENTED_EDGE('',*,*,#1053,.T.);
#1055=CARTESIAN_POINT('',(479.57295,98.23664,345.));
#1056=VERTEX_POINT('',#1055);
#1057=DIRECTION('',(0.,0.,1.));
#1058=VECTOR('',#1057,22.);
#1059=LINE('',#1048,#1058);
#1060=EDGE_CURVE('',#1049,#1056,#1059,.T.);
#1061=ORIENTED_EDGE('',*,*,#1060,.T.);
#1062=DIRECTION('',(0.30902,-0.95106,0.));
#1063=VECTOR('',#1062,1.8541);
#1064=LINE('',#1027,#1063);
#1065=EDGE_CURVE('',#1028,#1056,#1064,.T.);
#1066=ORIENTED_EDGE('',*,*,#1065,.F.);
#1067=ORIENTED_EDGE('',*,*,#1032,.F.);
#1068=EDGE_LOOP('',(#1054,#1061,#1066,#1067));
#1069=FACE_OUTER_BOUND('',#1068,.T.);
#1070=CARTESIAN_POINT('',(479.,100.,323.));
#1071=DIRECTION('',(-0.95106,-0.30902,0.));
#1072=DIRECTION('',(0.30902,-0.95106,0.));
#1073=AXIS2_PLACEMENT_3D('',#1070,#1071,#1072);
#1074=PLANE('',#1073);
#1075=ADVANCED_FACE('',(#1069),#1074,.T.);
#1076=CARTESIAN_POINT('',(481.07295,97.14683,323.));
#1077=VERTEX_POINT('',#1076);
#1078=DIRECTION('',(0.80902,-0.58779,0.));
#1079=VECTOR('',#1078,1.8541);
#1080=LINE('',#1048,#1079);
#1081=EDGE_CURVE('',#1049,#1077,#1080,.T.);
#1082=ORIENTED_EDGE('',*,*,#1081,.T.);
#1083=CARTESIAN_POINT('',(481.07295,97.14683,345.));
#1084=VERTEX_POINT('',#1083);
#1085=DIRECTION('',(0.,0.,1.));
#1086=VECTOR('',#1085,22.);
#1087=LINE('',#1076,#1086);
#1088=EDGE_CURVE('',#1077,#1084,#1087,.T.);
#1089=ORIENTED_EDGE('',*,*,#1088,.T.);
#1090=DIRECTION('',(0.80902,-0.58779,0.));
#1091=VECTOR('',#1090,1.8541);
#1092=LINE('',#1055,#1091);
#1093=EDGE_CURVE('',#1056,#1084,#1092,.T.);
#1094=ORIENTED_EDGE('',*,*,#1093,.F.);
#1095=ORIENTED_EDGE('',*,*,#1060,.F.);
#1096=EDGE_LOOP('',(#1082,#1089,#1094,#1095));
#1097=FACE_OUTER_BOUND('',#1096,.T.);
#1098=CARTESIAN_POINT('',(479.57295,98.23664,323.));
#1099=DIRECTION('',(-0.58779,-0.80902,0.));
#1100=DIRECTION('',(0.80902,-0.58779,0.));
#1101=AXIS2_PLACEMENT_3D('',#1098,#1099,#1100);
#1102=PLANE('',#1101);
#1103=ADVANCED_FACE('',(#1097),#1102,.T.);
#1104=CARTESIAN_POINT('',(482.92705,97.14683,323.));
#1105=VERTEX_POINT('',#1104);
#1106=DIRECTION('',(1.,0.,0.));
#1107=VECTOR('',#1106,1.8541);
#1108=LINE('',#1076,#1107);
#1109=EDGE_CURVE('',#1077,#1105,#1108,.T.);
#1110=ORIENTED_EDGE('',*,*,#1109,.T.);
#1111=CARTESIAN_POINT('',(482.92705,97.14683,345.));
#1112=VERTEX_POINT('',#1111);
#1113=DIRECTION('',(0.,0.,1.));
#1114=VECTOR('',#1113,22.);
#1115=LINE('',#1104,#1114);
#1116=EDGE_CURVE('',#1105,#1112,#1115,.T.);
#1117=ORIENTED_EDGE('',*,*,#1116,.T.);
#1118=DIRECTION('',(1.,0.,0.));
#1119=VECTOR('',#1118,1.8541);
#1120=LINE('',#1083,#1119);
#1121=EDGE_CURVE('',#1084,#1112,#1120,.T.);
#1122=ORIENTED_EDGE('',*,*,#1121,.F.);
#1123=ORIENTED_EDGE('',*,*,#1088,.F.);
#1124=EDGE_LOOP('',(#1110,#1117,#1122,#1123));
#1125=FACE_OUTER_BOUND('',#1124,.T.);
#1126=CARTESIAN_POINT('',(481.07295,97.14683,323.));
#1127=DIRECTION('',(0.,-1.,0.));
#1128=DIRECTION('',(1.,0.,0.));
#1129=AXIS2_PLACEMENT_3D('',#1126,#1127,#1128);
#1130=PLANE('',#1129);
#1131=ADVANCED_FACE('',(#1125),#1130,.T.);
#1132=CARTESIAN_POINT('',(484.42705,98.23664,323.));
#1133=VERTEX_POINT('',#1132);
#1134=DIRECTION('',(0.80902,0.58779,0.));
#1135=VECTOR('',#1134,1.8541);
#1136=LINE('',#1104,#1135);
#1137=EDGE_CURVE('',#1105,#1133,#1136,.T.);
#1138=ORIENTED_EDGE('',*,*,#1137,.T.);
#1139=CARTESIAN_POINT('',(484.42705,98.23664,345.));
#1140=VERTEX_POINT('',#1139);
#1141=DIRECTION('',(0.,0.,1.));
#1142=VECTOR('',#1141,22.);
#1143=LINE('',#1132,#1142);
#1144=EDGE_CURVE('',#1133,#1140,#1143,.T.);
#1145=ORIENTED_EDGE('',*,*,#1144,.T.);
#1146=DIRECTION('',(0.80902,0.58779,0.));
#1147=VECTOR('',#1146,1.8541);
#1148=LINE('',#1111,#1147);
#1149=EDGE_CURVE('',#1112,#1140,#1148,.T.);
#1150=ORIENTED_EDGE('',*,*,#1149,.F.);
#1151=ORIENTED_EDGE('',*,*,#1116,.F.);
#1152=EDGE_LOOP('',(#1138,#1145,#1150,#1151));
#1153=FACE_OUTER_BOUND('',#1152,.T.);
#1154=CARTESIAN_POINT('',(482.92705,97.14683,323.));
#1155=DIRECTION('',(0.58779,-0.80902,0.));
#1156=DIRECTION('',(0.80902,0.58779,0.));
#1157=AXIS2_PLACEMENT_3D('',#1154,#1155,#1156);
#1158=PLANE('',#1157);
#1159=ADVANCED_FACE('',(#1153),#1158,.T.);
#1160=DIRECTION('',(-0.30902,-0.95106,0.));
#1161=VECTOR('',#1160,1.8541);
#1162=LINE('',#900,#1161);
#1163=EDGE_CURVE('',#901,#1133,#1162,.T.);
#1164=ORIENTED_EDGE('',*,*,#1163,.F.);
#1165=ORIENTED_EDGE('',*,*,#926,.T.);
#1166=DIRECTION('',(-0.30902,-0.95106,0.));
#1167=VECTOR('',#1166,1.8541);
#1168=LINE('',#916,#1167);
#1169=EDGE_CURVE('',#917,#1140,#1168,.T.);
#1170=ORIENTED_EDGE('',*,*,#1169,.T.);
#1171=ORIENTED_EDGE('',*,*,#1144,.F.);
#1172=EDGE_LOOP('',(#1164,#1165,#1170,#1171));
#1173=FACE_OUTER_BOUND('',#1172,.T.);
#1174=CARTESIAN_POINT('',(484.42705,98.23664,323.));
#1175=DIRECTION('',(0.95106,-0.30902,0.));
#1176=DIRECTION('',(0.30902,0.95106,0.));
#1177=AXIS2_PLACEMENT_3D('',#1174,#1175,#1176);
#1178=PLANE('',#1177);
#1179=ADVANCED_FACE('',(#1173),#1178,.T.);
#1180=ORIENTED_EDGE('',*,*,#1137,.F.);
#1181=ORIENTED_EDGE('',*,*,#1109,.F.);
#1182=ORIENTED_EDGE('',*,*,#1081,.F.);
#1183=ORIENTED_EDGE('',*,*,#1053,.F.);
#1184=ORIENTED_EDGE('',*,*,#1025,.F.);
#1185=ORIENTED_EDGE('',*,*,#997,.F.);
#1186=ORIENTED_EDGE('',*,*,#969,.F.);
#1187=ORIENTED_EDGE('',*,*,#941,.F.);
#1188=ORIENTED_EDGE('',*,*,#907,.F.);
#1189=ORIENTED_EDGE('',*,*,#1163,.T.);
#1190=EDGE_LOOP('',(#1180,#1181,#1182,#1183,#1184,#1185,#1186,#1187,#1188,#1189));
#1191=FACE_OUTER_BOUND('',#1190,.T.);
#1192=CARTESIAN_POINT('',(484.42705,98.23664,323.));
#1193=DIRECTION('',(0.,0.,-1.));
#1194=DIRECTION('',(-0.80902,-0.58779,0.));
#1195=AXIS2_PLACEMENT_3D('',#1192,#1193,#1194);
#1196=PLANE('',#1195);
#1197=ADVANCED_FACE('',(#1191),#1196,.T.);
#1198=ORIENTED_EDGE('',*,*,#921,.T.);
#1199=ORIENTED_EDGE('',*,*,#953,.T.);
#1200=ORIENTED_EDGE('',*,*,#981,.T.);
#1201=ORIENTED_EDGE('',*,*,#1009,.T.);
#1202=ORIENTED_EDGE('',*,*,#1037,.T.);
#1203=ORIENTED_EDGE('',*,*,#1065,.T.);
#1204=ORIENTED_EDGE('',*,*,#1093,.T.);
#1205=ORIENTED_EDGE('',*,*,#1121,.T.);
#1206=ORIENTED_EDGE('',*,*,#1149,.T.);
#1207=ORIENTED_EDGE('',*,*,#1169,.F.);
#1208=EDGE_LOOP('',(#1198,#1199,#1200,#1201,#1202,#1203,#1204,#1205,#1206,#1207));
#1209=FACE_OUTER_BOUND('',#1208,.T.);
#1210=CARTESIAN_POINT('',(485.,100.,345.));
#1211=DIRECTION('',(0.,0.,1.));
#1212=DIRECTION('',(-0.30902,0.95106,0.));
#1213=AXIS2_PLACEMENT_3D('',#1210,#1211,#1212);
#1214=PLANE('',#1213);
#1215=ADVANCED_FACE('',(#1209),#1214,.T.);
#1216=CLOSED_SHELL('',(#935,#963,#991,#1019,#1047,#1075,#1103,#1131,#1159,#1179,#1197,#1215));
#1217=MANIFOLD_SOLID_BREP('',#1216);
#1218=STYLED_ITEM('color',(#162),#1217);
#1219=CARTESIAN_POINT('',(635.,10.,323.));
#1220=VERTEX_POINT('',#1219);
#1221=CARTESIAN_POINT('',(634.42705,11.76336,323.));
#1222=VERTEX_POINT('',#1221);
#1223=DIRECTION('',(-0.30902,0.95106,0.));
#1224=VECTOR('',#1223,1.8541);
#1225=LINE('',#1219,#1224);
#1226=EDGE_CURVE('',#1220,#1222,#1225,.T.);
#1227=ORIENTED_EDGE('',*,*,#1226,.T.);
#1228=CARTESIAN_POINT('',(634.42705,11.76336,345.));
#1229=VERTEX_POINT('',#1228);
#1230=DIRECTION('',(0.,0.,1.));
#1231=VECTOR('',#1230,22.);
#1232=LINE('',#1221,#1231);
#1233=EDGE_CURVE('',#1222,#1229,#1232,.T.);
#1234=ORIENTED_EDGE('',*,*,#1233,.T.);
#1235=CARTESIAN_POINT('',(635.,10.,345.));
#1236=VERTEX_POINT('',#1235);
#1237=DIRECTION('',(-0.30902,0.95106,0.));
#1238=VECTOR('',#1237,1.8541);
#1239=LINE('',#1235,#1238);
#1240=EDGE_CURVE('',#1236,#1229,#1239,.T.);
#1241=ORIENTED_EDGE('',*,*,#1240,.F.);
#1242=DIRECTION('',(0.,0.,1.));
#1243=VECTOR('',#1242,22.);
#1244=LINE('',#1219,#1243);
#1245=EDGE_CURVE('',#1220,#1236,#1244,.T.);
#1246=ORIENTED_EDGE('',*,*,#1245,.F.);
#1247=EDGE_LOOP('',(#1227,#1234,#1241,#1246));
#1248=FACE_OUTER_BOUND('',#1247,.T.);
#1249=CARTESIAN_POINT('',(635.,10.,323.));
#1250=DIRECTION('',(0.95106,0.30902,0.));
#1251=DIRECTION('',(-0.30902,0.95106,0.));
#1252=AXIS2_PLACEMENT_3D('',#1249,#1250,#1251);
#1253=PLANE('',#1252);
#1254=ADVANCED_FACE('',(#1248),#1253,.T.);
#1255=CARTESIAN_POINT('',(632.92705,12.85317,323.));
#1256=VERTEX_POINT('',#1255);
#1257=DIRECTION('',(-0.80902,0.58779,0.));
#1258=VECTOR('',#1257,1.8541);
#1259=LINE('',#1221,#1258);
#1260=EDGE_CURVE('',#1222,#1256,#1259,.T.);
#1261=ORIENTED_EDGE('',*,*,#1260,.T.);
#1262=CARTESIAN_POINT('',(632.92705,12.85317,345.));
#1263=VERTEX_POINT('',#1262);
#1264=DIRECTION('',(0.,0.,1.));
#1265=VECTOR('',#1264,22.);
#1266=LINE('',#1255,#1265);
#1267=EDGE_CURVE('',#1256,#1263,#1266,.T.);
#1268=ORIENTED_EDGE('',*,*,#1267,.T.);
#1269=DIRECTION('',(-0.80902,0.58779,0.));
#1270=VECTOR('',#1269,1.8541);
#1271=LINE('',#1228,#1270);
#1272=EDGE_CURVE('',#1229,#1263,#1271,.T.);
#1273=ORIENTED_EDGE('',*,*,#1272,.F.);
#1274=ORIENTED_EDGE('',*,*,#1233,.F.);
#1275=EDGE_LOOP('',(#1261,#1268,#1273,#1274));
#1276=FACE_OUTER_BOUND('',#1275,.T.);
#1277=CARTESIAN_POINT('',(634.42705,11.76336,323.));
#1278=DIRECTION('',(0.58779,0.80902,0.));
#1279=DIRECTION('',(-0.80902,0.58779,0.));
#1280=AXIS2_PLACEMENT_3D('',#1277,#1278,#1279);
#1281=PLANE('',#1280);
#1282=ADVANCED_FACE('',(#1276),#1281,.T.);
#1283=CARTESIAN_POINT('',(631.07295,12.85317,323.));
#1284=VERTEX_POINT('',#1283);
#1285=DIRECTION('',(-1.,0.,0.));
#1286=VECTOR('',#1285,1.8541);
#1287=LINE('',#1255,#1286);
#1288=EDGE_CURVE('',#1256,#1284,#1287,.T.);
#1289=ORIENTED_EDGE('',*,*,#1288,.T.);
#1290=CARTESIAN_POINT('',(631.07295,12.85317,345.));
#1291=VERTEX_POINT('',#1290);
#1292=DIRECTION('',(0.,0.,1.));
#1293=VECTOR('',#1292,22.);
#1294=LINE('',#1283,#1293);
#1295=EDGE_CURVE('',#1284,#1291,#1294,.T.);
#1296=ORIENTED_EDGE('',*,*,#1295,.T.);
#1297=DIRECTION('',(-1.,0.,0.));
#1298=VECTOR('',#1297,1.8541);
#1299=LINE('',#1262,#1298);
#1300=EDGE_CURVE('',#1263,#1291,#1299,.T.);
#1301=ORIENTED_EDGE('',*,*,#1300,.F.);
#1302=ORIENTED_EDGE('',*,*,#1267,.F.);
#1303=EDGE_LOOP('',(#1289,#1296,#1301,#1302));
#1304=FACE_OUTER_BOUND('',#1303,.T.);
#1305=CARTESIAN_POINT('',(632.92705,12.85317,323.));
#1306=DIRECTION('',(0.,1.,0.));
#1307=DIRECTION('',(-1.,0.,0.));
#1308=AXIS2_PLACEMENT_3D('',#1305,#1306,#1307);
#1309=PLANE('',#1308);
#1310=ADVANCED_FACE('',(#1304),#1309,.T.);
#1311=CARTESIAN_POINT('',(629.57295,11.76336,323.));
#1312=VERTEX_POINT('',#1311);
#1313=DIRECTION('',(-0.80902,-0.58779,0.));
#1314=VECTOR('',#1313,1.8541);
#1315=LINE('',#1283,#1314);
#1316=EDGE_CURVE('',#1284,#1312,#1315,.T.);
#1317=ORIENTED_EDGE('',*,*,#1316,.T.);
#1318=CARTESIAN_POINT('',(629.57295,11.76336,345.));
#1319=VERTEX_POINT('',#1318);
#1320=DIRECTION('',(0.,0.,1.));
#1321=VECTOR('',#1320,22.);
#1322=LINE('',#1311,#1321);
#1323=EDGE_CURVE('',#1312,#1319,#1322,.T.);
#1324=ORIENTED_EDGE('',*,*,#1323,.T.);
#1325=DIRECTION('',(-0.80902,-0.58779,0.));
#1326=VECTOR('',#1325,1.8541);
#1327=LINE('',#1290,#1326);
#1328=EDGE_CURVE('',#1291,#1319,#1327,.T.);
#1329=ORIENTED_EDGE('',*,*,#1328,.F.);
#1330=ORIENTED_EDGE('',*,*,#1295,.F.);
#1331=EDGE_LOOP('',(#1317,#1324,#1329,#1330));
#1332=FACE_OUTER_BOUND('',#1331,.T.);
#1333=CARTESIAN_POINT('',(631.07295,12.85317,323.));
#1334=DIRECTION('',(-0.58779,0.80902,0.));
#1335=DIRECTION('',(-0.80902,-0.58779,0.));
#1336=AXIS2_PLACEMENT_3D('',#1333,#1334,#1335);
#1337=PLANE('',#1336);
#1338=ADVANCED_FACE('',(#1332),#1337,.T.);
#1339=CARTESIAN_POINT('',(629.,10.,323.));
#1340=VERTEX_POINT('',#1339);
#1341=DIRECTION('',(-0.30902,-0.95106,0.));
#1342=VECTOR('',#1341,1.8541);
#1343=LINE('',#1311,#1342);
#1344=EDGE_CURVE('',#1312,#1340,#1343,.T.);
#1345=ORIENTED_EDGE('',*,*,#1344,.T.);
#1346=CARTESIAN_POINT('',(629.,10.,345.));
#1347=VERTEX_POINT('',#1346);
#1348=DIRECTION('',(0.,0.,1.));
#1349=VECTOR('',#1348,22.);
#1350=LINE('',#1339,#1349);
#1351=EDGE_CURVE('',#1340,#1347,#1350,.T.);
#1352=ORIENTED_EDGE('',*,*,#1351,.T.);
#1353=DIRECTION('',(-0.30902,-0.95106,0.));
#1354=VECTOR('',#1353,1.8541);
#1355=LINE('',#1318,#1354);
#1356=EDGE_CURVE('',#1319,#1347,#1355,.T.);
#1357=ORIENTED_EDGE('',*,*,#1356,.F.);
#1358=ORIENTED_EDGE('',*,*,#1323,.F.);
#1359=EDGE_LOOP('',(#1345,#1352,#1357,#1358));
#1360=FACE_OUTER_BOUND('',#1359,.T.);
#1361=CARTESIAN_POINT('',(629.57295,11.76336,323.));
#1362=DIRECTION('',(-0.95106,0.30902,0.));
#1363=DIRECTION('',(-0.30902,-0.95106,0.));
#1364=AXIS2_PLACEMENT_3D('',#1361,#1362,#1363);
#1365=PLANE('',#1364);
#1366=ADVANCED_FACE('',(#1360),#1365,.T.);
#1367=CARTESIAN_POINT('',(629.57295,8.23664,323.));
#1368=VERTEX_POINT('',#1367);
#1369=DIRECTION('',(0.30902,-0.95106,0.));
#1370=VECTOR('',#1369,1.8541);
#1371=LINE('',#1339,#1370);
#1372=EDGE_CURVE('',#1340,#1368,#1371,.T.);
#1373=ORIENTED_EDGE('',*,*,#1372,.T.);
#1374=CARTESIAN_POINT('',(629.57295,8.23664,345.));
#1375=VERTEX_POINT('',#1374);
#1376=DIRECTION('',(0.,0.,1.));
#1377=VECTOR('',#1376,22.);
#1378=LINE('',#1367,#1377);
#1379=EDGE_CURVE('',#1368,#1375,#1378,.T.);
#1380=ORIENTED_EDGE('',*,*,#1379,.T.);
#1381=DIRECTION('',(0.30902,-0.95106,0.));
#1382=VECTOR('',#1381,1.8541);
#1383=LINE('',#1346,#1382);
#1384=EDGE_CURVE('',#1347,#1375,#1383,.T.);
#1385=ORIENTED_EDGE('',*,*,#1384,.F.);
#1386=ORIENTED_EDGE('',*,*,#1351,.F.);
#1387=EDGE_LOOP('',(#1373,#1380,#1385,#1386));
#1388=FACE_OUTER_BOUND('',#1387,.T.);
#1389=CARTESIAN_POINT('',(629.,10.,323.));
#1390=DIRECTION('',(-0.95106,-0.30902,0.));
#1391=DIRECTION('',(0.30902,-0.95106,0.));
#1392=AXIS2_PLACEMENT_3D('',#1389,#1390,#1391);
#1393=PLANE('',#1392);
#1394=ADVANCED_FACE('',(#1388),#1393,.T.);
#1395=CARTESIAN_POINT('',(631.07295,7.14683,323.));
#1396=VERTEX_POINT('',#1395);
#1397=DIRECTION('',(0.80902,-0.58779,0.));
#1398=VECTOR('',#1397,1.8541);
#1399=LINE('',#1367,#1398);
#1400=EDGE_CURVE('',#1368,#1396,#1399,.T.);
#1401=ORIENTED_EDGE('',*,*,#1400,.T.);
#1402=CARTESIAN_POINT('',(631.07295,7.14683,345.));
#1403=VERTEX_POINT('',#1402);
#1404=DIRECTION('',(0.,0.,1.));
#1405=VECTOR('',#1404,22.);
#1406=LINE('',#1395,#1405);
#1407=EDGE_CURVE('',#1396,#1403,#1406,.T.);
#1408=ORIENTED_EDGE('',*,*,#1407,.T.);
#1409=DIRECTION('',(0.80902,-0.58779,0.));
#1410=VECTOR('',#1409,1.8541);
#1411=LINE('',#1374,#1410);
#1412=EDGE_CURVE('',#1375,#1403,#1411,.T.);
#1413=ORIENTED_EDGE('',*,*,#1412,.F.);
#1414=ORIENTED_EDGE('',*,*,#1379,.F.);
#1415=EDGE_LOOP('',(#1401,#1408,#1413,#1414));
#1416=FACE_OUTER_BOUND('',#1415,.T.);
#1417=CARTESIAN_POINT('',(629.57295,8.23664,323.));
#1418=DIRECTION('',(-0.58779,-0.80902,0.));
#1419=DIRECTION('',(0.80902,-0.58779,0.));
#1420=AXIS2_PLACEMENT_3D('',#1417,#1418,#1419);
#1421=PLANE('',#1420);
#1422=ADVANCED_FACE('',(#1416),#1421,.T.);
#1423=CARTESIAN_POINT('',(632.92705,7.14683,323.));
#1424=VERTEX_POINT('',#1423);
#1425=DIRECTION('',(1.,0.,0.));
#1426=VECTOR('',#1425,1.8541);
#1427=LINE('',#1395,#1426);
#1428=EDGE_CURVE('',#1396,#1424,#1427,.T.);
#1429=ORIENTED_EDGE('',*,*,#1428,.T.);
#1430=CARTESIAN_POINT('',(632.92705,7.14683,345.));
#1431=VERTEX_POINT('',#1430);
#1432=DIRECTION('',(0.,0.,1.));
#1433=VECTOR('',#1432,22.);
#1434=LINE('',#1423,#1433);
#1435=EDGE_CURVE('',#1424,#1431,#1434,.T.);
#1436=ORIENTED_EDGE('',*,*,#1435,.T.);
#1437=DIRECTION('',(1.,0.,0.));
#1438=VECTOR('',#1437,1.8541);
#1439=LINE('',#1402,#1438);
#1440=EDGE_CURVE('',#1403,#1431,#1439,.T.);
#1441=ORIENTED_EDGE('',*,*,#1440,.F.);
#1442=ORIENTED_EDGE('',*,*,#1407,.F.);
#1443=EDGE_LOOP('',(#1429,#1436,#1441,#1442));
#1444=FACE_OUTER_BOUND('',#1443,.T.);
#1445=CARTESIAN_POINT('',(631.07295,7.14683,323.));
#1446=DIRECTION('',(0.,-1.,0.));
#1447=DIRECTION('',(1.,0.,0.));
#1448=AXIS2_PLACEMENT_3D('',#1445,#1446,#1447);
#1449=PLANE('',#1448);
#1450=ADVANCED_FACE('',(#1444),#1449,.T.);
#1451=CARTESIAN_POINT('',(634.42705,8.23664,323.));
#1452=VERTEX_POINT('',#1451);
#1453=DIRECTION('',(0.80902,0.58779,0.));
#1454=VECTOR('',#1453,1.8541);
#1455=LINE('',#1423,#1454);
#1456=EDGE_CURVE('',#1424,#1452,#1455,.T.);
#1457=ORIENTED_EDGE('',*,*,#1456,.T.);
#1458=CARTESIAN_POINT('',(634.42705,8.23664,345.));
#1459=VERTEX_POINT('',#1458);
#1460=DIRECTION('',(0.,0.,1.));
#1461=VECTOR('',#1460,22.);
#1462=LINE('',#1451,#1461);
#1463=EDGE_CURVE('',#1452,#1459,#1462,.T.);
#1464=ORIENTED_EDGE('',*,*,#1463,.T.);
#1465=DIRECTION('',(0.80902,0.58779,0.));
#1466=VECTOR('',#1465,1.8541);
#1467=LINE('',#1430,#1466);
#1468=EDGE_CURVE('',#1431,#1459,#1467,.T.);
#1469=ORIENTED_EDGE('',*,*,#1468,.F.);
#1470=ORIENTED_EDGE('',*,*,#1435,.F.);
#1471=EDGE_LOOP('',(#1457,#1464,#1469,#1470));
#1472=FACE_OUTER_BOUND('',#1471,.T.);
#1473=CARTESIAN_POINT('',(632.92705,7.14683,323.));
#1474=DIRECTION('',(0.58779,-0.80902,0.));
#1475=DIRECTION('',(0.80902,0.58779,0.));
#1476=AXIS2_PLACEMENT_3D('',#1473,#1474,#1475);
#1477=PLANE('',#1476);
#1478=ADVANCED_FACE('',(#1472),#1477,.T.);
#1479=DIRECTION('',(-0.30902,-0.95106,0.));
#1480=VECTOR('',#1479,1.8541);
#1481=LINE('',#1219,#1480);
#1482=EDGE_CURVE('',#1220,#1452,#1481,.T.);
#1483=ORIENTED_EDGE('',*,*,#1482,.F.);
#1484=ORIENTED_EDGE('',*,*,#1245,.T.);
#1485=DIRECTION('',(-0.30902,-0.95106,0.));
#1486=VECTOR('',#1485,1.8541);
#1487=LINE('',#1235,#1486);
#1488=EDGE_CURVE('',#1236,#1459,#1487,.T.);
#1489=ORIENTED_EDGE('',*,*,#1488,.T.);
#1490=ORIENTED_EDGE('',*,*,#1463,.F.);
#1491=EDGE_LOOP('',(#1483,#1484,#1489,#1490));
#1492=FACE_OUTER_BOUND('',#1491,.T.);
#1493=CARTESIAN_POINT('',(634.42705,8.23664,323.));
#1494=DIRECTION('',(0.95106,-0.30902,0.));
#1495=DIRECTION('',(0.30902,0.95106,0.));
#1496=AXIS2_PLACEMENT_3D('',#1493,#1494,#1495);
#1497=PLANE('',#1496);
#1498=ADVANCED_FACE('',(#1492),#1497,.T.);
#1499=ORIENTED_EDGE('',*,*,#1456,.F.);
#1500=ORIENTED_EDGE('',*,*,#1428,.F.);
#1501=ORIENTED_EDGE('',*,*,#1400,.F.);
#1502=ORIENTED_EDGE('',*,*,#1372,.F.);
#1503=ORIENTED_EDGE('',*,*,#1344,.F.);
#1504=ORIENTED_EDGE('',*,*,#1316,.F.);
#1505=ORIENTED_EDGE('',*,*,#1288,.F.);
#1506=ORIENTED_EDGE('',*,*,#1260,.F.);
#1507=ORIENTED_EDGE('',*,*,#1226,.F.);
#1508=ORIENTED_EDGE('',*,*,#1482,.T.);
#1509=EDGE_LOOP('',(#1499,#1500,#1501,#1502,#1503,#1504,#1505,#1506,#1507,#1508));
#1510=FACE_OUTER_BOUND('',#1509,.T.);
#1511=CARTESIAN_POINT('',(634.42705,8.23664,323.));
#1512=DIRECTION('',(0.,0.,-1.));
#1513=DIRECTION('',(-0.80902,-0.58779,0.));
#1514=AXIS2_PLACEMENT_3D('',#1511,#1512,#1513);
#1515=PLANE('',#1514);
#1516=ADVANCED_FACE('',(#1510),#1515,.T.);
#1517=ORIENTED_EDGE('',*,*,#1240,.T.);
#1518=ORIENTED_EDGE('',*,*,#1272,.T.);
#1519=ORIENTED_EDGE('',*,*,#1300,.T.);
#1520=ORIENTED_EDGE('',*,*,#1328,.T.);
#1521=ORIENTED_EDGE('',*,*,#1356,.T.);
#1522=ORIENTED_EDGE('',*,*,#1384,.T.);
#1523=ORIENTED_EDGE('',*,*,#1412,.T.);
#1524=ORIENTED_EDGE('',*,*,#1440,.T.);
#1525=ORIENTED_EDGE('',*,*,#1468,.T.);
#1526=ORIENTED_EDGE('',*,*,#1488,.F.);
#1527=EDGE_LOOP('',(#1517,#1518,#1519,#1520,#1521,#1522,#1523,#1524,#1525,#1526));
#1528=FACE_OUTER_BOUND('',#1527,.T.);
#1529=CARTESIAN_POINT('',(635.,10.,345.));
#1530=DIRECTION('',(0.,0.,1.));
#1531=DIRECTION('',(-0.30902,0.95106,0.));
#1532=AXIS2_PLACEMENT_3D('',#1529,#1530,#1531);
#1533=PLANE('',#1532);
#1534=ADVANCED_FACE('',(#1528),#1533,.T.);
#1535=CLOSED_SHELL('',(#1254,#1282,#1310,#1338,#1366,#1394,#1422,#1450,#1478,#1498,#1516,#1534));
#1536=MANIFOLD_SOLID_BREP('',#1535);
#1537=STYLED_ITEM('color',(#162),#1536);
#1538=CARTESIAN_POINT('',(635.,100.,323.));
#1539=VERTEX_POINT('',#1538);
#1540=CARTESIAN_POINT('',(634.42705,101.76336,323.));
#1541=VERTEX_POINT('',#1540);
#1542=DIRECTION('',(-0.30902,0.95106,0.));
#1543=VECTOR('',#1542,1.8541);
#1544=LINE('',#1538,#1543);
#1545=EDGE_CURVE('',#1539,#1541,#1544,.T.);
#1546=ORIENTED_EDGE('',*,*,#1545,.T.);
#1547=CARTESIAN_POINT('',(634.42705,101.76336,345.));
#1548=VERTEX_POINT('',#1547);
#1549=DIRECTION('',(0.,0.,1.));
#1550=VECTOR('',#1549,22.);
#1551=LINE('',#1540,#1550);
#1552=EDGE_CURVE('',#1541,#1548,#1551,.T.);
#1553=ORIENTED_EDGE('',*,*,#1552,.T.);
#1554=CARTESIAN_POINT('',(635.,100.,345.));
#1555=VERTEX_POINT('',#1554);
#1556=DIRECTION('',(-0.30902,0.95106,0.));
#1557=VECTOR('',#1556,1.8541);
#1558=LINE('',#1554,#1557);
#1559=EDGE_CURVE('',#1555,#1548,#1558,.T.);
#1560=ORIENTED_EDGE('',*,*,#1559,.F.);
#1561=DIRECTION('',(0.,0.,1.));
#1562=VECTOR('',#1561,22.);
#1563=LINE('',#1538,#1562);
#1564=EDGE_CURVE('',#1539,#1555,#1563,.T.);
#1565=ORIENTED_EDGE('',*,*,#1564,.F.);
#1566=EDGE_LOOP('',(#1546,#1553,#1560,#1565));
#1567=FACE_OUTER_BOUND('',#1566,.T.);
#1568=CARTESIAN_POINT('',(635.,100.,323.));
#1569=DIRECTION('',(0.95106,0.30902,0.));
#1570=DIRECTION('',(-0.30902,0.95106,0.));
#1571=AXIS2_PLACEMENT_3D('',#1568,#1569,#1570);
#1572=PLANE('',#1571);
#1573=ADVANCED_FACE('',(#1567),#1572,.T.);
#1574=CARTESIAN_POINT('',(632.92705,102.85317,323.));
#1575=VERTEX_POINT('',#1574);
#1576=DIRECTION('',(-0.80902,0.58779,0.));
#1577=VECTOR('',#1576,1.8541);
#1578=LINE('',#1540,#1577);
#1579=EDGE_CURVE('',#1541,#1575,#1578,.T.);
#1580=ORIENTED_EDGE('',*,*,#1579,.T.);
#1581=CARTESIAN_POINT('',(632.92705,102.85317,345.));
#1582=VERTEX_POINT('',#1581);
#1583=DIRECTION('',(0.,0.,1.));
#1584=VECTOR('',#1583,22.);
#1585=LINE('',#1574,#1584);
#1586=EDGE_CURVE('',#1575,#1582,#1585,.T.);
#1587=ORIENTED_EDGE('',*,*,#1586,.T.);
#1588=DIRECTION('',(-0.80902,0.58779,0.));
#1589=VECTOR('',#1588,1.8541);
#1590=LINE('',#1547,#1589);
#1591=EDGE_CURVE('',#1548,#1582,#1590,.T.);
#1592=ORIENTED_EDGE('',*,*,#1591,.F.);
#1593=ORIENTED_EDGE('',*,*,#1552,.F.);
#1594=EDGE_LOOP('',(#1580,#1587,#1592,#1593));
#1595=FACE_OUTER_BOUND('',#1594,.T.);
#1596=CARTESIAN_POINT('',(634.42705,101.76336,323.));
#1597=DIRECTION('',(0.58779,0.80902,0.));
#1598=DIRECTION('',(-0.80902,0.58779,0.));
#1599=AXIS2_PLACEMENT_3D('',#1596,#1597,#1598);
#1600=PLANE('',#1599);
#1601=ADVANCED_FACE('',(#1595),#1600,.T.);
#1602=CARTESIAN_POINT('',(631.07295,102.85317,323.));
#1603=VERTEX_POINT('',#1602);
#1604=DIRECTION('',(-1.,0.,0.));
#1605=VECTOR('',#1604,1.8541);
#1606=LINE('',#1574,#1605);
#1607=EDGE_CURVE('',#1575,#1603,#1606,.T.);
#1608=ORIENTED_EDGE('',*,*,#1607,.T.);
#1609=CARTESIAN_POINT('',(631.07295,102.85317,345.));
#1610=VERTEX_POINT('',#1609);
#1611=DIRECTION('',(0.,0.,1.));
#1612=VECTOR('',#1611,22.);
#1613=LINE('',#1602,#1612);
#1614=EDGE_CURVE('',#1603,#1610,#1613,.T.);
#1615=ORIENTED_EDGE('',*,*,#1614,.T.);
#1616=DIRECTION('',(-1.,0.,0.));
#1617=VECTOR('',#1616,1.8541);
#1618=LINE('',#1581,#1617);
#1619=EDGE_CURVE('',#1582,#1610,#1618,.T.);
#1620=ORIENTED_EDGE('',*,*,#1619,.F.);
#1621=ORIENTED_EDGE('',*,*,#1586,.F.);
#1622=EDGE_LOOP('',(#1608,#1615,#1620,#1621));
#1623=FACE_OUTER_BOUND('',#1622,.T.);
#1624=CARTESIAN_POINT('',(632.92705,102.85317,323.));
#1625=DIRECTION('',(0.,1.,0.));
#1626=DIRECTION('',(-1.,0.,0.));
#1627=AXIS2_PLACEMENT_3D('',#1624,#1625,#1626);
#1628=PLANE('',#1627);
#1629=ADVANCED_FACE('',(#1623),#1628,.T.);
#1630=CARTESIAN_POINT('',(629.57295,101.76336,323.));
#1631=VERTEX_POINT('',#1630);
#1632=DIRECTION('',(-0.80902,-0.58779,0.));
#1633=VECTOR('',#1632,1.8541);
#1634=LINE('',#1602,#1633);
#1635=EDGE_CURVE('',#1603,#1631,#1634,.T.);
#1636=ORIENTED_EDGE('',*,*,#1635,.T.);
#1637=CARTESIAN_POINT('',(629.57295,101.76336,345.));
#1638=VERTEX_POINT('',#1637);
#1639=DIRECTION('',(0.,0.,1.));
#1640=VECTOR('',#1639,22.);
#1641=LINE('',#1630,#1640);
#1642=EDGE_CURVE('',#1631,#1638,#1641,.T.);
#1643=ORIENTED_EDGE('',*,*,#1642,.T.);
#1644=DIRECTION('',(-0.80902,-0.58779,0.));
#1645=VECTOR('',#1644,1.8541);
#1646=LINE('',#1609,#1645);
#1647=EDGE_CURVE('',#1610,#1638,#1646,.T.);
#1648=ORIENTED_EDGE('',*,*,#1647,.F.);
#1649=ORIENTED_EDGE('',*,*,#1614,.F.);
#1650=EDGE_LOOP('',(#1636,#1643,#1648,#1649));
#1651=FACE_OUTER_BOUND('',#1650,.T.);
#1652=CARTESIAN_POINT('',(631.07295,102.85317,323.));
#1653=DIRECTION('',(-0.58779,0.80902,0.));
#1654=DIRECTION('',(-0.80902,-0.58779,0.));
#1655=AXIS2_PLACEMENT_3D('',#1652,#1653,#1654);
#1656=PLANE('',#1655);
#1657=ADVANCED_FACE('',(#1651),#1656,.T.);
#1658=CARTESIAN_POINT('',(629.,100.,323.));
#1659=VERTEX_POINT('',#1658);
#1660=DIRECTION('',(-0.30902,-0.95106,0.));
#1661=VECTOR('',#1660,1.8541);
#1662=LINE('',#1630,#1661);
#1663=EDGE_CURVE('',#1631,#1659,#1662,.T.);
#1664=ORIENTED_EDGE('',*,*,#1663,.T.);
#1665=CARTESIAN_POINT('',(629.,100.,345.));
#1666=VERTEX_POINT('',#1665);
#1667=DIRECTION('',(0.,0.,1.));
#1668=VECTOR('',#1667,22.);
#1669=LINE('',#1658,#1668);
#1670=EDGE_CURVE('',#1659,#1666,#1669,.T.);
#1671=ORIENTED_EDGE('',*,*,#1670,.T.);
#1672=DIRECTION('',(-0.30902,-0.95106,0.));
#1673=VECTOR('',#1672,1.8541);
#1674=LINE('',#1637,#1673);
#1675=EDGE_CURVE('',#1638,#1666,#1674,.T.);
#1676=ORIENTED_EDGE('',*,*,#1675,.F.);
#1677=ORIENTED_EDGE('',*,*,#1642,.F.);
#1678=EDGE_LOOP('',(#1664,#1671,#1676,#1677));
#1679=FACE_OUTER_BOUND('',#1678,.T.);
#1680=CARTESIAN_POINT('',(629.57295,101.76336,323.));
#1681=DIRECTION('',(-0.95106,0.30902,0.));
#1682=DIRECTION('',(-0.30902,-0.95106,0.));
#1683=AXIS2_PLACEMENT_3D('',#1680,#1681,#1682);
#1684=PLANE('',#1683);
#1685=ADVANCED_FACE('',(#1679),#1684,.T.);
#1686=CARTESIAN_POINT('',(629.57295,98.23664,323.));
#1687=VERTEX_POINT('',#1686);
#1688=DIRECTION('',(0.30902,-0.95106,0.));
#1689=VECTOR('',#1688,1.8541);
#1690=LINE('',#1658,#1689);
#1691=EDGE_CURVE('',#1659,#1687,#1690,.T.);
#1692=ORIENTED_EDGE('',*,*,#1691,.T.);
#1693=CARTESIAN_POINT('',(629.57295,98.23664,345.));
#1694=VERTEX_POINT('',#1693);
#1695=DIRECTION('',(0.,0.,1.));
#1696=VECTOR('',#1695,22.);
#1697=LINE('',#1686,#1696);
#1698=EDGE_CURVE('',#1687,#1694,#1697,.T.);
#1699=ORIENTED_EDGE('',*,*,#1698,.T.);
#1700=DIRECTION('',(0.30902,-0.95106,0.));
#1701=VECTOR('',#1700,1.8541);
#1702=LINE('',#1665,#1701);
#1703=EDGE_CURVE('',#1666,#1694,#1702,.T.);
#1704=ORIENTED_EDGE('',*,*,#1703,.F.);
#1705=ORIENTED_EDGE('',*,*,#1670,.F.);
#1706=EDGE_LOOP('',(#1692,#1699,#1704,#1705));
#1707=FACE_OUTER_BOUND('',#1706,.T.);
#1708=CARTESIAN_POINT('',(629.,100.,323.));
#1709=DIRECTION('',(-0.95106,-0.30902,0.));
#1710=DIRECTION('',(0.30902,-0.95106,0.));
#1711=AXIS2_PLACEMENT_3D('',#1708,#1709,#1710);
#1712=PLANE('',#1711);
#1713=ADVANCED_FACE('',(#1707),#1712,.T.);
#1714=CARTESIAN_POINT('',(631.07295,97.14683,323.));
#1715=VERTEX_POINT('',#1714);
#1716=DIRECTION('',(0.80902,-0.58779,0.));
#1717=VECTOR('',#1716,1.8541);
#1718=LINE('',#1686,#1717);
#1719=EDGE_CURVE('',#1687,#1715,#1718,.T.);
#1720=ORIENTED_EDGE('',*,*,#1719,.T.);
#1721=CARTESIAN_POINT('',(631.07295,97.14683,345.));
#1722=VERTEX_POINT('',#1721);
#1723=DIRECTION('',(0.,0.,1.));
#1724=VECTOR('',#1723,22.);
#1725=LINE('',#1714,#1724);
#1726=EDGE_CURVE('',#1715,#1722,#1725,.T.);
#1727=ORIENTED_EDGE('',*,*,#1726,.T.);
#1728=DIRECTION('',(0.80902,-0.58779,0.));
#1729=VECTOR('',#1728,1.8541);
#1730=LINE('',#1693,#1729);
#1731=EDGE_CURVE('',#1694,#1722,#1730,.T.);
#1732=ORIENTED_EDGE('',*,*,#1731,.F.);
#1733=ORIENTED_EDGE('',*,*,#1698,.F.);
#1734=EDGE_LOOP('',(#1720,#1727,#1732,#1733));
#1735=FACE_OUTER_BOUND('',#1734,.T.);
#1736=CARTESIAN_POINT('',(629.57295,98.23664,323.));
#1737=DIRECTION('',(-0.58779,-0.80902,0.));
#1738=DIRECTION('',(0.80902,-0.58779,0.));
#1739=AXIS2_PLACEMENT_3D('',#1736,#1737,#1738);
#1740=PLANE('',#1739);
#1741=ADVANCED_FACE('',(#1735),#1740,.T.);
#1742=CARTESIAN_POINT('',(632.92705,97.14683,323.));
#1743=VERTEX_POINT('',#1742);
#1744=DIRECTION('',(1.,0.,0.));
#1745=VECTOR('',#1744,1.8541);
#1746=LINE('',#1714,#1745);
#1747=EDGE_CURVE('',#1715,#1743,#1746,.T.);
#1748=ORIENTED_EDGE('',*,*,#1747,.T.);
#1749=CARTESIAN_POINT('',(632.92705,97.14683,345.));
#1750=VERTEX_POINT('',#1749);
#1751=DIRECTION('',(0.,0.,1.));
#1752=VECTOR('',#1751,22.);
#1753=LINE('',#1742,#1752);
#1754=EDGE_CURVE('',#1743,#1750,#1753,.T.);
#1755=ORIENTED_EDGE('',*,*,#1754,.T.);
#1756=DIRECTION('',(1.,0.,0.));
#1757=VECTOR('',#1756,1.8541);
#1758=LINE('',#1721,#1757);
#1759=EDGE_CURVE('',#1722,#1750,#1758,.T.);
#1760=ORIENTED_EDGE('',*,*,#1759,.F.);
#1761=ORIENTED_EDGE('',*,*,#1726,.F.);
#1762=EDGE_LOOP('',(#1748,#1755,#1760,#1761));
#1763=FACE_OUTER_BOUND('',#1762,.T.);
#1764=CARTESIAN_POINT('',(631.07295,97.14683,323.));
#1765=DIRECTION('',(0.,-1.,0.));
#1766=DIRECTION('',(1.,0.,0.));
#1767=AXIS2_PLACEMENT_3D('',#1764,#1765,#1766);
#1768=PLANE('',#1767);
#1769=ADVANCED_FACE('',(#1763),#1768,.T.);
#1770=CARTESIAN_POINT('',(634.42705,98.23664,323.));
#1771=VERTEX_POINT('',#1770);
#1772=DIRECTION('',(0.80902,0.58779,0.));
#1773=VECTOR('',#1772,1.8541);
#1774=LINE('',#1742,#1773);
#1775=EDGE_CURVE('',#1743,#1771,#1774,.T.);
#1776=ORIENTED_EDGE('',*,*,#1775,.T.);
#1777=CARTESIAN_POINT('',(634.42705,98.23664,345.));
#1778=VERTEX_POINT('',#1777);
#1779=DIRECTION('',(0.,0.,1.));
#1780=VECTOR('',#1779,22.);
#1781=LINE('',#1770,#1780);
#1782=EDGE_CURVE('',#1771,#1778,#1781,.T.);
#1783=ORIENTED_EDGE('',*,*,#1782,.T.);
#1784=DIRECTION('',(0.80902,0.58779,0.));
#1785=VECTOR('',#1784,1.8541);
#1786=LINE('',#1749,#1785);
#1787=EDGE_CURVE('',#1750,#1778,#1786,.T.);
#1788=ORIENTED_EDGE('',*,*,#1787,.F.);
#1789=ORIENTED_EDGE('',*,*,#1754,.F.);
#1790=EDGE_LOOP('',(#1776,#1783,#1788,#1789));
#1791=FACE_OUTER_BOUND('',#1790,.T.);
#1792=CARTESIAN_POINT('',(632.92705,97.14683,323.));
#1793=DIRECTION('',(0.58779,-0.80902,0.));
#1794=DIRECTION('',(0.80902,0.58779,0.));
#1795=AXIS2_PLACEMENT_3D('',#1792,#1793,#1794);
#1796=PLANE('',#1795);
#1797=ADVANCED_FACE('',(#1791),#1796,.T.);
#1798=DIRECTION('',(-0.30902,-0.95106,0.));
#1799=VECTOR('',#1798,1.8541);
#1800=LINE('',#1538,#1799);
#1801=EDGE_CURVE('',#1539,#1771,#1800,.T.);
#1802=ORIENTED_EDGE('',*,*,#1801,.F.);
#1803=ORIENTED_EDGE('',*,*,#1564,.T.);
#1804=DIRECTION('',(-0.30902,-0.95106,0.));
#1805=VECTOR('',#1804,1.8541);
#1806=LINE('',#1554,#1805);
#1807=EDGE_CURVE('',#1555,#1778,#1806,.T.);
#1808=ORIENTED_EDGE('',*,*,#1807,.T.);
#1809=ORIENTED_EDGE('',*,*,#1782,.F.);
#1810=EDGE_LOOP('',(#1802,#1803,#1808,#1809));
#1811=FACE_OUTER_BOUND('',#1810,.T.);
#1812=CARTESIAN_POINT('',(634.42705,98.23664,323.));
#1813=DIRECTION('',(0.95106,-0.30902,0.));
#1814=DIRECTION('',(0.30902,0.95106,0.));
#1815=AXIS2_PLACEMENT_3D('',#1812,#1813,#1814);
#1816=PLANE('',#1815);
#1817=ADVANCED_FACE('',(#1811),#1816,.T.);
#1818=ORIENTED_EDGE('',*,*,#1775,.F.);
#1819=ORIENTED_EDGE('',*,*,#1747,.F.);
#1820=ORIENTED_EDGE('',*,*,#1719,.F.);
#1821=ORIENTED_EDGE('',*,*,#1691,.F.);
#1822=ORIENTED_EDGE('',*,*,#1663,.F.);
#1823=ORIENTED_EDGE('',*,*,#1635,.F.);
#1824=ORIENTED_EDGE('',*,*,#1607,.F.);
#1825=ORIENTED_EDGE('',*,*,#1579,.F.);
#1826=ORIENTED_EDGE('',*,*,#1545,.F.);
#1827=ORIENTED_EDGE('',*,*,#1801,.T.);
#1828=EDGE_LOOP('',(#1818,#1819,#1820,#1821,#1822,#1823,#1824,#1825,#1826,#1827));
#1829=FACE_OUTER_BOUND('',#1828,.T.);
#1830=CARTESIAN_POINT('',(634.42705,98.23664,323.));
#1831=DIRECTION('',(0.,0.,-1.));
#1832=DIRECTION('',(-0.80902,-0.58779,0.));
#1833=AXIS2_PLACEMENT_3D('',#1830,#1831,#1832);
#1834=PLANE('',#1833);
#1835=ADVANCED_FACE('',(#1829),#1834,.T.);
#1836=ORIENTED_EDGE('',*,*,#1559,.T.);
#1837=ORIENTED_EDGE('',*,*,#1591,.T.);
#1838=ORIENTED_EDGE('',*,*,#1619,.T.);
#1839=ORIENTED_EDGE('',*,*,#1647,.T.);
#1840=ORIENTED_EDGE('',*,*,#1675,.T.);
#1841=ORIENTED_EDGE('',*,*,#1703,.T.);
#1842=ORIENTED_EDGE('',*,*,#1731,.T.);
#1843=ORIENTED_EDGE('',*,*,#1759,.T.);
#1844=ORIENTED_EDGE('',*,*,#1787,.T.);
#1845=ORIENTED_EDGE('',*,*,#1807,.F.);
#1846=EDGE_LOOP('',(#1836,#1837,#1838,#1839,#1840,#1841,#1842,#1843,#1844,#1845));
#1847=FACE_OUTER_BOUND('',#1846,.T.);
#1848=CARTESIAN_POINT('',(635.,100.,345.));
#1849=DIRECTION('',(0.,0.,1.));
#1850=DIRECTION('',(-0.30902,0.95106,0.));
#1851=AXIS2_PLACEMENT_3D('',#1848,#1849,#1850);
#1852=PLANE('',#1851);
#1853=ADVANCED_FACE('',(#1847),#1852,.T.);
#1854=CLOSED_SHELL('',(#1573,#1601,#1629,#1657,#1685,#1713,#1741,#1769,#1797,#1817,#1835,#1853));
#1855=MANIFOLD_SOLID_BREP('',#1854);
#1856=STYLED_ITEM('color',(#162),#1855);
#1857=ADVANCED_BREP_SHAPE_REPRESENTATION('',(#17,#155,#301,#440,#579,#898,#1217,#1536,#1855),#9);
#1858=SHAPE_DEFINITION_REPRESENTATION(#13,#1857);
#1859=MECHANICAL_DESIGN_GEOMETRIC_PRESENTATION_REPRESENTATION('',(#163,#302,#441,#580,#899,#1218,#1537,#1856),#9);
#1860=PRODUCT_RELATED_PRODUCT_CATEGORY('part',$,(#10));
ENDSEC;
END-ISO-10303-21;
