ISO-10303-21;
HEADER;
FILE_DESCRIPTION(('AquaSentinel R3 - planar B-rep export'),'2;1');
FILE_NAME('Bolt M10 x 70 A4 + washer','2026-10-04T21:49:42',('AquaSentinel team'),('Sanjivani University'),'AquaSentinel R3 python build','AquaSentinel R3','');
FILE_SCHEMA(('AUTOMOTIVE_DESIGN { 1 0 10303 214 1 1 1 1 }'));
ENDSEC;
DATA;
#1=APPLICATION_CONTEXT('core data for automotive mechanical design processes');
#2=APPLICATION_PROTOCOL_DEFINITION('international standard','automotive_design',2000,#1);
#3=PRODUCT_CONTEXT('',#1,'mechanical');
#4=PRODUCT_DEFINITION_CONTEXT('part definition',#1,'design');
#5=(LENGTH_UNIT()NAMED_UNIT(*)SI_UNIT(.MILLI.,.METRE.));
#6=(NAMED_UNIT(*)PLANE_ANGLE_UNIT()SI_UNIT($,.RADIAN.));
#7=(NAMED_UNIT(*)SI_UNIT($,.STERADIAN.)SOLID_ANGLE_UNIT());
#8=UNCERTAINTY_MEASURE_WITH_UNIT(LENGTH_MEASURE(1.E-04),#5,'distance_accuracy_value','confusion accuracy');
#9=(GEOMETRIC_REPRESENTATION_CONTEXT(3)GLOBAL_UNCERTAINTY_ASSIGNED_CONTEXT((#8))GLOBAL_UNIT_ASSIGNED_CONTEXT((#5,#6,#7))REPRESENTATION_CONTEXT('Context','3D Context with UNIT and UNCERTAINTY'));
#10=PRODUCT('AS3-902','Bolt M10 x 70 A4 + washer','',(#3));
#11=PRODUCT_DEFINITION_FORMATION('','',#10);
#12=PRODUCT_DEFINITION('design','',#11,#4);
#13=PRODUCT_DEFINITION_SHAPE('','',#12);
#14=CARTESIAN_POINT('',(0.,0.,0.));
#15=DIRECTION('',(0.,0.,1.));
#16=DIRECTION('',(1.,0.,0.));
#17=AXIS2_PLACEMENT_3D('',#14,#15,#16);
#18=CARTESIAN_POINT('',(10.92,0.,0.));
#19=VERTEX_POINT('',#18);
#20=CARTESIAN_POINT('',(10.54791,2.8263,0.));
#21=VERTEX_POINT('',#20);
#22=DIRECTION('',(-0.13053,0.99144,0.));
#23=VECTOR('',#22,2.85069);
#24=LINE('',#18,#23);
#25=EDGE_CURVE('',#19,#21,#24,.T.);
#26=ORIENTED_EDGE('',*,*,#25,.T.);
#27=CARTESIAN_POINT('',(10.54791,2.8263,1.8));
#28=VERTEX_POINT('',#27);
#29=DIRECTION('',(0.,0.,1.));
#30=VECTOR('',#29,1.8);
#31=LINE('',#20,#30);
#32=EDGE_CURVE('',#21,#28,#31,.T.);
#33=ORIENTED_EDGE('',*,*,#32,.T.);
#34=CARTESIAN_POINT('',(10.92,0.,1.8));
#35=VERTEX_POINT('',#34);
#36=DIRECTION('',(-0.13053,0.99144,0.));
#37=VECTOR('',#36,2.85069);
#38=LINE('',#34,#37);
#39=EDGE_CURVE('',#35,#28,#38,.T.);
#40=ORIENTED_EDGE('',*,*,#39,.F.);
#41=DIRECTION('',(0.,0.,1.));
#42=VECTOR('',#41,1.8);
#43=LINE('',#18,#42);
#44=EDGE_CURVE('',#19,#35,#43,.T.);
#45=ORIENTED_EDGE('',*,*,#44,.F.);
#46=EDGE_LOOP('',(#26,#33,#40,#45));
#47=FACE_OUTER_BOUND('',#46,.T.);
#48=CARTESIAN_POINT('',(10.92,0.,0.));
#49=DIRECTION('',(0.99144,0.13053,0.));
#50=DIRECTION('',(-0.13053,0.99144,0.));
#51=AXIS2_PLACEMENT_3D('',#48,#49,#50);
#52=PLANE('',#51);
#53=ADVANCED_FACE('',(#47),#52,.T.);
#54=CARTESIAN_POINT('',(9.457,5.46,0.));
#55=VERTEX_POINT('',#54);
#56=DIRECTION('',(-0.38268,0.92388,0.));
#57=VECTOR('',#56,2.85069);
#58=LINE('',#20,#57);
#59=EDGE_CURVE('',#21,#55,#58,.T.);
#60=ORIENTED_EDGE('',*,*,#59,.T.);
#61=CARTESIAN_POINT('',(9.457,5.46,1.8));
#62=VERTEX_POINT('',#61);
#63=DIRECTION('',(0.,0.,1.));
#64=VECTOR('',#63,1.8);
#65=LINE('',#54,#64);
#66=EDGE_CURVE('',#55,#62,#65,.T.);
#67=ORIENTED_EDGE('',*,*,#66,.T.);
#68=DIRECTION('',(-0.38268,0.92388,0.));
#69=VECTOR('',#68,2.85069);
#70=LINE('',#27,#69);
#71=EDGE_CURVE('',#28,#62,#70,.T.);
#72=ORIENTED_EDGE('',*,*,#71,.F.);
#73=ORIENTED_EDGE('',*,*,#32,.F.);
#74=EDGE_LOOP('',(#60,#67,#72,#73));
#75=FACE_OUTER_BOUND('',#74,.T.);
#76=CARTESIAN_POINT('',(10.54791,2.8263,0.));
#77=DIRECTION('',(0.92388,0.38268,0.));
#78=DIRECTION('',(-0.38268,0.92388,0.));
#79=AXIS2_PLACEMENT_3D('',#76,#77,#78);
#80=PLANE('',#79);
#81=ADVANCED_FACE('',(#75),#80,.T.);
#82=CARTESIAN_POINT('',(7.72161,7.72161,0.));
#83=VERTEX_POINT('',#82);
#84=DIRECTION('',(-0.60876,0.79335,0.));
#85=VECTOR('',#84,2.85069);
#86=LINE('',#54,#85);
#87=EDGE_CURVE('',#55,#83,#86,.T.);
#88=ORIENTED_EDGE('',*,*,#87,.T.);
#89=CARTESIAN_POINT('',(7.72161,7.72161,1.8));
#90=VERTEX_POINT('',#89);
#91=DIRECTION('',(0.,0.,1.));
#92=VECTOR('',#91,1.8);
#93=LINE('',#82,#92);
#94=EDGE_CURVE('',#83,#90,#93,.T.);
#95=ORIENTED_EDGE('',*,*,#94,.T.);
#96=DIRECTION('',(-0.60876,0.79335,0.));
#97=VECTOR('',#96,2.85069);
#98=LINE('',#61,#97);
#99=EDGE_CURVE('',#62,#90,#98,.T.);
#100=ORIENTED_EDGE('',*,*,#99,.F.);
#101=ORIENTED_EDGE('',*,*,#66,.F.);
#102=EDGE_LOOP('',(#88,#95,#100,#101));
#103=FACE_OUTER_BOUND('',#102,.T.);
#104=CARTESIAN_POINT('',(9.457,5.46,0.));
#105=DIRECTION('',(0.79335,0.60876,0.));
#106=DIRECTION('',(-0.60876,0.79335,0.));
#107=AXIS2_PLACEMENT_3D('',#104,#105,#106);
#108=PLANE('',#107);
#109=ADVANCED_FACE('',(#103),#108,.T.);
#110=CARTESIAN_POINT('',(5.46,9.457,0.));
#111=VERTEX_POINT('',#110);
#112=DIRECTION('',(-0.79335,0.60876,0.));
#113=VECTOR('',#112,2.85069);
#114=LINE('',#82,#113);
#115=EDGE_CURVE('',#83,#111,#114,.T.);
#116=ORIENTED_EDGE('',*,*,#115,.T.);
#117=CARTESIAN_POINT('',(5.46,9.457,1.8));
#118=VERTEX_POINT('',#117);
#119=DIRECTION('',(0.,0.,1.));
#120=VECTOR('',#119,1.8);
#121=LINE('',#110,#120);
#122=EDGE_CURVE('',#111,#118,#121,.T.);
#123=ORIENTED_EDGE('',*,*,#122,.T.);
#124=DIRECTION('',(-0.79335,0.60876,0.));
#125=VECTOR('',#124,2.85069);
#126=LINE('',#89,#125);
#127=EDGE_CURVE('',#90,#118,#126,.T.);
#128=ORIENTED_EDGE('',*,*,#127,.F.);
#129=ORIENTED_EDGE('',*,*,#94,.F.);
#130=EDGE_LOOP('',(#116,#123,#128,#129));
#131=FACE_OUTER_BOUND('',#130,.T.);
#132=CARTESIAN_POINT('',(7.72161,7.72161,0.));
#133=DIRECTION('',(0.60876,0.79335,0.));
#134=DIRECTION('',(-0.79335,0.60876,0.));
#135=AXIS2_PLACEMENT_3D('',#132,#133,#134);
#136=PLANE('',#135);
#137=ADVANCED_FACE('',(#131),#136,.T.);
#138=CARTESIAN_POINT('',(2.8263,10.54791,0.));
#139=VERTEX_POINT('',#138);
#140=DIRECTION('',(-0.92388,0.38268,0.));
#141=VECTOR('',#140,2.85069);
#142=LINE('',#110,#141);
#143=EDGE_CURVE('',#111,#139,#142,.T.);
#144=ORIENTED_EDGE('',*,*,#143,.T.);
#145=CARTESIAN_POINT('',(2.8263,10.54791,1.8));
#146=VERTEX_POINT('',#145);
#147=DIRECTION('',(0.,0.,1.));
#148=VECTOR('',#147,1.8);
#149=LINE('',#138,#148);
#150=EDGE_CURVE('',#139,#146,#149,.T.);
#151=ORIENTED_EDGE('',*,*,#150,.T.);
#152=DIRECTION('',(-0.92388,0.38268,0.));
#153=VECTOR('',#152,2.85069);
#154=LINE('',#117,#153);
#155=EDGE_CURVE('',#118,#146,#154,.T.);
#156=ORIENTED_EDGE('',*,*,#155,.F.);
#157=ORIENTED_EDGE('',*,*,#122,.F.);
#158=EDGE_LOOP('',(#144,#151,#156,#157));
#159=FACE_OUTER_BOUND('',#158,.T.);
#160=CARTESIAN_POINT('',(5.46,9.457,0.));
#161=DIRECTION('',(0.38268,0.92388,0.));
#162=DIRECTION('',(-0.92388,0.38268,0.));
#163=AXIS2_PLACEMENT_3D('',#160,#161,#162);
#164=PLANE('',#163);
#165=ADVANCED_FACE('',(#159),#164,.T.);
#166=CARTESIAN_POINT('',(0.,10.92,0.));
#167=VERTEX_POINT('',#166);
#168=DIRECTION('',(-0.99144,0.13053,0.));
#169=VECTOR('',#168,2.85069);
#170=LINE('',#138,#169);
#171=EDGE_CURVE('',#139,#167,#170,.T.);
#172=ORIENTED_EDGE('',*,*,#171,.T.);
#173=CARTESIAN_POINT('',(0.,10.92,1.8));
#174=VERTEX_POINT('',#173);
#175=DIRECTION('',(0.,0.,1.));
#176=VECTOR('',#175,1.8);
#177=LINE('',#166,#176);
#178=EDGE_CURVE('',#167,#174,#177,.T.);
#179=ORIENTED_EDGE('',*,*,#178,.T.);
#180=DIRECTION('',(-0.99144,0.13053,0.));
#181=VECTOR('',#180,2.85069);
#182=LINE('',#145,#181);
#183=EDGE_CURVE('',#146,#174,#182,.T.);
#184=ORIENTED_EDGE('',*,*,#183,.F.);
#185=ORIENTED_EDGE('',*,*,#150,.F.);
#186=EDGE_LOOP('',(#172,#179,#184,#185));
#187=FACE_OUTER_BOUND('',#186,.T.);
#188=CARTESIAN_POINT('',(2.8263,10.54791,0.));
#189=DIRECTION('',(0.13053,0.99144,0.));
#190=DIRECTION('',(-0.99144,0.13053,0.));
#191=AXIS2_PLACEMENT_3D('',#188,#189,#190);
#192=PLANE('',#191);
#193=ADVANCED_FACE('',(#187),#192,.T.);
#194=CARTESIAN_POINT('',(-2.8263,10.54791,0.));
#195=VERTEX_POINT('',#194);
#196=DIRECTION('',(-0.99144,-0.13053,0.));
#197=VECTOR('',#196,2.85069);
#198=LINE('',#166,#197);
#199=EDGE_CURVE('',#167,#195,#198,.T.);
#200=ORIENTED_EDGE('',*,*,#199,.T.);
#201=CARTESIAN_POINT('',(-2.8263,10.54791,1.8));
#202=VERTEX_POINT('',#201);
#203=DIRECTION('',(0.,0.,1.));
#204=VECTOR('',#203,1.8);
#205=LINE('',#194,#204);
#206=EDGE_CURVE('',#195,#202,#205,.T.);
#207=ORIENTED_EDGE('',*,*,#206,.T.);
#208=DIRECTION('',(-0.99144,-0.13053,0.));
#209=VECTOR('',#208,2.85069);
#210=LINE('',#173,#209);
#211=EDGE_CURVE('',#174,#202,#210,.T.);
#212=ORIENTED_EDGE('',*,*,#211,.F.);
#213=ORIENTED_EDGE('',*,*,#178,.F.);
#214=EDGE_LOOP('',(#200,#207,#212,#213));
#215=FACE_OUTER_BOUND('',#214,.T.);
#216=CARTESIAN_POINT('',(0.,10.92,0.));
#217=DIRECTION('',(-0.13053,0.99144,0.));
#218=DIRECTION('',(-0.99144,-0.13053,0.));
#219=AXIS2_PLACEMENT_3D('',#216,#217,#218);
#220=PLANE('',#219);
#221=ADVANCED_FACE('',(#215),#220,.T.);
#222=CARTESIAN_POINT('',(-5.46,9.457,0.));
#223=VERTEX_POINT('',#222);
#224=DIRECTION('',(-0.92388,-0.38268,0.));
#225=VECTOR('',#224,2.85069);
#226=LINE('',#194,#225);
#227=EDGE_CURVE('',#195,#223,#226,.T.);
#228=ORIENTED_EDGE('',*,*,#227,.T.);
#229=CARTESIAN_POINT('',(-5.46,9.457,1.8));
#230=VERTEX_POINT('',#229);
#231=DIRECTION('',(0.,0.,1.));
#232=VECTOR('',#231,1.8);
#233=LINE('',#222,#232);
#234=EDGE_CURVE('',#223,#230,#233,.T.);
#235=ORIENTED_EDGE('',*,*,#234,.T.);
#236=DIRECTION('',(-0.92388,-0.38268,0.));
#237=VECTOR('',#236,2.85069);
#238=LINE('',#201,#237);
#239=EDGE_CURVE('',#202,#230,#238,.T.);
#240=ORIENTED_EDGE('',*,*,#239,.F.);
#241=ORIENTED_EDGE('',*,*,#206,.F.);
#242=EDGE_LOOP('',(#228,#235,#240,#241));
#243=FACE_OUTER_BOUND('',#242,.T.);
#244=CARTESIAN_POINT('',(-2.8263,10.54791,0.));
#245=DIRECTION('',(-0.38268,0.92388,0.));
#246=DIRECTION('',(-0.92388,-0.38268,0.));
#247=AXIS2_PLACEMENT_3D('',#244,#245,#246);
#248=PLANE('',#247);
#249=ADVANCED_FACE('',(#243),#248,.T.);
#250=CARTESIAN_POINT('',(-7.72161,7.72161,0.));
#251=VERTEX_POINT('',#250);
#252=DIRECTION('',(-0.79335,-0.60876,0.));
#253=VECTOR('',#252,2.85069);
#254=LINE('',#222,#253);
#255=EDGE_CURVE('',#223,#251,#254,.T.);
#256=ORIENTED_EDGE('',*,*,#255,.T.);
#257=CARTESIAN_POINT('',(-7.72161,7.72161,1.8));
#258=VERTEX_POINT('',#257);
#259=DIRECTION('',(0.,0.,1.));
#260=VECTOR('',#259,1.8);
#261=LINE('',#250,#260);
#262=EDGE_CURVE('',#251,#258,#261,.T.);
#263=ORIENTED_EDGE('',*,*,#262,.T.);
#264=DIRECTION('',(-0.79335,-0.60876,0.));
#265=VECTOR('',#264,2.85069);
#266=LINE('',#229,#265);
#267=EDGE_CURVE('',#230,#258,#266,.T.);
#268=ORIENTED_EDGE('',*,*,#267,.F.);
#269=ORIENTED_EDGE('',*,*,#234,.F.);
#270=EDGE_LOOP('',(#256,#263,#268,#269));
#271=FACE_OUTER_BOUND('',#270,.T.);
#272=CARTESIAN_POINT('',(-5.46,9.457,0.));
#273=DIRECTION('',(-0.60876,0.79335,0.));
#274=DIRECTION('',(-0.79335,-0.60876,0.));
#275=AXIS2_PLACEMENT_3D('',#272,#273,#274);
#276=PLANE('',#275);
#277=ADVANCED_FACE('',(#271),#276,.T.);
#278=CARTESIAN_POINT('',(-9.457,5.46,0.));
#279=VERTEX_POINT('',#278);
#280=DIRECTION('',(-0.60876,-0.79335,0.));
#281=VECTOR('',#280,2.85069);
#282=LINE('',#250,#281);
#283=EDGE_CURVE('',#251,#279,#282,.T.);
#284=ORIENTED_EDGE('',*,*,#283,.T.);
#285=CARTESIAN_POINT('',(-9.457,5.46,1.8));
#286=VERTEX_POINT('',#285);
#287=DIRECTION('',(0.,0.,1.));
#288=VECTOR('',#287,1.8);
#289=LINE('',#278,#288);
#290=EDGE_CURVE('',#279,#286,#289,.T.);
#291=ORIENTED_EDGE('',*,*,#290,.T.);
#292=DIRECTION('',(-0.60876,-0.79335,0.));
#293=VECTOR('',#292,2.85069);
#294=LINE('',#257,#293);
#295=EDGE_CURVE('',#258,#286,#294,.T.);
#296=ORIENTED_EDGE('',*,*,#295,.F.);
#297=ORIENTED_EDGE('',*,*,#262,.F.);
#298=EDGE_LOOP('',(#284,#291,#296,#297));
#299=FACE_OUTER_BOUND('',#298,.T.);
#300=CARTESIAN_POINT('',(-7.72161,7.72161,0.));
#301=DIRECTION('',(-0.79335,0.60876,0.));
#302=DIRECTION('',(-0.60876,-0.79335,0.));
#303=AXIS2_PLACEMENT_3D('',#300,#301,#302);
#304=PLANE('',#303);
#305=ADVANCED_FACE('',(#299),#304,.T.);
#306=CARTESIAN_POINT('',(-10.54791,2.8263,0.));
#307=VERTEX_POINT('',#306);
#308=DIRECTION('',(-0.38268,-0.92388,0.));
#309=VECTOR('',#308,2.85069);
#310=LINE('',#278,#309);
#311=EDGE_CURVE('',#279,#307,#310,.T.);
#312=ORIENTED_EDGE('',*,*,#311,.T.);
#313=CARTESIAN_POINT('',(-10.54791,2.8263,1.8));
#314=VERTEX_POINT('',#313);
#315=DIRECTION('',(0.,0.,1.));
#316=VECTOR('',#315,1.8);
#317=LINE('',#306,#316);
#318=EDGE_CURVE('',#307,#314,#317,.T.);
#319=ORIENTED_EDGE('',*,*,#318,.T.);
#320=DIRECTION('',(-0.38268,-0.92388,0.));
#321=VECTOR('',#320,2.85069);
#322=LINE('',#285,#321);
#323=EDGE_CURVE('',#286,#314,#322,.T.);
#324=ORIENTED_EDGE('',*,*,#323,.F.);
#325=ORIENTED_EDGE('',*,*,#290,.F.);
#326=EDGE_LOOP('',(#312,#319,#324,#325));
#327=FACE_OUTER_BOUND('',#326,.T.);
#328=CARTESIAN_POINT('',(-9.457,5.46,0.));
#329=DIRECTION('',(-0.92388,0.38268,0.));
#330=DIRECTION('',(-0.38268,-0.92388,0.));
#331=AXIS2_PLACEMENT_3D('',#328,#329,#330);
#332=PLANE('',#331);
#333=ADVANCED_FACE('',(#327),#332,.T.);
#334=CARTESIAN_POINT('',(-10.92,0.,0.));
#335=VERTEX_POINT('',#334);
#336=DIRECTION('',(-0.13053,-0.99144,0.));
#337=VECTOR('',#336,2.85069);
#338=LINE('',#306,#337);
#339=EDGE_CURVE('',#307,#335,#338,.T.);
#340=ORIENTED_EDGE('',*,*,#339,.T.);
#341=CARTESIAN_POINT('',(-10.92,0.,1.8));
#342=VERTEX_POINT('',#341);
#343=DIRECTION('',(0.,0.,1.));
#344=VECTOR('',#343,1.8);
#345=LINE('',#334,#344);
#346=EDGE_CURVE('',#335,#342,#345,.T.);
#347=ORIENTED_EDGE('',*,*,#346,.T.);
#348=DIRECTION('',(-0.13053,-0.99144,0.));
#349=VECTOR('',#348,2.85069);
#350=LINE('',#313,#349);
#351=EDGE_CURVE('',#314,#342,#350,.T.);
#352=ORIENTED_EDGE('',*,*,#351,.F.);
#353=ORIENTED_EDGE('',*,*,#318,.F.);
#354=EDGE_LOOP('',(#340,#347,#352,#353));
#355=FACE_OUTER_BOUND('',#354,.T.);
#356=CARTESIAN_POINT('',(-10.54791,2.8263,0.));
#357=DIRECTION('',(-0.99144,0.13053,0.));
#358=DIRECTION('',(-0.13053,-0.99144,0.));
#359=AXIS2_PLACEMENT_3D('',#356,#357,#358);
#360=PLANE('',#359);
#361=ADVANCED_FACE('',(#355),#360,.T.);
#362=CARTESIAN_POINT('',(-10.54791,-2.8263,0.));
#363=VERTEX_POINT('',#362);
#364=DIRECTION('',(0.13053,-0.99144,0.));
#365=VECTOR('',#364,2.85069);
#366=LINE('',#334,#365);
#367=EDGE_CURVE('',#335,#363,#366,.T.);
#368=ORIENTED_EDGE('',*,*,#367,.T.);
#369=CARTESIAN_POINT('',(-10.54791,-2.8263,1.8));
#370=VERTEX_POINT('',#369);
#371=DIRECTION('',(0.,0.,1.));
#372=VECTOR('',#371,1.8);
#373=LINE('',#362,#372);
#374=EDGE_CURVE('',#363,#370,#373,.T.);
#375=ORIENTED_EDGE('',*,*,#374,.T.);
#376=DIRECTION('',(0.13053,-0.99144,0.));
#377=VECTOR('',#376,2.85069);
#378=LINE('',#341,#377);
#379=EDGE_CURVE('',#342,#370,#378,.T.);
#380=ORIENTED_EDGE('',*,*,#379,.F.);
#381=ORIENTED_EDGE('',*,*,#346,.F.);
#382=EDGE_LOOP('',(#368,#375,#380,#381));
#383=FACE_OUTER_BOUND('',#382,.T.);
#384=CARTESIAN_POINT('',(-10.92,0.,0.));
#385=DIRECTION('',(-0.99144,-0.13053,0.));
#386=DIRECTION('',(0.13053,-0.99144,0.));
#387=AXIS2_PLACEMENT_3D('',#384,#385,#386);
#388=PLANE('',#387);
#389=ADVANCED_FACE('',(#383),#388,.T.);
#390=CARTESIAN_POINT('',(-9.457,-5.46,0.));
#391=VERTEX_POINT('',#390);
#392=DIRECTION('',(0.38268,-0.92388,0.));
#393=VECTOR('',#392,2.85069);
#394=LINE('',#362,#393);
#395=EDGE_CURVE('',#363,#391,#394,.T.);
#396=ORIENTED_EDGE('',*,*,#395,.T.);
#397=CARTESIAN_POINT('',(-9.457,-5.46,1.8));
#398=VERTEX_POINT('',#397);
#399=DIRECTION('',(0.,0.,1.));
#400=VECTOR('',#399,1.8);
#401=LINE('',#390,#400);
#402=EDGE_CURVE('',#391,#398,#401,.T.);
#403=ORIENTED_EDGE('',*,*,#402,.T.);
#404=DIRECTION('',(0.38268,-0.92388,0.));
#405=VECTOR('',#404,2.85069);
#406=LINE('',#369,#405);
#407=EDGE_CURVE('',#370,#398,#406,.T.);
#408=ORIENTED_EDGE('',*,*,#407,.F.);
#409=ORIENTED_EDGE('',*,*,#374,.F.);
#410=EDGE_LOOP('',(#396,#403,#408,#409));
#411=FACE_OUTER_BOUND('',#410,.T.);
#412=CARTESIAN_POINT('',(-10.54791,-2.8263,0.));
#413=DIRECTION('',(-0.92388,-0.38268,0.));
#414=DIRECTION('',(0.38268,-0.92388,0.));
#415=AXIS2_PLACEMENT_3D('',#412,#413,#414);
#416=PLANE('',#415);
#417=ADVANCED_FACE('',(#411),#416,.T.);
#418=CARTESIAN_POINT('',(-7.72161,-7.72161,0.));
#419=VERTEX_POINT('',#418);
#420=DIRECTION('',(0.60876,-0.79335,0.));
#421=VECTOR('',#420,2.85069);
#422=LINE('',#390,#421);
#423=EDGE_CURVE('',#391,#419,#422,.T.);
#424=ORIENTED_EDGE('',*,*,#423,.T.);
#425=CARTESIAN_POINT('',(-7.72161,-7.72161,1.8));
#426=VERTEX_POINT('',#425);
#427=DIRECTION('',(0.,0.,1.));
#428=VECTOR('',#427,1.8);
#429=LINE('',#418,#428);
#430=EDGE_CURVE('',#419,#426,#429,.T.);
#431=ORIENTED_EDGE('',*,*,#430,.T.);
#432=DIRECTION('',(0.60876,-0.79335,0.));
#433=VECTOR('',#432,2.85069);
#434=LINE('',#397,#433);
#435=EDGE_CURVE('',#398,#426,#434,.T.);
#436=ORIENTED_EDGE('',*,*,#435,.F.);
#437=ORIENTED_EDGE('',*,*,#402,.F.);
#438=EDGE_LOOP('',(#424,#431,#436,#437));
#439=FACE_OUTER_BOUND('',#438,.T.);
#440=CARTESIAN_POINT('',(-9.457,-5.46,0.));
#441=DIRECTION('',(-0.79335,-0.60876,0.));
#442=DIRECTION('',(0.60876,-0.79335,0.));
#443=AXIS2_PLACEMENT_3D('',#440,#441,#442);
#444=PLANE('',#443);
#445=ADVANCED_FACE('',(#439),#444,.T.);
#446=CARTESIAN_POINT('',(-5.46,-9.457,0.));
#447=VERTEX_POINT('',#446);
#448=DIRECTION('',(0.79335,-0.60876,0.));
#449=VECTOR('',#448,2.85069);
#450=LINE('',#418,#449);
#451=EDGE_CURVE('',#419,#447,#450,.T.);
#452=ORIENTED_EDGE('',*,*,#451,.T.);
#453=CARTESIAN_POINT('',(-5.46,-9.457,1.8));
#454=VERTEX_POINT('',#453);
#455=DIRECTION('',(0.,0.,1.));
#456=VECTOR('',#455,1.8);
#457=LINE('',#446,#456);
#458=EDGE_CURVE('',#447,#454,#457,.T.);
#459=ORIENTED_EDGE('',*,*,#458,.T.);
#460=DIRECTION('',(0.79335,-0.60876,0.));
#461=VECTOR('',#460,2.85069);
#462=LINE('',#425,#461);
#463=EDGE_CURVE('',#426,#454,#462,.T.);
#464=ORIENTED_EDGE('',*,*,#463,.F.);
#465=ORIENTED_EDGE('',*,*,#430,.F.);
#466=EDGE_LOOP('',(#452,#459,#464,#465));
#467=FACE_OUTER_BOUND('',#466,.T.);
#468=CARTESIAN_POINT('',(-7.72161,-7.72161,0.));
#469=DIRECTION('',(-0.60876,-0.79335,0.));
#470=DIRECTION('',(0.79335,-0.60876,0.));
#471=AXIS2_PLACEMENT_3D('',#468,#469,#470);
#472=PLANE('',#471);
#473=ADVANCED_FACE('',(#467),#472,.T.);
#474=CARTESIAN_POINT('',(-2.8263,-10.54791,0.));
#475=VERTEX_POINT('',#474);
#476=DIRECTION('',(0.92388,-0.38268,0.));
#477=VECTOR('',#476,2.85069);
#478=LINE('',#446,#477);
#479=EDGE_CURVE('',#447,#475,#478,.T.);
#480=ORIENTED_EDGE('',*,*,#479,.T.);
#481=CARTESIAN_POINT('',(-2.8263,-10.54791,1.8));
#482=VERTEX_POINT('',#481);
#483=DIRECTION('',(0.,0.,1.));
#484=VECTOR('',#483,1.8);
#485=LINE('',#474,#484);
#486=EDGE_CURVE('',#475,#482,#485,.T.);
#487=ORIENTED_EDGE('',*,*,#486,.T.);
#488=DIRECTION('',(0.92388,-0.38268,0.));
#489=VECTOR('',#488,2.85069);
#490=LINE('',#453,#489);
#491=EDGE_CURVE('',#454,#482,#490,.T.);
#492=ORIENTED_EDGE('',*,*,#491,.F.);
#493=ORIENTED_EDGE('',*,*,#458,.F.);
#494=EDGE_LOOP('',(#480,#487,#492,#493));
#495=FACE_OUTER_BOUND('',#494,.T.);
#496=CARTESIAN_POINT('',(-5.46,-9.457,0.));
#497=DIRECTION('',(-0.38268,-0.92388,0.));
#498=DIRECTION('',(0.92388,-0.38268,0.));
#499=AXIS2_PLACEMENT_3D('',#496,#497,#498);
#500=PLANE('',#499);
#501=ADVANCED_FACE('',(#495),#500,.T.);
#502=CARTESIAN_POINT('',(0.,-10.92,0.));
#503=VERTEX_POINT('',#502);
#504=DIRECTION('',(0.99144,-0.13053,0.));
#505=VECTOR('',#504,2.85069);
#506=LINE('',#474,#505);
#507=EDGE_CURVE('',#475,#503,#506,.T.);
#508=ORIENTED_EDGE('',*,*,#507,.T.);
#509=CARTESIAN_POINT('',(0.,-10.92,1.8));
#510=VERTEX_POINT('',#509);
#511=DIRECTION('',(0.,0.,1.));
#512=VECTOR('',#511,1.8);
#513=LINE('',#502,#512);
#514=EDGE_CURVE('',#503,#510,#513,.T.);
#515=ORIENTED_EDGE('',*,*,#514,.T.);
#516=DIRECTION('',(0.99144,-0.13053,0.));
#517=VECTOR('',#516,2.85069);
#518=LINE('',#481,#517);
#519=EDGE_CURVE('',#482,#510,#518,.T.);
#520=ORIENTED_EDGE('',*,*,#519,.F.);
#521=ORIENTED_EDGE('',*,*,#486,.F.);
#522=EDGE_LOOP('',(#508,#515,#520,#521));
#523=FACE_OUTER_BOUND('',#522,.T.);
#524=CARTESIAN_POINT('',(-2.8263,-10.54791,0.));
#525=DIRECTION('',(-0.13053,-0.99144,0.));
#526=DIRECTION('',(0.99144,-0.13053,0.));
#527=AXIS2_PLACEMENT_3D('',#524,#525,#526);
#528=PLANE('',#527);
#529=ADVANCED_FACE('',(#523),#528,.T.);
#530=CARTESIAN_POINT('',(2.8263,-10.54791,0.));
#531=VERTEX_POINT('',#530);
#532=DIRECTION('',(0.99144,0.13053,0.));
#533=VECTOR('',#532,2.85069);
#534=LINE('',#502,#533);
#535=EDGE_CURVE('',#503,#531,#534,.T.);
#536=ORIENTED_EDGE('',*,*,#535,.T.);
#537=CARTESIAN_POINT('',(2.8263,-10.54791,1.8));
#538=VERTEX_POINT('',#537);
#539=DIRECTION('',(0.,0.,1.));
#540=VECTOR('',#539,1.8);
#541=LINE('',#530,#540);
#542=EDGE_CURVE('',#531,#538,#541,.T.);
#543=ORIENTED_EDGE('',*,*,#542,.T.);
#544=DIRECTION('',(0.99144,0.13053,0.));
#545=VECTOR('',#544,2.85069);
#546=LINE('',#509,#545);
#547=EDGE_CURVE('',#510,#538,#546,.T.);
#548=ORIENTED_EDGE('',*,*,#547,.F.);
#549=ORIENTED_EDGE('',*,*,#514,.F.);
#550=EDGE_LOOP('',(#536,#543,#548,#549));
#551=FACE_OUTER_BOUND('',#550,.T.);
#552=CARTESIAN_POINT('',(0.,-10.92,0.));
#553=DIRECTION('',(0.13053,-0.99144,0.));
#554=DIRECTION('',(0.99144,0.13053,0.));
#555=AXIS2_PLACEMENT_3D('',#552,#553,#554);
#556=PLANE('',#555);
#557=ADVANCED_FACE('',(#551),#556,.T.);
#558=CARTESIAN_POINT('',(5.46,-9.457,0.));
#559=VERTEX_POINT('',#558);
#560=DIRECTION('',(0.92388,0.38268,0.));
#561=VECTOR('',#560,2.85069);
#562=LINE('',#530,#561);
#563=EDGE_CURVE('',#531,#559,#562,.T.);
#564=ORIENTED_EDGE('',*,*,#563,.T.);
#565=CARTESIAN_POINT('',(5.46,-9.457,1.8));
#566=VERTEX_POINT('',#565);
#567=DIRECTION('',(0.,0.,1.));
#568=VECTOR('',#567,1.8);
#569=LINE('',#558,#568);
#570=EDGE_CURVE('',#559,#566,#569,.T.);
#571=ORIENTED_EDGE('',*,*,#570,.T.);
#572=DIRECTION('',(0.92388,0.38268,0.));
#573=VECTOR('',#572,2.85069);
#574=LINE('',#537,#573);
#575=EDGE_CURVE('',#538,#566,#574,.T.);
#576=ORIENTED_EDGE('',*,*,#575,.F.);
#577=ORIENTED_EDGE('',*,*,#542,.F.);
#578=EDGE_LOOP('',(#564,#571,#576,#577));
#579=FACE_OUTER_BOUND('',#578,.T.);
#580=CARTESIAN_POINT('',(2.8263,-10.54791,0.));
#581=DIRECTION('',(0.38268,-0.92388,0.));
#582=DIRECTION('',(0.92388,0.38268,0.));
#583=AXIS2_PLACEMENT_3D('',#580,#581,#582);
#584=PLANE('',#583);
#585=ADVANCED_FACE('',(#579),#584,.T.);
#586=CARTESIAN_POINT('',(7.72161,-7.72161,0.));
#587=VERTEX_POINT('',#586);
#588=DIRECTION('',(0.79335,0.60876,0.));
#589=VECTOR('',#588,2.85069);
#590=LINE('',#558,#589);
#591=EDGE_CURVE('',#559,#587,#590,.T.);
#592=ORIENTED_EDGE('',*,*,#591,.T.);
#593=CARTESIAN_POINT('',(7.72161,-7.72161,1.8));
#594=VERTEX_POINT('',#593);
#595=DIRECTION('',(0.,0.,1.));
#596=VECTOR('',#595,1.8);
#597=LINE('',#586,#596);
#598=EDGE_CURVE('',#587,#594,#597,.T.);
#599=ORIENTED_EDGE('',*,*,#598,.T.);
#600=DIRECTION('',(0.79335,0.60876,0.));
#601=VECTOR('',#600,2.85069);
#602=LINE('',#565,#601);
#603=EDGE_CURVE('',#566,#594,#602,.T.);
#604=ORIENTED_EDGE('',*,*,#603,.F.);
#605=ORIENTED_EDGE('',*,*,#570,.F.);
#606=EDGE_LOOP('',(#592,#599,#604,#605));
#607=FACE_OUTER_BOUND('',#606,.T.);
#608=CARTESIAN_POINT('',(5.46,-9.457,0.));
#609=DIRECTION('',(0.60876,-0.79335,0.));
#610=DIRECTION('',(0.79335,0.60876,0.));
#611=AXIS2_PLACEMENT_3D('',#608,#609,#610);
#612=PLANE('',#611);
#613=ADVANCED_FACE('',(#607),#612,.T.);
#614=CARTESIAN_POINT('',(9.457,-5.46,0.));
#615=VERTEX_POINT('',#614);
#616=DIRECTION('',(0.60876,0.79335,0.));
#617=VECTOR('',#616,2.85069);
#618=LINE('',#586,#617);
#619=EDGE_CURVE('',#587,#615,#618,.T.);
#620=ORIENTED_EDGE('',*,*,#619,.T.);
#621=CARTESIAN_POINT('',(9.457,-5.46,1.8));
#622=VERTEX_POINT('',#621);
#623=DIRECTION('',(0.,0.,1.));
#624=VECTOR('',#623,1.8);
#625=LINE('',#614,#624);
#626=EDGE_CURVE('',#615,#622,#625,.T.);
#627=ORIENTED_EDGE('',*,*,#626,.T.);
#628=DIRECTION('',(0.60876,0.79335,0.));
#629=VECTOR('',#628,2.85069);
#630=LINE('',#593,#629);
#631=EDGE_CURVE('',#594,#622,#630,.T.);
#632=ORIENTED_EDGE('',*,*,#631,.F.);
#633=ORIENTED_EDGE('',*,*,#598,.F.);
#634=EDGE_LOOP('',(#620,#627,#632,#633));
#635=FACE_OUTER_BOUND('',#634,.T.);
#636=CARTESIAN_POINT('',(7.72161,-7.72161,0.));
#637=DIRECTION('',(0.79335,-0.60876,0.));
#638=DIRECTION('',(0.60876,0.79335,0.));
#639=AXIS2_PLACEMENT_3D('',#636,#637,#638);
#640=PLANE('',#639);
#641=ADVANCED_FACE('',(#635),#640,.T.);
#642=CARTESIAN_POINT('',(10.54791,-2.8263,0.));
#643=VERTEX_POINT('',#642);
#644=DIRECTION('',(0.38268,0.92388,0.));
#645=VECTOR('',#644,2.85069);
#646=LINE('',#614,#645);
#647=EDGE_CURVE('',#615,#643,#646,.T.);
#648=ORIENTED_EDGE('',*,*,#647,.T.);
#649=CARTESIAN_POINT('',(10.54791,-2.8263,1.8));
#650=VERTEX_POINT('',#649);
#651=DIRECTION('',(0.,0.,1.));
#652=VECTOR('',#651,1.8);
#653=LINE('',#642,#652);
#654=EDGE_CURVE('',#643,#650,#653,.T.);
#655=ORIENTED_EDGE('',*,*,#654,.T.);
#656=DIRECTION('',(0.38268,0.92388,0.));
#657=VECTOR('',#656,2.85069);
#658=LINE('',#621,#657);
#659=EDGE_CURVE('',#622,#650,#658,.T.);
#660=ORIENTED_EDGE('',*,*,#659,.F.);
#661=ORIENTED_EDGE('',*,*,#626,.F.);
#662=EDGE_LOOP('',(#648,#655,#660,#661));
#663=FACE_OUTER_BOUND('',#662,.T.);
#664=CARTESIAN_POINT('',(9.457,-5.46,0.));
#665=DIRECTION('',(0.92388,-0.38268,0.));
#666=DIRECTION('',(0.38268,0.92388,0.));
#667=AXIS2_PLACEMENT_3D('',#664,#665,#666);
#668=PLANE('',#667);
#669=ADVANCED_FACE('',(#663),#668,.T.);
#670=DIRECTION('',(-0.13053,-0.99144,0.));
#671=VECTOR('',#670,2.85069);
#672=LINE('',#18,#671);
#673=EDGE_CURVE('',#19,#643,#672,.T.);
#674=ORIENTED_EDGE('',*,*,#673,.F.);
#675=ORIENTED_EDGE('',*,*,#44,.T.);
#676=DIRECTION('',(-0.13053,-0.99144,0.));
#677=VECTOR('',#676,2.85069);
#678=LINE('',#34,#677);
#679=EDGE_CURVE('',#35,#650,#678,.T.);
#680=ORIENTED_EDGE('',*,*,#679,.T.);
#681=ORIENTED_EDGE('',*,*,#654,.F.);
#682=EDGE_LOOP('',(#674,#675,#680,#681));
#683=FACE_OUTER_BOUND('',#682,.T.);
#684=CARTESIAN_POINT('',(10.54791,-2.8263,0.));
#685=DIRECTION('',(0.99144,-0.13053,0.));
#686=DIRECTION('',(0.13053,0.99144,0.));
#687=AXIS2_PLACEMENT_3D('',#684,#685,#686);
#688=PLANE('',#687);
#689=ADVANCED_FACE('',(#683),#688,.T.);
#690=ORIENTED_EDGE('',*,*,#647,.F.);
#691=ORIENTED_EDGE('',*,*,#619,.F.);
#692=ORIENTED_EDGE('',*,*,#591,.F.);
#693=ORIENTED_EDGE('',*,*,#563,.F.);
#694=ORIENTED_EDGE('',*,*,#535,.F.);
#695=ORIENTED_EDGE('',*,*,#507,.F.);
#696=ORIENTED_EDGE('',*,*,#479,.F.);
#697=ORIENTED_EDGE('',*,*,#451,.F.);
#698=ORIENTED_EDGE('',*,*,#423,.F.);
#699=ORIENTED_EDGE('',*,*,#395,.F.);
#700=ORIENTED_EDGE('',*,*,#367,.F.);
#701=ORIENTED_EDGE('',*,*,#339,.F.);
#702=ORIENTED_EDGE('',*,*,#311,.F.);
#703=ORIENTED_EDGE('',*,*,#283,.F.);
#704=ORIENTED_EDGE('',*,*,#255,.F.);
#705=ORIENTED_EDGE('',*,*,#227,.F.);
#706=ORIENTED_EDGE('',*,*,#199,.F.);
#707=ORIENTED_EDGE('',*,*,#171,.F.);
#708=ORIENTED_EDGE('',*,*,#143,.F.);
#709=ORIENTED_EDGE('',*,*,#115,.F.);
#710=ORIENTED_EDGE('',*,*,#87,.F.);
#711=ORIENTED_EDGE('',*,*,#59,.F.);
#712=ORIENTED_EDGE('',*,*,#25,.F.);
#713=ORIENTED_EDGE('',*,*,#673,.T.);
#714=EDGE_LOOP('',(#690,#691,#692,#693,#694,#695,#696,#697,#698,#699,#700,#701,#702,#703,#704,#705,#706,#707,#708,#709,#710,#711,#712,#713));
#715=FACE_OUTER_BOUND('',#714,.T.);
#716=CARTESIAN_POINT('',(10.54791,-2.8263,0.));
#717=DIRECTION('',(0.,0.,-1.));
#718=DIRECTION('',(-0.38268,-0.92388,0.));
#719=AXIS2_PLACEMENT_3D('',#716,#717,#718);
#720=PLANE('',#719);
#721=ADVANCED_FACE('',(#715),#720,.T.);
#722=ORIENTED_EDGE('',*,*,#39,.T.);
#723=ORIENTED_EDGE('',*,*,#71,.T.);
#724=ORIENTED_EDGE('',*,*,#99,.T.);
#725=ORIENTED_EDGE('',*,*,#127,.T.);
#726=ORIENTED_EDGE('',*,*,#155,.T.);
#727=ORIENTED_EDGE('',*,*,#183,.T.);
#728=ORIENTED_EDGE('',*,*,#211,.T.);
#729=ORIENTED_EDGE('',*,*,#239,.T.);
#730=ORIENTED_EDGE('',*,*,#267,.T.);
#731=ORIENTED_EDGE('',*,*,#295,.T.);
#732=ORIENTED_EDGE('',*,*,#323,.T.);
#733=ORIENTED_EDGE('',*,*,#351,.T.);
#734=ORIENTED_EDGE('',*,*,#379,.T.);
#735=ORIENTED_EDGE('',*,*,#407,.T.);
#736=ORIENTED_EDGE('',*,*,#435,.T.);
#737=ORIENTED_EDGE('',*,*,#463,.T.);
#738=ORIENTED_EDGE('',*,*,#491,.T.);
#739=ORIENTED_EDGE('',*,*,#519,.T.);
#740=ORIENTED_EDGE('',*,*,#547,.T.);
#741=ORIENTED_EDGE('',*,*,#575,.T.);
#742=ORIENTED_EDGE('',*,*,#603,.T.);
#743=ORIENTED_EDGE('',*,*,#631,.T.);
#744=ORIENTED_EDGE('',*,*,#659,.T.);
#745=ORIENTED_EDGE('',*,*,#679,.F.);
#746=EDGE_LOOP('',(#722,#723,#724,#725,#726,#727,#728,#729,#730,#731,#732,#733,#734,#735,#736,#737,#738,#739,#740,#741,#742,#743,#744,#745));
#747=FACE_OUTER_BOUND('',#746,.T.);
#748=CARTESIAN_POINT('',(10.92,0.,1.8));
#749=DIRECTION('',(0.,0.,1.));
#750=DIRECTION('',(-0.13053,0.99144,0.));
#751=AXIS2_PLACEMENT_3D('',#748,#749,#750);
#752=PLANE('',#751);
#753=ADVANCED_FACE('',(#747),#752,.T.);
#754=CLOSED_SHELL('',(#53,#81,#109,#137,#165,#193,#221,#249,#277,#305,#333,#361,#389,#417,#445,#473,#501,#529,#557,#585,#613,#641,#669,#689,#721,#753));
#755=MANIFOLD_SOLID_BREP('',#754);
#756=COLOUR_RGB('',0.68,0.69,0.7);
#757=FILL_AREA_STYLE_COLOUR('',#756);
#758=FILL_AREA_STYLE('',(#757));
#759=SURFACE_STYLE_FILL_AREA(#758);
#760=SURFACE_SIDE_STYLE('',(#759));
#761=SURFACE_STYLE_USAGE(.BOTH.,#760);
#762=PRESENTATION_STYLE_ASSIGNMENT((#761));
#763=STYLED_ITEM('color',(#762),#755);
#764=CARTESIAN_POINT('',(8.,4.6188,1.8));
#765=VERTEX_POINT('',#764);
#766=CARTESIAN_POINT('',(0.,9.2376,1.8));
#767=VERTEX_POINT('',#766);
#768=DIRECTION('',(-0.86603,0.5,0.));
#769=VECTOR('',#768,9.2376);
#770=LINE('',#764,#769);
#771=EDGE_CURVE('',#765,#767,#770,.T.);
#772=ORIENTED_EDGE('',*,*,#771,.T.);
#773=CARTESIAN_POINT('',(0.,9.2376,8.3));
#774=VERTEX_POINT('',#773);
#775=DIRECTION('',(0.,0.,1.));
#776=VECTOR('',#775,6.5);
#777=LINE('',#766,#776);
#778=EDGE_CURVE('',#767,#774,#777,.T.);
#779=ORIENTED_EDGE('',*,*,#778,.T.);
#780=CARTESIAN_POINT('',(8.,4.6188,8.3));
#781=VERTEX_POINT('',#780);
#782=DIRECTION('',(-0.86603,0.5,0.));
#783=VECTOR('',#782,9.2376);
#784=LINE('',#780,#783);
#785=EDGE_CURVE('',#781,#774,#784,.T.);
#786=ORIENTED_EDGE('',*,*,#785,.F.);
#787=DIRECTION('',(0.,0.,1.));
#788=VECTOR('',#787,6.5);
#789=LINE('',#764,#788);
#790=EDGE_CURVE('',#765,#781,#789,.T.);
#791=ORIENTED_EDGE('',*,*,#790,.F.);
#792=EDGE_LOOP('',(#772,#779,#786,#791));
#793=FACE_OUTER_BOUND('',#792,.T.);
#794=CARTESIAN_POINT('',(8.,4.6188,1.8));
#795=DIRECTION('',(0.5,0.86603,0.));
#796=DIRECTION('',(-0.86603,0.5,0.));
#797=AXIS2_PLACEMENT_3D('',#794,#795,#796);
#798=PLANE('',#797);
#799=ADVANCED_FACE('',(#793),#798,.T.);
#800=CARTESIAN_POINT('',(-8.,4.6188,1.8));
#801=VERTEX_POINT('',#800);
#802=DIRECTION('',(-0.86603,-0.5,0.));
#803=VECTOR('',#802,9.2376);
#804=LINE('',#766,#803);
#805=EDGE_CURVE('',#767,#801,#804,.T.);
#806=ORIENTED_EDGE('',*,*,#805,.T.);
#807=CARTESIAN_POINT('',(-8.,4.6188,8.3));
#808=VERTEX_POINT('',#807);
#809=DIRECTION('',(0.,0.,1.));
#810=VECTOR('',#809,6.5);
#811=LINE('',#800,#810);
#812=EDGE_CURVE('',#801,#808,#811,.T.);
#813=ORIENTED_EDGE('',*,*,#812,.T.);
#814=DIRECTION('',(-0.86603,-0.5,0.));
#815=VECTOR('',#814,9.2376);
#816=LINE('',#773,#815);
#817=EDGE_CURVE('',#774,#808,#816,.T.);
#818=ORIENTED_EDGE('',*,*,#817,.F.);
#819=ORIENTED_EDGE('',*,*,#778,.F.);
#820=EDGE_LOOP('',(#806,#813,#818,#819));
#821=FACE_OUTER_BOUND('',#820,.T.);
#822=CARTESIAN_POINT('',(0.,9.2376,1.8));
#823=DIRECTION('',(-0.5,0.86603,0.));
#824=DIRECTION('',(-0.86603,-0.5,0.));
#825=AXIS2_PLACEMENT_3D('',#822,#823,#824);
#826=PLANE('',#825);
#827=ADVANCED_FACE('',(#821),#826,.T.);
#828=CARTESIAN_POINT('',(-8.,-4.6188,1.8));
#829=VERTEX_POINT('',#828);
#830=DIRECTION('',(0.,-1.,0.));
#831=VECTOR('',#830,9.2376);
#832=LINE('',#800,#831);
#833=EDGE_CURVE('',#801,#829,#832,.T.);
#834=ORIENTED_EDGE('',*,*,#833,.T.);
#835=CARTESIAN_POINT('',(-8.,-4.6188,8.3));
#836=VERTEX_POINT('',#835);
#837=DIRECTION('',(0.,0.,1.));
#838=VECTOR('',#837,6.5);
#839=LINE('',#828,#838);
#840=EDGE_CURVE('',#829,#836,#839,.T.);
#841=ORIENTED_EDGE('',*,*,#840,.T.);
#842=DIRECTION('',(0.,-1.,0.));
#843=VECTOR('',#842,9.2376);
#844=LINE('',#807,#843);
#845=EDGE_CURVE('',#808,#836,#844,.T.);
#846=ORIENTED_EDGE('',*,*,#845,.F.);
#847=ORIENTED_EDGE('',*,*,#812,.F.);
#848=EDGE_LOOP('',(#834,#841,#846,#847));
#849=FACE_OUTER_BOUND('',#848,.T.);
#850=CARTESIAN_POINT('',(-8.,4.6188,1.8));
#851=DIRECTION('',(-1.,0.,0.));
#852=DIRECTION('',(0.,-1.,0.));
#853=AXIS2_PLACEMENT_3D('',#850,#851,#852);
#854=PLANE('',#853);
#855=ADVANCED_FACE('',(#849),#854,.T.);
#856=CARTESIAN_POINT('',(0.,-9.2376,1.8));
#857=VERTEX_POINT('',#856);
#858=DIRECTION('',(0.86603,-0.5,0.));
#859=VECTOR('',#858,9.2376);
#860=LINE('',#828,#859);
#861=EDGE_CURVE('',#829,#857,#860,.T.);
#862=ORIENTED_EDGE('',*,*,#861,.T.);
#863=CARTESIAN_POINT('',(0.,-9.2376,8.3));
#864=VERTEX_POINT('',#863);
#865=DIRECTION('',(0.,0.,1.));
#866=VECTOR('',#865,6.5);
#867=LINE('',#856,#866);
#868=EDGE_CURVE('',#857,#864,#867,.T.);
#869=ORIENTED_EDGE('',*,*,#868,.T.);
#870=DIRECTION('',(0.86603,-0.5,0.));
#871=VECTOR('',#870,9.2376);
#872=LINE('',#835,#871);
#873=EDGE_CURVE('',#836,#864,#872,.T.);
#874=ORIENTED_EDGE('',*,*,#873,.F.);
#875=ORIENTED_EDGE('',*,*,#840,.F.);
#876=EDGE_LOOP('',(#862,#869,#874,#875));
#877=FACE_OUTER_BOUND('',#876,.T.);
#878=CARTESIAN_POINT('',(-8.,-4.6188,1.8));
#879=DIRECTION('',(-0.5,-0.86603,0.));
#880=DIRECTION('',(0.86603,-0.5,0.));
#881=AXIS2_PLACEMENT_3D('',#878,#879,#880);
#882=PLANE('',#881);
#883=ADVANCED_FACE('',(#877),#882,.T.);
#884=CARTESIAN_POINT('',(8.,-4.6188,1.8));
#885=VERTEX_POINT('',#884);
#886=DIRECTION('',(0.86603,0.5,0.));
#887=VECTOR('',#886,9.2376);
#888=LINE('',#856,#887);
#889=EDGE_CURVE('',#857,#885,#888,.T.);
#890=ORIENTED_EDGE('',*,*,#889,.T.);
#891=CARTESIAN_POINT('',(8.,-4.6188,8.3));
#892=VERTEX_POINT('',#891);
#893=DIRECTION('',(0.,0.,1.));
#894=VECTOR('',#893,6.5);
#895=LINE('',#884,#894);
#896=EDGE_CURVE('',#885,#892,#895,.T.);
#897=ORIENTED_EDGE('',*,*,#896,.T.);
#898=DIRECTION('',(0.86603,0.5,0.));
#899=VECTOR('',#898,9.2376);
#900=LINE('',#863,#899);
#901=EDGE_CURVE('',#864,#892,#900,.T.);
#902=ORIENTED_EDGE('',*,*,#901,.F.);
#903=ORIENTED_EDGE('',*,*,#868,.F.);
#904=EDGE_LOOP('',(#890,#897,#902,#903));
#905=FACE_OUTER_BOUND('',#904,.T.);
#906=CARTESIAN_POINT('',(0.,-9.2376,1.8));
#907=DIRECTION('',(0.5,-0.86603,0.));
#908=DIRECTION('',(0.86603,0.5,0.));
#909=AXIS2_PLACEMENT_3D('',#906,#907,#908);
#910=PLANE('',#909);
#911=ADVANCED_FACE('',(#905),#910,.T.);
#912=DIRECTION('',(0.,-1.,0.));
#913=VECTOR('',#912,9.2376);
#914=LINE('',#764,#913);
#915=EDGE_CURVE('',#765,#885,#914,.T.);
#916=ORIENTED_EDGE('',*,*,#915,.F.);
#917=ORIENTED_EDGE('',*,*,#790,.T.);
#918=DIRECTION('',(0.,-1.,0.));
#919=VECTOR('',#918,9.2376);
#920=LINE('',#780,#919);
#921=EDGE_CURVE('',#781,#892,#920,.T.);
#922=ORIENTED_EDGE('',*,*,#921,.T.);
#923=ORIENTED_EDGE('',*,*,#896,.F.);
#924=EDGE_LOOP('',(#916,#917,#922,#923));
#925=FACE_OUTER_BOUND('',#924,.T.);
#926=CARTESIAN_POINT('',(8.,-4.6188,1.8));
#927=DIRECTION('',(1.,0.,0.));
#928=DIRECTION('',(0.,1.,0.));
#929=AXIS2_PLACEMENT_3D('',#926,#927,#928);
#930=PLANE('',#929);
#931=ADVANCED_FACE('',(#925),#930,.T.);
#932=ORIENTED_EDGE('',*,*,#889,.F.);
#933=ORIENTED_EDGE('',*,*,#861,.F.);
#934=ORIENTED_EDGE('',*,*,#833,.F.);
#935=ORIENTED_EDGE('',*,*,#805,.F.);
#936=ORIENTED_EDGE('',*,*,#771,.F.);
#937=ORIENTED_EDGE('',*,*,#915,.T.);
#938=EDGE_LOOP('',(#932,#933,#934,#935,#936,#937));
#939=FACE_OUTER_BOUND('',#938,.T.);
#940=CARTESIAN_POINT('',(8.,-4.6188,1.8));
#941=DIRECTION('',(0.,0.,-1.));
#942=DIRECTION('',(-0.86603,-0.5,0.));
#943=AXIS2_PLACEMENT_3D('',#940,#941,#942);
#944=PLANE('',#943);
#945=ADVANCED_FACE('',(#939),#944,.T.);
#946=ORIENTED_EDGE('',*,*,#785,.T.);
#947=ORIENTED_EDGE('',*,*,#817,.T.);
#948=ORIENTED_EDGE('',*,*,#845,.T.);
#949=ORIENTED_EDGE('',*,*,#873,.T.);
#950=ORIENTED_EDGE('',*,*,#901,.T.);
#951=ORIENTED_EDGE('',*,*,#921,.F.);
#952=EDGE_LOOP('',(#946,#947,#948,#949,#950,#951));
#953=FACE_OUTER_BOUND('',#952,.T.);
#954=CARTESIAN_POINT('',(8.,4.6188,8.3));
#955=DIRECTION('',(0.,0.,1.));
#956=DIRECTION('',(-0.86603,0.5,0.));
#957=AXIS2_PLACEMENT_3D('',#954,#955,#956);
#958=PLANE('',#957);
#959=ADVANCED_FACE('',(#953),#958,.T.);
#960=CLOSED_SHELL('',(#799,#827,#855,#883,#911,#931,#945,#959));
#961=MANIFOLD_SOLID_BREP('',#960);
#962=STYLED_ITEM('color',(#762),#961);
#963=CARTESIAN_POINT('',(5.,0.,-70.));
#964=VERTEX_POINT('',#963);
#965=CARTESIAN_POINT('',(4.6194,1.91342,-70.));
#966=VERTEX_POINT('',#965);
#967=DIRECTION('',(-0.19509,0.98079,0.));
#968=VECTOR('',#967,1.9509);
#969=LINE('',#963,#968);
#970=EDGE_CURVE('',#964,#966,#969,.T.);
#971=ORIENTED_EDGE('',*,*,#970,.T.);
#972=CARTESIAN_POINT('',(4.6194,1.91342,0.01));
#973=VERTEX_POINT('',#972);
#974=DIRECTION('',(0.,0.,1.));
#975=VECTOR('',#974,70.01);
#976=LINE('',#965,#975);
#977=EDGE_CURVE('',#966,#973,#976,.T.);
#978=ORIENTED_EDGE('',*,*,#977,.T.);
#979=CARTESIAN_POINT('',(5.,0.,0.01));
#980=VERTEX_POINT('',#979);
#981=DIRECTION('',(-0.19509,0.98079,0.));
#982=VECTOR('',#981,1.9509);
#983=LINE('',#979,#982);
#984=EDGE_CURVE('',#980,#973,#983,.T.);
#985=ORIENTED_EDGE('',*,*,#984,.F.);
#986=DIRECTION('',(0.,0.,1.));
#987=VECTOR('',#986,70.01);
#988=LINE('',#963,#987);
#989=EDGE_CURVE('',#964,#980,#988,.T.);
#990=ORIENTED_EDGE('',*,*,#989,.F.);
#991=EDGE_LOOP('',(#971,#978,#985,#990));
#992=FACE_OUTER_BOUND('',#991,.T.);
#993=CARTESIAN_POINT('',(5.,0.,-70.));
#994=DIRECTION('',(0.98079,0.19509,0.));
#995=DIRECTION('',(-0.19509,0.98079,0.));
#996=AXIS2_PLACEMENT_3D('',#993,#994,#995);
#997=PLANE('',#996);
#998=ADVANCED_FACE('',(#992),#997,.T.);
#999=CARTESIAN_POINT('',(3.53553,3.53553,-70.));
#1000=VERTEX_POINT('',#999);
#1001=DIRECTION('',(-0.55557,0.83147,0.));
#1002=VECTOR('',#1001,1.9509);
#1003=LINE('',#965,#1002);
#1004=EDGE_CURVE('',#966,#1000,#1003,.T.);
#1005=ORIENTED_EDGE('',*,*,#1004,.T.);
#1006=CARTESIAN_POINT('',(3.53553,3.53553,0.01));
#1007=VERTEX_POINT('',#1006);
#1008=DIRECTION('',(0.,0.,1.));
#1009=VECTOR('',#1008,70.01);
#1010=LINE('',#999,#1009);
#1011=EDGE_CURVE('',#1000,#1007,#1010,.T.);
#1012=ORIENTED_EDGE('',*,*,#1011,.T.);
#1013=DIRECTION('',(-0.55557,0.83147,0.));
#1014=VECTOR('',#1013,1.9509);
#1015=LINE('',#972,#1014);
#1016=EDGE_CURVE('',#973,#1007,#1015,.T.);
#1017=ORIENTED_EDGE('',*,*,#1016,.F.);
#1018=ORIENTED_EDGE('',*,*,#977,.F.);
#1019=EDGE_LOOP('',(#1005,#1012,#1017,#1018));
#1020=FACE_OUTER_BOUND('',#1019,.T.);
#1021=CARTESIAN_POINT('',(4.6194,1.91342,-70.));
#1022=DIRECTION('',(0.83147,0.55557,0.));
#1023=DIRECTION('',(-0.55557,0.83147,0.));
#1024=AXIS2_PLACEMENT_3D('',#1021,#1022,#1023);
#1025=PLANE('',#1024);
#1026=ADVANCED_FACE('',(#1020),#1025,.T.);
#1027=CARTESIAN_POINT('',(1.91342,4.6194,-70.));
#1028=VERTEX_POINT('',#1027);
#1029=DIRECTION('',(-0.83147,0.55557,0.));
#1030=VECTOR('',#1029,1.9509);
#1031=LINE('',#999,#1030);
#1032=EDGE_CURVE('',#1000,#1028,#1031,.T.);
#1033=ORIENTED_EDGE('',*,*,#1032,.T.);
#1034=CARTESIAN_POINT('',(1.91342,4.6194,0.01));
#1035=VERTEX_POINT('',#1034);
#1036=DIRECTION('',(0.,0.,1.));
#1037=VECTOR('',#1036,70.01);
#1038=LINE('',#1027,#1037);
#1039=EDGE_CURVE('',#1028,#1035,#1038,.T.);
#1040=ORIENTED_EDGE('',*,*,#1039,.T.);
#1041=DIRECTION('',(-0.83147,0.55557,0.));
#1042=VECTOR('',#1041,1.9509);
#1043=LINE('',#1006,#1042);
#1044=EDGE_CURVE('',#1007,#1035,#1043,.T.);
#1045=ORIENTED_EDGE('',*,*,#1044,.F.);
#1046=ORIENTED_EDGE('',*,*,#1011,.F.);
#1047=EDGE_LOOP('',(#1033,#1040,#1045,#1046));
#1048=FACE_OUTER_BOUND('',#1047,.T.);
#1049=CARTESIAN_POINT('',(3.53553,3.53553,-70.));
#1050=DIRECTION('',(0.55557,0.83147,0.));
#1051=DIRECTION('',(-0.83147,0.55557,0.));
#1052=AXIS2_PLACEMENT_3D('',#1049,#1050,#1051);
#1053=PLANE('',#1052);
#1054=ADVANCED_FACE('',(#1048),#1053,.T.);
#1055=CARTESIAN_POINT('',(0.,5.,-70.));
#1056=VERTEX_POINT('',#1055);
#1057=DIRECTION('',(-0.98079,0.19509,0.));
#1058=VECTOR('',#1057,1.9509);
#1059=LINE('',#1027,#1058);
#1060=EDGE_CURVE('',#1028,#1056,#1059,.T.);
#1061=ORIENTED_EDGE('',*,*,#1060,.T.);
#1062=CARTESIAN_POINT('',(0.,5.,0.01));
#1063=VERTEX_POINT('',#1062);
#1064=DIRECTION('',(0.,0.,1.));
#1065=VECTOR('',#1064,70.01);
#1066=LINE('',#1055,#1065);
#1067=EDGE_CURVE('',#1056,#1063,#1066,.T.);
#1068=ORIENTED_EDGE('',*,*,#1067,.T.);
#1069=DIRECTION('',(-0.98079,0.19509,0.));
#1070=VECTOR('',#1069,1.9509);
#1071=LINE('',#1034,#1070);
#1072=EDGE_CURVE('',#1035,#1063,#1071,.T.);
#1073=ORIENTED_EDGE('',*,*,#1072,.F.);
#1074=ORIENTED_EDGE('',*,*,#1039,.F.);
#1075=EDGE_LOOP('',(#1061,#1068,#1073,#1074));
#1076=FACE_OUTER_BOUND('',#1075,.T.);
#1077=CARTESIAN_POINT('',(1.91342,4.6194,-70.));
#1078=DIRECTION('',(0.19509,0.98079,0.));
#1079=DIRECTION('',(-0.98079,0.19509,0.));
#1080=AXIS2_PLACEMENT_3D('',#1077,#1078,#1079);
#1081=PLANE('',#1080);
#1082=ADVANCED_FACE('',(#1076),#1081,.T.);
#1083=CARTESIAN_POINT('',(-1.91342,4.6194,-70.));
#1084=VERTEX_POINT('',#1083);
#1085=DIRECTION('',(-0.98079,-0.19509,0.));
#1086=VECTOR('',#1085,1.9509);
#1087=LINE('',#1055,#1086);
#1088=EDGE_CURVE('',#1056,#1084,#1087,.T.);
#1089=ORIENTED_EDGE('',*,*,#1088,.T.);
#1090=CARTESIAN_POINT('',(-1.91342,4.6194,0.01));
#1091=VERTEX_POINT('',#1090);
#1092=DIRECTION('',(0.,0.,1.));
#1093=VECTOR('',#1092,70.01);
#1094=LINE('',#1083,#1093);
#1095=EDGE_CURVE('',#1084,#1091,#1094,.T.);
#1096=ORIENTED_EDGE('',*,*,#1095,.T.);
#1097=DIRECTION('',(-0.98079,-0.19509,0.));
#1098=VECTOR('',#1097,1.9509);
#1099=LINE('',#1062,#1098);
#1100=EDGE_CURVE('',#1063,#1091,#1099,.T.);
#1101=ORIENTED_EDGE('',*,*,#1100,.F.);
#1102=ORIENTED_EDGE('',*,*,#1067,.F.);
#1103=EDGE_LOOP('',(#1089,#1096,#1101,#1102));
#1104=FACE_OUTER_BOUND('',#1103,.T.);
#1105=CARTESIAN_POINT('',(0.,5.,-70.));
#1106=DIRECTION('',(-0.19509,0.98079,0.));
#1107=DIRECTION('',(-0.98079,-0.19509,0.));
#1108=AXIS2_PLACEMENT_3D('',#1105,#1106,#1107);
#1109=PLANE('',#1108);
#1110=ADVANCED_FACE('',(#1104),#1109,.T.);
#1111=CARTESIAN_POINT('',(-3.53553,3.53553,-70.));
#1112=VERTEX_POINT('',#1111);
#1113=DIRECTION('',(-0.83147,-0.55557,0.));
#1114=VECTOR('',#1113,1.9509);
#1115=LINE('',#1083,#1114);
#1116=EDGE_CURVE('',#1084,#1112,#1115,.T.);
#1117=ORIENTED_EDGE('',*,*,#1116,.T.);
#1118=CARTESIAN_POINT('',(-3.53553,3.53553,0.01));
#1119=VERTEX_POINT('',#1118);
#1120=DIRECTION('',(0.,0.,1.));
#1121=VECTOR('',#1120,70.01);
#1122=LINE('',#1111,#1121);
#1123=EDGE_CURVE('',#1112,#1119,#1122,.T.);
#1124=ORIENTED_EDGE('',*,*,#1123,.T.);
#1125=DIRECTION('',(-0.83147,-0.55557,0.));
#1126=VECTOR('',#1125,1.9509);
#1127=LINE('',#1090,#1126);
#1128=EDGE_CURVE('',#1091,#1119,#1127,.T.);
#1129=ORIENTED_EDGE('',*,*,#1128,.F.);
#1130=ORIENTED_EDGE('',*,*,#1095,.F.);
#1131=EDGE_LOOP('',(#1117,#1124,#1129,#1130));
#1132=FACE_OUTER_BOUND('',#1131,.T.);
#1133=CARTESIAN_POINT('',(-1.91342,4.6194,-70.));
#1134=DIRECTION('',(-0.55557,0.83147,0.));
#1135=DIRECTION('',(-0.83147,-0.55557,0.));
#1136=AXIS2_PLACEMENT_3D('',#1133,#1134,#1135);
#1137=PLANE('',#1136);
#1138=ADVANCED_FACE('',(#1132),#1137,.T.);
#1139=CARTESIAN_POINT('',(-4.6194,1.91342,-70.));
#1140=VERTEX_POINT('',#1139);
#1141=DIRECTION('',(-0.55557,-0.83147,0.));
#1142=VECTOR('',#1141,1.9509);
#1143=LINE('',#1111,#1142);
#1144=EDGE_CURVE('',#1112,#1140,#1143,.T.);
#1145=ORIENTED_EDGE('',*,*,#1144,.T.);
#1146=CARTESIAN_POINT('',(-4.6194,1.91342,0.01));
#1147=VERTEX_POINT('',#1146);
#1148=DIRECTION('',(0.,0.,1.));
#1149=VECTOR('',#1148,70.01);
#1150=LINE('',#1139,#1149);
#1151=EDGE_CURVE('',#1140,#1147,#1150,.T.);
#1152=ORIENTED_EDGE('',*,*,#1151,.T.);
#1153=DIRECTION('',(-0.55557,-0.83147,0.));
#1154=VECTOR('',#1153,1.9509);
#1155=LINE('',#1118,#1154);
#1156=EDGE_CURVE('',#1119,#1147,#1155,.T.);
#1157=ORIENTED_EDGE('',*,*,#1156,.F.);
#1158=ORIENTED_EDGE('',*,*,#1123,.F.);
#1159=EDGE_LOOP('',(#1145,#1152,#1157,#1158));
#1160=FACE_OUTER_BOUND('',#1159,.T.);
#1161=CARTESIAN_POINT('',(-3.53553,3.53553,-70.));
#1162=DIRECTION('',(-0.83147,0.55557,0.));
#1163=DIRECTION('',(-0.55557,-0.83147,0.));
#1164=AXIS2_PLACEMENT_3D('',#1161,#1162,#1163);
#1165=PLANE('',#1164);
#1166=ADVANCED_FACE('',(#1160),#1165,.T.);
#1167=CARTESIAN_POINT('',(-5.,0.,-70.));
#1168=VERTEX_POINT('',#1167);
#1169=DIRECTION('',(-0.19509,-0.98079,0.));
#1170=VECTOR('',#1169,1.9509);
#1171=LINE('',#1139,#1170);
#1172=EDGE_CURVE('',#1140,#1168,#1171,.T.);
#1173=ORIENTED_EDGE('',*,*,#1172,.T.);
#1174=CARTESIAN_POINT('',(-5.,0.,0.01));
#1175=VERTEX_POINT('',#1174);
#1176=DIRECTION('',(0.,0.,1.));
#1177=VECTOR('',#1176,70.01);
#1178=LINE('',#1167,#1177);
#1179=EDGE_CURVE('',#1168,#1175,#1178,.T.);
#1180=ORIENTED_EDGE('',*,*,#1179,.T.);
#1181=DIRECTION('',(-0.19509,-0.98079,0.));
#1182=VECTOR('',#1181,1.9509);
#1183=LINE('',#1146,#1182);
#1184=EDGE_CURVE('',#1147,#1175,#1183,.T.);
#1185=ORIENTED_EDGE('',*,*,#1184,.F.);
#1186=ORIENTED_EDGE('',*,*,#1151,.F.);
#1187=EDGE_LOOP('',(#1173,#1180,#1185,#1186));
#1188=FACE_OUTER_BOUND('',#1187,.T.);
#1189=CARTESIAN_POINT('',(-4.6194,1.91342,-70.));
#1190=DIRECTION('',(-0.98079,0.19509,0.));
#1191=DIRECTION('',(-0.19509,-0.98079,0.));
#1192=AXIS2_PLACEMENT_3D('',#1189,#1190,#1191);
#1193=PLANE('',#1192);
#1194=ADVANCED_FACE('',(#1188),#1193,.T.);
#1195=CARTESIAN_POINT('',(-4.6194,-1.91342,-70.));
#1196=VERTEX_POINT('',#1195);
#1197=DIRECTION('',(0.19509,-0.98079,0.));
#1198=VECTOR('',#1197,1.9509);
#1199=LINE('',#1167,#1198);
#1200=EDGE_CURVE('',#1168,#1196,#1199,.T.);
#1201=ORIENTED_EDGE('',*,*,#1200,.T.);
#1202=CARTESIAN_POINT('',(-4.6194,-1.91342,0.01));
#1203=VERTEX_POINT('',#1202);
#1204=DIRECTION('',(0.,0.,1.));
#1205=VECTOR('',#1204,70.01);
#1206=LINE('',#1195,#1205);
#1207=EDGE_CURVE('',#1196,#1203,#1206,.T.);
#1208=ORIENTED_EDGE('',*,*,#1207,.T.);
#1209=DIRECTION('',(0.19509,-0.98079,0.));
#1210=VECTOR('',#1209,1.9509);
#1211=LINE('',#1174,#1210);
#1212=EDGE_CURVE('',#1175,#1203,#1211,.T.);
#1213=ORIENTED_EDGE('',*,*,#1212,.F.);
#1214=ORIENTED_EDGE('',*,*,#1179,.F.);
#1215=EDGE_LOOP('',(#1201,#1208,#1213,#1214));
#1216=FACE_OUTER_BOUND('',#1215,.T.);
#1217=CARTESIAN_POINT('',(-5.,0.,-70.));
#1218=DIRECTION('',(-0.98079,-0.19509,0.));
#1219=DIRECTION('',(0.19509,-0.98079,0.));
#1220=AXIS2_PLACEMENT_3D('',#1217,#1218,#1219);
#1221=PLANE('',#1220);
#1222=ADVANCED_FACE('',(#1216),#1221,.T.);
#1223=CARTESIAN_POINT('',(-3.53553,-3.53553,-70.));
#1224=VERTEX_POINT('',#1223);
#1225=DIRECTION('',(0.55557,-0.83147,0.));
#1226=VECTOR('',#1225,1.9509);
#1227=LINE('',#1195,#1226);
#1228=EDGE_CURVE('',#1196,#1224,#1227,.T.);
#1229=ORIENTED_EDGE('',*,*,#1228,.T.);
#1230=CARTESIAN_POINT('',(-3.53553,-3.53553,0.01));
#1231=VERTEX_POINT('',#1230);
#1232=DIRECTION('',(0.,0.,1.));
#1233=VECTOR('',#1232,70.01);
#1234=LINE('',#1223,#1233);
#1235=EDGE_CURVE('',#1224,#1231,#1234,.T.);
#1236=ORIENTED_EDGE('',*,*,#1235,.T.);
#1237=DIRECTION('',(0.55557,-0.83147,0.));
#1238=VECTOR('',#1237,1.9509);
#1239=LINE('',#1202,#1238);
#1240=EDGE_CURVE('',#1203,#1231,#1239,.T.);
#1241=ORIENTED_EDGE('',*,*,#1240,.F.);
#1242=ORIENTED_EDGE('',*,*,#1207,.F.);
#1243=EDGE_LOOP('',(#1229,#1236,#1241,#1242));
#1244=FACE_OUTER_BOUND('',#1243,.T.);
#1245=CARTESIAN_POINT('',(-4.6194,-1.91342,-70.));
#1246=DIRECTION('',(-0.83147,-0.55557,0.));
#1247=DIRECTION('',(0.55557,-0.83147,0.));
#1248=AXIS2_PLACEMENT_3D('',#1245,#1246,#1247);
#1249=PLANE('',#1248);
#1250=ADVANCED_FACE('',(#1244),#1249,.T.);
#1251=CARTESIAN_POINT('',(-1.91342,-4.6194,-70.));
#1252=VERTEX_POINT('',#1251);
#1253=DIRECTION('',(0.83147,-0.55557,0.));
#1254=VECTOR('',#1253,1.9509);
#1255=LINE('',#1223,#1254);
#1256=EDGE_CURVE('',#1224,#1252,#1255,.T.);
#1257=ORIENTED_EDGE('',*,*,#1256,.T.);
#1258=CARTESIAN_POINT('',(-1.91342,-4.6194,0.01));
#1259=VERTEX_POINT('',#1258);
#1260=DIRECTION('',(0.,0.,1.));
#1261=VECTOR('',#1260,70.01);
#1262=LINE('',#1251,#1261);
#1263=EDGE_CURVE('',#1252,#1259,#1262,.T.);
#1264=ORIENTED_EDGE('',*,*,#1263,.T.);
#1265=DIRECTION('',(0.83147,-0.55557,0.));
#1266=VECTOR('',#1265,1.9509);
#1267=LINE('',#1230,#1266);
#1268=EDGE_CURVE('',#1231,#1259,#1267,.T.);
#1269=ORIENTED_EDGE('',*,*,#1268,.F.);
#1270=ORIENTED_EDGE('',*,*,#1235,.F.);
#1271=EDGE_LOOP('',(#1257,#1264,#1269,#1270));
#1272=FACE_OUTER_BOUND('',#1271,.T.);
#1273=CARTESIAN_POINT('',(-3.53553,-3.53553,-70.));
#1274=DIRECTION('',(-0.55557,-0.83147,0.));
#1275=DIRECTION('',(0.83147,-0.55557,0.));
#1276=AXIS2_PLACEMENT_3D('',#1273,#1274,#1275);
#1277=PLANE('',#1276);
#1278=ADVANCED_FACE('',(#1272),#1277,.T.);
#1279=CARTESIAN_POINT('',(0.,-5.,-70.));
#1280=VERTEX_POINT('',#1279);
#1281=DIRECTION('',(0.98079,-0.19509,0.));
#1282=VECTOR('',#1281,1.9509);
#1283=LINE('',#1251,#1282);
#1284=EDGE_CURVE('',#1252,#1280,#1283,.T.);
#1285=ORIENTED_EDGE('',*,*,#1284,.T.);
#1286=CARTESIAN_POINT('',(0.,-5.,0.01));
#1287=VERTEX_POINT('',#1286);
#1288=DIRECTION('',(0.,0.,1.));
#1289=VECTOR('',#1288,70.01);
#1290=LINE('',#1279,#1289);
#1291=EDGE_CURVE('',#1280,#1287,#1290,.T.);
#1292=ORIENTED_EDGE('',*,*,#1291,.T.);
#1293=DIRECTION('',(0.98079,-0.19509,0.));
#1294=VECTOR('',#1293,1.9509);
#1295=LINE('',#1258,#1294);
#1296=EDGE_CURVE('',#1259,#1287,#1295,.T.);
#1297=ORIENTED_EDGE('',*,*,#1296,.F.);
#1298=ORIENTED_EDGE('',*,*,#1263,.F.);
#1299=EDGE_LOOP('',(#1285,#1292,#1297,#1298));
#1300=FACE_OUTER_BOUND('',#1299,.T.);
#1301=CARTESIAN_POINT('',(-1.91342,-4.6194,-70.));
#1302=DIRECTION('',(-0.19509,-0.98079,0.));
#1303=DIRECTION('',(0.98079,-0.19509,0.));
#1304=AXIS2_PLACEMENT_3D('',#1301,#1302,#1303);
#1305=PLANE('',#1304);
#1306=ADVANCED_FACE('',(#1300),#1305,.T.);
#1307=CARTESIAN_POINT('',(1.91342,-4.6194,-70.));
#1308=VERTEX_POINT('',#1307);
#1309=DIRECTION('',(0.98079,0.19509,0.));
#1310=VECTOR('',#1309,1.9509);
#1311=LINE('',#1279,#1310);
#1312=EDGE_CURVE('',#1280,#1308,#1311,.T.);
#1313=ORIENTED_EDGE('',*,*,#1312,.T.);
#1314=CARTESIAN_POINT('',(1.91342,-4.6194,0.01));
#1315=VERTEX_POINT('',#1314);
#1316=DIRECTION('',(0.,0.,1.));
#1317=VECTOR('',#1316,70.01);
#1318=LINE('',#1307,#1317);
#1319=EDGE_CURVE('',#1308,#1315,#1318,.T.);
#1320=ORIENTED_EDGE('',*,*,#1319,.T.);
#1321=DIRECTION('',(0.98079,0.19509,0.));
#1322=VECTOR('',#1321,1.9509);
#1323=LINE('',#1286,#1322);
#1324=EDGE_CURVE('',#1287,#1315,#1323,.T.);
#1325=ORIENTED_EDGE('',*,*,#1324,.F.);
#1326=ORIENTED_EDGE('',*,*,#1291,.F.);
#1327=EDGE_LOOP('',(#1313,#1320,#1325,#1326));
#1328=FACE_OUTER_BOUND('',#1327,.T.);
#1329=CARTESIAN_POINT('',(0.,-5.,-70.));
#1330=DIRECTION('',(0.19509,-0.98079,0.));
#1331=DIRECTION('',(0.98079,0.19509,0.));
#1332=AXIS2_PLACEMENT_3D('',#1329,#1330,#1331);
#1333=PLANE('',#1332);
#1334=ADVANCED_FACE('',(#1328),#1333,.T.);
#1335=CARTESIAN_POINT('',(3.53553,-3.53553,-70.));
#1336=VERTEX_POINT('',#1335);
#1337=DIRECTION('',(0.83147,0.55557,0.));
#1338=VECTOR('',#1337,1.9509);
#1339=LINE('',#1307,#1338);
#1340=EDGE_CURVE('',#1308,#1336,#1339,.T.);
#1341=ORIENTED_EDGE('',*,*,#1340,.T.);
#1342=CARTESIAN_POINT('',(3.53553,-3.53553,0.01));
#1343=VERTEX_POINT('',#1342);
#1344=DIRECTION('',(0.,0.,1.));
#1345=VECTOR('',#1344,70.01);
#1346=LINE('',#1335,#1345);
#1347=EDGE_CURVE('',#1336,#1343,#1346,.T.);
#1348=ORIENTED_EDGE('',*,*,#1347,.T.);
#1349=DIRECTION('',(0.83147,0.55557,0.));
#1350=VECTOR('',#1349,1.9509);
#1351=LINE('',#1314,#1350);
#1352=EDGE_CURVE('',#1315,#1343,#1351,.T.);
#1353=ORIENTED_EDGE('',*,*,#1352,.F.);
#1354=ORIENTED_EDGE('',*,*,#1319,.F.);
#1355=EDGE_LOOP('',(#1341,#1348,#1353,#1354));
#1356=FACE_OUTER_BOUND('',#1355,.T.);
#1357=CARTESIAN_POINT('',(1.91342,-4.6194,-70.));
#1358=DIRECTION('',(0.55557,-0.83147,0.));
#1359=DIRECTION('',(0.83147,0.55557,0.));
#1360=AXIS2_PLACEMENT_3D('',#1357,#1358,#1359);
#1361=PLANE('',#1360);
#1362=ADVANCED_FACE('',(#1356),#1361,.T.);
#1363=CARTESIAN_POINT('',(4.6194,-1.91342,-70.));
#1364=VERTEX_POINT('',#1363);
#1365=DIRECTION('',(0.55557,0.83147,0.));
#1366=VECTOR('',#1365,1.9509);
#1367=LINE('',#1335,#1366);
#1368=EDGE_CURVE('',#1336,#1364,#1367,.T.);
#1369=ORIENTED_EDGE('',*,*,#1368,.T.);
#1370=CARTESIAN_POINT('',(4.6194,-1.91342,0.01));
#1371=VERTEX_POINT('',#1370);
#1372=DIRECTION('',(0.,0.,1.));
#1373=VECTOR('',#1372,70.01);
#1374=LINE('',#1363,#1373);
#1375=EDGE_CURVE('',#1364,#1371,#1374,.T.);
#1376=ORIENTED_EDGE('',*,*,#1375,.T.);
#1377=DIRECTION('',(0.55557,0.83147,0.));
#1378=VECTOR('',#1377,1.9509);
#1379=LINE('',#1342,#1378);
#1380=EDGE_CURVE('',#1343,#1371,#1379,.T.);
#1381=ORIENTED_EDGE('',*,*,#1380,.F.);
#1382=ORIENTED_EDGE('',*,*,#1347,.F.);
#1383=EDGE_LOOP('',(#1369,#1376,#1381,#1382));
#1384=FACE_OUTER_BOUND('',#1383,.T.);
#1385=CARTESIAN_POINT('',(3.53553,-3.53553,-70.));
#1386=DIRECTION('',(0.83147,-0.55557,0.));
#1387=DIRECTION('',(0.55557,0.83147,0.));
#1388=AXIS2_PLACEMENT_3D('',#1385,#1386,#1387);
#1389=PLANE('',#1388);
#1390=ADVANCED_FACE('',(#1384),#1389,.T.);
#1391=DIRECTION('',(-0.19509,-0.98079,0.));
#1392=VECTOR('',#1391,1.9509);
#1393=LINE('',#963,#1392);
#1394=EDGE_CURVE('',#964,#1364,#1393,.T.);
#1395=ORIENTED_EDGE('',*,*,#1394,.F.);
#1396=ORIENTED_EDGE('',*,*,#989,.T.);
#1397=DIRECTION('',(-0.19509,-0.98079,0.));
#1398=VECTOR('',#1397,1.9509);
#1399=LINE('',#979,#1398);
#1400=EDGE_CURVE('',#980,#1371,#1399,.T.);
#1401=ORIENTED_EDGE('',*,*,#1400,.T.);
#1402=ORIENTED_EDGE('',*,*,#1375,.F.);
#1403=EDGE_LOOP('',(#1395,#1396,#1401,#1402));
#1404=FACE_OUTER_BOUND('',#1403,.T.);
#1405=CARTESIAN_POINT('',(4.6194,-1.91342,-70.));
#1406=DIRECTION('',(0.98079,-0.19509,0.));
#1407=DIRECTION('',(0.19509,0.98079,0.));
#1408=AXIS2_PLACEMENT_3D('',#1405,#1406,#1407);
#1409=PLANE('',#1408);
#1410=ADVANCED_FACE('',(#1404),#1409,.T.);
#1411=ORIENTED_EDGE('',*,*,#1368,.F.);
#1412=ORIENTED_EDGE('',*,*,#1340,.F.);
#1413=ORIENTED_EDGE('',*,*,#1312,.F.);
#1414=ORIENTED_EDGE('',*,*,#1284,.F.);
#1415=ORIENTED_EDGE('',*,*,#1256,.F.);
#1416=ORIENTED_EDGE('',*,*,#1228,.F.);
#1417=ORIENTED_EDGE('',*,*,#1200,.F.);
#1418=ORIENTED_EDGE('',*,*,#1172,.F.);
#1419=ORIENTED_EDGE('',*,*,#1144,.F.);
#1420=ORIENTED_EDGE('',*,*,#1116,.F.);
#1421=ORIENTED_EDGE('',*,*,#1088,.F.);
#1422=ORIENTED_EDGE('',*,*,#1060,.F.);
#1423=ORIENTED_EDGE('',*,*,#1032,.F.);
#1424=ORIENTED_EDGE('',*,*,#1004,.F.);
#1425=ORIENTED_EDGE('',*,*,#970,.F.);
#1426=ORIENTED_EDGE('',*,*,#1394,.T.);
#1427=EDGE_LOOP('',(#1411,#1412,#1413,#1414,#1415,#1416,#1417,#1418,#1419,#1420,#1421,#1422,#1423,#1424,#1425,#1426));
#1428=FACE_OUTER_BOUND('',#1427,.T.);
#1429=CARTESIAN_POINT('',(4.6194,-1.91342,-70.));
#1430=DIRECTION('',(0.,0.,-1.));
#1431=DIRECTION('',(-0.55557,-0.83147,0.));
#1432=AXIS2_PLACEMENT_3D('',#1429,#1430,#1431);
#1433=PLANE('',#1432);
#1434=ADVANCED_FACE('',(#1428),#1433,.T.);
#1435=ORIENTED_EDGE('',*,*,#984,.T.);
#1436=ORIENTED_EDGE('',*,*,#1016,.T.);
#1437=ORIENTED_EDGE('',*,*,#1044,.T.);
#1438=ORIENTED_EDGE('',*,*,#1072,.T.);
#1439=ORIENTED_EDGE('',*,*,#1100,.T.);
#1440=ORIENTED_EDGE('',*,*,#1128,.T.);
#1441=ORIENTED_EDGE('',*,*,#1156,.T.);
#1442=ORIENTED_EDGE('',*,*,#1184,.T.);
#1443=ORIENTED_EDGE('',*,*,#1212,.T.);
#1444=ORIENTED_EDGE('',*,*,#1240,.T.);
#1445=ORIENTED_EDGE('',*,*,#1268,.T.);
#1446=ORIENTED_EDGE('',*,*,#1296,.T.);
#1447=ORIENTED_EDGE('',*,*,#1324,.T.);
#1448=ORIENTED_EDGE('',*,*,#1352,.T.);
#1449=ORIENTED_EDGE('',*,*,#1380,.T.);
#1450=ORIENTED_EDGE('',*,*,#1400,.F.);
#1451=EDGE_LOOP('',(#1435,#1436,#1437,#1438,#1439,#1440,#1441,#1442,#1443,#1444,#1445,#1446,#1447,#1448,#1449,#1450));
#1452=FACE_OUTER_BOUND('',#1451,.T.);
#1453=CARTESIAN_POINT('',(5.,0.,0.01));
#1454=DIRECTION('',(0.,0.,1.));
#1455=DIRECTION('',(-0.19509,0.98079,0.));
#1456=AXIS2_PLACEMENT_3D('',#1453,#1454,#1455);
#1457=PLANE('',#1456);
#1458=ADVANCED_FACE('',(#1452),#1457,.T.);
#1459=CLOSED_SHELL('',(#998,#1026,#1054,#1082,#1110,#1138,#1166,#1194,#1222,#1250,#1278,#1306,#1334,#1362,#1390,#1410,#1434,#1458));
#1460=MANIFOLD_SOLID_BREP('',#1459);
#1461=STYLED_ITEM('color',(#762),#1460);
#1462=ADVANCED_BREP_SHAPE_REPRESENTATION('',(#17,#755,#961,#1460),#9);
#1463=SHAPE_DEFINITION_REPRESENTATION(#13,#1462);
#1464=MECHANICAL_DESIGN_GEOMETRIC_PRESENTATION_REPRESENTATION('',(#763,#962,#1461),#9);
#1465=PRODUCT_RELATED_PRODUCT_CATEGORY('part',$,(#10));
ENDSEC;
END-ISO-10303-21;
