ISO-10303-21;
HEADER;
FILE_DESCRIPTION(('AquaSentinel R3 - planar B-rep export'),'2;1');
FILE_NAME('Gate hinge pin D10','2026-10-04T21:49:42',('AquaSentinel team'),('Sanjivani University'),'AquaSentinel R3 python build','AquaSentinel R3','');
FILE_SCHEMA(('AUTOMOTIVE_DESIGN { 1 0 10303 214 1 1 1 1 }'));
ENDSEC;
DATA;
#1=APPLICATION_CONTEXT('core data for automotive mechanical design processes');
#2=APPLICATION_PROTOCOL_DEFINITION('international standard','automotive_design',2000,#1);
#3=PRODUCT_CONTEXT('',#1,'mechanical');
#4=PRODUCT_DEFINITION_CONTEXT('part definition',#1,'design');
#5=(LENGTH_UNIT()NAMED_UNIT(*)SI_UNIT(.MILLI.,.METRE.));
#6=(NAMED_UNIT(*)PLANE_ANGLE_UNIT()SI_UNIT($,.RADIAN.));
#7=(NAMED_UNIT(*)SI_UNIT($,.STERADIAN.)SOLID_ANGLE_UNIT());
#8=UNCERTAINTY_MEASURE_WITH_UNIT(LENGTH_MEASURE(1.E-04),#5,'distance_accuracy_value','confusion accuracy');
#9=(GEOMETRIC_REPRESENTATION_CONTEXT(3)GLOBAL_UNCERTAINTY_ASSIGNED_CONTEXT((#8))GLOBAL_UNIT_ASSIGNED_CONTEXT((#5,#6,#7))REPRESENTATION_CONTEXT('Context','3D Context with UNIT and UNCERTAINTY'));
#10=PRODUCT('AS3-313','Gate hinge pin D10','',(#3));
#11=PRODUCT_DEFINITION_FORMATION('','',#10);
#12=PRODUCT_DEFINITION('design','',#11,#4);
#13=PRODUCT_DEFINITION_SHAPE('','',#12);
#14=CARTESIAN_POINT('',(0.,0.,0.));
#15=DIRECTION('',(0.,0.,1.));
#16=DIRECTION('',(1.,0.,0.));
#17=AXIS2_PLACEMENT_3D('',#14,#15,#16);
#18=CARTESIAN_POINT('',(-106.,111.,225.));
#19=VERTEX_POINT('',#18);
#20=CARTESIAN_POINT('',(-106.24472,112.54508,225.));
#21=VERTEX_POINT('',#20);
#22=DIRECTION('',(-0.15643,0.98769,0.));
#23=VECTOR('',#22,1.56434);
#24=LINE('',#18,#23);
#25=EDGE_CURVE('',#19,#21,#24,.T.);
#26=ORIENTED_EDGE('',*,*,#25,.T.);
#27=CARTESIAN_POINT('',(-106.24472,112.54508,505.));
#28=VERTEX_POINT('',#27);
#29=DIRECTION('',(0.,0.,1.));
#30=VECTOR('',#29,280.);
#31=LINE('',#20,#30);
#32=EDGE_CURVE('',#21,#28,#31,.T.);
#33=ORIENTED_EDGE('',*,*,#32,.T.);
#34=CARTESIAN_POINT('',(-106.,111.,505.));
#35=VERTEX_POINT('',#34);
#36=DIRECTION('',(-0.15643,0.98769,0.));
#37=VECTOR('',#36,1.56434);
#38=LINE('',#34,#37);
#39=EDGE_CURVE('',#35,#28,#38,.T.);
#40=ORIENTED_EDGE('',*,*,#39,.F.);
#41=DIRECTION('',(0.,0.,1.));
#42=VECTOR('',#41,280.);
#43=LINE('',#18,#42);
#44=EDGE_CURVE('',#19,#35,#43,.T.);
#45=ORIENTED_EDGE('',*,*,#44,.F.);
#46=EDGE_LOOP('',(#26,#33,#40,#45));
#47=FACE_OUTER_BOUND('',#46,.T.);
#48=CARTESIAN_POINT('',(-106.,111.,225.));
#49=DIRECTION('',(0.98769,0.15643,0.));
#50=DIRECTION('',(-0.15643,0.98769,0.));
#51=AXIS2_PLACEMENT_3D('',#48,#49,#50);
#52=PLANE('',#51);
#53=ADVANCED_FACE('',(#47),#52,.T.);
#54=CARTESIAN_POINT('',(-106.95492,113.93893,225.));
#55=VERTEX_POINT('',#54);
#56=DIRECTION('',(-0.45399,0.89101,0.));
#57=VECTOR('',#56,1.56434);
#58=LINE('',#20,#57);
#59=EDGE_CURVE('',#21,#55,#58,.T.);
#60=ORIENTED_EDGE('',*,*,#59,.T.);
#61=CARTESIAN_POINT('',(-106.95492,113.93893,505.));
#62=VERTEX_POINT('',#61);
#63=DIRECTION('',(0.,0.,1.));
#64=VECTOR('',#63,280.);
#65=LINE('',#54,#64);
#66=EDGE_CURVE('',#55,#62,#65,.T.);
#67=ORIENTED_EDGE('',*,*,#66,.T.);
#68=DIRECTION('',(-0.45399,0.89101,0.));
#69=VECTOR('',#68,1.56434);
#70=LINE('',#27,#69);
#71=EDGE_CURVE('',#28,#62,#70,.T.);
#72=ORIENTED_EDGE('',*,*,#71,.F.);
#73=ORIENTED_EDGE('',*,*,#32,.F.);
#74=EDGE_LOOP('',(#60,#67,#72,#73));
#75=FACE_OUTER_BOUND('',#74,.T.);
#76=CARTESIAN_POINT('',(-106.24472,112.54508,225.));
#77=DIRECTION('',(0.89101,0.45399,0.));
#78=DIRECTION('',(-0.45399,0.89101,0.));
#79=AXIS2_PLACEMENT_3D('',#76,#77,#78);
#80=PLANE('',#79);
#81=ADVANCED_FACE('',(#75),#80,.T.);
#82=CARTESIAN_POINT('',(-108.06107,115.04508,225.));
#83=VERTEX_POINT('',#82);
#84=DIRECTION('',(-0.70711,0.70711,0.));
#85=VECTOR('',#84,1.56434);
#86=LINE('',#54,#85);
#87=EDGE_CURVE('',#55,#83,#86,.T.);
#88=ORIENTED_EDGE('',*,*,#87,.T.);
#89=CARTESIAN_POINT('',(-108.06107,115.04508,505.));
#90=VERTEX_POINT('',#89);
#91=DIRECTION('',(0.,0.,1.));
#92=VECTOR('',#91,280.);
#93=LINE('',#82,#92);
#94=EDGE_CURVE('',#83,#90,#93,.T.);
#95=ORIENTED_EDGE('',*,*,#94,.T.);
#96=DIRECTION('',(-0.70711,0.70711,0.));
#97=VECTOR('',#96,1.56434);
#98=LINE('',#61,#97);
#99=EDGE_CURVE('',#62,#90,#98,.T.);
#100=ORIENTED_EDGE('',*,*,#99,.F.);
#101=ORIENTED_EDGE('',*,*,#66,.F.);
#102=EDGE_LOOP('',(#88,#95,#100,#101));
#103=FACE_OUTER_BOUND('',#102,.T.);
#104=CARTESIAN_POINT('',(-106.95492,113.93893,225.));
#105=DIRECTION('',(0.70711,0.70711,0.));
#106=DIRECTION('',(-0.70711,0.70711,0.));
#107=AXIS2_PLACEMENT_3D('',#104,#105,#106);
#108=PLANE('',#107);
#109=ADVANCED_FACE('',(#103),#108,.T.);
#110=CARTESIAN_POINT('',(-109.45492,115.75528,225.));
#111=VERTEX_POINT('',#110);
#112=DIRECTION('',(-0.89101,0.45399,0.));
#113=VECTOR('',#112,1.56434);
#114=LINE('',#82,#113);
#115=EDGE_CURVE('',#83,#111,#114,.T.);
#116=ORIENTED_EDGE('',*,*,#115,.T.);
#117=CARTESIAN_POINT('',(-109.45492,115.75528,505.));
#118=VERTEX_POINT('',#117);
#119=DIRECTION('',(0.,0.,1.));
#120=VECTOR('',#119,280.);
#121=LINE('',#110,#120);
#122=EDGE_CURVE('',#111,#118,#121,.T.);
#123=ORIENTED_EDGE('',*,*,#122,.T.);
#124=DIRECTION('',(-0.89101,0.45399,0.));
#125=VECTOR('',#124,1.56434);
#126=LINE('',#89,#125);
#127=EDGE_CURVE('',#90,#118,#126,.T.);
#128=ORIENTED_EDGE('',*,*,#127,.F.);
#129=ORIENTED_EDGE('',*,*,#94,.F.);
#130=EDGE_LOOP('',(#116,#123,#128,#129));
#131=FACE_OUTER_BOUND('',#130,.T.);
#132=CARTESIAN_POINT('',(-108.06107,115.04508,225.));
#133=DIRECTION('',(0.45399,0.89101,0.));
#134=DIRECTION('',(-0.89101,0.45399,0.));
#135=AXIS2_PLACEMENT_3D('',#132,#133,#134);
#136=PLANE('',#135);
#137=ADVANCED_FACE('',(#131),#136,.T.);
#138=CARTESIAN_POINT('',(-111.,116.,225.));
#139=VERTEX_POINT('',#138);
#140=DIRECTION('',(-0.98769,0.15643,0.));
#141=VECTOR('',#140,1.56434);
#142=LINE('',#110,#141);
#143=EDGE_CURVE('',#111,#139,#142,.T.);
#144=ORIENTED_EDGE('',*,*,#143,.T.);
#145=CARTESIAN_POINT('',(-111.,116.,505.));
#146=VERTEX_POINT('',#145);
#147=DIRECTION('',(0.,0.,1.));
#148=VECTOR('',#147,280.);
#149=LINE('',#138,#148);
#150=EDGE_CURVE('',#139,#146,#149,.T.);
#151=ORIENTED_EDGE('',*,*,#150,.T.);
#152=DIRECTION('',(-0.98769,0.15643,0.));
#153=VECTOR('',#152,1.56434);
#154=LINE('',#117,#153);
#155=EDGE_CURVE('',#118,#146,#154,.T.);
#156=ORIENTED_EDGE('',*,*,#155,.F.);
#157=ORIENTED_EDGE('',*,*,#122,.F.);
#158=EDGE_LOOP('',(#144,#151,#156,#157));
#159=FACE_OUTER_BOUND('',#158,.T.);
#160=CARTESIAN_POINT('',(-109.45492,115.75528,225.));
#161=DIRECTION('',(0.15643,0.98769,0.));
#162=DIRECTION('',(-0.98769,0.15643,0.));
#163=AXIS2_PLACEMENT_3D('',#160,#161,#162);
#164=PLANE('',#163);
#165=ADVANCED_FACE('',(#159),#164,.T.);
#166=CARTESIAN_POINT('',(-112.54508,115.75528,225.));
#167=VERTEX_POINT('',#166);
#168=DIRECTION('',(-0.98769,-0.15643,0.));
#169=VECTOR('',#168,1.56434);
#170=LINE('',#138,#169);
#171=EDGE_CURVE('',#139,#167,#170,.T.);
#172=ORIENTED_EDGE('',*,*,#171,.T.);
#173=CARTESIAN_POINT('',(-112.54508,115.75528,505.));
#174=VERTEX_POINT('',#173);
#175=DIRECTION('',(0.,0.,1.));
#176=VECTOR('',#175,280.);
#177=LINE('',#166,#176);
#178=EDGE_CURVE('',#167,#174,#177,.T.);
#179=ORIENTED_EDGE('',*,*,#178,.T.);
#180=DIRECTION('',(-0.98769,-0.15643,0.));
#181=VECTOR('',#180,1.56434);
#182=LINE('',#145,#181);
#183=EDGE_CURVE('',#146,#174,#182,.T.);
#184=ORIENTED_EDGE('',*,*,#183,.F.);
#185=ORIENTED_EDGE('',*,*,#150,.F.);
#186=EDGE_LOOP('',(#172,#179,#184,#185));
#187=FACE_OUTER_BOUND('',#186,.T.);
#188=CARTESIAN_POINT('',(-111.,116.,225.));
#189=DIRECTION('',(-0.15643,0.98769,0.));
#190=DIRECTION('',(-0.98769,-0.15643,0.));
#191=AXIS2_PLACEMENT_3D('',#188,#189,#190);
#192=PLANE('',#191);
#193=ADVANCED_FACE('',(#187),#192,.T.);
#194=CARTESIAN_POINT('',(-113.93893,115.04508,225.));
#195=VERTEX_POINT('',#194);
#196=DIRECTION('',(-0.89101,-0.45399,0.));
#197=VECTOR('',#196,1.56434);
#198=LINE('',#166,#197);
#199=EDGE_CURVE('',#167,#195,#198,.T.);
#200=ORIENTED_EDGE('',*,*,#199,.T.);
#201=CARTESIAN_POINT('',(-113.93893,115.04508,505.));
#202=VERTEX_POINT('',#201);
#203=DIRECTION('',(0.,0.,1.));
#204=VECTOR('',#203,280.);
#205=LINE('',#194,#204);
#206=EDGE_CURVE('',#195,#202,#205,.T.);
#207=ORIENTED_EDGE('',*,*,#206,.T.);
#208=DIRECTION('',(-0.89101,-0.45399,0.));
#209=VECTOR('',#208,1.56434);
#210=LINE('',#173,#209);
#211=EDGE_CURVE('',#174,#202,#210,.T.);
#212=ORIENTED_EDGE('',*,*,#211,.F.);
#213=ORIENTED_EDGE('',*,*,#178,.F.);
#214=EDGE_LOOP('',(#200,#207,#212,#213));
#215=FACE_OUTER_BOUND('',#214,.T.);
#216=CARTESIAN_POINT('',(-112.54508,115.75528,225.));
#217=DIRECTION('',(-0.45399,0.89101,0.));
#218=DIRECTION('',(-0.89101,-0.45399,0.));
#219=AXIS2_PLACEMENT_3D('',#216,#217,#218);
#220=PLANE('',#219);
#221=ADVANCED_FACE('',(#215),#220,.T.);
#222=CARTESIAN_POINT('',(-115.04508,113.93893,225.));
#223=VERTEX_POINT('',#222);
#224=DIRECTION('',(-0.70711,-0.70711,0.));
#225=VECTOR('',#224,1.56434);
#226=LINE('',#194,#225);
#227=EDGE_CURVE('',#195,#223,#226,.T.);
#228=ORIENTED_EDGE('',*,*,#227,.T.);
#229=CARTESIAN_POINT('',(-115.04508,113.93893,505.));
#230=VERTEX_POINT('',#229);
#231=DIRECTION('',(0.,0.,1.));
#232=VECTOR('',#231,280.);
#233=LINE('',#222,#232);
#234=EDGE_CURVE('',#223,#230,#233,.T.);
#235=ORIENTED_EDGE('',*,*,#234,.T.);
#236=DIRECTION('',(-0.70711,-0.70711,0.));
#237=VECTOR('',#236,1.56434);
#238=LINE('',#201,#237);
#239=EDGE_CURVE('',#202,#230,#238,.T.);
#240=ORIENTED_EDGE('',*,*,#239,.F.);
#241=ORIENTED_EDGE('',*,*,#206,.F.);
#242=EDGE_LOOP('',(#228,#235,#240,#241));
#243=FACE_OUTER_BOUND('',#242,.T.);
#244=CARTESIAN_POINT('',(-113.93893,115.04508,225.));
#245=DIRECTION('',(-0.70711,0.70711,0.));
#246=DIRECTION('',(-0.70711,-0.70711,0.));
#247=AXIS2_PLACEMENT_3D('',#244,#245,#246);
#248=PLANE('',#247);
#249=ADVANCED_FACE('',(#243),#248,.T.);
#250=CARTESIAN_POINT('',(-115.75528,112.54508,225.));
#251=VERTEX_POINT('',#250);
#252=DIRECTION('',(-0.45399,-0.89101,0.));
#253=VECTOR('',#252,1.56434);
#254=LINE('',#222,#253);
#255=EDGE_CURVE('',#223,#251,#254,.T.);
#256=ORIENTED_EDGE('',*,*,#255,.T.);
#257=CARTESIAN_POINT('',(-115.75528,112.54508,505.));
#258=VERTEX_POINT('',#257);
#259=DIRECTION('',(0.,0.,1.));
#260=VECTOR('',#259,280.);
#261=LINE('',#250,#260);
#262=EDGE_CURVE('',#251,#258,#261,.T.);
#263=ORIENTED_EDGE('',*,*,#262,.T.);
#264=DIRECTION('',(-0.45399,-0.89101,0.));
#265=VECTOR('',#264,1.56434);
#266=LINE('',#229,#265);
#267=EDGE_CURVE('',#230,#258,#266,.T.);
#268=ORIENTED_EDGE('',*,*,#267,.F.);
#269=ORIENTED_EDGE('',*,*,#234,.F.);
#270=EDGE_LOOP('',(#256,#263,#268,#269));
#271=FACE_OUTER_BOUND('',#270,.T.);
#272=CARTESIAN_POINT('',(-115.04508,113.93893,225.));
#273=DIRECTION('',(-0.89101,0.45399,0.));
#274=DIRECTION('',(-0.45399,-0.89101,0.));
#275=AXIS2_PLACEMENT_3D('',#272,#273,#274);
#276=PLANE('',#275);
#277=ADVANCED_FACE('',(#271),#276,.T.);
#278=CARTESIAN_POINT('',(-116.,111.,225.));
#279=VERTEX_POINT('',#278);
#280=DIRECTION('',(-0.15643,-0.98769,0.));
#281=VECTOR('',#280,1.56434);
#282=LINE('',#250,#281);
#283=EDGE_CURVE('',#251,#279,#282,.T.);
#284=ORIENTED_EDGE('',*,*,#283,.T.);
#285=CARTESIAN_POINT('',(-116.,111.,505.));
#286=VERTEX_POINT('',#285);
#287=DIRECTION('',(0.,0.,1.));
#288=VECTOR('',#287,280.);
#289=LINE('',#278,#288);
#290=EDGE_CURVE('',#279,#286,#289,.T.);
#291=ORIENTED_EDGE('',*,*,#290,.T.);
#292=DIRECTION('',(-0.15643,-0.98769,0.));
#293=VECTOR('',#292,1.56434);
#294=LINE('',#257,#293);
#295=EDGE_CURVE('',#258,#286,#294,.T.);
#296=ORIENTED_EDGE('',*,*,#295,.F.);
#297=ORIENTED_EDGE('',*,*,#262,.F.);
#298=EDGE_LOOP('',(#284,#291,#296,#297));
#299=FACE_OUTER_BOUND('',#298,.T.);
#300=CARTESIAN_POINT('',(-115.75528,112.54508,225.));
#301=DIRECTION('',(-0.98769,0.15643,0.));
#302=DIRECTION('',(-0.15643,-0.98769,0.));
#303=AXIS2_PLACEMENT_3D('',#300,#301,#302);
#304=PLANE('',#303);
#305=ADVANCED_FACE('',(#299),#304,.T.);
#306=CARTESIAN_POINT('',(-115.75528,109.45492,225.));
#307=VERTEX_POINT('',#306);
#308=DIRECTION('',(0.15643,-0.98769,0.));
#309=VECTOR('',#308,1.56434);
#310=LINE('',#278,#309);
#311=EDGE_CURVE('',#279,#307,#310,.T.);
#312=ORIENTED_EDGE('',*,*,#311,.T.);
#313=CARTESIAN_POINT('',(-115.75528,109.45492,505.));
#314=VERTEX_POINT('',#313);
#315=DIRECTION('',(0.,0.,1.));
#316=VECTOR('',#315,280.);
#317=LINE('',#306,#316);
#318=EDGE_CURVE('',#307,#314,#317,.T.);
#319=ORIENTED_EDGE('',*,*,#318,.T.);
#320=DIRECTION('',(0.15643,-0.98769,0.));
#321=VECTOR('',#320,1.56434);
#322=LINE('',#285,#321);
#323=EDGE_CURVE('',#286,#314,#322,.T.);
#324=ORIENTED_EDGE('',*,*,#323,.F.);
#325=ORIENTED_EDGE('',*,*,#290,.F.);
#326=EDGE_LOOP('',(#312,#319,#324,#325));
#327=FACE_OUTER_BOUND('',#326,.T.);
#328=CARTESIAN_POINT('',(-116.,111.,225.));
#329=DIRECTION('',(-0.98769,-0.15643,0.));
#330=DIRECTION('',(0.15643,-0.98769,0.));
#331=AXIS2_PLACEMENT_3D('',#328,#329,#330);
#332=PLANE('',#331);
#333=ADVANCED_FACE('',(#327),#332,.T.);
#334=CARTESIAN_POINT('',(-115.04508,108.06107,225.));
#335=VERTEX_POINT('',#334);
#336=DIRECTION('',(0.45399,-0.89101,0.));
#337=VECTOR('',#336,1.56434);
#338=LINE('',#306,#337);
#339=EDGE_CURVE('',#307,#335,#338,.T.);
#340=ORIENTED_EDGE('',*,*,#339,.T.);
#341=CARTESIAN_POINT('',(-115.04508,108.06107,505.));
#342=VERTEX_POINT('',#341);
#343=DIRECTION('',(0.,0.,1.));
#344=VECTOR('',#343,280.);
#345=LINE('',#334,#344);
#346=EDGE_CURVE('',#335,#342,#345,.T.);
#347=ORIENTED_EDGE('',*,*,#346,.T.);
#348=DIRECTION('',(0.45399,-0.89101,0.));
#349=VECTOR('',#348,1.56434);
#350=LINE('',#313,#349);
#351=EDGE_CURVE('',#314,#342,#350,.T.);
#352=ORIENTED_EDGE('',*,*,#351,.F.);
#353=ORIENTED_EDGE('',*,*,#318,.F.);
#354=EDGE_LOOP('',(#340,#347,#352,#353));
#355=FACE_OUTER_BOUND('',#354,.T.);
#356=CARTESIAN_POINT('',(-115.75528,109.45492,225.));
#357=DIRECTION('',(-0.89101,-0.45399,0.));
#358=DIRECTION('',(0.45399,-0.89101,0.));
#359=AXIS2_PLACEMENT_3D('',#356,#357,#358);
#360=PLANE('',#359);
#361=ADVANCED_FACE('',(#355),#360,.T.);
#362=CARTESIAN_POINT('',(-113.93893,106.95492,225.));
#363=VERTEX_POINT('',#362);
#364=DIRECTION('',(0.70711,-0.70711,0.));
#365=VECTOR('',#364,1.56434);
#366=LINE('',#334,#365);
#367=EDGE_CURVE('',#335,#363,#366,.T.);
#368=ORIENTED_EDGE('',*,*,#367,.T.);
#369=CARTESIAN_POINT('',(-113.93893,106.95492,505.));
#370=VERTEX_POINT('',#369);
#371=DIRECTION('',(0.,0.,1.));
#372=VECTOR('',#371,280.);
#373=LINE('',#362,#372);
#374=EDGE_CURVE('',#363,#370,#373,.T.);
#375=ORIENTED_EDGE('',*,*,#374,.T.);
#376=DIRECTION('',(0.70711,-0.70711,0.));
#377=VECTOR('',#376,1.56434);
#378=LINE('',#341,#377);
#379=EDGE_CURVE('',#342,#370,#378,.T.);
#380=ORIENTED_EDGE('',*,*,#379,.F.);
#381=ORIENTED_EDGE('',*,*,#346,.F.);
#382=EDGE_LOOP('',(#368,#375,#380,#381));
#383=FACE_OUTER_BOUND('',#382,.T.);
#384=CARTESIAN_POINT('',(-115.04508,108.06107,225.));
#385=DIRECTION('',(-0.70711,-0.70711,0.));
#386=DIRECTION('',(0.70711,-0.70711,0.));
#387=AXIS2_PLACEMENT_3D('',#384,#385,#386);
#388=PLANE('',#387);
#389=ADVANCED_FACE('',(#383),#388,.T.);
#390=CARTESIAN_POINT('',(-112.54508,106.24472,225.));
#391=VERTEX_POINT('',#390);
#392=DIRECTION('',(0.89101,-0.45399,0.));
#393=VECTOR('',#392,1.56434);
#394=LINE('',#362,#393);
#395=EDGE_CURVE('',#363,#391,#394,.T.);
#396=ORIENTED_EDGE('',*,*,#395,.T.);
#397=CARTESIAN_POINT('',(-112.54508,106.24472,505.));
#398=VERTEX_POINT('',#397);
#399=DIRECTION('',(0.,0.,1.));
#400=VECTOR('',#399,280.);
#401=LINE('',#390,#400);
#402=EDGE_CURVE('',#391,#398,#401,.T.);
#403=ORIENTED_EDGE('',*,*,#402,.T.);
#404=DIRECTION('',(0.89101,-0.45399,0.));
#405=VECTOR('',#404,1.56434);
#406=LINE('',#369,#405);
#407=EDGE_CURVE('',#370,#398,#406,.T.);
#408=ORIENTED_EDGE('',*,*,#407,.F.);
#409=ORIENTED_EDGE('',*,*,#374,.F.);
#410=EDGE_LOOP('',(#396,#403,#408,#409));
#411=FACE_OUTER_BOUND('',#410,.T.);
#412=CARTESIAN_POINT('',(-113.93893,106.95492,225.));
#413=DIRECTION('',(-0.45399,-0.89101,0.));
#414=DIRECTION('',(0.89101,-0.45399,0.));
#415=AXIS2_PLACEMENT_3D('',#412,#413,#414);
#416=PLANE('',#415);
#417=ADVANCED_FACE('',(#411),#416,.T.);
#418=CARTESIAN_POINT('',(-111.,106.,225.));
#419=VERTEX_POINT('',#418);
#420=DIRECTION('',(0.98769,-0.15643,0.));
#421=VECTOR('',#420,1.56434);
#422=LINE('',#390,#421);
#423=EDGE_CURVE('',#391,#419,#422,.T.);
#424=ORIENTED_EDGE('',*,*,#423,.T.);
#425=CARTESIAN_POINT('',(-111.,106.,505.));
#426=VERTEX_POINT('',#425);
#427=DIRECTION('',(0.,0.,1.));
#428=VECTOR('',#427,280.);
#429=LINE('',#418,#428);
#430=EDGE_CURVE('',#419,#426,#429,.T.);
#431=ORIENTED_EDGE('',*,*,#430,.T.);
#432=DIRECTION('',(0.98769,-0.15643,0.));
#433=VECTOR('',#432,1.56434);
#434=LINE('',#397,#433);
#435=EDGE_CURVE('',#398,#426,#434,.T.);
#436=ORIENTED_EDGE('',*,*,#435,.F.);
#437=ORIENTED_EDGE('',*,*,#402,.F.);
#438=EDGE_LOOP('',(#424,#431,#436,#437));
#439=FACE_OUTER_BOUND('',#438,.T.);
#440=CARTESIAN_POINT('',(-112.54508,106.24472,225.));
#441=DIRECTION('',(-0.15643,-0.98769,0.));
#442=DIRECTION('',(0.98769,-0.15643,0.));
#443=AXIS2_PLACEMENT_3D('',#440,#441,#442);
#444=PLANE('',#443);
#445=ADVANCED_FACE('',(#439),#444,.T.);
#446=CARTESIAN_POINT('',(-109.45492,106.24472,225.));
#447=VERTEX_POINT('',#446);
#448=DIRECTION('',(0.98769,0.15643,0.));
#449=VECTOR('',#448,1.56434);
#450=LINE('',#418,#449);
#451=EDGE_CURVE('',#419,#447,#450,.T.);
#452=ORIENTED_EDGE('',*,*,#451,.T.);
#453=CARTESIAN_POINT('',(-109.45492,106.24472,505.));
#454=VERTEX_POINT('',#453);
#455=DIRECTION('',(0.,0.,1.));
#456=VECTOR('',#455,280.);
#457=LINE('',#446,#456);
#458=EDGE_CURVE('',#447,#454,#457,.T.);
#459=ORIENTED_EDGE('',*,*,#458,.T.);
#460=DIRECTION('',(0.98769,0.15643,0.));
#461=VECTOR('',#460,1.56434);
#462=LINE('',#425,#461);
#463=EDGE_CURVE('',#426,#454,#462,.T.);
#464=ORIENTED_EDGE('',*,*,#463,.F.);
#465=ORIENTED_EDGE('',*,*,#430,.F.);
#466=EDGE_LOOP('',(#452,#459,#464,#465));
#467=FACE_OUTER_BOUND('',#466,.T.);
#468=CARTESIAN_POINT('',(-111.,106.,225.));
#469=DIRECTION('',(0.15643,-0.98769,0.));
#470=DIRECTION('',(0.98769,0.15643,0.));
#471=AXIS2_PLACEMENT_3D('',#468,#469,#470);
#472=PLANE('',#471);
#473=ADVANCED_FACE('',(#467),#472,.T.);
#474=CARTESIAN_POINT('',(-108.06107,106.95492,225.));
#475=VERTEX_POINT('',#474);
#476=DIRECTION('',(0.89101,0.45399,0.));
#477=VECTOR('',#476,1.56434);
#478=LINE('',#446,#477);
#479=EDGE_CURVE('',#447,#475,#478,.T.);
#480=ORIENTED_EDGE('',*,*,#479,.T.);
#481=CARTESIAN_POINT('',(-108.06107,106.95492,505.));
#482=VERTEX_POINT('',#481);
#483=DIRECTION('',(0.,0.,1.));
#484=VECTOR('',#483,280.);
#485=LINE('',#474,#484);
#486=EDGE_CURVE('',#475,#482,#485,.T.);
#487=ORIENTED_EDGE('',*,*,#486,.T.);
#488=DIRECTION('',(0.89101,0.45399,0.));
#489=VECTOR('',#488,1.56434);
#490=LINE('',#453,#489);
#491=EDGE_CURVE('',#454,#482,#490,.T.);
#492=ORIENTED_EDGE('',*,*,#491,.F.);
#493=ORIENTED_EDGE('',*,*,#458,.F.);
#494=EDGE_LOOP('',(#480,#487,#492,#493));
#495=FACE_OUTER_BOUND('',#494,.T.);
#496=CARTESIAN_POINT('',(-109.45492,106.24472,225.));
#497=DIRECTION('',(0.45399,-0.89101,0.));
#498=DIRECTION('',(0.89101,0.45399,0.));
#499=AXIS2_PLACEMENT_3D('',#496,#497,#498);
#500=PLANE('',#499);
#501=ADVANCED_FACE('',(#495),#500,.T.);
#502=CARTESIAN_POINT('',(-106.95492,108.06107,225.));
#503=VERTEX_POINT('',#502);
#504=DIRECTION('',(0.70711,0.70711,0.));
#505=VECTOR('',#504,1.56434);
#506=LINE('',#474,#505);
#507=EDGE_CURVE('',#475,#503,#506,.T.);
#508=ORIENTED_EDGE('',*,*,#507,.T.);
#509=CARTESIAN_POINT('',(-106.95492,108.06107,505.));
#510=VERTEX_POINT('',#509);
#511=DIRECTION('',(0.,0.,1.));
#512=VECTOR('',#511,280.);
#513=LINE('',#502,#512);
#514=EDGE_CURVE('',#503,#510,#513,.T.);
#515=ORIENTED_EDGE('',*,*,#514,.T.);
#516=DIRECTION('',(0.70711,0.70711,0.));
#517=VECTOR('',#516,1.56434);
#518=LINE('',#481,#517);
#519=EDGE_CURVE('',#482,#510,#518,.T.);
#520=ORIENTED_EDGE('',*,*,#519,.F.);
#521=ORIENTED_EDGE('',*,*,#486,.F.);
#522=EDGE_LOOP('',(#508,#515,#520,#521));
#523=FACE_OUTER_BOUND('',#522,.T.);
#524=CARTESIAN_POINT('',(-108.06107,106.95492,225.));
#525=DIRECTION('',(0.70711,-0.70711,0.));
#526=DIRECTION('',(0.70711,0.70711,0.));
#527=AXIS2_PLACEMENT_3D('',#524,#525,#526);
#528=PLANE('',#527);
#529=ADVANCED_FACE('',(#523),#528,.T.);
#530=CARTESIAN_POINT('',(-106.24472,109.45492,225.));
#531=VERTEX_POINT('',#530);
#532=DIRECTION('',(0.45399,0.89101,0.));
#533=VECTOR('',#532,1.56434);
#534=LINE('',#502,#533);
#535=EDGE_CURVE('',#503,#531,#534,.T.);
#536=ORIENTED_EDGE('',*,*,#535,.T.);
#537=CARTESIAN_POINT('',(-106.24472,109.45492,505.));
#538=VERTEX_POINT('',#537);
#539=DIRECTION('',(0.,0.,1.));
#540=VECTOR('',#539,280.);
#541=LINE('',#530,#540);
#542=EDGE_CURVE('',#531,#538,#541,.T.);
#543=ORIENTED_EDGE('',*,*,#542,.T.);
#544=DIRECTION('',(0.45399,0.89101,0.));
#545=VECTOR('',#544,1.56434);
#546=LINE('',#509,#545);
#547=EDGE_CURVE('',#510,#538,#546,.T.);
#548=ORIENTED_EDGE('',*,*,#547,.F.);
#549=ORIENTED_EDGE('',*,*,#514,.F.);
#550=EDGE_LOOP('',(#536,#543,#548,#549));
#551=FACE_OUTER_BOUND('',#550,.T.);
#552=CARTESIAN_POINT('',(-106.95492,108.06107,225.));
#553=DIRECTION('',(0.89101,-0.45399,0.));
#554=DIRECTION('',(0.45399,0.89101,0.));
#555=AXIS2_PLACEMENT_3D('',#552,#553,#554);
#556=PLANE('',#555);
#557=ADVANCED_FACE('',(#551),#556,.T.);
#558=DIRECTION('',(-0.15643,-0.98769,0.));
#559=VECTOR('',#558,1.56434);
#560=LINE('',#18,#559);
#561=EDGE_CURVE('',#19,#531,#560,.T.);
#562=ORIENTED_EDGE('',*,*,#561,.F.);
#563=ORIENTED_EDGE('',*,*,#44,.T.);
#564=DIRECTION('',(-0.15643,-0.98769,0.));
#565=VECTOR('',#564,1.56434);
#566=LINE('',#34,#565);
#567=EDGE_CURVE('',#35,#538,#566,.T.);
#568=ORIENTED_EDGE('',*,*,#567,.T.);
#569=ORIENTED_EDGE('',*,*,#542,.F.);
#570=EDGE_LOOP('',(#562,#563,#568,#569));
#571=FACE_OUTER_BOUND('',#570,.T.);
#572=CARTESIAN_POINT('',(-106.24472,109.45492,225.));
#573=DIRECTION('',(0.98769,-0.15643,0.));
#574=DIRECTION('',(0.15643,0.98769,0.));
#575=AXIS2_PLACEMENT_3D('',#572,#573,#574);
#576=PLANE('',#575);
#577=ADVANCED_FACE('',(#571),#576,.T.);
#578=ORIENTED_EDGE('',*,*,#535,.F.);
#579=ORIENTED_EDGE('',*,*,#507,.F.);
#580=ORIENTED_EDGE('',*,*,#479,.F.);
#581=ORIENTED_EDGE('',*,*,#451,.F.);
#582=ORIENTED_EDGE('',*,*,#423,.F.);
#583=ORIENTED_EDGE('',*,*,#395,.F.);
#584=ORIENTED_EDGE('',*,*,#367,.F.);
#585=ORIENTED_EDGE('',*,*,#339,.F.);
#586=ORIENTED_EDGE('',*,*,#311,.F.);
#587=ORIENTED_EDGE('',*,*,#283,.F.);
#588=ORIENTED_EDGE('',*,*,#255,.F.);
#589=ORIENTED_EDGE('',*,*,#227,.F.);
#590=ORIENTED_EDGE('',*,*,#199,.F.);
#591=ORIENTED_EDGE('',*,*,#171,.F.);
#592=ORIENTED_EDGE('',*,*,#143,.F.);
#593=ORIENTED_EDGE('',*,*,#115,.F.);
#594=ORIENTED_EDGE('',*,*,#87,.F.);
#595=ORIENTED_EDGE('',*,*,#59,.F.);
#596=ORIENTED_EDGE('',*,*,#25,.F.);
#597=ORIENTED_EDGE('',*,*,#561,.T.);
#598=EDGE_LOOP('',(#578,#579,#580,#581,#582,#583,#584,#585,#586,#587,#588,#589,#590,#591,#592,#593,#594,#595,#596,#597));
#599=FACE_OUTER_BOUND('',#598,.T.);
#600=CARTESIAN_POINT('',(-106.24472,109.45492,225.));
#601=DIRECTION('',(0.,0.,-1.));
#602=DIRECTION('',(-0.45399,-0.89101,0.));
#603=AXIS2_PLACEMENT_3D('',#600,#601,#602);
#604=PLANE('',#603);
#605=ADVANCED_FACE('',(#599),#604,.T.);
#606=ORIENTED_EDGE('',*,*,#39,.T.);
#607=ORIENTED_EDGE('',*,*,#71,.T.);
#608=ORIENTED_EDGE('',*,*,#99,.T.);
#609=ORIENTED_EDGE('',*,*,#127,.T.);
#610=ORIENTED_EDGE('',*,*,#155,.T.);
#611=ORIENTED_EDGE('',*,*,#183,.T.);
#612=ORIENTED_EDGE('',*,*,#211,.T.);
#613=ORIENTED_EDGE('',*,*,#239,.T.);
#614=ORIENTED_EDGE('',*,*,#267,.T.);
#615=ORIENTED_EDGE('',*,*,#295,.T.);
#616=ORIENTED_EDGE('',*,*,#323,.T.);
#617=ORIENTED_EDGE('',*,*,#351,.T.);
#618=ORIENTED_EDGE('',*,*,#379,.T.);
#619=ORIENTED_EDGE('',*,*,#407,.T.);
#620=ORIENTED_EDGE('',*,*,#435,.T.);
#621=ORIENTED_EDGE('',*,*,#463,.T.);
#622=ORIENTED_EDGE('',*,*,#491,.T.);
#623=ORIENTED_EDGE('',*,*,#519,.T.);
#624=ORIENTED_EDGE('',*,*,#547,.T.);
#625=ORIENTED_EDGE('',*,*,#567,.F.);
#626=EDGE_LOOP('',(#606,#607,#608,#609,#610,#611,#612,#613,#614,#615,#616,#617,#618,#619,#620,#621,#622,#623,#624,#625));
#627=FACE_OUTER_BOUND('',#626,.T.);
#628=CARTESIAN_POINT('',(-106.,111.,505.));
#629=DIRECTION('',(0.,0.,1.));
#630=DIRECTION('',(-0.15643,0.98769,0.));
#631=AXIS2_PLACEMENT_3D('',#628,#629,#630);
#632=PLANE('',#631);
#633=ADVANCED_FACE('',(#627),#632,.T.);
#634=CLOSED_SHELL('',(#53,#81,#109,#137,#165,#193,#221,#249,#277,#305,#333,#361,#389,#417,#445,#473,#501,#529,#557,#577,#605,#633));
#635=MANIFOLD_SOLID_BREP('',#634);
#636=COLOUR_RGB('',0.58,0.59,0.6);
#637=FILL_AREA_STYLE_COLOUR('',#636);
#638=FILL_AREA_STYLE('',(#637));
#639=SURFACE_STYLE_FILL_AREA(#638);
#640=SURFACE_SIDE_STYLE('',(#639));
#641=SURFACE_STYLE_USAGE(.BOTH.,#640);
#642=PRESENTATION_STYLE_ASSIGNMENT((#641));
#643=STYLED_ITEM('color',(#642),#635);
#644=CARTESIAN_POINT('',(-102.,111.,505.));
#645=VERTEX_POINT('',#644);
#646=CARTESIAN_POINT('',(-102.44049,113.78115,505.));
#647=VERTEX_POINT('',#646);
#648=DIRECTION('',(-0.15643,0.98769,0.));
#649=VECTOR('',#648,2.81582);
#650=LINE('',#644,#649);
#651=EDGE_CURVE('',#645,#647,#650,.T.);
#652=ORIENTED_EDGE('',*,*,#651,.T.);
#653=CARTESIAN_POINT('',(-102.44049,113.78115,513.));
#654=VERTEX_POINT('',#653);
#655=DIRECTION('',(0.,0.,1.));
#656=VECTOR('',#655,8.);
#657=LINE('',#646,#656);
#658=EDGE_CURVE('',#647,#654,#657,.T.);
#659=ORIENTED_EDGE('',*,*,#658,.T.);
#660=CARTESIAN_POINT('',(-102.,111.,513.));
#661=VERTEX_POINT('',#660);
#662=DIRECTION('',(-0.15643,0.98769,0.));
#663=VECTOR('',#662,2.81582);
#664=LINE('',#660,#663);
#665=EDGE_CURVE('',#661,#654,#664,.T.);
#666=ORIENTED_EDGE('',*,*,#665,.F.);
#667=DIRECTION('',(0.,0.,1.));
#668=VECTOR('',#667,8.);
#669=LINE('',#644,#668);
#670=EDGE_CURVE('',#645,#661,#669,.T.);
#671=ORIENTED_EDGE('',*,*,#670,.F.);
#672=EDGE_LOOP('',(#652,#659,#666,#671));
#673=FACE_OUTER_BOUND('',#672,.T.);
#674=CARTESIAN_POINT('',(-102.,111.,505.));
#675=DIRECTION('',(0.98769,0.15643,0.));
#676=DIRECTION('',(-0.15643,0.98769,0.));
#677=AXIS2_PLACEMENT_3D('',#674,#675,#676);
#678=PLANE('',#677);
#679=ADVANCED_FACE('',(#673),#678,.T.);
#680=CARTESIAN_POINT('',(-103.71885,116.29007,505.));
#681=VERTEX_POINT('',#680);
#682=DIRECTION('',(-0.45399,0.89101,0.));
#683=VECTOR('',#682,2.81582);
#684=LINE('',#646,#683);
#685=EDGE_CURVE('',#647,#681,#684,.T.);
#686=ORIENTED_EDGE('',*,*,#685,.T.);
#687=CARTESIAN_POINT('',(-103.71885,116.29007,513.));
#688=VERTEX_POINT('',#687);
#689=DIRECTION('',(0.,0.,1.));
#690=VECTOR('',#689,8.);
#691=LINE('',#680,#690);
#692=EDGE_CURVE('',#681,#688,#691,.T.);
#693=ORIENTED_EDGE('',*,*,#692,.T.);
#694=DIRECTION('',(-0.45399,0.89101,0.));
#695=VECTOR('',#694,2.81582);
#696=LINE('',#653,#695);
#697=EDGE_CURVE('',#654,#688,#696,.T.);
#698=ORIENTED_EDGE('',*,*,#697,.F.);
#699=ORIENTED_EDGE('',*,*,#658,.F.);
#700=EDGE_LOOP('',(#686,#693,#698,#699));
#701=FACE_OUTER_BOUND('',#700,.T.);
#702=CARTESIAN_POINT('',(-102.44049,113.78115,505.));
#703=DIRECTION('',(0.89101,0.45399,0.));
#704=DIRECTION('',(-0.45399,0.89101,0.));
#705=AXIS2_PLACEMENT_3D('',#702,#703,#704);
#706=PLANE('',#705);
#707=ADVANCED_FACE('',(#701),#706,.T.);
#708=CARTESIAN_POINT('',(-105.70993,118.28115,505.));
#709=VERTEX_POINT('',#708);
#710=DIRECTION('',(-0.70711,0.70711,0.));
#711=VECTOR('',#710,2.81582);
#712=LINE('',#680,#711);
#713=EDGE_CURVE('',#681,#709,#712,.T.);
#714=ORIENTED_EDGE('',*,*,#713,.T.);
#715=CARTESIAN_POINT('',(-105.70993,118.28115,513.));
#716=VERTEX_POINT('',#715);
#717=DIRECTION('',(0.,0.,1.));
#718=VECTOR('',#717,8.);
#719=LINE('',#708,#718);
#720=EDGE_CURVE('',#709,#716,#719,.T.);
#721=ORIENTED_EDGE('',*,*,#720,.T.);
#722=DIRECTION('',(-0.70711,0.70711,0.));
#723=VECTOR('',#722,2.81582);
#724=LINE('',#687,#723);
#725=EDGE_CURVE('',#688,#716,#724,.T.);
#726=ORIENTED_EDGE('',*,*,#725,.F.);
#727=ORIENTED_EDGE('',*,*,#692,.F.);
#728=EDGE_LOOP('',(#714,#721,#726,#727));
#729=FACE_OUTER_BOUND('',#728,.T.);
#730=CARTESIAN_POINT('',(-103.71885,116.29007,505.));
#731=DIRECTION('',(0.70711,0.70711,0.));
#732=DIRECTION('',(-0.70711,0.70711,0.));
#733=AXIS2_PLACEMENT_3D('',#730,#731,#732);
#734=PLANE('',#733);
#735=ADVANCED_FACE('',(#729),#734,.T.);
#736=CARTESIAN_POINT('',(-108.21885,119.55951,505.));
#737=VERTEX_POINT('',#736);
#738=DIRECTION('',(-0.89101,0.45399,0.));
#739=VECTOR('',#738,2.81582);
#740=LINE('',#708,#739);
#741=EDGE_CURVE('',#709,#737,#740,.T.);
#742=ORIENTED_EDGE('',*,*,#741,.T.);
#743=CARTESIAN_POINT('',(-108.21885,119.55951,513.));
#744=VERTEX_POINT('',#743);
#745=DIRECTION('',(0.,0.,1.));
#746=VECTOR('',#745,8.);
#747=LINE('',#736,#746);
#748=EDGE_CURVE('',#737,#744,#747,.T.);
#749=ORIENTED_EDGE('',*,*,#748,.T.);
#750=DIRECTION('',(-0.89101,0.45399,0.));
#751=VECTOR('',#750,2.81582);
#752=LINE('',#715,#751);
#753=EDGE_CURVE('',#716,#744,#752,.T.);
#754=ORIENTED_EDGE('',*,*,#753,.F.);
#755=ORIENTED_EDGE('',*,*,#720,.F.);
#756=EDGE_LOOP('',(#742,#749,#754,#755));
#757=FACE_OUTER_BOUND('',#756,.T.);
#758=CARTESIAN_POINT('',(-105.70993,118.28115,505.));
#759=DIRECTION('',(0.45399,0.89101,0.));
#760=DIRECTION('',(-0.89101,0.45399,0.));
#761=AXIS2_PLACEMENT_3D('',#758,#759,#760);
#762=PLANE('',#761);
#763=ADVANCED_FACE('',(#757),#762,.T.);
#764=CARTESIAN_POINT('',(-111.,120.,505.));
#765=VERTEX_POINT('',#764);
#766=DIRECTION('',(-0.98769,0.15643,0.));
#767=VECTOR('',#766,2.81582);
#768=LINE('',#736,#767);
#769=EDGE_CURVE('',#737,#765,#768,.T.);
#770=ORIENTED_EDGE('',*,*,#769,.T.);
#771=CARTESIAN_POINT('',(-111.,120.,513.));
#772=VERTEX_POINT('',#771);
#773=DIRECTION('',(0.,0.,1.));
#774=VECTOR('',#773,8.);
#775=LINE('',#764,#774);
#776=EDGE_CURVE('',#765,#772,#775,.T.);
#777=ORIENTED_EDGE('',*,*,#776,.T.);
#778=DIRECTION('',(-0.98769,0.15643,0.));
#779=VECTOR('',#778,2.81582);
#780=LINE('',#743,#779);
#781=EDGE_CURVE('',#744,#772,#780,.T.);
#782=ORIENTED_EDGE('',*,*,#781,.F.);
#783=ORIENTED_EDGE('',*,*,#748,.F.);
#784=EDGE_LOOP('',(#770,#777,#782,#783));
#785=FACE_OUTER_BOUND('',#784,.T.);
#786=CARTESIAN_POINT('',(-108.21885,119.55951,505.));
#787=DIRECTION('',(0.15643,0.98769,0.));
#788=DIRECTION('',(-0.98769,0.15643,0.));
#789=AXIS2_PLACEMENT_3D('',#786,#787,#788);
#790=PLANE('',#789);
#791=ADVANCED_FACE('',(#785),#790,.T.);
#792=CARTESIAN_POINT('',(-113.78115,119.55951,505.));
#793=VERTEX_POINT('',#792);
#794=DIRECTION('',(-0.98769,-0.15643,0.));
#795=VECTOR('',#794,2.81582);
#796=LINE('',#764,#795);
#797=EDGE_CURVE('',#765,#793,#796,.T.);
#798=ORIENTED_EDGE('',*,*,#797,.T.);
#799=CARTESIAN_POINT('',(-113.78115,119.55951,513.));
#800=VERTEX_POINT('',#799);
#801=DIRECTION('',(0.,0.,1.));
#802=VECTOR('',#801,8.);
#803=LINE('',#792,#802);
#804=EDGE_CURVE('',#793,#800,#803,.T.);
#805=ORIENTED_EDGE('',*,*,#804,.T.);
#806=DIRECTION('',(-0.98769,-0.15643,0.));
#807=VECTOR('',#806,2.81582);
#808=LINE('',#771,#807);
#809=EDGE_CURVE('',#772,#800,#808,.T.);
#810=ORIENTED_EDGE('',*,*,#809,.F.);
#811=ORIENTED_EDGE('',*,*,#776,.F.);
#812=EDGE_LOOP('',(#798,#805,#810,#811));
#813=FACE_OUTER_BOUND('',#812,.T.);
#814=CARTESIAN_POINT('',(-111.,120.,505.));
#815=DIRECTION('',(-0.15643,0.98769,0.));
#816=DIRECTION('',(-0.98769,-0.15643,0.));
#817=AXIS2_PLACEMENT_3D('',#814,#815,#816);
#818=PLANE('',#817);
#819=ADVANCED_FACE('',(#813),#818,.T.);
#820=CARTESIAN_POINT('',(-116.29007,118.28115,505.));
#821=VERTEX_POINT('',#820);
#822=DIRECTION('',(-0.89101,-0.45399,0.));
#823=VECTOR('',#822,2.81582);
#824=LINE('',#792,#823);
#825=EDGE_CURVE('',#793,#821,#824,.T.);
#826=ORIENTED_EDGE('',*,*,#825,.T.);
#827=CARTESIAN_POINT('',(-116.29007,118.28115,513.));
#828=VERTEX_POINT('',#827);
#829=DIRECTION('',(0.,0.,1.));
#830=VECTOR('',#829,8.);
#831=LINE('',#820,#830);
#832=EDGE_CURVE('',#821,#828,#831,.T.);
#833=ORIENTED_EDGE('',*,*,#832,.T.);
#834=DIRECTION('',(-0.89101,-0.45399,0.));
#835=VECTOR('',#834,2.81582);
#836=LINE('',#799,#835);
#837=EDGE_CURVE('',#800,#828,#836,.T.);
#838=ORIENTED_EDGE('',*,*,#837,.F.);
#839=ORIENTED_EDGE('',*,*,#804,.F.);
#840=EDGE_LOOP('',(#826,#833,#838,#839));
#841=FACE_OUTER_BOUND('',#840,.T.);
#842=CARTESIAN_POINT('',(-113.78115,119.55951,505.));
#843=DIRECTION('',(-0.45399,0.89101,0.));
#844=DIRECTION('',(-0.89101,-0.45399,0.));
#845=AXIS2_PLACEMENT_3D('',#842,#843,#844);
#846=PLANE('',#845);
#847=ADVANCED_FACE('',(#841),#846,.T.);
#848=CARTESIAN_POINT('',(-118.28115,116.29007,505.));
#849=VERTEX_POINT('',#848);
#850=DIRECTION('',(-0.70711,-0.70711,0.));
#851=VECTOR('',#850,2.81582);
#852=LINE('',#820,#851);
#853=EDGE_CURVE('',#821,#849,#852,.T.);
#854=ORIENTED_EDGE('',*,*,#853,.T.);
#855=CARTESIAN_POINT('',(-118.28115,116.29007,513.));
#856=VERTEX_POINT('',#855);
#857=DIRECTION('',(0.,0.,1.));
#858=VECTOR('',#857,8.);
#859=LINE('',#848,#858);
#860=EDGE_CURVE('',#849,#856,#859,.T.);
#861=ORIENTED_EDGE('',*,*,#860,.T.);
#862=DIRECTION('',(-0.70711,-0.70711,0.));
#863=VECTOR('',#862,2.81582);
#864=LINE('',#827,#863);
#865=EDGE_CURVE('',#828,#856,#864,.T.);
#866=ORIENTED_EDGE('',*,*,#865,.F.);
#867=ORIENTED_EDGE('',*,*,#832,.F.);
#868=EDGE_LOOP('',(#854,#861,#866,#867));
#869=FACE_OUTER_BOUND('',#868,.T.);
#870=CARTESIAN_POINT('',(-116.29007,118.28115,505.));
#871=DIRECTION('',(-0.70711,0.70711,0.));
#872=DIRECTION('',(-0.70711,-0.70711,0.));
#873=AXIS2_PLACEMENT_3D('',#870,#871,#872);
#874=PLANE('',#873);
#875=ADVANCED_FACE('',(#869),#874,.T.);
#876=CARTESIAN_POINT('',(-119.55951,113.78115,505.));
#877=VERTEX_POINT('',#876);
#878=DIRECTION('',(-0.45399,-0.89101,0.));
#879=VECTOR('',#878,2.81582);
#880=LINE('',#848,#879);
#881=EDGE_CURVE('',#849,#877,#880,.T.);
#882=ORIENTED_EDGE('',*,*,#881,.T.);
#883=CARTESIAN_POINT('',(-119.55951,113.78115,513.));
#884=VERTEX_POINT('',#883);
#885=DIRECTION('',(0.,0.,1.));
#886=VECTOR('',#885,8.);
#887=LINE('',#876,#886);
#888=EDGE_CURVE('',#877,#884,#887,.T.);
#889=ORIENTED_EDGE('',*,*,#888,.T.);
#890=DIRECTION('',(-0.45399,-0.89101,0.));
#891=VECTOR('',#890,2.81582);
#892=LINE('',#855,#891);
#893=EDGE_CURVE('',#856,#884,#892,.T.);
#894=ORIENTED_EDGE('',*,*,#893,.F.);
#895=ORIENTED_EDGE('',*,*,#860,.F.);
#896=EDGE_LOOP('',(#882,#889,#894,#895));
#897=FACE_OUTER_BOUND('',#896,.T.);
#898=CARTESIAN_POINT('',(-118.28115,116.29007,505.));
#899=DIRECTION('',(-0.89101,0.45399,0.));
#900=DIRECTION('',(-0.45399,-0.89101,0.));
#901=AXIS2_PLACEMENT_3D('',#898,#899,#900);
#902=PLANE('',#901);
#903=ADVANCED_FACE('',(#897),#902,.T.);
#904=CARTESIAN_POINT('',(-120.,111.,505.));
#905=VERTEX_POINT('',#904);
#906=DIRECTION('',(-0.15643,-0.98769,0.));
#907=VECTOR('',#906,2.81582);
#908=LINE('',#876,#907);
#909=EDGE_CURVE('',#877,#905,#908,.T.);
#910=ORIENTED_EDGE('',*,*,#909,.T.);
#911=CARTESIAN_POINT('',(-120.,111.,513.));
#912=VERTEX_POINT('',#911);
#913=DIRECTION('',(0.,0.,1.));
#914=VECTOR('',#913,8.);
#915=LINE('',#904,#914);
#916=EDGE_CURVE('',#905,#912,#915,.T.);
#917=ORIENTED_EDGE('',*,*,#916,.T.);
#918=DIRECTION('',(-0.15643,-0.98769,0.));
#919=VECTOR('',#918,2.81582);
#920=LINE('',#883,#919);
#921=EDGE_CURVE('',#884,#912,#920,.T.);
#922=ORIENTED_EDGE('',*,*,#921,.F.);
#923=ORIENTED_EDGE('',*,*,#888,.F.);
#924=EDGE_LOOP('',(#910,#917,#922,#923));
#925=FACE_OUTER_BOUND('',#924,.T.);
#926=CARTESIAN_POINT('',(-119.55951,113.78115,505.));
#927=DIRECTION('',(-0.98769,0.15643,0.));
#928=DIRECTION('',(-0.15643,-0.98769,0.));
#929=AXIS2_PLACEMENT_3D('',#926,#927,#928);
#930=PLANE('',#929);
#931=ADVANCED_FACE('',(#925),#930,.T.);
#932=CARTESIAN_POINT('',(-119.55951,108.21885,505.));
#933=VERTEX_POINT('',#932);
#934=DIRECTION('',(0.15643,-0.98769,0.));
#935=VECTOR('',#934,2.81582);
#936=LINE('',#904,#935);
#937=EDGE_CURVE('',#905,#933,#936,.T.);
#938=ORIENTED_EDGE('',*,*,#937,.T.);
#939=CARTESIAN_POINT('',(-119.55951,108.21885,513.));
#940=VERTEX_POINT('',#939);
#941=DIRECTION('',(0.,0.,1.));
#942=VECTOR('',#941,8.);
#943=LINE('',#932,#942);
#944=EDGE_CURVE('',#933,#940,#943,.T.);
#945=ORIENTED_EDGE('',*,*,#944,.T.);
#946=DIRECTION('',(0.15643,-0.98769,0.));
#947=VECTOR('',#946,2.81582);
#948=LINE('',#911,#947);
#949=EDGE_CURVE('',#912,#940,#948,.T.);
#950=ORIENTED_EDGE('',*,*,#949,.F.);
#951=ORIENTED_EDGE('',*,*,#916,.F.);
#952=EDGE_LOOP('',(#938,#945,#950,#951));
#953=FACE_OUTER_BOUND('',#952,.T.);
#954=CARTESIAN_POINT('',(-120.,111.,505.));
#955=DIRECTION('',(-0.98769,-0.15643,0.));
#956=DIRECTION('',(0.15643,-0.98769,0.));
#957=AXIS2_PLACEMENT_3D('',#954,#955,#956);
#958=PLANE('',#957);
#959=ADVANCED_FACE('',(#953),#958,.T.);
#960=CARTESIAN_POINT('',(-118.28115,105.70993,505.));
#961=VERTEX_POINT('',#960);
#962=DIRECTION('',(0.45399,-0.89101,0.));
#963=VECTOR('',#962,2.81582);
#964=LINE('',#932,#963);
#965=EDGE_CURVE('',#933,#961,#964,.T.);
#966=ORIENTED_EDGE('',*,*,#965,.T.);
#967=CARTESIAN_POINT('',(-118.28115,105.70993,513.));
#968=VERTEX_POINT('',#967);
#969=DIRECTION('',(0.,0.,1.));
#970=VECTOR('',#969,8.);
#971=LINE('',#960,#970);
#972=EDGE_CURVE('',#961,#968,#971,.T.);
#973=ORIENTED_EDGE('',*,*,#972,.T.);
#974=DIRECTION('',(0.45399,-0.89101,0.));
#975=VECTOR('',#974,2.81582);
#976=LINE('',#939,#975);
#977=EDGE_CURVE('',#940,#968,#976,.T.);
#978=ORIENTED_EDGE('',*,*,#977,.F.);
#979=ORIENTED_EDGE('',*,*,#944,.F.);
#980=EDGE_LOOP('',(#966,#973,#978,#979));
#981=FACE_OUTER_BOUND('',#980,.T.);
#982=CARTESIAN_POINT('',(-119.55951,108.21885,505.));
#983=DIRECTION('',(-0.89101,-0.45399,0.));
#984=DIRECTION('',(0.45399,-0.89101,0.));
#985=AXIS2_PLACEMENT_3D('',#982,#983,#984);
#986=PLANE('',#985);
#987=ADVANCED_FACE('',(#981),#986,.T.);
#988=CARTESIAN_POINT('',(-116.29007,103.71885,505.));
#989=VERTEX_POINT('',#988);
#990=DIRECTION('',(0.70711,-0.70711,0.));
#991=VECTOR('',#990,2.81582);
#992=LINE('',#960,#991);
#993=EDGE_CURVE('',#961,#989,#992,.T.);
#994=ORIENTED_EDGE('',*,*,#993,.T.);
#995=CARTESIAN_POINT('',(-116.29007,103.71885,513.));
#996=VERTEX_POINT('',#995);
#997=DIRECTION('',(0.,0.,1.));
#998=VECTOR('',#997,8.);
#999=LINE('',#988,#998);
#1000=EDGE_CURVE('',#989,#996,#999,.T.);
#1001=ORIENTED_EDGE('',*,*,#1000,.T.);
#1002=DIRECTION('',(0.70711,-0.70711,0.));
#1003=VECTOR('',#1002,2.81582);
#1004=LINE('',#967,#1003);
#1005=EDGE_CURVE('',#968,#996,#1004,.T.);
#1006=ORIENTED_EDGE('',*,*,#1005,.F.);
#1007=ORIENTED_EDGE('',*,*,#972,.F.);
#1008=EDGE_LOOP('',(#994,#1001,#1006,#1007));
#1009=FACE_OUTER_BOUND('',#1008,.T.);
#1010=CARTESIAN_POINT('',(-118.28115,105.70993,505.));
#1011=DIRECTION('',(-0.70711,-0.70711,0.));
#1012=DIRECTION('',(0.70711,-0.70711,0.));
#1013=AXIS2_PLACEMENT_3D('',#1010,#1011,#1012);
#1014=PLANE('',#1013);
#1015=ADVANCED_FACE('',(#1009),#1014,.T.);
#1016=CARTESIAN_POINT('',(-113.78115,102.44049,505.));
#1017=VERTEX_POINT('',#1016);
#1018=DIRECTION('',(0.89101,-0.45399,0.));
#1019=VECTOR('',#1018,2.81582);
#1020=LINE('',#988,#1019);
#1021=EDGE_CURVE('',#989,#1017,#1020,.T.);
#1022=ORIENTED_EDGE('',*,*,#1021,.T.);
#1023=CARTESIAN_POINT('',(-113.78115,102.44049,513.));
#1024=VERTEX_POINT('',#1023);
#1025=DIRECTION('',(0.,0.,1.));
#1026=VECTOR('',#1025,8.);
#1027=LINE('',#1016,#1026);
#1028=EDGE_CURVE('',#1017,#1024,#1027,.T.);
#1029=ORIENTED_EDGE('',*,*,#1028,.T.);
#1030=DIRECTION('',(0.89101,-0.45399,0.));
#1031=VECTOR('',#1030,2.81582);
#1032=LINE('',#995,#1031);
#1033=EDGE_CURVE('',#996,#1024,#1032,.T.);
#1034=ORIENTED_EDGE('',*,*,#1033,.F.);
#1035=ORIENTED_EDGE('',*,*,#1000,.F.);
#1036=EDGE_LOOP('',(#1022,#1029,#1034,#1035));
#1037=FACE_OUTER_BOUND('',#1036,.T.);
#1038=CARTESIAN_POINT('',(-116.29007,103.71885,505.));
#1039=DIRECTION('',(-0.45399,-0.89101,0.));
#1040=DIRECTION('',(0.89101,-0.45399,0.));
#1041=AXIS2_PLACEMENT_3D('',#1038,#1039,#1040);
#1042=PLANE('',#1041);
#1043=ADVANCED_FACE('',(#1037),#1042,.T.);
#1044=CARTESIAN_POINT('',(-111.,102.,505.));
#1045=VERTEX_POINT('',#1044);
#1046=DIRECTION('',(0.98769,-0.15643,0.));
#1047=VECTOR('',#1046,2.81582);
#1048=LINE('',#1016,#1047);
#1049=EDGE_CURVE('',#1017,#1045,#1048,.T.);
#1050=ORIENTED_EDGE('',*,*,#1049,.T.);
#1051=CARTESIAN_POINT('',(-111.,102.,513.));
#1052=VERTEX_POINT('',#1051);
#1053=DIRECTION('',(0.,0.,1.));
#1054=VECTOR('',#1053,8.);
#1055=LINE('',#1044,#1054);
#1056=EDGE_CURVE('',#1045,#1052,#1055,.T.);
#1057=ORIENTED_EDGE('',*,*,#1056,.T.);
#1058=DIRECTION('',(0.98769,-0.15643,0.));
#1059=VECTOR('',#1058,2.81582);
#1060=LINE('',#1023,#1059);
#1061=EDGE_CURVE('',#1024,#1052,#1060,.T.);
#1062=ORIENTED_EDGE('',*,*,#1061,.F.);
#1063=ORIENTED_EDGE('',*,*,#1028,.F.);
#1064=EDGE_LOOP('',(#1050,#1057,#1062,#1063));
#1065=FACE_OUTER_BOUND('',#1064,.T.);
#1066=CARTESIAN_POINT('',(-113.78115,102.44049,505.));
#1067=DIRECTION('',(-0.15643,-0.98769,0.));
#1068=DIRECTION('',(0.98769,-0.15643,0.));
#1069=AXIS2_PLACEMENT_3D('',#1066,#1067,#1068);
#1070=PLANE('',#1069);
#1071=ADVANCED_FACE('',(#1065),#1070,.T.);
#1072=CARTESIAN_POINT('',(-108.21885,102.44049,505.));
#1073=VERTEX_POINT('',#1072);
#1074=DIRECTION('',(0.98769,0.15643,0.));
#1075=VECTOR('',#1074,2.81582);
#1076=LINE('',#1044,#1075);
#1077=EDGE_CURVE('',#1045,#1073,#1076,.T.);
#1078=ORIENTED_EDGE('',*,*,#1077,.T.);
#1079=CARTESIAN_POINT('',(-108.21885,102.44049,513.));
#1080=VERTEX_POINT('',#1079);
#1081=DIRECTION('',(0.,0.,1.));
#1082=VECTOR('',#1081,8.);
#1083=LINE('',#1072,#1082);
#1084=EDGE_CURVE('',#1073,#1080,#1083,.T.);
#1085=ORIENTED_EDGE('',*,*,#1084,.T.);
#1086=DIRECTION('',(0.98769,0.15643,0.));
#1087=VECTOR('',#1086,2.81582);
#1088=LINE('',#1051,#1087);
#1089=EDGE_CURVE('',#1052,#1080,#1088,.T.);
#1090=ORIENTED_EDGE('',*,*,#1089,.F.);
#1091=ORIENTED_EDGE('',*,*,#1056,.F.);
#1092=EDGE_LOOP('',(#1078,#1085,#1090,#1091));
#1093=FACE_OUTER_BOUND('',#1092,.T.);
#1094=CARTESIAN_POINT('',(-111.,102.,505.));
#1095=DIRECTION('',(0.15643,-0.98769,0.));
#1096=DIRECTION('',(0.98769,0.15643,0.));
#1097=AXIS2_PLACEMENT_3D('',#1094,#1095,#1096);
#1098=PLANE('',#1097);
#1099=ADVANCED_FACE('',(#1093),#1098,.T.);
#1100=CARTESIAN_POINT('',(-105.70993,103.71885,505.));
#1101=VERTEX_POINT('',#1100);
#1102=DIRECTION('',(0.89101,0.45399,0.));
#1103=VECTOR('',#1102,2.81582);
#1104=LINE('',#1072,#1103);
#1105=EDGE_CURVE('',#1073,#1101,#1104,.T.);
#1106=ORIENTED_EDGE('',*,*,#1105,.T.);
#1107=CARTESIAN_POINT('',(-105.70993,103.71885,513.));
#1108=VERTEX_POINT('',#1107);
#1109=DIRECTION('',(0.,0.,1.));
#1110=VECTOR('',#1109,8.);
#1111=LINE('',#1100,#1110);
#1112=EDGE_CURVE('',#1101,#1108,#1111,.T.);
#1113=ORIENTED_EDGE('',*,*,#1112,.T.);
#1114=DIRECTION('',(0.89101,0.45399,0.));
#1115=VECTOR('',#1114,2.81582);
#1116=LINE('',#1079,#1115);
#1117=EDGE_CURVE('',#1080,#1108,#1116,.T.);
#1118=ORIENTED_EDGE('',*,*,#1117,.F.);
#1119=ORIENTED_EDGE('',*,*,#1084,.F.);
#1120=EDGE_LOOP('',(#1106,#1113,#1118,#1119));
#1121=FACE_OUTER_BOUND('',#1120,.T.);
#1122=CARTESIAN_POINT('',(-108.21885,102.44049,505.));
#1123=DIRECTION('',(0.45399,-0.89101,0.));
#1124=DIRECTION('',(0.89101,0.45399,0.));
#1125=AXIS2_PLACEMENT_3D('',#1122,#1123,#1124);
#1126=PLANE('',#1125);
#1127=ADVANCED_FACE('',(#1121),#1126,.T.);
#1128=CARTESIAN_POINT('',(-103.71885,105.70993,505.));
#1129=VERTEX_POINT('',#1128);
#1130=DIRECTION('',(0.70711,0.70711,0.));
#1131=VECTOR('',#1130,2.81582);
#1132=LINE('',#1100,#1131);
#1133=EDGE_CURVE('',#1101,#1129,#1132,.T.);
#1134=ORIENTED_EDGE('',*,*,#1133,.T.);
#1135=CARTESIAN_POINT('',(-103.71885,105.70993,513.));
#1136=VERTEX_POINT('',#1135);
#1137=DIRECTION('',(0.,0.,1.));
#1138=VECTOR('',#1137,8.);
#1139=LINE('',#1128,#1138);
#1140=EDGE_CURVE('',#1129,#1136,#1139,.T.);
#1141=ORIENTED_EDGE('',*,*,#1140,.T.);
#1142=DIRECTION('',(0.70711,0.70711,0.));
#1143=VECTOR('',#1142,2.81582);
#1144=LINE('',#1107,#1143);
#1145=EDGE_CURVE('',#1108,#1136,#1144,.T.);
#1146=ORIENTED_EDGE('',*,*,#1145,.F.);
#1147=ORIENTED_EDGE('',*,*,#1112,.F.);
#1148=EDGE_LOOP('',(#1134,#1141,#1146,#1147));
#1149=FACE_OUTER_BOUND('',#1148,.T.);
#1150=CARTESIAN_POINT('',(-105.70993,103.71885,505.));
#1151=DIRECTION('',(0.70711,-0.70711,0.));
#1152=DIRECTION('',(0.70711,0.70711,0.));
#1153=AXIS2_PLACEMENT_3D('',#1150,#1151,#1152);
#1154=PLANE('',#1153);
#1155=ADVANCED_FACE('',(#1149),#1154,.T.);
#1156=CARTESIAN_POINT('',(-102.44049,108.21885,505.));
#1157=VERTEX_POINT('',#1156);
#1158=DIRECTION('',(0.45399,0.89101,0.));
#1159=VECTOR('',#1158,2.81582);
#1160=LINE('',#1128,#1159);
#1161=EDGE_CURVE('',#1129,#1157,#1160,.T.);
#1162=ORIENTED_EDGE('',*,*,#1161,.T.);
#1163=CARTESIAN_POINT('',(-102.44049,108.21885,513.));
#1164=VERTEX_POINT('',#1163);
#1165=DIRECTION('',(0.,0.,1.));
#1166=VECTOR('',#1165,8.);
#1167=LINE('',#1156,#1166);
#1168=EDGE_CURVE('',#1157,#1164,#1167,.T.);
#1169=ORIENTED_EDGE('',*,*,#1168,.T.);
#1170=DIRECTION('',(0.45399,0.89101,0.));
#1171=VECTOR('',#1170,2.81582);
#1172=LINE('',#1135,#1171);
#1173=EDGE_CURVE('',#1136,#1164,#1172,.T.);
#1174=ORIENTED_EDGE('',*,*,#1173,.F.);
#1175=ORIENTED_EDGE('',*,*,#1140,.F.);
#1176=EDGE_LOOP('',(#1162,#1169,#1174,#1175));
#1177=FACE_OUTER_BOUND('',#1176,.T.);
#1178=CARTESIAN_POINT('',(-103.71885,105.70993,505.));
#1179=DIRECTION('',(0.89101,-0.45399,0.));
#1180=DIRECTION('',(0.45399,0.89101,0.));
#1181=AXIS2_PLACEMENT_3D('',#1178,#1179,#1180);
#1182=PLANE('',#1181);
#1183=ADVANCED_FACE('',(#1177),#1182,.T.);
#1184=DIRECTION('',(-0.15643,-0.98769,0.));
#1185=VECTOR('',#1184,2.81582);
#1186=LINE('',#644,#1185);
#1187=EDGE_CURVE('',#645,#1157,#1186,.T.);
#1188=ORIENTED_EDGE('',*,*,#1187,.F.);
#1189=ORIENTED_EDGE('',*,*,#670,.T.);
#1190=DIRECTION('',(-0.15643,-0.98769,0.));
#1191=VECTOR('',#1190,2.81582);
#1192=LINE('',#660,#1191);
#1193=EDGE_CURVE('',#661,#1164,#1192,.T.);
#1194=ORIENTED_EDGE('',*,*,#1193,.T.);
#1195=ORIENTED_EDGE('',*,*,#1168,.F.);
#1196=EDGE_LOOP('',(#1188,#1189,#1194,#1195));
#1197=FACE_OUTER_BOUND('',#1196,.T.);
#1198=CARTESIAN_POINT('',(-102.44049,108.21885,505.));
#1199=DIRECTION('',(0.98769,-0.15643,0.));
#1200=DIRECTION('',(0.15643,0.98769,0.));
#1201=AXIS2_PLACEMENT_3D('',#1198,#1199,#1200);
#1202=PLANE('',#1201);
#1203=ADVANCED_FACE('',(#1197),#1202,.T.);
#1204=ORIENTED_EDGE('',*,*,#1161,.F.);
#1205=ORIENTED_EDGE('',*,*,#1133,.F.);
#1206=ORIENTED_EDGE('',*,*,#1105,.F.);
#1207=ORIENTED_EDGE('',*,*,#1077,.F.);
#1208=ORIENTED_EDGE('',*,*,#1049,.F.);
#1209=ORIENTED_EDGE('',*,*,#1021,.F.);
#1210=ORIENTED_EDGE('',*,*,#993,.F.);
#1211=ORIENTED_EDGE('',*,*,#965,.F.);
#1212=ORIENTED_EDGE('',*,*,#937,.F.);
#1213=ORIENTED_EDGE('',*,*,#909,.F.);
#1214=ORIENTED_EDGE('',*,*,#881,.F.);
#1215=ORIENTED_EDGE('',*,*,#853,.F.);
#1216=ORIENTED_EDGE('',*,*,#825,.F.);
#1217=ORIENTED_EDGE('',*,*,#797,.F.);
#1218=ORIENTED_EDGE('',*,*,#769,.F.);
#1219=ORIENTED_EDGE('',*,*,#741,.F.);
#1220=ORIENTED_EDGE('',*,*,#713,.F.);
#1221=ORIENTED_EDGE('',*,*,#685,.F.);
#1222=ORIENTED_EDGE('',*,*,#651,.F.);
#1223=ORIENTED_EDGE('',*,*,#1187,.T.);
#1224=EDGE_LOOP('',(#1204,#1205,#1206,#1207,#1208,#1209,#1210,#1211,#1212,#1213,#1214,#1215,#1216,#1217,#1218,#1219,#1220,#1221,#1222,#1223));
#1225=FACE_OUTER_BOUND('',#1224,.T.);
#1226=CARTESIAN_POINT('',(-102.44049,108.21885,505.));
#1227=DIRECTION('',(0.,0.,-1.));
#1228=DIRECTION('',(-0.45399,-0.89101,0.));
#1229=AXIS2_PLACEMENT_3D('',#1226,#1227,#1228);
#1230=PLANE('',#1229);
#1231=ADVANCED_FACE('',(#1225),#1230,.T.);
#1232=ORIENTED_EDGE('',*,*,#665,.T.);
#1233=ORIENTED_EDGE('',*,*,#697,.T.);
#1234=ORIENTED_EDGE('',*,*,#725,.T.);
#1235=ORIENTED_EDGE('',*,*,#753,.T.);
#1236=ORIENTED_EDGE('',*,*,#781,.T.);
#1237=ORIENTED_EDGE('',*,*,#809,.T.);
#1238=ORIENTED_EDGE('',*,*,#837,.T.);
#1239=ORIENTED_EDGE('',*,*,#865,.T.);
#1240=ORIENTED_EDGE('',*,*,#893,.T.);
#1241=ORIENTED_EDGE('',*,*,#921,.T.);
#1242=ORIENTED_EDGE('',*,*,#949,.T.);
#1243=ORIENTED_EDGE('',*,*,#977,.T.);
#1244=ORIENTED_EDGE('',*,*,#1005,.T.);
#1245=ORIENTED_EDGE('',*,*,#1033,.T.);
#1246=ORIENTED_EDGE('',*,*,#1061,.T.);
#1247=ORIENTED_EDGE('',*,*,#1089,.T.);
#1248=ORIENTED_EDGE('',*,*,#1117,.T.);
#1249=ORIENTED_EDGE('',*,*,#1145,.T.);
#1250=ORIENTED_EDGE('',*,*,#1173,.T.);
#1251=ORIENTED_EDGE('',*,*,#1193,.F.);
#1252=EDGE_LOOP('',(#1232,#1233,#1234,#1235,#1236,#1237,#1238,#1239,#1240,#1241,#1242,#1243,#1244,#1245,#1246,#1247,#1248,#1249,#1250,#1251));
#1253=FACE_OUTER_BOUND('',#1252,.T.);
#1254=CARTESIAN_POINT('',(-102.,111.,513.));
#1255=DIRECTION('',(0.,0.,1.));
#1256=DIRECTION('',(-0.15643,0.98769,0.));
#1257=AXIS2_PLACEMENT_3D('',#1254,#1255,#1256);
#1258=PLANE('',#1257);
#1259=ADVANCED_FACE('',(#1253),#1258,.T.);
#1260=CLOSED_SHELL('',(#679,#707,#735,#763,#791,#819,#847,#875,#903,#931,#959,#987,#1015,#1043,#1071,#1099,#1127,#1155,#1183,#1203,#1231,#1259));
#1261=MANIFOLD_SOLID_BREP('',#1260);
#1262=STYLED_ITEM('color',(#642),#1261);
#1263=ADVANCED_BREP_SHAPE_REPRESENTATION('',(#17,#635,#1261),#9);
#1264=SHAPE_DEFINITION_REPRESENTATION(#13,#1263);
#1265=MECHANICAL_DESIGN_GEOMETRIC_PRESENTATION_REPRESENTATION('',(#643,#1262),#9);
#1266=PRODUCT_RELATED_PRODUCT_CATEGORY('part',$,(#10));
ENDSEC;
END-ISO-10303-21;
