ISO-10303-21;
HEADER;
FILE_DESCRIPTION(('AquaSentinel R3 - planar B-rep export'),'2;1');
FILE_NAME('Jal-Deep beacon base','2026-10-04T21:49:43',('AquaSentinel team'),('Sanjivani University'),'AquaSentinel R3 python build','AquaSentinel R3','');
FILE_SCHEMA(('AUTOMOTIVE_DESIGN { 1 0 10303 214 1 1 1 1 }'));
ENDSEC;
DATA;
#1=APPLICATION_CONTEXT('core data for automotive mechanical design processes');
#2=APPLICATION_PROTOCOL_DEFINITION('international standard','automotive_design',2000,#1);
#3=PRODUCT_CONTEXT('',#1,'mechanical');
#4=PRODUCT_DEFINITION_CONTEXT('part definition',#1,'design');
#5=(LENGTH_UNIT()NAMED_UNIT(*)SI_UNIT(.MILLI.,.METRE.));
#6=(NAMED_UNIT(*)PLANE_ANGLE_UNIT()SI_UNIT($,.RADIAN.));
#7=(NAMED_UNIT(*)SI_UNIT($,.STERADIAN.)SOLID_ANGLE_UNIT());
#8=UNCERTAINTY_MEASURE_WITH_UNIT(LENGTH_MEASURE(1.E-04),#5,'distance_accuracy_value','confusion accuracy');
#9=(GEOMETRIC_REPRESENTATION_CONTEXT(3)GLOBAL_UNCERTAINTY_ASSIGNED_CONTEXT((#8))GLOBAL_UNIT_ASSIGNED_CONTEXT((#5,#6,#7))REPRESENTATION_CONTEXT('Context','3D Context with UNIT and UNCERTAINTY'));
#10=PRODUCT('AS3-702','Jal-Deep beacon base','',(#3));
#11=PRODUCT_DEFINITION_FORMATION('','',#10);
#12=PRODUCT_DEFINITION('design','',#11,#4);
#13=PRODUCT_DEFINITION_SHAPE('','',#12);
#14=CARTESIAN_POINT('',(0.,0.,0.));
#15=DIRECTION('',(0.,0.,1.));
#16=DIRECTION('',(1.,0.,0.));
#17=AXIS2_PLACEMENT_3D('',#14,#15,#16);
#18=CARTESIAN_POINT('',(900.,225.,800.));
#19=VERTEX_POINT('',#18);
#20=CARTESIAN_POINT('',(899.50753,231.25738,800.));
#21=VERTEX_POINT('',#20);
#22=DIRECTION('',(-0.07846,0.99692,0.));
#23=VECTOR('',#22,6.27673);
#24=LINE('',#18,#23);
#25=EDGE_CURVE('',#19,#21,#24,.T.);
#26=ORIENTED_EDGE('',*,*,#25,.T.);
#27=CARTESIAN_POINT('',(899.50753,231.25738,822.));
#28=VERTEX_POINT('',#27);
#29=DIRECTION('',(0.,0.,1.));
#30=VECTOR('',#29,22.);
#31=LINE('',#20,#30);
#32=EDGE_CURVE('',#21,#28,#31,.T.);
#33=ORIENTED_EDGE('',*,*,#32,.T.);
#34=CARTESIAN_POINT('',(900.,225.,822.));
#35=VERTEX_POINT('',#34);
#36=DIRECTION('',(-0.07846,0.99692,0.));
#37=VECTOR('',#36,6.27673);
#38=LINE('',#34,#37);
#39=EDGE_CURVE('',#35,#28,#38,.T.);
#40=ORIENTED_EDGE('',*,*,#39,.F.);
#41=DIRECTION('',(0.,0.,1.));
#42=VECTOR('',#41,22.);
#43=LINE('',#18,#42);
#44=EDGE_CURVE('',#19,#35,#43,.T.);
#45=ORIENTED_EDGE('',*,*,#44,.F.);
#46=EDGE_LOOP('',(#26,#33,#40,#45));
#47=FACE_OUTER_BOUND('',#46,.T.);
#48=CARTESIAN_POINT('',(900.,225.,800.));
#49=DIRECTION('',(0.99692,0.07846,0.));
#50=DIRECTION('',(-0.07846,0.99692,0.));
#51=AXIS2_PLACEMENT_3D('',#48,#49,#50);
#52=PLANE('',#51);
#53=ADVANCED_FACE('',(#47),#52,.T.);
#54=CARTESIAN_POINT('',(898.04226,237.36068,800.));
#55=VERTEX_POINT('',#54);
#56=DIRECTION('',(-0.23345,0.97237,0.));
#57=VECTOR('',#56,6.27673);
#58=LINE('',#20,#57);
#59=EDGE_CURVE('',#21,#55,#58,.T.);
#60=ORIENTED_EDGE('',*,*,#59,.T.);
#61=CARTESIAN_POINT('',(898.04226,237.36068,822.));
#62=VERTEX_POINT('',#61);
#63=DIRECTION('',(0.,0.,1.));
#64=VECTOR('',#63,22.);
#65=LINE('',#54,#64);
#66=EDGE_CURVE('',#55,#62,#65,.T.);
#67=ORIENTED_EDGE('',*,*,#66,.T.);
#68=DIRECTION('',(-0.23345,0.97237,0.));
#69=VECTOR('',#68,6.27673);
#70=LINE('',#27,#69);
#71=EDGE_CURVE('',#28,#62,#70,.T.);
#72=ORIENTED_EDGE('',*,*,#71,.F.);
#73=ORIENTED_EDGE('',*,*,#32,.F.);
#74=EDGE_LOOP('',(#60,#67,#72,#73));
#75=FACE_OUTER_BOUND('',#74,.T.);
#76=CARTESIAN_POINT('',(899.50753,231.25738,800.));
#77=DIRECTION('',(0.97237,0.23345,0.));
#78=DIRECTION('',(-0.23345,0.97237,0.));
#79=AXIS2_PLACEMENT_3D('',#76,#77,#78);
#80=PLANE('',#79);
#81=ADVANCED_FACE('',(#75),#80,.T.);
#82=CARTESIAN_POINT('',(895.64026,243.15962,800.));
#83=VERTEX_POINT('',#82);
#84=DIRECTION('',(-0.38268,0.92388,0.));
#85=VECTOR('',#84,6.27673);
#86=LINE('',#54,#85);
#87=EDGE_CURVE('',#55,#83,#86,.T.);
#88=ORIENTED_EDGE('',*,*,#87,.T.);
#89=CARTESIAN_POINT('',(895.64026,243.15962,822.));
#90=VERTEX_POINT('',#89);
#91=DIRECTION('',(0.,0.,1.));
#92=VECTOR('',#91,22.);
#93=LINE('',#82,#92);
#94=EDGE_CURVE('',#83,#90,#93,.T.);
#95=ORIENTED_EDGE('',*,*,#94,.T.);
#96=DIRECTION('',(-0.38268,0.92388,0.));
#97=VECTOR('',#96,6.27673);
#98=LINE('',#61,#97);
#99=EDGE_CURVE('',#62,#90,#98,.T.);
#100=ORIENTED_EDGE('',*,*,#99,.F.);
#101=ORIENTED_EDGE('',*,*,#66,.F.);
#102=EDGE_LOOP('',(#88,#95,#100,#101));
#103=FACE_OUTER_BOUND('',#102,.T.);
#104=CARTESIAN_POINT('',(898.04226,237.36068,800.));
#105=DIRECTION('',(0.92388,0.38268,0.));
#106=DIRECTION('',(-0.38268,0.92388,0.));
#107=AXIS2_PLACEMENT_3D('',#104,#105,#106);
#108=PLANE('',#107);
#109=ADVANCED_FACE('',(#103),#108,.T.);
#110=CARTESIAN_POINT('',(892.36068,248.51141,800.));
#111=VERTEX_POINT('',#110);
#112=DIRECTION('',(-0.5225,0.85264,0.));
#113=VECTOR('',#112,6.27673);
#114=LINE('',#82,#113);
#115=EDGE_CURVE('',#83,#111,#114,.T.);
#116=ORIENTED_EDGE('',*,*,#115,.T.);
#117=CARTESIAN_POINT('',(892.36068,248.51141,822.));
#118=VERTEX_POINT('',#117);
#119=DIRECTION('',(0.,0.,1.));
#120=VECTOR('',#119,22.);
#121=LINE('',#110,#120);
#122=EDGE_CURVE('',#111,#118,#121,.T.);
#123=ORIENTED_EDGE('',*,*,#122,.T.);
#124=DIRECTION('',(-0.5225,0.85264,0.));
#125=VECTOR('',#124,6.27673);
#126=LINE('',#89,#125);
#127=EDGE_CURVE('',#90,#118,#126,.T.);
#128=ORIENTED_EDGE('',*,*,#127,.F.);
#129=ORIENTED_EDGE('',*,*,#94,.F.);
#130=EDGE_LOOP('',(#116,#123,#128,#129));
#131=FACE_OUTER_BOUND('',#130,.T.);
#132=CARTESIAN_POINT('',(895.64026,243.15962,800.));
#133=DIRECTION('',(0.85264,0.5225,0.));
#134=DIRECTION('',(-0.5225,0.85264,0.));
#135=AXIS2_PLACEMENT_3D('',#132,#133,#134);
#136=PLANE('',#135);
#137=ADVANCED_FACE('',(#131),#136,.T.);
#138=CARTESIAN_POINT('',(888.28427,253.28427,800.));
#139=VERTEX_POINT('',#138);
#140=DIRECTION('',(-0.64945,0.76041,0.));
#141=VECTOR('',#140,6.27673);
#142=LINE('',#110,#141);
#143=EDGE_CURVE('',#111,#139,#142,.T.);
#144=ORIENTED_EDGE('',*,*,#143,.T.);
#145=CARTESIAN_POINT('',(888.28427,253.28427,822.));
#146=VERTEX_POINT('',#145);
#147=DIRECTION('',(0.,0.,1.));
#148=VECTOR('',#147,22.);
#149=LINE('',#138,#148);
#150=EDGE_CURVE('',#139,#146,#149,.T.);
#151=ORIENTED_EDGE('',*,*,#150,.T.);
#152=DIRECTION('',(-0.64945,0.76041,0.));
#153=VECTOR('',#152,6.27673);
#154=LINE('',#117,#153);
#155=EDGE_CURVE('',#118,#146,#154,.T.);
#156=ORIENTED_EDGE('',*,*,#155,.F.);
#157=ORIENTED_EDGE('',*,*,#122,.F.);
#158=EDGE_LOOP('',(#144,#151,#156,#157));
#159=FACE_OUTER_BOUND('',#158,.T.);
#160=CARTESIAN_POINT('',(892.36068,248.51141,800.));
#161=DIRECTION('',(0.76041,0.64945,0.));
#162=DIRECTION('',(-0.64945,0.76041,0.));
#163=AXIS2_PLACEMENT_3D('',#160,#161,#162);
#164=PLANE('',#163);
#165=ADVANCED_FACE('',(#159),#164,.T.);
#166=CARTESIAN_POINT('',(883.51141,257.36068,800.));
#167=VERTEX_POINT('',#166);
#168=DIRECTION('',(-0.76041,0.64945,0.));
#169=VECTOR('',#168,6.27673);
#170=LINE('',#138,#169);
#171=EDGE_CURVE('',#139,#167,#170,.T.);
#172=ORIENTED_EDGE('',*,*,#171,.T.);
#173=CARTESIAN_POINT('',(883.51141,257.36068,822.));
#174=VERTEX_POINT('',#173);
#175=DIRECTION('',(0.,0.,1.));
#176=VECTOR('',#175,22.);
#177=LINE('',#166,#176);
#178=EDGE_CURVE('',#167,#174,#177,.T.);
#179=ORIENTED_EDGE('',*,*,#178,.T.);
#180=DIRECTION('',(-0.76041,0.64945,0.));
#181=VECTOR('',#180,6.27673);
#182=LINE('',#145,#181);
#183=EDGE_CURVE('',#146,#174,#182,.T.);
#184=ORIENTED_EDGE('',*,*,#183,.F.);
#185=ORIENTED_EDGE('',*,*,#150,.F.);
#186=EDGE_LOOP('',(#172,#179,#184,#185));
#187=FACE_OUTER_BOUND('',#186,.T.);
#188=CARTESIAN_POINT('',(888.28427,253.28427,800.));
#189=DIRECTION('',(0.64945,0.76041,0.));
#190=DIRECTION('',(-0.76041,0.64945,0.));
#191=AXIS2_PLACEMENT_3D('',#188,#189,#190);
#192=PLANE('',#191);
#193=ADVANCED_FACE('',(#187),#192,.T.);
#194=CARTESIAN_POINT('',(878.15962,260.64026,800.));
#195=VERTEX_POINT('',#194);
#196=DIRECTION('',(-0.85264,0.5225,0.));
#197=VECTOR('',#196,6.27673);
#198=LINE('',#166,#197);
#199=EDGE_CURVE('',#167,#195,#198,.T.);
#200=ORIENTED_EDGE('',*,*,#199,.T.);
#201=CARTESIAN_POINT('',(878.15962,260.64026,822.));
#202=VERTEX_POINT('',#201);
#203=DIRECTION('',(0.,0.,1.));
#204=VECTOR('',#203,22.);
#205=LINE('',#194,#204);
#206=EDGE_CURVE('',#195,#202,#205,.T.);
#207=ORIENTED_EDGE('',*,*,#206,.T.);
#208=DIRECTION('',(-0.85264,0.5225,0.));
#209=VECTOR('',#208,6.27673);
#210=LINE('',#173,#209);
#211=EDGE_CURVE('',#174,#202,#210,.T.);
#212=ORIENTED_EDGE('',*,*,#211,.F.);
#213=ORIENTED_EDGE('',*,*,#178,.F.);
#214=EDGE_LOOP('',(#200,#207,#212,#213));
#215=FACE_OUTER_BOUND('',#214,.T.);
#216=CARTESIAN_POINT('',(883.51141,257.36068,800.));
#217=DIRECTION('',(0.5225,0.85264,0.));
#218=DIRECTION('',(-0.85264,0.5225,0.));
#219=AXIS2_PLACEMENT_3D('',#216,#217,#218);
#220=PLANE('',#219);
#221=ADVANCED_FACE('',(#215),#220,.T.);
#222=CARTESIAN_POINT('',(872.36068,263.04226,800.));
#223=VERTEX_POINT('',#222);
#224=DIRECTION('',(-0.92388,0.38268,0.));
#225=VECTOR('',#224,6.27673);
#226=LINE('',#194,#225);
#227=EDGE_CURVE('',#195,#223,#226,.T.);
#228=ORIENTED_EDGE('',*,*,#227,.T.);
#229=CARTESIAN_POINT('',(872.36068,263.04226,822.));
#230=VERTEX_POINT('',#229);
#231=DIRECTION('',(0.,0.,1.));
#232=VECTOR('',#231,22.);
#233=LINE('',#222,#232);
#234=EDGE_CURVE('',#223,#230,#233,.T.);
#235=ORIENTED_EDGE('',*,*,#234,.T.);
#236=DIRECTION('',(-0.92388,0.38268,0.));
#237=VECTOR('',#236,6.27673);
#238=LINE('',#201,#237);
#239=EDGE_CURVE('',#202,#230,#238,.T.);
#240=ORIENTED_EDGE('',*,*,#239,.F.);
#241=ORIENTED_EDGE('',*,*,#206,.F.);
#242=EDGE_LOOP('',(#228,#235,#240,#241));
#243=FACE_OUTER_BOUND('',#242,.T.);
#244=CARTESIAN_POINT('',(878.15962,260.64026,800.));
#245=DIRECTION('',(0.38268,0.92388,0.));
#246=DIRECTION('',(-0.92388,0.38268,0.));
#247=AXIS2_PLACEMENT_3D('',#244,#245,#246);
#248=PLANE('',#247);
#249=ADVANCED_FACE('',(#243),#248,.T.);
#250=CARTESIAN_POINT('',(866.25738,264.50753,800.));
#251=VERTEX_POINT('',#250);
#252=DIRECTION('',(-0.97237,0.23345,0.));
#253=VECTOR('',#252,6.27673);
#254=LINE('',#222,#253);
#255=EDGE_CURVE('',#223,#251,#254,.T.);
#256=ORIENTED_EDGE('',*,*,#255,.T.);
#257=CARTESIAN_POINT('',(866.25738,264.50753,822.));
#258=VERTEX_POINT('',#257);
#259=DIRECTION('',(0.,0.,1.));
#260=VECTOR('',#259,22.);
#261=LINE('',#250,#260);
#262=EDGE_CURVE('',#251,#258,#261,.T.);
#263=ORIENTED_EDGE('',*,*,#262,.T.);
#264=DIRECTION('',(-0.97237,0.23345,0.));
#265=VECTOR('',#264,6.27673);
#266=LINE('',#229,#265);
#267=EDGE_CURVE('',#230,#258,#266,.T.);
#268=ORIENTED_EDGE('',*,*,#267,.F.);
#269=ORIENTED_EDGE('',*,*,#234,.F.);
#270=EDGE_LOOP('',(#256,#263,#268,#269));
#271=FACE_OUTER_BOUND('',#270,.T.);
#272=CARTESIAN_POINT('',(872.36068,263.04226,800.));
#273=DIRECTION('',(0.23345,0.97237,0.));
#274=DIRECTION('',(-0.97237,0.23345,0.));
#275=AXIS2_PLACEMENT_3D('',#272,#273,#274);
#276=PLANE('',#275);
#277=ADVANCED_FACE('',(#271),#276,.T.);
#278=CARTESIAN_POINT('',(860.,265.,800.));
#279=VERTEX_POINT('',#278);
#280=DIRECTION('',(-0.99692,0.07846,0.));
#281=VECTOR('',#280,6.27673);
#282=LINE('',#250,#281);
#283=EDGE_CURVE('',#251,#279,#282,.T.);
#284=ORIENTED_EDGE('',*,*,#283,.T.);
#285=CARTESIAN_POINT('',(860.,265.,822.));
#286=VERTEX_POINT('',#285);
#287=DIRECTION('',(0.,0.,1.));
#288=VECTOR('',#287,22.);
#289=LINE('',#278,#288);
#290=EDGE_CURVE('',#279,#286,#289,.T.);
#291=ORIENTED_EDGE('',*,*,#290,.T.);
#292=DIRECTION('',(-0.99692,0.07846,0.));
#293=VECTOR('',#292,6.27673);
#294=LINE('',#257,#293);
#295=EDGE_CURVE('',#258,#286,#294,.T.);
#296=ORIENTED_EDGE('',*,*,#295,.F.);
#297=ORIENTED_EDGE('',*,*,#262,.F.);
#298=EDGE_LOOP('',(#284,#291,#296,#297));
#299=FACE_OUTER_BOUND('',#298,.T.);
#300=CARTESIAN_POINT('',(866.25738,264.50753,800.));
#301=DIRECTION('',(0.07846,0.99692,0.));
#302=DIRECTION('',(-0.99692,0.07846,0.));
#303=AXIS2_PLACEMENT_3D('',#300,#301,#302);
#304=PLANE('',#303);
#305=ADVANCED_FACE('',(#299),#304,.T.);
#306=CARTESIAN_POINT('',(853.74262,264.50753,800.));
#307=VERTEX_POINT('',#306);
#308=DIRECTION('',(-0.99692,-0.07846,0.));
#309=VECTOR('',#308,6.27673);
#310=LINE('',#278,#309);
#311=EDGE_CURVE('',#279,#307,#310,.T.);
#312=ORIENTED_EDGE('',*,*,#311,.T.);
#313=CARTESIAN_POINT('',(853.74262,264.50753,822.));
#314=VERTEX_POINT('',#313);
#315=DIRECTION('',(0.,0.,1.));
#316=VECTOR('',#315,22.);
#317=LINE('',#306,#316);
#318=EDGE_CURVE('',#307,#314,#317,.T.);
#319=ORIENTED_EDGE('',*,*,#318,.T.);
#320=DIRECTION('',(-0.99692,-0.07846,0.));
#321=VECTOR('',#320,6.27673);
#322=LINE('',#285,#321);
#323=EDGE_CURVE('',#286,#314,#322,.T.);
#324=ORIENTED_EDGE('',*,*,#323,.F.);
#325=ORIENTED_EDGE('',*,*,#290,.F.);
#326=EDGE_LOOP('',(#312,#319,#324,#325));
#327=FACE_OUTER_BOUND('',#326,.T.);
#328=CARTESIAN_POINT('',(860.,265.,800.));
#329=DIRECTION('',(-0.07846,0.99692,0.));
#330=DIRECTION('',(-0.99692,-0.07846,0.));
#331=AXIS2_PLACEMENT_3D('',#328,#329,#330);
#332=PLANE('',#331);
#333=ADVANCED_FACE('',(#327),#332,.T.);
#334=CARTESIAN_POINT('',(847.63932,263.04226,800.));
#335=VERTEX_POINT('',#334);
#336=DIRECTION('',(-0.97237,-0.23345,0.));
#337=VECTOR('',#336,6.27673);
#338=LINE('',#306,#337);
#339=EDGE_CURVE('',#307,#335,#338,.T.);
#340=ORIENTED_EDGE('',*,*,#339,.T.);
#341=CARTESIAN_POINT('',(847.63932,263.04226,822.));
#342=VERTEX_POINT('',#341);
#343=DIRECTION('',(0.,0.,1.));
#344=VECTOR('',#343,22.);
#345=LINE('',#334,#344);
#346=EDGE_CURVE('',#335,#342,#345,.T.);
#347=ORIENTED_EDGE('',*,*,#346,.T.);
#348=DIRECTION('',(-0.97237,-0.23345,0.));
#349=VECTOR('',#348,6.27673);
#350=LINE('',#313,#349);
#351=EDGE_CURVE('',#314,#342,#350,.T.);
#352=ORIENTED_EDGE('',*,*,#351,.F.);
#353=ORIENTED_EDGE('',*,*,#318,.F.);
#354=EDGE_LOOP('',(#340,#347,#352,#353));
#355=FACE_OUTER_BOUND('',#354,.T.);
#356=CARTESIAN_POINT('',(853.74262,264.50753,800.));
#357=DIRECTION('',(-0.23345,0.97237,0.));
#358=DIRECTION('',(-0.97237,-0.23345,0.));
#359=AXIS2_PLACEMENT_3D('',#356,#357,#358);
#360=PLANE('',#359);
#361=ADVANCED_FACE('',(#355),#360,.T.);
#362=CARTESIAN_POINT('',(841.84038,260.64026,800.));
#363=VERTEX_POINT('',#362);
#364=DIRECTION('',(-0.92388,-0.38268,0.));
#365=VECTOR('',#364,6.27673);
#366=LINE('',#334,#365);
#367=EDGE_CURVE('',#335,#363,#366,.T.);
#368=ORIENTED_EDGE('',*,*,#367,.T.);
#369=CARTESIAN_POINT('',(841.84038,260.64026,822.));
#370=VERTEX_POINT('',#369);
#371=DIRECTION('',(0.,0.,1.));
#372=VECTOR('',#371,22.);
#373=LINE('',#362,#372);
#374=EDGE_CURVE('',#363,#370,#373,.T.);
#375=ORIENTED_EDGE('',*,*,#374,.T.);
#376=DIRECTION('',(-0.92388,-0.38268,0.));
#377=VECTOR('',#376,6.27673);
#378=LINE('',#341,#377);
#379=EDGE_CURVE('',#342,#370,#378,.T.);
#380=ORIENTED_EDGE('',*,*,#379,.F.);
#381=ORIENTED_EDGE('',*,*,#346,.F.);
#382=EDGE_LOOP('',(#368,#375,#380,#381));
#383=FACE_OUTER_BOUND('',#382,.T.);
#384=CARTESIAN_POINT('',(847.63932,263.04226,800.));
#385=DIRECTION('',(-0.38268,0.92388,0.));
#386=DIRECTION('',(-0.92388,-0.38268,0.));
#387=AXIS2_PLACEMENT_3D('',#384,#385,#386);
#388=PLANE('',#387);
#389=ADVANCED_FACE('',(#383),#388,.T.);
#390=CARTESIAN_POINT('',(836.48859,257.36068,800.));
#391=VERTEX_POINT('',#390);
#392=DIRECTION('',(-0.85264,-0.5225,0.));
#393=VECTOR('',#392,6.27673);
#394=LINE('',#362,#393);
#395=EDGE_CURVE('',#363,#391,#394,.T.);
#396=ORIENTED_EDGE('',*,*,#395,.T.);
#397=CARTESIAN_POINT('',(836.48859,257.36068,822.));
#398=VERTEX_POINT('',#397);
#399=DIRECTION('',(0.,0.,1.));
#400=VECTOR('',#399,22.);
#401=LINE('',#390,#400);
#402=EDGE_CURVE('',#391,#398,#401,.T.);
#403=ORIENTED_EDGE('',*,*,#402,.T.);
#404=DIRECTION('',(-0.85264,-0.5225,0.));
#405=VECTOR('',#404,6.27673);
#406=LINE('',#369,#405);
#407=EDGE_CURVE('',#370,#398,#406,.T.);
#408=ORIENTED_EDGE('',*,*,#407,.F.);
#409=ORIENTED_EDGE('',*,*,#374,.F.);
#410=EDGE_LOOP('',(#396,#403,#408,#409));
#411=FACE_OUTER_BOUND('',#410,.T.);
#412=CARTESIAN_POINT('',(841.84038,260.64026,800.));
#413=DIRECTION('',(-0.5225,0.85264,0.));
#414=DIRECTION('',(-0.85264,-0.5225,0.));
#415=AXIS2_PLACEMENT_3D('',#412,#413,#414);
#416=PLANE('',#415);
#417=ADVANCED_FACE('',(#411),#416,.T.);
#418=CARTESIAN_POINT('',(831.71573,253.28427,800.));
#419=VERTEX_POINT('',#418);
#420=DIRECTION('',(-0.76041,-0.64945,0.));
#421=VECTOR('',#420,6.27673);
#422=LINE('',#390,#421);
#423=EDGE_CURVE('',#391,#419,#422,.T.);
#424=ORIENTED_EDGE('',*,*,#423,.T.);
#425=CARTESIAN_POINT('',(831.71573,253.28427,822.));
#426=VERTEX_POINT('',#425);
#427=DIRECTION('',(0.,0.,1.));
#428=VECTOR('',#427,22.);
#429=LINE('',#418,#428);
#430=EDGE_CURVE('',#419,#426,#429,.T.);
#431=ORIENTED_EDGE('',*,*,#430,.T.);
#432=DIRECTION('',(-0.76041,-0.64945,0.));
#433=VECTOR('',#432,6.27673);
#434=LINE('',#397,#433);
#435=EDGE_CURVE('',#398,#426,#434,.T.);
#436=ORIENTED_EDGE('',*,*,#435,.F.);
#437=ORIENTED_EDGE('',*,*,#402,.F.);
#438=EDGE_LOOP('',(#424,#431,#436,#437));
#439=FACE_OUTER_BOUND('',#438,.T.);
#440=CARTESIAN_POINT('',(836.48859,257.36068,800.));
#441=DIRECTION('',(-0.64945,0.76041,0.));
#442=DIRECTION('',(-0.76041,-0.64945,0.));
#443=AXIS2_PLACEMENT_3D('',#440,#441,#442);
#444=PLANE('',#443);
#445=ADVANCED_FACE('',(#439),#444,.T.);
#446=CARTESIAN_POINT('',(827.63932,248.51141,800.));
#447=VERTEX_POINT('',#446);
#448=DIRECTION('',(-0.64945,-0.76041,0.));
#449=VECTOR('',#448,6.27673);
#450=LINE('',#418,#449);
#451=EDGE_CURVE('',#419,#447,#450,.T.);
#452=ORIENTED_EDGE('',*,*,#451,.T.);
#453=CARTESIAN_POINT('',(827.63932,248.51141,822.));
#454=VERTEX_POINT('',#453);
#455=DIRECTION('',(0.,0.,1.));
#456=VECTOR('',#455,22.);
#457=LINE('',#446,#456);
#458=EDGE_CURVE('',#447,#454,#457,.T.);
#459=ORIENTED_EDGE('',*,*,#458,.T.);
#460=DIRECTION('',(-0.64945,-0.76041,0.));
#461=VECTOR('',#460,6.27673);
#462=LINE('',#425,#461);
#463=EDGE_CURVE('',#426,#454,#462,.T.);
#464=ORIENTED_EDGE('',*,*,#463,.F.);
#465=ORIENTED_EDGE('',*,*,#430,.F.);
#466=EDGE_LOOP('',(#452,#459,#464,#465));
#467=FACE_OUTER_BOUND('',#466,.T.);
#468=CARTESIAN_POINT('',(831.71573,253.28427,800.));
#469=DIRECTION('',(-0.76041,0.64945,0.));
#470=DIRECTION('',(-0.64945,-0.76041,0.));
#471=AXIS2_PLACEMENT_3D('',#468,#469,#470);
#472=PLANE('',#471);
#473=ADVANCED_FACE('',(#467),#472,.T.);
#474=CARTESIAN_POINT('',(824.35974,243.15962,800.));
#475=VERTEX_POINT('',#474);
#476=DIRECTION('',(-0.5225,-0.85264,0.));
#477=VECTOR('',#476,6.27673);
#478=LINE('',#446,#477);
#479=EDGE_CURVE('',#447,#475,#478,.T.);
#480=ORIENTED_EDGE('',*,*,#479,.T.);
#481=CARTESIAN_POINT('',(824.35974,243.15962,822.));
#482=VERTEX_POINT('',#481);
#483=DIRECTION('',(0.,0.,1.));
#484=VECTOR('',#483,22.);
#485=LINE('',#474,#484);
#486=EDGE_CURVE('',#475,#482,#485,.T.);
#487=ORIENTED_EDGE('',*,*,#486,.T.);
#488=DIRECTION('',(-0.5225,-0.85264,0.));
#489=VECTOR('',#488,6.27673);
#490=LINE('',#453,#489);
#491=EDGE_CURVE('',#454,#482,#490,.T.);
#492=ORIENTED_EDGE('',*,*,#491,.F.);
#493=ORIENTED_EDGE('',*,*,#458,.F.);
#494=EDGE_LOOP('',(#480,#487,#492,#493));
#495=FACE_OUTER_BOUND('',#494,.T.);
#496=CARTESIAN_POINT('',(827.63932,248.51141,800.));
#497=DIRECTION('',(-0.85264,0.5225,0.));
#498=DIRECTION('',(-0.5225,-0.85264,0.));
#499=AXIS2_PLACEMENT_3D('',#496,#497,#498);
#500=PLANE('',#499);
#501=ADVANCED_FACE('',(#495),#500,.T.);
#502=CARTESIAN_POINT('',(821.95774,237.36068,800.));
#503=VERTEX_POINT('',#502);
#504=DIRECTION('',(-0.38268,-0.92388,0.));
#505=VECTOR('',#504,6.27673);
#506=LINE('',#474,#505);
#507=EDGE_CURVE('',#475,#503,#506,.T.);
#508=ORIENTED_EDGE('',*,*,#507,.T.);
#509=CARTESIAN_POINT('',(821.95774,237.36068,822.));
#510=VERTEX_POINT('',#509);
#511=DIRECTION('',(0.,0.,1.));
#512=VECTOR('',#511,22.);
#513=LINE('',#502,#512);
#514=EDGE_CURVE('',#503,#510,#513,.T.);
#515=ORIENTED_EDGE('',*,*,#514,.T.);
#516=DIRECTION('',(-0.38268,-0.92388,0.));
#517=VECTOR('',#516,6.27673);
#518=LINE('',#481,#517);
#519=EDGE_CURVE('',#482,#510,#518,.T.);
#520=ORIENTED_EDGE('',*,*,#519,.F.);
#521=ORIENTED_EDGE('',*,*,#486,.F.);
#522=EDGE_LOOP('',(#508,#515,#520,#521));
#523=FACE_OUTER_BOUND('',#522,.T.);
#524=CARTESIAN_POINT('',(824.35974,243.15962,800.));
#525=DIRECTION('',(-0.92388,0.38268,0.));
#526=DIRECTION('',(-0.38268,-0.92388,0.));
#527=AXIS2_PLACEMENT_3D('',#524,#525,#526);
#528=PLANE('',#527);
#529=ADVANCED_FACE('',(#523),#528,.T.);
#530=CARTESIAN_POINT('',(820.49247,231.25738,800.));
#531=VERTEX_POINT('',#530);
#532=DIRECTION('',(-0.23345,-0.97237,0.));
#533=VECTOR('',#532,6.27673);
#534=LINE('',#502,#533);
#535=EDGE_CURVE('',#503,#531,#534,.T.);
#536=ORIENTED_EDGE('',*,*,#535,.T.);
#537=CARTESIAN_POINT('',(820.49247,231.25738,822.));
#538=VERTEX_POINT('',#537);
#539=DIRECTION('',(0.,0.,1.));
#540=VECTOR('',#539,22.);
#541=LINE('',#530,#540);
#542=EDGE_CURVE('',#531,#538,#541,.T.);
#543=ORIENTED_EDGE('',*,*,#542,.T.);
#544=DIRECTION('',(-0.23345,-0.97237,0.));
#545=VECTOR('',#544,6.27673);
#546=LINE('',#509,#545);
#547=EDGE_CURVE('',#510,#538,#546,.T.);
#548=ORIENTED_EDGE('',*,*,#547,.F.);
#549=ORIENTED_EDGE('',*,*,#514,.F.);
#550=EDGE_LOOP('',(#536,#543,#548,#549));
#551=FACE_OUTER_BOUND('',#550,.T.);
#552=CARTESIAN_POINT('',(821.95774,237.36068,800.));
#553=DIRECTION('',(-0.97237,0.23345,0.));
#554=DIRECTION('',(-0.23345,-0.97237,0.));
#555=AXIS2_PLACEMENT_3D('',#552,#553,#554);
#556=PLANE('',#555);
#557=ADVANCED_FACE('',(#551),#556,.T.);
#558=CARTESIAN_POINT('',(820.,225.,800.));
#559=VERTEX_POINT('',#558);
#560=DIRECTION('',(-0.07846,-0.99692,0.));
#561=VECTOR('',#560,6.27673);
#562=LINE('',#530,#561);
#563=EDGE_CURVE('',#531,#559,#562,.T.);
#564=ORIENTED_EDGE('',*,*,#563,.T.);
#565=CARTESIAN_POINT('',(820.,225.,822.));
#566=VERTEX_POINT('',#565);
#567=DIRECTION('',(0.,0.,1.));
#568=VECTOR('',#567,22.);
#569=LINE('',#558,#568);
#570=EDGE_CURVE('',#559,#566,#569,.T.);
#571=ORIENTED_EDGE('',*,*,#570,.T.);
#572=DIRECTION('',(-0.07846,-0.99692,0.));
#573=VECTOR('',#572,6.27673);
#574=LINE('',#537,#573);
#575=EDGE_CURVE('',#538,#566,#574,.T.);
#576=ORIENTED_EDGE('',*,*,#575,.F.);
#577=ORIENTED_EDGE('',*,*,#542,.F.);
#578=EDGE_LOOP('',(#564,#571,#576,#577));
#579=FACE_OUTER_BOUND('',#578,.T.);
#580=CARTESIAN_POINT('',(820.49247,231.25738,800.));
#581=DIRECTION('',(-0.99692,0.07846,0.));
#582=DIRECTION('',(-0.07846,-0.99692,0.));
#583=AXIS2_PLACEMENT_3D('',#580,#581,#582);
#584=PLANE('',#583);
#585=ADVANCED_FACE('',(#579),#584,.T.);
#586=CARTESIAN_POINT('',(820.49247,218.74262,800.));
#587=VERTEX_POINT('',#586);
#588=DIRECTION('',(0.07846,-0.99692,0.));
#589=VECTOR('',#588,6.27673);
#590=LINE('',#558,#589);
#591=EDGE_CURVE('',#559,#587,#590,.T.);
#592=ORIENTED_EDGE('',*,*,#591,.T.);
#593=CARTESIAN_POINT('',(820.49247,218.74262,822.));
#594=VERTEX_POINT('',#593);
#595=DIRECTION('',(0.,0.,1.));
#596=VECTOR('',#595,22.);
#597=LINE('',#586,#596);
#598=EDGE_CURVE('',#587,#594,#597,.T.);
#599=ORIENTED_EDGE('',*,*,#598,.T.);
#600=DIRECTION('',(0.07846,-0.99692,0.));
#601=VECTOR('',#600,6.27673);
#602=LINE('',#565,#601);
#603=EDGE_CURVE('',#566,#594,#602,.T.);
#604=ORIENTED_EDGE('',*,*,#603,.F.);
#605=ORIENTED_EDGE('',*,*,#570,.F.);
#606=EDGE_LOOP('',(#592,#599,#604,#605));
#607=FACE_OUTER_BOUND('',#606,.T.);
#608=CARTESIAN_POINT('',(820.,225.,800.));
#609=DIRECTION('',(-0.99692,-0.07846,0.));
#610=DIRECTION('',(0.07846,-0.99692,0.));
#611=AXIS2_PLACEMENT_3D('',#608,#609,#610);
#612=PLANE('',#611);
#613=ADVANCED_FACE('',(#607),#612,.T.);
#614=CARTESIAN_POINT('',(821.95774,212.63932,800.));
#615=VERTEX_POINT('',#614);
#616=DIRECTION('',(0.23345,-0.97237,0.));
#617=VECTOR('',#616,6.27673);
#618=LINE('',#586,#617);
#619=EDGE_CURVE('',#587,#615,#618,.T.);
#620=ORIENTED_EDGE('',*,*,#619,.T.);
#621=CARTESIAN_POINT('',(821.95774,212.63932,822.));
#622=VERTEX_POINT('',#621);
#623=DIRECTION('',(0.,0.,1.));
#624=VECTOR('',#623,22.);
#625=LINE('',#614,#624);
#626=EDGE_CURVE('',#615,#622,#625,.T.);
#627=ORIENTED_EDGE('',*,*,#626,.T.);
#628=DIRECTION('',(0.23345,-0.97237,0.));
#629=VECTOR('',#628,6.27673);
#630=LINE('',#593,#629);
#631=EDGE_CURVE('',#594,#622,#630,.T.);
#632=ORIENTED_EDGE('',*,*,#631,.F.);
#633=ORIENTED_EDGE('',*,*,#598,.F.);
#634=EDGE_LOOP('',(#620,#627,#632,#633));
#635=FACE_OUTER_BOUND('',#634,.T.);
#636=CARTESIAN_POINT('',(820.49247,218.74262,800.));
#637=DIRECTION('',(-0.97237,-0.23345,0.));
#638=DIRECTION('',(0.23345,-0.97237,0.));
#639=AXIS2_PLACEMENT_3D('',#636,#637,#638);
#640=PLANE('',#639);
#641=ADVANCED_FACE('',(#635),#640,.T.);
#642=CARTESIAN_POINT('',(824.35974,206.84038,800.));
#643=VERTEX_POINT('',#642);
#644=DIRECTION('',(0.38268,-0.92388,0.));
#645=VECTOR('',#644,6.27673);
#646=LINE('',#614,#645);
#647=EDGE_CURVE('',#615,#643,#646,.T.);
#648=ORIENTED_EDGE('',*,*,#647,.T.);
#649=CARTESIAN_POINT('',(824.35974,206.84038,822.));
#650=VERTEX_POINT('',#649);
#651=DIRECTION('',(0.,0.,1.));
#652=VECTOR('',#651,22.);
#653=LINE('',#642,#652);
#654=EDGE_CURVE('',#643,#650,#653,.T.);
#655=ORIENTED_EDGE('',*,*,#654,.T.);
#656=DIRECTION('',(0.38268,-0.92388,0.));
#657=VECTOR('',#656,6.27673);
#658=LINE('',#621,#657);
#659=EDGE_CURVE('',#622,#650,#658,.T.);
#660=ORIENTED_EDGE('',*,*,#659,.F.);
#661=ORIENTED_EDGE('',*,*,#626,.F.);
#662=EDGE_LOOP('',(#648,#655,#660,#661));
#663=FACE_OUTER_BOUND('',#662,.T.);
#664=CARTESIAN_POINT('',(821.95774,212.63932,800.));
#665=DIRECTION('',(-0.92388,-0.38268,0.));
#666=DIRECTION('',(0.38268,-0.92388,0.));
#667=AXIS2_PLACEMENT_3D('',#664,#665,#666);
#668=PLANE('',#667);
#669=ADVANCED_FACE('',(#663),#668,.T.);
#670=CARTESIAN_POINT('',(827.63932,201.48859,800.));
#671=VERTEX_POINT('',#670);
#672=DIRECTION('',(0.5225,-0.85264,0.));
#673=VECTOR('',#672,6.27673);
#674=LINE('',#642,#673);
#675=EDGE_CURVE('',#643,#671,#674,.T.);
#676=ORIENTED_EDGE('',*,*,#675,.T.);
#677=CARTESIAN_POINT('',(827.63932,201.48859,822.));
#678=VERTEX_POINT('',#677);
#679=DIRECTION('',(0.,0.,1.));
#680=VECTOR('',#679,22.);
#681=LINE('',#670,#680);
#682=EDGE_CURVE('',#671,#678,#681,.T.);
#683=ORIENTED_EDGE('',*,*,#682,.T.);
#684=DIRECTION('',(0.5225,-0.85264,0.));
#685=VECTOR('',#684,6.27673);
#686=LINE('',#649,#685);
#687=EDGE_CURVE('',#650,#678,#686,.T.);
#688=ORIENTED_EDGE('',*,*,#687,.F.);
#689=ORIENTED_EDGE('',*,*,#654,.F.);
#690=EDGE_LOOP('',(#676,#683,#688,#689));
#691=FACE_OUTER_BOUND('',#690,.T.);
#692=CARTESIAN_POINT('',(824.35974,206.84038,800.));
#693=DIRECTION('',(-0.85264,-0.5225,0.));
#694=DIRECTION('',(0.5225,-0.85264,0.));
#695=AXIS2_PLACEMENT_3D('',#692,#693,#694);
#696=PLANE('',#695);
#697=ADVANCED_FACE('',(#691),#696,.T.);
#698=CARTESIAN_POINT('',(831.71573,196.71573,800.));
#699=VERTEX_POINT('',#698);
#700=DIRECTION('',(0.64945,-0.76041,0.));
#701=VECTOR('',#700,6.27673);
#702=LINE('',#670,#701);
#703=EDGE_CURVE('',#671,#699,#702,.T.);
#704=ORIENTED_EDGE('',*,*,#703,.T.);
#705=CARTESIAN_POINT('',(831.71573,196.71573,822.));
#706=VERTEX_POINT('',#705);
#707=DIRECTION('',(0.,0.,1.));
#708=VECTOR('',#707,22.);
#709=LINE('',#698,#708);
#710=EDGE_CURVE('',#699,#706,#709,.T.);
#711=ORIENTED_EDGE('',*,*,#710,.T.);
#712=DIRECTION('',(0.64945,-0.76041,0.));
#713=VECTOR('',#712,6.27673);
#714=LINE('',#677,#713);
#715=EDGE_CURVE('',#678,#706,#714,.T.);
#716=ORIENTED_EDGE('',*,*,#715,.F.);
#717=ORIENTED_EDGE('',*,*,#682,.F.);
#718=EDGE_LOOP('',(#704,#711,#716,#717));
#719=FACE_OUTER_BOUND('',#718,.T.);
#720=CARTESIAN_POINT('',(827.63932,201.48859,800.));
#721=DIRECTION('',(-0.76041,-0.64945,0.));
#722=DIRECTION('',(0.64945,-0.76041,0.));
#723=AXIS2_PLACEMENT_3D('',#720,#721,#722);
#724=PLANE('',#723);
#725=ADVANCED_FACE('',(#719),#724,.T.);
#726=CARTESIAN_POINT('',(836.48859,192.63932,800.));
#727=VERTEX_POINT('',#726);
#728=DIRECTION('',(0.76041,-0.64945,0.));
#729=VECTOR('',#728,6.27673);
#730=LINE('',#698,#729);
#731=EDGE_CURVE('',#699,#727,#730,.T.);
#732=ORIENTED_EDGE('',*,*,#731,.T.);
#733=CARTESIAN_POINT('',(836.48859,192.63932,822.));
#734=VERTEX_POINT('',#733);
#735=DIRECTION('',(0.,0.,1.));
#736=VECTOR('',#735,22.);
#737=LINE('',#726,#736);
#738=EDGE_CURVE('',#727,#734,#737,.T.);
#739=ORIENTED_EDGE('',*,*,#738,.T.);
#740=DIRECTION('',(0.76041,-0.64945,0.));
#741=VECTOR('',#740,6.27673);
#742=LINE('',#705,#741);
#743=EDGE_CURVE('',#706,#734,#742,.T.);
#744=ORIENTED_EDGE('',*,*,#743,.F.);
#745=ORIENTED_EDGE('',*,*,#710,.F.);
#746=EDGE_LOOP('',(#732,#739,#744,#745));
#747=FACE_OUTER_BOUND('',#746,.T.);
#748=CARTESIAN_POINT('',(831.71573,196.71573,800.));
#749=DIRECTION('',(-0.64945,-0.76041,0.));
#750=DIRECTION('',(0.76041,-0.64945,0.));
#751=AXIS2_PLACEMENT_3D('',#748,#749,#750);
#752=PLANE('',#751);
#753=ADVANCED_FACE('',(#747),#752,.T.);
#754=CARTESIAN_POINT('',(841.84038,189.35974,800.));
#755=VERTEX_POINT('',#754);
#756=DIRECTION('',(0.85264,-0.5225,0.));
#757=VECTOR('',#756,6.27673);
#758=LINE('',#726,#757);
#759=EDGE_CURVE('',#727,#755,#758,.T.);
#760=ORIENTED_EDGE('',*,*,#759,.T.);
#761=CARTESIAN_POINT('',(841.84038,189.35974,822.));
#762=VERTEX_POINT('',#761);
#763=DIRECTION('',(0.,0.,1.));
#764=VECTOR('',#763,22.);
#765=LINE('',#754,#764);
#766=EDGE_CURVE('',#755,#762,#765,.T.);
#767=ORIENTED_EDGE('',*,*,#766,.T.);
#768=DIRECTION('',(0.85264,-0.5225,0.));
#769=VECTOR('',#768,6.27673);
#770=LINE('',#733,#769);
#771=EDGE_CURVE('',#734,#762,#770,.T.);
#772=ORIENTED_EDGE('',*,*,#771,.F.);
#773=ORIENTED_EDGE('',*,*,#738,.F.);
#774=EDGE_LOOP('',(#760,#767,#772,#773));
#775=FACE_OUTER_BOUND('',#774,.T.);
#776=CARTESIAN_POINT('',(836.48859,192.63932,800.));
#777=DIRECTION('',(-0.5225,-0.85264,0.));
#778=DIRECTION('',(0.85264,-0.5225,0.));
#779=AXIS2_PLACEMENT_3D('',#776,#777,#778);
#780=PLANE('',#779);
#781=ADVANCED_FACE('',(#775),#780,.T.);
#782=CARTESIAN_POINT('',(847.63932,186.95774,800.));
#783=VERTEX_POINT('',#782);
#784=DIRECTION('',(0.92388,-0.38268,0.));
#785=VECTOR('',#784,6.27673);
#786=LINE('',#754,#785);
#787=EDGE_CURVE('',#755,#783,#786,.T.);
#788=ORIENTED_EDGE('',*,*,#787,.T.);
#789=CARTESIAN_POINT('',(847.63932,186.95774,822.));
#790=VERTEX_POINT('',#789);
#791=DIRECTION('',(0.,0.,1.));
#792=VECTOR('',#791,22.);
#793=LINE('',#782,#792);
#794=EDGE_CURVE('',#783,#790,#793,.T.);
#795=ORIENTED_EDGE('',*,*,#794,.T.);
#796=DIRECTION('',(0.92388,-0.38268,0.));
#797=VECTOR('',#796,6.27673);
#798=LINE('',#761,#797);
#799=EDGE_CURVE('',#762,#790,#798,.T.);
#800=ORIENTED_EDGE('',*,*,#799,.F.);
#801=ORIENTED_EDGE('',*,*,#766,.F.);
#802=EDGE_LOOP('',(#788,#795,#800,#801));
#803=FACE_OUTER_BOUND('',#802,.T.);
#804=CARTESIAN_POINT('',(841.84038,189.35974,800.));
#805=DIRECTION('',(-0.38268,-0.92388,0.));
#806=DIRECTION('',(0.92388,-0.38268,0.));
#807=AXIS2_PLACEMENT_3D('',#804,#805,#806);
#808=PLANE('',#807);
#809=ADVANCED_FACE('',(#803),#808,.T.);
#810=CARTESIAN_POINT('',(853.74262,185.49247,800.));
#811=VERTEX_POINT('',#810);
#812=DIRECTION('',(0.97237,-0.23345,0.));
#813=VECTOR('',#812,6.27673);
#814=LINE('',#782,#813);
#815=EDGE_CURVE('',#783,#811,#814,.T.);
#816=ORIENTED_EDGE('',*,*,#815,.T.);
#817=CARTESIAN_POINT('',(853.74262,185.49247,822.));
#818=VERTEX_POINT('',#817);
#819=DIRECTION('',(0.,0.,1.));
#820=VECTOR('',#819,22.);
#821=LINE('',#810,#820);
#822=EDGE_CURVE('',#811,#818,#821,.T.);
#823=ORIENTED_EDGE('',*,*,#822,.T.);
#824=DIRECTION('',(0.97237,-0.23345,0.));
#825=VECTOR('',#824,6.27673);
#826=LINE('',#789,#825);
#827=EDGE_CURVE('',#790,#818,#826,.T.);
#828=ORIENTED_EDGE('',*,*,#827,.F.);
#829=ORIENTED_EDGE('',*,*,#794,.F.);
#830=EDGE_LOOP('',(#816,#823,#828,#829));
#831=FACE_OUTER_BOUND('',#830,.T.);
#832=CARTESIAN_POINT('',(847.63932,186.95774,800.));
#833=DIRECTION('',(-0.23345,-0.97237,0.));
#834=DIRECTION('',(0.97237,-0.23345,0.));
#835=AXIS2_PLACEMENT_3D('',#832,#833,#834);
#836=PLANE('',#835);
#837=ADVANCED_FACE('',(#831),#836,.T.);
#838=CARTESIAN_POINT('',(860.,185.,800.));
#839=VERTEX_POINT('',#838);
#840=DIRECTION('',(0.99692,-0.07846,0.));
#841=VECTOR('',#840,6.27673);
#842=LINE('',#810,#841);
#843=EDGE_CURVE('',#811,#839,#842,.T.);
#844=ORIENTED_EDGE('',*,*,#843,.T.);
#845=CARTESIAN_POINT('',(860.,185.,822.));
#846=VERTEX_POINT('',#845);
#847=DIRECTION('',(0.,0.,1.));
#848=VECTOR('',#847,22.);
#849=LINE('',#838,#848);
#850=EDGE_CURVE('',#839,#846,#849,.T.);
#851=ORIENTED_EDGE('',*,*,#850,.T.);
#852=DIRECTION('',(0.99692,-0.07846,0.));
#853=VECTOR('',#852,6.27673);
#854=LINE('',#817,#853);
#855=EDGE_CURVE('',#818,#846,#854,.T.);
#856=ORIENTED_EDGE('',*,*,#855,.F.);
#857=ORIENTED_EDGE('',*,*,#822,.F.);
#858=EDGE_LOOP('',(#844,#851,#856,#857));
#859=FACE_OUTER_BOUND('',#858,.T.);
#860=CARTESIAN_POINT('',(853.74262,185.49247,800.));
#861=DIRECTION('',(-0.07846,-0.99692,0.));
#862=DIRECTION('',(0.99692,-0.07846,0.));
#863=AXIS2_PLACEMENT_3D('',#860,#861,#862);
#864=PLANE('',#863);
#865=ADVANCED_FACE('',(#859),#864,.T.);
#866=CARTESIAN_POINT('',(866.25738,185.49247,800.));
#867=VERTEX_POINT('',#866);
#868=DIRECTION('',(0.99692,0.07846,0.));
#869=VECTOR('',#868,6.27673);
#870=LINE('',#838,#869);
#871=EDGE_CURVE('',#839,#867,#870,.T.);
#872=ORIENTED_EDGE('',*,*,#871,.T.);
#873=CARTESIAN_POINT('',(866.25738,185.49247,822.));
#874=VERTEX_POINT('',#873);
#875=DIRECTION('',(0.,0.,1.));
#876=VECTOR('',#875,22.);
#877=LINE('',#866,#876);
#878=EDGE_CURVE('',#867,#874,#877,.T.);
#879=ORIENTED_EDGE('',*,*,#878,.T.);
#880=DIRECTION('',(0.99692,0.07846,0.));
#881=VECTOR('',#880,6.27673);
#882=LINE('',#845,#881);
#883=EDGE_CURVE('',#846,#874,#882,.T.);
#884=ORIENTED_EDGE('',*,*,#883,.F.);
#885=ORIENTED_EDGE('',*,*,#850,.F.);
#886=EDGE_LOOP('',(#872,#879,#884,#885));
#887=FACE_OUTER_BOUND('',#886,.T.);
#888=CARTESIAN_POINT('',(860.,185.,800.));
#889=DIRECTION('',(0.07846,-0.99692,0.));
#890=DIRECTION('',(0.99692,0.07846,0.));
#891=AXIS2_PLACEMENT_3D('',#888,#889,#890);
#892=PLANE('',#891);
#893=ADVANCED_FACE('',(#887),#892,.T.);
#894=CARTESIAN_POINT('',(872.36068,186.95774,800.));
#895=VERTEX_POINT('',#894);
#896=DIRECTION('',(0.97237,0.23345,0.));
#897=VECTOR('',#896,6.27673);
#898=LINE('',#866,#897);
#899=EDGE_CURVE('',#867,#895,#898,.T.);
#900=ORIENTED_EDGE('',*,*,#899,.T.);
#901=CARTESIAN_POINT('',(872.36068,186.95774,822.));
#902=VERTEX_POINT('',#901);
#903=DIRECTION('',(0.,0.,1.));
#904=VECTOR('',#903,22.);
#905=LINE('',#894,#904);
#906=EDGE_CURVE('',#895,#902,#905,.T.);
#907=ORIENTED_EDGE('',*,*,#906,.T.);
#908=DIRECTION('',(0.97237,0.23345,0.));
#909=VECTOR('',#908,6.27673);
#910=LINE('',#873,#909);
#911=EDGE_CURVE('',#874,#902,#910,.T.);
#912=ORIENTED_EDGE('',*,*,#911,.F.);
#913=ORIENTED_EDGE('',*,*,#878,.F.);
#914=EDGE_LOOP('',(#900,#907,#912,#913));
#915=FACE_OUTER_BOUND('',#914,.T.);
#916=CARTESIAN_POINT('',(866.25738,185.49247,800.));
#917=DIRECTION('',(0.23345,-0.97237,0.));
#918=DIRECTION('',(0.97237,0.23345,0.));
#919=AXIS2_PLACEMENT_3D('',#916,#917,#918);
#920=PLANE('',#919);
#921=ADVANCED_FACE('',(#915),#920,.T.);
#922=CARTESIAN_POINT('',(878.15962,189.35974,800.));
#923=VERTEX_POINT('',#922);
#924=DIRECTION('',(0.92388,0.38268,0.));
#925=VECTOR('',#924,6.27673);
#926=LINE('',#894,#925);
#927=EDGE_CURVE('',#895,#923,#926,.T.);
#928=ORIENTED_EDGE('',*,*,#927,.T.);
#929=CARTESIAN_POINT('',(878.15962,189.35974,822.));
#930=VERTEX_POINT('',#929);
#931=DIRECTION('',(0.,0.,1.));
#932=VECTOR('',#931,22.);
#933=LINE('',#922,#932);
#934=EDGE_CURVE('',#923,#930,#933,.T.);
#935=ORIENTED_EDGE('',*,*,#934,.T.);
#936=DIRECTION('',(0.92388,0.38268,0.));
#937=VECTOR('',#936,6.27673);
#938=LINE('',#901,#937);
#939=EDGE_CURVE('',#902,#930,#938,.T.);
#940=ORIENTED_EDGE('',*,*,#939,.F.);
#941=ORIENTED_EDGE('',*,*,#906,.F.);
#942=EDGE_LOOP('',(#928,#935,#940,#941));
#943=FACE_OUTER_BOUND('',#942,.T.);
#944=CARTESIAN_POINT('',(872.36068,186.95774,800.));
#945=DIRECTION('',(0.38268,-0.92388,0.));
#946=DIRECTION('',(0.92388,0.38268,0.));
#947=AXIS2_PLACEMENT_3D('',#944,#945,#946);
#948=PLANE('',#947);
#949=ADVANCED_FACE('',(#943),#948,.T.);
#950=CARTESIAN_POINT('',(883.51141,192.63932,800.));
#951=VERTEX_POINT('',#950);
#952=DIRECTION('',(0.85264,0.5225,0.));
#953=VECTOR('',#952,6.27673);
#954=LINE('',#922,#953);
#955=EDGE_CURVE('',#923,#951,#954,.T.);
#956=ORIENTED_EDGE('',*,*,#955,.T.);
#957=CARTESIAN_POINT('',(883.51141,192.63932,822.));
#958=VERTEX_POINT('',#957);
#959=DIRECTION('',(0.,0.,1.));
#960=VECTOR('',#959,22.);
#961=LINE('',#950,#960);
#962=EDGE_CURVE('',#951,#958,#961,.T.);
#963=ORIENTED_EDGE('',*,*,#962,.T.);
#964=DIRECTION('',(0.85264,0.5225,0.));
#965=VECTOR('',#964,6.27673);
#966=LINE('',#929,#965);
#967=EDGE_CURVE('',#930,#958,#966,.T.);
#968=ORIENTED_EDGE('',*,*,#967,.F.);
#969=ORIENTED_EDGE('',*,*,#934,.F.);
#970=EDGE_LOOP('',(#956,#963,#968,#969));
#971=FACE_OUTER_BOUND('',#970,.T.);
#972=CARTESIAN_POINT('',(878.15962,189.35974,800.));
#973=DIRECTION('',(0.5225,-0.85264,0.));
#974=DIRECTION('',(0.85264,0.5225,0.));
#975=AXIS2_PLACEMENT_3D('',#972,#973,#974);
#976=PLANE('',#975);
#977=ADVANCED_FACE('',(#971),#976,.T.);
#978=CARTESIAN_POINT('',(888.28427,196.71573,800.));
#979=VERTEX_POINT('',#978);
#980=DIRECTION('',(0.76041,0.64945,0.));
#981=VECTOR('',#980,6.27673);
#982=LINE('',#950,#981);
#983=EDGE_CURVE('',#951,#979,#982,.T.);
#984=ORIENTED_EDGE('',*,*,#983,.T.);
#985=CARTESIAN_POINT('',(888.28427,196.71573,822.));
#986=VERTEX_POINT('',#985);
#987=DIRECTION('',(0.,0.,1.));
#988=VECTOR('',#987,22.);
#989=LINE('',#978,#988);
#990=EDGE_CURVE('',#979,#986,#989,.T.);
#991=ORIENTED_EDGE('',*,*,#990,.T.);
#992=DIRECTION('',(0.76041,0.64945,0.));
#993=VECTOR('',#992,6.27673);
#994=LINE('',#957,#993);
#995=EDGE_CURVE('',#958,#986,#994,.T.);
#996=ORIENTED_EDGE('',*,*,#995,.F.);
#997=ORIENTED_EDGE('',*,*,#962,.F.);
#998=EDGE_LOOP('',(#984,#991,#996,#997));
#999=FACE_OUTER_BOUND('',#998,.T.);
#1000=CARTESIAN_POINT('',(883.51141,192.63932,800.));
#1001=DIRECTION('',(0.64945,-0.76041,0.));
#1002=DIRECTION('',(0.76041,0.64945,0.));
#1003=AXIS2_PLACEMENT_3D('',#1000,#1001,#1002);
#1004=PLANE('',#1003);
#1005=ADVANCED_FACE('',(#999),#1004,.T.);
#1006=CARTESIAN_POINT('',(892.36068,201.48859,800.));
#1007=VERTEX_POINT('',#1006);
#1008=DIRECTION('',(0.64945,0.76041,0.));
#1009=VECTOR('',#1008,6.27673);
#1010=LINE('',#978,#1009);
#1011=EDGE_CURVE('',#979,#1007,#1010,.T.);
#1012=ORIENTED_EDGE('',*,*,#1011,.T.);
#1013=CARTESIAN_POINT('',(892.36068,201.48859,822.));
#1014=VERTEX_POINT('',#1013);
#1015=DIRECTION('',(0.,0.,1.));
#1016=VECTOR('',#1015,22.);
#1017=LINE('',#1006,#1016);
#1018=EDGE_CURVE('',#1007,#1014,#1017,.T.);
#1019=ORIENTED_EDGE('',*,*,#1018,.T.);
#1020=DIRECTION('',(0.64945,0.76041,0.));
#1021=VECTOR('',#1020,6.27673);
#1022=LINE('',#985,#1021);
#1023=EDGE_CURVE('',#986,#1014,#1022,.T.);
#1024=ORIENTED_EDGE('',*,*,#1023,.F.);
#1025=ORIENTED_EDGE('',*,*,#990,.F.);
#1026=EDGE_LOOP('',(#1012,#1019,#1024,#1025));
#1027=FACE_OUTER_BOUND('',#1026,.T.);
#1028=CARTESIAN_POINT('',(888.28427,196.71573,800.));
#1029=DIRECTION('',(0.76041,-0.64945,0.));
#1030=DIRECTION('',(0.64945,0.76041,0.));
#1031=AXIS2_PLACEMENT_3D('',#1028,#1029,#1030);
#1032=PLANE('',#1031);
#1033=ADVANCED_FACE('',(#1027),#1032,.T.);
#1034=CARTESIAN_POINT('',(895.64026,206.84038,800.));
#1035=VERTEX_POINT('',#1034);
#1036=DIRECTION('',(0.5225,0.85264,0.));
#1037=VECTOR('',#1036,6.27673);
#1038=LINE('',#1006,#1037);
#1039=EDGE_CURVE('',#1007,#1035,#1038,.T.);
#1040=ORIENTED_EDGE('',*,*,#1039,.T.);
#1041=CARTESIAN_POINT('',(895.64026,206.84038,822.));
#1042=VERTEX_POINT('',#1041);
#1043=DIRECTION('',(0.,0.,1.));
#1044=VECTOR('',#1043,22.);
#1045=LINE('',#1034,#1044);
#1046=EDGE_CURVE('',#1035,#1042,#1045,.T.);
#1047=ORIENTED_EDGE('',*,*,#1046,.T.);
#1048=DIRECTION('',(0.5225,0.85264,0.));
#1049=VECTOR('',#1048,6.27673);
#1050=LINE('',#1013,#1049);
#1051=EDGE_CURVE('',#1014,#1042,#1050,.T.);
#1052=ORIENTED_EDGE('',*,*,#1051,.F.);
#1053=ORIENTED_EDGE('',*,*,#1018,.F.);
#1054=EDGE_LOOP('',(#1040,#1047,#1052,#1053));
#1055=FACE_OUTER_BOUND('',#1054,.T.);
#1056=CARTESIAN_POINT('',(892.36068,201.48859,800.));
#1057=DIRECTION('',(0.85264,-0.5225,0.));
#1058=DIRECTION('',(0.5225,0.85264,0.));
#1059=AXIS2_PLACEMENT_3D('',#1056,#1057,#1058);
#1060=PLANE('',#1059);
#1061=ADVANCED_FACE('',(#1055),#1060,.T.);
#1062=CARTESIAN_POINT('',(898.04226,212.63932,800.));
#1063=VERTEX_POINT('',#1062);
#1064=DIRECTION('',(0.38268,0.92388,0.));
#1065=VECTOR('',#1064,6.27673);
#1066=LINE('',#1034,#1065);
#1067=EDGE_CURVE('',#1035,#1063,#1066,.T.);
#1068=ORIENTED_EDGE('',*,*,#1067,.T.);
#1069=CARTESIAN_POINT('',(898.04226,212.63932,822.));
#1070=VERTEX_POINT('',#1069);
#1071=DIRECTION('',(0.,0.,1.));
#1072=VECTOR('',#1071,22.);
#1073=LINE('',#1062,#1072);
#1074=EDGE_CURVE('',#1063,#1070,#1073,.T.);
#1075=ORIENTED_EDGE('',*,*,#1074,.T.);
#1076=DIRECTION('',(0.38268,0.92388,0.));
#1077=VECTOR('',#1076,6.27673);
#1078=LINE('',#1041,#1077);
#1079=EDGE_CURVE('',#1042,#1070,#1078,.T.);
#1080=ORIENTED_EDGE('',*,*,#1079,.F.);
#1081=ORIENTED_EDGE('',*,*,#1046,.F.);
#1082=EDGE_LOOP('',(#1068,#1075,#1080,#1081));
#1083=FACE_OUTER_BOUND('',#1082,.T.);
#1084=CARTESIAN_POINT('',(895.64026,206.84038,800.));
#1085=DIRECTION('',(0.92388,-0.38268,0.));
#1086=DIRECTION('',(0.38268,0.92388,0.));
#1087=AXIS2_PLACEMENT_3D('',#1084,#1085,#1086);
#1088=PLANE('',#1087);
#1089=ADVANCED_FACE('',(#1083),#1088,.T.);
#1090=CARTESIAN_POINT('',(899.50753,218.74262,800.));
#1091=VERTEX_POINT('',#1090);
#1092=DIRECTION('',(0.23345,0.97237,0.));
#1093=VECTOR('',#1092,6.27673);
#1094=LINE('',#1062,#1093);
#1095=EDGE_CURVE('',#1063,#1091,#1094,.T.);
#1096=ORIENTED_EDGE('',*,*,#1095,.T.);
#1097=CARTESIAN_POINT('',(899.50753,218.74262,822.));
#1098=VERTEX_POINT('',#1097);
#1099=DIRECTION('',(0.,0.,1.));
#1100=VECTOR('',#1099,22.);
#1101=LINE('',#1090,#1100);
#1102=EDGE_CURVE('',#1091,#1098,#1101,.T.);
#1103=ORIENTED_EDGE('',*,*,#1102,.T.);
#1104=DIRECTION('',(0.23345,0.97237,0.));
#1105=VECTOR('',#1104,6.27673);
#1106=LINE('',#1069,#1105);
#1107=EDGE_CURVE('',#1070,#1098,#1106,.T.);
#1108=ORIENTED_EDGE('',*,*,#1107,.F.);
#1109=ORIENTED_EDGE('',*,*,#1074,.F.);
#1110=EDGE_LOOP('',(#1096,#1103,#1108,#1109));
#1111=FACE_OUTER_BOUND('',#1110,.T.);
#1112=CARTESIAN_POINT('',(898.04226,212.63932,800.));
#1113=DIRECTION('',(0.97237,-0.23345,0.));
#1114=DIRECTION('',(0.23345,0.97237,0.));
#1115=AXIS2_PLACEMENT_3D('',#1112,#1113,#1114);
#1116=PLANE('',#1115);
#1117=ADVANCED_FACE('',(#1111),#1116,.T.);
#1118=DIRECTION('',(-0.07846,-0.99692,0.));
#1119=VECTOR('',#1118,6.27673);
#1120=LINE('',#18,#1119);
#1121=EDGE_CURVE('',#19,#1091,#1120,.T.);
#1122=ORIENTED_EDGE('',*,*,#1121,.F.);
#1123=ORIENTED_EDGE('',*,*,#44,.T.);
#1124=DIRECTION('',(-0.07846,-0.99692,0.));
#1125=VECTOR('',#1124,6.27673);
#1126=LINE('',#34,#1125);
#1127=EDGE_CURVE('',#35,#1098,#1126,.T.);
#1128=ORIENTED_EDGE('',*,*,#1127,.T.);
#1129=ORIENTED_EDGE('',*,*,#1102,.F.);
#1130=EDGE_LOOP('',(#1122,#1123,#1128,#1129));
#1131=FACE_OUTER_BOUND('',#1130,.T.);
#1132=CARTESIAN_POINT('',(899.50753,218.74262,800.));
#1133=DIRECTION('',(0.99692,-0.07846,0.));
#1134=DIRECTION('',(0.07846,0.99692,0.));
#1135=AXIS2_PLACEMENT_3D('',#1132,#1133,#1134);
#1136=PLANE('',#1135);
#1137=ADVANCED_FACE('',(#1131),#1136,.T.);
#1138=ORIENTED_EDGE('',*,*,#1095,.F.);
#1139=ORIENTED_EDGE('',*,*,#1067,.F.);
#1140=ORIENTED_EDGE('',*,*,#1039,.F.);
#1141=ORIENTED_EDGE('',*,*,#1011,.F.);
#1142=ORIENTED_EDGE('',*,*,#983,.F.);
#1143=ORIENTED_EDGE('',*,*,#955,.F.);
#1144=ORIENTED_EDGE('',*,*,#927,.F.);
#1145=ORIENTED_EDGE('',*,*,#899,.F.);
#1146=ORIENTED_EDGE('',*,*,#871,.F.);
#1147=ORIENTED_EDGE('',*,*,#843,.F.);
#1148=ORIENTED_EDGE('',*,*,#815,.F.);
#1149=ORIENTED_EDGE('',*,*,#787,.F.);
#1150=ORIENTED_EDGE('',*,*,#759,.F.);
#1151=ORIENTED_EDGE('',*,*,#731,.F.);
#1152=ORIENTED_EDGE('',*,*,#703,.F.);
#1153=ORIENTED_EDGE('',*,*,#675,.F.);
#1154=ORIENTED_EDGE('',*,*,#647,.F.);
#1155=ORIENTED_EDGE('',*,*,#619,.F.);
#1156=ORIENTED_EDGE('',*,*,#591,.F.);
#1157=ORIENTED_EDGE('',*,*,#563,.F.);
#1158=ORIENTED_EDGE('',*,*,#535,.F.);
#1159=ORIENTED_EDGE('',*,*,#507,.F.);
#1160=ORIENTED_EDGE('',*,*,#479,.F.);
#1161=ORIENTED_EDGE('',*,*,#451,.F.);
#1162=ORIENTED_EDGE('',*,*,#423,.F.);
#1163=ORIENTED_EDGE('',*,*,#395,.F.);
#1164=ORIENTED_EDGE('',*,*,#367,.F.);
#1165=ORIENTED_EDGE('',*,*,#339,.F.);
#1166=ORIENTED_EDGE('',*,*,#311,.F.);
#1167=ORIENTED_EDGE('',*,*,#283,.F.);
#1168=ORIENTED_EDGE('',*,*,#255,.F.);
#1169=ORIENTED_EDGE('',*,*,#227,.F.);
#1170=ORIENTED_EDGE('',*,*,#199,.F.);
#1171=ORIENTED_EDGE('',*,*,#171,.F.);
#1172=ORIENTED_EDGE('',*,*,#143,.F.);
#1173=ORIENTED_EDGE('',*,*,#115,.F.);
#1174=ORIENTED_EDGE('',*,*,#87,.F.);
#1175=ORIENTED_EDGE('',*,*,#59,.F.);
#1176=ORIENTED_EDGE('',*,*,#25,.F.);
#1177=ORIENTED_EDGE('',*,*,#1121,.T.);
#1178=EDGE_LOOP('',(#1138,#1139,#1140,#1141,#1142,#1143,#1144,#1145,#1146,#1147,#1148,#1149,#1150,#1151,#1152,#1153,#1154,#1155,#1156,#1157,#1158,#1159,#1160,#1161,#1162,#1163,#1164,#1165,#1166,#1167,#1168,#1169,#1170,#1171,#1172,#1173,#1174,#1175,#1176,#1177));
#1179=FACE_OUTER_BOUND('',#1178,.T.);
#1180=CARTESIAN_POINT('',(899.50753,218.74262,800.));
#1181=DIRECTION('',(0.,0.,-1.));
#1182=DIRECTION('',(-0.23345,-0.97237,0.));
#1183=AXIS2_PLACEMENT_3D('',#1180,#1181,#1182);
#1184=PLANE('',#1183);
#1185=ADVANCED_FACE('',(#1179),#1184,.T.);
#1186=ORIENTED_EDGE('',*,*,#39,.T.);
#1187=ORIENTED_EDGE('',*,*,#71,.T.);
#1188=ORIENTED_EDGE('',*,*,#99,.T.);
#1189=ORIENTED_EDGE('',*,*,#127,.T.);
#1190=ORIENTED_EDGE('',*,*,#155,.T.);
#1191=ORIENTED_EDGE('',*,*,#183,.T.);
#1192=ORIENTED_EDGE('',*,*,#211,.T.);
#1193=ORIENTED_EDGE('',*,*,#239,.T.);
#1194=ORIENTED_EDGE('',*,*,#267,.T.);
#1195=ORIENTED_EDGE('',*,*,#295,.T.);
#1196=ORIENTED_EDGE('',*,*,#323,.T.);
#1197=ORIENTED_EDGE('',*,*,#351,.T.);
#1198=ORIENTED_EDGE('',*,*,#379,.T.);
#1199=ORIENTED_EDGE('',*,*,#407,.T.);
#1200=ORIENTED_EDGE('',*,*,#435,.T.);
#1201=ORIENTED_EDGE('',*,*,#463,.T.);
#1202=ORIENTED_EDGE('',*,*,#491,.T.);
#1203=ORIENTED_EDGE('',*,*,#519,.T.);
#1204=ORIENTED_EDGE('',*,*,#547,.T.);
#1205=ORIENTED_EDGE('',*,*,#575,.T.);
#1206=ORIENTED_EDGE('',*,*,#603,.T.);
#1207=ORIENTED_EDGE('',*,*,#631,.T.);
#1208=ORIENTED_EDGE('',*,*,#659,.T.);
#1209=ORIENTED_EDGE('',*,*,#687,.T.);
#1210=ORIENTED_EDGE('',*,*,#715,.T.);
#1211=ORIENTED_EDGE('',*,*,#743,.T.);
#1212=ORIENTED_EDGE('',*,*,#771,.T.);
#1213=ORIENTED_EDGE('',*,*,#799,.T.);
#1214=ORIENTED_EDGE('',*,*,#827,.T.);
#1215=ORIENTED_EDGE('',*,*,#855,.T.);
#1216=ORIENTED_EDGE('',*,*,#883,.T.);
#1217=ORIENTED_EDGE('',*,*,#911,.T.);
#1218=ORIENTED_EDGE('',*,*,#939,.T.);
#1219=ORIENTED_EDGE('',*,*,#967,.T.);
#1220=ORIENTED_EDGE('',*,*,#995,.T.);
#1221=ORIENTED_EDGE('',*,*,#1023,.T.);
#1222=ORIENTED_EDGE('',*,*,#1051,.T.);
#1223=ORIENTED_EDGE('',*,*,#1079,.T.);
#1224=ORIENTED_EDGE('',*,*,#1107,.T.);
#1225=ORIENTED_EDGE('',*,*,#1127,.F.);
#1226=EDGE_LOOP('',(#1186,#1187,#1188,#1189,#1190,#1191,#1192,#1193,#1194,#1195,#1196,#1197,#1198,#1199,#1200,#1201,#1202,#1203,#1204,#1205,#1206,#1207,#1208,#1209,#1210,#1211,#1212,#1213,#1214,#1215,#1216,#1217,#1218,#1219,#1220,#1221,#1222,#1223,#1224,#1225));
#1227=FACE_OUTER_BOUND('',#1226,.T.);
#1228=CARTESIAN_POINT('',(900.,225.,822.));
#1229=DIRECTION('',(0.,0.,1.));
#1230=DIRECTION('',(-0.07846,0.99692,0.));
#1231=AXIS2_PLACEMENT_3D('',#1228,#1229,#1230);
#1232=PLANE('',#1231);
#1233=ADVANCED_FACE('',(#1227),#1232,.T.);
#1234=CLOSED_SHELL('',(#53,#81,#109,#137,#165,#193,#221,#249,#277,#305,#333,#361,#389,#417,#445,#473,#501,#529,#557,#585,#613,#641,#669,#697,#725,#753,#781,#809,#837,#865,#893,#921,#949,#977,#1005,#1033,#1061,#1089,#1117,#1137,#1185,#1233));
#1235=MANIFOLD_SOLID_BREP('',#1234);
#1236=COLOUR_RGB('',0.3,0.32,0.34);
#1237=FILL_AREA_STYLE_COLOUR('',#1236);
#1238=FILL_AREA_STYLE('',(#1237));
#1239=SURFACE_STYLE_FILL_AREA(#1238);
#1240=SURFACE_SIDE_STYLE('',(#1239));
#1241=SURFACE_STYLE_USAGE(.BOTH.,#1240);
#1242=PRESENTATION_STYLE_ASSIGNMENT((#1241));
#1243=STYLED_ITEM('color',(#1242),#1235);
#1244=ADVANCED_BREP_SHAPE_REPRESENTATION('',(#17,#1235),#9);
#1245=SHAPE_DEFINITION_REPRESENTATION(#13,#1244);
#1246=MECHANICAL_DESIGN_GEOMETRIC_PRESENTATION_REPRESENTATION('',(#1243),#9);
#1247=PRODUCT_RELATED_PRODUCT_CATEGORY('part',$,(#10));
ENDSEC;
END-ISO-10303-21;
