ISO-10303-21;
HEADER;
FILE_DESCRIPTION(('AquaSentinel R3 - planar B-rep export'),'2;1');
FILE_NAME('Bottle carousel (lift-out cassette)','2026-10-04T21:49:43',('AquaSentinel team'),('Sanjivani University'),'AquaSentinel R3 python build','AquaSentinel R3','');
FILE_SCHEMA(('AUTOMOTIVE_DESIGN { 1 0 10303 214 1 1 1 1 }'));
ENDSEC;
DATA;
#1=APPLICATION_CONTEXT('core data for automotive mechanical design processes');
#2=APPLICATION_PROTOCOL_DEFINITION('international standard','automotive_design',2000,#1);
#3=PRODUCT_CONTEXT('',#1,'mechanical');
#4=PRODUCT_DEFINITION_CONTEXT('part definition',#1,'design');
#5=(LENGTH_UNIT()NAMED_UNIT(*)SI_UNIT(.MILLI.,.METRE.));
#6=(NAMED_UNIT(*)PLANE_ANGLE_UNIT()SI_UNIT($,.RADIAN.));
#7=(NAMED_UNIT(*)SI_UNIT($,.STERADIAN.)SOLID_ANGLE_UNIT());
#8=UNCERTAINTY_MEASURE_WITH_UNIT(LENGTH_MEASURE(1.E-04),#5,'distance_accuracy_value','confusion accuracy');
#9=(GEOMETRIC_REPRESENTATION_CONTEXT(3)GLOBAL_UNCERTAINTY_ASSIGNED_CONTEXT((#8))GLOBAL_UNIT_ASSIGNED_CONTEXT((#5,#6,#7))REPRESENTATION_CONTEXT('Context','3D Context with UNIT and UNCERTAINTY'));
#10=PRODUCT('AS3-603','Bottle carousel (lift-out cassette)','',(#3));
#11=PRODUCT_DEFINITION_FORMATION('','',#10);
#12=PRODUCT_DEFINITION('design','',#11,#4);
#13=PRODUCT_DEFINITION_SHAPE('','',#12);
#14=CARTESIAN_POINT('',(0.,0.,0.));
#15=DIRECTION('',(0.,0.,1.));
#16=DIRECTION('',(1.,0.,0.));
#17=AXIS2_PLACEMENT_3D('',#14,#15,#16);
#18=CARTESIAN_POINT('',(843.5,0.,317.));
#19=VERTEX_POINT('',#18);
#20=CARTESIAN_POINT('',(842.76426,11.22525,317.));
#21=VERTEX_POINT('',#20);
#22=DIRECTION('',(-0.0654,0.99786,0.));
#23=VECTOR('',#22,11.24934);
#24=LINE('',#18,#23);
#25=EDGE_CURVE('',#19,#21,#24,.T.);
#26=ORIENTED_EDGE('',*,*,#25,.T.);
#27=CARTESIAN_POINT('',(842.76426,11.22525,323.));
#28=VERTEX_POINT('',#27);
#29=DIRECTION('',(0.,0.,1.));
#30=VECTOR('',#29,6.);
#31=LINE('',#20,#30);
#32=EDGE_CURVE('',#21,#28,#31,.T.);
#33=ORIENTED_EDGE('',*,*,#32,.T.);
#34=CARTESIAN_POINT('',(843.5,0.,323.));
#35=VERTEX_POINT('',#34);
#36=DIRECTION('',(-0.0654,0.99786,0.));
#37=VECTOR('',#36,11.24934);
#38=LINE('',#34,#37);
#39=EDGE_CURVE('',#35,#28,#38,.T.);
#40=ORIENTED_EDGE('',*,*,#39,.F.);
#41=DIRECTION('',(0.,0.,1.));
#42=VECTOR('',#41,6.);
#43=LINE('',#18,#42);
#44=EDGE_CURVE('',#19,#35,#43,.T.);
#45=ORIENTED_EDGE('',*,*,#44,.F.);
#46=EDGE_LOOP('',(#26,#33,#40,#45));
#47=FACE_OUTER_BOUND('',#46,.T.);
#48=CARTESIAN_POINT('',(843.5,0.,317.));
#49=DIRECTION('',(0.99786,0.0654,0.));
#50=DIRECTION('',(-0.0654,0.99786,0.));
#51=AXIS2_PLACEMENT_3D('',#48,#49,#50);
#52=PLANE('',#51);
#53=ADVANCED_FACE('',(#47),#52,.T.);
#54=CARTESIAN_POINT('',(840.56962,22.25844,317.));
#55=VERTEX_POINT('',#54);
#56=DIRECTION('',(-0.19509,0.98079,0.));
#57=VECTOR('',#56,11.24934);
#58=LINE('',#20,#57);
#59=EDGE_CURVE('',#21,#55,#58,.T.);
#60=ORIENTED_EDGE('',*,*,#59,.T.);
#61=CARTESIAN_POINT('',(840.56962,22.25844,323.));
#62=VERTEX_POINT('',#61);
#63=DIRECTION('',(0.,0.,1.));
#64=VECTOR('',#63,6.);
#65=LINE('',#54,#64);
#66=EDGE_CURVE('',#55,#62,#65,.T.);
#67=ORIENTED_EDGE('',*,*,#66,.T.);
#68=DIRECTION('',(-0.19509,0.98079,0.));
#69=VECTOR('',#68,11.24934);
#70=LINE('',#27,#69);
#71=EDGE_CURVE('',#28,#62,#70,.T.);
#72=ORIENTED_EDGE('',*,*,#71,.F.);
#73=ORIENTED_EDGE('',*,*,#32,.F.);
#74=EDGE_LOOP('',(#60,#67,#72,#73));
#75=FACE_OUTER_BOUND('',#74,.T.);
#76=CARTESIAN_POINT('',(842.76426,11.22525,317.));
#77=DIRECTION('',(0.98079,0.19509,0.));
#78=DIRECTION('',(-0.19509,0.98079,0.));
#79=AXIS2_PLACEMENT_3D('',#76,#77,#78);
#80=PLANE('',#79);
#81=ADVANCED_FACE('',(#75),#80,.T.);
#82=CARTESIAN_POINT('',(836.95364,32.91078,317.));
#83=VERTEX_POINT('',#82);
#84=DIRECTION('',(-0.32144,0.94693,0.));
#85=VECTOR('',#84,11.24934);
#86=LINE('',#54,#85);
#87=EDGE_CURVE('',#55,#83,#86,.T.);
#88=ORIENTED_EDGE('',*,*,#87,.T.);
#89=CARTESIAN_POINT('',(836.95364,32.91078,323.));
#90=VERTEX_POINT('',#89);
#91=DIRECTION('',(0.,0.,1.));
#92=VECTOR('',#91,6.);
#93=LINE('',#82,#92);
#94=EDGE_CURVE('',#83,#90,#93,.T.);
#95=ORIENTED_EDGE('',*,*,#94,.T.);
#96=DIRECTION('',(-0.32144,0.94693,0.));
#97=VECTOR('',#96,11.24934);
#98=LINE('',#61,#97);
#99=EDGE_CURVE('',#62,#90,#98,.T.);
#100=ORIENTED_EDGE('',*,*,#99,.F.);
#101=ORIENTED_EDGE('',*,*,#66,.F.);
#102=EDGE_LOOP('',(#88,#95,#100,#101));
#103=FACE_OUTER_BOUND('',#102,.T.);
#104=CARTESIAN_POINT('',(840.56962,22.25844,317.));
#105=DIRECTION('',(0.94693,0.32144,0.));
#106=DIRECTION('',(-0.32144,0.94693,0.));
#107=AXIS2_PLACEMENT_3D('',#104,#105,#106);
#108=PLANE('',#107);
#109=ADVANCED_FACE('',(#103),#108,.T.);
#110=CARTESIAN_POINT('',(831.97818,43.,317.));
#111=VERTEX_POINT('',#110);
#112=DIRECTION('',(-0.44229,0.89687,0.));
#113=VECTOR('',#112,11.24934);
#114=LINE('',#82,#113);
#115=EDGE_CURVE('',#83,#111,#114,.T.);
#116=ORIENTED_EDGE('',*,*,#115,.T.);
#117=CARTESIAN_POINT('',(831.97818,43.,323.));
#118=VERTEX_POINT('',#117);
#119=DIRECTION('',(0.,0.,1.));
#120=VECTOR('',#119,6.);
#121=LINE('',#110,#120);
#122=EDGE_CURVE('',#111,#118,#121,.T.);
#123=ORIENTED_EDGE('',*,*,#122,.T.);
#124=DIRECTION('',(-0.44229,0.89687,0.));
#125=VECTOR('',#124,11.24934);
#126=LINE('',#89,#125);
#127=EDGE_CURVE('',#90,#118,#126,.T.);
#128=ORIENTED_EDGE('',*,*,#127,.F.);
#129=ORIENTED_EDGE('',*,*,#94,.F.);
#130=EDGE_LOOP('',(#116,#123,#128,#129));
#131=FACE_OUTER_BOUND('',#130,.T.);
#132=CARTESIAN_POINT('',(836.95364,32.91078,317.));
#133=DIRECTION('',(0.89687,0.44229,0.));
#134=DIRECTION('',(-0.44229,0.89687,0.));
#135=AXIS2_PLACEMENT_3D('',#132,#133,#134);
#136=PLANE('',#135);
#137=ADVANCED_FACE('',(#131),#136,.T.);
#138=CARTESIAN_POINT('',(825.72839,52.35348,317.));
#139=VERTEX_POINT('',#138);
#140=DIRECTION('',(-0.55557,0.83147,0.));
#141=VECTOR('',#140,11.24934);
#142=LINE('',#110,#141);
#143=EDGE_CURVE('',#111,#139,#142,.T.);
#144=ORIENTED_EDGE('',*,*,#143,.T.);
#145=CARTESIAN_POINT('',(825.72839,52.35348,323.));
#146=VERTEX_POINT('',#145);
#147=DIRECTION('',(0.,0.,1.));
#148=VECTOR('',#147,6.);
#149=LINE('',#138,#148);
#150=EDGE_CURVE('',#139,#146,#149,.T.);
#151=ORIENTED_EDGE('',*,*,#150,.T.);
#152=DIRECTION('',(-0.55557,0.83147,0.));
#153=VECTOR('',#152,11.24934);
#154=LINE('',#117,#153);
#155=EDGE_CURVE('',#118,#146,#154,.T.);
#156=ORIENTED_EDGE('',*,*,#155,.F.);
#157=ORIENTED_EDGE('',*,*,#122,.F.);
#158=EDGE_LOOP('',(#144,#151,#156,#157));
#159=FACE_OUTER_BOUND('',#158,.T.);
#160=CARTESIAN_POINT('',(831.97818,43.,317.));
#161=DIRECTION('',(0.83147,0.55557,0.));
#162=DIRECTION('',(-0.55557,0.83147,0.));
#163=AXIS2_PLACEMENT_3D('',#160,#161,#162);
#164=PLANE('',#163);
#165=ADVANCED_FACE('',(#159),#164,.T.);
#166=CARTESIAN_POINT('',(818.31118,60.81118,317.));
#167=VERTEX_POINT('',#166);
#168=DIRECTION('',(-0.65935,0.75184,0.));
#169=VECTOR('',#168,11.24934);
#170=LINE('',#138,#169);
#171=EDGE_CURVE('',#139,#167,#170,.T.);
#172=ORIENTED_EDGE('',*,*,#171,.T.);
#173=CARTESIAN_POINT('',(818.31118,60.81118,323.));
#174=VERTEX_POINT('',#173);
#175=DIRECTION('',(0.,0.,1.));
#176=VECTOR('',#175,6.);
#177=LINE('',#166,#176);
#178=EDGE_CURVE('',#167,#174,#177,.T.);
#179=ORIENTED_EDGE('',*,*,#178,.T.);
#180=DIRECTION('',(-0.65935,0.75184,0.));
#181=VECTOR('',#180,11.24934);
#182=LINE('',#145,#181);
#183=EDGE_CURVE('',#146,#174,#182,.T.);
#184=ORIENTED_EDGE('',*,*,#183,.F.);
#185=ORIENTED_EDGE('',*,*,#150,.F.);
#186=EDGE_LOOP('',(#172,#179,#184,#185));
#187=FACE_OUTER_BOUND('',#186,.T.);
#188=CARTESIAN_POINT('',(825.72839,52.35348,317.));
#189=DIRECTION('',(0.75184,0.65935,0.));
#190=DIRECTION('',(-0.65935,0.75184,0.));
#191=AXIS2_PLACEMENT_3D('',#188,#189,#190);
#192=PLANE('',#191);
#193=ADVANCED_FACE('',(#187),#192,.T.);
#194=CARTESIAN_POINT('',(809.85348,68.22839,317.));
#195=VERTEX_POINT('',#194);
#196=DIRECTION('',(-0.75184,0.65935,0.));
#197=VECTOR('',#196,11.24934);
#198=LINE('',#166,#197);
#199=EDGE_CURVE('',#167,#195,#198,.T.);
#200=ORIENTED_EDGE('',*,*,#199,.T.);
#201=CARTESIAN_POINT('',(809.85348,68.22839,323.));
#202=VERTEX_POINT('',#201);
#203=DIRECTION('',(0.,0.,1.));
#204=VECTOR('',#203,6.);
#205=LINE('',#194,#204);
#206=EDGE_CURVE('',#195,#202,#205,.T.);
#207=ORIENTED_EDGE('',*,*,#206,.T.);
#208=DIRECTION('',(-0.75184,0.65935,0.));
#209=VECTOR('',#208,11.24934);
#210=LINE('',#173,#209);
#211=EDGE_CURVE('',#174,#202,#210,.T.);
#212=ORIENTED_EDGE('',*,*,#211,.F.);
#213=ORIENTED_EDGE('',*,*,#178,.F.);
#214=EDGE_LOOP('',(#200,#207,#212,#213));
#215=FACE_OUTER_BOUND('',#214,.T.);
#216=CARTESIAN_POINT('',(818.31118,60.81118,317.));
#217=DIRECTION('',(0.65935,0.75184,0.));
#218=DIRECTION('',(-0.75184,0.65935,0.));
#219=AXIS2_PLACEMENT_3D('',#216,#217,#218);
#220=PLANE('',#219);
#221=ADVANCED_FACE('',(#215),#220,.T.);
#222=CARTESIAN_POINT('',(800.5,74.47818,317.));
#223=VERTEX_POINT('',#222);
#224=DIRECTION('',(-0.83147,0.55557,0.));
#225=VECTOR('',#224,11.24934);
#226=LINE('',#194,#225);
#227=EDGE_CURVE('',#195,#223,#226,.T.);
#228=ORIENTED_EDGE('',*,*,#227,.T.);
#229=CARTESIAN_POINT('',(800.5,74.47818,323.));
#230=VERTEX_POINT('',#229);
#231=DIRECTION('',(0.,0.,1.));
#232=VECTOR('',#231,6.);
#233=LINE('',#222,#232);
#234=EDGE_CURVE('',#223,#230,#233,.T.);
#235=ORIENTED_EDGE('',*,*,#234,.T.);
#236=DIRECTION('',(-0.83147,0.55557,0.));
#237=VECTOR('',#236,11.24934);
#238=LINE('',#201,#237);
#239=EDGE_CURVE('',#202,#230,#238,.T.);
#240=ORIENTED_EDGE('',*,*,#239,.F.);
#241=ORIENTED_EDGE('',*,*,#206,.F.);
#242=EDGE_LOOP('',(#228,#235,#240,#241));
#243=FACE_OUTER_BOUND('',#242,.T.);
#244=CARTESIAN_POINT('',(809.85348,68.22839,317.));
#245=DIRECTION('',(0.55557,0.83147,0.));
#246=DIRECTION('',(-0.83147,0.55557,0.));
#247=AXIS2_PLACEMENT_3D('',#244,#245,#246);
#248=PLANE('',#247);
#249=ADVANCED_FACE('',(#243),#248,.T.);
#250=CARTESIAN_POINT('',(790.41078,79.45364,317.));
#251=VERTEX_POINT('',#250);
#252=DIRECTION('',(-0.89687,0.44229,0.));
#253=VECTOR('',#252,11.24934);
#254=LINE('',#222,#253);
#255=EDGE_CURVE('',#223,#251,#254,.T.);
#256=ORIENTED_EDGE('',*,*,#255,.T.);
#257=CARTESIAN_POINT('',(790.41078,79.45364,323.));
#258=VERTEX_POINT('',#257);
#259=DIRECTION('',(0.,0.,1.));
#260=VECTOR('',#259,6.);
#261=LINE('',#250,#260);
#262=EDGE_CURVE('',#251,#258,#261,.T.);
#263=ORIENTED_EDGE('',*,*,#262,.T.);
#264=DIRECTION('',(-0.89687,0.44229,0.));
#265=VECTOR('',#264,11.24934);
#266=LINE('',#229,#265);
#267=EDGE_CURVE('',#230,#258,#266,.T.);
#268=ORIENTED_EDGE('',*,*,#267,.F.);
#269=ORIENTED_EDGE('',*,*,#234,.F.);
#270=EDGE_LOOP('',(#256,#263,#268,#269));
#271=FACE_OUTER_BOUND('',#270,.T.);
#272=CARTESIAN_POINT('',(800.5,74.47818,317.));
#273=DIRECTION('',(0.44229,0.89687,0.));
#274=DIRECTION('',(-0.89687,0.44229,0.));
#275=AXIS2_PLACEMENT_3D('',#272,#273,#274);
#276=PLANE('',#275);
#277=ADVANCED_FACE('',(#271),#276,.T.);
#278=CARTESIAN_POINT('',(779.75844,83.06962,317.));
#279=VERTEX_POINT('',#278);
#280=DIRECTION('',(-0.94693,0.32144,0.));
#281=VECTOR('',#280,11.24934);
#282=LINE('',#250,#281);
#283=EDGE_CURVE('',#251,#279,#282,.T.);
#284=ORIENTED_EDGE('',*,*,#283,.T.);
#285=CARTESIAN_POINT('',(779.75844,83.06962,323.));
#286=VERTEX_POINT('',#285);
#287=DIRECTION('',(0.,0.,1.));
#288=VECTOR('',#287,6.);
#289=LINE('',#278,#288);
#290=EDGE_CURVE('',#279,#286,#289,.T.);
#291=ORIENTED_EDGE('',*,*,#290,.T.);
#292=DIRECTION('',(-0.94693,0.32144,0.));
#293=VECTOR('',#292,11.24934);
#294=LINE('',#257,#293);
#295=EDGE_CURVE('',#258,#286,#294,.T.);
#296=ORIENTED_EDGE('',*,*,#295,.F.);
#297=ORIENTED_EDGE('',*,*,#262,.F.);
#298=EDGE_LOOP('',(#284,#291,#296,#297));
#299=FACE_OUTER_BOUND('',#298,.T.);
#300=CARTESIAN_POINT('',(790.41078,79.45364,317.));
#301=DIRECTION('',(0.32144,0.94693,0.));
#302=DIRECTION('',(-0.94693,0.32144,0.));
#303=AXIS2_PLACEMENT_3D('',#300,#301,#302);
#304=PLANE('',#303);
#305=ADVANCED_FACE('',(#299),#304,.T.);
#306=CARTESIAN_POINT('',(768.72525,85.26426,317.));
#307=VERTEX_POINT('',#306);
#308=DIRECTION('',(-0.98079,0.19509,0.));
#309=VECTOR('',#308,11.24934);
#310=LINE('',#278,#309);
#311=EDGE_CURVE('',#279,#307,#310,.T.);
#312=ORIENTED_EDGE('',*,*,#311,.T.);
#313=CARTESIAN_POINT('',(768.72525,85.26426,323.));
#314=VERTEX_POINT('',#313);
#315=DIRECTION('',(0.,0.,1.));
#316=VECTOR('',#315,6.);
#317=LINE('',#306,#316);
#318=EDGE_CURVE('',#307,#314,#317,.T.);
#319=ORIENTED_EDGE('',*,*,#318,.T.);
#320=DIRECTION('',(-0.98079,0.19509,0.));
#321=VECTOR('',#320,11.24934);
#322=LINE('',#285,#321);
#323=EDGE_CURVE('',#286,#314,#322,.T.);
#324=ORIENTED_EDGE('',*,*,#323,.F.);
#325=ORIENTED_EDGE('',*,*,#290,.F.);
#326=EDGE_LOOP('',(#312,#319,#324,#325));
#327=FACE_OUTER_BOUND('',#326,.T.);
#328=CARTESIAN_POINT('',(779.75844,83.06962,317.));
#329=DIRECTION('',(0.19509,0.98079,0.));
#330=DIRECTION('',(-0.98079,0.19509,0.));
#331=AXIS2_PLACEMENT_3D('',#328,#329,#330);
#332=PLANE('',#331);
#333=ADVANCED_FACE('',(#327),#332,.T.);
#334=CARTESIAN_POINT('',(757.5,86.,317.));
#335=VERTEX_POINT('',#334);
#336=DIRECTION('',(-0.99786,0.0654,0.));
#337=VECTOR('',#336,11.24934);
#338=LINE('',#306,#337);
#339=EDGE_CURVE('',#307,#335,#338,.T.);
#340=ORIENTED_EDGE('',*,*,#339,.T.);
#341=CARTESIAN_POINT('',(757.5,86.,323.));
#342=VERTEX_POINT('',#341);
#343=DIRECTION('',(0.,0.,1.));
#344=VECTOR('',#343,6.);
#345=LINE('',#334,#344);
#346=EDGE_CURVE('',#335,#342,#345,.T.);
#347=ORIENTED_EDGE('',*,*,#346,.T.);
#348=DIRECTION('',(-0.99786,0.0654,0.));
#349=VECTOR('',#348,11.24934);
#350=LINE('',#313,#349);
#351=EDGE_CURVE('',#314,#342,#350,.T.);
#352=ORIENTED_EDGE('',*,*,#351,.F.);
#353=ORIENTED_EDGE('',*,*,#318,.F.);
#354=EDGE_LOOP('',(#340,#347,#352,#353));
#355=FACE_OUTER_BOUND('',#354,.T.);
#356=CARTESIAN_POINT('',(768.72525,85.26426,317.));
#357=DIRECTION('',(0.0654,0.99786,0.));
#358=DIRECTION('',(-0.99786,0.0654,0.));
#359=AXIS2_PLACEMENT_3D('',#356,#357,#358);
#360=PLANE('',#359);
#361=ADVANCED_FACE('',(#355),#360,.T.);
#362=CARTESIAN_POINT('',(746.27475,85.26426,317.));
#363=VERTEX_POINT('',#362);
#364=DIRECTION('',(-0.99786,-0.0654,0.));
#365=VECTOR('',#364,11.24934);
#366=LINE('',#334,#365);
#367=EDGE_CURVE('',#335,#363,#366,.T.);
#368=ORIENTED_EDGE('',*,*,#367,.T.);
#369=CARTESIAN_POINT('',(746.27475,85.26426,323.));
#370=VERTEX_POINT('',#369);
#371=DIRECTION('',(0.,0.,1.));
#372=VECTOR('',#371,6.);
#373=LINE('',#362,#372);
#374=EDGE_CURVE('',#363,#370,#373,.T.);
#375=ORIENTED_EDGE('',*,*,#374,.T.);
#376=DIRECTION('',(-0.99786,-0.0654,0.));
#377=VECTOR('',#376,11.24934);
#378=LINE('',#341,#377);
#379=EDGE_CURVE('',#342,#370,#378,.T.);
#380=ORIENTED_EDGE('',*,*,#379,.F.);
#381=ORIENTED_EDGE('',*,*,#346,.F.);
#382=EDGE_LOOP('',(#368,#375,#380,#381));
#383=FACE_OUTER_BOUND('',#382,.T.);
#384=CARTESIAN_POINT('',(757.5,86.,317.));
#385=DIRECTION('',(-0.0654,0.99786,0.));
#386=DIRECTION('',(-0.99786,-0.0654,0.));
#387=AXIS2_PLACEMENT_3D('',#384,#385,#386);
#388=PLANE('',#387);
#389=ADVANCED_FACE('',(#383),#388,.T.);
#390=CARTESIAN_POINT('',(735.24156,83.06962,317.));
#391=VERTEX_POINT('',#390);
#392=DIRECTION('',(-0.98079,-0.19509,0.));
#393=VECTOR('',#392,11.24934);
#394=LINE('',#362,#393);
#395=EDGE_CURVE('',#363,#391,#394,.T.);
#396=ORIENTED_EDGE('',*,*,#395,.T.);
#397=CARTESIAN_POINT('',(735.24156,83.06962,323.));
#398=VERTEX_POINT('',#397);
#399=DIRECTION('',(0.,0.,1.));
#400=VECTOR('',#399,6.);
#401=LINE('',#390,#400);
#402=EDGE_CURVE('',#391,#398,#401,.T.);
#403=ORIENTED_EDGE('',*,*,#402,.T.);
#404=DIRECTION('',(-0.98079,-0.19509,0.));
#405=VECTOR('',#404,11.24934);
#406=LINE('',#369,#405);
#407=EDGE_CURVE('',#370,#398,#406,.T.);
#408=ORIENTED_EDGE('',*,*,#407,.F.);
#409=ORIENTED_EDGE('',*,*,#374,.F.);
#410=EDGE_LOOP('',(#396,#403,#408,#409));
#411=FACE_OUTER_BOUND('',#410,.T.);
#412=CARTESIAN_POINT('',(746.27475,85.26426,317.));
#413=DIRECTION('',(-0.19509,0.98079,0.));
#414=DIRECTION('',(-0.98079,-0.19509,0.));
#415=AXIS2_PLACEMENT_3D('',#412,#413,#414);
#416=PLANE('',#415);
#417=ADVANCED_FACE('',(#411),#416,.T.);
#418=CARTESIAN_POINT('',(724.58922,79.45364,317.));
#419=VERTEX_POINT('',#418);
#420=DIRECTION('',(-0.94693,-0.32144,0.));
#421=VECTOR('',#420,11.24934);
#422=LINE('',#390,#421);
#423=EDGE_CURVE('',#391,#419,#422,.T.);
#424=ORIENTED_EDGE('',*,*,#423,.T.);
#425=CARTESIAN_POINT('',(724.58922,79.45364,323.));
#426=VERTEX_POINT('',#425);
#427=DIRECTION('',(0.,0.,1.));
#428=VECTOR('',#427,6.);
#429=LINE('',#418,#428);
#430=EDGE_CURVE('',#419,#426,#429,.T.);
#431=ORIENTED_EDGE('',*,*,#430,.T.);
#432=DIRECTION('',(-0.94693,-0.32144,0.));
#433=VECTOR('',#432,11.24934);
#434=LINE('',#397,#433);
#435=EDGE_CURVE('',#398,#426,#434,.T.);
#436=ORIENTED_EDGE('',*,*,#435,.F.);
#437=ORIENTED_EDGE('',*,*,#402,.F.);
#438=EDGE_LOOP('',(#424,#431,#436,#437));
#439=FACE_OUTER_BOUND('',#438,.T.);
#440=CARTESIAN_POINT('',(735.24156,83.06962,317.));
#441=DIRECTION('',(-0.32144,0.94693,0.));
#442=DIRECTION('',(-0.94693,-0.32144,0.));
#443=AXIS2_PLACEMENT_3D('',#440,#441,#442);
#444=PLANE('',#443);
#445=ADVANCED_FACE('',(#439),#444,.T.);
#446=CARTESIAN_POINT('',(714.5,74.47818,317.));
#447=VERTEX_POINT('',#446);
#448=DIRECTION('',(-0.89687,-0.44229,0.));
#449=VECTOR('',#448,11.24934);
#450=LINE('',#418,#449);
#451=EDGE_CURVE('',#419,#447,#450,.T.);
#452=ORIENTED_EDGE('',*,*,#451,.T.);
#453=CARTESIAN_POINT('',(714.5,74.47818,323.));
#454=VERTEX_POINT('',#453);
#455=DIRECTION('',(0.,0.,1.));
#456=VECTOR('',#455,6.);
#457=LINE('',#446,#456);
#458=EDGE_CURVE('',#447,#454,#457,.T.);
#459=ORIENTED_EDGE('',*,*,#458,.T.);
#460=DIRECTION('',(-0.89687,-0.44229,0.));
#461=VECTOR('',#460,11.24934);
#462=LINE('',#425,#461);
#463=EDGE_CURVE('',#426,#454,#462,.T.);
#464=ORIENTED_EDGE('',*,*,#463,.F.);
#465=ORIENTED_EDGE('',*,*,#430,.F.);
#466=EDGE_LOOP('',(#452,#459,#464,#465));
#467=FACE_OUTER_BOUND('',#466,.T.);
#468=CARTESIAN_POINT('',(724.58922,79.45364,317.));
#469=DIRECTION('',(-0.44229,0.89687,0.));
#470=DIRECTION('',(-0.89687,-0.44229,0.));
#471=AXIS2_PLACEMENT_3D('',#468,#469,#470);
#472=PLANE('',#471);
#473=ADVANCED_FACE('',(#467),#472,.T.);
#474=CARTESIAN_POINT('',(705.14652,68.22839,317.));
#475=VERTEX_POINT('',#474);
#476=DIRECTION('',(-0.83147,-0.55557,0.));
#477=VECTOR('',#476,11.24934);
#478=LINE('',#446,#477);
#479=EDGE_CURVE('',#447,#475,#478,.T.);
#480=ORIENTED_EDGE('',*,*,#479,.T.);
#481=CARTESIAN_POINT('',(705.14652,68.22839,323.));
#482=VERTEX_POINT('',#481);
#483=DIRECTION('',(0.,0.,1.));
#484=VECTOR('',#483,6.);
#485=LINE('',#474,#484);
#486=EDGE_CURVE('',#475,#482,#485,.T.);
#487=ORIENTED_EDGE('',*,*,#486,.T.);
#488=DIRECTION('',(-0.83147,-0.55557,0.));
#489=VECTOR('',#488,11.24934);
#490=LINE('',#453,#489);
#491=EDGE_CURVE('',#454,#482,#490,.T.);
#492=ORIENTED_EDGE('',*,*,#491,.F.);
#493=ORIENTED_EDGE('',*,*,#458,.F.);
#494=EDGE_LOOP('',(#480,#487,#492,#493));
#495=FACE_OUTER_BOUND('',#494,.T.);
#496=CARTESIAN_POINT('',(714.5,74.47818,317.));
#497=DIRECTION('',(-0.55557,0.83147,0.));
#498=DIRECTION('',(-0.83147,-0.55557,0.));
#499=AXIS2_PLACEMENT_3D('',#496,#497,#498);
#500=PLANE('',#499);
#501=ADVANCED_FACE('',(#495),#500,.T.);
#502=CARTESIAN_POINT('',(696.68882,60.81118,317.));
#503=VERTEX_POINT('',#502);
#504=DIRECTION('',(-0.75184,-0.65935,0.));
#505=VECTOR('',#504,11.24934);
#506=LINE('',#474,#505);
#507=EDGE_CURVE('',#475,#503,#506,.T.);
#508=ORIENTED_EDGE('',*,*,#507,.T.);
#509=CARTESIAN_POINT('',(696.68882,60.81118,323.));
#510=VERTEX_POINT('',#509);
#511=DIRECTION('',(0.,0.,1.));
#512=VECTOR('',#511,6.);
#513=LINE('',#502,#512);
#514=EDGE_CURVE('',#503,#510,#513,.T.);
#515=ORIENTED_EDGE('',*,*,#514,.T.);
#516=DIRECTION('',(-0.75184,-0.65935,0.));
#517=VECTOR('',#516,11.24934);
#518=LINE('',#481,#517);
#519=EDGE_CURVE('',#482,#510,#518,.T.);
#520=ORIENTED_EDGE('',*,*,#519,.F.);
#521=ORIENTED_EDGE('',*,*,#486,.F.);
#522=EDGE_LOOP('',(#508,#515,#520,#521));
#523=FACE_OUTER_BOUND('',#522,.T.);
#524=CARTESIAN_POINT('',(705.14652,68.22839,317.));
#525=DIRECTION('',(-0.65935,0.75184,0.));
#526=DIRECTION('',(-0.75184,-0.65935,0.));
#527=AXIS2_PLACEMENT_3D('',#524,#525,#526);
#528=PLANE('',#527);
#529=ADVANCED_FACE('',(#523),#528,.T.);
#530=CARTESIAN_POINT('',(689.27161,52.35348,317.));
#531=VERTEX_POINT('',#530);
#532=DIRECTION('',(-0.65935,-0.75184,0.));
#533=VECTOR('',#532,11.24934);
#534=LINE('',#502,#533);
#535=EDGE_CURVE('',#503,#531,#534,.T.);
#536=ORIENTED_EDGE('',*,*,#535,.T.);
#537=CARTESIAN_POINT('',(689.27161,52.35348,323.));
#538=VERTEX_POINT('',#537);
#539=DIRECTION('',(0.,0.,1.));
#540=VECTOR('',#539,6.);
#541=LINE('',#530,#540);
#542=EDGE_CURVE('',#531,#538,#541,.T.);
#543=ORIENTED_EDGE('',*,*,#542,.T.);
#544=DIRECTION('',(-0.65935,-0.75184,0.));
#545=VECTOR('',#544,11.24934);
#546=LINE('',#509,#545);
#547=EDGE_CURVE('',#510,#538,#546,.T.);
#548=ORIENTED_EDGE('',*,*,#547,.F.);
#549=ORIENTED_EDGE('',*,*,#514,.F.);
#550=EDGE_LOOP('',(#536,#543,#548,#549));
#551=FACE_OUTER_BOUND('',#550,.T.);
#552=CARTESIAN_POINT('',(696.68882,60.81118,317.));
#553=DIRECTION('',(-0.75184,0.65935,0.));
#554=DIRECTION('',(-0.65935,-0.75184,0.));
#555=AXIS2_PLACEMENT_3D('',#552,#553,#554);
#556=PLANE('',#555);
#557=ADVANCED_FACE('',(#551),#556,.T.);
#558=CARTESIAN_POINT('',(683.02182,43.,317.));
#559=VERTEX_POINT('',#558);
#560=DIRECTION('',(-0.55557,-0.83147,0.));
#561=VECTOR('',#560,11.24934);
#562=LINE('',#530,#561);
#563=EDGE_CURVE('',#531,#559,#562,.T.);
#564=ORIENTED_EDGE('',*,*,#563,.T.);
#565=CARTESIAN_POINT('',(683.02182,43.,323.));
#566=VERTEX_POINT('',#565);
#567=DIRECTION('',(0.,0.,1.));
#568=VECTOR('',#567,6.);
#569=LINE('',#558,#568);
#570=EDGE_CURVE('',#559,#566,#569,.T.);
#571=ORIENTED_EDGE('',*,*,#570,.T.);
#572=DIRECTION('',(-0.55557,-0.83147,0.));
#573=VECTOR('',#572,11.24934);
#574=LINE('',#537,#573);
#575=EDGE_CURVE('',#538,#566,#574,.T.);
#576=ORIENTED_EDGE('',*,*,#575,.F.);
#577=ORIENTED_EDGE('',*,*,#542,.F.);
#578=EDGE_LOOP('',(#564,#571,#576,#577));
#579=FACE_OUTER_BOUND('',#578,.T.);
#580=CARTESIAN_POINT('',(689.27161,52.35348,317.));
#581=DIRECTION('',(-0.83147,0.55557,0.));
#582=DIRECTION('',(-0.55557,-0.83147,0.));
#583=AXIS2_PLACEMENT_3D('',#580,#581,#582);
#584=PLANE('',#583);
#585=ADVANCED_FACE('',(#579),#584,.T.);
#586=CARTESIAN_POINT('',(678.04636,32.91078,317.));
#587=VERTEX_POINT('',#586);
#588=DIRECTION('',(-0.44229,-0.89687,0.));
#589=VECTOR('',#588,11.24934);
#590=LINE('',#558,#589);
#591=EDGE_CURVE('',#559,#587,#590,.T.);
#592=ORIENTED_EDGE('',*,*,#591,.T.);
#593=CARTESIAN_POINT('',(678.04636,32.91078,323.));
#594=VERTEX_POINT('',#593);
#595=DIRECTION('',(0.,0.,1.));
#596=VECTOR('',#595,6.);
#597=LINE('',#586,#596);
#598=EDGE_CURVE('',#587,#594,#597,.T.);
#599=ORIENTED_EDGE('',*,*,#598,.T.);
#600=DIRECTION('',(-0.44229,-0.89687,0.));
#601=VECTOR('',#600,11.24934);
#602=LINE('',#565,#601);
#603=EDGE_CURVE('',#566,#594,#602,.T.);
#604=ORIENTED_EDGE('',*,*,#603,.F.);
#605=ORIENTED_EDGE('',*,*,#570,.F.);
#606=EDGE_LOOP('',(#592,#599,#604,#605));
#607=FACE_OUTER_BOUND('',#606,.T.);
#608=CARTESIAN_POINT('',(683.02182,43.,317.));
#609=DIRECTION('',(-0.89687,0.44229,0.));
#610=DIRECTION('',(-0.44229,-0.89687,0.));
#611=AXIS2_PLACEMENT_3D('',#608,#609,#610);
#612=PLANE('',#611);
#613=ADVANCED_FACE('',(#607),#612,.T.);
#614=CARTESIAN_POINT('',(674.43038,22.25844,317.));
#615=VERTEX_POINT('',#614);
#616=DIRECTION('',(-0.32144,-0.94693,0.));
#617=VECTOR('',#616,11.24934);
#618=LINE('',#586,#617);
#619=EDGE_CURVE('',#587,#615,#618,.T.);
#620=ORIENTED_EDGE('',*,*,#619,.T.);
#621=CARTESIAN_POINT('',(674.43038,22.25844,323.));
#622=VERTEX_POINT('',#621);
#623=DIRECTION('',(0.,0.,1.));
#624=VECTOR('',#623,6.);
#625=LINE('',#614,#624);
#626=EDGE_CURVE('',#615,#622,#625,.T.);
#627=ORIENTED_EDGE('',*,*,#626,.T.);
#628=DIRECTION('',(-0.32144,-0.94693,0.));
#629=VECTOR('',#628,11.24934);
#630=LINE('',#593,#629);
#631=EDGE_CURVE('',#594,#622,#630,.T.);
#632=ORIENTED_EDGE('',*,*,#631,.F.);
#633=ORIENTED_EDGE('',*,*,#598,.F.);
#634=EDGE_LOOP('',(#620,#627,#632,#633));
#635=FACE_OUTER_BOUND('',#634,.T.);
#636=CARTESIAN_POINT('',(678.04636,32.91078,317.));
#637=DIRECTION('',(-0.94693,0.32144,0.));
#638=DIRECTION('',(-0.32144,-0.94693,0.));
#639=AXIS2_PLACEMENT_3D('',#636,#637,#638);
#640=PLANE('',#639);
#641=ADVANCED_FACE('',(#635),#640,.T.);
#642=CARTESIAN_POINT('',(672.23574,11.22525,317.));
#643=VERTEX_POINT('',#642);
#644=DIRECTION('',(-0.19509,-0.98079,0.));
#645=VECTOR('',#644,11.24934);
#646=LINE('',#614,#645);
#647=EDGE_CURVE('',#615,#643,#646,.T.);
#648=ORIENTED_EDGE('',*,*,#647,.T.);
#649=CARTESIAN_POINT('',(672.23574,11.22525,323.));
#650=VERTEX_POINT('',#649);
#651=DIRECTION('',(0.,0.,1.));
#652=VECTOR('',#651,6.);
#653=LINE('',#642,#652);
#654=EDGE_CURVE('',#643,#650,#653,.T.);
#655=ORIENTED_EDGE('',*,*,#654,.T.);
#656=DIRECTION('',(-0.19509,-0.98079,0.));
#657=VECTOR('',#656,11.24934);
#658=LINE('',#621,#657);
#659=EDGE_CURVE('',#622,#650,#658,.T.);
#660=ORIENTED_EDGE('',*,*,#659,.F.);
#661=ORIENTED_EDGE('',*,*,#626,.F.);
#662=EDGE_LOOP('',(#648,#655,#660,#661));
#663=FACE_OUTER_BOUND('',#662,.T.);
#664=CARTESIAN_POINT('',(674.43038,22.25844,317.));
#665=DIRECTION('',(-0.98079,0.19509,0.));
#666=DIRECTION('',(-0.19509,-0.98079,0.));
#667=AXIS2_PLACEMENT_3D('',#664,#665,#666);
#668=PLANE('',#667);
#669=ADVANCED_FACE('',(#663),#668,.T.);
#670=CARTESIAN_POINT('',(671.5,0.,317.));
#671=VERTEX_POINT('',#670);
#672=DIRECTION('',(-0.0654,-0.99786,0.));
#673=VECTOR('',#672,11.24934);
#674=LINE('',#642,#673);
#675=EDGE_CURVE('',#643,#671,#674,.T.);
#676=ORIENTED_EDGE('',*,*,#675,.T.);
#677=CARTESIAN_POINT('',(671.5,0.,323.));
#678=VERTEX_POINT('',#677);
#679=DIRECTION('',(0.,0.,1.));
#680=VECTOR('',#679,6.);
#681=LINE('',#670,#680);
#682=EDGE_CURVE('',#671,#678,#681,.T.);
#683=ORIENTED_EDGE('',*,*,#682,.T.);
#684=DIRECTION('',(-0.0654,-0.99786,0.));
#685=VECTOR('',#684,11.24934);
#686=LINE('',#649,#685);
#687=EDGE_CURVE('',#650,#678,#686,.T.);
#688=ORIENTED_EDGE('',*,*,#687,.F.);
#689=ORIENTED_EDGE('',*,*,#654,.F.);
#690=EDGE_LOOP('',(#676,#683,#688,#689));
#691=FACE_OUTER_BOUND('',#690,.T.);
#692=CARTESIAN_POINT('',(672.23574,11.22525,317.));
#693=DIRECTION('',(-0.99786,0.0654,0.));
#694=DIRECTION('',(-0.0654,-0.99786,0.));
#695=AXIS2_PLACEMENT_3D('',#692,#693,#694);
#696=PLANE('',#695);
#697=ADVANCED_FACE('',(#691),#696,.T.);
#698=CARTESIAN_POINT('',(672.23574,-11.22525,317.));
#699=VERTEX_POINT('',#698);
#700=DIRECTION('',(0.0654,-0.99786,0.));
#701=VECTOR('',#700,11.24934);
#702=LINE('',#670,#701);
#703=EDGE_CURVE('',#671,#699,#702,.T.);
#704=ORIENTED_EDGE('',*,*,#703,.T.);
#705=CARTESIAN_POINT('',(672.23574,-11.22525,323.));
#706=VERTEX_POINT('',#705);
#707=DIRECTION('',(0.,0.,1.));
#708=VECTOR('',#707,6.);
#709=LINE('',#698,#708);
#710=EDGE_CURVE('',#699,#706,#709,.T.);
#711=ORIENTED_EDGE('',*,*,#710,.T.);
#712=DIRECTION('',(0.0654,-0.99786,0.));
#713=VECTOR('',#712,11.24934);
#714=LINE('',#677,#713);
#715=EDGE_CURVE('',#678,#706,#714,.T.);
#716=ORIENTED_EDGE('',*,*,#715,.F.);
#717=ORIENTED_EDGE('',*,*,#682,.F.);
#718=EDGE_LOOP('',(#704,#711,#716,#717));
#719=FACE_OUTER_BOUND('',#718,.T.);
#720=CARTESIAN_POINT('',(671.5,0.,317.));
#721=DIRECTION('',(-0.99786,-0.0654,0.));
#722=DIRECTION('',(0.0654,-0.99786,0.));
#723=AXIS2_PLACEMENT_3D('',#720,#721,#722);
#724=PLANE('',#723);
#725=ADVANCED_FACE('',(#719),#724,.T.);
#726=CARTESIAN_POINT('',(674.43038,-22.25844,317.));
#727=VERTEX_POINT('',#726);
#728=DIRECTION('',(0.19509,-0.98079,0.));
#729=VECTOR('',#728,11.24934);
#730=LINE('',#698,#729);
#731=EDGE_CURVE('',#699,#727,#730,.T.);
#732=ORIENTED_EDGE('',*,*,#731,.T.);
#733=CARTESIAN_POINT('',(674.43038,-22.25844,323.));
#734=VERTEX_POINT('',#733);
#735=DIRECTION('',(0.,0.,1.));
#736=VECTOR('',#735,6.);
#737=LINE('',#726,#736);
#738=EDGE_CURVE('',#727,#734,#737,.T.);
#739=ORIENTED_EDGE('',*,*,#738,.T.);
#740=DIRECTION('',(0.19509,-0.98079,0.));
#741=VECTOR('',#740,11.24934);
#742=LINE('',#705,#741);
#743=EDGE_CURVE('',#706,#734,#742,.T.);
#744=ORIENTED_EDGE('',*,*,#743,.F.);
#745=ORIENTED_EDGE('',*,*,#710,.F.);
#746=EDGE_LOOP('',(#732,#739,#744,#745));
#747=FACE_OUTER_BOUND('',#746,.T.);
#748=CARTESIAN_POINT('',(672.23574,-11.22525,317.));
#749=DIRECTION('',(-0.98079,-0.19509,0.));
#750=DIRECTION('',(0.19509,-0.98079,0.));
#751=AXIS2_PLACEMENT_3D('',#748,#749,#750);
#752=PLANE('',#751);
#753=ADVANCED_FACE('',(#747),#752,.T.);
#754=CARTESIAN_POINT('',(678.04636,-32.91078,317.));
#755=VERTEX_POINT('',#754);
#756=DIRECTION('',(0.32144,-0.94693,0.));
#757=VECTOR('',#756,11.24934);
#758=LINE('',#726,#757);
#759=EDGE_CURVE('',#727,#755,#758,.T.);
#760=ORIENTED_EDGE('',*,*,#759,.T.);
#761=CARTESIAN_POINT('',(678.04636,-32.91078,323.));
#762=VERTEX_POINT('',#761);
#763=DIRECTION('',(0.,0.,1.));
#764=VECTOR('',#763,6.);
#765=LINE('',#754,#764);
#766=EDGE_CURVE('',#755,#762,#765,.T.);
#767=ORIENTED_EDGE('',*,*,#766,.T.);
#768=DIRECTION('',(0.32144,-0.94693,0.));
#769=VECTOR('',#768,11.24934);
#770=LINE('',#733,#769);
#771=EDGE_CURVE('',#734,#762,#770,.T.);
#772=ORIENTED_EDGE('',*,*,#771,.F.);
#773=ORIENTED_EDGE('',*,*,#738,.F.);
#774=EDGE_LOOP('',(#760,#767,#772,#773));
#775=FACE_OUTER_BOUND('',#774,.T.);
#776=CARTESIAN_POINT('',(674.43038,-22.25844,317.));
#777=DIRECTION('',(-0.94693,-0.32144,0.));
#778=DIRECTION('',(0.32144,-0.94693,0.));
#779=AXIS2_PLACEMENT_3D('',#776,#777,#778);
#780=PLANE('',#779);
#781=ADVANCED_FACE('',(#775),#780,.T.);
#782=CARTESIAN_POINT('',(683.02182,-43.,317.));
#783=VERTEX_POINT('',#782);
#784=DIRECTION('',(0.44229,-0.89687,0.));
#785=VECTOR('',#784,11.24934);
#786=LINE('',#754,#785);
#787=EDGE_CURVE('',#755,#783,#786,.T.);
#788=ORIENTED_EDGE('',*,*,#787,.T.);
#789=CARTESIAN_POINT('',(683.02182,-43.,323.));
#790=VERTEX_POINT('',#789);
#791=DIRECTION('',(0.,0.,1.));
#792=VECTOR('',#791,6.);
#793=LINE('',#782,#792);
#794=EDGE_CURVE('',#783,#790,#793,.T.);
#795=ORIENTED_EDGE('',*,*,#794,.T.);
#796=DIRECTION('',(0.44229,-0.89687,0.));
#797=VECTOR('',#796,11.24934);
#798=LINE('',#761,#797);
#799=EDGE_CURVE('',#762,#790,#798,.T.);
#800=ORIENTED_EDGE('',*,*,#799,.F.);
#801=ORIENTED_EDGE('',*,*,#766,.F.);
#802=EDGE_LOOP('',(#788,#795,#800,#801));
#803=FACE_OUTER_BOUND('',#802,.T.);
#804=CARTESIAN_POINT('',(678.04636,-32.91078,317.));
#805=DIRECTION('',(-0.89687,-0.44229,0.));
#806=DIRECTION('',(0.44229,-0.89687,0.));
#807=AXIS2_PLACEMENT_3D('',#804,#805,#806);
#808=PLANE('',#807);
#809=ADVANCED_FACE('',(#803),#808,.T.);
#810=CARTESIAN_POINT('',(689.27161,-52.35348,317.));
#811=VERTEX_POINT('',#810);
#812=DIRECTION('',(0.55557,-0.83147,0.));
#813=VECTOR('',#812,11.24934);
#814=LINE('',#782,#813);
#815=EDGE_CURVE('',#783,#811,#814,.T.);
#816=ORIENTED_EDGE('',*,*,#815,.T.);
#817=CARTESIAN_POINT('',(689.27161,-52.35348,323.));
#818=VERTEX_POINT('',#817);
#819=DIRECTION('',(0.,0.,1.));
#820=VECTOR('',#819,6.);
#821=LINE('',#810,#820);
#822=EDGE_CURVE('',#811,#818,#821,.T.);
#823=ORIENTED_EDGE('',*,*,#822,.T.);
#824=DIRECTION('',(0.55557,-0.83147,0.));
#825=VECTOR('',#824,11.24934);
#826=LINE('',#789,#825);
#827=EDGE_CURVE('',#790,#818,#826,.T.);
#828=ORIENTED_EDGE('',*,*,#827,.F.);
#829=ORIENTED_EDGE('',*,*,#794,.F.);
#830=EDGE_LOOP('',(#816,#823,#828,#829));
#831=FACE_OUTER_BOUND('',#830,.T.);
#832=CARTESIAN_POINT('',(683.02182,-43.,317.));
#833=DIRECTION('',(-0.83147,-0.55557,0.));
#834=DIRECTION('',(0.55557,-0.83147,0.));
#835=AXIS2_PLACEMENT_3D('',#832,#833,#834);
#836=PLANE('',#835);
#837=ADVANCED_FACE('',(#831),#836,.T.);
#838=CARTESIAN_POINT('',(696.68882,-60.81118,317.));
#839=VERTEX_POINT('',#838);
#840=DIRECTION('',(0.65935,-0.75184,0.));
#841=VECTOR('',#840,11.24934);
#842=LINE('',#810,#841);
#843=EDGE_CURVE('',#811,#839,#842,.T.);
#844=ORIENTED_EDGE('',*,*,#843,.T.);
#845=CARTESIAN_POINT('',(696.68882,-60.81118,323.));
#846=VERTEX_POINT('',#845);
#847=DIRECTION('',(0.,0.,1.));
#848=VECTOR('',#847,6.);
#849=LINE('',#838,#848);
#850=EDGE_CURVE('',#839,#846,#849,.T.);
#851=ORIENTED_EDGE('',*,*,#850,.T.);
#852=DIRECTION('',(0.65935,-0.75184,0.));
#853=VECTOR('',#852,11.24934);
#854=LINE('',#817,#853);
#855=EDGE_CURVE('',#818,#846,#854,.T.);
#856=ORIENTED_EDGE('',*,*,#855,.F.);
#857=ORIENTED_EDGE('',*,*,#822,.F.);
#858=EDGE_LOOP('',(#844,#851,#856,#857));
#859=FACE_OUTER_BOUND('',#858,.T.);
#860=CARTESIAN_POINT('',(689.27161,-52.35348,317.));
#861=DIRECTION('',(-0.75184,-0.65935,0.));
#862=DIRECTION('',(0.65935,-0.75184,0.));
#863=AXIS2_PLACEMENT_3D('',#860,#861,#862);
#864=PLANE('',#863);
#865=ADVANCED_FACE('',(#859),#864,.T.);
#866=CARTESIAN_POINT('',(705.14652,-68.22839,317.));
#867=VERTEX_POINT('',#866);
#868=DIRECTION('',(0.75184,-0.65935,0.));
#869=VECTOR('',#868,11.24934);
#870=LINE('',#838,#869);
#871=EDGE_CURVE('',#839,#867,#870,.T.);
#872=ORIENTED_EDGE('',*,*,#871,.T.);
#873=CARTESIAN_POINT('',(705.14652,-68.22839,323.));
#874=VERTEX_POINT('',#873);
#875=DIRECTION('',(0.,0.,1.));
#876=VECTOR('',#875,6.);
#877=LINE('',#866,#876);
#878=EDGE_CURVE('',#867,#874,#877,.T.);
#879=ORIENTED_EDGE('',*,*,#878,.T.);
#880=DIRECTION('',(0.75184,-0.65935,0.));
#881=VECTOR('',#880,11.24934);
#882=LINE('',#845,#881);
#883=EDGE_CURVE('',#846,#874,#882,.T.);
#884=ORIENTED_EDGE('',*,*,#883,.F.);
#885=ORIENTED_EDGE('',*,*,#850,.F.);
#886=EDGE_LOOP('',(#872,#879,#884,#885));
#887=FACE_OUTER_BOUND('',#886,.T.);
#888=CARTESIAN_POINT('',(696.68882,-60.81118,317.));
#889=DIRECTION('',(-0.65935,-0.75184,0.));
#890=DIRECTION('',(0.75184,-0.65935,0.));
#891=AXIS2_PLACEMENT_3D('',#888,#889,#890);
#892=PLANE('',#891);
#893=ADVANCED_FACE('',(#887),#892,.T.);
#894=CARTESIAN_POINT('',(714.5,-74.47818,317.));
#895=VERTEX_POINT('',#894);
#896=DIRECTION('',(0.83147,-0.55557,0.));
#897=VECTOR('',#896,11.24934);
#898=LINE('',#866,#897);
#899=EDGE_CURVE('',#867,#895,#898,.T.);
#900=ORIENTED_EDGE('',*,*,#899,.T.);
#901=CARTESIAN_POINT('',(714.5,-74.47818,323.));
#902=VERTEX_POINT('',#901);
#903=DIRECTION('',(0.,0.,1.));
#904=VECTOR('',#903,6.);
#905=LINE('',#894,#904);
#906=EDGE_CURVE('',#895,#902,#905,.T.);
#907=ORIENTED_EDGE('',*,*,#906,.T.);
#908=DIRECTION('',(0.83147,-0.55557,0.));
#909=VECTOR('',#908,11.24934);
#910=LINE('',#873,#909);
#911=EDGE_CURVE('',#874,#902,#910,.T.);
#912=ORIENTED_EDGE('',*,*,#911,.F.);
#913=ORIENTED_EDGE('',*,*,#878,.F.);
#914=EDGE_LOOP('',(#900,#907,#912,#913));
#915=FACE_OUTER_BOUND('',#914,.T.);
#916=CARTESIAN_POINT('',(705.14652,-68.22839,317.));
#917=DIRECTION('',(-0.55557,-0.83147,0.));
#918=DIRECTION('',(0.83147,-0.55557,0.));
#919=AXIS2_PLACEMENT_3D('',#916,#917,#918);
#920=PLANE('',#919);
#921=ADVANCED_FACE('',(#915),#920,.T.);
#922=CARTESIAN_POINT('',(724.58922,-79.45364,317.));
#923=VERTEX_POINT('',#922);
#924=DIRECTION('',(0.89687,-0.44229,0.));
#925=VECTOR('',#924,11.24934);
#926=LINE('',#894,#925);
#927=EDGE_CURVE('',#895,#923,#926,.T.);
#928=ORIENTED_EDGE('',*,*,#927,.T.);
#929=CARTESIAN_POINT('',(724.58922,-79.45364,323.));
#930=VERTEX_POINT('',#929);
#931=DIRECTION('',(0.,0.,1.));
#932=VECTOR('',#931,6.);
#933=LINE('',#922,#932);
#934=EDGE_CURVE('',#923,#930,#933,.T.);
#935=ORIENTED_EDGE('',*,*,#934,.T.);
#936=DIRECTION('',(0.89687,-0.44229,0.));
#937=VECTOR('',#936,11.24934);
#938=LINE('',#901,#937);
#939=EDGE_CURVE('',#902,#930,#938,.T.);
#940=ORIENTED_EDGE('',*,*,#939,.F.);
#941=ORIENTED_EDGE('',*,*,#906,.F.);
#942=EDGE_LOOP('',(#928,#935,#940,#941));
#943=FACE_OUTER_BOUND('',#942,.T.);
#944=CARTESIAN_POINT('',(714.5,-74.47818,317.));
#945=DIRECTION('',(-0.44229,-0.89687,0.));
#946=DIRECTION('',(0.89687,-0.44229,0.));
#947=AXIS2_PLACEMENT_3D('',#944,#945,#946);
#948=PLANE('',#947);
#949=ADVANCED_FACE('',(#943),#948,.T.);
#950=CARTESIAN_POINT('',(735.24156,-83.06962,317.));
#951=VERTEX_POINT('',#950);
#952=DIRECTION('',(0.94693,-0.32144,0.));
#953=VECTOR('',#952,11.24934);
#954=LINE('',#922,#953);
#955=EDGE_CURVE('',#923,#951,#954,.T.);
#956=ORIENTED_EDGE('',*,*,#955,.T.);
#957=CARTESIAN_POINT('',(735.24156,-83.06962,323.));
#958=VERTEX_POINT('',#957);
#959=DIRECTION('',(0.,0.,1.));
#960=VECTOR('',#959,6.);
#961=LINE('',#950,#960);
#962=EDGE_CURVE('',#951,#958,#961,.T.);
#963=ORIENTED_EDGE('',*,*,#962,.T.);
#964=DIRECTION('',(0.94693,-0.32144,0.));
#965=VECTOR('',#964,11.24934);
#966=LINE('',#929,#965);
#967=EDGE_CURVE('',#930,#958,#966,.T.);
#968=ORIENTED_EDGE('',*,*,#967,.F.);
#969=ORIENTED_EDGE('',*,*,#934,.F.);
#970=EDGE_LOOP('',(#956,#963,#968,#969));
#971=FACE_OUTER_BOUND('',#970,.T.);
#972=CARTESIAN_POINT('',(724.58922,-79.45364,317.));
#973=DIRECTION('',(-0.32144,-0.94693,0.));
#974=DIRECTION('',(0.94693,-0.32144,0.));
#975=AXIS2_PLACEMENT_3D('',#972,#973,#974);
#976=PLANE('',#975);
#977=ADVANCED_FACE('',(#971),#976,.T.);
#978=CARTESIAN_POINT('',(746.27475,-85.26426,317.));
#979=VERTEX_POINT('',#978);
#980=DIRECTION('',(0.98079,-0.19509,0.));
#981=VECTOR('',#980,11.24934);
#982=LINE('',#950,#981);
#983=EDGE_CURVE('',#951,#979,#982,.T.);
#984=ORIENTED_EDGE('',*,*,#983,.T.);
#985=CARTESIAN_POINT('',(746.27475,-85.26426,323.));
#986=VERTEX_POINT('',#985);
#987=DIRECTION('',(0.,0.,1.));
#988=VECTOR('',#987,6.);
#989=LINE('',#978,#988);
#990=EDGE_CURVE('',#979,#986,#989,.T.);
#991=ORIENTED_EDGE('',*,*,#990,.T.);
#992=DIRECTION('',(0.98079,-0.19509,0.));
#993=VECTOR('',#992,11.24934);
#994=LINE('',#957,#993);
#995=EDGE_CURVE('',#958,#986,#994,.T.);
#996=ORIENTED_EDGE('',*,*,#995,.F.);
#997=ORIENTED_EDGE('',*,*,#962,.F.);
#998=EDGE_LOOP('',(#984,#991,#996,#997));
#999=FACE_OUTER_BOUND('',#998,.T.);
#1000=CARTESIAN_POINT('',(735.24156,-83.06962,317.));
#1001=DIRECTION('',(-0.19509,-0.98079,0.));
#1002=DIRECTION('',(0.98079,-0.19509,0.));
#1003=AXIS2_PLACEMENT_3D('',#1000,#1001,#1002);
#1004=PLANE('',#1003);
#1005=ADVANCED_FACE('',(#999),#1004,.T.);
#1006=CARTESIAN_POINT('',(757.5,-86.,317.));
#1007=VERTEX_POINT('',#1006);
#1008=DIRECTION('',(0.99786,-0.0654,0.));
#1009=VECTOR('',#1008,11.24934);
#1010=LINE('',#978,#1009);
#1011=EDGE_CURVE('',#979,#1007,#1010,.T.);
#1012=ORIENTED_EDGE('',*,*,#1011,.T.);
#1013=CARTESIAN_POINT('',(757.5,-86.,323.));
#1014=VERTEX_POINT('',#1013);
#1015=DIRECTION('',(0.,0.,1.));
#1016=VECTOR('',#1015,6.);
#1017=LINE('',#1006,#1016);
#1018=EDGE_CURVE('',#1007,#1014,#1017,.T.);
#1019=ORIENTED_EDGE('',*,*,#1018,.T.);
#1020=DIRECTION('',(0.99786,-0.0654,0.));
#1021=VECTOR('',#1020,11.24934);
#1022=LINE('',#985,#1021);
#1023=EDGE_CURVE('',#986,#1014,#1022,.T.);
#1024=ORIENTED_EDGE('',*,*,#1023,.F.);
#1025=ORIENTED_EDGE('',*,*,#990,.F.);
#1026=EDGE_LOOP('',(#1012,#1019,#1024,#1025));
#1027=FACE_OUTER_BOUND('',#1026,.T.);
#1028=CARTESIAN_POINT('',(746.27475,-85.26426,317.));
#1029=DIRECTION('',(-0.0654,-0.99786,0.));
#1030=DIRECTION('',(0.99786,-0.0654,0.));
#1031=AXIS2_PLACEMENT_3D('',#1028,#1029,#1030);
#1032=PLANE('',#1031);
#1033=ADVANCED_FACE('',(#1027),#1032,.T.);
#1034=CARTESIAN_POINT('',(768.72525,-85.26426,317.));
#1035=VERTEX_POINT('',#1034);
#1036=DIRECTION('',(0.99786,0.0654,0.));
#1037=VECTOR('',#1036,11.24934);
#1038=LINE('',#1006,#1037);
#1039=EDGE_CURVE('',#1007,#1035,#1038,.T.);
#1040=ORIENTED_EDGE('',*,*,#1039,.T.);
#1041=CARTESIAN_POINT('',(768.72525,-85.26426,323.));
#1042=VERTEX_POINT('',#1041);
#1043=DIRECTION('',(0.,0.,1.));
#1044=VECTOR('',#1043,6.);
#1045=LINE('',#1034,#1044);
#1046=EDGE_CURVE('',#1035,#1042,#1045,.T.);
#1047=ORIENTED_EDGE('',*,*,#1046,.T.);
#1048=DIRECTION('',(0.99786,0.0654,0.));
#1049=VECTOR('',#1048,11.24934);
#1050=LINE('',#1013,#1049);
#1051=EDGE_CURVE('',#1014,#1042,#1050,.T.);
#1052=ORIENTED_EDGE('',*,*,#1051,.F.);
#1053=ORIENTED_EDGE('',*,*,#1018,.F.);
#1054=EDGE_LOOP('',(#1040,#1047,#1052,#1053));
#1055=FACE_OUTER_BOUND('',#1054,.T.);
#1056=CARTESIAN_POINT('',(757.5,-86.,317.));
#1057=DIRECTION('',(0.0654,-0.99786,0.));
#1058=DIRECTION('',(0.99786,0.0654,0.));
#1059=AXIS2_PLACEMENT_3D('',#1056,#1057,#1058);
#1060=PLANE('',#1059);
#1061=ADVANCED_FACE('',(#1055),#1060,.T.);
#1062=CARTESIAN_POINT('',(779.75844,-83.06962,317.));
#1063=VERTEX_POINT('',#1062);
#1064=DIRECTION('',(0.98079,0.19509,0.));
#1065=VECTOR('',#1064,11.24934);
#1066=LINE('',#1034,#1065);
#1067=EDGE_CURVE('',#1035,#1063,#1066,.T.);
#1068=ORIENTED_EDGE('',*,*,#1067,.T.);
#1069=CARTESIAN_POINT('',(779.75844,-83.06962,323.));
#1070=VERTEX_POINT('',#1069);
#1071=DIRECTION('',(0.,0.,1.));
#1072=VECTOR('',#1071,6.);
#1073=LINE('',#1062,#1072);
#1074=EDGE_CURVE('',#1063,#1070,#1073,.T.);
#1075=ORIENTED_EDGE('',*,*,#1074,.T.);
#1076=DIRECTION('',(0.98079,0.19509,0.));
#1077=VECTOR('',#1076,11.24934);
#1078=LINE('',#1041,#1077);
#1079=EDGE_CURVE('',#1042,#1070,#1078,.T.);
#1080=ORIENTED_EDGE('',*,*,#1079,.F.);
#1081=ORIENTED_EDGE('',*,*,#1046,.F.);
#1082=EDGE_LOOP('',(#1068,#1075,#1080,#1081));
#1083=FACE_OUTER_BOUND('',#1082,.T.);
#1084=CARTESIAN_POINT('',(768.72525,-85.26426,317.));
#1085=DIRECTION('',(0.19509,-0.98079,0.));
#1086=DIRECTION('',(0.98079,0.19509,0.));
#1087=AXIS2_PLACEMENT_3D('',#1084,#1085,#1086);
#1088=PLANE('',#1087);
#1089=ADVANCED_FACE('',(#1083),#1088,.T.);
#1090=CARTESIAN_POINT('',(790.41078,-79.45364,317.));
#1091=VERTEX_POINT('',#1090);
#1092=DIRECTION('',(0.94693,0.32144,0.));
#1093=VECTOR('',#1092,11.24934);
#1094=LINE('',#1062,#1093);
#1095=EDGE_CURVE('',#1063,#1091,#1094,.T.);
#1096=ORIENTED_EDGE('',*,*,#1095,.T.);
#1097=CARTESIAN_POINT('',(790.41078,-79.45364,323.));
#1098=VERTEX_POINT('',#1097);
#1099=DIRECTION('',(0.,0.,1.));
#1100=VECTOR('',#1099,6.);
#1101=LINE('',#1090,#1100);
#1102=EDGE_CURVE('',#1091,#1098,#1101,.T.);
#1103=ORIENTED_EDGE('',*,*,#1102,.T.);
#1104=DIRECTION('',(0.94693,0.32144,0.));
#1105=VECTOR('',#1104,11.24934);
#1106=LINE('',#1069,#1105);
#1107=EDGE_CURVE('',#1070,#1098,#1106,.T.);
#1108=ORIENTED_EDGE('',*,*,#1107,.F.);
#1109=ORIENTED_EDGE('',*,*,#1074,.F.);
#1110=EDGE_LOOP('',(#1096,#1103,#1108,#1109));
#1111=FACE_OUTER_BOUND('',#1110,.T.);
#1112=CARTESIAN_POINT('',(779.75844,-83.06962,317.));
#1113=DIRECTION('',(0.32144,-0.94693,0.));
#1114=DIRECTION('',(0.94693,0.32144,0.));
#1115=AXIS2_PLACEMENT_3D('',#1112,#1113,#1114);
#1116=PLANE('',#1115);
#1117=ADVANCED_FACE('',(#1111),#1116,.T.);
#1118=CARTESIAN_POINT('',(800.5,-74.47818,317.));
#1119=VERTEX_POINT('',#1118);
#1120=DIRECTION('',(0.89687,0.44229,0.));
#1121=VECTOR('',#1120,11.24934);
#1122=LINE('',#1090,#1121);
#1123=EDGE_CURVE('',#1091,#1119,#1122,.T.);
#1124=ORIENTED_EDGE('',*,*,#1123,.T.);
#1125=CARTESIAN_POINT('',(800.5,-74.47818,323.));
#1126=VERTEX_POINT('',#1125);
#1127=DIRECTION('',(0.,0.,1.));
#1128=VECTOR('',#1127,6.);
#1129=LINE('',#1118,#1128);
#1130=EDGE_CURVE('',#1119,#1126,#1129,.T.);
#1131=ORIENTED_EDGE('',*,*,#1130,.T.);
#1132=DIRECTION('',(0.89687,0.44229,0.));
#1133=VECTOR('',#1132,11.24934);
#1134=LINE('',#1097,#1133);
#1135=EDGE_CURVE('',#1098,#1126,#1134,.T.);
#1136=ORIENTED_EDGE('',*,*,#1135,.F.);
#1137=ORIENTED_EDGE('',*,*,#1102,.F.);
#1138=EDGE_LOOP('',(#1124,#1131,#1136,#1137));
#1139=FACE_OUTER_BOUND('',#1138,.T.);
#1140=CARTESIAN_POINT('',(790.41078,-79.45364,317.));
#1141=DIRECTION('',(0.44229,-0.89687,0.));
#1142=DIRECTION('',(0.89687,0.44229,0.));
#1143=AXIS2_PLACEMENT_3D('',#1140,#1141,#1142);
#1144=PLANE('',#1143);
#1145=ADVANCED_FACE('',(#1139),#1144,.T.);
#1146=CARTESIAN_POINT('',(809.85348,-68.22839,317.));
#1147=VERTEX_POINT('',#1146);
#1148=DIRECTION('',(0.83147,0.55557,0.));
#1149=VECTOR('',#1148,11.24934);
#1150=LINE('',#1118,#1149);
#1151=EDGE_CURVE('',#1119,#1147,#1150,.T.);
#1152=ORIENTED_EDGE('',*,*,#1151,.T.);
#1153=CARTESIAN_POINT('',(809.85348,-68.22839,323.));
#1154=VERTEX_POINT('',#1153);
#1155=DIRECTION('',(0.,0.,1.));
#1156=VECTOR('',#1155,6.);
#1157=LINE('',#1146,#1156);
#1158=EDGE_CURVE('',#1147,#1154,#1157,.T.);
#1159=ORIENTED_EDGE('',*,*,#1158,.T.);
#1160=DIRECTION('',(0.83147,0.55557,0.));
#1161=VECTOR('',#1160,11.24934);
#1162=LINE('',#1125,#1161);
#1163=EDGE_CURVE('',#1126,#1154,#1162,.T.);
#1164=ORIENTED_EDGE('',*,*,#1163,.F.);
#1165=ORIENTED_EDGE('',*,*,#1130,.F.);
#1166=EDGE_LOOP('',(#1152,#1159,#1164,#1165));
#1167=FACE_OUTER_BOUND('',#1166,.T.);
#1168=CARTESIAN_POINT('',(800.5,-74.47818,317.));
#1169=DIRECTION('',(0.55557,-0.83147,0.));
#1170=DIRECTION('',(0.83147,0.55557,0.));
#1171=AXIS2_PLACEMENT_3D('',#1168,#1169,#1170);
#1172=PLANE('',#1171);
#1173=ADVANCED_FACE('',(#1167),#1172,.T.);
#1174=CARTESIAN_POINT('',(818.31118,-60.81118,317.));
#1175=VERTEX_POINT('',#1174);
#1176=DIRECTION('',(0.75184,0.65935,0.));
#1177=VECTOR('',#1176,11.24934);
#1178=LINE('',#1146,#1177);
#1179=EDGE_CURVE('',#1147,#1175,#1178,.T.);
#1180=ORIENTED_EDGE('',*,*,#1179,.T.);
#1181=CARTESIAN_POINT('',(818.31118,-60.81118,323.));
#1182=VERTEX_POINT('',#1181);
#1183=DIRECTION('',(0.,0.,1.));
#1184=VECTOR('',#1183,6.);
#1185=LINE('',#1174,#1184);
#1186=EDGE_CURVE('',#1175,#1182,#1185,.T.);
#1187=ORIENTED_EDGE('',*,*,#1186,.T.);
#1188=DIRECTION('',(0.75184,0.65935,0.));
#1189=VECTOR('',#1188,11.24934);
#1190=LINE('',#1153,#1189);
#1191=EDGE_CURVE('',#1154,#1182,#1190,.T.);
#1192=ORIENTED_EDGE('',*,*,#1191,.F.);
#1193=ORIENTED_EDGE('',*,*,#1158,.F.);
#1194=EDGE_LOOP('',(#1180,#1187,#1192,#1193));
#1195=FACE_OUTER_BOUND('',#1194,.T.);
#1196=CARTESIAN_POINT('',(809.85348,-68.22839,317.));
#1197=DIRECTION('',(0.65935,-0.75184,0.));
#1198=DIRECTION('',(0.75184,0.65935,0.));
#1199=AXIS2_PLACEMENT_3D('',#1196,#1197,#1198);
#1200=PLANE('',#1199);
#1201=ADVANCED_FACE('',(#1195),#1200,.T.);
#1202=CARTESIAN_POINT('',(825.72839,-52.35348,317.));
#1203=VERTEX_POINT('',#1202);
#1204=DIRECTION('',(0.65935,0.75184,0.));
#1205=VECTOR('',#1204,11.24934);
#1206=LINE('',#1174,#1205);
#1207=EDGE_CURVE('',#1175,#1203,#1206,.T.);
#1208=ORIENTED_EDGE('',*,*,#1207,.T.);
#1209=CARTESIAN_POINT('',(825.72839,-52.35348,323.));
#1210=VERTEX_POINT('',#1209);
#1211=DIRECTION('',(0.,0.,1.));
#1212=VECTOR('',#1211,6.);
#1213=LINE('',#1202,#1212);
#1214=EDGE_CURVE('',#1203,#1210,#1213,.T.);
#1215=ORIENTED_EDGE('',*,*,#1214,.T.);
#1216=DIRECTION('',(0.65935,0.75184,0.));
#1217=VECTOR('',#1216,11.24934);
#1218=LINE('',#1181,#1217);
#1219=EDGE_CURVE('',#1182,#1210,#1218,.T.);
#1220=ORIENTED_EDGE('',*,*,#1219,.F.);
#1221=ORIENTED_EDGE('',*,*,#1186,.F.);
#1222=EDGE_LOOP('',(#1208,#1215,#1220,#1221));
#1223=FACE_OUTER_BOUND('',#1222,.T.);
#1224=CARTESIAN_POINT('',(818.31118,-60.81118,317.));
#1225=DIRECTION('',(0.75184,-0.65935,0.));
#1226=DIRECTION('',(0.65935,0.75184,0.));
#1227=AXIS2_PLACEMENT_3D('',#1224,#1225,#1226);
#1228=PLANE('',#1227);
#1229=ADVANCED_FACE('',(#1223),#1228,.T.);
#1230=CARTESIAN_POINT('',(831.97818,-43.,317.));
#1231=VERTEX_POINT('',#1230);
#1232=DIRECTION('',(0.55557,0.83147,0.));
#1233=VECTOR('',#1232,11.24934);
#1234=LINE('',#1202,#1233);
#1235=EDGE_CURVE('',#1203,#1231,#1234,.T.);
#1236=ORIENTED_EDGE('',*,*,#1235,.T.);
#1237=CARTESIAN_POINT('',(831.97818,-43.,323.));
#1238=VERTEX_POINT('',#1237);
#1239=DIRECTION('',(0.,0.,1.));
#1240=VECTOR('',#1239,6.);
#1241=LINE('',#1230,#1240);
#1242=EDGE_CURVE('',#1231,#1238,#1241,.T.);
#1243=ORIENTED_EDGE('',*,*,#1242,.T.);
#1244=DIRECTION('',(0.55557,0.83147,0.));
#1245=VECTOR('',#1244,11.24934);
#1246=LINE('',#1209,#1245);
#1247=EDGE_CURVE('',#1210,#1238,#1246,.T.);
#1248=ORIENTED_EDGE('',*,*,#1247,.F.);
#1249=ORIENTED_EDGE('',*,*,#1214,.F.);
#1250=EDGE_LOOP('',(#1236,#1243,#1248,#1249));
#1251=FACE_OUTER_BOUND('',#1250,.T.);
#1252=CARTESIAN_POINT('',(825.72839,-52.35348,317.));
#1253=DIRECTION('',(0.83147,-0.55557,0.));
#1254=DIRECTION('',(0.55557,0.83147,0.));
#1255=AXIS2_PLACEMENT_3D('',#1252,#1253,#1254);
#1256=PLANE('',#1255);
#1257=ADVANCED_FACE('',(#1251),#1256,.T.);
#1258=CARTESIAN_POINT('',(836.95364,-32.91078,317.));
#1259=VERTEX_POINT('',#1258);
#1260=DIRECTION('',(0.44229,0.89687,0.));
#1261=VECTOR('',#1260,11.24934);
#1262=LINE('',#1230,#1261);
#1263=EDGE_CURVE('',#1231,#1259,#1262,.T.);
#1264=ORIENTED_EDGE('',*,*,#1263,.T.);
#1265=CARTESIAN_POINT('',(836.95364,-32.91078,323.));
#1266=VERTEX_POINT('',#1265);
#1267=DIRECTION('',(0.,0.,1.));
#1268=VECTOR('',#1267,6.);
#1269=LINE('',#1258,#1268);
#1270=EDGE_CURVE('',#1259,#1266,#1269,.T.);
#1271=ORIENTED_EDGE('',*,*,#1270,.T.);
#1272=DIRECTION('',(0.44229,0.89687,0.));
#1273=VECTOR('',#1272,11.24934);
#1274=LINE('',#1237,#1273);
#1275=EDGE_CURVE('',#1238,#1266,#1274,.T.);
#1276=ORIENTED_EDGE('',*,*,#1275,.F.);
#1277=ORIENTED_EDGE('',*,*,#1242,.F.);
#1278=EDGE_LOOP('',(#1264,#1271,#1276,#1277));
#1279=FACE_OUTER_BOUND('',#1278,.T.);
#1280=CARTESIAN_POINT('',(831.97818,-43.,317.));
#1281=DIRECTION('',(0.89687,-0.44229,0.));
#1282=DIRECTION('',(0.44229,0.89687,0.));
#1283=AXIS2_PLACEMENT_3D('',#1280,#1281,#1282);
#1284=PLANE('',#1283);
#1285=ADVANCED_FACE('',(#1279),#1284,.T.);
#1286=CARTESIAN_POINT('',(840.56962,-22.25844,317.));
#1287=VERTEX_POINT('',#1286);
#1288=DIRECTION('',(0.32144,0.94693,0.));
#1289=VECTOR('',#1288,11.24934);
#1290=LINE('',#1258,#1289);
#1291=EDGE_CURVE('',#1259,#1287,#1290,.T.);
#1292=ORIENTED_EDGE('',*,*,#1291,.T.);
#1293=CARTESIAN_POINT('',(840.56962,-22.25844,323.));
#1294=VERTEX_POINT('',#1293);
#1295=DIRECTION('',(0.,0.,1.));
#1296=VECTOR('',#1295,6.);
#1297=LINE('',#1286,#1296);
#1298=EDGE_CURVE('',#1287,#1294,#1297,.T.);
#1299=ORIENTED_EDGE('',*,*,#1298,.T.);
#1300=DIRECTION('',(0.32144,0.94693,0.));
#1301=VECTOR('',#1300,11.24934);
#1302=LINE('',#1265,#1301);
#1303=EDGE_CURVE('',#1266,#1294,#1302,.T.);
#1304=ORIENTED_EDGE('',*,*,#1303,.F.);
#1305=ORIENTED_EDGE('',*,*,#1270,.F.);
#1306=EDGE_LOOP('',(#1292,#1299,#1304,#1305));
#1307=FACE_OUTER_BOUND('',#1306,.T.);
#1308=CARTESIAN_POINT('',(836.95364,-32.91078,317.));
#1309=DIRECTION('',(0.94693,-0.32144,0.));
#1310=DIRECTION('',(0.32144,0.94693,0.));
#1311=AXIS2_PLACEMENT_3D('',#1308,#1309,#1310);
#1312=PLANE('',#1311);
#1313=ADVANCED_FACE('',(#1307),#1312,.T.);
#1314=CARTESIAN_POINT('',(842.76426,-11.22525,317.));
#1315=VERTEX_POINT('',#1314);
#1316=DIRECTION('',(0.19509,0.98079,0.));
#1317=VECTOR('',#1316,11.24934);
#1318=LINE('',#1286,#1317);
#1319=EDGE_CURVE('',#1287,#1315,#1318,.T.);
#1320=ORIENTED_EDGE('',*,*,#1319,.T.);
#1321=CARTESIAN_POINT('',(842.76426,-11.22525,323.));
#1322=VERTEX_POINT('',#1321);
#1323=DIRECTION('',(0.,0.,1.));
#1324=VECTOR('',#1323,6.);
#1325=LINE('',#1314,#1324);
#1326=EDGE_CURVE('',#1315,#1322,#1325,.T.);
#1327=ORIENTED_EDGE('',*,*,#1326,.T.);
#1328=DIRECTION('',(0.19509,0.98079,0.));
#1329=VECTOR('',#1328,11.24934);
#1330=LINE('',#1293,#1329);
#1331=EDGE_CURVE('',#1294,#1322,#1330,.T.);
#1332=ORIENTED_EDGE('',*,*,#1331,.F.);
#1333=ORIENTED_EDGE('',*,*,#1298,.F.);
#1334=EDGE_LOOP('',(#1320,#1327,#1332,#1333));
#1335=FACE_OUTER_BOUND('',#1334,.T.);
#1336=CARTESIAN_POINT('',(840.56962,-22.25844,317.));
#1337=DIRECTION('',(0.98079,-0.19509,0.));
#1338=DIRECTION('',(0.19509,0.98079,0.));
#1339=AXIS2_PLACEMENT_3D('',#1336,#1337,#1338);
#1340=PLANE('',#1339);
#1341=ADVANCED_FACE('',(#1335),#1340,.T.);
#1342=DIRECTION('',(-0.0654,-0.99786,0.));
#1343=VECTOR('',#1342,11.24934);
#1344=LINE('',#18,#1343);
#1345=EDGE_CURVE('',#19,#1315,#1344,.T.);
#1346=ORIENTED_EDGE('',*,*,#1345,.F.);
#1347=ORIENTED_EDGE('',*,*,#44,.T.);
#1348=DIRECTION('',(-0.0654,-0.99786,0.));
#1349=VECTOR('',#1348,11.24934);
#1350=LINE('',#34,#1349);
#1351=EDGE_CURVE('',#35,#1322,#1350,.T.);
#1352=ORIENTED_EDGE('',*,*,#1351,.T.);
#1353=ORIENTED_EDGE('',*,*,#1326,.F.);
#1354=EDGE_LOOP('',(#1346,#1347,#1352,#1353));
#1355=FACE_OUTER_BOUND('',#1354,.T.);
#1356=CARTESIAN_POINT('',(842.76426,-11.22525,317.));
#1357=DIRECTION('',(0.99786,-0.0654,0.));
#1358=DIRECTION('',(0.0654,0.99786,0.));
#1359=AXIS2_PLACEMENT_3D('',#1356,#1357,#1358);
#1360=PLANE('',#1359);
#1361=ADVANCED_FACE('',(#1355),#1360,.T.);
#1362=ORIENTED_EDGE('',*,*,#1319,.F.);
#1363=ORIENTED_EDGE('',*,*,#1291,.F.);
#1364=ORIENTED_EDGE('',*,*,#1263,.F.);
#1365=ORIENTED_EDGE('',*,*,#1235,.F.);
#1366=ORIENTED_EDGE('',*,*,#1207,.F.);
#1367=ORIENTED_EDGE('',*,*,#1179,.F.);
#1368=ORIENTED_EDGE('',*,*,#1151,.F.);
#1369=ORIENTED_EDGE('',*,*,#1123,.F.);
#1370=ORIENTED_EDGE('',*,*,#1095,.F.);
#1371=ORIENTED_EDGE('',*,*,#1067,.F.);
#1372=ORIENTED_EDGE('',*,*,#1039,.F.);
#1373=ORIENTED_EDGE('',*,*,#1011,.F.);
#1374=ORIENTED_EDGE('',*,*,#983,.F.);
#1375=ORIENTED_EDGE('',*,*,#955,.F.);
#1376=ORIENTED_EDGE('',*,*,#927,.F.);
#1377=ORIENTED_EDGE('',*,*,#899,.F.);
#1378=ORIENTED_EDGE('',*,*,#871,.F.);
#1379=ORIENTED_EDGE('',*,*,#843,.F.);
#1380=ORIENTED_EDGE('',*,*,#815,.F.);
#1381=ORIENTED_EDGE('',*,*,#787,.F.);
#1382=ORIENTED_EDGE('',*,*,#759,.F.);
#1383=ORIENTED_EDGE('',*,*,#731,.F.);
#1384=ORIENTED_EDGE('',*,*,#703,.F.);
#1385=ORIENTED_EDGE('',*,*,#675,.F.);
#1386=ORIENTED_EDGE('',*,*,#647,.F.);
#1387=ORIENTED_EDGE('',*,*,#619,.F.);
#1388=ORIENTED_EDGE('',*,*,#591,.F.);
#1389=ORIENTED_EDGE('',*,*,#563,.F.);
#1390=ORIENTED_EDGE('',*,*,#535,.F.);
#1391=ORIENTED_EDGE('',*,*,#507,.F.);
#1392=ORIENTED_EDGE('',*,*,#479,.F.);
#1393=ORIENTED_EDGE('',*,*,#451,.F.);
#1394=ORIENTED_EDGE('',*,*,#423,.F.);
#1395=ORIENTED_EDGE('',*,*,#395,.F.);
#1396=ORIENTED_EDGE('',*,*,#367,.F.);
#1397=ORIENTED_EDGE('',*,*,#339,.F.);
#1398=ORIENTED_EDGE('',*,*,#311,.F.);
#1399=ORIENTED_EDGE('',*,*,#283,.F.);
#1400=ORIENTED_EDGE('',*,*,#255,.F.);
#1401=ORIENTED_EDGE('',*,*,#227,.F.);
#1402=ORIENTED_EDGE('',*,*,#199,.F.);
#1403=ORIENTED_EDGE('',*,*,#171,.F.);
#1404=ORIENTED_EDGE('',*,*,#143,.F.);
#1405=ORIENTED_EDGE('',*,*,#115,.F.);
#1406=ORIENTED_EDGE('',*,*,#87,.F.);
#1407=ORIENTED_EDGE('',*,*,#59,.F.);
#1408=ORIENTED_EDGE('',*,*,#25,.F.);
#1409=ORIENTED_EDGE('',*,*,#1345,.T.);
#1410=EDGE_LOOP('',(#1362,#1363,#1364,#1365,#1366,#1367,#1368,#1369,#1370,#1371,#1372,#1373,#1374,#1375,#1376,#1377,#1378,#1379,#1380,#1381,#1382,#1383,#1384,#1385,#1386,#1387,#1388,#1389,#1390,#1391,#1392,#1393,#1394,#1395,#1396,#1397,#1398,#1399,#1400,#1401,#1402,#1403,#1404,#1405,#1406,#1407,#1408,#1409));
#1411=FACE_OUTER_BOUND('',#1410,.T.);
#1412=CARTESIAN_POINT('',(842.76426,-11.22525,317.));
#1413=DIRECTION('',(0.,0.,-1.));
#1414=DIRECTION('',(-0.19509,-0.98079,0.));
#1415=AXIS2_PLACEMENT_3D('',#1412,#1413,#1414);
#1416=PLANE('',#1415);
#1417=ADVANCED_FACE('',(#1411),#1416,.T.);
#1418=ORIENTED_EDGE('',*,*,#39,.T.);
#1419=ORIENTED_EDGE('',*,*,#71,.T.);
#1420=ORIENTED_EDGE('',*,*,#99,.T.);
#1421=ORIENTED_EDGE('',*,*,#127,.T.);
#1422=ORIENTED_EDGE('',*,*,#155,.T.);
#1423=ORIENTED_EDGE('',*,*,#183,.T.);
#1424=ORIENTED_EDGE('',*,*,#211,.T.);
#1425=ORIENTED_EDGE('',*,*,#239,.T.);
#1426=ORIENTED_EDGE('',*,*,#267,.T.);
#1427=ORIENTED_EDGE('',*,*,#295,.T.);
#1428=ORIENTED_EDGE('',*,*,#323,.T.);
#1429=ORIENTED_EDGE('',*,*,#351,.T.);
#1430=ORIENTED_EDGE('',*,*,#379,.T.);
#1431=ORIENTED_EDGE('',*,*,#407,.T.);
#1432=ORIENTED_EDGE('',*,*,#435,.T.);
#1433=ORIENTED_EDGE('',*,*,#463,.T.);
#1434=ORIENTED_EDGE('',*,*,#491,.T.);
#1435=ORIENTED_EDGE('',*,*,#519,.T.);
#1436=ORIENTED_EDGE('',*,*,#547,.T.);
#1437=ORIENTED_EDGE('',*,*,#575,.T.);
#1438=ORIENTED_EDGE('',*,*,#603,.T.);
#1439=ORIENTED_EDGE('',*,*,#631,.T.);
#1440=ORIENTED_EDGE('',*,*,#659,.T.);
#1441=ORIENTED_EDGE('',*,*,#687,.T.);
#1442=ORIENTED_EDGE('',*,*,#715,.T.);
#1443=ORIENTED_EDGE('',*,*,#743,.T.);
#1444=ORIENTED_EDGE('',*,*,#771,.T.);
#1445=ORIENTED_EDGE('',*,*,#799,.T.);
#1446=ORIENTED_EDGE('',*,*,#827,.T.);
#1447=ORIENTED_EDGE('',*,*,#855,.T.);
#1448=ORIENTED_EDGE('',*,*,#883,.T.);
#1449=ORIENTED_EDGE('',*,*,#911,.T.);
#1450=ORIENTED_EDGE('',*,*,#939,.T.);
#1451=ORIENTED_EDGE('',*,*,#967,.T.);
#1452=ORIENTED_EDGE('',*,*,#995,.T.);
#1453=ORIENTED_EDGE('',*,*,#1023,.T.);
#1454=ORIENTED_EDGE('',*,*,#1051,.T.);
#1455=ORIENTED_EDGE('',*,*,#1079,.T.);
#1456=ORIENTED_EDGE('',*,*,#1107,.T.);
#1457=ORIENTED_EDGE('',*,*,#1135,.T.);
#1458=ORIENTED_EDGE('',*,*,#1163,.T.);
#1459=ORIENTED_EDGE('',*,*,#1191,.T.);
#1460=ORIENTED_EDGE('',*,*,#1219,.T.);
#1461=ORIENTED_EDGE('',*,*,#1247,.T.);
#1462=ORIENTED_EDGE('',*,*,#1275,.T.);
#1463=ORIENTED_EDGE('',*,*,#1303,.T.);
#1464=ORIENTED_EDGE('',*,*,#1331,.T.);
#1465=ORIENTED_EDGE('',*,*,#1351,.F.);
#1466=EDGE_LOOP('',(#1418,#1419,#1420,#1421,#1422,#1423,#1424,#1425,#1426,#1427,#1428,#1429,#1430,#1431,#1432,#1433,#1434,#1435,#1436,#1437,#1438,#1439,#1440,#1441,#1442,#1443,#1444,#1445,#1446,#1447,#1448,#1449,#1450,#1451,#1452,#1453,#1454,#1455,#1456,#1457,#1458,#1459,#1460,#1461,#1462,#1463,#1464,#1465));
#1467=FACE_OUTER_BOUND('',#1466,.T.);
#1468=CARTESIAN_POINT('',(843.5,0.,323.));
#1469=DIRECTION('',(0.,0.,1.));
#1470=DIRECTION('',(-0.0654,0.99786,0.));
#1471=AXIS2_PLACEMENT_3D('',#1468,#1469,#1470);
#1472=PLANE('',#1471);
#1473=ADVANCED_FACE('',(#1467),#1472,.T.);
#1474=CLOSED_SHELL('',(#53,#81,#109,#137,#165,#193,#221,#249,#277,#305,#333,#361,#389,#417,#445,#473,#501,#529,#557,#585,#613,#641,#669,#697,#725,#753,#781,#809,#837,#865,#893,#921,#949,#977,#1005,#1033,#1061,#1089,#1117,#1145,#1173,#1201,#1229,#1257,#1285,#1313,#1341,#1361,#1417,#1473));
#1475=MANIFOLD_SOLID_BREP('',#1474);
#1476=COLOUR_RGB('',0.1,0.1,0.11);
#1477=FILL_AREA_STYLE_COLOUR('',#1476);
#1478=FILL_AREA_STYLE('',(#1477));
#1479=SURFACE_STYLE_FILL_AREA(#1478);
#1480=SURFACE_SIDE_STYLE('',(#1479));
#1481=SURFACE_STYLE_USAGE(.BOTH.,#1480);
#1482=PRESENTATION_STYLE_ASSIGNMENT((#1481));
#1483=STYLED_ITEM('color',(#1482),#1475);
#1484=CARTESIAN_POINT('',(767.5,0.,309.));
#1485=VERTEX_POINT('',#1484);
#1486=CARTESIAN_POINT('',(767.01057,3.09017,309.));
#1487=VERTEX_POINT('',#1486);
#1488=DIRECTION('',(-0.15643,0.98769,0.));
#1489=VECTOR('',#1488,3.12869);
#1490=LINE('',#1484,#1489);
#1491=EDGE_CURVE('',#1485,#1487,#1490,.T.);
#1492=ORIENTED_EDGE('',*,*,#1491,.T.);
#1493=CARTESIAN_POINT('',(767.01057,3.09017,317.));
#1494=VERTEX_POINT('',#1493);
#1495=DIRECTION('',(0.,0.,1.));
#1496=VECTOR('',#1495,8.);
#1497=LINE('',#1486,#1496);
#1498=EDGE_CURVE('',#1487,#1494,#1497,.T.);
#1499=ORIENTED_EDGE('',*,*,#1498,.T.);
#1500=CARTESIAN_POINT('',(767.5,0.,317.));
#1501=VERTEX_POINT('',#1500);
#1502=DIRECTION('',(-0.15643,0.98769,0.));
#1503=VECTOR('',#1502,3.12869);
#1504=LINE('',#1500,#1503);
#1505=EDGE_CURVE('',#1501,#1494,#1504,.T.);
#1506=ORIENTED_EDGE('',*,*,#1505,.F.);
#1507=DIRECTION('',(0.,0.,1.));
#1508=VECTOR('',#1507,8.);
#1509=LINE('',#1484,#1508);
#1510=EDGE_CURVE('',#1485,#1501,#1509,.T.);
#1511=ORIENTED_EDGE('',*,*,#1510,.F.);
#1512=EDGE_LOOP('',(#1492,#1499,#1506,#1511));
#1513=FACE_OUTER_BOUND('',#1512,.T.);
#1514=CARTESIAN_POINT('',(767.5,0.,309.));
#1515=DIRECTION('',(0.98769,0.15643,0.));
#1516=DIRECTION('',(-0.15643,0.98769,0.));
#1517=AXIS2_PLACEMENT_3D('',#1514,#1515,#1516);
#1518=PLANE('',#1517);
#1519=ADVANCED_FACE('',(#1513),#1518,.T.);
#1520=CARTESIAN_POINT('',(765.59017,5.87785,309.));
#1521=VERTEX_POINT('',#1520);
#1522=DIRECTION('',(-0.45399,0.89101,0.));
#1523=VECTOR('',#1522,3.12869);
#1524=LINE('',#1486,#1523);
#1525=EDGE_CURVE('',#1487,#1521,#1524,.T.);
#1526=ORIENTED_EDGE('',*,*,#1525,.T.);
#1527=CARTESIAN_POINT('',(765.59017,5.87785,317.));
#1528=VERTEX_POINT('',#1527);
#1529=DIRECTION('',(0.,0.,1.));
#1530=VECTOR('',#1529,8.);
#1531=LINE('',#1520,#1530);
#1532=EDGE_CURVE('',#1521,#1528,#1531,.T.);
#1533=ORIENTED_EDGE('',*,*,#1532,.T.);
#1534=DIRECTION('',(-0.45399,0.89101,0.));
#1535=VECTOR('',#1534,3.12869);
#1536=LINE('',#1493,#1535);
#1537=EDGE_CURVE('',#1494,#1528,#1536,.T.);
#1538=ORIENTED_EDGE('',*,*,#1537,.F.);
#1539=ORIENTED_EDGE('',*,*,#1498,.F.);
#1540=EDGE_LOOP('',(#1526,#1533,#1538,#1539));
#1541=FACE_OUTER_BOUND('',#1540,.T.);
#1542=CARTESIAN_POINT('',(767.01057,3.09017,309.));
#1543=DIRECTION('',(0.89101,0.45399,0.));
#1544=DIRECTION('',(-0.45399,0.89101,0.));
#1545=AXIS2_PLACEMENT_3D('',#1542,#1543,#1544);
#1546=PLANE('',#1545);
#1547=ADVANCED_FACE('',(#1541),#1546,.T.);
#1548=CARTESIAN_POINT('',(763.37785,8.09017,309.));
#1549=VERTEX_POINT('',#1548);
#1550=DIRECTION('',(-0.70711,0.70711,0.));
#1551=VECTOR('',#1550,3.12869);
#1552=LINE('',#1520,#1551);
#1553=EDGE_CURVE('',#1521,#1549,#1552,.T.);
#1554=ORIENTED_EDGE('',*,*,#1553,.T.);
#1555=CARTESIAN_POINT('',(763.37785,8.09017,317.));
#1556=VERTEX_POINT('',#1555);
#1557=DIRECTION('',(0.,0.,1.));
#1558=VECTOR('',#1557,8.);
#1559=LINE('',#1548,#1558);
#1560=EDGE_CURVE('',#1549,#1556,#1559,.T.);
#1561=ORIENTED_EDGE('',*,*,#1560,.T.);
#1562=DIRECTION('',(-0.70711,0.70711,0.));
#1563=VECTOR('',#1562,3.12869);
#1564=LINE('',#1527,#1563);
#1565=EDGE_CURVE('',#1528,#1556,#1564,.T.);
#1566=ORIENTED_EDGE('',*,*,#1565,.F.);
#1567=ORIENTED_EDGE('',*,*,#1532,.F.);
#1568=EDGE_LOOP('',(#1554,#1561,#1566,#1567));
#1569=FACE_OUTER_BOUND('',#1568,.T.);
#1570=CARTESIAN_POINT('',(765.59017,5.87785,309.));
#1571=DIRECTION('',(0.70711,0.70711,0.));
#1572=DIRECTION('',(-0.70711,0.70711,0.));
#1573=AXIS2_PLACEMENT_3D('',#1570,#1571,#1572);
#1574=PLANE('',#1573);
#1575=ADVANCED_FACE('',(#1569),#1574,.T.);
#1576=CARTESIAN_POINT('',(760.59017,9.51057,309.));
#1577=VERTEX_POINT('',#1576);
#1578=DIRECTION('',(-0.89101,0.45399,0.));
#1579=VECTOR('',#1578,3.12869);
#1580=LINE('',#1548,#1579);
#1581=EDGE_CURVE('',#1549,#1577,#1580,.T.);
#1582=ORIENTED_EDGE('',*,*,#1581,.T.);
#1583=CARTESIAN_POINT('',(760.59017,9.51057,317.));
#1584=VERTEX_POINT('',#1583);
#1585=DIRECTION('',(0.,0.,1.));
#1586=VECTOR('',#1585,8.);
#1587=LINE('',#1576,#1586);
#1588=EDGE_CURVE('',#1577,#1584,#1587,.T.);
#1589=ORIENTED_EDGE('',*,*,#1588,.T.);
#1590=DIRECTION('',(-0.89101,0.45399,0.));
#1591=VECTOR('',#1590,3.12869);
#1592=LINE('',#1555,#1591);
#1593=EDGE_CURVE('',#1556,#1584,#1592,.T.);
#1594=ORIENTED_EDGE('',*,*,#1593,.F.);
#1595=ORIENTED_EDGE('',*,*,#1560,.F.);
#1596=EDGE_LOOP('',(#1582,#1589,#1594,#1595));
#1597=FACE_OUTER_BOUND('',#1596,.T.);
#1598=CARTESIAN_POINT('',(763.37785,8.09017,309.));
#1599=DIRECTION('',(0.45399,0.89101,0.));
#1600=DIRECTION('',(-0.89101,0.45399,0.));
#1601=AXIS2_PLACEMENT_3D('',#1598,#1599,#1600);
#1602=PLANE('',#1601);
#1603=ADVANCED_FACE('',(#1597),#1602,.T.);
#1604=CARTESIAN_POINT('',(757.5,10.,309.));
#1605=VERTEX_POINT('',#1604);
#1606=DIRECTION('',(-0.98769,0.15643,0.));
#1607=VECTOR('',#1606,3.12869);
#1608=LINE('',#1576,#1607);
#1609=EDGE_CURVE('',#1577,#1605,#1608,.T.);
#1610=ORIENTED_EDGE('',*,*,#1609,.T.);
#1611=CARTESIAN_POINT('',(757.5,10.,317.));
#1612=VERTEX_POINT('',#1611);
#1613=DIRECTION('',(0.,0.,1.));
#1614=VECTOR('',#1613,8.);
#1615=LINE('',#1604,#1614);
#1616=EDGE_CURVE('',#1605,#1612,#1615,.T.);
#1617=ORIENTED_EDGE('',*,*,#1616,.T.);
#1618=DIRECTION('',(-0.98769,0.15643,0.));
#1619=VECTOR('',#1618,3.12869);
#1620=LINE('',#1583,#1619);
#1621=EDGE_CURVE('',#1584,#1612,#1620,.T.);
#1622=ORIENTED_EDGE('',*,*,#1621,.F.);
#1623=ORIENTED_EDGE('',*,*,#1588,.F.);
#1624=EDGE_LOOP('',(#1610,#1617,#1622,#1623));
#1625=FACE_OUTER_BOUND('',#1624,.T.);
#1626=CARTESIAN_POINT('',(760.59017,9.51057,309.));
#1627=DIRECTION('',(0.15643,0.98769,0.));
#1628=DIRECTION('',(-0.98769,0.15643,0.));
#1629=AXIS2_PLACEMENT_3D('',#1626,#1627,#1628);
#1630=PLANE('',#1629);
#1631=ADVANCED_FACE('',(#1625),#1630,.T.);
#1632=CARTESIAN_POINT('',(754.40983,9.51057,309.));
#1633=VERTEX_POINT('',#1632);
#1634=DIRECTION('',(-0.98769,-0.15643,0.));
#1635=VECTOR('',#1634,3.12869);
#1636=LINE('',#1604,#1635);
#1637=EDGE_CURVE('',#1605,#1633,#1636,.T.);
#1638=ORIENTED_EDGE('',*,*,#1637,.T.);
#1639=CARTESIAN_POINT('',(754.40983,9.51057,317.));
#1640=VERTEX_POINT('',#1639);
#1641=DIRECTION('',(0.,0.,1.));
#1642=VECTOR('',#1641,8.);
#1643=LINE('',#1632,#1642);
#1644=EDGE_CURVE('',#1633,#1640,#1643,.T.);
#1645=ORIENTED_EDGE('',*,*,#1644,.T.);
#1646=DIRECTION('',(-0.98769,-0.15643,0.));
#1647=VECTOR('',#1646,3.12869);
#1648=LINE('',#1611,#1647);
#1649=EDGE_CURVE('',#1612,#1640,#1648,.T.);
#1650=ORIENTED_EDGE('',*,*,#1649,.F.);
#1651=ORIENTED_EDGE('',*,*,#1616,.F.);
#1652=EDGE_LOOP('',(#1638,#1645,#1650,#1651));
#1653=FACE_OUTER_BOUND('',#1652,.T.);
#1654=CARTESIAN_POINT('',(757.5,10.,309.));
#1655=DIRECTION('',(-0.15643,0.98769,0.));
#1656=DIRECTION('',(-0.98769,-0.15643,0.));
#1657=AXIS2_PLACEMENT_3D('',#1654,#1655,#1656);
#1658=PLANE('',#1657);
#1659=ADVANCED_FACE('',(#1653),#1658,.T.);
#1660=CARTESIAN_POINT('',(751.62215,8.09017,309.));
#1661=VERTEX_POINT('',#1660);
#1662=DIRECTION('',(-0.89101,-0.45399,0.));
#1663=VECTOR('',#1662,3.12869);
#1664=LINE('',#1632,#1663);
#1665=EDGE_CURVE('',#1633,#1661,#1664,.T.);
#1666=ORIENTED_EDGE('',*,*,#1665,.T.);
#1667=CARTESIAN_POINT('',(751.62215,8.09017,317.));
#1668=VERTEX_POINT('',#1667);
#1669=DIRECTION('',(0.,0.,1.));
#1670=VECTOR('',#1669,8.);
#1671=LINE('',#1660,#1670);
#1672=EDGE_CURVE('',#1661,#1668,#1671,.T.);
#1673=ORIENTED_EDGE('',*,*,#1672,.T.);
#1674=DIRECTION('',(-0.89101,-0.45399,0.));
#1675=VECTOR('',#1674,3.12869);
#1676=LINE('',#1639,#1675);
#1677=EDGE_CURVE('',#1640,#1668,#1676,.T.);
#1678=ORIENTED_EDGE('',*,*,#1677,.F.);
#1679=ORIENTED_EDGE('',*,*,#1644,.F.);
#1680=EDGE_LOOP('',(#1666,#1673,#1678,#1679));
#1681=FACE_OUTER_BOUND('',#1680,.T.);
#1682=CARTESIAN_POINT('',(754.40983,9.51057,309.));
#1683=DIRECTION('',(-0.45399,0.89101,0.));
#1684=DIRECTION('',(-0.89101,-0.45399,0.));
#1685=AXIS2_PLACEMENT_3D('',#1682,#1683,#1684);
#1686=PLANE('',#1685);
#1687=ADVANCED_FACE('',(#1681),#1686,.T.);
#1688=CARTESIAN_POINT('',(749.40983,5.87785,309.));
#1689=VERTEX_POINT('',#1688);
#1690=DIRECTION('',(-0.70711,-0.70711,0.));
#1691=VECTOR('',#1690,3.12869);
#1692=LINE('',#1660,#1691);
#1693=EDGE_CURVE('',#1661,#1689,#1692,.T.);
#1694=ORIENTED_EDGE('',*,*,#1693,.T.);
#1695=CARTESIAN_POINT('',(749.40983,5.87785,317.));
#1696=VERTEX_POINT('',#1695);
#1697=DIRECTION('',(0.,0.,1.));
#1698=VECTOR('',#1697,8.);
#1699=LINE('',#1688,#1698);
#1700=EDGE_CURVE('',#1689,#1696,#1699,.T.);
#1701=ORIENTED_EDGE('',*,*,#1700,.T.);
#1702=DIRECTION('',(-0.70711,-0.70711,0.));
#1703=VECTOR('',#1702,3.12869);
#1704=LINE('',#1667,#1703);
#1705=EDGE_CURVE('',#1668,#1696,#1704,.T.);
#1706=ORIENTED_EDGE('',*,*,#1705,.F.);
#1707=ORIENTED_EDGE('',*,*,#1672,.F.);
#1708=EDGE_LOOP('',(#1694,#1701,#1706,#1707));
#1709=FACE_OUTER_BOUND('',#1708,.T.);
#1710=CARTESIAN_POINT('',(751.62215,8.09017,309.));
#1711=DIRECTION('',(-0.70711,0.70711,0.));
#1712=DIRECTION('',(-0.70711,-0.70711,0.));
#1713=AXIS2_PLACEMENT_3D('',#1710,#1711,#1712);
#1714=PLANE('',#1713);
#1715=ADVANCED_FACE('',(#1709),#1714,.T.);
#1716=CARTESIAN_POINT('',(747.98943,3.09017,309.));
#1717=VERTEX_POINT('',#1716);
#1718=DIRECTION('',(-0.45399,-0.89101,0.));
#1719=VECTOR('',#1718,3.12869);
#1720=LINE('',#1688,#1719);
#1721=EDGE_CURVE('',#1689,#1717,#1720,.T.);
#1722=ORIENTED_EDGE('',*,*,#1721,.T.);
#1723=CARTESIAN_POINT('',(747.98943,3.09017,317.));
#1724=VERTEX_POINT('',#1723);
#1725=DIRECTION('',(0.,0.,1.));
#1726=VECTOR('',#1725,8.);
#1727=LINE('',#1716,#1726);
#1728=EDGE_CURVE('',#1717,#1724,#1727,.T.);
#1729=ORIENTED_EDGE('',*,*,#1728,.T.);
#1730=DIRECTION('',(-0.45399,-0.89101,0.));
#1731=VECTOR('',#1730,3.12869);
#1732=LINE('',#1695,#1731);
#1733=EDGE_CURVE('',#1696,#1724,#1732,.T.);
#1734=ORIENTED_EDGE('',*,*,#1733,.F.);
#1735=ORIENTED_EDGE('',*,*,#1700,.F.);
#1736=EDGE_LOOP('',(#1722,#1729,#1734,#1735));
#1737=FACE_OUTER_BOUND('',#1736,.T.);
#1738=CARTESIAN_POINT('',(749.40983,5.87785,309.));
#1739=DIRECTION('',(-0.89101,0.45399,0.));
#1740=DIRECTION('',(-0.45399,-0.89101,0.));
#1741=AXIS2_PLACEMENT_3D('',#1738,#1739,#1740);
#1742=PLANE('',#1741);
#1743=ADVANCED_FACE('',(#1737),#1742,.T.);
#1744=CARTESIAN_POINT('',(747.5,0.,309.));
#1745=VERTEX_POINT('',#1744);
#1746=DIRECTION('',(-0.15643,-0.98769,0.));
#1747=VECTOR('',#1746,3.12869);
#1748=LINE('',#1716,#1747);
#1749=EDGE_CURVE('',#1717,#1745,#1748,.T.);
#1750=ORIENTED_EDGE('',*,*,#1749,.T.);
#1751=CARTESIAN_POINT('',(747.5,0.,317.));
#1752=VERTEX_POINT('',#1751);
#1753=DIRECTION('',(0.,0.,1.));
#1754=VECTOR('',#1753,8.);
#1755=LINE('',#1744,#1754);
#1756=EDGE_CURVE('',#1745,#1752,#1755,.T.);
#1757=ORIENTED_EDGE('',*,*,#1756,.T.);
#1758=DIRECTION('',(-0.15643,-0.98769,0.));
#1759=VECTOR('',#1758,3.12869);
#1760=LINE('',#1723,#1759);
#1761=EDGE_CURVE('',#1724,#1752,#1760,.T.);
#1762=ORIENTED_EDGE('',*,*,#1761,.F.);
#1763=ORIENTED_EDGE('',*,*,#1728,.F.);
#1764=EDGE_LOOP('',(#1750,#1757,#1762,#1763));
#1765=FACE_OUTER_BOUND('',#1764,.T.);
#1766=CARTESIAN_POINT('',(747.98943,3.09017,309.));
#1767=DIRECTION('',(-0.98769,0.15643,0.));
#1768=DIRECTION('',(-0.15643,-0.98769,0.));
#1769=AXIS2_PLACEMENT_3D('',#1766,#1767,#1768);
#1770=PLANE('',#1769);
#1771=ADVANCED_FACE('',(#1765),#1770,.T.);
#1772=CARTESIAN_POINT('',(747.98943,-3.09017,309.));
#1773=VERTEX_POINT('',#1772);
#1774=DIRECTION('',(0.15643,-0.98769,0.));
#1775=VECTOR('',#1774,3.12869);
#1776=LINE('',#1744,#1775);
#1777=EDGE_CURVE('',#1745,#1773,#1776,.T.);
#1778=ORIENTED_EDGE('',*,*,#1777,.T.);
#1779=CARTESIAN_POINT('',(747.98943,-3.09017,317.));
#1780=VERTEX_POINT('',#1779);
#1781=DIRECTION('',(0.,0.,1.));
#1782=VECTOR('',#1781,8.);
#1783=LINE('',#1772,#1782);
#1784=EDGE_CURVE('',#1773,#1780,#1783,.T.);
#1785=ORIENTED_EDGE('',*,*,#1784,.T.);
#1786=DIRECTION('',(0.15643,-0.98769,0.));
#1787=VECTOR('',#1786,3.12869);
#1788=LINE('',#1751,#1787);
#1789=EDGE_CURVE('',#1752,#1780,#1788,.T.);
#1790=ORIENTED_EDGE('',*,*,#1789,.F.);
#1791=ORIENTED_EDGE('',*,*,#1756,.F.);
#1792=EDGE_LOOP('',(#1778,#1785,#1790,#1791));
#1793=FACE_OUTER_BOUND('',#1792,.T.);
#1794=CARTESIAN_POINT('',(747.5,0.,309.));
#1795=DIRECTION('',(-0.98769,-0.15643,0.));
#1796=DIRECTION('',(0.15643,-0.98769,0.));
#1797=AXIS2_PLACEMENT_3D('',#1794,#1795,#1796);
#1798=PLANE('',#1797);
#1799=ADVANCED_FACE('',(#1793),#1798,.T.);
#1800=CARTESIAN_POINT('',(749.40983,-5.87785,309.));
#1801=VERTEX_POINT('',#1800);
#1802=DIRECTION('',(0.45399,-0.89101,0.));
#1803=VECTOR('',#1802,3.12869);
#1804=LINE('',#1772,#1803);
#1805=EDGE_CURVE('',#1773,#1801,#1804,.T.);
#1806=ORIENTED_EDGE('',*,*,#1805,.T.);
#1807=CARTESIAN_POINT('',(749.40983,-5.87785,317.));
#1808=VERTEX_POINT('',#1807);
#1809=DIRECTION('',(0.,0.,1.));
#1810=VECTOR('',#1809,8.);
#1811=LINE('',#1800,#1810);
#1812=EDGE_CURVE('',#1801,#1808,#1811,.T.);
#1813=ORIENTED_EDGE('',*,*,#1812,.T.);
#1814=DIRECTION('',(0.45399,-0.89101,0.));
#1815=VECTOR('',#1814,3.12869);
#1816=LINE('',#1779,#1815);
#1817=EDGE_CURVE('',#1780,#1808,#1816,.T.);
#1818=ORIENTED_EDGE('',*,*,#1817,.F.);
#1819=ORIENTED_EDGE('',*,*,#1784,.F.);
#1820=EDGE_LOOP('',(#1806,#1813,#1818,#1819));
#1821=FACE_OUTER_BOUND('',#1820,.T.);
#1822=CARTESIAN_POINT('',(747.98943,-3.09017,309.));
#1823=DIRECTION('',(-0.89101,-0.45399,0.));
#1824=DIRECTION('',(0.45399,-0.89101,0.));
#1825=AXIS2_PLACEMENT_3D('',#1822,#1823,#1824);
#1826=PLANE('',#1825);
#1827=ADVANCED_FACE('',(#1821),#1826,.T.);
#1828=CARTESIAN_POINT('',(751.62215,-8.09017,309.));
#1829=VERTEX_POINT('',#1828);
#1830=DIRECTION('',(0.70711,-0.70711,0.));
#1831=VECTOR('',#1830,3.12869);
#1832=LINE('',#1800,#1831);
#1833=EDGE_CURVE('',#1801,#1829,#1832,.T.);
#1834=ORIENTED_EDGE('',*,*,#1833,.T.);
#1835=CARTESIAN_POINT('',(751.62215,-8.09017,317.));
#1836=VERTEX_POINT('',#1835);
#1837=DIRECTION('',(0.,0.,1.));
#1838=VECTOR('',#1837,8.);
#1839=LINE('',#1828,#1838);
#1840=EDGE_CURVE('',#1829,#1836,#1839,.T.);
#1841=ORIENTED_EDGE('',*,*,#1840,.T.);
#1842=DIRECTION('',(0.70711,-0.70711,0.));
#1843=VECTOR('',#1842,3.12869);
#1844=LINE('',#1807,#1843);
#1845=EDGE_CURVE('',#1808,#1836,#1844,.T.);
#1846=ORIENTED_EDGE('',*,*,#1845,.F.);
#1847=ORIENTED_EDGE('',*,*,#1812,.F.);
#1848=EDGE_LOOP('',(#1834,#1841,#1846,#1847));
#1849=FACE_OUTER_BOUND('',#1848,.T.);
#1850=CARTESIAN_POINT('',(749.40983,-5.87785,309.));
#1851=DIRECTION('',(-0.70711,-0.70711,0.));
#1852=DIRECTION('',(0.70711,-0.70711,0.));
#1853=AXIS2_PLACEMENT_3D('',#1850,#1851,#1852);
#1854=PLANE('',#1853);
#1855=ADVANCED_FACE('',(#1849),#1854,.T.);
#1856=CARTESIAN_POINT('',(754.40983,-9.51057,309.));
#1857=VERTEX_POINT('',#1856);
#1858=DIRECTION('',(0.89101,-0.45399,0.));
#1859=VECTOR('',#1858,3.12869);
#1860=LINE('',#1828,#1859);
#1861=EDGE_CURVE('',#1829,#1857,#1860,.T.);
#1862=ORIENTED_EDGE('',*,*,#1861,.T.);
#1863=CARTESIAN_POINT('',(754.40983,-9.51057,317.));
#1864=VERTEX_POINT('',#1863);
#1865=DIRECTION('',(0.,0.,1.));
#1866=VECTOR('',#1865,8.);
#1867=LINE('',#1856,#1866);
#1868=EDGE_CURVE('',#1857,#1864,#1867,.T.);
#1869=ORIENTED_EDGE('',*,*,#1868,.T.);
#1870=DIRECTION('',(0.89101,-0.45399,0.));
#1871=VECTOR('',#1870,3.12869);
#1872=LINE('',#1835,#1871);
#1873=EDGE_CURVE('',#1836,#1864,#1872,.T.);
#1874=ORIENTED_EDGE('',*,*,#1873,.F.);
#1875=ORIENTED_EDGE('',*,*,#1840,.F.);
#1876=EDGE_LOOP('',(#1862,#1869,#1874,#1875));
#1877=FACE_OUTER_BOUND('',#1876,.T.);
#1878=CARTESIAN_POINT('',(751.62215,-8.09017,309.));
#1879=DIRECTION('',(-0.45399,-0.89101,0.));
#1880=DIRECTION('',(0.89101,-0.45399,0.));
#1881=AXIS2_PLACEMENT_3D('',#1878,#1879,#1880);
#1882=PLANE('',#1881);
#1883=ADVANCED_FACE('',(#1877),#1882,.T.);
#1884=CARTESIAN_POINT('',(757.5,-10.,309.));
#1885=VERTEX_POINT('',#1884);
#1886=DIRECTION('',(0.98769,-0.15643,0.));
#1887=VECTOR('',#1886,3.12869);
#1888=LINE('',#1856,#1887);
#1889=EDGE_CURVE('',#1857,#1885,#1888,.T.);
#1890=ORIENTED_EDGE('',*,*,#1889,.T.);
#1891=CARTESIAN_POINT('',(757.5,-10.,317.));
#1892=VERTEX_POINT('',#1891);
#1893=DIRECTION('',(0.,0.,1.));
#1894=VECTOR('',#1893,8.);
#1895=LINE('',#1884,#1894);
#1896=EDGE_CURVE('',#1885,#1892,#1895,.T.);
#1897=ORIENTED_EDGE('',*,*,#1896,.T.);
#1898=DIRECTION('',(0.98769,-0.15643,0.));
#1899=VECTOR('',#1898,3.12869);
#1900=LINE('',#1863,#1899);
#1901=EDGE_CURVE('',#1864,#1892,#1900,.T.);
#1902=ORIENTED_EDGE('',*,*,#1901,.F.);
#1903=ORIENTED_EDGE('',*,*,#1868,.F.);
#1904=EDGE_LOOP('',(#1890,#1897,#1902,#1903));
#1905=FACE_OUTER_BOUND('',#1904,.T.);
#1906=CARTESIAN_POINT('',(754.40983,-9.51057,309.));
#1907=DIRECTION('',(-0.15643,-0.98769,0.));
#1908=DIRECTION('',(0.98769,-0.15643,0.));
#1909=AXIS2_PLACEMENT_3D('',#1906,#1907,#1908);
#1910=PLANE('',#1909);
#1911=ADVANCED_FACE('',(#1905),#1910,.T.);
#1912=CARTESIAN_POINT('',(760.59017,-9.51057,309.));
#1913=VERTEX_POINT('',#1912);
#1914=DIRECTION('',(0.98769,0.15643,0.));
#1915=VECTOR('',#1914,3.12869);
#1916=LINE('',#1884,#1915);
#1917=EDGE_CURVE('',#1885,#1913,#1916,.T.);
#1918=ORIENTED_EDGE('',*,*,#1917,.T.);
#1919=CARTESIAN_POINT('',(760.59017,-9.51057,317.));
#1920=VERTEX_POINT('',#1919);
#1921=DIRECTION('',(0.,0.,1.));
#1922=VECTOR('',#1921,8.);
#1923=LINE('',#1912,#1922);
#1924=EDGE_CURVE('',#1913,#1920,#1923,.T.);
#1925=ORIENTED_EDGE('',*,*,#1924,.T.);
#1926=DIRECTION('',(0.98769,0.15643,0.));
#1927=VECTOR('',#1926,3.12869);
#1928=LINE('',#1891,#1927);
#1929=EDGE_CURVE('',#1892,#1920,#1928,.T.);
#1930=ORIENTED_EDGE('',*,*,#1929,.F.);
#1931=ORIENTED_EDGE('',*,*,#1896,.F.);
#1932=EDGE_LOOP('',(#1918,#1925,#1930,#1931));
#1933=FACE_OUTER_BOUND('',#1932,.T.);
#1934=CARTESIAN_POINT('',(757.5,-10.,309.));
#1935=DIRECTION('',(0.15643,-0.98769,0.));
#1936=DIRECTION('',(0.98769,0.15643,0.));
#1937=AXIS2_PLACEMENT_3D('',#1934,#1935,#1936);
#1938=PLANE('',#1937);
#1939=ADVANCED_FACE('',(#1933),#1938,.T.);
#1940=CARTESIAN_POINT('',(763.37785,-8.09017,309.));
#1941=VERTEX_POINT('',#1940);
#1942=DIRECTION('',(0.89101,0.45399,0.));
#1943=VECTOR('',#1942,3.12869);
#1944=LINE('',#1912,#1943);
#1945=EDGE_CURVE('',#1913,#1941,#1944,.T.);
#1946=ORIENTED_EDGE('',*,*,#1945,.T.);
#1947=CARTESIAN_POINT('',(763.37785,-8.09017,317.));
#1948=VERTEX_POINT('',#1947);
#1949=DIRECTION('',(0.,0.,1.));
#1950=VECTOR('',#1949,8.);
#1951=LINE('',#1940,#1950);
#1952=EDGE_CURVE('',#1941,#1948,#1951,.T.);
#1953=ORIENTED_EDGE('',*,*,#1952,.T.);
#1954=DIRECTION('',(0.89101,0.45399,0.));
#1955=VECTOR('',#1954,3.12869);
#1956=LINE('',#1919,#1955);
#1957=EDGE_CURVE('',#1920,#1948,#1956,.T.);
#1958=ORIENTED_EDGE('',*,*,#1957,.F.);
#1959=ORIENTED_EDGE('',*,*,#1924,.F.);
#1960=EDGE_LOOP('',(#1946,#1953,#1958,#1959));
#1961=FACE_OUTER_BOUND('',#1960,.T.);
#1962=CARTESIAN_POINT('',(760.59017,-9.51057,309.));
#1963=DIRECTION('',(0.45399,-0.89101,0.));
#1964=DIRECTION('',(0.89101,0.45399,0.));
#1965=AXIS2_PLACEMENT_3D('',#1962,#1963,#1964);
#1966=PLANE('',#1965);
#1967=ADVANCED_FACE('',(#1961),#1966,.T.);
#1968=CARTESIAN_POINT('',(765.59017,-5.87785,309.));
#1969=VERTEX_POINT('',#1968);
#1970=DIRECTION('',(0.70711,0.70711,0.));
#1971=VECTOR('',#1970,3.12869);
#1972=LINE('',#1940,#1971);
#1973=EDGE_CURVE('',#1941,#1969,#1972,.T.);
#1974=ORIENTED_EDGE('',*,*,#1973,.T.);
#1975=CARTESIAN_POINT('',(765.59017,-5.87785,317.));
#1976=VERTEX_POINT('',#1975);
#1977=DIRECTION('',(0.,0.,1.));
#1978=VECTOR('',#1977,8.);
#1979=LINE('',#1968,#1978);
#1980=EDGE_CURVE('',#1969,#1976,#1979,.T.);
#1981=ORIENTED_EDGE('',*,*,#1980,.T.);
#1982=DIRECTION('',(0.70711,0.70711,0.));
#1983=VECTOR('',#1982,3.12869);
#1984=LINE('',#1947,#1983);
#1985=EDGE_CURVE('',#1948,#1976,#1984,.T.);
#1986=ORIENTED_EDGE('',*,*,#1985,.F.);
#1987=ORIENTED_EDGE('',*,*,#1952,.F.);
#1988=EDGE_LOOP('',(#1974,#1981,#1986,#1987));
#1989=FACE_OUTER_BOUND('',#1988,.T.);
#1990=CARTESIAN_POINT('',(763.37785,-8.09017,309.));
#1991=DIRECTION('',(0.70711,-0.70711,0.));
#1992=DIRECTION('',(0.70711,0.70711,0.));
#1993=AXIS2_PLACEMENT_3D('',#1990,#1991,#1992);
#1994=PLANE('',#1993);
#1995=ADVANCED_FACE('',(#1989),#1994,.T.);
#1996=CARTESIAN_POINT('',(767.01057,-3.09017,309.));
#1997=VERTEX_POINT('',#1996);
#1998=DIRECTION('',(0.45399,0.89101,0.));
#1999=VECTOR('',#1998,3.12869);
#2000=LINE('',#1968,#1999);
#2001=EDGE_CURVE('',#1969,#1997,#2000,.T.);
#2002=ORIENTED_EDGE('',*,*,#2001,.T.);
#2003=CARTESIAN_POINT('',(767.01057,-3.09017,317.));
#2004=VERTEX_POINT('',#2003);
#2005=DIRECTION('',(0.,0.,1.));
#2006=VECTOR('',#2005,8.);
#2007=LINE('',#1996,#2006);
#2008=EDGE_CURVE('',#1997,#2004,#2007,.T.);
#2009=ORIENTED_EDGE('',*,*,#2008,.T.);
#2010=DIRECTION('',(0.45399,0.89101,0.));
#2011=VECTOR('',#2010,3.12869);
#2012=LINE('',#1975,#2011);
#2013=EDGE_CURVE('',#1976,#2004,#2012,.T.);
#2014=ORIENTED_EDGE('',*,*,#2013,.F.);
#2015=ORIENTED_EDGE('',*,*,#1980,.F.);
#2016=EDGE_LOOP('',(#2002,#2009,#2014,#2015));
#2017=FACE_OUTER_BOUND('',#2016,.T.);
#2018=CARTESIAN_POINT('',(765.59017,-5.87785,309.));
#2019=DIRECTION('',(0.89101,-0.45399,0.));
#2020=DIRECTION('',(0.45399,0.89101,0.));
#2021=AXIS2_PLACEMENT_3D('',#2018,#2019,#2020);
#2022=PLANE('',#2021);
#2023=ADVANCED_FACE('',(#2017),#2022,.T.);
#2024=DIRECTION('',(-0.15643,-0.98769,0.));
#2025=VECTOR('',#2024,3.12869);
#2026=LINE('',#1484,#2025);
#2027=EDGE_CURVE('',#1485,#1997,#2026,.T.);
#2028=ORIENTED_EDGE('',*,*,#2027,.F.);
#2029=ORIENTED_EDGE('',*,*,#1510,.T.);
#2030=DIRECTION('',(-0.15643,-0.98769,0.));
#2031=VECTOR('',#2030,3.12869);
#2032=LINE('',#1500,#2031);
#2033=EDGE_CURVE('',#1501,#2004,#2032,.T.);
#2034=ORIENTED_EDGE('',*,*,#2033,.T.);
#2035=ORIENTED_EDGE('',*,*,#2008,.F.);
#2036=EDGE_LOOP('',(#2028,#2029,#2034,#2035));
#2037=FACE_OUTER_BOUND('',#2036,.T.);
#2038=CARTESIAN_POINT('',(767.01057,-3.09017,309.));
#2039=DIRECTION('',(0.98769,-0.15643,0.));
#2040=DIRECTION('',(0.15643,0.98769,0.));
#2041=AXIS2_PLACEMENT_3D('',#2038,#2039,#2040);
#2042=PLANE('',#2041);
#2043=ADVANCED_FACE('',(#2037),#2042,.T.);
#2044=ORIENTED_EDGE('',*,*,#2001,.F.);
#2045=ORIENTED_EDGE('',*,*,#1973,.F.);
#2046=ORIENTED_EDGE('',*,*,#1945,.F.);
#2047=ORIENTED_EDGE('',*,*,#1917,.F.);
#2048=ORIENTED_EDGE('',*,*,#1889,.F.);
#2049=ORIENTED_EDGE('',*,*,#1861,.F.);
#2050=ORIENTED_EDGE('',*,*,#1833,.F.);
#2051=ORIENTED_EDGE('',*,*,#1805,.F.);
#2052=ORIENTED_EDGE('',*,*,#1777,.F.);
#2053=ORIENTED_EDGE('',*,*,#1749,.F.);
#2054=ORIENTED_EDGE('',*,*,#1721,.F.);
#2055=ORIENTED_EDGE('',*,*,#1693,.F.);
#2056=ORIENTED_EDGE('',*,*,#1665,.F.);
#2057=ORIENTED_EDGE('',*,*,#1637,.F.);
#2058=ORIENTED_EDGE('',*,*,#1609,.F.);
#2059=ORIENTED_EDGE('',*,*,#1581,.F.);
#2060=ORIENTED_EDGE('',*,*,#1553,.F.);
#2061=ORIENTED_EDGE('',*,*,#1525,.F.);
#2062=ORIENTED_EDGE('',*,*,#1491,.F.);
#2063=ORIENTED_EDGE('',*,*,#2027,.T.);
#2064=EDGE_LOOP('',(#2044,#2045,#2046,#2047,#2048,#2049,#2050,#2051,#2052,#2053,#2054,#2055,#2056,#2057,#2058,#2059,#2060,#2061,#2062,#2063));
#2065=FACE_OUTER_BOUND('',#2064,.T.);
#2066=CARTESIAN_POINT('',(767.01057,-3.09017,309.));
#2067=DIRECTION('',(0.,0.,-1.));
#2068=DIRECTION('',(-0.45399,-0.89101,0.));
#2069=AXIS2_PLACEMENT_3D('',#2066,#2067,#2068);
#2070=PLANE('',#2069);
#2071=ADVANCED_FACE('',(#2065),#2070,.T.);
#2072=ORIENTED_EDGE('',*,*,#1505,.T.);
#2073=ORIENTED_EDGE('',*,*,#1537,.T.);
#2074=ORIENTED_EDGE('',*,*,#1565,.T.);
#2075=ORIENTED_EDGE('',*,*,#1593,.T.);
#2076=ORIENTED_EDGE('',*,*,#1621,.T.);
#2077=ORIENTED_EDGE('',*,*,#1649,.T.);
#2078=ORIENTED_EDGE('',*,*,#1677,.T.);
#2079=ORIENTED_EDGE('',*,*,#1705,.T.);
#2080=ORIENTED_EDGE('',*,*,#1733,.T.);
#2081=ORIENTED_EDGE('',*,*,#1761,.T.);
#2082=ORIENTED_EDGE('',*,*,#1789,.T.);
#2083=ORIENTED_EDGE('',*,*,#1817,.T.);
#2084=ORIENTED_EDGE('',*,*,#1845,.T.);
#2085=ORIENTED_EDGE('',*,*,#1873,.T.);
#2086=ORIENTED_EDGE('',*,*,#1901,.T.);
#2087=ORIENTED_EDGE('',*,*,#1929,.T.);
#2088=ORIENTED_EDGE('',*,*,#1957,.T.);
#2089=ORIENTED_EDGE('',*,*,#1985,.T.);
#2090=ORIENTED_EDGE('',*,*,#2013,.T.);
#2091=ORIENTED_EDGE('',*,*,#2033,.F.);
#2092=EDGE_LOOP('',(#2072,#2073,#2074,#2075,#2076,#2077,#2078,#2079,#2080,#2081,#2082,#2083,#2084,#2085,#2086,#2087,#2088,#2089,#2090,#2091));
#2093=FACE_OUTER_BOUND('',#2092,.T.);
#2094=CARTESIAN_POINT('',(767.5,0.,317.));
#2095=DIRECTION('',(0.,0.,1.));
#2096=DIRECTION('',(-0.15643,0.98769,0.));
#2097=AXIS2_PLACEMENT_3D('',#2094,#2095,#2096);
#2098=PLANE('',#2097);
#2099=ADVANCED_FACE('',(#2093),#2098,.T.);
#2100=CLOSED_SHELL('',(#1519,#1547,#1575,#1603,#1631,#1659,#1687,#1715,#1743,#1771,#1799,#1827,#1855,#1883,#1911,#1939,#1967,#1995,#2023,#2043,#2071,#2099));
#2101=MANIFOLD_SOLID_BREP('',#2100);
#2102=STYLED_ITEM('color',(#1482),#2101);
#2103=ADVANCED_BREP_SHAPE_REPRESENTATION('',(#17,#1475,#2101),#9);
#2104=SHAPE_DEFINITION_REPRESENTATION(#13,#2103);
#2105=MECHANICAL_DESIGN_GEOMETRIC_PRESENTATION_REPRESENTATION('',(#1483,#2102),#9);
#2106=PRODUCT_RELATED_PRODUCT_CATEGORY('part',$,(#10));
ENDSEC;
END-ISO-10303-21;
