ISO-10303-21;
HEADER;
FILE_DESCRIPTION(('AquaSentinel R3 - planar B-rep export'),'2;1');
FILE_NAME('MPPT charge controller','2026-10-04T21:49:43',('AquaSentinel team'),('Sanjivani University'),'AquaSentinel R3 python build','AquaSentinel R3','');
FILE_SCHEMA(('AUTOMOTIVE_DESIGN { 1 0 10303 214 1 1 1 1 }'));
ENDSEC;
DATA;
#1=APPLICATION_CONTEXT('core data for automotive mechanical design processes');
#2=APPLICATION_PROTOCOL_DEFINITION('international standard','automotive_design',2000,#1);
#3=PRODUCT_CONTEXT('',#1,'mechanical');
#4=PRODUCT_DEFINITION_CONTEXT('part definition',#1,'design');
#5=(LENGTH_UNIT()NAMED_UNIT(*)SI_UNIT(.MILLI.,.METRE.));
#6=(NAMED_UNIT(*)PLANE_ANGLE_UNIT()SI_UNIT($,.RADIAN.));
#7=(NAMED_UNIT(*)SI_UNIT($,.STERADIAN.)SOLID_ANGLE_UNIT());
#8=UNCERTAINTY_MEASURE_WITH_UNIT(LENGTH_MEASURE(1.E-04),#5,'distance_accuracy_value','confusion accuracy');
#9=(GEOMETRIC_REPRESENTATION_CONTEXT(3)GLOBAL_UNCERTAINTY_ASSIGNED_CONTEXT((#8))GLOBAL_UNIT_ASSIGNED_CONTEXT((#5,#6,#7))REPRESENTATION_CONTEXT('Context','3D Context with UNIT and UNCERTAINTY'));
#10=PRODUCT('AS3-516','MPPT charge controller','',(#3));
#11=PRODUCT_DEFINITION_FORMATION('','',#10);
#12=PRODUCT_DEFINITION('design','',#11,#4);
#13=PRODUCT_DEFINITION_SHAPE('','',#12);
#14=CARTESIAN_POINT('',(0.,0.,0.));
#15=DIRECTION('',(0.,0.,1.));
#16=DIRECTION('',(1.,0.,0.));
#17=AXIS2_PLACEMENT_3D('',#14,#15,#16);
#18=CARTESIAN_POINT('',(629.,-108.,323.));
#19=VERTEX_POINT('',#18);
#20=CARTESIAN_POINT('',(629.70711,-107.70711,323.));
#21=VERTEX_POINT('',#20);
#22=DIRECTION('',(0.92388,0.38268,0.));
#23=VECTOR('',#22,0.76537);
#24=LINE('',#18,#23);
#25=EDGE_CURVE('',#19,#21,#24,.T.);
#26=ORIENTED_EDGE('',*,*,#25,.T.);
#27=CARTESIAN_POINT('',(630.70711,-108.70711,323.58579));
#28=VERTEX_POINT('',#27);
#29=DIRECTION('',(0.65328,-0.65328,0.38268));
#30=VECTOR('',#29,1.53073);
#31=LINE('',#20,#30);
#32=EDGE_CURVE('',#21,#28,#31,.T.);
#33=ORIENTED_EDGE('',*,*,#32,.T.);
#34=CARTESIAN_POINT('',(629.,-109.41421,323.58579));
#35=VERTEX_POINT('',#34);
#36=DIRECTION('',(0.92388,0.38268,0.));
#37=VECTOR('',#36,1.84776);
#38=LINE('',#34,#37);
#39=EDGE_CURVE('',#35,#28,#38,.T.);
#40=ORIENTED_EDGE('',*,*,#39,.F.);
#41=DIRECTION('',(0.,-0.92388,0.38268));
#42=VECTOR('',#41,1.53073);
#43=LINE('',#18,#42);
#44=EDGE_CURVE('',#19,#35,#43,.T.);
#45=ORIENTED_EDGE('',*,*,#44,.F.);
#46=EDGE_LOOP('',(#26,#33,#40,#45));
#47=FACE_OUTER_BOUND('',#46,.T.);
#48=CARTESIAN_POINT('',(629.,-108.,323.));
#49=DIRECTION('',(0.15656,-0.37796,-0.91249));
#50=DIRECTION('',(0.92388,0.38268,0.));
#51=AXIS2_PLACEMENT_3D('',#48,#49,#50);
#52=PLANE('',#51);
#53=ADVANCED_FACE('',(#47),#52,.T.);
#54=CARTESIAN_POINT('',(630.,-107.,323.));
#55=VERTEX_POINT('',#54);
#56=DIRECTION('',(0.38268,0.92388,0.));
#57=VECTOR('',#56,0.76537);
#58=LINE('',#20,#57);
#59=EDGE_CURVE('',#21,#55,#58,.T.);
#60=ORIENTED_EDGE('',*,*,#59,.T.);
#61=CARTESIAN_POINT('',(631.41421,-107.,323.58579));
#62=VERTEX_POINT('',#61);
#63=DIRECTION('',(0.92388,0.,0.38268));
#64=VECTOR('',#63,1.53073);
#65=LINE('',#54,#64);
#66=EDGE_CURVE('',#55,#62,#65,.T.);
#67=ORIENTED_EDGE('',*,*,#66,.T.);
#68=DIRECTION('',(0.38268,0.92388,0.));
#69=VECTOR('',#68,1.84776);
#70=LINE('',#27,#69);
#71=EDGE_CURVE('',#28,#62,#70,.T.);
#72=ORIENTED_EDGE('',*,*,#71,.F.);
#73=ORIENTED_EDGE('',*,*,#32,.F.);
#74=EDGE_LOOP('',(#60,#67,#72,#73));
#75=FACE_OUTER_BOUND('',#74,.T.);
#76=CARTESIAN_POINT('',(629.70711,-107.70711,323.));
#77=DIRECTION('',(0.37796,-0.15656,-0.91249));
#78=DIRECTION('',(0.38268,0.92388,0.));
#79=AXIS2_PLACEMENT_3D('',#76,#77,#78);
#80=PLANE('',#79);
#81=ADVANCED_FACE('',(#75),#80,.T.);
#82=CARTESIAN_POINT('',(630.,-53.,323.));
#83=VERTEX_POINT('',#82);
#84=DIRECTION('',(0.,1.,0.));
#85=VECTOR('',#84,54.);
#86=LINE('',#54,#85);
#87=EDGE_CURVE('',#55,#83,#86,.T.);
#88=ORIENTED_EDGE('',*,*,#87,.T.);
#89=CARTESIAN_POINT('',(631.41421,-53.,323.58579));
#90=VERTEX_POINT('',#89);
#91=DIRECTION('',(0.92388,0.,0.38268));
#92=VECTOR('',#91,1.53073);
#93=LINE('',#82,#92);
#94=EDGE_CURVE('',#83,#90,#93,.T.);
#95=ORIENTED_EDGE('',*,*,#94,.T.);
#96=DIRECTION('',(0.,1.,0.));
#97=VECTOR('',#96,54.);
#98=LINE('',#61,#97);
#99=EDGE_CURVE('',#62,#90,#98,.T.);
#100=ORIENTED_EDGE('',*,*,#99,.F.);
#101=ORIENTED_EDGE('',*,*,#66,.F.);
#102=EDGE_LOOP('',(#88,#95,#100,#101));
#103=FACE_OUTER_BOUND('',#102,.T.);
#104=CARTESIAN_POINT('',(630.,-107.,323.));
#105=DIRECTION('',(0.38268,0.,-0.92388));
#106=DIRECTION('',(0.,1.,0.));
#107=AXIS2_PLACEMENT_3D('',#104,#105,#106);
#108=PLANE('',#107);
#109=ADVANCED_FACE('',(#103),#108,.T.);
#110=CARTESIAN_POINT('',(629.70711,-52.29289,323.));
#111=VERTEX_POINT('',#110);
#112=DIRECTION('',(-0.38268,0.92388,0.));
#113=VECTOR('',#112,0.76537);
#114=LINE('',#82,#113);
#115=EDGE_CURVE('',#83,#111,#114,.T.);
#116=ORIENTED_EDGE('',*,*,#115,.T.);
#117=CARTESIAN_POINT('',(630.70711,-51.29289,323.58579));
#118=VERTEX_POINT('',#117);
#119=DIRECTION('',(0.65328,0.65328,0.38268));
#120=VECTOR('',#119,1.53073);
#121=LINE('',#110,#120);
#122=EDGE_CURVE('',#111,#118,#121,.T.);
#123=ORIENTED_EDGE('',*,*,#122,.T.);
#124=DIRECTION('',(-0.38268,0.92388,0.));
#125=VECTOR('',#124,1.84776);
#126=LINE('',#89,#125);
#127=EDGE_CURVE('',#90,#118,#126,.T.);
#128=ORIENTED_EDGE('',*,*,#127,.F.);
#129=ORIENTED_EDGE('',*,*,#94,.F.);
#130=EDGE_LOOP('',(#116,#123,#128,#129));
#131=FACE_OUTER_BOUND('',#130,.T.);
#132=CARTESIAN_POINT('',(630.,-53.,323.));
#133=DIRECTION('',(0.37796,0.15656,-0.91249));
#134=DIRECTION('',(-0.38268,0.92388,0.));
#135=AXIS2_PLACEMENT_3D('',#132,#133,#134);
#136=PLANE('',#135);
#137=ADVANCED_FACE('',(#131),#136,.T.);
#138=CARTESIAN_POINT('',(629.,-52.,323.));
#139=VERTEX_POINT('',#138);
#140=DIRECTION('',(-0.92388,0.38268,0.));
#141=VECTOR('',#140,0.76537);
#142=LINE('',#110,#141);
#143=EDGE_CURVE('',#111,#139,#142,.T.);
#144=ORIENTED_EDGE('',*,*,#143,.T.);
#145=CARTESIAN_POINT('',(629.,-50.58579,323.58579));
#146=VERTEX_POINT('',#145);
#147=DIRECTION('',(0.,0.92388,0.38268));
#148=VECTOR('',#147,1.53073);
#149=LINE('',#138,#148);
#150=EDGE_CURVE('',#139,#146,#149,.T.);
#151=ORIENTED_EDGE('',*,*,#150,.T.);
#152=DIRECTION('',(-0.92388,0.38268,0.));
#153=VECTOR('',#152,1.84776);
#154=LINE('',#117,#153);
#155=EDGE_CURVE('',#118,#146,#154,.T.);
#156=ORIENTED_EDGE('',*,*,#155,.F.);
#157=ORIENTED_EDGE('',*,*,#122,.F.);
#158=EDGE_LOOP('',(#144,#151,#156,#157));
#159=FACE_OUTER_BOUND('',#158,.T.);
#160=CARTESIAN_POINT('',(629.70711,-52.29289,323.));
#161=DIRECTION('',(0.15656,0.37796,-0.91249));
#162=DIRECTION('',(-0.92388,0.38268,0.));
#163=AXIS2_PLACEMENT_3D('',#160,#161,#162);
#164=PLANE('',#163);
#165=ADVANCED_FACE('',(#159),#164,.T.);
#166=CARTESIAN_POINT('',(535.,-52.,323.));
#167=VERTEX_POINT('',#166);
#168=DIRECTION('',(-1.,0.,0.));
#169=VECTOR('',#168,94.);
#170=LINE('',#138,#169);
#171=EDGE_CURVE('',#139,#167,#170,.T.);
#172=ORIENTED_EDGE('',*,*,#171,.T.);
#173=CARTESIAN_POINT('',(535.,-50.58579,323.58579));
#174=VERTEX_POINT('',#173);
#175=DIRECTION('',(0.,0.92388,0.38268));
#176=VECTOR('',#175,1.53073);
#177=LINE('',#166,#176);
#178=EDGE_CURVE('',#167,#174,#177,.T.);
#179=ORIENTED_EDGE('',*,*,#178,.T.);
#180=DIRECTION('',(-1.,0.,0.));
#181=VECTOR('',#180,94.);
#182=LINE('',#145,#181);
#183=EDGE_CURVE('',#146,#174,#182,.T.);
#184=ORIENTED_EDGE('',*,*,#183,.F.);
#185=ORIENTED_EDGE('',*,*,#150,.F.);
#186=EDGE_LOOP('',(#172,#179,#184,#185));
#187=FACE_OUTER_BOUND('',#186,.T.);
#188=CARTESIAN_POINT('',(629.,-52.,323.));
#189=DIRECTION('',(0.,0.38268,-0.92388));
#190=DIRECTION('',(-1.,0.,0.));
#191=AXIS2_PLACEMENT_3D('',#188,#189,#190);
#192=PLANE('',#191);
#193=ADVANCED_FACE('',(#187),#192,.T.);
#194=CARTESIAN_POINT('',(534.29289,-52.29289,323.));
#195=VERTEX_POINT('',#194);
#196=DIRECTION('',(-0.92388,-0.38268,0.));
#197=VECTOR('',#196,0.76537);
#198=LINE('',#166,#197);
#199=EDGE_CURVE('',#167,#195,#198,.T.);
#200=ORIENTED_EDGE('',*,*,#199,.T.);
#201=CARTESIAN_POINT('',(533.29289,-51.29289,323.58579));
#202=VERTEX_POINT('',#201);
#203=DIRECTION('',(-0.65328,0.65328,0.38268));
#204=VECTOR('',#203,1.53073);
#205=LINE('',#194,#204);
#206=EDGE_CURVE('',#195,#202,#205,.T.);
#207=ORIENTED_EDGE('',*,*,#206,.T.);
#208=DIRECTION('',(-0.92388,-0.38268,0.));
#209=VECTOR('',#208,1.84776);
#210=LINE('',#173,#209);
#211=EDGE_CURVE('',#174,#202,#210,.T.);
#212=ORIENTED_EDGE('',*,*,#211,.F.);
#213=ORIENTED_EDGE('',*,*,#178,.F.);
#214=EDGE_LOOP('',(#200,#207,#212,#213));
#215=FACE_OUTER_BOUND('',#214,.T.);
#216=CARTESIAN_POINT('',(535.,-52.,323.));
#217=DIRECTION('',(-0.15656,0.37796,-0.91249));
#218=DIRECTION('',(-0.92388,-0.38268,0.));
#219=AXIS2_PLACEMENT_3D('',#216,#217,#218);
#220=PLANE('',#219);
#221=ADVANCED_FACE('',(#215),#220,.T.);
#222=CARTESIAN_POINT('',(534.,-53.,323.));
#223=VERTEX_POINT('',#222);
#224=DIRECTION('',(-0.38268,-0.92388,0.));
#225=VECTOR('',#224,0.76537);
#226=LINE('',#194,#225);
#227=EDGE_CURVE('',#195,#223,#226,.T.);
#228=ORIENTED_EDGE('',*,*,#227,.T.);
#229=CARTESIAN_POINT('',(532.58579,-53.,323.58579));
#230=VERTEX_POINT('',#229);
#231=DIRECTION('',(-0.92388,0.,0.38268));
#232=VECTOR('',#231,1.53073);
#233=LINE('',#222,#232);
#234=EDGE_CURVE('',#223,#230,#233,.T.);
#235=ORIENTED_EDGE('',*,*,#234,.T.);
#236=DIRECTION('',(-0.38268,-0.92388,0.));
#237=VECTOR('',#236,1.84776);
#238=LINE('',#201,#237);
#239=EDGE_CURVE('',#202,#230,#238,.T.);
#240=ORIENTED_EDGE('',*,*,#239,.F.);
#241=ORIENTED_EDGE('',*,*,#206,.F.);
#242=EDGE_LOOP('',(#228,#235,#240,#241));
#243=FACE_OUTER_BOUND('',#242,.T.);
#244=CARTESIAN_POINT('',(534.29289,-52.29289,323.));
#245=DIRECTION('',(-0.37796,0.15656,-0.91249));
#246=DIRECTION('',(-0.38268,-0.92388,0.));
#247=AXIS2_PLACEMENT_3D('',#244,#245,#246);
#248=PLANE('',#247);
#249=ADVANCED_FACE('',(#243),#248,.T.);
#250=CARTESIAN_POINT('',(534.,-107.,323.));
#251=VERTEX_POINT('',#250);
#252=DIRECTION('',(0.,-1.,0.));
#253=VECTOR('',#252,54.);
#254=LINE('',#222,#253);
#255=EDGE_CURVE('',#223,#251,#254,.T.);
#256=ORIENTED_EDGE('',*,*,#255,.T.);
#257=CARTESIAN_POINT('',(532.58579,-107.,323.58579));
#258=VERTEX_POINT('',#257);
#259=DIRECTION('',(-0.92388,0.,0.38268));
#260=VECTOR('',#259,1.53073);
#261=LINE('',#250,#260);
#262=EDGE_CURVE('',#251,#258,#261,.T.);
#263=ORIENTED_EDGE('',*,*,#262,.T.);
#264=DIRECTION('',(0.,-1.,0.));
#265=VECTOR('',#264,54.);
#266=LINE('',#229,#265);
#267=EDGE_CURVE('',#230,#258,#266,.T.);
#268=ORIENTED_EDGE('',*,*,#267,.F.);
#269=ORIENTED_EDGE('',*,*,#234,.F.);
#270=EDGE_LOOP('',(#256,#263,#268,#269));
#271=FACE_OUTER_BOUND('',#270,.T.);
#272=CARTESIAN_POINT('',(534.,-53.,323.));
#273=DIRECTION('',(-0.38268,0.,-0.92388));
#274=DIRECTION('',(0.,-1.,0.));
#275=AXIS2_PLACEMENT_3D('',#272,#273,#274);
#276=PLANE('',#275);
#277=ADVANCED_FACE('',(#271),#276,.T.);
#278=CARTESIAN_POINT('',(534.29289,-107.70711,323.));
#279=VERTEX_POINT('',#278);
#280=DIRECTION('',(0.38268,-0.92388,0.));
#281=VECTOR('',#280,0.76537);
#282=LINE('',#250,#281);
#283=EDGE_CURVE('',#251,#279,#282,.T.);
#284=ORIENTED_EDGE('',*,*,#283,.T.);
#285=CARTESIAN_POINT('',(533.29289,-108.70711,323.58579));
#286=VERTEX_POINT('',#285);
#287=DIRECTION('',(-0.65328,-0.65328,0.38268));
#288=VECTOR('',#287,1.53073);
#289=LINE('',#278,#288);
#290=EDGE_CURVE('',#279,#286,#289,.T.);
#291=ORIENTED_EDGE('',*,*,#290,.T.);
#292=DIRECTION('',(0.38268,-0.92388,0.));
#293=VECTOR('',#292,1.84776);
#294=LINE('',#257,#293);
#295=EDGE_CURVE('',#258,#286,#294,.T.);
#296=ORIENTED_EDGE('',*,*,#295,.F.);
#297=ORIENTED_EDGE('',*,*,#262,.F.);
#298=EDGE_LOOP('',(#284,#291,#296,#297));
#299=FACE_OUTER_BOUND('',#298,.T.);
#300=CARTESIAN_POINT('',(534.,-107.,323.));
#301=DIRECTION('',(-0.37796,-0.15656,-0.91249));
#302=DIRECTION('',(0.38268,-0.92388,0.));
#303=AXIS2_PLACEMENT_3D('',#300,#301,#302);
#304=PLANE('',#303);
#305=ADVANCED_FACE('',(#299),#304,.T.);
#306=CARTESIAN_POINT('',(535.,-108.,323.));
#307=VERTEX_POINT('',#306);
#308=DIRECTION('',(0.92388,-0.38268,0.));
#309=VECTOR('',#308,0.76537);
#310=LINE('',#278,#309);
#311=EDGE_CURVE('',#279,#307,#310,.T.);
#312=ORIENTED_EDGE('',*,*,#311,.T.);
#313=CARTESIAN_POINT('',(535.,-109.41421,323.58579));
#314=VERTEX_POINT('',#313);
#315=DIRECTION('',(0.,-0.92388,0.38268));
#316=VECTOR('',#315,1.53073);
#317=LINE('',#306,#316);
#318=EDGE_CURVE('',#307,#314,#317,.T.);
#319=ORIENTED_EDGE('',*,*,#318,.T.);
#320=DIRECTION('',(0.92388,-0.38268,0.));
#321=VECTOR('',#320,1.84776);
#322=LINE('',#285,#321);
#323=EDGE_CURVE('',#286,#314,#322,.T.);
#324=ORIENTED_EDGE('',*,*,#323,.F.);
#325=ORIENTED_EDGE('',*,*,#290,.F.);
#326=EDGE_LOOP('',(#312,#319,#324,#325));
#327=FACE_OUTER_BOUND('',#326,.T.);
#328=CARTESIAN_POINT('',(534.29289,-107.70711,323.));
#329=DIRECTION('',(-0.15656,-0.37796,-0.91249));
#330=DIRECTION('',(0.92388,-0.38268,0.));
#331=AXIS2_PLACEMENT_3D('',#328,#329,#330);
#332=PLANE('',#331);
#333=ADVANCED_FACE('',(#327),#332,.T.);
#334=DIRECTION('',(-1.,0.,0.));
#335=VECTOR('',#334,94.);
#336=LINE('',#18,#335);
#337=EDGE_CURVE('',#19,#307,#336,.T.);
#338=ORIENTED_EDGE('',*,*,#337,.F.);
#339=ORIENTED_EDGE('',*,*,#44,.T.);
#340=DIRECTION('',(-1.,0.,0.));
#341=VECTOR('',#340,94.);
#342=LINE('',#34,#341);
#343=EDGE_CURVE('',#35,#314,#342,.T.);
#344=ORIENTED_EDGE('',*,*,#343,.T.);
#345=ORIENTED_EDGE('',*,*,#318,.F.);
#346=EDGE_LOOP('',(#338,#339,#344,#345));
#347=FACE_OUTER_BOUND('',#346,.T.);
#348=CARTESIAN_POINT('',(535.,-108.,323.));
#349=DIRECTION('',(0.,-0.38268,-0.92388));
#350=DIRECTION('',(1.,0.,0.));
#351=AXIS2_PLACEMENT_3D('',#348,#349,#350);
#352=PLANE('',#351);
#353=ADVANCED_FACE('',(#347),#352,.T.);
#354=ORIENTED_EDGE('',*,*,#39,.T.);
#355=CARTESIAN_POINT('',(631.12132,-109.12132,325.));
#356=VERTEX_POINT('',#355);
#357=DIRECTION('',(0.2706,-0.2706,0.92388));
#358=VECTOR('',#357,1.53073);
#359=LINE('',#27,#358);
#360=EDGE_CURVE('',#28,#356,#359,.T.);
#361=ORIENTED_EDGE('',*,*,#360,.T.);
#362=CARTESIAN_POINT('',(629.,-110.,325.));
#363=VERTEX_POINT('',#362);
#364=DIRECTION('',(0.92388,0.38268,0.));
#365=VECTOR('',#364,2.2961);
#366=LINE('',#362,#365);
#367=EDGE_CURVE('',#363,#356,#366,.T.);
#368=ORIENTED_EDGE('',*,*,#367,.F.);
#369=DIRECTION('',(0.,-0.38268,0.92388));
#370=VECTOR('',#369,1.53073);
#371=LINE('',#34,#370);
#372=EDGE_CURVE('',#35,#363,#371,.T.);
#373=ORIENTED_EDGE('',*,*,#372,.F.);
#374=EDGE_LOOP('',(#354,#361,#368,#373));
#375=FACE_OUTER_BOUND('',#374,.T.);
#376=CARTESIAN_POINT('',(629.,-109.41421,323.58579));
#377=DIRECTION('',(0.35741,-0.86286,-0.35741));
#378=DIRECTION('',(0.92388,0.38268,0.));
#379=AXIS2_PLACEMENT_3D('',#376,#377,#378);
#380=PLANE('',#379);
#381=ADVANCED_FACE('',(#375),#380,.T.);
#382=ORIENTED_EDGE('',*,*,#71,.T.);
#383=CARTESIAN_POINT('',(632.,-107.,325.));
#384=VERTEX_POINT('',#383);
#385=DIRECTION('',(0.38268,0.,0.92388));
#386=VECTOR('',#385,1.53073);
#387=LINE('',#61,#386);
#388=EDGE_CURVE('',#62,#384,#387,.T.);
#389=ORIENTED_EDGE('',*,*,#388,.T.);
#390=DIRECTION('',(0.38268,0.92388,0.));
#391=VECTOR('',#390,2.2961);
#392=LINE('',#355,#391);
#393=EDGE_CURVE('',#356,#384,#392,.T.);
#394=ORIENTED_EDGE('',*,*,#393,.F.);
#395=ORIENTED_EDGE('',*,*,#360,.F.);
#396=EDGE_LOOP('',(#382,#389,#394,#395));
#397=FACE_OUTER_BOUND('',#396,.T.);
#398=CARTESIAN_POINT('',(630.70711,-108.70711,323.58579));
#399=DIRECTION('',(0.86286,-0.35741,-0.35741));
#400=DIRECTION('',(0.38268,0.92388,0.));
#401=AXIS2_PLACEMENT_3D('',#398,#399,#400);
#402=PLANE('',#401);
#403=ADVANCED_FACE('',(#397),#402,.T.);
#404=ORIENTED_EDGE('',*,*,#99,.T.);
#405=CARTESIAN_POINT('',(632.,-53.,325.));
#406=VERTEX_POINT('',#405);
#407=DIRECTION('',(0.38268,0.,0.92388));
#408=VECTOR('',#407,1.53073);
#409=LINE('',#89,#408);
#410=EDGE_CURVE('',#90,#406,#409,.T.);
#411=ORIENTED_EDGE('',*,*,#410,.T.);
#412=DIRECTION('',(0.,1.,0.));
#413=VECTOR('',#412,54.);
#414=LINE('',#383,#413);
#415=EDGE_CURVE('',#384,#406,#414,.T.);
#416=ORIENTED_EDGE('',*,*,#415,.F.);
#417=ORIENTED_EDGE('',*,*,#388,.F.);
#418=EDGE_LOOP('',(#404,#411,#416,#417));
#419=FACE_OUTER_BOUND('',#418,.T.);
#420=CARTESIAN_POINT('',(631.41421,-107.,323.58579));
#421=DIRECTION('',(0.92388,0.,-0.38268));
#422=DIRECTION('',(0.,1.,0.));
#423=AXIS2_PLACEMENT_3D('',#420,#421,#422);
#424=PLANE('',#423);
#425=ADVANCED_FACE('',(#419),#424,.T.);
#426=ORIENTED_EDGE('',*,*,#127,.T.);
#427=CARTESIAN_POINT('',(631.12132,-50.87868,325.));
#428=VERTEX_POINT('',#427);
#429=DIRECTION('',(0.2706,0.2706,0.92388));
#430=VECTOR('',#429,1.53073);
#431=LINE('',#117,#430);
#432=EDGE_CURVE('',#118,#428,#431,.T.);
#433=ORIENTED_EDGE('',*,*,#432,.T.);
#434=DIRECTION('',(-0.38268,0.92388,0.));
#435=VECTOR('',#434,2.2961);
#436=LINE('',#405,#435);
#437=EDGE_CURVE('',#406,#428,#436,.T.);
#438=ORIENTED_EDGE('',*,*,#437,.F.);
#439=ORIENTED_EDGE('',*,*,#410,.F.);
#440=EDGE_LOOP('',(#426,#433,#438,#439));
#441=FACE_OUTER_BOUND('',#440,.T.);
#442=CARTESIAN_POINT('',(631.41421,-53.,323.58579));
#443=DIRECTION('',(0.86286,0.35741,-0.35741));
#444=DIRECTION('',(-0.38268,0.92388,0.));
#445=AXIS2_PLACEMENT_3D('',#442,#443,#444);
#446=PLANE('',#445);
#447=ADVANCED_FACE('',(#441),#446,.T.);
#448=ORIENTED_EDGE('',*,*,#155,.T.);
#449=CARTESIAN_POINT('',(629.,-50.,325.));
#450=VERTEX_POINT('',#449);
#451=DIRECTION('',(0.,0.38268,0.92388));
#452=VECTOR('',#451,1.53073);
#453=LINE('',#145,#452);
#454=EDGE_CURVE('',#146,#450,#453,.T.);
#455=ORIENTED_EDGE('',*,*,#454,.T.);
#456=DIRECTION('',(-0.92388,0.38268,0.));
#457=VECTOR('',#456,2.2961);
#458=LINE('',#427,#457);
#459=EDGE_CURVE('',#428,#450,#458,.T.);
#460=ORIENTED_EDGE('',*,*,#459,.F.);
#461=ORIENTED_EDGE('',*,*,#432,.F.);
#462=EDGE_LOOP('',(#448,#455,#460,#461));
#463=FACE_OUTER_BOUND('',#462,.T.);
#464=CARTESIAN_POINT('',(630.70711,-51.29289,323.58579));
#465=DIRECTION('',(0.35741,0.86286,-0.35741));
#466=DIRECTION('',(-0.92388,0.38268,0.));
#467=AXIS2_PLACEMENT_3D('',#464,#465,#466);
#468=PLANE('',#467);
#469=ADVANCED_FACE('',(#463),#468,.T.);
#470=ORIENTED_EDGE('',*,*,#183,.T.);
#471=CARTESIAN_POINT('',(535.,-50.,325.));
#472=VERTEX_POINT('',#471);
#473=DIRECTION('',(0.,0.38268,0.92388));
#474=VECTOR('',#473,1.53073);
#475=LINE('',#173,#474);
#476=EDGE_CURVE('',#174,#472,#475,.T.);
#477=ORIENTED_EDGE('',*,*,#476,.T.);
#478=DIRECTION('',(-1.,0.,0.));
#479=VECTOR('',#478,94.);
#480=LINE('',#449,#479);
#481=EDGE_CURVE('',#450,#472,#480,.T.);
#482=ORIENTED_EDGE('',*,*,#481,.F.);
#483=ORIENTED_EDGE('',*,*,#454,.F.);
#484=EDGE_LOOP('',(#470,#477,#482,#483));
#485=FACE_OUTER_BOUND('',#484,.T.);
#486=CARTESIAN_POINT('',(629.,-50.58579,323.58579));
#487=DIRECTION('',(0.,0.92388,-0.38268));
#488=DIRECTION('',(-1.,0.,0.));
#489=AXIS2_PLACEMENT_3D('',#486,#487,#488);
#490=PLANE('',#489);
#491=ADVANCED_FACE('',(#485),#490,.T.);
#492=ORIENTED_EDGE('',*,*,#211,.T.);
#493=CARTESIAN_POINT('',(532.87868,-50.87868,325.));
#494=VERTEX_POINT('',#493);
#495=DIRECTION('',(-0.2706,0.2706,0.92388));
#496=VECTOR('',#495,1.53073);
#497=LINE('',#201,#496);
#498=EDGE_CURVE('',#202,#494,#497,.T.);
#499=ORIENTED_EDGE('',*,*,#498,.T.);
#500=DIRECTION('',(-0.92388,-0.38268,0.));
#501=VECTOR('',#500,2.2961);
#502=LINE('',#471,#501);
#503=EDGE_CURVE('',#472,#494,#502,.T.);
#504=ORIENTED_EDGE('',*,*,#503,.F.);
#505=ORIENTED_EDGE('',*,*,#476,.F.);
#506=EDGE_LOOP('',(#492,#499,#504,#505));
#507=FACE_OUTER_BOUND('',#506,.T.);
#508=CARTESIAN_POINT('',(535.,-50.58579,323.58579));
#509=DIRECTION('',(-0.35741,0.86286,-0.35741));
#510=DIRECTION('',(-0.92388,-0.38268,0.));
#511=AXIS2_PLACEMENT_3D('',#508,#509,#510);
#512=PLANE('',#511);
#513=ADVANCED_FACE('',(#507),#512,.T.);
#514=ORIENTED_EDGE('',*,*,#239,.T.);
#515=CARTESIAN_POINT('',(532.,-53.,325.));
#516=VERTEX_POINT('',#515);
#517=DIRECTION('',(-0.38268,0.,0.92388));
#518=VECTOR('',#517,1.53073);
#519=LINE('',#229,#518);
#520=EDGE_CURVE('',#230,#516,#519,.T.);
#521=ORIENTED_EDGE('',*,*,#520,.T.);
#522=DIRECTION('',(-0.38268,-0.92388,0.));
#523=VECTOR('',#522,2.2961);
#524=LINE('',#493,#523);
#525=EDGE_CURVE('',#494,#516,#524,.T.);
#526=ORIENTED_EDGE('',*,*,#525,.F.);
#527=ORIENTED_EDGE('',*,*,#498,.F.);
#528=EDGE_LOOP('',(#514,#521,#526,#527));
#529=FACE_OUTER_BOUND('',#528,.T.);
#530=CARTESIAN_POINT('',(533.29289,-51.29289,323.58579));
#531=DIRECTION('',(-0.86286,0.35741,-0.35741));
#532=DIRECTION('',(-0.38268,-0.92388,0.));
#533=AXIS2_PLACEMENT_3D('',#530,#531,#532);
#534=PLANE('',#533);
#535=ADVANCED_FACE('',(#529),#534,.T.);
#536=ORIENTED_EDGE('',*,*,#267,.T.);
#537=CARTESIAN_POINT('',(532.,-107.,325.));
#538=VERTEX_POINT('',#537);
#539=DIRECTION('',(-0.38268,0.,0.92388));
#540=VECTOR('',#539,1.53073);
#541=LINE('',#257,#540);
#542=EDGE_CURVE('',#258,#538,#541,.T.);
#543=ORIENTED_EDGE('',*,*,#542,.T.);
#544=DIRECTION('',(0.,-1.,0.));
#545=VECTOR('',#544,54.);
#546=LINE('',#515,#545);
#547=EDGE_CURVE('',#516,#538,#546,.T.);
#548=ORIENTED_EDGE('',*,*,#547,.F.);
#549=ORIENTED_EDGE('',*,*,#520,.F.);
#550=EDGE_LOOP('',(#536,#543,#548,#549));
#551=FACE_OUTER_BOUND('',#550,.T.);
#552=CARTESIAN_POINT('',(532.58579,-53.,323.58579));
#553=DIRECTION('',(-0.92388,0.,-0.38268));
#554=DIRECTION('',(0.,-1.,0.));
#555=AXIS2_PLACEMENT_3D('',#552,#553,#554);
#556=PLANE('',#555);
#557=ADVANCED_FACE('',(#551),#556,.T.);
#558=ORIENTED_EDGE('',*,*,#295,.T.);
#559=CARTESIAN_POINT('',(532.87868,-109.12132,325.));
#560=VERTEX_POINT('',#559);
#561=DIRECTION('',(-0.2706,-0.2706,0.92388));
#562=VECTOR('',#561,1.53073);
#563=LINE('',#285,#562);
#564=EDGE_CURVE('',#286,#560,#563,.T.);
#565=ORIENTED_EDGE('',*,*,#564,.T.);
#566=DIRECTION('',(0.38268,-0.92388,0.));
#567=VECTOR('',#566,2.2961);
#568=LINE('',#537,#567);
#569=EDGE_CURVE('',#538,#560,#568,.T.);
#570=ORIENTED_EDGE('',*,*,#569,.F.);
#571=ORIENTED_EDGE('',*,*,#542,.F.);
#572=EDGE_LOOP('',(#558,#565,#570,#571));
#573=FACE_OUTER_BOUND('',#572,.T.);
#574=CARTESIAN_POINT('',(532.58579,-107.,323.58579));
#575=DIRECTION('',(-0.86286,-0.35741,-0.35741));
#576=DIRECTION('',(0.38268,-0.92388,0.));
#577=AXIS2_PLACEMENT_3D('',#574,#575,#576);
#578=PLANE('',#577);
#579=ADVANCED_FACE('',(#573),#578,.T.);
#580=ORIENTED_EDGE('',*,*,#323,.T.);
#581=CARTESIAN_POINT('',(535.,-110.,325.));
#582=VERTEX_POINT('',#581);
#583=DIRECTION('',(0.,-0.38268,0.92388));
#584=VECTOR('',#583,1.53073);
#585=LINE('',#313,#584);
#586=EDGE_CURVE('',#314,#582,#585,.T.);
#587=ORIENTED_EDGE('',*,*,#586,.T.);
#588=DIRECTION('',(0.92388,-0.38268,0.));
#589=VECTOR('',#588,2.2961);
#590=LINE('',#559,#589);
#591=EDGE_CURVE('',#560,#582,#590,.T.);
#592=ORIENTED_EDGE('',*,*,#591,.F.);
#593=ORIENTED_EDGE('',*,*,#564,.F.);
#594=EDGE_LOOP('',(#580,#587,#592,#593));
#595=FACE_OUTER_BOUND('',#594,.T.);
#596=CARTESIAN_POINT('',(533.29289,-108.70711,323.58579));
#597=DIRECTION('',(-0.35741,-0.86286,-0.35741));
#598=DIRECTION('',(0.92388,-0.38268,0.));
#599=AXIS2_PLACEMENT_3D('',#596,#597,#598);
#600=PLANE('',#599);
#601=ADVANCED_FACE('',(#595),#600,.T.);
#602=ORIENTED_EDGE('',*,*,#343,.F.);
#603=ORIENTED_EDGE('',*,*,#372,.T.);
#604=DIRECTION('',(-1.,0.,0.));
#605=VECTOR('',#604,94.);
#606=LINE('',#362,#605);
#607=EDGE_CURVE('',#363,#582,#606,.T.);
#608=ORIENTED_EDGE('',*,*,#607,.T.);
#609=ORIENTED_EDGE('',*,*,#586,.F.);
#610=EDGE_LOOP('',(#602,#603,#608,#609));
#611=FACE_OUTER_BOUND('',#610,.T.);
#612=CARTESIAN_POINT('',(535.,-109.41421,323.58579));
#613=DIRECTION('',(0.,-0.92388,-0.38268));
#614=DIRECTION('',(1.,0.,0.));
#615=AXIS2_PLACEMENT_3D('',#612,#613,#614);
#616=PLANE('',#615);
#617=ADVANCED_FACE('',(#611),#616,.T.);
#618=ORIENTED_EDGE('',*,*,#367,.T.);
#619=CARTESIAN_POINT('',(631.12132,-109.12132,349.));
#620=VERTEX_POINT('',#619);
#621=DIRECTION('',(0.,0.,1.));
#622=VECTOR('',#621,24.);
#623=LINE('',#355,#622);
#624=EDGE_CURVE('',#356,#620,#623,.T.);
#625=ORIENTED_EDGE('',*,*,#624,.T.);
#626=CARTESIAN_POINT('',(629.,-110.,349.));
#627=VERTEX_POINT('',#626);
#628=DIRECTION('',(0.92388,0.38268,0.));
#629=VECTOR('',#628,2.2961);
#630=LINE('',#626,#629);
#631=EDGE_CURVE('',#627,#620,#630,.T.);
#632=ORIENTED_EDGE('',*,*,#631,.F.);
#633=DIRECTION('',(0.,0.,1.));
#634=VECTOR('',#633,24.);
#635=LINE('',#362,#634);
#636=EDGE_CURVE('',#363,#627,#635,.T.);
#637=ORIENTED_EDGE('',*,*,#636,.F.);
#638=EDGE_LOOP('',(#618,#625,#632,#637));
#639=FACE_OUTER_BOUND('',#638,.T.);
#640=CARTESIAN_POINT('',(629.,-110.,325.));
#641=DIRECTION('',(0.38268,-0.92388,0.));
#642=DIRECTION('',(0.92388,0.38268,0.));
#643=AXIS2_PLACEMENT_3D('',#640,#641,#642);
#644=PLANE('',#643);
#645=ADVANCED_FACE('',(#639),#644,.T.);
#646=ORIENTED_EDGE('',*,*,#393,.T.);
#647=CARTESIAN_POINT('',(632.,-107.,349.));
#648=VERTEX_POINT('',#647);
#649=DIRECTION('',(0.,0.,1.));
#650=VECTOR('',#649,24.);
#651=LINE('',#383,#650);
#652=EDGE_CURVE('',#384,#648,#651,.T.);
#653=ORIENTED_EDGE('',*,*,#652,.T.);
#654=DIRECTION('',(0.38268,0.92388,0.));
#655=VECTOR('',#654,2.2961);
#656=LINE('',#619,#655);
#657=EDGE_CURVE('',#620,#648,#656,.T.);
#658=ORIENTED_EDGE('',*,*,#657,.F.);
#659=ORIENTED_EDGE('',*,*,#624,.F.);
#660=EDGE_LOOP('',(#646,#653,#658,#659));
#661=FACE_OUTER_BOUND('',#660,.T.);
#662=CARTESIAN_POINT('',(631.12132,-109.12132,325.));
#663=DIRECTION('',(0.92388,-0.38268,0.));
#664=DIRECTION('',(0.38268,0.92388,0.));
#665=AXIS2_PLACEMENT_3D('',#662,#663,#664);
#666=PLANE('',#665);
#667=ADVANCED_FACE('',(#661),#666,.T.);
#668=ORIENTED_EDGE('',*,*,#415,.T.);
#669=CARTESIAN_POINT('',(632.,-53.,349.));
#670=VERTEX_POINT('',#669);
#671=DIRECTION('',(0.,0.,1.));
#672=VECTOR('',#671,24.);
#673=LINE('',#405,#672);
#674=EDGE_CURVE('',#406,#670,#673,.T.);
#675=ORIENTED_EDGE('',*,*,#674,.T.);
#676=DIRECTION('',(0.,1.,0.));
#677=VECTOR('',#676,54.);
#678=LINE('',#647,#677);
#679=EDGE_CURVE('',#648,#670,#678,.T.);
#680=ORIENTED_EDGE('',*,*,#679,.F.);
#681=ORIENTED_EDGE('',*,*,#652,.F.);
#682=EDGE_LOOP('',(#668,#675,#680,#681));
#683=FACE_OUTER_BOUND('',#682,.T.);
#684=CARTESIAN_POINT('',(632.,-107.,325.));
#685=DIRECTION('',(1.,0.,0.));
#686=DIRECTION('',(0.,1.,0.));
#687=AXIS2_PLACEMENT_3D('',#684,#685,#686);
#688=PLANE('',#687);
#689=ADVANCED_FACE('',(#683),#688,.T.);
#690=ORIENTED_EDGE('',*,*,#437,.T.);
#691=CARTESIAN_POINT('',(631.12132,-50.87868,349.));
#692=VERTEX_POINT('',#691);
#693=DIRECTION('',(0.,0.,1.));
#694=VECTOR('',#693,24.);
#695=LINE('',#427,#694);
#696=EDGE_CURVE('',#428,#692,#695,.T.);
#697=ORIENTED_EDGE('',*,*,#696,.T.);
#698=DIRECTION('',(-0.38268,0.92388,0.));
#699=VECTOR('',#698,2.2961);
#700=LINE('',#669,#699);
#701=EDGE_CURVE('',#670,#692,#700,.T.);
#702=ORIENTED_EDGE('',*,*,#701,.F.);
#703=ORIENTED_EDGE('',*,*,#674,.F.);
#704=EDGE_LOOP('',(#690,#697,#702,#703));
#705=FACE_OUTER_BOUND('',#704,.T.);
#706=CARTESIAN_POINT('',(632.,-53.,325.));
#707=DIRECTION('',(0.92388,0.38268,0.));
#708=DIRECTION('',(-0.38268,0.92388,0.));
#709=AXIS2_PLACEMENT_3D('',#706,#707,#708);
#710=PLANE('',#709);
#711=ADVANCED_FACE('',(#705),#710,.T.);
#712=ORIENTED_EDGE('',*,*,#459,.T.);
#713=CARTESIAN_POINT('',(629.,-50.,349.));
#714=VERTEX_POINT('',#713);
#715=DIRECTION('',(0.,0.,1.));
#716=VECTOR('',#715,24.);
#717=LINE('',#449,#716);
#718=EDGE_CURVE('',#450,#714,#717,.T.);
#719=ORIENTED_EDGE('',*,*,#718,.T.);
#720=DIRECTION('',(-0.92388,0.38268,0.));
#721=VECTOR('',#720,2.2961);
#722=LINE('',#691,#721);
#723=EDGE_CURVE('',#692,#714,#722,.T.);
#724=ORIENTED_EDGE('',*,*,#723,.F.);
#725=ORIENTED_EDGE('',*,*,#696,.F.);
#726=EDGE_LOOP('',(#712,#719,#724,#725));
#727=FACE_OUTER_BOUND('',#726,.T.);
#728=CARTESIAN_POINT('',(631.12132,-50.87868,325.));
#729=DIRECTION('',(0.38268,0.92388,0.));
#730=DIRECTION('',(-0.92388,0.38268,0.));
#731=AXIS2_PLACEMENT_3D('',#728,#729,#730);
#732=PLANE('',#731);
#733=ADVANCED_FACE('',(#727),#732,.T.);
#734=ORIENTED_EDGE('',*,*,#481,.T.);
#735=CARTESIAN_POINT('',(535.,-50.,349.));
#736=VERTEX_POINT('',#735);
#737=DIRECTION('',(0.,0.,1.));
#738=VECTOR('',#737,24.);
#739=LINE('',#471,#738);
#740=EDGE_CURVE('',#472,#736,#739,.T.);
#741=ORIENTED_EDGE('',*,*,#740,.T.);
#742=DIRECTION('',(-1.,0.,0.));
#743=VECTOR('',#742,94.);
#744=LINE('',#713,#743);
#745=EDGE_CURVE('',#714,#736,#744,.T.);
#746=ORIENTED_EDGE('',*,*,#745,.F.);
#747=ORIENTED_EDGE('',*,*,#718,.F.);
#748=EDGE_LOOP('',(#734,#741,#746,#747));
#749=FACE_OUTER_BOUND('',#748,.T.);
#750=CARTESIAN_POINT('',(629.,-50.,325.));
#751=DIRECTION('',(0.,1.,0.));
#752=DIRECTION('',(-1.,0.,0.));
#753=AXIS2_PLACEMENT_3D('',#750,#751,#752);
#754=PLANE('',#753);
#755=ADVANCED_FACE('',(#749),#754,.T.);
#756=ORIENTED_EDGE('',*,*,#503,.T.);
#757=CARTESIAN_POINT('',(532.87868,-50.87868,349.));
#758=VERTEX_POINT('',#757);
#759=DIRECTION('',(0.,0.,1.));
#760=VECTOR('',#759,24.);
#761=LINE('',#493,#760);
#762=EDGE_CURVE('',#494,#758,#761,.T.);
#763=ORIENTED_EDGE('',*,*,#762,.T.);
#764=DIRECTION('',(-0.92388,-0.38268,0.));
#765=VECTOR('',#764,2.2961);
#766=LINE('',#735,#765);
#767=EDGE_CURVE('',#736,#758,#766,.T.);
#768=ORIENTED_EDGE('',*,*,#767,.F.);
#769=ORIENTED_EDGE('',*,*,#740,.F.);
#770=EDGE_LOOP('',(#756,#763,#768,#769));
#771=FACE_OUTER_BOUND('',#770,.T.);
#772=CARTESIAN_POINT('',(535.,-50.,325.));
#773=DIRECTION('',(-0.38268,0.92388,0.));
#774=DIRECTION('',(-0.92388,-0.38268,0.));
#775=AXIS2_PLACEMENT_3D('',#772,#773,#774);
#776=PLANE('',#775);
#777=ADVANCED_FACE('',(#771),#776,.T.);
#778=ORIENTED_EDGE('',*,*,#525,.T.);
#779=CARTESIAN_POINT('',(532.,-53.,349.));
#780=VERTEX_POINT('',#779);
#781=DIRECTION('',(0.,0.,1.));
#782=VECTOR('',#781,24.);
#783=LINE('',#515,#782);
#784=EDGE_CURVE('',#516,#780,#783,.T.);
#785=ORIENTED_EDGE('',*,*,#784,.T.);
#786=DIRECTION('',(-0.38268,-0.92388,0.));
#787=VECTOR('',#786,2.2961);
#788=LINE('',#757,#787);
#789=EDGE_CURVE('',#758,#780,#788,.T.);
#790=ORIENTED_EDGE('',*,*,#789,.F.);
#791=ORIENTED_EDGE('',*,*,#762,.F.);
#792=EDGE_LOOP('',(#778,#785,#790,#791));
#793=FACE_OUTER_BOUND('',#792,.T.);
#794=CARTESIAN_POINT('',(532.87868,-50.87868,325.));
#795=DIRECTION('',(-0.92388,0.38268,0.));
#796=DIRECTION('',(-0.38268,-0.92388,0.));
#797=AXIS2_PLACEMENT_3D('',#794,#795,#796);
#798=PLANE('',#797);
#799=ADVANCED_FACE('',(#793),#798,.T.);
#800=ORIENTED_EDGE('',*,*,#547,.T.);
#801=CARTESIAN_POINT('',(532.,-107.,349.));
#802=VERTEX_POINT('',#801);
#803=DIRECTION('',(0.,0.,1.));
#804=VECTOR('',#803,24.);
#805=LINE('',#537,#804);
#806=EDGE_CURVE('',#538,#802,#805,.T.);
#807=ORIENTED_EDGE('',*,*,#806,.T.);
#808=DIRECTION('',(0.,-1.,0.));
#809=VECTOR('',#808,54.);
#810=LINE('',#779,#809);
#811=EDGE_CURVE('',#780,#802,#810,.T.);
#812=ORIENTED_EDGE('',*,*,#811,.F.);
#813=ORIENTED_EDGE('',*,*,#784,.F.);
#814=EDGE_LOOP('',(#800,#807,#812,#813));
#815=FACE_OUTER_BOUND('',#814,.T.);
#816=CARTESIAN_POINT('',(532.,-53.,325.));
#817=DIRECTION('',(-1.,0.,0.));
#818=DIRECTION('',(0.,-1.,0.));
#819=AXIS2_PLACEMENT_3D('',#816,#817,#818);
#820=PLANE('',#819);
#821=ADVANCED_FACE('',(#815),#820,.T.);
#822=ORIENTED_EDGE('',*,*,#569,.T.);
#823=CARTESIAN_POINT('',(532.87868,-109.12132,349.));
#824=VERTEX_POINT('',#823);
#825=DIRECTION('',(0.,0.,1.));
#826=VECTOR('',#825,24.);
#827=LINE('',#559,#826);
#828=EDGE_CURVE('',#560,#824,#827,.T.);
#829=ORIENTED_EDGE('',*,*,#828,.T.);
#830=DIRECTION('',(0.38268,-0.92388,0.));
#831=VECTOR('',#830,2.2961);
#832=LINE('',#801,#831);
#833=EDGE_CURVE('',#802,#824,#832,.T.);
#834=ORIENTED_EDGE('',*,*,#833,.F.);
#835=ORIENTED_EDGE('',*,*,#806,.F.);
#836=EDGE_LOOP('',(#822,#829,#834,#835));
#837=FACE_OUTER_BOUND('',#836,.T.);
#838=CARTESIAN_POINT('',(532.,-107.,325.));
#839=DIRECTION('',(-0.92388,-0.38268,0.));
#840=DIRECTION('',(0.38268,-0.92388,0.));
#841=AXIS2_PLACEMENT_3D('',#838,#839,#840);
#842=PLANE('',#841);
#843=ADVANCED_FACE('',(#837),#842,.T.);
#844=ORIENTED_EDGE('',*,*,#591,.T.);
#845=CARTESIAN_POINT('',(535.,-110.,349.));
#846=VERTEX_POINT('',#845);
#847=DIRECTION('',(0.,0.,1.));
#848=VECTOR('',#847,24.);
#849=LINE('',#581,#848);
#850=EDGE_CURVE('',#582,#846,#849,.T.);
#851=ORIENTED_EDGE('',*,*,#850,.T.);
#852=DIRECTION('',(0.92388,-0.38268,0.));
#853=VECTOR('',#852,2.2961);
#854=LINE('',#823,#853);
#855=EDGE_CURVE('',#824,#846,#854,.T.);
#856=ORIENTED_EDGE('',*,*,#855,.F.);
#857=ORIENTED_EDGE('',*,*,#828,.F.);
#858=EDGE_LOOP('',(#844,#851,#856,#857));
#859=FACE_OUTER_BOUND('',#858,.T.);
#860=CARTESIAN_POINT('',(532.87868,-109.12132,325.));
#861=DIRECTION('',(-0.38268,-0.92388,0.));
#862=DIRECTION('',(0.92388,-0.38268,0.));
#863=AXIS2_PLACEMENT_3D('',#860,#861,#862);
#864=PLANE('',#863);
#865=ADVANCED_FACE('',(#859),#864,.T.);
#866=ORIENTED_EDGE('',*,*,#607,.F.);
#867=ORIENTED_EDGE('',*,*,#636,.T.);
#868=DIRECTION('',(-1.,0.,0.));
#869=VECTOR('',#868,94.);
#870=LINE('',#626,#869);
#871=EDGE_CURVE('',#627,#846,#870,.T.);
#872=ORIENTED_EDGE('',*,*,#871,.T.);
#873=ORIENTED_EDGE('',*,*,#850,.F.);
#874=EDGE_LOOP('',(#866,#867,#872,#873));
#875=FACE_OUTER_BOUND('',#874,.T.);
#876=CARTESIAN_POINT('',(535.,-110.,325.));
#877=DIRECTION('',(0.,-1.,0.));
#878=DIRECTION('',(1.,0.,0.));
#879=AXIS2_PLACEMENT_3D('',#876,#877,#878);
#880=PLANE('',#879);
#881=ADVANCED_FACE('',(#875),#880,.T.);
#882=ORIENTED_EDGE('',*,*,#631,.T.);
#883=CARTESIAN_POINT('',(630.70711,-108.70711,350.41421));
#884=VERTEX_POINT('',#883);
#885=DIRECTION('',(-0.2706,0.2706,0.92388));
#886=VECTOR('',#885,1.53073);
#887=LINE('',#619,#886);
#888=EDGE_CURVE('',#620,#884,#887,.T.);
#889=ORIENTED_EDGE('',*,*,#888,.T.);
#890=CARTESIAN_POINT('',(629.,-109.41421,350.41421));
#891=VERTEX_POINT('',#890);
#892=DIRECTION('',(0.92388,0.38268,0.));
#893=VECTOR('',#892,1.84776);
#894=LINE('',#890,#893);
#895=EDGE_CURVE('',#891,#884,#894,.T.);
#896=ORIENTED_EDGE('',*,*,#895,.F.);
#897=DIRECTION('',(0.,0.38268,0.92388));
#898=VECTOR('',#897,1.53073);
#899=LINE('',#626,#898);
#900=EDGE_CURVE('',#627,#891,#899,.T.);
#901=ORIENTED_EDGE('',*,*,#900,.F.);
#902=EDGE_LOOP('',(#882,#889,#896,#901));
#903=FACE_OUTER_BOUND('',#902,.T.);
#904=CARTESIAN_POINT('',(629.,-110.,349.));
#905=DIRECTION('',(0.35741,-0.86286,0.35741));
#906=DIRECTION('',(0.92388,0.38268,0.));
#907=AXIS2_PLACEMENT_3D('',#904,#905,#906);
#908=PLANE('',#907);
#909=ADVANCED_FACE('',(#903),#908,.T.);
#910=ORIENTED_EDGE('',*,*,#657,.T.);
#911=CARTESIAN_POINT('',(631.41421,-107.,350.41421));
#912=VERTEX_POINT('',#911);
#913=DIRECTION('',(-0.38268,0.,0.92388));
#914=VECTOR('',#913,1.53073);
#915=LINE('',#647,#914);
#916=EDGE_CURVE('',#648,#912,#915,.T.);
#917=ORIENTED_EDGE('',*,*,#916,.T.);
#918=DIRECTION('',(0.38268,0.92388,0.));
#919=VECTOR('',#918,1.84776);
#920=LINE('',#883,#919);
#921=EDGE_CURVE('',#884,#912,#920,.T.);
#922=ORIENTED_EDGE('',*,*,#921,.F.);
#923=ORIENTED_EDGE('',*,*,#888,.F.);
#924=EDGE_LOOP('',(#910,#917,#922,#923));
#925=FACE_OUTER_BOUND('',#924,.T.);
#926=CARTESIAN_POINT('',(631.12132,-109.12132,349.));
#927=DIRECTION('',(0.86286,-0.35741,0.35741));
#928=DIRECTION('',(0.38268,0.92388,0.));
#929=AXIS2_PLACEMENT_3D('',#926,#927,#928);
#930=PLANE('',#929);
#931=ADVANCED_FACE('',(#925),#930,.T.);
#932=ORIENTED_EDGE('',*,*,#679,.T.);
#933=CARTESIAN_POINT('',(631.41421,-53.,350.41421));
#934=VERTEX_POINT('',#933);
#935=DIRECTION('',(-0.38268,0.,0.92388));
#936=VECTOR('',#935,1.53073);
#937=LINE('',#669,#936);
#938=EDGE_CURVE('',#670,#934,#937,.T.);
#939=ORIENTED_EDGE('',*,*,#938,.T.);
#940=DIRECTION('',(0.,1.,0.));
#941=VECTOR('',#940,54.);
#942=LINE('',#911,#941);
#943=EDGE_CURVE('',#912,#934,#942,.T.);
#944=ORIENTED_EDGE('',*,*,#943,.F.);
#945=ORIENTED_EDGE('',*,*,#916,.F.);
#946=EDGE_LOOP('',(#932,#939,#944,#945));
#947=FACE_OUTER_BOUND('',#946,.T.);
#948=CARTESIAN_POINT('',(632.,-107.,349.));
#949=DIRECTION('',(0.92388,0.,0.38268));
#950=DIRECTION('',(0.,1.,0.));
#951=AXIS2_PLACEMENT_3D('',#948,#949,#950);
#952=PLANE('',#951);
#953=ADVANCED_FACE('',(#947),#952,.T.);
#954=ORIENTED_EDGE('',*,*,#701,.T.);
#955=CARTESIAN_POINT('',(630.70711,-51.29289,350.41421));
#956=VERTEX_POINT('',#955);
#957=DIRECTION('',(-0.2706,-0.2706,0.92388));
#958=VECTOR('',#957,1.53073);
#959=LINE('',#691,#958);
#960=EDGE_CURVE('',#692,#956,#959,.T.);
#961=ORIENTED_EDGE('',*,*,#960,.T.);
#962=DIRECTION('',(-0.38268,0.92388,0.));
#963=VECTOR('',#962,1.84776);
#964=LINE('',#933,#963);
#965=EDGE_CURVE('',#934,#956,#964,.T.);
#966=ORIENTED_EDGE('',*,*,#965,.F.);
#967=ORIENTED_EDGE('',*,*,#938,.F.);
#968=EDGE_LOOP('',(#954,#961,#966,#967));
#969=FACE_OUTER_BOUND('',#968,.T.);
#970=CARTESIAN_POINT('',(632.,-53.,349.));
#971=DIRECTION('',(0.86286,0.35741,0.35741));
#972=DIRECTION('',(-0.38268,0.92388,0.));
#973=AXIS2_PLACEMENT_3D('',#970,#971,#972);
#974=PLANE('',#973);
#975=ADVANCED_FACE('',(#969),#974,.T.);
#976=ORIENTED_EDGE('',*,*,#723,.T.);
#977=CARTESIAN_POINT('',(629.,-50.58579,350.41421));
#978=VERTEX_POINT('',#977);
#979=DIRECTION('',(0.,-0.38268,0.92388));
#980=VECTOR('',#979,1.53073);
#981=LINE('',#713,#980);
#982=EDGE_CURVE('',#714,#978,#981,.T.);
#983=ORIENTED_EDGE('',*,*,#982,.T.);
#984=DIRECTION('',(-0.92388,0.38268,0.));
#985=VECTOR('',#984,1.84776);
#986=LINE('',#955,#985);
#987=EDGE_CURVE('',#956,#978,#986,.T.);
#988=ORIENTED_EDGE('',*,*,#987,.F.);
#989=ORIENTED_EDGE('',*,*,#960,.F.);
#990=EDGE_LOOP('',(#976,#983,#988,#989));
#991=FACE_OUTER_BOUND('',#990,.T.);
#992=CARTESIAN_POINT('',(631.12132,-50.87868,349.));
#993=DIRECTION('',(0.35741,0.86286,0.35741));
#994=DIRECTION('',(-0.92388,0.38268,0.));
#995=AXIS2_PLACEMENT_3D('',#992,#993,#994);
#996=PLANE('',#995);
#997=ADVANCED_FACE('',(#991),#996,.T.);
#998=ORIENTED_EDGE('',*,*,#745,.T.);
#999=CARTESIAN_POINT('',(535.,-50.58579,350.41421));
#1000=VERTEX_POINT('',#999);
#1001=DIRECTION('',(0.,-0.38268,0.92388));
#1002=VECTOR('',#1001,1.53073);
#1003=LINE('',#735,#1002);
#1004=EDGE_CURVE('',#736,#1000,#1003,.T.);
#1005=ORIENTED_EDGE('',*,*,#1004,.T.);
#1006=DIRECTION('',(-1.,0.,0.));
#1007=VECTOR('',#1006,94.);
#1008=LINE('',#977,#1007);
#1009=EDGE_CURVE('',#978,#1000,#1008,.T.);
#1010=ORIENTED_EDGE('',*,*,#1009,.F.);
#1011=ORIENTED_EDGE('',*,*,#982,.F.);
#1012=EDGE_LOOP('',(#998,#1005,#1010,#1011));
#1013=FACE_OUTER_BOUND('',#1012,.T.);
#1014=CARTESIAN_POINT('',(629.,-50.,349.));
#1015=DIRECTION('',(0.,0.92388,0.38268));
#1016=DIRECTION('',(-1.,0.,0.));
#1017=AXIS2_PLACEMENT_3D('',#1014,#1015,#1016);
#1018=PLANE('',#1017);
#1019=ADVANCED_FACE('',(#1013),#1018,.T.);
#1020=ORIENTED_EDGE('',*,*,#767,.T.);
#1021=CARTESIAN_POINT('',(533.29289,-51.29289,350.41421));
#1022=VERTEX_POINT('',#1021);
#1023=DIRECTION('',(0.2706,-0.2706,0.92388));
#1024=VECTOR('',#1023,1.53073);
#1025=LINE('',#757,#1024);
#1026=EDGE_CURVE('',#758,#1022,#1025,.T.);
#1027=ORIENTED_EDGE('',*,*,#1026,.T.);
#1028=DIRECTION('',(-0.92388,-0.38268,0.));
#1029=VECTOR('',#1028,1.84776);
#1030=LINE('',#999,#1029);
#1031=EDGE_CURVE('',#1000,#1022,#1030,.T.);
#1032=ORIENTED_EDGE('',*,*,#1031,.F.);
#1033=ORIENTED_EDGE('',*,*,#1004,.F.);
#1034=EDGE_LOOP('',(#1020,#1027,#1032,#1033));
#1035=FACE_OUTER_BOUND('',#1034,.T.);
#1036=CARTESIAN_POINT('',(535.,-50.,349.));
#1037=DIRECTION('',(-0.35741,0.86286,0.35741));
#1038=DIRECTION('',(-0.92388,-0.38268,0.));
#1039=AXIS2_PLACEMENT_3D('',#1036,#1037,#1038);
#1040=PLANE('',#1039);
#1041=ADVANCED_FACE('',(#1035),#1040,.T.);
#1042=ORIENTED_EDGE('',*,*,#789,.T.);
#1043=CARTESIAN_POINT('',(532.58579,-53.,350.41421));
#1044=VERTEX_POINT('',#1043);
#1045=DIRECTION('',(0.38268,0.,0.92388));
#1046=VECTOR('',#1045,1.53073);
#1047=LINE('',#779,#1046);
#1048=EDGE_CURVE('',#780,#1044,#1047,.T.);
#1049=ORIENTED_EDGE('',*,*,#1048,.T.);
#1050=DIRECTION('',(-0.38268,-0.92388,0.));
#1051=VECTOR('',#1050,1.84776);
#1052=LINE('',#1021,#1051);
#1053=EDGE_CURVE('',#1022,#1044,#1052,.T.);
#1054=ORIENTED_EDGE('',*,*,#1053,.F.);
#1055=ORIENTED_EDGE('',*,*,#1026,.F.);
#1056=EDGE_LOOP('',(#1042,#1049,#1054,#1055));
#1057=FACE_OUTER_BOUND('',#1056,.T.);
#1058=CARTESIAN_POINT('',(532.87868,-50.87868,349.));
#1059=DIRECTION('',(-0.86286,0.35741,0.35741));
#1060=DIRECTION('',(-0.38268,-0.92388,0.));
#1061=AXIS2_PLACEMENT_3D('',#1058,#1059,#1060);
#1062=PLANE('',#1061);
#1063=ADVANCED_FACE('',(#1057),#1062,.T.);
#1064=ORIENTED_EDGE('',*,*,#811,.T.);
#1065=CARTESIAN_POINT('',(532.58579,-107.,350.41421));
#1066=VERTEX_POINT('',#1065);
#1067=DIRECTION('',(0.38268,0.,0.92388));
#1068=VECTOR('',#1067,1.53073);
#1069=LINE('',#801,#1068);
#1070=EDGE_CURVE('',#802,#1066,#1069,.T.);
#1071=ORIENTED_EDGE('',*,*,#1070,.T.);
#1072=DIRECTION('',(0.,-1.,0.));
#1073=VECTOR('',#1072,54.);
#1074=LINE('',#1043,#1073);
#1075=EDGE_CURVE('',#1044,#1066,#1074,.T.);
#1076=ORIENTED_EDGE('',*,*,#1075,.F.);
#1077=ORIENTED_EDGE('',*,*,#1048,.F.);
#1078=EDGE_LOOP('',(#1064,#1071,#1076,#1077));
#1079=FACE_OUTER_BOUND('',#1078,.T.);
#1080=CARTESIAN_POINT('',(532.,-53.,349.));
#1081=DIRECTION('',(-0.92388,0.,0.38268));
#1082=DIRECTION('',(0.,-1.,0.));
#1083=AXIS2_PLACEMENT_3D('',#1080,#1081,#1082);
#1084=PLANE('',#1083);
#1085=ADVANCED_FACE('',(#1079),#1084,.T.);
#1086=ORIENTED_EDGE('',*,*,#833,.T.);
#1087=CARTESIAN_POINT('',(533.29289,-108.70711,350.41421));
#1088=VERTEX_POINT('',#1087);
#1089=DIRECTION('',(0.2706,0.2706,0.92388));
#1090=VECTOR('',#1089,1.53073);
#1091=LINE('',#823,#1090);
#1092=EDGE_CURVE('',#824,#1088,#1091,.T.);
#1093=ORIENTED_EDGE('',*,*,#1092,.T.);
#1094=DIRECTION('',(0.38268,-0.92388,0.));
#1095=VECTOR('',#1094,1.84776);
#1096=LINE('',#1065,#1095);
#1097=EDGE_CURVE('',#1066,#1088,#1096,.T.);
#1098=ORIENTED_EDGE('',*,*,#1097,.F.);
#1099=ORIENTED_EDGE('',*,*,#1070,.F.);
#1100=EDGE_LOOP('',(#1086,#1093,#1098,#1099));
#1101=FACE_OUTER_BOUND('',#1100,.T.);
#1102=CARTESIAN_POINT('',(532.,-107.,349.));
#1103=DIRECTION('',(-0.86286,-0.35741,0.35741));
#1104=DIRECTION('',(0.38268,-0.92388,0.));
#1105=AXIS2_PLACEMENT_3D('',#1102,#1103,#1104);
#1106=PLANE('',#1105);
#1107=ADVANCED_FACE('',(#1101),#1106,.T.);
#1108=ORIENTED_EDGE('',*,*,#855,.T.);
#1109=CARTESIAN_POINT('',(535.,-109.41421,350.41421));
#1110=VERTEX_POINT('',#1109);
#1111=DIRECTION('',(0.,0.38268,0.92388));
#1112=VECTOR('',#1111,1.53073);
#1113=LINE('',#845,#1112);
#1114=EDGE_CURVE('',#846,#1110,#1113,.T.);
#1115=ORIENTED_EDGE('',*,*,#1114,.T.);
#1116=DIRECTION('',(0.92388,-0.38268,0.));
#1117=VECTOR('',#1116,1.84776);
#1118=LINE('',#1087,#1117);
#1119=EDGE_CURVE('',#1088,#1110,#1118,.T.);
#1120=ORIENTED_EDGE('',*,*,#1119,.F.);
#1121=ORIENTED_EDGE('',*,*,#1092,.F.);
#1122=EDGE_LOOP('',(#1108,#1115,#1120,#1121));
#1123=FACE_OUTER_BOUND('',#1122,.T.);
#1124=CARTESIAN_POINT('',(532.87868,-109.12132,349.));
#1125=DIRECTION('',(-0.35741,-0.86286,0.35741));
#1126=DIRECTION('',(0.92388,-0.38268,0.));
#1127=AXIS2_PLACEMENT_3D('',#1124,#1125,#1126);
#1128=PLANE('',#1127);
#1129=ADVANCED_FACE('',(#1123),#1128,.T.);
#1130=ORIENTED_EDGE('',*,*,#871,.F.);
#1131=ORIENTED_EDGE('',*,*,#900,.T.);
#1132=DIRECTION('',(-1.,0.,0.));
#1133=VECTOR('',#1132,94.);
#1134=LINE('',#890,#1133);
#1135=EDGE_CURVE('',#891,#1110,#1134,.T.);
#1136=ORIENTED_EDGE('',*,*,#1135,.T.);
#1137=ORIENTED_EDGE('',*,*,#1114,.F.);
#1138=EDGE_LOOP('',(#1130,#1131,#1136,#1137));
#1139=FACE_OUTER_BOUND('',#1138,.T.);
#1140=CARTESIAN_POINT('',(535.,-110.,349.));
#1141=DIRECTION('',(0.,-0.92388,0.38268));
#1142=DIRECTION('',(1.,0.,0.));
#1143=AXIS2_PLACEMENT_3D('',#1140,#1141,#1142);
#1144=PLANE('',#1143);
#1145=ADVANCED_FACE('',(#1139),#1144,.T.);
#1146=ORIENTED_EDGE('',*,*,#895,.T.);
#1147=CARTESIAN_POINT('',(629.70711,-107.70711,351.));
#1148=VERTEX_POINT('',#1147);
#1149=DIRECTION('',(-0.65328,0.65328,0.38268));
#1150=VECTOR('',#1149,1.53073);
#1151=LINE('',#883,#1150);
#1152=EDGE_CURVE('',#884,#1148,#1151,.T.);
#1153=ORIENTED_EDGE('',*,*,#1152,.T.);
#1154=CARTESIAN_POINT('',(629.,-108.,351.));
#1155=VERTEX_POINT('',#1154);
#1156=DIRECTION('',(0.92388,0.38268,0.));
#1157=VECTOR('',#1156,0.76537);
#1158=LINE('',#1154,#1157);
#1159=EDGE_CURVE('',#1155,#1148,#1158,.T.);
#1160=ORIENTED_EDGE('',*,*,#1159,.F.);
#1161=DIRECTION('',(0.,0.92388,0.38268));
#1162=VECTOR('',#1161,1.53073);
#1163=LINE('',#890,#1162);
#1164=EDGE_CURVE('',#891,#1155,#1163,.T.);
#1165=ORIENTED_EDGE('',*,*,#1164,.F.);
#1166=EDGE_LOOP('',(#1146,#1153,#1160,#1165));
#1167=FACE_OUTER_BOUND('',#1166,.T.);
#1168=CARTESIAN_POINT('',(629.,-109.41421,350.41421));
#1169=DIRECTION('',(0.15656,-0.37796,0.91249));
#1170=DIRECTION('',(0.92388,0.38268,0.));
#1171=AXIS2_PLACEMENT_3D('',#1168,#1169,#1170);
#1172=PLANE('',#1171);
#1173=ADVANCED_FACE('',(#1167),#1172,.T.);
#1174=ORIENTED_EDGE('',*,*,#921,.T.);
#1175=CARTESIAN_POINT('',(630.,-107.,351.));
#1176=VERTEX_POINT('',#1175);
#1177=DIRECTION('',(-0.92388,0.,0.38268));
#1178=VECTOR('',#1177,1.53073);
#1179=LINE('',#911,#1178);
#1180=EDGE_CURVE('',#912,#1176,#1179,.T.);
#1181=ORIENTED_EDGE('',*,*,#1180,.T.);
#1182=DIRECTION('',(0.38268,0.92388,0.));
#1183=VECTOR('',#1182,0.76537);
#1184=LINE('',#1147,#1183);
#1185=EDGE_CURVE('',#1148,#1176,#1184,.T.);
#1186=ORIENTED_EDGE('',*,*,#1185,.F.);
#1187=ORIENTED_EDGE('',*,*,#1152,.F.);
#1188=EDGE_LOOP('',(#1174,#1181,#1186,#1187));
#1189=FACE_OUTER_BOUND('',#1188,.T.);
#1190=CARTESIAN_POINT('',(630.70711,-108.70711,350.41421));
#1191=DIRECTION('',(0.37796,-0.15656,0.91249));
#1192=DIRECTION('',(0.38268,0.92388,0.));
#1193=AXIS2_PLACEMENT_3D('',#1190,#1191,#1192);
#1194=PLANE('',#1193);
#1195=ADVANCED_FACE('',(#1189),#1194,.T.);
#1196=ORIENTED_EDGE('',*,*,#943,.T.);
#1197=CARTESIAN_POINT('',(630.,-53.,351.));
#1198=VERTEX_POINT('',#1197);
#1199=DIRECTION('',(-0.92388,0.,0.38268));
#1200=VECTOR('',#1199,1.53073);
#1201=LINE('',#933,#1200);
#1202=EDGE_CURVE('',#934,#1198,#1201,.T.);
#1203=ORIENTED_EDGE('',*,*,#1202,.T.);
#1204=DIRECTION('',(0.,1.,0.));
#1205=VECTOR('',#1204,54.);
#1206=LINE('',#1175,#1205);
#1207=EDGE_CURVE('',#1176,#1198,#1206,.T.);
#1208=ORIENTED_EDGE('',*,*,#1207,.F.);
#1209=ORIENTED_EDGE('',*,*,#1180,.F.);
#1210=EDGE_LOOP('',(#1196,#1203,#1208,#1209));
#1211=FACE_OUTER_BOUND('',#1210,.T.);
#1212=CARTESIAN_POINT('',(631.41421,-107.,350.41421));
#1213=DIRECTION('',(0.38268,0.,0.92388));
#1214=DIRECTION('',(0.,1.,0.));
#1215=AXIS2_PLACEMENT_3D('',#1212,#1213,#1214);
#1216=PLANE('',#1215);
#1217=ADVANCED_FACE('',(#1211),#1216,.T.);
#1218=ORIENTED_EDGE('',*,*,#965,.T.);
#1219=CARTESIAN_POINT('',(629.70711,-52.29289,351.));
#1220=VERTEX_POINT('',#1219);
#1221=DIRECTION('',(-0.65328,-0.65328,0.38268));
#1222=VECTOR('',#1221,1.53073);
#1223=LINE('',#955,#1222);
#1224=EDGE_CURVE('',#956,#1220,#1223,.T.);
#1225=ORIENTED_EDGE('',*,*,#1224,.T.);
#1226=DIRECTION('',(-0.38268,0.92388,0.));
#1227=VECTOR('',#1226,0.76537);
#1228=LINE('',#1197,#1227);
#1229=EDGE_CURVE('',#1198,#1220,#1228,.T.);
#1230=ORIENTED_EDGE('',*,*,#1229,.F.);
#1231=ORIENTED_EDGE('',*,*,#1202,.F.);
#1232=EDGE_LOOP('',(#1218,#1225,#1230,#1231));
#1233=FACE_OUTER_BOUND('',#1232,.T.);
#1234=CARTESIAN_POINT('',(631.41421,-53.,350.41421));
#1235=DIRECTION('',(0.37796,0.15656,0.91249));
#1236=DIRECTION('',(-0.38268,0.92388,0.));
#1237=AXIS2_PLACEMENT_3D('',#1234,#1235,#1236);
#1238=PLANE('',#1237);
#1239=ADVANCED_FACE('',(#1233),#1238,.T.);
#1240=ORIENTED_EDGE('',*,*,#987,.T.);
#1241=CARTESIAN_POINT('',(629.,-52.,351.));
#1242=VERTEX_POINT('',#1241);
#1243=DIRECTION('',(0.,-0.92388,0.38268));
#1244=VECTOR('',#1243,1.53073);
#1245=LINE('',#977,#1244);
#1246=EDGE_CURVE('',#978,#1242,#1245,.T.);
#1247=ORIENTED_EDGE('',*,*,#1246,.T.);
#1248=DIRECTION('',(-0.92388,0.38268,0.));
#1249=VECTOR('',#1248,0.76537);
#1250=LINE('',#1219,#1249);
#1251=EDGE_CURVE('',#1220,#1242,#1250,.T.);
#1252=ORIENTED_EDGE('',*,*,#1251,.F.);
#1253=ORIENTED_EDGE('',*,*,#1224,.F.);
#1254=EDGE_LOOP('',(#1240,#1247,#1252,#1253));
#1255=FACE_OUTER_BOUND('',#1254,.T.);
#1256=CARTESIAN_POINT('',(630.70711,-51.29289,350.41421));
#1257=DIRECTION('',(0.15656,0.37796,0.91249));
#1258=DIRECTION('',(-0.92388,0.38268,0.));
#1259=AXIS2_PLACEMENT_3D('',#1256,#1257,#1258);
#1260=PLANE('',#1259);
#1261=ADVANCED_FACE('',(#1255),#1260,.T.);
#1262=ORIENTED_EDGE('',*,*,#1009,.T.);
#1263=CARTESIAN_POINT('',(535.,-52.,351.));
#1264=VERTEX_POINT('',#1263);
#1265=DIRECTION('',(0.,-0.92388,0.38268));
#1266=VECTOR('',#1265,1.53073);
#1267=LINE('',#999,#1266);
#1268=EDGE_CURVE('',#1000,#1264,#1267,.T.);
#1269=ORIENTED_EDGE('',*,*,#1268,.T.);
#1270=DIRECTION('',(-1.,0.,0.));
#1271=VECTOR('',#1270,94.);
#1272=LINE('',#1241,#1271);
#1273=EDGE_CURVE('',#1242,#1264,#1272,.T.);
#1274=ORIENTED_EDGE('',*,*,#1273,.F.);
#1275=ORIENTED_EDGE('',*,*,#1246,.F.);
#1276=EDGE_LOOP('',(#1262,#1269,#1274,#1275));
#1277=FACE_OUTER_BOUND('',#1276,.T.);
#1278=CARTESIAN_POINT('',(629.,-50.58579,350.41421));
#1279=DIRECTION('',(0.,0.38268,0.92388));
#1280=DIRECTION('',(-1.,0.,0.));
#1281=AXIS2_PLACEMENT_3D('',#1278,#1279,#1280);
#1282=PLANE('',#1281);
#1283=ADVANCED_FACE('',(#1277),#1282,.T.);
#1284=ORIENTED_EDGE('',*,*,#1031,.T.);
#1285=CARTESIAN_POINT('',(534.29289,-52.29289,351.));
#1286=VERTEX_POINT('',#1285);
#1287=DIRECTION('',(0.65328,-0.65328,0.38268));
#1288=VECTOR('',#1287,1.53073);
#1289=LINE('',#1021,#1288);
#1290=EDGE_CURVE('',#1022,#1286,#1289,.T.);
#1291=ORIENTED_EDGE('',*,*,#1290,.T.);
#1292=DIRECTION('',(-0.92388,-0.38268,0.));
#1293=VECTOR('',#1292,0.76537);
#1294=LINE('',#1263,#1293);
#1295=EDGE_CURVE('',#1264,#1286,#1294,.T.);
#1296=ORIENTED_EDGE('',*,*,#1295,.F.);
#1297=ORIENTED_EDGE('',*,*,#1268,.F.);
#1298=EDGE_LOOP('',(#1284,#1291,#1296,#1297));
#1299=FACE_OUTER_BOUND('',#1298,.T.);
#1300=CARTESIAN_POINT('',(535.,-50.58579,350.41421));
#1301=DIRECTION('',(-0.15656,0.37796,0.91249));
#1302=DIRECTION('',(-0.92388,-0.38268,0.));
#1303=AXIS2_PLACEMENT_3D('',#1300,#1301,#1302);
#1304=PLANE('',#1303);
#1305=ADVANCED_FACE('',(#1299),#1304,.T.);
#1306=ORIENTED_EDGE('',*,*,#1053,.T.);
#1307=CARTESIAN_POINT('',(534.,-53.,351.));
#1308=VERTEX_POINT('',#1307);
#1309=DIRECTION('',(0.92388,0.,0.38268));
#1310=VECTOR('',#1309,1.53073);
#1311=LINE('',#1043,#1310);
#1312=EDGE_CURVE('',#1044,#1308,#1311,.T.);
#1313=ORIENTED_EDGE('',*,*,#1312,.T.);
#1314=DIRECTION('',(-0.38268,-0.92388,0.));
#1315=VECTOR('',#1314,0.76537);
#1316=LINE('',#1285,#1315);
#1317=EDGE_CURVE('',#1286,#1308,#1316,.T.);
#1318=ORIENTED_EDGE('',*,*,#1317,.F.);
#1319=ORIENTED_EDGE('',*,*,#1290,.F.);
#1320=EDGE_LOOP('',(#1306,#1313,#1318,#1319));
#1321=FACE_OUTER_BOUND('',#1320,.T.);
#1322=CARTESIAN_POINT('',(533.29289,-51.29289,350.41421));
#1323=DIRECTION('',(-0.37796,0.15656,0.91249));
#1324=DIRECTION('',(-0.38268,-0.92388,0.));
#1325=AXIS2_PLACEMENT_3D('',#1322,#1323,#1324);
#1326=PLANE('',#1325);
#1327=ADVANCED_FACE('',(#1321),#1326,.T.);
#1328=ORIENTED_EDGE('',*,*,#1075,.T.);
#1329=CARTESIAN_POINT('',(534.,-107.,351.));
#1330=VERTEX_POINT('',#1329);
#1331=DIRECTION('',(0.92388,0.,0.38268));
#1332=VECTOR('',#1331,1.53073);
#1333=LINE('',#1065,#1332);
#1334=EDGE_CURVE('',#1066,#1330,#1333,.T.);
#1335=ORIENTED_EDGE('',*,*,#1334,.T.);
#1336=DIRECTION('',(0.,-1.,0.));
#1337=VECTOR('',#1336,54.);
#1338=LINE('',#1307,#1337);
#1339=EDGE_CURVE('',#1308,#1330,#1338,.T.);
#1340=ORIENTED_EDGE('',*,*,#1339,.F.);
#1341=ORIENTED_EDGE('',*,*,#1312,.F.);
#1342=EDGE_LOOP('',(#1328,#1335,#1340,#1341));
#1343=FACE_OUTER_BOUND('',#1342,.T.);
#1344=CARTESIAN_POINT('',(532.58579,-53.,350.41421));
#1345=DIRECTION('',(-0.38268,0.,0.92388));
#1346=DIRECTION('',(0.,-1.,0.));
#1347=AXIS2_PLACEMENT_3D('',#1344,#1345,#1346);
#1348=PLANE('',#1347);
#1349=ADVANCED_FACE('',(#1343),#1348,.T.);
#1350=ORIENTED_EDGE('',*,*,#1097,.T.);
#1351=CARTESIAN_POINT('',(534.29289,-107.70711,351.));
#1352=VERTEX_POINT('',#1351);
#1353=DIRECTION('',(0.65328,0.65328,0.38268));
#1354=VECTOR('',#1353,1.53073);
#1355=LINE('',#1087,#1354);
#1356=EDGE_CURVE('',#1088,#1352,#1355,.T.);
#1357=ORIENTED_EDGE('',*,*,#1356,.T.);
#1358=DIRECTION('',(0.38268,-0.92388,0.));
#1359=VECTOR('',#1358,0.76537);
#1360=LINE('',#1329,#1359);
#1361=EDGE_CURVE('',#1330,#1352,#1360,.T.);
#1362=ORIENTED_EDGE('',*,*,#1361,.F.);
#1363=ORIENTED_EDGE('',*,*,#1334,.F.);
#1364=EDGE_LOOP('',(#1350,#1357,#1362,#1363));
#1365=FACE_OUTER_BOUND('',#1364,.T.);
#1366=CARTESIAN_POINT('',(532.58579,-107.,350.41421));
#1367=DIRECTION('',(-0.37796,-0.15656,0.91249));
#1368=DIRECTION('',(0.38268,-0.92388,0.));
#1369=AXIS2_PLACEMENT_3D('',#1366,#1367,#1368);
#1370=PLANE('',#1369);
#1371=ADVANCED_FACE('',(#1365),#1370,.T.);
#1372=ORIENTED_EDGE('',*,*,#1119,.T.);
#1373=CARTESIAN_POINT('',(535.,-108.,351.));
#1374=VERTEX_POINT('',#1373);
#1375=DIRECTION('',(0.,0.92388,0.38268));
#1376=VECTOR('',#1375,1.53073);
#1377=LINE('',#1109,#1376);
#1378=EDGE_CURVE('',#1110,#1374,#1377,.T.);
#1379=ORIENTED_EDGE('',*,*,#1378,.T.);
#1380=DIRECTION('',(0.92388,-0.38268,0.));
#1381=VECTOR('',#1380,0.76537);
#1382=LINE('',#1351,#1381);
#1383=EDGE_CURVE('',#1352,#1374,#1382,.T.);
#1384=ORIENTED_EDGE('',*,*,#1383,.F.);
#1385=ORIENTED_EDGE('',*,*,#1356,.F.);
#1386=EDGE_LOOP('',(#1372,#1379,#1384,#1385));
#1387=FACE_OUTER_BOUND('',#1386,.T.);
#1388=CARTESIAN_POINT('',(533.29289,-108.70711,350.41421));
#1389=DIRECTION('',(-0.15656,-0.37796,0.91249));
#1390=DIRECTION('',(0.92388,-0.38268,0.));
#1391=AXIS2_PLACEMENT_3D('',#1388,#1389,#1390);
#1392=PLANE('',#1391);
#1393=ADVANCED_FACE('',(#1387),#1392,.T.);
#1394=ORIENTED_EDGE('',*,*,#1135,.F.);
#1395=ORIENTED_EDGE('',*,*,#1164,.T.);
#1396=DIRECTION('',(-1.,0.,0.));
#1397=VECTOR('',#1396,94.);
#1398=LINE('',#1154,#1397);
#1399=EDGE_CURVE('',#1155,#1374,#1398,.T.);
#1400=ORIENTED_EDGE('',*,*,#1399,.T.);
#1401=ORIENTED_EDGE('',*,*,#1378,.F.);
#1402=EDGE_LOOP('',(#1394,#1395,#1400,#1401));
#1403=FACE_OUTER_BOUND('',#1402,.T.);
#1404=CARTESIAN_POINT('',(535.,-109.41421,350.41421));
#1405=DIRECTION('',(0.,-0.38268,0.92388));
#1406=DIRECTION('',(1.,0.,0.));
#1407=AXIS2_PLACEMENT_3D('',#1404,#1405,#1406);
#1408=PLANE('',#1407);
#1409=ADVANCED_FACE('',(#1403),#1408,.T.);
#1410=ORIENTED_EDGE('',*,*,#311,.F.);
#1411=ORIENTED_EDGE('',*,*,#283,.F.);
#1412=ORIENTED_EDGE('',*,*,#255,.F.);
#1413=ORIENTED_EDGE('',*,*,#227,.F.);
#1414=ORIENTED_EDGE('',*,*,#199,.F.);
#1415=ORIENTED_EDGE('',*,*,#171,.F.);
#1416=ORIENTED_EDGE('',*,*,#143,.F.);
#1417=ORIENTED_EDGE('',*,*,#115,.F.);
#1418=ORIENTED_EDGE('',*,*,#87,.F.);
#1419=ORIENTED_EDGE('',*,*,#59,.F.);
#1420=ORIENTED_EDGE('',*,*,#25,.F.);
#1421=ORIENTED_EDGE('',*,*,#337,.T.);
#1422=EDGE_LOOP('',(#1410,#1411,#1412,#1413,#1414,#1415,#1416,#1417,#1418,#1419,#1420,#1421));
#1423=FACE_OUTER_BOUND('',#1422,.T.);
#1424=CARTESIAN_POINT('',(535.,-108.,323.));
#1425=DIRECTION('',(0.,0.,-1.));
#1426=DIRECTION('',(-0.92388,0.38268,0.));
#1427=AXIS2_PLACEMENT_3D('',#1424,#1425,#1426);
#1428=PLANE('',#1427);
#1429=ADVANCED_FACE('',(#1423),#1428,.T.);
#1430=ORIENTED_EDGE('',*,*,#1159,.T.);
#1431=ORIENTED_EDGE('',*,*,#1185,.T.);
#1432=ORIENTED_EDGE('',*,*,#1207,.T.);
#1433=ORIENTED_EDGE('',*,*,#1229,.T.);
#1434=ORIENTED_EDGE('',*,*,#1251,.T.);
#1435=ORIENTED_EDGE('',*,*,#1273,.T.);
#1436=ORIENTED_EDGE('',*,*,#1295,.T.);
#1437=ORIENTED_EDGE('',*,*,#1317,.T.);
#1438=ORIENTED_EDGE('',*,*,#1339,.T.);
#1439=ORIENTED_EDGE('',*,*,#1361,.T.);
#1440=ORIENTED_EDGE('',*,*,#1383,.T.);
#1441=ORIENTED_EDGE('',*,*,#1399,.F.);
#1442=EDGE_LOOP('',(#1430,#1431,#1432,#1433,#1434,#1435,#1436,#1437,#1438,#1439,#1440,#1441));
#1443=FACE_OUTER_BOUND('',#1442,.T.);
#1444=CARTESIAN_POINT('',(629.,-108.,351.));
#1445=DIRECTION('',(0.,0.,1.));
#1446=DIRECTION('',(0.92388,0.38268,0.));
#1447=AXIS2_PLACEMENT_3D('',#1444,#1445,#1446);
#1448=PLANE('',#1447);
#1449=ADVANCED_FACE('',(#1443),#1448,.T.);
#1450=CLOSED_SHELL('',(#53,#81,#109,#137,#165,#193,#221,#249,#277,#305,#333,#353,#381,#403,#425,#447,#469,#491,#513,#535,#557,#579,#601,#617,#645,#667,#689,#711,#733,#755,#777,#799,#821,#843,#865,#881,#909,#931,#953,#975,#997,#1019,#1041,#1063,#1085,#1107,#1129,#1145,#1173,#1195,#1217,#1239,#1261,#1283,#1305,#1327,#1349,#1371,#1393,#1409,#1429,#1449));
#1451=MANIFOLD_SOLID_BREP('',#1450);
#1452=COLOUR_RGB('',0.3,0.32,0.34);
#1453=FILL_AREA_STYLE_COLOUR('',#1452);
#1454=FILL_AREA_STYLE('',(#1453));
#1455=SURFACE_STYLE_FILL_AREA(#1454);
#1456=SURFACE_SIDE_STYLE('',(#1455));
#1457=SURFACE_STYLE_USAGE(.BOTH.,#1456);
#1458=PRESENTATION_STYLE_ASSIGNMENT((#1457));
#1459=STYLED_ITEM('color',(#1458),#1451);
#1460=ADVANCED_BREP_SHAPE_REPRESENTATION('',(#17,#1451),#9);
#1461=SHAPE_DEFINITION_REPRESENTATION(#13,#1460);
#1462=MECHANICAL_DESIGN_GEOMETRIC_PRESENTATION_REPRESENTATION('',(#1459),#9);
#1463=PRODUCT_RELATED_PRODUCT_CATEGORY('part',$,(#10));
ENDSEC;
END-ISO-10303-21;
