ISO-10303-21;
HEADER;
FILE_DESCRIPTION(('AquaSentinel R3 - planar B-rep export'),'2;1');
FILE_NAME('V debris deflector','2026-10-04T21:49:42',('AquaSentinel team'),('Sanjivani University'),'AquaSentinel R3 python build','AquaSentinel R3','');
FILE_SCHEMA(('AUTOMOTIVE_DESIGN { 1 0 10303 214 1 1 1 1 }'));
ENDSEC;
DATA;
#1=APPLICATION_CONTEXT('core data for automotive mechanical design processes');
#2=APPLICATION_PROTOCOL_DEFINITION('international standard','automotive_design',2000,#1);
#3=PRODUCT_CONTEXT('',#1,'mechanical');
#4=PRODUCT_DEFINITION_CONTEXT('part definition',#1,'design');
#5=(LENGTH_UNIT()NAMED_UNIT(*)SI_UNIT(.MILLI.,.METRE.));
#6=(NAMED_UNIT(*)PLANE_ANGLE_UNIT()SI_UNIT($,.RADIAN.));
#7=(NAMED_UNIT(*)SI_UNIT($,.STERADIAN.)SOLID_ANGLE_UNIT());
#8=UNCERTAINTY_MEASURE_WITH_UNIT(LENGTH_MEASURE(1.E-04),#5,'distance_accuracy_value','confusion accuracy');
#9=(GEOMETRIC_REPRESENTATION_CONTEXT(3)GLOBAL_UNCERTAINTY_ASSIGNED_CONTEXT((#8))GLOBAL_UNIT_ASSIGNED_CONTEXT((#5,#6,#7))REPRESENTATION_CONTEXT('Context','3D Context with UNIT and UNCERTAINTY'));
#10=PRODUCT('AS3-404','V debris deflector','Splits floating debris ahead of the sensor well',(#3));
#11=PRODUCT_DEFINITION_FORMATION('','',#10);
#12=PRODUCT_DEFINITION('design','',#11,#4);
#13=PRODUCT_DEFINITION_SHAPE('','',#12);
#14=CARTESIAN_POINT('',(0.,0.,0.));
#15=DIRECTION('',(0.,0.,1.));
#16=DIRECTION('',(1.,0.,0.));
#17=AXIS2_PLACEMENT_3D('',#14,#15,#16);
#18=CARTESIAN_POINT('',(110.,0.,-330.));
#19=VERTEX_POINT('',#18);
#20=CARTESIAN_POINT('',(172.,-62.,-330.));
#21=VERTEX_POINT('',#20);
#22=DIRECTION('',(0.70711,-0.70711,0.));
#23=VECTOR('',#22,87.68124);
#24=LINE('',#18,#23);
#25=EDGE_CURVE('',#19,#21,#24,.T.);
#26=ORIENTED_EDGE('',*,*,#25,.T.);
#27=CARTESIAN_POINT('',(172.,-62.,259.5));
#28=VERTEX_POINT('',#27);
#29=DIRECTION('',(0.,0.,1.));
#30=VECTOR('',#29,589.5);
#31=LINE('',#20,#30);
#32=EDGE_CURVE('',#21,#28,#31,.T.);
#33=ORIENTED_EDGE('',*,*,#32,.T.);
#34=CARTESIAN_POINT('',(110.,0.,259.5));
#35=VERTEX_POINT('',#34);
#36=DIRECTION('',(0.70711,-0.70711,0.));
#37=VECTOR('',#36,87.68124);
#38=LINE('',#34,#37);
#39=EDGE_CURVE('',#35,#28,#38,.T.);
#40=ORIENTED_EDGE('',*,*,#39,.F.);
#41=DIRECTION('',(0.,0.,1.));
#42=VECTOR('',#41,589.5);
#43=LINE('',#18,#42);
#44=EDGE_CURVE('',#19,#35,#43,.T.);
#45=ORIENTED_EDGE('',*,*,#44,.F.);
#46=EDGE_LOOP('',(#26,#33,#40,#45));
#47=FACE_OUTER_BOUND('',#46,.T.);
#48=CARTESIAN_POINT('',(110.,0.,-330.));
#49=DIRECTION('',(-0.70711,-0.70711,0.));
#50=DIRECTION('',(0.70711,-0.70711,0.));
#51=AXIS2_PLACEMENT_3D('',#48,#49,#50);
#52=PLANE('',#51);
#53=ADVANCED_FACE('',(#47),#52,.T.);
#54=CARTESIAN_POINT('',(172.,-50.688,-330.));
#55=VERTEX_POINT('',#54);
#56=DIRECTION('',(0.,1.,0.));
#57=VECTOR('',#56,11.312);
#58=LINE('',#20,#57);
#59=EDGE_CURVE('',#21,#55,#58,.T.);
#60=ORIENTED_EDGE('',*,*,#59,.T.);
#61=CARTESIAN_POINT('',(172.,-50.688,259.5));
#62=VERTEX_POINT('',#61);
#63=DIRECTION('',(0.,0.,1.));
#64=VECTOR('',#63,589.5);
#65=LINE('',#54,#64);
#66=EDGE_CURVE('',#55,#62,#65,.T.);
#67=ORIENTED_EDGE('',*,*,#66,.T.);
#68=DIRECTION('',(0.,1.,0.));
#69=VECTOR('',#68,11.312);
#70=LINE('',#27,#69);
#71=EDGE_CURVE('',#28,#62,#70,.T.);
#72=ORIENTED_EDGE('',*,*,#71,.F.);
#73=ORIENTED_EDGE('',*,*,#32,.F.);
#74=EDGE_LOOP('',(#60,#67,#72,#73));
#75=FACE_OUTER_BOUND('',#74,.T.);
#76=CARTESIAN_POINT('',(172.,-62.,-330.));
#77=DIRECTION('',(1.,0.,0.));
#78=DIRECTION('',(0.,1.,0.));
#79=AXIS2_PLACEMENT_3D('',#76,#77,#78);
#80=PLANE('',#79);
#81=ADVANCED_FACE('',(#75),#80,.T.);
#82=CARTESIAN_POINT('',(121.312,0.,-330.));
#83=VERTEX_POINT('',#82);
#84=DIRECTION('',(-0.70711,0.70711,0.));
#85=VECTOR('',#84,71.68366);
#86=LINE('',#54,#85);
#87=EDGE_CURVE('',#55,#83,#86,.T.);
#88=ORIENTED_EDGE('',*,*,#87,.T.);
#89=CARTESIAN_POINT('',(121.312,0.,259.5));
#90=VERTEX_POINT('',#89);
#91=DIRECTION('',(0.,0.,1.));
#92=VECTOR('',#91,589.5);
#93=LINE('',#82,#92);
#94=EDGE_CURVE('',#83,#90,#93,.T.);
#95=ORIENTED_EDGE('',*,*,#94,.T.);
#96=DIRECTION('',(-0.70711,0.70711,0.));
#97=VECTOR('',#96,71.68366);
#98=LINE('',#61,#97);
#99=EDGE_CURVE('',#62,#90,#98,.T.);
#100=ORIENTED_EDGE('',*,*,#99,.F.);
#101=ORIENTED_EDGE('',*,*,#66,.F.);
#102=EDGE_LOOP('',(#88,#95,#100,#101));
#103=FACE_OUTER_BOUND('',#102,.T.);
#104=CARTESIAN_POINT('',(172.,-50.688,-330.));
#105=DIRECTION('',(0.70711,0.70711,0.));
#106=DIRECTION('',(-0.70711,0.70711,0.));
#107=AXIS2_PLACEMENT_3D('',#104,#105,#106);
#108=PLANE('',#107);
#109=ADVANCED_FACE('',(#103),#108,.T.);
#110=CARTESIAN_POINT('',(172.,50.688,-330.));
#111=VERTEX_POINT('',#110);
#112=DIRECTION('',(0.70711,0.70711,0.));
#113=VECTOR('',#112,71.68366);
#114=LINE('',#82,#113);
#115=EDGE_CURVE('',#83,#111,#114,.T.);
#116=ORIENTED_EDGE('',*,*,#115,.T.);
#117=CARTESIAN_POINT('',(172.,50.688,259.5));
#118=VERTEX_POINT('',#117);
#119=DIRECTION('',(0.,0.,1.));
#120=VECTOR('',#119,589.5);
#121=LINE('',#110,#120);
#122=EDGE_CURVE('',#111,#118,#121,.T.);
#123=ORIENTED_EDGE('',*,*,#122,.T.);
#124=DIRECTION('',(0.70711,0.70711,0.));
#125=VECTOR('',#124,71.68366);
#126=LINE('',#89,#125);
#127=EDGE_CURVE('',#90,#118,#126,.T.);
#128=ORIENTED_EDGE('',*,*,#127,.F.);
#129=ORIENTED_EDGE('',*,*,#94,.F.);
#130=EDGE_LOOP('',(#116,#123,#128,#129));
#131=FACE_OUTER_BOUND('',#130,.T.);
#132=CARTESIAN_POINT('',(121.312,0.,-330.));
#133=DIRECTION('',(0.70711,-0.70711,0.));
#134=DIRECTION('',(0.70711,0.70711,0.));
#135=AXIS2_PLACEMENT_3D('',#132,#133,#134);
#136=PLANE('',#135);
#137=ADVANCED_FACE('',(#131),#136,.T.);
#138=CARTESIAN_POINT('',(172.,62.,-330.));
#139=VERTEX_POINT('',#138);
#140=DIRECTION('',(0.,1.,0.));
#141=VECTOR('',#140,11.312);
#142=LINE('',#110,#141);
#143=EDGE_CURVE('',#111,#139,#142,.T.);
#144=ORIENTED_EDGE('',*,*,#143,.T.);
#145=CARTESIAN_POINT('',(172.,62.,259.5));
#146=VERTEX_POINT('',#145);
#147=DIRECTION('',(0.,0.,1.));
#148=VECTOR('',#147,589.5);
#149=LINE('',#138,#148);
#150=EDGE_CURVE('',#139,#146,#149,.T.);
#151=ORIENTED_EDGE('',*,*,#150,.T.);
#152=DIRECTION('',(0.,1.,0.));
#153=VECTOR('',#152,11.312);
#154=LINE('',#117,#153);
#155=EDGE_CURVE('',#118,#146,#154,.T.);
#156=ORIENTED_EDGE('',*,*,#155,.F.);
#157=ORIENTED_EDGE('',*,*,#122,.F.);
#158=EDGE_LOOP('',(#144,#151,#156,#157));
#159=FACE_OUTER_BOUND('',#158,.T.);
#160=CARTESIAN_POINT('',(172.,50.688,-330.));
#161=DIRECTION('',(1.,0.,0.));
#162=DIRECTION('',(0.,1.,0.));
#163=AXIS2_PLACEMENT_3D('',#160,#161,#162);
#164=PLANE('',#163);
#165=ADVANCED_FACE('',(#159),#164,.T.);
#166=DIRECTION('',(0.70711,0.70711,0.));
#167=VECTOR('',#166,87.68124);
#168=LINE('',#18,#167);
#169=EDGE_CURVE('',#19,#139,#168,.T.);
#170=ORIENTED_EDGE('',*,*,#169,.F.);
#171=ORIENTED_EDGE('',*,*,#44,.T.);
#172=DIRECTION('',(0.70711,0.70711,0.));
#173=VECTOR('',#172,87.68124);
#174=LINE('',#34,#173);
#175=EDGE_CURVE('',#35,#146,#174,.T.);
#176=ORIENTED_EDGE('',*,*,#175,.T.);
#177=ORIENTED_EDGE('',*,*,#150,.F.);
#178=EDGE_LOOP('',(#170,#171,#176,#177));
#179=FACE_OUTER_BOUND('',#178,.T.);
#180=CARTESIAN_POINT('',(172.,62.,-330.));
#181=DIRECTION('',(-0.70711,0.70711,0.));
#182=DIRECTION('',(-0.70711,-0.70711,0.));
#183=AXIS2_PLACEMENT_3D('',#180,#181,#182);
#184=PLANE('',#183);
#185=ADVANCED_FACE('',(#179),#184,.T.);
#186=ORIENTED_EDGE('',*,*,#143,.F.);
#187=ORIENTED_EDGE('',*,*,#115,.F.);
#188=ORIENTED_EDGE('',*,*,#87,.F.);
#189=ORIENTED_EDGE('',*,*,#59,.F.);
#190=ORIENTED_EDGE('',*,*,#25,.F.);
#191=ORIENTED_EDGE('',*,*,#169,.T.);
#192=EDGE_LOOP('',(#186,#187,#188,#189,#190,#191));
#193=FACE_OUTER_BOUND('',#192,.T.);
#194=CARTESIAN_POINT('',(172.,62.,-330.));
#195=DIRECTION('',(0.,0.,-1.));
#196=DIRECTION('',(0.,-1.,0.));
#197=AXIS2_PLACEMENT_3D('',#194,#195,#196);
#198=PLANE('',#197);
#199=ADVANCED_FACE('',(#193),#198,.T.);
#200=ORIENTED_EDGE('',*,*,#39,.T.);
#201=ORIENTED_EDGE('',*,*,#71,.T.);
#202=ORIENTED_EDGE('',*,*,#99,.T.);
#203=ORIENTED_EDGE('',*,*,#127,.T.);
#204=ORIENTED_EDGE('',*,*,#155,.T.);
#205=ORIENTED_EDGE('',*,*,#175,.F.);
#206=EDGE_LOOP('',(#200,#201,#202,#203,#204,#205));
#207=FACE_OUTER_BOUND('',#206,.T.);
#208=CARTESIAN_POINT('',(110.,0.,259.5));
#209=DIRECTION('',(0.,0.,1.));
#210=DIRECTION('',(0.70711,-0.70711,0.));
#211=AXIS2_PLACEMENT_3D('',#208,#209,#210);
#212=PLANE('',#211);
#213=ADVANCED_FACE('',(#207),#212,.T.);
#214=CLOSED_SHELL('',(#53,#81,#109,#137,#165,#185,#199,#213));
#215=MANIFOLD_SOLID_BREP('',#214);
#216=COLOUR_RGB('',0.13,0.14,0.16);
#217=FILL_AREA_STYLE_COLOUR('',#216);
#218=FILL_AREA_STYLE('',(#217));
#219=SURFACE_STYLE_FILL_AREA(#218);
#220=SURFACE_SIDE_STYLE('',(#219));
#221=SURFACE_STYLE_USAGE(.BOTH.,#220);
#222=PRESENTATION_STYLE_ASSIGNMENT((#221));
#223=STYLED_ITEM('color',(#222),#215);
#224=ADVANCED_BREP_SHAPE_REPRESENTATION('',(#17,#215),#9);
#225=SHAPE_DEFINITION_REPRESENTATION(#13,#224);
#226=MECHANICAL_DESIGN_GEOMETRIC_PRESENTATION_REPRESENTATION('',(#223),#9);
#227=PRODUCT_RELATED_PRODUCT_CATEGORY('part',$,(#10));
ENDSEC;
END-ISO-10303-21;
