ISO-10303-21;
HEADER;
FILE_DESCRIPTION(('AquaSentinel R3 - planar B-rep export'),'2;1');
FILE_NAME('Optical wiper arm + brush pads','2026-10-04T21:49:43',('AquaSentinel team'),('Sanjivani University'),'AquaSentinel R3 python build','AquaSentinel R3','');
FILE_SCHEMA(('AUTOMOTIVE_DESIGN { 1 0 10303 214 1 1 1 1 }'));
ENDSEC;
DATA;
#1=APPLICATION_CONTEXT('core data for automotive mechanical design processes');
#2=APPLICATION_PROTOCOL_DEFINITION('international standard','automotive_design',2000,#1);
#3=PRODUCT_CONTEXT('',#1,'mechanical');
#4=PRODUCT_DEFINITION_CONTEXT('part definition',#1,'design');
#5=(LENGTH_UNIT()NAMED_UNIT(*)SI_UNIT(.MILLI.,.METRE.));
#6=(NAMED_UNIT(*)PLANE_ANGLE_UNIT()SI_UNIT($,.RADIAN.));
#7=(NAMED_UNIT(*)SI_UNIT($,.STERADIAN.)SOLID_ANGLE_UNIT());
#8=UNCERTAINTY_MEASURE_WITH_UNIT(LENGTH_MEASURE(1.E-04),#5,'distance_accuracy_value','confusion accuracy');
#9=(GEOMETRIC_REPRESENTATION_CONTEXT(3)GLOBAL_UNCERTAINTY_ASSIGNED_CONTEXT((#8))GLOBAL_UNIT_ASSIGNED_CONTEXT((#5,#6,#7))REPRESENTATION_CONTEXT('Context','3D Context with UNIT and UNCERTAINTY'));
#10=PRODUCT('AS3-415','Optical wiper arm + brush pads','Sweeps all four probe windows; parks between probes',(#3));
#11=PRODUCT_DEFINITION_FORMATION('','',#10);
#12=PRODUCT_DEFINITION('design','',#11,#4);
#13=PRODUCT_DEFINITION_SHAPE('','',#12);
#14=CARTESIAN_POINT('',(0.,0.,0.));
#15=DIRECTION('',(0.,0.,1.));
#16=DIRECTION('',(1.,0.,0.));
#17=AXIS2_PLACEMENT_3D('',#14,#15,#16);
#18=CARTESIAN_POINT('',(178.,-7.,-356.));
#19=VERTEX_POINT('',#18);
#20=CARTESIAN_POINT('',(178.,7.,-356.));
#21=VERTEX_POINT('',#20);
#22=DIRECTION('',(0.,1.,0.));
#23=VECTOR('',#22,14.);
#24=LINE('',#18,#23);
#25=EDGE_CURVE('',#19,#21,#24,.T.);
#26=ORIENTED_EDGE('',*,*,#25,.T.);
#27=CARTESIAN_POINT('',(302.,7.,-356.));
#28=VERTEX_POINT('',#27);
#29=DIRECTION('',(-1.,0.,0.));
#30=VECTOR('',#29,124.);
#31=LINE('',#27,#30);
#32=EDGE_CURVE('',#28,#21,#31,.T.);
#33=ORIENTED_EDGE('',*,*,#32,.F.);
#34=CARTESIAN_POINT('',(302.,-7.,-356.));
#35=VERTEX_POINT('',#34);
#36=DIRECTION('',(0.,1.,0.));
#37=VECTOR('',#36,14.);
#38=LINE('',#34,#37);
#39=EDGE_CURVE('',#35,#28,#38,.T.);
#40=ORIENTED_EDGE('',*,*,#39,.F.);
#41=DIRECTION('',(1.,0.,0.));
#42=VECTOR('',#41,124.);
#43=LINE('',#18,#42);
#44=EDGE_CURVE('',#19,#35,#43,.T.);
#45=ORIENTED_EDGE('',*,*,#44,.F.);
#46=EDGE_LOOP('',(#26,#33,#40,#45));
#47=FACE_OUTER_BOUND('',#46,.T.);
#48=CARTESIAN_POINT('',(178.,-7.,-356.));
#49=DIRECTION('',(0.,0.,-1.));
#50=DIRECTION('',(0.,1.,0.));
#51=AXIS2_PLACEMENT_3D('',#48,#49,#50);
#52=PLANE('',#51);
#53=ADVANCED_FACE('',(#47),#52,.T.);
#54=CARTESIAN_POINT('',(178.,-7.,-351.));
#55=VERTEX_POINT('',#54);
#56=CARTESIAN_POINT('',(302.,-7.,-351.));
#57=VERTEX_POINT('',#56);
#58=DIRECTION('',(1.,0.,0.));
#59=VECTOR('',#58,124.);
#60=LINE('',#54,#59);
#61=EDGE_CURVE('',#55,#57,#60,.T.);
#62=ORIENTED_EDGE('',*,*,#61,.T.);
#63=CARTESIAN_POINT('',(302.,7.,-351.));
#64=VERTEX_POINT('',#63);
#65=DIRECTION('',(0.,1.,0.));
#66=VECTOR('',#65,14.);
#67=LINE('',#56,#66);
#68=EDGE_CURVE('',#57,#64,#67,.T.);
#69=ORIENTED_EDGE('',*,*,#68,.T.);
#70=CARTESIAN_POINT('',(178.,7.,-351.));
#71=VERTEX_POINT('',#70);
#72=DIRECTION('',(-1.,0.,0.));
#73=VECTOR('',#72,124.);
#74=LINE('',#63,#73);
#75=EDGE_CURVE('',#64,#71,#74,.T.);
#76=ORIENTED_EDGE('',*,*,#75,.T.);
#77=DIRECTION('',(0.,1.,0.));
#78=VECTOR('',#77,14.);
#79=LINE('',#54,#78);
#80=EDGE_CURVE('',#55,#71,#79,.T.);
#81=ORIENTED_EDGE('',*,*,#80,.F.);
#82=EDGE_LOOP('',(#62,#69,#76,#81));
#83=FACE_OUTER_BOUND('',#82,.T.);
#84=CARTESIAN_POINT('',(178.,-7.,-351.));
#85=DIRECTION('',(0.,0.,1.));
#86=DIRECTION('',(1.,0.,0.));
#87=AXIS2_PLACEMENT_3D('',#84,#85,#86);
#88=PLANE('',#87);
#89=ADVANCED_FACE('',(#83),#88,.T.);
#90=ORIENTED_EDGE('',*,*,#44,.T.);
#91=DIRECTION('',(0.,0.,1.));
#92=VECTOR('',#91,5.);
#93=LINE('',#34,#92);
#94=EDGE_CURVE('',#35,#57,#93,.T.);
#95=ORIENTED_EDGE('',*,*,#94,.T.);
#96=ORIENTED_EDGE('',*,*,#61,.F.);
#97=DIRECTION('',(0.,0.,1.));
#98=VECTOR('',#97,5.);
#99=LINE('',#18,#98);
#100=EDGE_CURVE('',#19,#55,#99,.T.);
#101=ORIENTED_EDGE('',*,*,#100,.F.);
#102=EDGE_LOOP('',(#90,#95,#96,#101));
#103=FACE_OUTER_BOUND('',#102,.T.);
#104=CARTESIAN_POINT('',(178.,-7.,-356.));
#105=DIRECTION('',(0.,-1.,0.));
#106=DIRECTION('',(1.,0.,0.));
#107=AXIS2_PLACEMENT_3D('',#104,#105,#106);
#108=PLANE('',#107);
#109=ADVANCED_FACE('',(#103),#108,.T.);
#110=ORIENTED_EDGE('',*,*,#39,.T.);
#111=DIRECTION('',(0.,0.,1.));
#112=VECTOR('',#111,5.);
#113=LINE('',#27,#112);
#114=EDGE_CURVE('',#28,#64,#113,.T.);
#115=ORIENTED_EDGE('',*,*,#114,.T.);
#116=ORIENTED_EDGE('',*,*,#68,.F.);
#117=ORIENTED_EDGE('',*,*,#94,.F.);
#118=EDGE_LOOP('',(#110,#115,#116,#117));
#119=FACE_OUTER_BOUND('',#118,.T.);
#120=CARTESIAN_POINT('',(302.,-7.,-356.));
#121=DIRECTION('',(1.,0.,0.));
#122=DIRECTION('',(0.,1.,0.));
#123=AXIS2_PLACEMENT_3D('',#120,#121,#122);
#124=PLANE('',#123);
#125=ADVANCED_FACE('',(#119),#124,.T.);
#126=ORIENTED_EDGE('',*,*,#32,.T.);
#127=DIRECTION('',(0.,0.,1.));
#128=VECTOR('',#127,5.);
#129=LINE('',#20,#128);
#130=EDGE_CURVE('',#21,#71,#129,.T.);
#131=ORIENTED_EDGE('',*,*,#130,.T.);
#132=ORIENTED_EDGE('',*,*,#75,.F.);
#133=ORIENTED_EDGE('',*,*,#114,.F.);
#134=EDGE_LOOP('',(#126,#131,#132,#133));
#135=FACE_OUTER_BOUND('',#134,.T.);
#136=CARTESIAN_POINT('',(302.,7.,-356.));
#137=DIRECTION('',(0.,1.,0.));
#138=DIRECTION('',(-1.,0.,0.));
#139=AXIS2_PLACEMENT_3D('',#136,#137,#138);
#140=PLANE('',#139);
#141=ADVANCED_FACE('',(#135),#140,.T.);
#142=ORIENTED_EDGE('',*,*,#25,.F.);
#143=ORIENTED_EDGE('',*,*,#100,.T.);
#144=ORIENTED_EDGE('',*,*,#80,.T.);
#145=ORIENTED_EDGE('',*,*,#130,.F.);
#146=EDGE_LOOP('',(#142,#143,#144,#145));
#147=FACE_OUTER_BOUND('',#146,.T.);
#148=CARTESIAN_POINT('',(178.,7.,-356.));
#149=DIRECTION('',(-1.,0.,0.));
#150=DIRECTION('',(0.,-1.,0.));
#151=AXIS2_PLACEMENT_3D('',#148,#149,#150);
#152=PLANE('',#151);
#153=ADVANCED_FACE('',(#147),#152,.T.);
#154=CLOSED_SHELL('',(#53,#89,#109,#125,#141,#153));
#155=MANIFOLD_SOLID_BREP('',#154);
#156=COLOUR_RGB('',0.68,0.69,0.7);
#157=FILL_AREA_STYLE_COLOUR('',#156);
#158=FILL_AREA_STYLE('',(#157));
#159=SURFACE_STYLE_FILL_AREA(#158);
#160=SURFACE_SIDE_STYLE('',(#159));
#161=SURFACE_STYLE_USAGE(.BOTH.,#160);
#162=PRESENTATION_STYLE_ASSIGNMENT((#161));
#163=STYLED_ITEM('color',(#162),#155);
#164=CARTESIAN_POINT('',(274.,-8.,-351.));
#165=VERTEX_POINT('',#164);
#166=CARTESIAN_POINT('',(274.,8.,-351.));
#167=VERTEX_POINT('',#166);
#168=DIRECTION('',(0.,1.,0.));
#169=VECTOR('',#168,16.);
#170=LINE('',#164,#169);
#171=EDGE_CURVE('',#165,#167,#170,.T.);
#172=ORIENTED_EDGE('',*,*,#171,.T.);
#173=CARTESIAN_POINT('',(296.,8.,-351.));
#174=VERTEX_POINT('',#173);
#175=DIRECTION('',(-1.,0.,0.));
#176=VECTOR('',#175,22.);
#177=LINE('',#173,#176);
#178=EDGE_CURVE('',#174,#167,#177,.T.);
#179=ORIENTED_EDGE('',*,*,#178,.F.);
#180=CARTESIAN_POINT('',(296.,-8.,-351.));
#181=VERTEX_POINT('',#180);
#182=DIRECTION('',(0.,1.,0.));
#183=VECTOR('',#182,16.);
#184=LINE('',#180,#183);
#185=EDGE_CURVE('',#181,#174,#184,.T.);
#186=ORIENTED_EDGE('',*,*,#185,.F.);
#187=DIRECTION('',(1.,0.,0.));
#188=VECTOR('',#187,22.);
#189=LINE('',#164,#188);
#190=EDGE_CURVE('',#165,#181,#189,.T.);
#191=ORIENTED_EDGE('',*,*,#190,.F.);
#192=EDGE_LOOP('',(#172,#179,#186,#191));
#193=FACE_OUTER_BOUND('',#192,.T.);
#194=CARTESIAN_POINT('',(274.,-8.,-351.));
#195=DIRECTION('',(0.,0.,-1.));
#196=DIRECTION('',(0.,1.,0.));
#197=AXIS2_PLACEMENT_3D('',#194,#195,#196);
#198=PLANE('',#197);
#199=ADVANCED_FACE('',(#193),#198,.T.);
#200=CARTESIAN_POINT('',(274.,-8.,-341.5));
#201=VERTEX_POINT('',#200);
#202=CARTESIAN_POINT('',(296.,-8.,-341.5));
#203=VERTEX_POINT('',#202);
#204=DIRECTION('',(1.,0.,0.));
#205=VECTOR('',#204,22.);
#206=LINE('',#200,#205);
#207=EDGE_CURVE('',#201,#203,#206,.T.);
#208=ORIENTED_EDGE('',*,*,#207,.T.);
#209=CARTESIAN_POINT('',(296.,8.,-341.5));
#210=VERTEX_POINT('',#209);
#211=DIRECTION('',(0.,1.,0.));
#212=VECTOR('',#211,16.);
#213=LINE('',#202,#212);
#214=EDGE_CURVE('',#203,#210,#213,.T.);
#215=ORIENTED_EDGE('',*,*,#214,.T.);
#216=CARTESIAN_POINT('',(274.,8.,-341.5));
#217=VERTEX_POINT('',#216);
#218=DIRECTION('',(-1.,0.,0.));
#219=VECTOR('',#218,22.);
#220=LINE('',#209,#219);
#221=EDGE_CURVE('',#210,#217,#220,.T.);
#222=ORIENTED_EDGE('',*,*,#221,.T.);
#223=DIRECTION('',(0.,1.,0.));
#224=VECTOR('',#223,16.);
#225=LINE('',#200,#224);
#226=EDGE_CURVE('',#201,#217,#225,.T.);
#227=ORIENTED_EDGE('',*,*,#226,.F.);
#228=EDGE_LOOP('',(#208,#215,#222,#227));
#229=FACE_OUTER_BOUND('',#228,.T.);
#230=CARTESIAN_POINT('',(274.,-8.,-341.5));
#231=DIRECTION('',(0.,0.,1.));
#232=DIRECTION('',(1.,0.,0.));
#233=AXIS2_PLACEMENT_3D('',#230,#231,#232);
#234=PLANE('',#233);
#235=ADVANCED_FACE('',(#229),#234,.T.);
#236=ORIENTED_EDGE('',*,*,#190,.T.);
#237=DIRECTION('',(0.,0.,1.));
#238=VECTOR('',#237,9.5);
#239=LINE('',#180,#238);
#240=EDGE_CURVE('',#181,#203,#239,.T.);
#241=ORIENTED_EDGE('',*,*,#240,.T.);
#242=ORIENTED_EDGE('',*,*,#207,.F.);
#243=DIRECTION('',(0.,0.,1.));
#244=VECTOR('',#243,9.5);
#245=LINE('',#164,#244);
#246=EDGE_CURVE('',#165,#201,#245,.T.);
#247=ORIENTED_EDGE('',*,*,#246,.F.);
#248=EDGE_LOOP('',(#236,#241,#242,#247));
#249=FACE_OUTER_BOUND('',#248,.T.);
#250=CARTESIAN_POINT('',(274.,-8.,-351.));
#251=DIRECTION('',(0.,-1.,0.));
#252=DIRECTION('',(1.,0.,0.));
#253=AXIS2_PLACEMENT_3D('',#250,#251,#252);
#254=PLANE('',#253);
#255=ADVANCED_FACE('',(#249),#254,.T.);
#256=ORIENTED_EDGE('',*,*,#185,.T.);
#257=DIRECTION('',(0.,0.,1.));
#258=VECTOR('',#257,9.5);
#259=LINE('',#173,#258);
#260=EDGE_CURVE('',#174,#210,#259,.T.);
#261=ORIENTED_EDGE('',*,*,#260,.T.);
#262=ORIENTED_EDGE('',*,*,#214,.F.);
#263=ORIENTED_EDGE('',*,*,#240,.F.);
#264=EDGE_LOOP('',(#256,#261,#262,#263));
#265=FACE_OUTER_BOUND('',#264,.T.);
#266=CARTESIAN_POINT('',(296.,-8.,-351.));
#267=DIRECTION('',(1.,0.,0.));
#268=DIRECTION('',(0.,1.,0.));
#269=AXIS2_PLACEMENT_3D('',#266,#267,#268);
#270=PLANE('',#269);
#271=ADVANCED_FACE('',(#265),#270,.T.);
#272=ORIENTED_EDGE('',*,*,#178,.T.);
#273=DIRECTION('',(0.,0.,1.));
#274=VECTOR('',#273,9.5);
#275=LINE('',#166,#274);
#276=EDGE_CURVE('',#167,#217,#275,.T.);
#277=ORIENTED_EDGE('',*,*,#276,.T.);
#278=ORIENTED_EDGE('',*,*,#221,.F.);
#279=ORIENTED_EDGE('',*,*,#260,.F.);
#280=EDGE_LOOP('',(#272,#277,#278,#279));
#281=FACE_OUTER_BOUND('',#280,.T.);
#282=CARTESIAN_POINT('',(296.,8.,-351.));
#283=DIRECTION('',(0.,1.,0.));
#284=DIRECTION('',(-1.,0.,0.));
#285=AXIS2_PLACEMENT_3D('',#282,#283,#284);
#286=PLANE('',#285);
#287=ADVANCED_FACE('',(#281),#286,.T.);
#288=ORIENTED_EDGE('',*,*,#171,.F.);
#289=ORIENTED_EDGE('',*,*,#246,.T.);
#290=ORIENTED_EDGE('',*,*,#226,.T.);
#291=ORIENTED_EDGE('',*,*,#276,.F.);
#292=EDGE_LOOP('',(#288,#289,#290,#291));
#293=FACE_OUTER_BOUND('',#292,.T.);
#294=CARTESIAN_POINT('',(274.,8.,-351.));
#295=DIRECTION('',(-1.,0.,0.));
#296=DIRECTION('',(0.,-1.,0.));
#297=AXIS2_PLACEMENT_3D('',#294,#295,#296);
#298=PLANE('',#297);
#299=ADVANCED_FACE('',(#293),#298,.T.);
#300=CLOSED_SHELL('',(#199,#235,#255,#271,#287,#299));
#301=MANIFOLD_SOLID_BREP('',#300);
#302=STYLED_ITEM('color',(#162),#301);
#303=CARTESIAN_POINT('',(184.,-8.,-351.));
#304=VERTEX_POINT('',#303);
#305=CARTESIAN_POINT('',(184.,8.,-351.));
#306=VERTEX_POINT('',#305);
#307=DIRECTION('',(0.,1.,0.));
#308=VECTOR('',#307,16.);
#309=LINE('',#303,#308);
#310=EDGE_CURVE('',#304,#306,#309,.T.);
#311=ORIENTED_EDGE('',*,*,#310,.T.);
#312=CARTESIAN_POINT('',(206.,8.,-351.));
#313=VERTEX_POINT('',#312);
#314=DIRECTION('',(-1.,0.,0.));
#315=VECTOR('',#314,22.);
#316=LINE('',#312,#315);
#317=EDGE_CURVE('',#313,#306,#316,.T.);
#318=ORIENTED_EDGE('',*,*,#317,.F.);
#319=CARTESIAN_POINT('',(206.,-8.,-351.));
#320=VERTEX_POINT('',#319);
#321=DIRECTION('',(0.,1.,0.));
#322=VECTOR('',#321,16.);
#323=LINE('',#319,#322);
#324=EDGE_CURVE('',#320,#313,#323,.T.);
#325=ORIENTED_EDGE('',*,*,#324,.F.);
#326=DIRECTION('',(1.,0.,0.));
#327=VECTOR('',#326,22.);
#328=LINE('',#303,#327);
#329=EDGE_CURVE('',#304,#320,#328,.T.);
#330=ORIENTED_EDGE('',*,*,#329,.F.);
#331=EDGE_LOOP('',(#311,#318,#325,#330));
#332=FACE_OUTER_BOUND('',#331,.T.);
#333=CARTESIAN_POINT('',(184.,-8.,-351.));
#334=DIRECTION('',(0.,0.,-1.));
#335=DIRECTION('',(0.,1.,0.));
#336=AXIS2_PLACEMENT_3D('',#333,#334,#335);
#337=PLANE('',#336);
#338=ADVANCED_FACE('',(#332),#337,.T.);
#339=CARTESIAN_POINT('',(184.,-8.,-341.5));
#340=VERTEX_POINT('',#339);
#341=CARTESIAN_POINT('',(206.,-8.,-341.5));
#342=VERTEX_POINT('',#341);
#343=DIRECTION('',(1.,0.,0.));
#344=VECTOR('',#343,22.);
#345=LINE('',#339,#344);
#346=EDGE_CURVE('',#340,#342,#345,.T.);
#347=ORIENTED_EDGE('',*,*,#346,.T.);
#348=CARTESIAN_POINT('',(206.,8.,-341.5));
#349=VERTEX_POINT('',#348);
#350=DIRECTION('',(0.,1.,0.));
#351=VECTOR('',#350,16.);
#352=LINE('',#341,#351);
#353=EDGE_CURVE('',#342,#349,#352,.T.);
#354=ORIENTED_EDGE('',*,*,#353,.T.);
#355=CARTESIAN_POINT('',(184.,8.,-341.5));
#356=VERTEX_POINT('',#355);
#357=DIRECTION('',(-1.,0.,0.));
#358=VECTOR('',#357,22.);
#359=LINE('',#348,#358);
#360=EDGE_CURVE('',#349,#356,#359,.T.);
#361=ORIENTED_EDGE('',*,*,#360,.T.);
#362=DIRECTION('',(0.,1.,0.));
#363=VECTOR('',#362,16.);
#364=LINE('',#339,#363);
#365=EDGE_CURVE('',#340,#356,#364,.T.);
#366=ORIENTED_EDGE('',*,*,#365,.F.);
#367=EDGE_LOOP('',(#347,#354,#361,#366));
#368=FACE_OUTER_BOUND('',#367,.T.);
#369=CARTESIAN_POINT('',(184.,-8.,-341.5));
#370=DIRECTION('',(0.,0.,1.));
#371=DIRECTION('',(1.,0.,0.));
#372=AXIS2_PLACEMENT_3D('',#369,#370,#371);
#373=PLANE('',#372);
#374=ADVANCED_FACE('',(#368),#373,.T.);
#375=ORIENTED_EDGE('',*,*,#329,.T.);
#376=DIRECTION('',(0.,0.,1.));
#377=VECTOR('',#376,9.5);
#378=LINE('',#319,#377);
#379=EDGE_CURVE('',#320,#342,#378,.T.);
#380=ORIENTED_EDGE('',*,*,#379,.T.);
#381=ORIENTED_EDGE('',*,*,#346,.F.);
#382=DIRECTION('',(0.,0.,1.));
#383=VECTOR('',#382,9.5);
#384=LINE('',#303,#383);
#385=EDGE_CURVE('',#304,#340,#384,.T.);
#386=ORIENTED_EDGE('',*,*,#385,.F.);
#387=EDGE_LOOP('',(#375,#380,#381,#386));
#388=FACE_OUTER_BOUND('',#387,.T.);
#389=CARTESIAN_POINT('',(184.,-8.,-351.));
#390=DIRECTION('',(0.,-1.,0.));
#391=DIRECTION('',(1.,0.,0.));
#392=AXIS2_PLACEMENT_3D('',#389,#390,#391);
#393=PLANE('',#392);
#394=ADVANCED_FACE('',(#388),#393,.T.);
#395=ORIENTED_EDGE('',*,*,#324,.T.);
#396=DIRECTION('',(0.,0.,1.));
#397=VECTOR('',#396,9.5);
#398=LINE('',#312,#397);
#399=EDGE_CURVE('',#313,#349,#398,.T.);
#400=ORIENTED_EDGE('',*,*,#399,.T.);
#401=ORIENTED_EDGE('',*,*,#353,.F.);
#402=ORIENTED_EDGE('',*,*,#379,.F.);
#403=EDGE_LOOP('',(#395,#400,#401,#402));
#404=FACE_OUTER_BOUND('',#403,.T.);
#405=CARTESIAN_POINT('',(206.,-8.,-351.));
#406=DIRECTION('',(1.,0.,0.));
#407=DIRECTION('',(0.,1.,0.));
#408=AXIS2_PLACEMENT_3D('',#405,#406,#407);
#409=PLANE('',#408);
#410=ADVANCED_FACE('',(#404),#409,.T.);
#411=ORIENTED_EDGE('',*,*,#317,.T.);
#412=DIRECTION('',(0.,0.,1.));
#413=VECTOR('',#412,9.5);
#414=LINE('',#305,#413);
#415=EDGE_CURVE('',#306,#356,#414,.T.);
#416=ORIENTED_EDGE('',*,*,#415,.T.);
#417=ORIENTED_EDGE('',*,*,#360,.F.);
#418=ORIENTED_EDGE('',*,*,#399,.F.);
#419=EDGE_LOOP('',(#411,#416,#417,#418));
#420=FACE_OUTER_BOUND('',#419,.T.);
#421=CARTESIAN_POINT('',(206.,8.,-351.));
#422=DIRECTION('',(0.,1.,0.));
#423=DIRECTION('',(-1.,0.,0.));
#424=AXIS2_PLACEMENT_3D('',#421,#422,#423);
#425=PLANE('',#424);
#426=ADVANCED_FACE('',(#420),#425,.T.);
#427=ORIENTED_EDGE('',*,*,#310,.F.);
#428=ORIENTED_EDGE('',*,*,#385,.T.);
#429=ORIENTED_EDGE('',*,*,#365,.T.);
#430=ORIENTED_EDGE('',*,*,#415,.F.);
#431=EDGE_LOOP('',(#427,#428,#429,#430));
#432=FACE_OUTER_BOUND('',#431,.T.);
#433=CARTESIAN_POINT('',(184.,8.,-351.));
#434=DIRECTION('',(-1.,0.,0.));
#435=DIRECTION('',(0.,-1.,0.));
#436=AXIS2_PLACEMENT_3D('',#433,#434,#435);
#437=PLANE('',#436);
#438=ADVANCED_FACE('',(#432),#437,.T.);
#439=CLOSED_SHELL('',(#338,#374,#394,#410,#426,#438));
#440=MANIFOLD_SOLID_BREP('',#439);
#441=STYLED_ITEM('color',(#162),#440);
#442=ADVANCED_BREP_SHAPE_REPRESENTATION('',(#17,#155,#301,#440),#9);
#443=SHAPE_DEFINITION_REPRESENTATION(#13,#442);
#444=MECHANICAL_DESIGN_GEOMETRIC_PRESENTATION_REPRESENTATION('',(#163,#302,#441),#9);
#445=PRODUCT_RELATED_PRODUCT_CATEGORY('part',$,(#10));
ENDSEC;
END-ISO-10303-21;
