ISO-10303-21;
HEADER;
FILE_DESCRIPTION(('AquaSentinel R3 - planar B-rep export'),'2;1');
FILE_NAME('LTE antenna (whip, N-type)','2026-10-04T21:49:43',('AquaSentinel team'),('Sanjivani University'),'AquaSentinel R3 python build','AquaSentinel R3','');
FILE_SCHEMA(('AUTOMOTIVE_DESIGN { 1 0 10303 214 1 1 1 1 }'));
ENDSEC;
DATA;
#1=APPLICATION_CONTEXT('core data for automotive mechanical design processes');
#2=APPLICATION_PROTOCOL_DEFINITION('international standard','automotive_design',2000,#1);
#3=PRODUCT_CONTEXT('',#1,'mechanical');
#4=PRODUCT_DEFINITION_CONTEXT('part definition',#1,'design');
#5=(LENGTH_UNIT()NAMED_UNIT(*)SI_UNIT(.MILLI.,.METRE.));
#6=(NAMED_UNIT(*)PLANE_ANGLE_UNIT()SI_UNIT($,.RADIAN.));
#7=(NAMED_UNIT(*)SI_UNIT($,.STERADIAN.)SOLID_ANGLE_UNIT());
#8=UNCERTAINTY_MEASURE_WITH_UNIT(LENGTH_MEASURE(1.E-04),#5,'distance_accuracy_value','confusion accuracy');
#9=(GEOMETRIC_REPRESENTATION_CONTEXT(3)GLOBAL_UNCERTAINTY_ASSIGNED_CONTEXT((#8))GLOBAL_UNIT_ASSIGNED_CONTEXT((#5,#6,#7))REPRESENTATION_CONTEXT('Context','3D Context with UNIT and UNCERTAINTY'));
#10=PRODUCT('AS3-711','LTE antenna (whip, N-type)','',(#3));
#11=PRODUCT_DEFINITION_FORMATION('','',#10);
#12=PRODUCT_DEFINITION('design','',#11,#4);
#13=PRODUCT_DEFINITION_SHAPE('','',#12);
#14=CARTESIAN_POINT('',(0.,0.,0.));
#15=DIRECTION('',(0.,0.,1.));
#16=DIRECTION('',(1.,0.,0.));
#17=AXIS2_PLACEMENT_3D('',#14,#15,#16);
#18=CARTESIAN_POINT('',(875.,-225.,300.));
#19=VERTEX_POINT('',#18);
#20=CARTESIAN_POINT('',(874.48889,-221.11771,300.));
#21=VERTEX_POINT('',#20);
#22=DIRECTION('',(-0.13053,0.99144,0.));
#23=VECTOR('',#22,3.91579);
#24=LINE('',#18,#23);
#25=EDGE_CURVE('',#19,#21,#24,.T.);
#26=ORIENTED_EDGE('',*,*,#25,.T.);
#27=CARTESIAN_POINT('',(874.48889,-221.11771,318.));
#28=VERTEX_POINT('',#27);
#29=DIRECTION('',(0.,0.,1.));
#30=VECTOR('',#29,18.);
#31=LINE('',#20,#30);
#32=EDGE_CURVE('',#21,#28,#31,.T.);
#33=ORIENTED_EDGE('',*,*,#32,.T.);
#34=CARTESIAN_POINT('',(875.,-225.,318.));
#35=VERTEX_POINT('',#34);
#36=DIRECTION('',(-0.13053,0.99144,0.));
#37=VECTOR('',#36,3.91579);
#38=LINE('',#34,#37);
#39=EDGE_CURVE('',#35,#28,#38,.T.);
#40=ORIENTED_EDGE('',*,*,#39,.F.);
#41=DIRECTION('',(0.,0.,1.));
#42=VECTOR('',#41,18.);
#43=LINE('',#18,#42);
#44=EDGE_CURVE('',#19,#35,#43,.T.);
#45=ORIENTED_EDGE('',*,*,#44,.F.);
#46=EDGE_LOOP('',(#26,#33,#40,#45));
#47=FACE_OUTER_BOUND('',#46,.T.);
#48=CARTESIAN_POINT('',(875.,-225.,300.));
#49=DIRECTION('',(0.99144,0.13053,0.));
#50=DIRECTION('',(-0.13053,0.99144,0.));
#51=AXIS2_PLACEMENT_3D('',#48,#49,#50);
#52=PLANE('',#51);
#53=ADVANCED_FACE('',(#47),#52,.T.);
#54=CARTESIAN_POINT('',(872.99038,-217.5,300.));
#55=VERTEX_POINT('',#54);
#56=DIRECTION('',(-0.38268,0.92388,0.));
#57=VECTOR('',#56,3.91579);
#58=LINE('',#20,#57);
#59=EDGE_CURVE('',#21,#55,#58,.T.);
#60=ORIENTED_EDGE('',*,*,#59,.T.);
#61=CARTESIAN_POINT('',(872.99038,-217.5,318.));
#62=VERTEX_POINT('',#61);
#63=DIRECTION('',(0.,0.,1.));
#64=VECTOR('',#63,18.);
#65=LINE('',#54,#64);
#66=EDGE_CURVE('',#55,#62,#65,.T.);
#67=ORIENTED_EDGE('',*,*,#66,.T.);
#68=DIRECTION('',(-0.38268,0.92388,0.));
#69=VECTOR('',#68,3.91579);
#70=LINE('',#27,#69);
#71=EDGE_CURVE('',#28,#62,#70,.T.);
#72=ORIENTED_EDGE('',*,*,#71,.F.);
#73=ORIENTED_EDGE('',*,*,#32,.F.);
#74=EDGE_LOOP('',(#60,#67,#72,#73));
#75=FACE_OUTER_BOUND('',#74,.T.);
#76=CARTESIAN_POINT('',(874.48889,-221.11771,300.));
#77=DIRECTION('',(0.92388,0.38268,0.));
#78=DIRECTION('',(-0.38268,0.92388,0.));
#79=AXIS2_PLACEMENT_3D('',#76,#77,#78);
#80=PLANE('',#79);
#81=ADVANCED_FACE('',(#75),#80,.T.);
#82=CARTESIAN_POINT('',(870.6066,-214.3934,300.));
#83=VERTEX_POINT('',#82);
#84=DIRECTION('',(-0.60876,0.79335,0.));
#85=VECTOR('',#84,3.91579);
#86=LINE('',#54,#85);
#87=EDGE_CURVE('',#55,#83,#86,.T.);
#88=ORIENTED_EDGE('',*,*,#87,.T.);
#89=CARTESIAN_POINT('',(870.6066,-214.3934,318.));
#90=VERTEX_POINT('',#89);
#91=DIRECTION('',(0.,0.,1.));
#92=VECTOR('',#91,18.);
#93=LINE('',#82,#92);
#94=EDGE_CURVE('',#83,#90,#93,.T.);
#95=ORIENTED_EDGE('',*,*,#94,.T.);
#96=DIRECTION('',(-0.60876,0.79335,0.));
#97=VECTOR('',#96,3.91579);
#98=LINE('',#61,#97);
#99=EDGE_CURVE('',#62,#90,#98,.T.);
#100=ORIENTED_EDGE('',*,*,#99,.F.);
#101=ORIENTED_EDGE('',*,*,#66,.F.);
#102=EDGE_LOOP('',(#88,#95,#100,#101));
#103=FACE_OUTER_BOUND('',#102,.T.);
#104=CARTESIAN_POINT('',(872.99038,-217.5,300.));
#105=DIRECTION('',(0.79335,0.60876,0.));
#106=DIRECTION('',(-0.60876,0.79335,0.));
#107=AXIS2_PLACEMENT_3D('',#104,#105,#106);
#108=PLANE('',#107);
#109=ADVANCED_FACE('',(#103),#108,.T.);
#110=CARTESIAN_POINT('',(867.5,-212.00962,300.));
#111=VERTEX_POINT('',#110);
#112=DIRECTION('',(-0.79335,0.60876,0.));
#113=VECTOR('',#112,3.91579);
#114=LINE('',#82,#113);
#115=EDGE_CURVE('',#83,#111,#114,.T.);
#116=ORIENTED_EDGE('',*,*,#115,.T.);
#117=CARTESIAN_POINT('',(867.5,-212.00962,318.));
#118=VERTEX_POINT('',#117);
#119=DIRECTION('',(0.,0.,1.));
#120=VECTOR('',#119,18.);
#121=LINE('',#110,#120);
#122=EDGE_CURVE('',#111,#118,#121,.T.);
#123=ORIENTED_EDGE('',*,*,#122,.T.);
#124=DIRECTION('',(-0.79335,0.60876,0.));
#125=VECTOR('',#124,3.91579);
#126=LINE('',#89,#125);
#127=EDGE_CURVE('',#90,#118,#126,.T.);
#128=ORIENTED_EDGE('',*,*,#127,.F.);
#129=ORIENTED_EDGE('',*,*,#94,.F.);
#130=EDGE_LOOP('',(#116,#123,#128,#129));
#131=FACE_OUTER_BOUND('',#130,.T.);
#132=CARTESIAN_POINT('',(870.6066,-214.3934,300.));
#133=DIRECTION('',(0.60876,0.79335,0.));
#134=DIRECTION('',(-0.79335,0.60876,0.));
#135=AXIS2_PLACEMENT_3D('',#132,#133,#134);
#136=PLANE('',#135);
#137=ADVANCED_FACE('',(#131),#136,.T.);
#138=CARTESIAN_POINT('',(863.88229,-210.51111,300.));
#139=VERTEX_POINT('',#138);
#140=DIRECTION('',(-0.92388,0.38268,0.));
#141=VECTOR('',#140,3.91579);
#142=LINE('',#110,#141);
#143=EDGE_CURVE('',#111,#139,#142,.T.);
#144=ORIENTED_EDGE('',*,*,#143,.T.);
#145=CARTESIAN_POINT('',(863.88229,-210.51111,318.));
#146=VERTEX_POINT('',#145);
#147=DIRECTION('',(0.,0.,1.));
#148=VECTOR('',#147,18.);
#149=LINE('',#138,#148);
#150=EDGE_CURVE('',#139,#146,#149,.T.);
#151=ORIENTED_EDGE('',*,*,#150,.T.);
#152=DIRECTION('',(-0.92388,0.38268,0.));
#153=VECTOR('',#152,3.91579);
#154=LINE('',#117,#153);
#155=EDGE_CURVE('',#118,#146,#154,.T.);
#156=ORIENTED_EDGE('',*,*,#155,.F.);
#157=ORIENTED_EDGE('',*,*,#122,.F.);
#158=EDGE_LOOP('',(#144,#151,#156,#157));
#159=FACE_OUTER_BOUND('',#158,.T.);
#160=CARTESIAN_POINT('',(867.5,-212.00962,300.));
#161=DIRECTION('',(0.38268,0.92388,0.));
#162=DIRECTION('',(-0.92388,0.38268,0.));
#163=AXIS2_PLACEMENT_3D('',#160,#161,#162);
#164=PLANE('',#163);
#165=ADVANCED_FACE('',(#159),#164,.T.);
#166=CARTESIAN_POINT('',(860.,-210.,300.));
#167=VERTEX_POINT('',#166);
#168=DIRECTION('',(-0.99144,0.13053,0.));
#169=VECTOR('',#168,3.91579);
#170=LINE('',#138,#169);
#171=EDGE_CURVE('',#139,#167,#170,.T.);
#172=ORIENTED_EDGE('',*,*,#171,.T.);
#173=CARTESIAN_POINT('',(860.,-210.,318.));
#174=VERTEX_POINT('',#173);
#175=DIRECTION('',(0.,0.,1.));
#176=VECTOR('',#175,18.);
#177=LINE('',#166,#176);
#178=EDGE_CURVE('',#167,#174,#177,.T.);
#179=ORIENTED_EDGE('',*,*,#178,.T.);
#180=DIRECTION('',(-0.99144,0.13053,0.));
#181=VECTOR('',#180,3.91579);
#182=LINE('',#145,#181);
#183=EDGE_CURVE('',#146,#174,#182,.T.);
#184=ORIENTED_EDGE('',*,*,#183,.F.);
#185=ORIENTED_EDGE('',*,*,#150,.F.);
#186=EDGE_LOOP('',(#172,#179,#184,#185));
#187=FACE_OUTER_BOUND('',#186,.T.);
#188=CARTESIAN_POINT('',(863.88229,-210.51111,300.));
#189=DIRECTION('',(0.13053,0.99144,0.));
#190=DIRECTION('',(-0.99144,0.13053,0.));
#191=AXIS2_PLACEMENT_3D('',#188,#189,#190);
#192=PLANE('',#191);
#193=ADVANCED_FACE('',(#187),#192,.T.);
#194=CARTESIAN_POINT('',(856.11771,-210.51111,300.));
#195=VERTEX_POINT('',#194);
#196=DIRECTION('',(-0.99144,-0.13053,0.));
#197=VECTOR('',#196,3.91579);
#198=LINE('',#166,#197);
#199=EDGE_CURVE('',#167,#195,#198,.T.);
#200=ORIENTED_EDGE('',*,*,#199,.T.);
#201=CARTESIAN_POINT('',(856.11771,-210.51111,318.));
#202=VERTEX_POINT('',#201);
#203=DIRECTION('',(0.,0.,1.));
#204=VECTOR('',#203,18.);
#205=LINE('',#194,#204);
#206=EDGE_CURVE('',#195,#202,#205,.T.);
#207=ORIENTED_EDGE('',*,*,#206,.T.);
#208=DIRECTION('',(-0.99144,-0.13053,0.));
#209=VECTOR('',#208,3.91579);
#210=LINE('',#173,#209);
#211=EDGE_CURVE('',#174,#202,#210,.T.);
#212=ORIENTED_EDGE('',*,*,#211,.F.);
#213=ORIENTED_EDGE('',*,*,#178,.F.);
#214=EDGE_LOOP('',(#200,#207,#212,#213));
#215=FACE_OUTER_BOUND('',#214,.T.);
#216=CARTESIAN_POINT('',(860.,-210.,300.));
#217=DIRECTION('',(-0.13053,0.99144,0.));
#218=DIRECTION('',(-0.99144,-0.13053,0.));
#219=AXIS2_PLACEMENT_3D('',#216,#217,#218);
#220=PLANE('',#219);
#221=ADVANCED_FACE('',(#215),#220,.T.);
#222=CARTESIAN_POINT('',(852.5,-212.00962,300.));
#223=VERTEX_POINT('',#222);
#224=DIRECTION('',(-0.92388,-0.38268,0.));
#225=VECTOR('',#224,3.91579);
#226=LINE('',#194,#225);
#227=EDGE_CURVE('',#195,#223,#226,.T.);
#228=ORIENTED_EDGE('',*,*,#227,.T.);
#229=CARTESIAN_POINT('',(852.5,-212.00962,318.));
#230=VERTEX_POINT('',#229);
#231=DIRECTION('',(0.,0.,1.));
#232=VECTOR('',#231,18.);
#233=LINE('',#222,#232);
#234=EDGE_CURVE('',#223,#230,#233,.T.);
#235=ORIENTED_EDGE('',*,*,#234,.T.);
#236=DIRECTION('',(-0.92388,-0.38268,0.));
#237=VECTOR('',#236,3.91579);
#238=LINE('',#201,#237);
#239=EDGE_CURVE('',#202,#230,#238,.T.);
#240=ORIENTED_EDGE('',*,*,#239,.F.);
#241=ORIENTED_EDGE('',*,*,#206,.F.);
#242=EDGE_LOOP('',(#228,#235,#240,#241));
#243=FACE_OUTER_BOUND('',#242,.T.);
#244=CARTESIAN_POINT('',(856.11771,-210.51111,300.));
#245=DIRECTION('',(-0.38268,0.92388,0.));
#246=DIRECTION('',(-0.92388,-0.38268,0.));
#247=AXIS2_PLACEMENT_3D('',#244,#245,#246);
#248=PLANE('',#247);
#249=ADVANCED_FACE('',(#243),#248,.T.);
#250=CARTESIAN_POINT('',(849.3934,-214.3934,300.));
#251=VERTEX_POINT('',#250);
#252=DIRECTION('',(-0.79335,-0.60876,0.));
#253=VECTOR('',#252,3.91579);
#254=LINE('',#222,#253);
#255=EDGE_CURVE('',#223,#251,#254,.T.);
#256=ORIENTED_EDGE('',*,*,#255,.T.);
#257=CARTESIAN_POINT('',(849.3934,-214.3934,318.));
#258=VERTEX_POINT('',#257);
#259=DIRECTION('',(0.,0.,1.));
#260=VECTOR('',#259,18.);
#261=LINE('',#250,#260);
#262=EDGE_CURVE('',#251,#258,#261,.T.);
#263=ORIENTED_EDGE('',*,*,#262,.T.);
#264=DIRECTION('',(-0.79335,-0.60876,0.));
#265=VECTOR('',#264,3.91579);
#266=LINE('',#229,#265);
#267=EDGE_CURVE('',#230,#258,#266,.T.);
#268=ORIENTED_EDGE('',*,*,#267,.F.);
#269=ORIENTED_EDGE('',*,*,#234,.F.);
#270=EDGE_LOOP('',(#256,#263,#268,#269));
#271=FACE_OUTER_BOUND('',#270,.T.);
#272=CARTESIAN_POINT('',(852.5,-212.00962,300.));
#273=DIRECTION('',(-0.60876,0.79335,0.));
#274=DIRECTION('',(-0.79335,-0.60876,0.));
#275=AXIS2_PLACEMENT_3D('',#272,#273,#274);
#276=PLANE('',#275);
#277=ADVANCED_FACE('',(#271),#276,.T.);
#278=CARTESIAN_POINT('',(847.00962,-217.5,300.));
#279=VERTEX_POINT('',#278);
#280=DIRECTION('',(-0.60876,-0.79335,0.));
#281=VECTOR('',#280,3.91579);
#282=LINE('',#250,#281);
#283=EDGE_CURVE('',#251,#279,#282,.T.);
#284=ORIENTED_EDGE('',*,*,#283,.T.);
#285=CARTESIAN_POINT('',(847.00962,-217.5,318.));
#286=VERTEX_POINT('',#285);
#287=DIRECTION('',(0.,0.,1.));
#288=VECTOR('',#287,18.);
#289=LINE('',#278,#288);
#290=EDGE_CURVE('',#279,#286,#289,.T.);
#291=ORIENTED_EDGE('',*,*,#290,.T.);
#292=DIRECTION('',(-0.60876,-0.79335,0.));
#293=VECTOR('',#292,3.91579);
#294=LINE('',#257,#293);
#295=EDGE_CURVE('',#258,#286,#294,.T.);
#296=ORIENTED_EDGE('',*,*,#295,.F.);
#297=ORIENTED_EDGE('',*,*,#262,.F.);
#298=EDGE_LOOP('',(#284,#291,#296,#297));
#299=FACE_OUTER_BOUND('',#298,.T.);
#300=CARTESIAN_POINT('',(849.3934,-214.3934,300.));
#301=DIRECTION('',(-0.79335,0.60876,0.));
#302=DIRECTION('',(-0.60876,-0.79335,0.));
#303=AXIS2_PLACEMENT_3D('',#300,#301,#302);
#304=PLANE('',#303);
#305=ADVANCED_FACE('',(#299),#304,.T.);
#306=CARTESIAN_POINT('',(845.51111,-221.11771,300.));
#307=VERTEX_POINT('',#306);
#308=DIRECTION('',(-0.38268,-0.92388,0.));
#309=VECTOR('',#308,3.91579);
#310=LINE('',#278,#309);
#311=EDGE_CURVE('',#279,#307,#310,.T.);
#312=ORIENTED_EDGE('',*,*,#311,.T.);
#313=CARTESIAN_POINT('',(845.51111,-221.11771,318.));
#314=VERTEX_POINT('',#313);
#315=DIRECTION('',(0.,0.,1.));
#316=VECTOR('',#315,18.);
#317=LINE('',#306,#316);
#318=EDGE_CURVE('',#307,#314,#317,.T.);
#319=ORIENTED_EDGE('',*,*,#318,.T.);
#320=DIRECTION('',(-0.38268,-0.92388,0.));
#321=VECTOR('',#320,3.91579);
#322=LINE('',#285,#321);
#323=EDGE_CURVE('',#286,#314,#322,.T.);
#324=ORIENTED_EDGE('',*,*,#323,.F.);
#325=ORIENTED_EDGE('',*,*,#290,.F.);
#326=EDGE_LOOP('',(#312,#319,#324,#325));
#327=FACE_OUTER_BOUND('',#326,.T.);
#328=CARTESIAN_POINT('',(847.00962,-217.5,300.));
#329=DIRECTION('',(-0.92388,0.38268,0.));
#330=DIRECTION('',(-0.38268,-0.92388,0.));
#331=AXIS2_PLACEMENT_3D('',#328,#329,#330);
#332=PLANE('',#331);
#333=ADVANCED_FACE('',(#327),#332,.T.);
#334=CARTESIAN_POINT('',(845.,-225.,300.));
#335=VERTEX_POINT('',#334);
#336=DIRECTION('',(-0.13053,-0.99144,0.));
#337=VECTOR('',#336,3.91579);
#338=LINE('',#306,#337);
#339=EDGE_CURVE('',#307,#335,#338,.T.);
#340=ORIENTED_EDGE('',*,*,#339,.T.);
#341=CARTESIAN_POINT('',(845.,-225.,318.));
#342=VERTEX_POINT('',#341);
#343=DIRECTION('',(0.,0.,1.));
#344=VECTOR('',#343,18.);
#345=LINE('',#334,#344);
#346=EDGE_CURVE('',#335,#342,#345,.T.);
#347=ORIENTED_EDGE('',*,*,#346,.T.);
#348=DIRECTION('',(-0.13053,-0.99144,0.));
#349=VECTOR('',#348,3.91579);
#350=LINE('',#313,#349);
#351=EDGE_CURVE('',#314,#342,#350,.T.);
#352=ORIENTED_EDGE('',*,*,#351,.F.);
#353=ORIENTED_EDGE('',*,*,#318,.F.);
#354=EDGE_LOOP('',(#340,#347,#352,#353));
#355=FACE_OUTER_BOUND('',#354,.T.);
#356=CARTESIAN_POINT('',(845.51111,-221.11771,300.));
#357=DIRECTION('',(-0.99144,0.13053,0.));
#358=DIRECTION('',(-0.13053,-0.99144,0.));
#359=AXIS2_PLACEMENT_3D('',#356,#357,#358);
#360=PLANE('',#359);
#361=ADVANCED_FACE('',(#355),#360,.T.);
#362=CARTESIAN_POINT('',(845.51111,-228.88229,300.));
#363=VERTEX_POINT('',#362);
#364=DIRECTION('',(0.13053,-0.99144,0.));
#365=VECTOR('',#364,3.91579);
#366=LINE('',#334,#365);
#367=EDGE_CURVE('',#335,#363,#366,.T.);
#368=ORIENTED_EDGE('',*,*,#367,.T.);
#369=CARTESIAN_POINT('',(845.51111,-228.88229,318.));
#370=VERTEX_POINT('',#369);
#371=DIRECTION('',(0.,0.,1.));
#372=VECTOR('',#371,18.);
#373=LINE('',#362,#372);
#374=EDGE_CURVE('',#363,#370,#373,.T.);
#375=ORIENTED_EDGE('',*,*,#374,.T.);
#376=DIRECTION('',(0.13053,-0.99144,0.));
#377=VECTOR('',#376,3.91579);
#378=LINE('',#341,#377);
#379=EDGE_CURVE('',#342,#370,#378,.T.);
#380=ORIENTED_EDGE('',*,*,#379,.F.);
#381=ORIENTED_EDGE('',*,*,#346,.F.);
#382=EDGE_LOOP('',(#368,#375,#380,#381));
#383=FACE_OUTER_BOUND('',#382,.T.);
#384=CARTESIAN_POINT('',(845.,-225.,300.));
#385=DIRECTION('',(-0.99144,-0.13053,0.));
#386=DIRECTION('',(0.13053,-0.99144,0.));
#387=AXIS2_PLACEMENT_3D('',#384,#385,#386);
#388=PLANE('',#387);
#389=ADVANCED_FACE('',(#383),#388,.T.);
#390=CARTESIAN_POINT('',(847.00962,-232.5,300.));
#391=VERTEX_POINT('',#390);
#392=DIRECTION('',(0.38268,-0.92388,0.));
#393=VECTOR('',#392,3.91579);
#394=LINE('',#362,#393);
#395=EDGE_CURVE('',#363,#391,#394,.T.);
#396=ORIENTED_EDGE('',*,*,#395,.T.);
#397=CARTESIAN_POINT('',(847.00962,-232.5,318.));
#398=VERTEX_POINT('',#397);
#399=DIRECTION('',(0.,0.,1.));
#400=VECTOR('',#399,18.);
#401=LINE('',#390,#400);
#402=EDGE_CURVE('',#391,#398,#401,.T.);
#403=ORIENTED_EDGE('',*,*,#402,.T.);
#404=DIRECTION('',(0.38268,-0.92388,0.));
#405=VECTOR('',#404,3.91579);
#406=LINE('',#369,#405);
#407=EDGE_CURVE('',#370,#398,#406,.T.);
#408=ORIENTED_EDGE('',*,*,#407,.F.);
#409=ORIENTED_EDGE('',*,*,#374,.F.);
#410=EDGE_LOOP('',(#396,#403,#408,#409));
#411=FACE_OUTER_BOUND('',#410,.T.);
#412=CARTESIAN_POINT('',(845.51111,-228.88229,300.));
#413=DIRECTION('',(-0.92388,-0.38268,0.));
#414=DIRECTION('',(0.38268,-0.92388,0.));
#415=AXIS2_PLACEMENT_3D('',#412,#413,#414);
#416=PLANE('',#415);
#417=ADVANCED_FACE('',(#411),#416,.T.);
#418=CARTESIAN_POINT('',(849.3934,-235.6066,300.));
#419=VERTEX_POINT('',#418);
#420=DIRECTION('',(0.60876,-0.79335,0.));
#421=VECTOR('',#420,3.91579);
#422=LINE('',#390,#421);
#423=EDGE_CURVE('',#391,#419,#422,.T.);
#424=ORIENTED_EDGE('',*,*,#423,.T.);
#425=CARTESIAN_POINT('',(849.3934,-235.6066,318.));
#426=VERTEX_POINT('',#425);
#427=DIRECTION('',(0.,0.,1.));
#428=VECTOR('',#427,18.);
#429=LINE('',#418,#428);
#430=EDGE_CURVE('',#419,#426,#429,.T.);
#431=ORIENTED_EDGE('',*,*,#430,.T.);
#432=DIRECTION('',(0.60876,-0.79335,0.));
#433=VECTOR('',#432,3.91579);
#434=LINE('',#397,#433);
#435=EDGE_CURVE('',#398,#426,#434,.T.);
#436=ORIENTED_EDGE('',*,*,#435,.F.);
#437=ORIENTED_EDGE('',*,*,#402,.F.);
#438=EDGE_LOOP('',(#424,#431,#436,#437));
#439=FACE_OUTER_BOUND('',#438,.T.);
#440=CARTESIAN_POINT('',(847.00962,-232.5,300.));
#441=DIRECTION('',(-0.79335,-0.60876,0.));
#442=DIRECTION('',(0.60876,-0.79335,0.));
#443=AXIS2_PLACEMENT_3D('',#440,#441,#442);
#444=PLANE('',#443);
#445=ADVANCED_FACE('',(#439),#444,.T.);
#446=CARTESIAN_POINT('',(852.5,-237.99038,300.));
#447=VERTEX_POINT('',#446);
#448=DIRECTION('',(0.79335,-0.60876,0.));
#449=VECTOR('',#448,3.91579);
#450=LINE('',#418,#449);
#451=EDGE_CURVE('',#419,#447,#450,.T.);
#452=ORIENTED_EDGE('',*,*,#451,.T.);
#453=CARTESIAN_POINT('',(852.5,-237.99038,318.));
#454=VERTEX_POINT('',#453);
#455=DIRECTION('',(0.,0.,1.));
#456=VECTOR('',#455,18.);
#457=LINE('',#446,#456);
#458=EDGE_CURVE('',#447,#454,#457,.T.);
#459=ORIENTED_EDGE('',*,*,#458,.T.);
#460=DIRECTION('',(0.79335,-0.60876,0.));
#461=VECTOR('',#460,3.91579);
#462=LINE('',#425,#461);
#463=EDGE_CURVE('',#426,#454,#462,.T.);
#464=ORIENTED_EDGE('',*,*,#463,.F.);
#465=ORIENTED_EDGE('',*,*,#430,.F.);
#466=EDGE_LOOP('',(#452,#459,#464,#465));
#467=FACE_OUTER_BOUND('',#466,.T.);
#468=CARTESIAN_POINT('',(849.3934,-235.6066,300.));
#469=DIRECTION('',(-0.60876,-0.79335,0.));
#470=DIRECTION('',(0.79335,-0.60876,0.));
#471=AXIS2_PLACEMENT_3D('',#468,#469,#470);
#472=PLANE('',#471);
#473=ADVANCED_FACE('',(#467),#472,.T.);
#474=CARTESIAN_POINT('',(856.11771,-239.48889,300.));
#475=VERTEX_POINT('',#474);
#476=DIRECTION('',(0.92388,-0.38268,0.));
#477=VECTOR('',#476,3.91579);
#478=LINE('',#446,#477);
#479=EDGE_CURVE('',#447,#475,#478,.T.);
#480=ORIENTED_EDGE('',*,*,#479,.T.);
#481=CARTESIAN_POINT('',(856.11771,-239.48889,318.));
#482=VERTEX_POINT('',#481);
#483=DIRECTION('',(0.,0.,1.));
#484=VECTOR('',#483,18.);
#485=LINE('',#474,#484);
#486=EDGE_CURVE('',#475,#482,#485,.T.);
#487=ORIENTED_EDGE('',*,*,#486,.T.);
#488=DIRECTION('',(0.92388,-0.38268,0.));
#489=VECTOR('',#488,3.91579);
#490=LINE('',#453,#489);
#491=EDGE_CURVE('',#454,#482,#490,.T.);
#492=ORIENTED_EDGE('',*,*,#491,.F.);
#493=ORIENTED_EDGE('',*,*,#458,.F.);
#494=EDGE_LOOP('',(#480,#487,#492,#493));
#495=FACE_OUTER_BOUND('',#494,.T.);
#496=CARTESIAN_POINT('',(852.5,-237.99038,300.));
#497=DIRECTION('',(-0.38268,-0.92388,0.));
#498=DIRECTION('',(0.92388,-0.38268,0.));
#499=AXIS2_PLACEMENT_3D('',#496,#497,#498);
#500=PLANE('',#499);
#501=ADVANCED_FACE('',(#495),#500,.T.);
#502=CARTESIAN_POINT('',(860.,-240.,300.));
#503=VERTEX_POINT('',#502);
#504=DIRECTION('',(0.99144,-0.13053,0.));
#505=VECTOR('',#504,3.91579);
#506=LINE('',#474,#505);
#507=EDGE_CURVE('',#475,#503,#506,.T.);
#508=ORIENTED_EDGE('',*,*,#507,.T.);
#509=CARTESIAN_POINT('',(860.,-240.,318.));
#510=VERTEX_POINT('',#509);
#511=DIRECTION('',(0.,0.,1.));
#512=VECTOR('',#511,18.);
#513=LINE('',#502,#512);
#514=EDGE_CURVE('',#503,#510,#513,.T.);
#515=ORIENTED_EDGE('',*,*,#514,.T.);
#516=DIRECTION('',(0.99144,-0.13053,0.));
#517=VECTOR('',#516,3.91579);
#518=LINE('',#481,#517);
#519=EDGE_CURVE('',#482,#510,#518,.T.);
#520=ORIENTED_EDGE('',*,*,#519,.F.);
#521=ORIENTED_EDGE('',*,*,#486,.F.);
#522=EDGE_LOOP('',(#508,#515,#520,#521));
#523=FACE_OUTER_BOUND('',#522,.T.);
#524=CARTESIAN_POINT('',(856.11771,-239.48889,300.));
#525=DIRECTION('',(-0.13053,-0.99144,0.));
#526=DIRECTION('',(0.99144,-0.13053,0.));
#527=AXIS2_PLACEMENT_3D('',#524,#525,#526);
#528=PLANE('',#527);
#529=ADVANCED_FACE('',(#523),#528,.T.);
#530=CARTESIAN_POINT('',(863.88229,-239.48889,300.));
#531=VERTEX_POINT('',#530);
#532=DIRECTION('',(0.99144,0.13053,0.));
#533=VECTOR('',#532,3.91579);
#534=LINE('',#502,#533);
#535=EDGE_CURVE('',#503,#531,#534,.T.);
#536=ORIENTED_EDGE('',*,*,#535,.T.);
#537=CARTESIAN_POINT('',(863.88229,-239.48889,318.));
#538=VERTEX_POINT('',#537);
#539=DIRECTION('',(0.,0.,1.));
#540=VECTOR('',#539,18.);
#541=LINE('',#530,#540);
#542=EDGE_CURVE('',#531,#538,#541,.T.);
#543=ORIENTED_EDGE('',*,*,#542,.T.);
#544=DIRECTION('',(0.99144,0.13053,0.));
#545=VECTOR('',#544,3.91579);
#546=LINE('',#509,#545);
#547=EDGE_CURVE('',#510,#538,#546,.T.);
#548=ORIENTED_EDGE('',*,*,#547,.F.);
#549=ORIENTED_EDGE('',*,*,#514,.F.);
#550=EDGE_LOOP('',(#536,#543,#548,#549));
#551=FACE_OUTER_BOUND('',#550,.T.);
#552=CARTESIAN_POINT('',(860.,-240.,300.));
#553=DIRECTION('',(0.13053,-0.99144,0.));
#554=DIRECTION('',(0.99144,0.13053,0.));
#555=AXIS2_PLACEMENT_3D('',#552,#553,#554);
#556=PLANE('',#555);
#557=ADVANCED_FACE('',(#551),#556,.T.);
#558=CARTESIAN_POINT('',(867.5,-237.99038,300.));
#559=VERTEX_POINT('',#558);
#560=DIRECTION('',(0.92388,0.38268,0.));
#561=VECTOR('',#560,3.91579);
#562=LINE('',#530,#561);
#563=EDGE_CURVE('',#531,#559,#562,.T.);
#564=ORIENTED_EDGE('',*,*,#563,.T.);
#565=CARTESIAN_POINT('',(867.5,-237.99038,318.));
#566=VERTEX_POINT('',#565);
#567=DIRECTION('',(0.,0.,1.));
#568=VECTOR('',#567,18.);
#569=LINE('',#558,#568);
#570=EDGE_CURVE('',#559,#566,#569,.T.);
#571=ORIENTED_EDGE('',*,*,#570,.T.);
#572=DIRECTION('',(0.92388,0.38268,0.));
#573=VECTOR('',#572,3.91579);
#574=LINE('',#537,#573);
#575=EDGE_CURVE('',#538,#566,#574,.T.);
#576=ORIENTED_EDGE('',*,*,#575,.F.);
#577=ORIENTED_EDGE('',*,*,#542,.F.);
#578=EDGE_LOOP('',(#564,#571,#576,#577));
#579=FACE_OUTER_BOUND('',#578,.T.);
#580=CARTESIAN_POINT('',(863.88229,-239.48889,300.));
#581=DIRECTION('',(0.38268,-0.92388,0.));
#582=DIRECTION('',(0.92388,0.38268,0.));
#583=AXIS2_PLACEMENT_3D('',#580,#581,#582);
#584=PLANE('',#583);
#585=ADVANCED_FACE('',(#579),#584,.T.);
#586=CARTESIAN_POINT('',(870.6066,-235.6066,300.));
#587=VERTEX_POINT('',#586);
#588=DIRECTION('',(0.79335,0.60876,0.));
#589=VECTOR('',#588,3.91579);
#590=LINE('',#558,#589);
#591=EDGE_CURVE('',#559,#587,#590,.T.);
#592=ORIENTED_EDGE('',*,*,#591,.T.);
#593=CARTESIAN_POINT('',(870.6066,-235.6066,318.));
#594=VERTEX_POINT('',#593);
#595=DIRECTION('',(0.,0.,1.));
#596=VECTOR('',#595,18.);
#597=LINE('',#586,#596);
#598=EDGE_CURVE('',#587,#594,#597,.T.);
#599=ORIENTED_EDGE('',*,*,#598,.T.);
#600=DIRECTION('',(0.79335,0.60876,0.));
#601=VECTOR('',#600,3.91579);
#602=LINE('',#565,#601);
#603=EDGE_CURVE('',#566,#594,#602,.T.);
#604=ORIENTED_EDGE('',*,*,#603,.F.);
#605=ORIENTED_EDGE('',*,*,#570,.F.);
#606=EDGE_LOOP('',(#592,#599,#604,#605));
#607=FACE_OUTER_BOUND('',#606,.T.);
#608=CARTESIAN_POINT('',(867.5,-237.99038,300.));
#609=DIRECTION('',(0.60876,-0.79335,0.));
#610=DIRECTION('',(0.79335,0.60876,0.));
#611=AXIS2_PLACEMENT_3D('',#608,#609,#610);
#612=PLANE('',#611);
#613=ADVANCED_FACE('',(#607),#612,.T.);
#614=CARTESIAN_POINT('',(872.99038,-232.5,300.));
#615=VERTEX_POINT('',#614);
#616=DIRECTION('',(0.60876,0.79335,0.));
#617=VECTOR('',#616,3.91579);
#618=LINE('',#586,#617);
#619=EDGE_CURVE('',#587,#615,#618,.T.);
#620=ORIENTED_EDGE('',*,*,#619,.T.);
#621=CARTESIAN_POINT('',(872.99038,-232.5,318.));
#622=VERTEX_POINT('',#621);
#623=DIRECTION('',(0.,0.,1.));
#624=VECTOR('',#623,18.);
#625=LINE('',#614,#624);
#626=EDGE_CURVE('',#615,#622,#625,.T.);
#627=ORIENTED_EDGE('',*,*,#626,.T.);
#628=DIRECTION('',(0.60876,0.79335,0.));
#629=VECTOR('',#628,3.91579);
#630=LINE('',#593,#629);
#631=EDGE_CURVE('',#594,#622,#630,.T.);
#632=ORIENTED_EDGE('',*,*,#631,.F.);
#633=ORIENTED_EDGE('',*,*,#598,.F.);
#634=EDGE_LOOP('',(#620,#627,#632,#633));
#635=FACE_OUTER_BOUND('',#634,.T.);
#636=CARTESIAN_POINT('',(870.6066,-235.6066,300.));
#637=DIRECTION('',(0.79335,-0.60876,0.));
#638=DIRECTION('',(0.60876,0.79335,0.));
#639=AXIS2_PLACEMENT_3D('',#636,#637,#638);
#640=PLANE('',#639);
#641=ADVANCED_FACE('',(#635),#640,.T.);
#642=CARTESIAN_POINT('',(874.48889,-228.88229,300.));
#643=VERTEX_POINT('',#642);
#644=DIRECTION('',(0.38268,0.92388,0.));
#645=VECTOR('',#644,3.91579);
#646=LINE('',#614,#645);
#647=EDGE_CURVE('',#615,#643,#646,.T.);
#648=ORIENTED_EDGE('',*,*,#647,.T.);
#649=CARTESIAN_POINT('',(874.48889,-228.88229,318.));
#650=VERTEX_POINT('',#649);
#651=DIRECTION('',(0.,0.,1.));
#652=VECTOR('',#651,18.);
#653=LINE('',#642,#652);
#654=EDGE_CURVE('',#643,#650,#653,.T.);
#655=ORIENTED_EDGE('',*,*,#654,.T.);
#656=DIRECTION('',(0.38268,0.92388,0.));
#657=VECTOR('',#656,3.91579);
#658=LINE('',#621,#657);
#659=EDGE_CURVE('',#622,#650,#658,.T.);
#660=ORIENTED_EDGE('',*,*,#659,.F.);
#661=ORIENTED_EDGE('',*,*,#626,.F.);
#662=EDGE_LOOP('',(#648,#655,#660,#661));
#663=FACE_OUTER_BOUND('',#662,.T.);
#664=CARTESIAN_POINT('',(872.99038,-232.5,300.));
#665=DIRECTION('',(0.92388,-0.38268,0.));
#666=DIRECTION('',(0.38268,0.92388,0.));
#667=AXIS2_PLACEMENT_3D('',#664,#665,#666);
#668=PLANE('',#667);
#669=ADVANCED_FACE('',(#663),#668,.T.);
#670=DIRECTION('',(-0.13053,-0.99144,0.));
#671=VECTOR('',#670,3.91579);
#672=LINE('',#18,#671);
#673=EDGE_CURVE('',#19,#643,#672,.T.);
#674=ORIENTED_EDGE('',*,*,#673,.F.);
#675=ORIENTED_EDGE('',*,*,#44,.T.);
#676=DIRECTION('',(-0.13053,-0.99144,0.));
#677=VECTOR('',#676,3.91579);
#678=LINE('',#34,#677);
#679=EDGE_CURVE('',#35,#650,#678,.T.);
#680=ORIENTED_EDGE('',*,*,#679,.T.);
#681=ORIENTED_EDGE('',*,*,#654,.F.);
#682=EDGE_LOOP('',(#674,#675,#680,#681));
#683=FACE_OUTER_BOUND('',#682,.T.);
#684=CARTESIAN_POINT('',(874.48889,-228.88229,300.));
#685=DIRECTION('',(0.99144,-0.13053,0.));
#686=DIRECTION('',(0.13053,0.99144,0.));
#687=AXIS2_PLACEMENT_3D('',#684,#685,#686);
#688=PLANE('',#687);
#689=ADVANCED_FACE('',(#683),#688,.T.);
#690=ORIENTED_EDGE('',*,*,#647,.F.);
#691=ORIENTED_EDGE('',*,*,#619,.F.);
#692=ORIENTED_EDGE('',*,*,#591,.F.);
#693=ORIENTED_EDGE('',*,*,#563,.F.);
#694=ORIENTED_EDGE('',*,*,#535,.F.);
#695=ORIENTED_EDGE('',*,*,#507,.F.);
#696=ORIENTED_EDGE('',*,*,#479,.F.);
#697=ORIENTED_EDGE('',*,*,#451,.F.);
#698=ORIENTED_EDGE('',*,*,#423,.F.);
#699=ORIENTED_EDGE('',*,*,#395,.F.);
#700=ORIENTED_EDGE('',*,*,#367,.F.);
#701=ORIENTED_EDGE('',*,*,#339,.F.);
#702=ORIENTED_EDGE('',*,*,#311,.F.);
#703=ORIENTED_EDGE('',*,*,#283,.F.);
#704=ORIENTED_EDGE('',*,*,#255,.F.);
#705=ORIENTED_EDGE('',*,*,#227,.F.);
#706=ORIENTED_EDGE('',*,*,#199,.F.);
#707=ORIENTED_EDGE('',*,*,#171,.F.);
#708=ORIENTED_EDGE('',*,*,#143,.F.);
#709=ORIENTED_EDGE('',*,*,#115,.F.);
#710=ORIENTED_EDGE('',*,*,#87,.F.);
#711=ORIENTED_EDGE('',*,*,#59,.F.);
#712=ORIENTED_EDGE('',*,*,#25,.F.);
#713=ORIENTED_EDGE('',*,*,#673,.T.);
#714=EDGE_LOOP('',(#690,#691,#692,#693,#694,#695,#696,#697,#698,#699,#700,#701,#702,#703,#704,#705,#706,#707,#708,#709,#710,#711,#712,#713));
#715=FACE_OUTER_BOUND('',#714,.T.);
#716=CARTESIAN_POINT('',(874.48889,-228.88229,300.));
#717=DIRECTION('',(0.,0.,-1.));
#718=DIRECTION('',(-0.38268,-0.92388,0.));
#719=AXIS2_PLACEMENT_3D('',#716,#717,#718);
#720=PLANE('',#719);
#721=ADVANCED_FACE('',(#715),#720,.T.);
#722=ORIENTED_EDGE('',*,*,#39,.T.);
#723=ORIENTED_EDGE('',*,*,#71,.T.);
#724=ORIENTED_EDGE('',*,*,#99,.T.);
#725=ORIENTED_EDGE('',*,*,#127,.T.);
#726=ORIENTED_EDGE('',*,*,#155,.T.);
#727=ORIENTED_EDGE('',*,*,#183,.T.);
#728=ORIENTED_EDGE('',*,*,#211,.T.);
#729=ORIENTED_EDGE('',*,*,#239,.T.);
#730=ORIENTED_EDGE('',*,*,#267,.T.);
#731=ORIENTED_EDGE('',*,*,#295,.T.);
#732=ORIENTED_EDGE('',*,*,#323,.T.);
#733=ORIENTED_EDGE('',*,*,#351,.T.);
#734=ORIENTED_EDGE('',*,*,#379,.T.);
#735=ORIENTED_EDGE('',*,*,#407,.T.);
#736=ORIENTED_EDGE('',*,*,#435,.T.);
#737=ORIENTED_EDGE('',*,*,#463,.T.);
#738=ORIENTED_EDGE('',*,*,#491,.T.);
#739=ORIENTED_EDGE('',*,*,#519,.T.);
#740=ORIENTED_EDGE('',*,*,#547,.T.);
#741=ORIENTED_EDGE('',*,*,#575,.T.);
#742=ORIENTED_EDGE('',*,*,#603,.T.);
#743=ORIENTED_EDGE('',*,*,#631,.T.);
#744=ORIENTED_EDGE('',*,*,#659,.T.);
#745=ORIENTED_EDGE('',*,*,#679,.F.);
#746=EDGE_LOOP('',(#722,#723,#724,#725,#726,#727,#728,#729,#730,#731,#732,#733,#734,#735,#736,#737,#738,#739,#740,#741,#742,#743,#744,#745));
#747=FACE_OUTER_BOUND('',#746,.T.);
#748=CARTESIAN_POINT('',(875.,-225.,318.));
#749=DIRECTION('',(0.,0.,1.));
#750=DIRECTION('',(-0.13053,0.99144,0.));
#751=AXIS2_PLACEMENT_3D('',#748,#749,#750);
#752=PLANE('',#751);
#753=ADVANCED_FACE('',(#747),#752,.T.);
#754=CLOSED_SHELL('',(#53,#81,#109,#137,#165,#193,#221,#249,#277,#305,#333,#361,#389,#417,#445,#473,#501,#529,#557,#585,#613,#641,#669,#689,#721,#753));
#755=MANIFOLD_SOLID_BREP('',#754);
#756=COLOUR_RGB('',0.1,0.1,0.11);
#757=FILL_AREA_STYLE_COLOUR('',#756);
#758=FILL_AREA_STYLE('',(#757));
#759=SURFACE_STYLE_FILL_AREA(#758);
#760=SURFACE_SIDE_STYLE('',(#759));
#761=SURFACE_STYLE_USAGE(.BOTH.,#760);
#762=PRESENTATION_STYLE_ASSIGNMENT((#761));
#763=STYLED_ITEM('color',(#762),#755);
#764=CARTESIAN_POINT('',(869.,-225.,318.));
#765=VERTEX_POINT('',#764);
#766=CARTESIAN_POINT('',(868.55951,-222.21885,318.));
#767=VERTEX_POINT('',#766);
#768=DIRECTION('',(-0.15643,0.98769,0.));
#769=VECTOR('',#768,2.81582);
#770=LINE('',#764,#769);
#771=EDGE_CURVE('',#765,#767,#770,.T.);
#772=ORIENTED_EDGE('',*,*,#771,.T.);
#773=CARTESIAN_POINT('',(868.55951,-222.21885,555.));
#774=VERTEX_POINT('',#773);
#775=DIRECTION('',(0.,0.,1.));
#776=VECTOR('',#775,237.);
#777=LINE('',#766,#776);
#778=EDGE_CURVE('',#767,#774,#777,.T.);
#779=ORIENTED_EDGE('',*,*,#778,.T.);
#780=CARTESIAN_POINT('',(869.,-225.,555.));
#781=VERTEX_POINT('',#780);
#782=DIRECTION('',(-0.15643,0.98769,0.));
#783=VECTOR('',#782,2.81582);
#784=LINE('',#780,#783);
#785=EDGE_CURVE('',#781,#774,#784,.T.);
#786=ORIENTED_EDGE('',*,*,#785,.F.);
#787=DIRECTION('',(0.,0.,1.));
#788=VECTOR('',#787,237.);
#789=LINE('',#764,#788);
#790=EDGE_CURVE('',#765,#781,#789,.T.);
#791=ORIENTED_EDGE('',*,*,#790,.F.);
#792=EDGE_LOOP('',(#772,#779,#786,#791));
#793=FACE_OUTER_BOUND('',#792,.T.);
#794=CARTESIAN_POINT('',(869.,-225.,318.));
#795=DIRECTION('',(0.98769,0.15643,0.));
#796=DIRECTION('',(-0.15643,0.98769,0.));
#797=AXIS2_PLACEMENT_3D('',#794,#795,#796);
#798=PLANE('',#797);
#799=ADVANCED_FACE('',(#793),#798,.T.);
#800=CARTESIAN_POINT('',(867.28115,-219.70993,318.));
#801=VERTEX_POINT('',#800);
#802=DIRECTION('',(-0.45399,0.89101,0.));
#803=VECTOR('',#802,2.81582);
#804=LINE('',#766,#803);
#805=EDGE_CURVE('',#767,#801,#804,.T.);
#806=ORIENTED_EDGE('',*,*,#805,.T.);
#807=CARTESIAN_POINT('',(867.28115,-219.70993,555.));
#808=VERTEX_POINT('',#807);
#809=DIRECTION('',(0.,0.,1.));
#810=VECTOR('',#809,237.);
#811=LINE('',#800,#810);
#812=EDGE_CURVE('',#801,#808,#811,.T.);
#813=ORIENTED_EDGE('',*,*,#812,.T.);
#814=DIRECTION('',(-0.45399,0.89101,0.));
#815=VECTOR('',#814,2.81582);
#816=LINE('',#773,#815);
#817=EDGE_CURVE('',#774,#808,#816,.T.);
#818=ORIENTED_EDGE('',*,*,#817,.F.);
#819=ORIENTED_EDGE('',*,*,#778,.F.);
#820=EDGE_LOOP('',(#806,#813,#818,#819));
#821=FACE_OUTER_BOUND('',#820,.T.);
#822=CARTESIAN_POINT('',(868.55951,-222.21885,318.));
#823=DIRECTION('',(0.89101,0.45399,0.));
#824=DIRECTION('',(-0.45399,0.89101,0.));
#825=AXIS2_PLACEMENT_3D('',#822,#823,#824);
#826=PLANE('',#825);
#827=ADVANCED_FACE('',(#821),#826,.T.);
#828=CARTESIAN_POINT('',(865.29007,-217.71885,318.));
#829=VERTEX_POINT('',#828);
#830=DIRECTION('',(-0.70711,0.70711,0.));
#831=VECTOR('',#830,2.81582);
#832=LINE('',#800,#831);
#833=EDGE_CURVE('',#801,#829,#832,.T.);
#834=ORIENTED_EDGE('',*,*,#833,.T.);
#835=CARTESIAN_POINT('',(865.29007,-217.71885,555.));
#836=VERTEX_POINT('',#835);
#837=DIRECTION('',(0.,0.,1.));
#838=VECTOR('',#837,237.);
#839=LINE('',#828,#838);
#840=EDGE_CURVE('',#829,#836,#839,.T.);
#841=ORIENTED_EDGE('',*,*,#840,.T.);
#842=DIRECTION('',(-0.70711,0.70711,0.));
#843=VECTOR('',#842,2.81582);
#844=LINE('',#807,#843);
#845=EDGE_CURVE('',#808,#836,#844,.T.);
#846=ORIENTED_EDGE('',*,*,#845,.F.);
#847=ORIENTED_EDGE('',*,*,#812,.F.);
#848=EDGE_LOOP('',(#834,#841,#846,#847));
#849=FACE_OUTER_BOUND('',#848,.T.);
#850=CARTESIAN_POINT('',(867.28115,-219.70993,318.));
#851=DIRECTION('',(0.70711,0.70711,0.));
#852=DIRECTION('',(-0.70711,0.70711,0.));
#853=AXIS2_PLACEMENT_3D('',#850,#851,#852);
#854=PLANE('',#853);
#855=ADVANCED_FACE('',(#849),#854,.T.);
#856=CARTESIAN_POINT('',(862.78115,-216.44049,318.));
#857=VERTEX_POINT('',#856);
#858=DIRECTION('',(-0.89101,0.45399,0.));
#859=VECTOR('',#858,2.81582);
#860=LINE('',#828,#859);
#861=EDGE_CURVE('',#829,#857,#860,.T.);
#862=ORIENTED_EDGE('',*,*,#861,.T.);
#863=CARTESIAN_POINT('',(862.78115,-216.44049,555.));
#864=VERTEX_POINT('',#863);
#865=DIRECTION('',(0.,0.,1.));
#866=VECTOR('',#865,237.);
#867=LINE('',#856,#866);
#868=EDGE_CURVE('',#857,#864,#867,.T.);
#869=ORIENTED_EDGE('',*,*,#868,.T.);
#870=DIRECTION('',(-0.89101,0.45399,0.));
#871=VECTOR('',#870,2.81582);
#872=LINE('',#835,#871);
#873=EDGE_CURVE('',#836,#864,#872,.T.);
#874=ORIENTED_EDGE('',*,*,#873,.F.);
#875=ORIENTED_EDGE('',*,*,#840,.F.);
#876=EDGE_LOOP('',(#862,#869,#874,#875));
#877=FACE_OUTER_BOUND('',#876,.T.);
#878=CARTESIAN_POINT('',(865.29007,-217.71885,318.));
#879=DIRECTION('',(0.45399,0.89101,0.));
#880=DIRECTION('',(-0.89101,0.45399,0.));
#881=AXIS2_PLACEMENT_3D('',#878,#879,#880);
#882=PLANE('',#881);
#883=ADVANCED_FACE('',(#877),#882,.T.);
#884=CARTESIAN_POINT('',(860.,-216.,318.));
#885=VERTEX_POINT('',#884);
#886=DIRECTION('',(-0.98769,0.15643,0.));
#887=VECTOR('',#886,2.81582);
#888=LINE('',#856,#887);
#889=EDGE_CURVE('',#857,#885,#888,.T.);
#890=ORIENTED_EDGE('',*,*,#889,.T.);
#891=CARTESIAN_POINT('',(860.,-216.,555.));
#892=VERTEX_POINT('',#891);
#893=DIRECTION('',(0.,0.,1.));
#894=VECTOR('',#893,237.);
#895=LINE('',#884,#894);
#896=EDGE_CURVE('',#885,#892,#895,.T.);
#897=ORIENTED_EDGE('',*,*,#896,.T.);
#898=DIRECTION('',(-0.98769,0.15643,0.));
#899=VECTOR('',#898,2.81582);
#900=LINE('',#863,#899);
#901=EDGE_CURVE('',#864,#892,#900,.T.);
#902=ORIENTED_EDGE('',*,*,#901,.F.);
#903=ORIENTED_EDGE('',*,*,#868,.F.);
#904=EDGE_LOOP('',(#890,#897,#902,#903));
#905=FACE_OUTER_BOUND('',#904,.T.);
#906=CARTESIAN_POINT('',(862.78115,-216.44049,318.));
#907=DIRECTION('',(0.15643,0.98769,0.));
#908=DIRECTION('',(-0.98769,0.15643,0.));
#909=AXIS2_PLACEMENT_3D('',#906,#907,#908);
#910=PLANE('',#909);
#911=ADVANCED_FACE('',(#905),#910,.T.);
#912=CARTESIAN_POINT('',(857.21885,-216.44049,318.));
#913=VERTEX_POINT('',#912);
#914=DIRECTION('',(-0.98769,-0.15643,0.));
#915=VECTOR('',#914,2.81582);
#916=LINE('',#884,#915);
#917=EDGE_CURVE('',#885,#913,#916,.T.);
#918=ORIENTED_EDGE('',*,*,#917,.T.);
#919=CARTESIAN_POINT('',(857.21885,-216.44049,555.));
#920=VERTEX_POINT('',#919);
#921=DIRECTION('',(0.,0.,1.));
#922=VECTOR('',#921,237.);
#923=LINE('',#912,#922);
#924=EDGE_CURVE('',#913,#920,#923,.T.);
#925=ORIENTED_EDGE('',*,*,#924,.T.);
#926=DIRECTION('',(-0.98769,-0.15643,0.));
#927=VECTOR('',#926,2.81582);
#928=LINE('',#891,#927);
#929=EDGE_CURVE('',#892,#920,#928,.T.);
#930=ORIENTED_EDGE('',*,*,#929,.F.);
#931=ORIENTED_EDGE('',*,*,#896,.F.);
#932=EDGE_LOOP('',(#918,#925,#930,#931));
#933=FACE_OUTER_BOUND('',#932,.T.);
#934=CARTESIAN_POINT('',(860.,-216.,318.));
#935=DIRECTION('',(-0.15643,0.98769,0.));
#936=DIRECTION('',(-0.98769,-0.15643,0.));
#937=AXIS2_PLACEMENT_3D('',#934,#935,#936);
#938=PLANE('',#937);
#939=ADVANCED_FACE('',(#933),#938,.T.);
#940=CARTESIAN_POINT('',(854.70993,-217.71885,318.));
#941=VERTEX_POINT('',#940);
#942=DIRECTION('',(-0.89101,-0.45399,0.));
#943=VECTOR('',#942,2.81582);
#944=LINE('',#912,#943);
#945=EDGE_CURVE('',#913,#941,#944,.T.);
#946=ORIENTED_EDGE('',*,*,#945,.T.);
#947=CARTESIAN_POINT('',(854.70993,-217.71885,555.));
#948=VERTEX_POINT('',#947);
#949=DIRECTION('',(0.,0.,1.));
#950=VECTOR('',#949,237.);
#951=LINE('',#940,#950);
#952=EDGE_CURVE('',#941,#948,#951,.T.);
#953=ORIENTED_EDGE('',*,*,#952,.T.);
#954=DIRECTION('',(-0.89101,-0.45399,0.));
#955=VECTOR('',#954,2.81582);
#956=LINE('',#919,#955);
#957=EDGE_CURVE('',#920,#948,#956,.T.);
#958=ORIENTED_EDGE('',*,*,#957,.F.);
#959=ORIENTED_EDGE('',*,*,#924,.F.);
#960=EDGE_LOOP('',(#946,#953,#958,#959));
#961=FACE_OUTER_BOUND('',#960,.T.);
#962=CARTESIAN_POINT('',(857.21885,-216.44049,318.));
#963=DIRECTION('',(-0.45399,0.89101,0.));
#964=DIRECTION('',(-0.89101,-0.45399,0.));
#965=AXIS2_PLACEMENT_3D('',#962,#963,#964);
#966=PLANE('',#965);
#967=ADVANCED_FACE('',(#961),#966,.T.);
#968=CARTESIAN_POINT('',(852.71885,-219.70993,318.));
#969=VERTEX_POINT('',#968);
#970=DIRECTION('',(-0.70711,-0.70711,0.));
#971=VECTOR('',#970,2.81582);
#972=LINE('',#940,#971);
#973=EDGE_CURVE('',#941,#969,#972,.T.);
#974=ORIENTED_EDGE('',*,*,#973,.T.);
#975=CARTESIAN_POINT('',(852.71885,-219.70993,555.));
#976=VERTEX_POINT('',#975);
#977=DIRECTION('',(0.,0.,1.));
#978=VECTOR('',#977,237.);
#979=LINE('',#968,#978);
#980=EDGE_CURVE('',#969,#976,#979,.T.);
#981=ORIENTED_EDGE('',*,*,#980,.T.);
#982=DIRECTION('',(-0.70711,-0.70711,0.));
#983=VECTOR('',#982,2.81582);
#984=LINE('',#947,#983);
#985=EDGE_CURVE('',#948,#976,#984,.T.);
#986=ORIENTED_EDGE('',*,*,#985,.F.);
#987=ORIENTED_EDGE('',*,*,#952,.F.);
#988=EDGE_LOOP('',(#974,#981,#986,#987));
#989=FACE_OUTER_BOUND('',#988,.T.);
#990=CARTESIAN_POINT('',(854.70993,-217.71885,318.));
#991=DIRECTION('',(-0.70711,0.70711,0.));
#992=DIRECTION('',(-0.70711,-0.70711,0.));
#993=AXIS2_PLACEMENT_3D('',#990,#991,#992);
#994=PLANE('',#993);
#995=ADVANCED_FACE('',(#989),#994,.T.);
#996=CARTESIAN_POINT('',(851.44049,-222.21885,318.));
#997=VERTEX_POINT('',#996);
#998=DIRECTION('',(-0.45399,-0.89101,0.));
#999=VECTOR('',#998,2.81582);
#1000=LINE('',#968,#999);
#1001=EDGE_CURVE('',#969,#997,#1000,.T.);
#1002=ORIENTED_EDGE('',*,*,#1001,.T.);
#1003=CARTESIAN_POINT('',(851.44049,-222.21885,555.));
#1004=VERTEX_POINT('',#1003);
#1005=DIRECTION('',(0.,0.,1.));
#1006=VECTOR('',#1005,237.);
#1007=LINE('',#996,#1006);
#1008=EDGE_CURVE('',#997,#1004,#1007,.T.);
#1009=ORIENTED_EDGE('',*,*,#1008,.T.);
#1010=DIRECTION('',(-0.45399,-0.89101,0.));
#1011=VECTOR('',#1010,2.81582);
#1012=LINE('',#975,#1011);
#1013=EDGE_CURVE('',#976,#1004,#1012,.T.);
#1014=ORIENTED_EDGE('',*,*,#1013,.F.);
#1015=ORIENTED_EDGE('',*,*,#980,.F.);
#1016=EDGE_LOOP('',(#1002,#1009,#1014,#1015));
#1017=FACE_OUTER_BOUND('',#1016,.T.);
#1018=CARTESIAN_POINT('',(852.71885,-219.70993,318.));
#1019=DIRECTION('',(-0.89101,0.45399,0.));
#1020=DIRECTION('',(-0.45399,-0.89101,0.));
#1021=AXIS2_PLACEMENT_3D('',#1018,#1019,#1020);
#1022=PLANE('',#1021);
#1023=ADVANCED_FACE('',(#1017),#1022,.T.);
#1024=CARTESIAN_POINT('',(851.,-225.,318.));
#1025=VERTEX_POINT('',#1024);
#1026=DIRECTION('',(-0.15643,-0.98769,0.));
#1027=VECTOR('',#1026,2.81582);
#1028=LINE('',#996,#1027);
#1029=EDGE_CURVE('',#997,#1025,#1028,.T.);
#1030=ORIENTED_EDGE('',*,*,#1029,.T.);
#1031=CARTESIAN_POINT('',(851.,-225.,555.));
#1032=VERTEX_POINT('',#1031);
#1033=DIRECTION('',(0.,0.,1.));
#1034=VECTOR('',#1033,237.);
#1035=LINE('',#1024,#1034);
#1036=EDGE_CURVE('',#1025,#1032,#1035,.T.);
#1037=ORIENTED_EDGE('',*,*,#1036,.T.);
#1038=DIRECTION('',(-0.15643,-0.98769,0.));
#1039=VECTOR('',#1038,2.81582);
#1040=LINE('',#1003,#1039);
#1041=EDGE_CURVE('',#1004,#1032,#1040,.T.);
#1042=ORIENTED_EDGE('',*,*,#1041,.F.);
#1043=ORIENTED_EDGE('',*,*,#1008,.F.);
#1044=EDGE_LOOP('',(#1030,#1037,#1042,#1043));
#1045=FACE_OUTER_BOUND('',#1044,.T.);
#1046=CARTESIAN_POINT('',(851.44049,-222.21885,318.));
#1047=DIRECTION('',(-0.98769,0.15643,0.));
#1048=DIRECTION('',(-0.15643,-0.98769,0.));
#1049=AXIS2_PLACEMENT_3D('',#1046,#1047,#1048);
#1050=PLANE('',#1049);
#1051=ADVANCED_FACE('',(#1045),#1050,.T.);
#1052=CARTESIAN_POINT('',(851.44049,-227.78115,318.));
#1053=VERTEX_POINT('',#1052);
#1054=DIRECTION('',(0.15643,-0.98769,0.));
#1055=VECTOR('',#1054,2.81582);
#1056=LINE('',#1024,#1055);
#1057=EDGE_CURVE('',#1025,#1053,#1056,.T.);
#1058=ORIENTED_EDGE('',*,*,#1057,.T.);
#1059=CARTESIAN_POINT('',(851.44049,-227.78115,555.));
#1060=VERTEX_POINT('',#1059);
#1061=DIRECTION('',(0.,0.,1.));
#1062=VECTOR('',#1061,237.);
#1063=LINE('',#1052,#1062);
#1064=EDGE_CURVE('',#1053,#1060,#1063,.T.);
#1065=ORIENTED_EDGE('',*,*,#1064,.T.);
#1066=DIRECTION('',(0.15643,-0.98769,0.));
#1067=VECTOR('',#1066,2.81582);
#1068=LINE('',#1031,#1067);
#1069=EDGE_CURVE('',#1032,#1060,#1068,.T.);
#1070=ORIENTED_EDGE('',*,*,#1069,.F.);
#1071=ORIENTED_EDGE('',*,*,#1036,.F.);
#1072=EDGE_LOOP('',(#1058,#1065,#1070,#1071));
#1073=FACE_OUTER_BOUND('',#1072,.T.);
#1074=CARTESIAN_POINT('',(851.,-225.,318.));
#1075=DIRECTION('',(-0.98769,-0.15643,0.));
#1076=DIRECTION('',(0.15643,-0.98769,0.));
#1077=AXIS2_PLACEMENT_3D('',#1074,#1075,#1076);
#1078=PLANE('',#1077);
#1079=ADVANCED_FACE('',(#1073),#1078,.T.);
#1080=CARTESIAN_POINT('',(852.71885,-230.29007,318.));
#1081=VERTEX_POINT('',#1080);
#1082=DIRECTION('',(0.45399,-0.89101,0.));
#1083=VECTOR('',#1082,2.81582);
#1084=LINE('',#1052,#1083);
#1085=EDGE_CURVE('',#1053,#1081,#1084,.T.);
#1086=ORIENTED_EDGE('',*,*,#1085,.T.);
#1087=CARTESIAN_POINT('',(852.71885,-230.29007,555.));
#1088=VERTEX_POINT('',#1087);
#1089=DIRECTION('',(0.,0.,1.));
#1090=VECTOR('',#1089,237.);
#1091=LINE('',#1080,#1090);
#1092=EDGE_CURVE('',#1081,#1088,#1091,.T.);
#1093=ORIENTED_EDGE('',*,*,#1092,.T.);
#1094=DIRECTION('',(0.45399,-0.89101,0.));
#1095=VECTOR('',#1094,2.81582);
#1096=LINE('',#1059,#1095);
#1097=EDGE_CURVE('',#1060,#1088,#1096,.T.);
#1098=ORIENTED_EDGE('',*,*,#1097,.F.);
#1099=ORIENTED_EDGE('',*,*,#1064,.F.);
#1100=EDGE_LOOP('',(#1086,#1093,#1098,#1099));
#1101=FACE_OUTER_BOUND('',#1100,.T.);
#1102=CARTESIAN_POINT('',(851.44049,-227.78115,318.));
#1103=DIRECTION('',(-0.89101,-0.45399,0.));
#1104=DIRECTION('',(0.45399,-0.89101,0.));
#1105=AXIS2_PLACEMENT_3D('',#1102,#1103,#1104);
#1106=PLANE('',#1105);
#1107=ADVANCED_FACE('',(#1101),#1106,.T.);
#1108=CARTESIAN_POINT('',(854.70993,-232.28115,318.));
#1109=VERTEX_POINT('',#1108);
#1110=DIRECTION('',(0.70711,-0.70711,0.));
#1111=VECTOR('',#1110,2.81582);
#1112=LINE('',#1080,#1111);
#1113=EDGE_CURVE('',#1081,#1109,#1112,.T.);
#1114=ORIENTED_EDGE('',*,*,#1113,.T.);
#1115=CARTESIAN_POINT('',(854.70993,-232.28115,555.));
#1116=VERTEX_POINT('',#1115);
#1117=DIRECTION('',(0.,0.,1.));
#1118=VECTOR('',#1117,237.);
#1119=LINE('',#1108,#1118);
#1120=EDGE_CURVE('',#1109,#1116,#1119,.T.);
#1121=ORIENTED_EDGE('',*,*,#1120,.T.);
#1122=DIRECTION('',(0.70711,-0.70711,0.));
#1123=VECTOR('',#1122,2.81582);
#1124=LINE('',#1087,#1123);
#1125=EDGE_CURVE('',#1088,#1116,#1124,.T.);
#1126=ORIENTED_EDGE('',*,*,#1125,.F.);
#1127=ORIENTED_EDGE('',*,*,#1092,.F.);
#1128=EDGE_LOOP('',(#1114,#1121,#1126,#1127));
#1129=FACE_OUTER_BOUND('',#1128,.T.);
#1130=CARTESIAN_POINT('',(852.71885,-230.29007,318.));
#1131=DIRECTION('',(-0.70711,-0.70711,0.));
#1132=DIRECTION('',(0.70711,-0.70711,0.));
#1133=AXIS2_PLACEMENT_3D('',#1130,#1131,#1132);
#1134=PLANE('',#1133);
#1135=ADVANCED_FACE('',(#1129),#1134,.T.);
#1136=CARTESIAN_POINT('',(857.21885,-233.55951,318.));
#1137=VERTEX_POINT('',#1136);
#1138=DIRECTION('',(0.89101,-0.45399,0.));
#1139=VECTOR('',#1138,2.81582);
#1140=LINE('',#1108,#1139);
#1141=EDGE_CURVE('',#1109,#1137,#1140,.T.);
#1142=ORIENTED_EDGE('',*,*,#1141,.T.);
#1143=CARTESIAN_POINT('',(857.21885,-233.55951,555.));
#1144=VERTEX_POINT('',#1143);
#1145=DIRECTION('',(0.,0.,1.));
#1146=VECTOR('',#1145,237.);
#1147=LINE('',#1136,#1146);
#1148=EDGE_CURVE('',#1137,#1144,#1147,.T.);
#1149=ORIENTED_EDGE('',*,*,#1148,.T.);
#1150=DIRECTION('',(0.89101,-0.45399,0.));
#1151=VECTOR('',#1150,2.81582);
#1152=LINE('',#1115,#1151);
#1153=EDGE_CURVE('',#1116,#1144,#1152,.T.);
#1154=ORIENTED_EDGE('',*,*,#1153,.F.);
#1155=ORIENTED_EDGE('',*,*,#1120,.F.);
#1156=EDGE_LOOP('',(#1142,#1149,#1154,#1155));
#1157=FACE_OUTER_BOUND('',#1156,.T.);
#1158=CARTESIAN_POINT('',(854.70993,-232.28115,318.));
#1159=DIRECTION('',(-0.45399,-0.89101,0.));
#1160=DIRECTION('',(0.89101,-0.45399,0.));
#1161=AXIS2_PLACEMENT_3D('',#1158,#1159,#1160);
#1162=PLANE('',#1161);
#1163=ADVANCED_FACE('',(#1157),#1162,.T.);
#1164=CARTESIAN_POINT('',(860.,-234.,318.));
#1165=VERTEX_POINT('',#1164);
#1166=DIRECTION('',(0.98769,-0.15643,0.));
#1167=VECTOR('',#1166,2.81582);
#1168=LINE('',#1136,#1167);
#1169=EDGE_CURVE('',#1137,#1165,#1168,.T.);
#1170=ORIENTED_EDGE('',*,*,#1169,.T.);
#1171=CARTESIAN_POINT('',(860.,-234.,555.));
#1172=VERTEX_POINT('',#1171);
#1173=DIRECTION('',(0.,0.,1.));
#1174=VECTOR('',#1173,237.);
#1175=LINE('',#1164,#1174);
#1176=EDGE_CURVE('',#1165,#1172,#1175,.T.);
#1177=ORIENTED_EDGE('',*,*,#1176,.T.);
#1178=DIRECTION('',(0.98769,-0.15643,0.));
#1179=VECTOR('',#1178,2.81582);
#1180=LINE('',#1143,#1179);
#1181=EDGE_CURVE('',#1144,#1172,#1180,.T.);
#1182=ORIENTED_EDGE('',*,*,#1181,.F.);
#1183=ORIENTED_EDGE('',*,*,#1148,.F.);
#1184=EDGE_LOOP('',(#1170,#1177,#1182,#1183));
#1185=FACE_OUTER_BOUND('',#1184,.T.);
#1186=CARTESIAN_POINT('',(857.21885,-233.55951,318.));
#1187=DIRECTION('',(-0.15643,-0.98769,0.));
#1188=DIRECTION('',(0.98769,-0.15643,0.));
#1189=AXIS2_PLACEMENT_3D('',#1186,#1187,#1188);
#1190=PLANE('',#1189);
#1191=ADVANCED_FACE('',(#1185),#1190,.T.);
#1192=CARTESIAN_POINT('',(862.78115,-233.55951,318.));
#1193=VERTEX_POINT('',#1192);
#1194=DIRECTION('',(0.98769,0.15643,0.));
#1195=VECTOR('',#1194,2.81582);
#1196=LINE('',#1164,#1195);
#1197=EDGE_CURVE('',#1165,#1193,#1196,.T.);
#1198=ORIENTED_EDGE('',*,*,#1197,.T.);
#1199=CARTESIAN_POINT('',(862.78115,-233.55951,555.));
#1200=VERTEX_POINT('',#1199);
#1201=DIRECTION('',(0.,0.,1.));
#1202=VECTOR('',#1201,237.);
#1203=LINE('',#1192,#1202);
#1204=EDGE_CURVE('',#1193,#1200,#1203,.T.);
#1205=ORIENTED_EDGE('',*,*,#1204,.T.);
#1206=DIRECTION('',(0.98769,0.15643,0.));
#1207=VECTOR('',#1206,2.81582);
#1208=LINE('',#1171,#1207);
#1209=EDGE_CURVE('',#1172,#1200,#1208,.T.);
#1210=ORIENTED_EDGE('',*,*,#1209,.F.);
#1211=ORIENTED_EDGE('',*,*,#1176,.F.);
#1212=EDGE_LOOP('',(#1198,#1205,#1210,#1211));
#1213=FACE_OUTER_BOUND('',#1212,.T.);
#1214=CARTESIAN_POINT('',(860.,-234.,318.));
#1215=DIRECTION('',(0.15643,-0.98769,0.));
#1216=DIRECTION('',(0.98769,0.15643,0.));
#1217=AXIS2_PLACEMENT_3D('',#1214,#1215,#1216);
#1218=PLANE('',#1217);
#1219=ADVANCED_FACE('',(#1213),#1218,.T.);
#1220=CARTESIAN_POINT('',(865.29007,-232.28115,318.));
#1221=VERTEX_POINT('',#1220);
#1222=DIRECTION('',(0.89101,0.45399,0.));
#1223=VECTOR('',#1222,2.81582);
#1224=LINE('',#1192,#1223);
#1225=EDGE_CURVE('',#1193,#1221,#1224,.T.);
#1226=ORIENTED_EDGE('',*,*,#1225,.T.);
#1227=CARTESIAN_POINT('',(865.29007,-232.28115,555.));
#1228=VERTEX_POINT('',#1227);
#1229=DIRECTION('',(0.,0.,1.));
#1230=VECTOR('',#1229,237.);
#1231=LINE('',#1220,#1230);
#1232=EDGE_CURVE('',#1221,#1228,#1231,.T.);
#1233=ORIENTED_EDGE('',*,*,#1232,.T.);
#1234=DIRECTION('',(0.89101,0.45399,0.));
#1235=VECTOR('',#1234,2.81582);
#1236=LINE('',#1199,#1235);
#1237=EDGE_CURVE('',#1200,#1228,#1236,.T.);
#1238=ORIENTED_EDGE('',*,*,#1237,.F.);
#1239=ORIENTED_EDGE('',*,*,#1204,.F.);
#1240=EDGE_LOOP('',(#1226,#1233,#1238,#1239));
#1241=FACE_OUTER_BOUND('',#1240,.T.);
#1242=CARTESIAN_POINT('',(862.78115,-233.55951,318.));
#1243=DIRECTION('',(0.45399,-0.89101,0.));
#1244=DIRECTION('',(0.89101,0.45399,0.));
#1245=AXIS2_PLACEMENT_3D('',#1242,#1243,#1244);
#1246=PLANE('',#1245);
#1247=ADVANCED_FACE('',(#1241),#1246,.T.);
#1248=CARTESIAN_POINT('',(867.28115,-230.29007,318.));
#1249=VERTEX_POINT('',#1248);
#1250=DIRECTION('',(0.70711,0.70711,0.));
#1251=VECTOR('',#1250,2.81582);
#1252=LINE('',#1220,#1251);
#1253=EDGE_CURVE('',#1221,#1249,#1252,.T.);
#1254=ORIENTED_EDGE('',*,*,#1253,.T.);
#1255=CARTESIAN_POINT('',(867.28115,-230.29007,555.));
#1256=VERTEX_POINT('',#1255);
#1257=DIRECTION('',(0.,0.,1.));
#1258=VECTOR('',#1257,237.);
#1259=LINE('',#1248,#1258);
#1260=EDGE_CURVE('',#1249,#1256,#1259,.T.);
#1261=ORIENTED_EDGE('',*,*,#1260,.T.);
#1262=DIRECTION('',(0.70711,0.70711,0.));
#1263=VECTOR('',#1262,2.81582);
#1264=LINE('',#1227,#1263);
#1265=EDGE_CURVE('',#1228,#1256,#1264,.T.);
#1266=ORIENTED_EDGE('',*,*,#1265,.F.);
#1267=ORIENTED_EDGE('',*,*,#1232,.F.);
#1268=EDGE_LOOP('',(#1254,#1261,#1266,#1267));
#1269=FACE_OUTER_BOUND('',#1268,.T.);
#1270=CARTESIAN_POINT('',(865.29007,-232.28115,318.));
#1271=DIRECTION('',(0.70711,-0.70711,0.));
#1272=DIRECTION('',(0.70711,0.70711,0.));
#1273=AXIS2_PLACEMENT_3D('',#1270,#1271,#1272);
#1274=PLANE('',#1273);
#1275=ADVANCED_FACE('',(#1269),#1274,.T.);
#1276=CARTESIAN_POINT('',(868.55951,-227.78115,318.));
#1277=VERTEX_POINT('',#1276);
#1278=DIRECTION('',(0.45399,0.89101,0.));
#1279=VECTOR('',#1278,2.81582);
#1280=LINE('',#1248,#1279);
#1281=EDGE_CURVE('',#1249,#1277,#1280,.T.);
#1282=ORIENTED_EDGE('',*,*,#1281,.T.);
#1283=CARTESIAN_POINT('',(868.55951,-227.78115,555.));
#1284=VERTEX_POINT('',#1283);
#1285=DIRECTION('',(0.,0.,1.));
#1286=VECTOR('',#1285,237.);
#1287=LINE('',#1276,#1286);
#1288=EDGE_CURVE('',#1277,#1284,#1287,.T.);
#1289=ORIENTED_EDGE('',*,*,#1288,.T.);
#1290=DIRECTION('',(0.45399,0.89101,0.));
#1291=VECTOR('',#1290,2.81582);
#1292=LINE('',#1255,#1291);
#1293=EDGE_CURVE('',#1256,#1284,#1292,.T.);
#1294=ORIENTED_EDGE('',*,*,#1293,.F.);
#1295=ORIENTED_EDGE('',*,*,#1260,.F.);
#1296=EDGE_LOOP('',(#1282,#1289,#1294,#1295));
#1297=FACE_OUTER_BOUND('',#1296,.T.);
#1298=CARTESIAN_POINT('',(867.28115,-230.29007,318.));
#1299=DIRECTION('',(0.89101,-0.45399,0.));
#1300=DIRECTION('',(0.45399,0.89101,0.));
#1301=AXIS2_PLACEMENT_3D('',#1298,#1299,#1300);
#1302=PLANE('',#1301);
#1303=ADVANCED_FACE('',(#1297),#1302,.T.);
#1304=DIRECTION('',(-0.15643,-0.98769,0.));
#1305=VECTOR('',#1304,2.81582);
#1306=LINE('',#764,#1305);
#1307=EDGE_CURVE('',#765,#1277,#1306,.T.);
#1308=ORIENTED_EDGE('',*,*,#1307,.F.);
#1309=ORIENTED_EDGE('',*,*,#790,.T.);
#1310=DIRECTION('',(-0.15643,-0.98769,0.));
#1311=VECTOR('',#1310,2.81582);
#1312=LINE('',#780,#1311);
#1313=EDGE_CURVE('',#781,#1284,#1312,.T.);
#1314=ORIENTED_EDGE('',*,*,#1313,.T.);
#1315=ORIENTED_EDGE('',*,*,#1288,.F.);
#1316=EDGE_LOOP('',(#1308,#1309,#1314,#1315));
#1317=FACE_OUTER_BOUND('',#1316,.T.);
#1318=CARTESIAN_POINT('',(868.55951,-227.78115,318.));
#1319=DIRECTION('',(0.98769,-0.15643,0.));
#1320=DIRECTION('',(0.15643,0.98769,0.));
#1321=AXIS2_PLACEMENT_3D('',#1318,#1319,#1320);
#1322=PLANE('',#1321);
#1323=ADVANCED_FACE('',(#1317),#1322,.T.);
#1324=ORIENTED_EDGE('',*,*,#1281,.F.);
#1325=ORIENTED_EDGE('',*,*,#1253,.F.);
#1326=ORIENTED_EDGE('',*,*,#1225,.F.);
#1327=ORIENTED_EDGE('',*,*,#1197,.F.);
#1328=ORIENTED_EDGE('',*,*,#1169,.F.);
#1329=ORIENTED_EDGE('',*,*,#1141,.F.);
#1330=ORIENTED_EDGE('',*,*,#1113,.F.);
#1331=ORIENTED_EDGE('',*,*,#1085,.F.);
#1332=ORIENTED_EDGE('',*,*,#1057,.F.);
#1333=ORIENTED_EDGE('',*,*,#1029,.F.);
#1334=ORIENTED_EDGE('',*,*,#1001,.F.);
#1335=ORIENTED_EDGE('',*,*,#973,.F.);
#1336=ORIENTED_EDGE('',*,*,#945,.F.);
#1337=ORIENTED_EDGE('',*,*,#917,.F.);
#1338=ORIENTED_EDGE('',*,*,#889,.F.);
#1339=ORIENTED_EDGE('',*,*,#861,.F.);
#1340=ORIENTED_EDGE('',*,*,#833,.F.);
#1341=ORIENTED_EDGE('',*,*,#805,.F.);
#1342=ORIENTED_EDGE('',*,*,#771,.F.);
#1343=ORIENTED_EDGE('',*,*,#1307,.T.);
#1344=EDGE_LOOP('',(#1324,#1325,#1326,#1327,#1328,#1329,#1330,#1331,#1332,#1333,#1334,#1335,#1336,#1337,#1338,#1339,#1340,#1341,#1342,#1343));
#1345=FACE_OUTER_BOUND('',#1344,.T.);
#1346=CARTESIAN_POINT('',(868.55951,-227.78115,318.));
#1347=DIRECTION('',(0.,0.,-1.));
#1348=DIRECTION('',(-0.45399,-0.89101,0.));
#1349=AXIS2_PLACEMENT_3D('',#1346,#1347,#1348);
#1350=PLANE('',#1349);
#1351=ADVANCED_FACE('',(#1345),#1350,.T.);
#1352=ORIENTED_EDGE('',*,*,#785,.T.);
#1353=ORIENTED_EDGE('',*,*,#817,.T.);
#1354=ORIENTED_EDGE('',*,*,#845,.T.);
#1355=ORIENTED_EDGE('',*,*,#873,.T.);
#1356=ORIENTED_EDGE('',*,*,#901,.T.);
#1357=ORIENTED_EDGE('',*,*,#929,.T.);
#1358=ORIENTED_EDGE('',*,*,#957,.T.);
#1359=ORIENTED_EDGE('',*,*,#985,.T.);
#1360=ORIENTED_EDGE('',*,*,#1013,.T.);
#1361=ORIENTED_EDGE('',*,*,#1041,.T.);
#1362=ORIENTED_EDGE('',*,*,#1069,.T.);
#1363=ORIENTED_EDGE('',*,*,#1097,.T.);
#1364=ORIENTED_EDGE('',*,*,#1125,.T.);
#1365=ORIENTED_EDGE('',*,*,#1153,.T.);
#1366=ORIENTED_EDGE('',*,*,#1181,.T.);
#1367=ORIENTED_EDGE('',*,*,#1209,.T.);
#1368=ORIENTED_EDGE('',*,*,#1237,.T.);
#1369=ORIENTED_EDGE('',*,*,#1265,.T.);
#1370=ORIENTED_EDGE('',*,*,#1293,.T.);
#1371=ORIENTED_EDGE('',*,*,#1313,.F.);
#1372=EDGE_LOOP('',(#1352,#1353,#1354,#1355,#1356,#1357,#1358,#1359,#1360,#1361,#1362,#1363,#1364,#1365,#1366,#1367,#1368,#1369,#1370,#1371));
#1373=FACE_OUTER_BOUND('',#1372,.T.);
#1374=CARTESIAN_POINT('',(869.,-225.,555.));
#1375=DIRECTION('',(0.,0.,1.));
#1376=DIRECTION('',(-0.15643,0.98769,0.));
#1377=AXIS2_PLACEMENT_3D('',#1374,#1375,#1376);
#1378=PLANE('',#1377);
#1379=ADVANCED_FACE('',(#1373),#1378,.T.);
#1380=CLOSED_SHELL('',(#799,#827,#855,#883,#911,#939,#967,#995,#1023,#1051,#1079,#1107,#1135,#1163,#1191,#1219,#1247,#1275,#1303,#1323,#1351,#1379));
#1381=MANIFOLD_SOLID_BREP('',#1380);
#1382=STYLED_ITEM('color',(#762),#1381);
#1383=CARTESIAN_POINT('',(869.,-225.,555.));
#1384=VERTEX_POINT('',#1383);
#1385=CARTESIAN_POINT('',(868.55951,-222.21885,555.));
#1386=VERTEX_POINT('',#1385);
#1387=DIRECTION('',(-0.15643,0.98769,0.));
#1388=VECTOR('',#1387,2.81582);
#1389=LINE('',#1383,#1388);
#1390=EDGE_CURVE('',#1384,#1386,#1389,.T.);
#1391=ORIENTED_EDGE('',*,*,#1390,.T.);
#1392=CARTESIAN_POINT('',(865.70634,-223.1459,561.));
#1393=VERTEX_POINT('',#1392);
#1394=DIRECTION('',(-0.42533,-0.1382,0.89443));
#1395=VECTOR('',#1394,6.7082);
#1396=LINE('',#1385,#1395);
#1397=EDGE_CURVE('',#1386,#1393,#1396,.T.);
#1398=ORIENTED_EDGE('',*,*,#1397,.T.);
#1399=CARTESIAN_POINT('',(866.,-225.,561.));
#1400=VERTEX_POINT('',#1399);
#1401=DIRECTION('',(-0.15643,0.98769,0.));
#1402=VECTOR('',#1401,1.87721);
#1403=LINE('',#1399,#1402);
#1404=EDGE_CURVE('',#1400,#1393,#1403,.T.);
#1405=ORIENTED_EDGE('',*,*,#1404,.F.);
#1406=DIRECTION('',(-0.44721,0.,0.89443));
#1407=VECTOR('',#1406,6.7082);
#1408=LINE('',#1383,#1407);
#1409=EDGE_CURVE('',#1384,#1400,#1408,.T.);
#1410=ORIENTED_EDGE('',*,*,#1409,.F.);
#1411=EDGE_LOOP('',(#1391,#1398,#1405,#1410));
#1412=FACE_OUTER_BOUND('',#1411,.T.);
#1413=CARTESIAN_POINT('',(869.,-225.,555.));
#1414=DIRECTION('',(0.88559,0.14026,0.44279));
#1415=DIRECTION('',(-0.15643,0.98769,0.));
#1416=AXIS2_PLACEMENT_3D('',#1413,#1414,#1415);
#1417=PLANE('',#1416);
#1418=ADVANCED_FACE('',(#1412),#1417,.T.);
#1419=CARTESIAN_POINT('',(867.28115,-219.70993,555.));
#1420=VERTEX_POINT('',#1419);
#1421=DIRECTION('',(-0.45399,0.89101,0.));
#1422=VECTOR('',#1421,2.81582);
#1423=LINE('',#1385,#1422);
#1424=EDGE_CURVE('',#1386,#1420,#1423,.T.);
#1425=ORIENTED_EDGE('',*,*,#1424,.T.);
#1426=CARTESIAN_POINT('',(864.8541,-221.47329,561.));
#1427=VERTEX_POINT('',#1426);
#1428=DIRECTION('',(-0.3618,-0.26287,0.89443));
#1429=VECTOR('',#1428,6.7082);
#1430=LINE('',#1419,#1429);
#1431=EDGE_CURVE('',#1420,#1427,#1430,.T.);
#1432=ORIENTED_EDGE('',*,*,#1431,.T.);
#1433=DIRECTION('',(-0.45399,0.89101,0.));
#1434=VECTOR('',#1433,1.87721);
#1435=LINE('',#1392,#1434);
#1436=EDGE_CURVE('',#1393,#1427,#1435,.T.);
#1437=ORIENTED_EDGE('',*,*,#1436,.F.);
#1438=ORIENTED_EDGE('',*,*,#1397,.F.);
#1439=EDGE_LOOP('',(#1425,#1432,#1437,#1438));
#1440=FACE_OUTER_BOUND('',#1439,.T.);
#1441=CARTESIAN_POINT('',(868.55951,-222.21885,555.));
#1442=DIRECTION('',(0.7989,0.40706,0.44279));
#1443=DIRECTION('',(-0.45399,0.89101,0.));
#1444=AXIS2_PLACEMENT_3D('',#1441,#1442,#1443);
#1445=PLANE('',#1444);
#1446=ADVANCED_FACE('',(#1440),#1445,.T.);
#1447=CARTESIAN_POINT('',(865.29007,-217.71885,555.));
#1448=VERTEX_POINT('',#1447);
#1449=DIRECTION('',(-0.70711,0.70711,0.));
#1450=VECTOR('',#1449,2.81582);
#1451=LINE('',#1419,#1450);
#1452=EDGE_CURVE('',#1420,#1448,#1451,.T.);
#1453=ORIENTED_EDGE('',*,*,#1452,.T.);
#1454=CARTESIAN_POINT('',(863.52671,-220.1459,561.));
#1455=VERTEX_POINT('',#1454);
#1456=DIRECTION('',(-0.26287,-0.3618,0.89443));
#1457=VECTOR('',#1456,6.7082);
#1458=LINE('',#1447,#1457);
#1459=EDGE_CURVE('',#1448,#1455,#1458,.T.);
#1460=ORIENTED_EDGE('',*,*,#1459,.T.);
#1461=DIRECTION('',(-0.70711,0.70711,0.));
#1462=VECTOR('',#1461,1.87721);
#1463=LINE('',#1426,#1462);
#1464=EDGE_CURVE('',#1427,#1455,#1463,.T.);
#1465=ORIENTED_EDGE('',*,*,#1464,.F.);
#1466=ORIENTED_EDGE('',*,*,#1431,.F.);
#1467=EDGE_LOOP('',(#1453,#1460,#1465,#1466));
#1468=FACE_OUTER_BOUND('',#1467,.T.);
#1469=CARTESIAN_POINT('',(867.28115,-219.70993,555.));
#1470=DIRECTION('',(0.63401,0.63401,0.44279));
#1471=DIRECTION('',(-0.70711,0.70711,0.));
#1472=AXIS2_PLACEMENT_3D('',#1469,#1470,#1471);
#1473=PLANE('',#1472);
#1474=ADVANCED_FACE('',(#1468),#1473,.T.);
#1475=CARTESIAN_POINT('',(862.78115,-216.44049,555.));
#1476=VERTEX_POINT('',#1475);
#1477=DIRECTION('',(-0.89101,0.45399,0.));
#1478=VECTOR('',#1477,2.81582);
#1479=LINE('',#1447,#1478);
#1480=EDGE_CURVE('',#1448,#1476,#1479,.T.);
#1481=ORIENTED_EDGE('',*,*,#1480,.T.);
#1482=CARTESIAN_POINT('',(861.8541,-219.29366,561.));
#1483=VERTEX_POINT('',#1482);
#1484=DIRECTION('',(-0.1382,-0.42533,0.89443));
#1485=VECTOR('',#1484,6.7082);
#1486=LINE('',#1475,#1485);
#1487=EDGE_CURVE('',#1476,#1483,#1486,.T.);
#1488=ORIENTED_EDGE('',*,*,#1487,.T.);
#1489=DIRECTION('',(-0.89101,0.45399,0.));
#1490=VECTOR('',#1489,1.87721);
#1491=LINE('',#1454,#1490);
#1492=EDGE_CURVE('',#1455,#1483,#1491,.T.);
#1493=ORIENTED_EDGE('',*,*,#1492,.F.);
#1494=ORIENTED_EDGE('',*,*,#1459,.F.);
#1495=EDGE_LOOP('',(#1481,#1488,#1493,#1494));
#1496=FACE_OUTER_BOUND('',#1495,.T.);
#1497=CARTESIAN_POINT('',(865.29007,-217.71885,555.));
#1498=DIRECTION('',(0.40706,0.7989,0.44279));
#1499=DIRECTION('',(-0.89101,0.45399,0.));
#1500=AXIS2_PLACEMENT_3D('',#1497,#1498,#1499);
#1501=PLANE('',#1500);
#1502=ADVANCED_FACE('',(#1496),#1501,.T.);
#1503=CARTESIAN_POINT('',(860.,-216.,555.));
#1504=VERTEX_POINT('',#1503);
#1505=DIRECTION('',(-0.98769,0.15643,0.));
#1506=VECTOR('',#1505,2.81582);
#1507=LINE('',#1475,#1506);
#1508=EDGE_CURVE('',#1476,#1504,#1507,.T.);
#1509=ORIENTED_EDGE('',*,*,#1508,.T.);
#1510=CARTESIAN_POINT('',(860.,-219.,561.));
#1511=VERTEX_POINT('',#1510);
#1512=DIRECTION('',(0.,-0.44721,0.89443));
#1513=VECTOR('',#1512,6.7082);
#1514=LINE('',#1503,#1513);
#1515=EDGE_CURVE('',#1504,#1511,#1514,.T.);
#1516=ORIENTED_EDGE('',*,*,#1515,.T.);
#1517=DIRECTION('',(-0.98769,0.15643,0.));
#1518=VECTOR('',#1517,1.87721);
#1519=LINE('',#1482,#1518);
#1520=EDGE_CURVE('',#1483,#1511,#1519,.T.);
#1521=ORIENTED_EDGE('',*,*,#1520,.F.);
#1522=ORIENTED_EDGE('',*,*,#1487,.F.);
#1523=EDGE_LOOP('',(#1509,#1516,#1521,#1522));
#1524=FACE_OUTER_BOUND('',#1523,.T.);
#1525=CARTESIAN_POINT('',(862.78115,-216.44049,555.));
#1526=DIRECTION('',(0.14026,0.88559,0.44279));
#1527=DIRECTION('',(-0.98769,0.15643,0.));
#1528=AXIS2_PLACEMENT_3D('',#1525,#1526,#1527);
#1529=PLANE('',#1528);
#1530=ADVANCED_FACE('',(#1524),#1529,.T.);
#1531=CARTESIAN_POINT('',(857.21885,-216.44049,555.));
#1532=VERTEX_POINT('',#1531);
#1533=DIRECTION('',(-0.98769,-0.15643,0.));
#1534=VECTOR('',#1533,2.81582);
#1535=LINE('',#1503,#1534);
#1536=EDGE_CURVE('',#1504,#1532,#1535,.T.);
#1537=ORIENTED_EDGE('',*,*,#1536,.T.);
#1538=CARTESIAN_POINT('',(858.1459,-219.29366,561.));
#1539=VERTEX_POINT('',#1538);
#1540=DIRECTION('',(0.1382,-0.42533,0.89443));
#1541=VECTOR('',#1540,6.7082);
#1542=LINE('',#1531,#1541);
#1543=EDGE_CURVE('',#1532,#1539,#1542,.T.);
#1544=ORIENTED_EDGE('',*,*,#1543,.T.);
#1545=DIRECTION('',(-0.98769,-0.15643,0.));
#1546=VECTOR('',#1545,1.87721);
#1547=LINE('',#1510,#1546);
#1548=EDGE_CURVE('',#1511,#1539,#1547,.T.);
#1549=ORIENTED_EDGE('',*,*,#1548,.F.);
#1550=ORIENTED_EDGE('',*,*,#1515,.F.);
#1551=EDGE_LOOP('',(#1537,#1544,#1549,#1550));
#1552=FACE_OUTER_BOUND('',#1551,.T.);
#1553=CARTESIAN_POINT('',(860.,-216.,555.));
#1554=DIRECTION('',(-0.14026,0.88559,0.44279));
#1555=DIRECTION('',(-0.98769,-0.15643,0.));
#1556=AXIS2_PLACEMENT_3D('',#1553,#1554,#1555);
#1557=PLANE('',#1556);
#1558=ADVANCED_FACE('',(#1552),#1557,.T.);
#1559=CARTESIAN_POINT('',(854.70993,-217.71885,555.));
#1560=VERTEX_POINT('',#1559);
#1561=DIRECTION('',(-0.89101,-0.45399,0.));
#1562=VECTOR('',#1561,2.81582);
#1563=LINE('',#1531,#1562);
#1564=EDGE_CURVE('',#1532,#1560,#1563,.T.);
#1565=ORIENTED_EDGE('',*,*,#1564,.T.);
#1566=CARTESIAN_POINT('',(856.47329,-220.1459,561.));
#1567=VERTEX_POINT('',#1566);
#1568=DIRECTION('',(0.26287,-0.3618,0.89443));
#1569=VECTOR('',#1568,6.7082);
#1570=LINE('',#1559,#1569);
#1571=EDGE_CURVE('',#1560,#1567,#1570,.T.);
#1572=ORIENTED_EDGE('',*,*,#1571,.T.);
#1573=DIRECTION('',(-0.89101,-0.45399,0.));
#1574=VECTOR('',#1573,1.87721);
#1575=LINE('',#1538,#1574);
#1576=EDGE_CURVE('',#1539,#1567,#1575,.T.);
#1577=ORIENTED_EDGE('',*,*,#1576,.F.);
#1578=ORIENTED_EDGE('',*,*,#1543,.F.);
#1579=EDGE_LOOP('',(#1565,#1572,#1577,#1578));
#1580=FACE_OUTER_BOUND('',#1579,.T.);
#1581=CARTESIAN_POINT('',(857.21885,-216.44049,555.));
#1582=DIRECTION('',(-0.40706,0.7989,0.44279));
#1583=DIRECTION('',(-0.89101,-0.45399,0.));
#1584=AXIS2_PLACEMENT_3D('',#1581,#1582,#1583);
#1585=PLANE('',#1584);
#1586=ADVANCED_FACE('',(#1580),#1585,.T.);
#1587=CARTESIAN_POINT('',(852.71885,-219.70993,555.));
#1588=VERTEX_POINT('',#1587);
#1589=DIRECTION('',(-0.70711,-0.70711,0.));
#1590=VECTOR('',#1589,2.81582);
#1591=LINE('',#1559,#1590);
#1592=EDGE_CURVE('',#1560,#1588,#1591,.T.);
#1593=ORIENTED_EDGE('',*,*,#1592,.T.);
#1594=CARTESIAN_POINT('',(855.1459,-221.47329,561.));
#1595=VERTEX_POINT('',#1594);
#1596=DIRECTION('',(0.3618,-0.26287,0.89443));
#1597=VECTOR('',#1596,6.7082);
#1598=LINE('',#1587,#1597);
#1599=EDGE_CURVE('',#1588,#1595,#1598,.T.);
#1600=ORIENTED_EDGE('',*,*,#1599,.T.);
#1601=DIRECTION('',(-0.70711,-0.70711,0.));
#1602=VECTOR('',#1601,1.87721);
#1603=LINE('',#1566,#1602);
#1604=EDGE_CURVE('',#1567,#1595,#1603,.T.);
#1605=ORIENTED_EDGE('',*,*,#1604,.F.);
#1606=ORIENTED_EDGE('',*,*,#1571,.F.);
#1607=EDGE_LOOP('',(#1593,#1600,#1605,#1606));
#1608=FACE_OUTER_BOUND('',#1607,.T.);
#1609=CARTESIAN_POINT('',(854.70993,-217.71885,555.));
#1610=DIRECTION('',(-0.63401,0.63401,0.44279));
#1611=DIRECTION('',(-0.70711,-0.70711,0.));
#1612=AXIS2_PLACEMENT_3D('',#1609,#1610,#1611);
#1613=PLANE('',#1612);
#1614=ADVANCED_FACE('',(#1608),#1613,.T.);
#1615=CARTESIAN_POINT('',(851.44049,-222.21885,555.));
#1616=VERTEX_POINT('',#1615);
#1617=DIRECTION('',(-0.45399,-0.89101,0.));
#1618=VECTOR('',#1617,2.81582);
#1619=LINE('',#1587,#1618);
#1620=EDGE_CURVE('',#1588,#1616,#1619,.T.);
#1621=ORIENTED_EDGE('',*,*,#1620,.T.);
#1622=CARTESIAN_POINT('',(854.29366,-223.1459,561.));
#1623=VERTEX_POINT('',#1622);
#1624=DIRECTION('',(0.42533,-0.1382,0.89443));
#1625=VECTOR('',#1624,6.7082);
#1626=LINE('',#1615,#1625);
#1627=EDGE_CURVE('',#1616,#1623,#1626,.T.);
#1628=ORIENTED_EDGE('',*,*,#1627,.T.);
#1629=DIRECTION('',(-0.45399,-0.89101,0.));
#1630=VECTOR('',#1629,1.87721);
#1631=LINE('',#1594,#1630);
#1632=EDGE_CURVE('',#1595,#1623,#1631,.T.);
#1633=ORIENTED_EDGE('',*,*,#1632,.F.);
#1634=ORIENTED_EDGE('',*,*,#1599,.F.);
#1635=EDGE_LOOP('',(#1621,#1628,#1633,#1634));
#1636=FACE_OUTER_BOUND('',#1635,.T.);
#1637=CARTESIAN_POINT('',(852.71885,-219.70993,555.));
#1638=DIRECTION('',(-0.7989,0.40706,0.44279));
#1639=DIRECTION('',(-0.45399,-0.89101,0.));
#1640=AXIS2_PLACEMENT_3D('',#1637,#1638,#1639);
#1641=PLANE('',#1640);
#1642=ADVANCED_FACE('',(#1636),#1641,.T.);
#1643=CARTESIAN_POINT('',(851.,-225.,555.));
#1644=VERTEX_POINT('',#1643);
#1645=DIRECTION('',(-0.15643,-0.98769,0.));
#1646=VECTOR('',#1645,2.81582);
#1647=LINE('',#1615,#1646);
#1648=EDGE_CURVE('',#1616,#1644,#1647,.T.);
#1649=ORIENTED_EDGE('',*,*,#1648,.T.);
#1650=CARTESIAN_POINT('',(854.,-225.,561.));
#1651=VERTEX_POINT('',#1650);
#1652=DIRECTION('',(0.44721,0.,0.89443));
#1653=VECTOR('',#1652,6.7082);
#1654=LINE('',#1643,#1653);
#1655=EDGE_CURVE('',#1644,#1651,#1654,.T.);
#1656=ORIENTED_EDGE('',*,*,#1655,.T.);
#1657=DIRECTION('',(-0.15643,-0.98769,0.));
#1658=VECTOR('',#1657,1.87721);
#1659=LINE('',#1622,#1658);
#1660=EDGE_CURVE('',#1623,#1651,#1659,.T.);
#1661=ORIENTED_EDGE('',*,*,#1660,.F.);
#1662=ORIENTED_EDGE('',*,*,#1627,.F.);
#1663=EDGE_LOOP('',(#1649,#1656,#1661,#1662));
#1664=FACE_OUTER_BOUND('',#1663,.T.);
#1665=CARTESIAN_POINT('',(851.44049,-222.21885,555.));
#1666=DIRECTION('',(-0.88559,0.14026,0.44279));
#1667=DIRECTION('',(-0.15643,-0.98769,0.));
#1668=AXIS2_PLACEMENT_3D('',#1665,#1666,#1667);
#1669=PLANE('',#1668);
#1670=ADVANCED_FACE('',(#1664),#1669,.T.);
#1671=CARTESIAN_POINT('',(851.44049,-227.78115,555.));
#1672=VERTEX_POINT('',#1671);
#1673=DIRECTION('',(0.15643,-0.98769,0.));
#1674=VECTOR('',#1673,2.81582);
#1675=LINE('',#1643,#1674);
#1676=EDGE_CURVE('',#1644,#1672,#1675,.T.);
#1677=ORIENTED_EDGE('',*,*,#1676,.T.);
#1678=CARTESIAN_POINT('',(854.29366,-226.8541,561.));
#1679=VERTEX_POINT('',#1678);
#1680=DIRECTION('',(0.42533,0.1382,0.89443));
#1681=VECTOR('',#1680,6.7082);
#1682=LINE('',#1671,#1681);
#1683=EDGE_CURVE('',#1672,#1679,#1682,.T.);
#1684=ORIENTED_EDGE('',*,*,#1683,.T.);
#1685=DIRECTION('',(0.15643,-0.98769,0.));
#1686=VECTOR('',#1685,1.87721);
#1687=LINE('',#1650,#1686);
#1688=EDGE_CURVE('',#1651,#1679,#1687,.T.);
#1689=ORIENTED_EDGE('',*,*,#1688,.F.);
#1690=ORIENTED_EDGE('',*,*,#1655,.F.);
#1691=EDGE_LOOP('',(#1677,#1684,#1689,#1690));
#1692=FACE_OUTER_BOUND('',#1691,.T.);
#1693=CARTESIAN_POINT('',(851.,-225.,555.));
#1694=DIRECTION('',(-0.88559,-0.14026,0.44279));
#1695=DIRECTION('',(0.15643,-0.98769,0.));
#1696=AXIS2_PLACEMENT_3D('',#1693,#1694,#1695);
#1697=PLANE('',#1696);
#1698=ADVANCED_FACE('',(#1692),#1697,.T.);
#1699=CARTESIAN_POINT('',(852.71885,-230.29007,555.));
#1700=VERTEX_POINT('',#1699);
#1701=DIRECTION('',(0.45399,-0.89101,0.));
#1702=VECTOR('',#1701,2.81582);
#1703=LINE('',#1671,#1702);
#1704=EDGE_CURVE('',#1672,#1700,#1703,.T.);
#1705=ORIENTED_EDGE('',*,*,#1704,.T.);
#1706=CARTESIAN_POINT('',(855.1459,-228.52671,561.));
#1707=VERTEX_POINT('',#1706);
#1708=DIRECTION('',(0.3618,0.26287,0.89443));
#1709=VECTOR('',#1708,6.7082);
#1710=LINE('',#1699,#1709);
#1711=EDGE_CURVE('',#1700,#1707,#1710,.T.);
#1712=ORIENTED_EDGE('',*,*,#1711,.T.);
#1713=DIRECTION('',(0.45399,-0.89101,0.));
#1714=VECTOR('',#1713,1.87721);
#1715=LINE('',#1678,#1714);
#1716=EDGE_CURVE('',#1679,#1707,#1715,.T.);
#1717=ORIENTED_EDGE('',*,*,#1716,.F.);
#1718=ORIENTED_EDGE('',*,*,#1683,.F.);
#1719=EDGE_LOOP('',(#1705,#1712,#1717,#1718));
#1720=FACE_OUTER_BOUND('',#1719,.T.);
#1721=CARTESIAN_POINT('',(851.44049,-227.78115,555.));
#1722=DIRECTION('',(-0.7989,-0.40706,0.44279));
#1723=DIRECTION('',(0.45399,-0.89101,0.));
#1724=AXIS2_PLACEMENT_3D('',#1721,#1722,#1723);
#1725=PLANE('',#1724);
#1726=ADVANCED_FACE('',(#1720),#1725,.T.);
#1727=CARTESIAN_POINT('',(854.70993,-232.28115,555.));
#1728=VERTEX_POINT('',#1727);
#1729=DIRECTION('',(0.70711,-0.70711,0.));
#1730=VECTOR('',#1729,2.81582);
#1731=LINE('',#1699,#1730);
#1732=EDGE_CURVE('',#1700,#1728,#1731,.T.);
#1733=ORIENTED_EDGE('',*,*,#1732,.T.);
#1734=CARTESIAN_POINT('',(856.47329,-229.8541,561.));
#1735=VERTEX_POINT('',#1734);
#1736=DIRECTION('',(0.26287,0.3618,0.89443));
#1737=VECTOR('',#1736,6.7082);
#1738=LINE('',#1727,#1737);
#1739=EDGE_CURVE('',#1728,#1735,#1738,.T.);
#1740=ORIENTED_EDGE('',*,*,#1739,.T.);
#1741=DIRECTION('',(0.70711,-0.70711,0.));
#1742=VECTOR('',#1741,1.87721);
#1743=LINE('',#1706,#1742);
#1744=EDGE_CURVE('',#1707,#1735,#1743,.T.);
#1745=ORIENTED_EDGE('',*,*,#1744,.F.);
#1746=ORIENTED_EDGE('',*,*,#1711,.F.);
#1747=EDGE_LOOP('',(#1733,#1740,#1745,#1746));
#1748=FACE_OUTER_BOUND('',#1747,.T.);
#1749=CARTESIAN_POINT('',(852.71885,-230.29007,555.));
#1750=DIRECTION('',(-0.63401,-0.63401,0.44279));
#1751=DIRECTION('',(0.70711,-0.70711,0.));
#1752=AXIS2_PLACEMENT_3D('',#1749,#1750,#1751);
#1753=PLANE('',#1752);
#1754=ADVANCED_FACE('',(#1748),#1753,.T.);
#1755=CARTESIAN_POINT('',(857.21885,-233.55951,555.));
#1756=VERTEX_POINT('',#1755);
#1757=DIRECTION('',(0.89101,-0.45399,0.));
#1758=VECTOR('',#1757,2.81582);
#1759=LINE('',#1727,#1758);
#1760=EDGE_CURVE('',#1728,#1756,#1759,.T.);
#1761=ORIENTED_EDGE('',*,*,#1760,.T.);
#1762=CARTESIAN_POINT('',(858.1459,-230.70634,561.));
#1763=VERTEX_POINT('',#1762);
#1764=DIRECTION('',(0.1382,0.42533,0.89443));
#1765=VECTOR('',#1764,6.7082);
#1766=LINE('',#1755,#1765);
#1767=EDGE_CURVE('',#1756,#1763,#1766,.T.);
#1768=ORIENTED_EDGE('',*,*,#1767,.T.);
#1769=DIRECTION('',(0.89101,-0.45399,0.));
#1770=VECTOR('',#1769,1.87721);
#1771=LINE('',#1734,#1770);
#1772=EDGE_CURVE('',#1735,#1763,#1771,.T.);
#1773=ORIENTED_EDGE('',*,*,#1772,.F.);
#1774=ORIENTED_EDGE('',*,*,#1739,.F.);
#1775=EDGE_LOOP('',(#1761,#1768,#1773,#1774));
#1776=FACE_OUTER_BOUND('',#1775,.T.);
#1777=CARTESIAN_POINT('',(854.70993,-232.28115,555.));
#1778=DIRECTION('',(-0.40706,-0.7989,0.44279));
#1779=DIRECTION('',(0.89101,-0.45399,0.));
#1780=AXIS2_PLACEMENT_3D('',#1777,#1778,#1779);
#1781=PLANE('',#1780);
#1782=ADVANCED_FACE('',(#1776),#1781,.T.);
#1783=CARTESIAN_POINT('',(860.,-234.,555.));
#1784=VERTEX_POINT('',#1783);
#1785=DIRECTION('',(0.98769,-0.15643,0.));
#1786=VECTOR('',#1785,2.81582);
#1787=LINE('',#1755,#1786);
#1788=EDGE_CURVE('',#1756,#1784,#1787,.T.);
#1789=ORIENTED_EDGE('',*,*,#1788,.T.);
#1790=CARTESIAN_POINT('',(860.,-231.,561.));
#1791=VERTEX_POINT('',#1790);
#1792=DIRECTION('',(0.,0.44721,0.89443));
#1793=VECTOR('',#1792,6.7082);
#1794=LINE('',#1783,#1793);
#1795=EDGE_CURVE('',#1784,#1791,#1794,.T.);
#1796=ORIENTED_EDGE('',*,*,#1795,.T.);
#1797=DIRECTION('',(0.98769,-0.15643,0.));
#1798=VECTOR('',#1797,1.87721);
#1799=LINE('',#1762,#1798);
#1800=EDGE_CURVE('',#1763,#1791,#1799,.T.);
#1801=ORIENTED_EDGE('',*,*,#1800,.F.);
#1802=ORIENTED_EDGE('',*,*,#1767,.F.);
#1803=EDGE_LOOP('',(#1789,#1796,#1801,#1802));
#1804=FACE_OUTER_BOUND('',#1803,.T.);
#1805=CARTESIAN_POINT('',(857.21885,-233.55951,555.));
#1806=DIRECTION('',(-0.14026,-0.88559,0.44279));
#1807=DIRECTION('',(0.98769,-0.15643,0.));
#1808=AXIS2_PLACEMENT_3D('',#1805,#1806,#1807);
#1809=PLANE('',#1808);
#1810=ADVANCED_FACE('',(#1804),#1809,.T.);
#1811=CARTESIAN_POINT('',(862.78115,-233.55951,555.));
#1812=VERTEX_POINT('',#1811);
#1813=DIRECTION('',(0.98769,0.15643,0.));
#1814=VECTOR('',#1813,2.81582);
#1815=LINE('',#1783,#1814);
#1816=EDGE_CURVE('',#1784,#1812,#1815,.T.);
#1817=ORIENTED_EDGE('',*,*,#1816,.T.);
#1818=CARTESIAN_POINT('',(861.8541,-230.70634,561.));
#1819=VERTEX_POINT('',#1818);
#1820=DIRECTION('',(-0.1382,0.42533,0.89443));
#1821=VECTOR('',#1820,6.7082);
#1822=LINE('',#1811,#1821);
#1823=EDGE_CURVE('',#1812,#1819,#1822,.T.);
#1824=ORIENTED_EDGE('',*,*,#1823,.T.);
#1825=DIRECTION('',(0.98769,0.15643,0.));
#1826=VECTOR('',#1825,1.87721);
#1827=LINE('',#1790,#1826);
#1828=EDGE_CURVE('',#1791,#1819,#1827,.T.);
#1829=ORIENTED_EDGE('',*,*,#1828,.F.);
#1830=ORIENTED_EDGE('',*,*,#1795,.F.);
#1831=EDGE_LOOP('',(#1817,#1824,#1829,#1830));
#1832=FACE_OUTER_BOUND('',#1831,.T.);
#1833=CARTESIAN_POINT('',(860.,-234.,555.));
#1834=DIRECTION('',(0.14026,-0.88559,0.44279));
#1835=DIRECTION('',(0.98769,0.15643,0.));
#1836=AXIS2_PLACEMENT_3D('',#1833,#1834,#1835);
#1837=PLANE('',#1836);
#1838=ADVANCED_FACE('',(#1832),#1837,.T.);
#1839=CARTESIAN_POINT('',(865.29007,-232.28115,555.));
#1840=VERTEX_POINT('',#1839);
#1841=DIRECTION('',(0.89101,0.45399,0.));
#1842=VECTOR('',#1841,2.81582);
#1843=LINE('',#1811,#1842);
#1844=EDGE_CURVE('',#1812,#1840,#1843,.T.);
#1845=ORIENTED_EDGE('',*,*,#1844,.T.);
#1846=CARTESIAN_POINT('',(863.52671,-229.8541,561.));
#1847=VERTEX_POINT('',#1846);
#1848=DIRECTION('',(-0.26287,0.3618,0.89443));
#1849=VECTOR('',#1848,6.7082);
#1850=LINE('',#1839,#1849);
#1851=EDGE_CURVE('',#1840,#1847,#1850,.T.);
#1852=ORIENTED_EDGE('',*,*,#1851,.T.);
#1853=DIRECTION('',(0.89101,0.45399,0.));
#1854=VECTOR('',#1853,1.87721);
#1855=LINE('',#1818,#1854);
#1856=EDGE_CURVE('',#1819,#1847,#1855,.T.);
#1857=ORIENTED_EDGE('',*,*,#1856,.F.);
#1858=ORIENTED_EDGE('',*,*,#1823,.F.);
#1859=EDGE_LOOP('',(#1845,#1852,#1857,#1858));
#1860=FACE_OUTER_BOUND('',#1859,.T.);
#1861=CARTESIAN_POINT('',(862.78115,-233.55951,555.));
#1862=DIRECTION('',(0.40706,-0.7989,0.44279));
#1863=DIRECTION('',(0.89101,0.45399,0.));
#1864=AXIS2_PLACEMENT_3D('',#1861,#1862,#1863);
#1865=PLANE('',#1864);
#1866=ADVANCED_FACE('',(#1860),#1865,.T.);
#1867=CARTESIAN_POINT('',(867.28115,-230.29007,555.));
#1868=VERTEX_POINT('',#1867);
#1869=DIRECTION('',(0.70711,0.70711,0.));
#1870=VECTOR('',#1869,2.81582);
#1871=LINE('',#1839,#1870);
#1872=EDGE_CURVE('',#1840,#1868,#1871,.T.);
#1873=ORIENTED_EDGE('',*,*,#1872,.T.);
#1874=CARTESIAN_POINT('',(864.8541,-228.52671,561.));
#1875=VERTEX_POINT('',#1874);
#1876=DIRECTION('',(-0.3618,0.26287,0.89443));
#1877=VECTOR('',#1876,6.7082);
#1878=LINE('',#1867,#1877);
#1879=EDGE_CURVE('',#1868,#1875,#1878,.T.);
#1880=ORIENTED_EDGE('',*,*,#1879,.T.);
#1881=DIRECTION('',(0.70711,0.70711,0.));
#1882=VECTOR('',#1881,1.87721);
#1883=LINE('',#1846,#1882);
#1884=EDGE_CURVE('',#1847,#1875,#1883,.T.);
#1885=ORIENTED_EDGE('',*,*,#1884,.F.);
#1886=ORIENTED_EDGE('',*,*,#1851,.F.);
#1887=EDGE_LOOP('',(#1873,#1880,#1885,#1886));
#1888=FACE_OUTER_BOUND('',#1887,.T.);
#1889=CARTESIAN_POINT('',(865.29007,-232.28115,555.));
#1890=DIRECTION('',(0.63401,-0.63401,0.44279));
#1891=DIRECTION('',(0.70711,0.70711,0.));
#1892=AXIS2_PLACEMENT_3D('',#1889,#1890,#1891);
#1893=PLANE('',#1892);
#1894=ADVANCED_FACE('',(#1888),#1893,.T.);
#1895=CARTESIAN_POINT('',(868.55951,-227.78115,555.));
#1896=VERTEX_POINT('',#1895);
#1897=DIRECTION('',(0.45399,0.89101,0.));
#1898=VECTOR('',#1897,2.81582);
#1899=LINE('',#1867,#1898);
#1900=EDGE_CURVE('',#1868,#1896,#1899,.T.);
#1901=ORIENTED_EDGE('',*,*,#1900,.T.);
#1902=CARTESIAN_POINT('',(865.70634,-226.8541,561.));
#1903=VERTEX_POINT('',#1902);
#1904=DIRECTION('',(-0.42533,0.1382,0.89443));
#1905=VECTOR('',#1904,6.7082);
#1906=LINE('',#1895,#1905);
#1907=EDGE_CURVE('',#1896,#1903,#1906,.T.);
#1908=ORIENTED_EDGE('',*,*,#1907,.T.);
#1909=DIRECTION('',(0.45399,0.89101,0.));
#1910=VECTOR('',#1909,1.87721);
#1911=LINE('',#1874,#1910);
#1912=EDGE_CURVE('',#1875,#1903,#1911,.T.);
#1913=ORIENTED_EDGE('',*,*,#1912,.F.);
#1914=ORIENTED_EDGE('',*,*,#1879,.F.);
#1915=EDGE_LOOP('',(#1901,#1908,#1913,#1914));
#1916=FACE_OUTER_BOUND('',#1915,.T.);
#1917=CARTESIAN_POINT('',(867.28115,-230.29007,555.));
#1918=DIRECTION('',(0.7989,-0.40706,0.44279));
#1919=DIRECTION('',(0.45399,0.89101,0.));
#1920=AXIS2_PLACEMENT_3D('',#1917,#1918,#1919);
#1921=PLANE('',#1920);
#1922=ADVANCED_FACE('',(#1916),#1921,.T.);
#1923=DIRECTION('',(-0.15643,-0.98769,0.));
#1924=VECTOR('',#1923,2.81582);
#1925=LINE('',#1383,#1924);
#1926=EDGE_CURVE('',#1384,#1896,#1925,.T.);
#1927=ORIENTED_EDGE('',*,*,#1926,.F.);
#1928=ORIENTED_EDGE('',*,*,#1409,.T.);
#1929=DIRECTION('',(-0.15643,-0.98769,0.));
#1930=VECTOR('',#1929,1.87721);
#1931=LINE('',#1399,#1930);
#1932=EDGE_CURVE('',#1400,#1903,#1931,.T.);
#1933=ORIENTED_EDGE('',*,*,#1932,.T.);
#1934=ORIENTED_EDGE('',*,*,#1907,.F.);
#1935=EDGE_LOOP('',(#1927,#1928,#1933,#1934));
#1936=FACE_OUTER_BOUND('',#1935,.T.);
#1937=CARTESIAN_POINT('',(868.55951,-227.78115,555.));
#1938=DIRECTION('',(0.88559,-0.14026,0.44279));
#1939=DIRECTION('',(0.15643,0.98769,0.));
#1940=AXIS2_PLACEMENT_3D('',#1937,#1938,#1939);
#1941=PLANE('',#1940);
#1942=ADVANCED_FACE('',(#1936),#1941,.T.);
#1943=ORIENTED_EDGE('',*,*,#1900,.F.);
#1944=ORIENTED_EDGE('',*,*,#1872,.F.);
#1945=ORIENTED_EDGE('',*,*,#1844,.F.);
#1946=ORIENTED_EDGE('',*,*,#1816,.F.);
#1947=ORIENTED_EDGE('',*,*,#1788,.F.);
#1948=ORIENTED_EDGE('',*,*,#1760,.F.);
#1949=ORIENTED_EDGE('',*,*,#1732,.F.);
#1950=ORIENTED_EDGE('',*,*,#1704,.F.);
#1951=ORIENTED_EDGE('',*,*,#1676,.F.);
#1952=ORIENTED_EDGE('',*,*,#1648,.F.);
#1953=ORIENTED_EDGE('',*,*,#1620,.F.);
#1954=ORIENTED_EDGE('',*,*,#1592,.F.);
#1955=ORIENTED_EDGE('',*,*,#1564,.F.);
#1956=ORIENTED_EDGE('',*,*,#1536,.F.);
#1957=ORIENTED_EDGE('',*,*,#1508,.F.);
#1958=ORIENTED_EDGE('',*,*,#1480,.F.);
#1959=ORIENTED_EDGE('',*,*,#1452,.F.);
#1960=ORIENTED_EDGE('',*,*,#1424,.F.);
#1961=ORIENTED_EDGE('',*,*,#1390,.F.);
#1962=ORIENTED_EDGE('',*,*,#1926,.T.);
#1963=EDGE_LOOP('',(#1943,#1944,#1945,#1946,#1947,#1948,#1949,#1950,#1951,#1952,#1953,#1954,#1955,#1956,#1957,#1958,#1959,#1960,#1961,#1962));
#1964=FACE_OUTER_BOUND('',#1963,.T.);
#1965=CARTESIAN_POINT('',(868.55951,-227.78115,555.));
#1966=DIRECTION('',(0.,0.,-1.));
#1967=DIRECTION('',(-0.45399,-0.89101,0.));
#1968=AXIS2_PLACEMENT_3D('',#1965,#1966,#1967);
#1969=PLANE('',#1968);
#1970=ADVANCED_FACE('',(#1964),#1969,.T.);
#1971=ORIENTED_EDGE('',*,*,#1404,.T.);
#1972=ORIENTED_EDGE('',*,*,#1436,.T.);
#1973=ORIENTED_EDGE('',*,*,#1464,.T.);
#1974=ORIENTED_EDGE('',*,*,#1492,.T.);
#1975=ORIENTED_EDGE('',*,*,#1520,.T.);
#1976=ORIENTED_EDGE('',*,*,#1548,.T.);
#1977=ORIENTED_EDGE('',*,*,#1576,.T.);
#1978=ORIENTED_EDGE('',*,*,#1604,.T.);
#1979=ORIENTED_EDGE('',*,*,#1632,.T.);
#1980=ORIENTED_EDGE('',*,*,#1660,.T.);
#1981=ORIENTED_EDGE('',*,*,#1688,.T.);
#1982=ORIENTED_EDGE('',*,*,#1716,.T.);
#1983=ORIENTED_EDGE('',*,*,#1744,.T.);
#1984=ORIENTED_EDGE('',*,*,#1772,.T.);
#1985=ORIENTED_EDGE('',*,*,#1800,.T.);
#1986=ORIENTED_EDGE('',*,*,#1828,.T.);
#1987=ORIENTED_EDGE('',*,*,#1856,.T.);
#1988=ORIENTED_EDGE('',*,*,#1884,.T.);
#1989=ORIENTED_EDGE('',*,*,#1912,.T.);
#1990=ORIENTED_EDGE('',*,*,#1932,.F.);
#1991=EDGE_LOOP('',(#1971,#1972,#1973,#1974,#1975,#1976,#1977,#1978,#1979,#1980,#1981,#1982,#1983,#1984,#1985,#1986,#1987,#1988,#1989,#1990));
#1992=FACE_OUTER_BOUND('',#1991,.T.);
#1993=CARTESIAN_POINT('',(866.,-225.,561.));
#1994=DIRECTION('',(0.,0.,1.));
#1995=DIRECTION('',(-0.15643,0.98769,0.));
#1996=AXIS2_PLACEMENT_3D('',#1993,#1994,#1995);
#1997=PLANE('',#1996);
#1998=ADVANCED_FACE('',(#1992),#1997,.T.);
#1999=CLOSED_SHELL('',(#1418,#1446,#1474,#1502,#1530,#1558,#1586,#1614,#1642,#1670,#1698,#1726,#1754,#1782,#1810,#1838,#1866,#1894,#1922,#1942,#1970,#1998));
#2000=MANIFOLD_SOLID_BREP('',#1999);
#2001=STYLED_ITEM('color',(#762),#2000);
#2002=ADVANCED_BREP_SHAPE_REPRESENTATION('',(#17,#755,#1381,#2000),#9);
#2003=SHAPE_DEFINITION_REPRESENTATION(#13,#2002);
#2004=MECHANICAL_DESIGN_GEOMETRIC_PRESENTATION_REPRESENTATION('',(#763,#1382,#2001),#9);
#2005=PRODUCT_RELATED_PRODUCT_CATEGORY('part',$,(#10));
ENDSEC;
END-ISO-10303-21;
