ISO-10303-21;
HEADER;
FILE_DESCRIPTION(('AquaSentinel R3 - planar B-rep export'),'2;1');
FILE_NAME('Pole top cap','2026-10-04T21:49:44',('AquaSentinel team'),('Sanjivani University'),'AquaSentinel R3 python build','AquaSentinel R3','');
FILE_SCHEMA(('AUTOMOTIVE_DESIGN { 1 0 10303 214 1 1 1 1 }'));
ENDSEC;
DATA;
#1=APPLICATION_CONTEXT('core data for automotive mechanical design processes');
#2=APPLICATION_PROTOCOL_DEFINITION('international standard','automotive_design',2000,#1);
#3=PRODUCT_CONTEXT('',#1,'mechanical');
#4=PRODUCT_DEFINITION_CONTEXT('part definition',#1,'design');
#5=(LENGTH_UNIT()NAMED_UNIT(*)SI_UNIT(.MILLI.,.METRE.));
#6=(NAMED_UNIT(*)PLANE_ANGLE_UNIT()SI_UNIT($,.RADIAN.));
#7=(NAMED_UNIT(*)SI_UNIT($,.STERADIAN.)SOLID_ANGLE_UNIT());
#8=UNCERTAINTY_MEASURE_WITH_UNIT(LENGTH_MEASURE(1.E-04),#5,'distance_accuracy_value','confusion accuracy');
#9=(GEOMETRIC_REPRESENTATION_CONTEXT(3)GLOBAL_UNCERTAINTY_ASSIGNED_CONTEXT((#8))GLOBAL_UNIT_ASSIGNED_CONTEXT((#5,#6,#7))REPRESENTATION_CONTEXT('Context','3D Context with UNIT and UNCERTAINTY'));
#10=PRODUCT('AS3-112','Pole top cap','',(#3));
#11=PRODUCT_DEFINITION_FORMATION('','',#10);
#12=PRODUCT_DEFINITION('design','',#11,#4);
#13=PRODUCT_DEFINITION_SHAPE('','',#12);
#14=CARTESIAN_POINT('',(0.,0.,0.));
#15=DIRECTION('',(0.,0.,1.));
#16=DIRECTION('',(1.,0.,0.));
#17=AXIS2_PLACEMENT_3D('',#14,#15,#16);
#18=CARTESIAN_POINT('',(32.15,0.,0.));
#19=VERTEX_POINT('',#18);
#20=CARTESIAN_POINT('',(31.75418,5.02937,0.));
#21=VERTEX_POINT('',#20);
#22=DIRECTION('',(-0.07846,0.99692,0.));
#23=VECTOR('',#22,5.04492);
#24=LINE('',#18,#23);
#25=EDGE_CURVE('',#19,#21,#24,.T.);
#26=ORIENTED_EDGE('',*,*,#25,.T.);
#27=CARTESIAN_POINT('',(31.75418,5.02937,18.));
#28=VERTEX_POINT('',#27);
#29=DIRECTION('',(0.,0.,1.));
#30=VECTOR('',#29,18.);
#31=LINE('',#20,#30);
#32=EDGE_CURVE('',#21,#28,#31,.T.);
#33=ORIENTED_EDGE('',*,*,#32,.T.);
#34=CARTESIAN_POINT('',(32.15,0.,18.));
#35=VERTEX_POINT('',#34);
#36=DIRECTION('',(-0.07846,0.99692,0.));
#37=VECTOR('',#36,5.04492);
#38=LINE('',#34,#37);
#39=EDGE_CURVE('',#35,#28,#38,.T.);
#40=ORIENTED_EDGE('',*,*,#39,.F.);
#41=DIRECTION('',(0.,0.,1.));
#42=VECTOR('',#41,18.);
#43=LINE('',#18,#42);
#44=EDGE_CURVE('',#19,#35,#43,.T.);
#45=ORIENTED_EDGE('',*,*,#44,.F.);
#46=EDGE_LOOP('',(#26,#33,#40,#45));
#47=FACE_OUTER_BOUND('',#46,.T.);
#48=CARTESIAN_POINT('',(32.15,0.,0.));
#49=DIRECTION('',(0.99692,0.07846,0.));
#50=DIRECTION('',(-0.07846,0.99692,0.));
#51=AXIS2_PLACEMENT_3D('',#48,#49,#50);
#52=PLANE('',#51);
#53=ADVANCED_FACE('',(#47),#52,.T.);
#54=CARTESIAN_POINT('',(30.57647,9.9349,0.));
#55=VERTEX_POINT('',#54);
#56=DIRECTION('',(-0.23345,0.97237,0.));
#57=VECTOR('',#56,5.04492);
#58=LINE('',#20,#57);
#59=EDGE_CURVE('',#21,#55,#58,.T.);
#60=ORIENTED_EDGE('',*,*,#59,.T.);
#61=CARTESIAN_POINT('',(30.57647,9.9349,18.));
#62=VERTEX_POINT('',#61);
#63=DIRECTION('',(0.,0.,1.));
#64=VECTOR('',#63,18.);
#65=LINE('',#54,#64);
#66=EDGE_CURVE('',#55,#62,#65,.T.);
#67=ORIENTED_EDGE('',*,*,#66,.T.);
#68=DIRECTION('',(-0.23345,0.97237,0.));
#69=VECTOR('',#68,5.04492);
#70=LINE('',#27,#69);
#71=EDGE_CURVE('',#28,#62,#70,.T.);
#72=ORIENTED_EDGE('',*,*,#71,.F.);
#73=ORIENTED_EDGE('',*,*,#32,.F.);
#74=EDGE_LOOP('',(#60,#67,#72,#73));
#75=FACE_OUTER_BOUND('',#74,.T.);
#76=CARTESIAN_POINT('',(31.75418,5.02937,0.));
#77=DIRECTION('',(0.97237,0.23345,0.));
#78=DIRECTION('',(-0.23345,0.97237,0.));
#79=AXIS2_PLACEMENT_3D('',#76,#77,#78);
#80=PLANE('',#79);
#81=ADVANCED_FACE('',(#75),#80,.T.);
#82=CARTESIAN_POINT('',(28.64586,14.59579,0.));
#83=VERTEX_POINT('',#82);
#84=DIRECTION('',(-0.38268,0.92388,0.));
#85=VECTOR('',#84,5.04492);
#86=LINE('',#54,#85);
#87=EDGE_CURVE('',#55,#83,#86,.T.);
#88=ORIENTED_EDGE('',*,*,#87,.T.);
#89=CARTESIAN_POINT('',(28.64586,14.59579,18.));
#90=VERTEX_POINT('',#89);
#91=DIRECTION('',(0.,0.,1.));
#92=VECTOR('',#91,18.);
#93=LINE('',#82,#92);
#94=EDGE_CURVE('',#83,#90,#93,.T.);
#95=ORIENTED_EDGE('',*,*,#94,.T.);
#96=DIRECTION('',(-0.38268,0.92388,0.));
#97=VECTOR('',#96,5.04492);
#98=LINE('',#61,#97);
#99=EDGE_CURVE('',#62,#90,#98,.T.);
#100=ORIENTED_EDGE('',*,*,#99,.F.);
#101=ORIENTED_EDGE('',*,*,#66,.F.);
#102=EDGE_LOOP('',(#88,#95,#100,#101));
#103=FACE_OUTER_BOUND('',#102,.T.);
#104=CARTESIAN_POINT('',(30.57647,9.9349,0.));
#105=DIRECTION('',(0.92388,0.38268,0.));
#106=DIRECTION('',(-0.38268,0.92388,0.));
#107=AXIS2_PLACEMENT_3D('',#104,#105,#106);
#108=PLANE('',#107);
#109=ADVANCED_FACE('',(#103),#108,.T.);
#110=CARTESIAN_POINT('',(26.0099,18.8973,0.));
#111=VERTEX_POINT('',#110);
#112=DIRECTION('',(-0.5225,0.85264,0.));
#113=VECTOR('',#112,5.04492);
#114=LINE('',#82,#113);
#115=EDGE_CURVE('',#83,#111,#114,.T.);
#116=ORIENTED_EDGE('',*,*,#115,.T.);
#117=CARTESIAN_POINT('',(26.0099,18.8973,18.));
#118=VERTEX_POINT('',#117);
#119=DIRECTION('',(0.,0.,1.));
#120=VECTOR('',#119,18.);
#121=LINE('',#110,#120);
#122=EDGE_CURVE('',#111,#118,#121,.T.);
#123=ORIENTED_EDGE('',*,*,#122,.T.);
#124=DIRECTION('',(-0.5225,0.85264,0.));
#125=VECTOR('',#124,5.04492);
#126=LINE('',#89,#125);
#127=EDGE_CURVE('',#90,#118,#126,.T.);
#128=ORIENTED_EDGE('',*,*,#127,.F.);
#129=ORIENTED_EDGE('',*,*,#94,.F.);
#130=EDGE_LOOP('',(#116,#123,#128,#129));
#131=FACE_OUTER_BOUND('',#130,.T.);
#132=CARTESIAN_POINT('',(28.64586,14.59579,0.));
#133=DIRECTION('',(0.85264,0.5225,0.));
#134=DIRECTION('',(-0.5225,0.85264,0.));
#135=AXIS2_PLACEMENT_3D('',#132,#133,#134);
#136=PLANE('',#135);
#137=ADVANCED_FACE('',(#131),#136,.T.);
#138=CARTESIAN_POINT('',(22.73348,22.73348,0.));
#139=VERTEX_POINT('',#138);
#140=DIRECTION('',(-0.64945,0.76041,0.));
#141=VECTOR('',#140,5.04492);
#142=LINE('',#110,#141);
#143=EDGE_CURVE('',#111,#139,#142,.T.);
#144=ORIENTED_EDGE('',*,*,#143,.T.);
#145=CARTESIAN_POINT('',(22.73348,22.73348,18.));
#146=VERTEX_POINT('',#145);
#147=DIRECTION('',(0.,0.,1.));
#148=VECTOR('',#147,18.);
#149=LINE('',#138,#148);
#150=EDGE_CURVE('',#139,#146,#149,.T.);
#151=ORIENTED_EDGE('',*,*,#150,.T.);
#152=DIRECTION('',(-0.64945,0.76041,0.));
#153=VECTOR('',#152,5.04492);
#154=LINE('',#117,#153);
#155=EDGE_CURVE('',#118,#146,#154,.T.);
#156=ORIENTED_EDGE('',*,*,#155,.F.);
#157=ORIENTED_EDGE('',*,*,#122,.F.);
#158=EDGE_LOOP('',(#144,#151,#156,#157));
#159=FACE_OUTER_BOUND('',#158,.T.);
#160=CARTESIAN_POINT('',(26.0099,18.8973,0.));
#161=DIRECTION('',(0.76041,0.64945,0.));
#162=DIRECTION('',(-0.64945,0.76041,0.));
#163=AXIS2_PLACEMENT_3D('',#160,#161,#162);
#164=PLANE('',#163);
#165=ADVANCED_FACE('',(#159),#164,.T.);
#166=CARTESIAN_POINT('',(18.8973,26.0099,0.));
#167=VERTEX_POINT('',#166);
#168=DIRECTION('',(-0.76041,0.64945,0.));
#169=VECTOR('',#168,5.04492);
#170=LINE('',#138,#169);
#171=EDGE_CURVE('',#139,#167,#170,.T.);
#172=ORIENTED_EDGE('',*,*,#171,.T.);
#173=CARTESIAN_POINT('',(18.8973,26.0099,18.));
#174=VERTEX_POINT('',#173);
#175=DIRECTION('',(0.,0.,1.));
#176=VECTOR('',#175,18.);
#177=LINE('',#166,#176);
#178=EDGE_CURVE('',#167,#174,#177,.T.);
#179=ORIENTED_EDGE('',*,*,#178,.T.);
#180=DIRECTION('',(-0.76041,0.64945,0.));
#181=VECTOR('',#180,5.04492);
#182=LINE('',#145,#181);
#183=EDGE_CURVE('',#146,#174,#182,.T.);
#184=ORIENTED_EDGE('',*,*,#183,.F.);
#185=ORIENTED_EDGE('',*,*,#150,.F.);
#186=EDGE_LOOP('',(#172,#179,#184,#185));
#187=FACE_OUTER_BOUND('',#186,.T.);
#188=CARTESIAN_POINT('',(22.73348,22.73348,0.));
#189=DIRECTION('',(0.64945,0.76041,0.));
#190=DIRECTION('',(-0.76041,0.64945,0.));
#191=AXIS2_PLACEMENT_3D('',#188,#189,#190);
#192=PLANE('',#191);
#193=ADVANCED_FACE('',(#187),#192,.T.);
#194=CARTESIAN_POINT('',(14.59579,28.64586,0.));
#195=VERTEX_POINT('',#194);
#196=DIRECTION('',(-0.85264,0.5225,0.));
#197=VECTOR('',#196,5.04492);
#198=LINE('',#166,#197);
#199=EDGE_CURVE('',#167,#195,#198,.T.);
#200=ORIENTED_EDGE('',*,*,#199,.T.);
#201=CARTESIAN_POINT('',(14.59579,28.64586,18.));
#202=VERTEX_POINT('',#201);
#203=DIRECTION('',(0.,0.,1.));
#204=VECTOR('',#203,18.);
#205=LINE('',#194,#204);
#206=EDGE_CURVE('',#195,#202,#205,.T.);
#207=ORIENTED_EDGE('',*,*,#206,.T.);
#208=DIRECTION('',(-0.85264,0.5225,0.));
#209=VECTOR('',#208,5.04492);
#210=LINE('',#173,#209);
#211=EDGE_CURVE('',#174,#202,#210,.T.);
#212=ORIENTED_EDGE('',*,*,#211,.F.);
#213=ORIENTED_EDGE('',*,*,#178,.F.);
#214=EDGE_LOOP('',(#200,#207,#212,#213));
#215=FACE_OUTER_BOUND('',#214,.T.);
#216=CARTESIAN_POINT('',(18.8973,26.0099,0.));
#217=DIRECTION('',(0.5225,0.85264,0.));
#218=DIRECTION('',(-0.85264,0.5225,0.));
#219=AXIS2_PLACEMENT_3D('',#216,#217,#218);
#220=PLANE('',#219);
#221=ADVANCED_FACE('',(#215),#220,.T.);
#222=CARTESIAN_POINT('',(9.9349,30.57647,0.));
#223=VERTEX_POINT('',#222);
#224=DIRECTION('',(-0.92388,0.38268,0.));
#225=VECTOR('',#224,5.04492);
#226=LINE('',#194,#225);
#227=EDGE_CURVE('',#195,#223,#226,.T.);
#228=ORIENTED_EDGE('',*,*,#227,.T.);
#229=CARTESIAN_POINT('',(9.9349,30.57647,18.));
#230=VERTEX_POINT('',#229);
#231=DIRECTION('',(0.,0.,1.));
#232=VECTOR('',#231,18.);
#233=LINE('',#222,#232);
#234=EDGE_CURVE('',#223,#230,#233,.T.);
#235=ORIENTED_EDGE('',*,*,#234,.T.);
#236=DIRECTION('',(-0.92388,0.38268,0.));
#237=VECTOR('',#236,5.04492);
#238=LINE('',#201,#237);
#239=EDGE_CURVE('',#202,#230,#238,.T.);
#240=ORIENTED_EDGE('',*,*,#239,.F.);
#241=ORIENTED_EDGE('',*,*,#206,.F.);
#242=EDGE_LOOP('',(#228,#235,#240,#241));
#243=FACE_OUTER_BOUND('',#242,.T.);
#244=CARTESIAN_POINT('',(14.59579,28.64586,0.));
#245=DIRECTION('',(0.38268,0.92388,0.));
#246=DIRECTION('',(-0.92388,0.38268,0.));
#247=AXIS2_PLACEMENT_3D('',#244,#245,#246);
#248=PLANE('',#247);
#249=ADVANCED_FACE('',(#243),#248,.T.);
#250=CARTESIAN_POINT('',(5.02937,31.75418,0.));
#251=VERTEX_POINT('',#250);
#252=DIRECTION('',(-0.97237,0.23345,0.));
#253=VECTOR('',#252,5.04492);
#254=LINE('',#222,#253);
#255=EDGE_CURVE('',#223,#251,#254,.T.);
#256=ORIENTED_EDGE('',*,*,#255,.T.);
#257=CARTESIAN_POINT('',(5.02937,31.75418,18.));
#258=VERTEX_POINT('',#257);
#259=DIRECTION('',(0.,0.,1.));
#260=VECTOR('',#259,18.);
#261=LINE('',#250,#260);
#262=EDGE_CURVE('',#251,#258,#261,.T.);
#263=ORIENTED_EDGE('',*,*,#262,.T.);
#264=DIRECTION('',(-0.97237,0.23345,0.));
#265=VECTOR('',#264,5.04492);
#266=LINE('',#229,#265);
#267=EDGE_CURVE('',#230,#258,#266,.T.);
#268=ORIENTED_EDGE('',*,*,#267,.F.);
#269=ORIENTED_EDGE('',*,*,#234,.F.);
#270=EDGE_LOOP('',(#256,#263,#268,#269));
#271=FACE_OUTER_BOUND('',#270,.T.);
#272=CARTESIAN_POINT('',(9.9349,30.57647,0.));
#273=DIRECTION('',(0.23345,0.97237,0.));
#274=DIRECTION('',(-0.97237,0.23345,0.));
#275=AXIS2_PLACEMENT_3D('',#272,#273,#274);
#276=PLANE('',#275);
#277=ADVANCED_FACE('',(#271),#276,.T.);
#278=CARTESIAN_POINT('',(0.,32.15,0.));
#279=VERTEX_POINT('',#278);
#280=DIRECTION('',(-0.99692,0.07846,0.));
#281=VECTOR('',#280,5.04492);
#282=LINE('',#250,#281);
#283=EDGE_CURVE('',#251,#279,#282,.T.);
#284=ORIENTED_EDGE('',*,*,#283,.T.);
#285=CARTESIAN_POINT('',(0.,32.15,18.));
#286=VERTEX_POINT('',#285);
#287=DIRECTION('',(0.,0.,1.));
#288=VECTOR('',#287,18.);
#289=LINE('',#278,#288);
#290=EDGE_CURVE('',#279,#286,#289,.T.);
#291=ORIENTED_EDGE('',*,*,#290,.T.);
#292=DIRECTION('',(-0.99692,0.07846,0.));
#293=VECTOR('',#292,5.04492);
#294=LINE('',#257,#293);
#295=EDGE_CURVE('',#258,#286,#294,.T.);
#296=ORIENTED_EDGE('',*,*,#295,.F.);
#297=ORIENTED_EDGE('',*,*,#262,.F.);
#298=EDGE_LOOP('',(#284,#291,#296,#297));
#299=FACE_OUTER_BOUND('',#298,.T.);
#300=CARTESIAN_POINT('',(5.02937,31.75418,0.));
#301=DIRECTION('',(0.07846,0.99692,0.));
#302=DIRECTION('',(-0.99692,0.07846,0.));
#303=AXIS2_PLACEMENT_3D('',#300,#301,#302);
#304=PLANE('',#303);
#305=ADVANCED_FACE('',(#299),#304,.T.);
#306=CARTESIAN_POINT('',(-5.02937,31.75418,0.));
#307=VERTEX_POINT('',#306);
#308=DIRECTION('',(-0.99692,-0.07846,0.));
#309=VECTOR('',#308,5.04492);
#310=LINE('',#278,#309);
#311=EDGE_CURVE('',#279,#307,#310,.T.);
#312=ORIENTED_EDGE('',*,*,#311,.T.);
#313=CARTESIAN_POINT('',(-5.02937,31.75418,18.));
#314=VERTEX_POINT('',#313);
#315=DIRECTION('',(0.,0.,1.));
#316=VECTOR('',#315,18.);
#317=LINE('',#306,#316);
#318=EDGE_CURVE('',#307,#314,#317,.T.);
#319=ORIENTED_EDGE('',*,*,#318,.T.);
#320=DIRECTION('',(-0.99692,-0.07846,0.));
#321=VECTOR('',#320,5.04492);
#322=LINE('',#285,#321);
#323=EDGE_CURVE('',#286,#314,#322,.T.);
#324=ORIENTED_EDGE('',*,*,#323,.F.);
#325=ORIENTED_EDGE('',*,*,#290,.F.);
#326=EDGE_LOOP('',(#312,#319,#324,#325));
#327=FACE_OUTER_BOUND('',#326,.T.);
#328=CARTESIAN_POINT('',(0.,32.15,0.));
#329=DIRECTION('',(-0.07846,0.99692,0.));
#330=DIRECTION('',(-0.99692,-0.07846,0.));
#331=AXIS2_PLACEMENT_3D('',#328,#329,#330);
#332=PLANE('',#331);
#333=ADVANCED_FACE('',(#327),#332,.T.);
#334=CARTESIAN_POINT('',(-9.9349,30.57647,0.));
#335=VERTEX_POINT('',#334);
#336=DIRECTION('',(-0.97237,-0.23345,0.));
#337=VECTOR('',#336,5.04492);
#338=LINE('',#306,#337);
#339=EDGE_CURVE('',#307,#335,#338,.T.);
#340=ORIENTED_EDGE('',*,*,#339,.T.);
#341=CARTESIAN_POINT('',(-9.9349,30.57647,18.));
#342=VERTEX_POINT('',#341);
#343=DIRECTION('',(0.,0.,1.));
#344=VECTOR('',#343,18.);
#345=LINE('',#334,#344);
#346=EDGE_CURVE('',#335,#342,#345,.T.);
#347=ORIENTED_EDGE('',*,*,#346,.T.);
#348=DIRECTION('',(-0.97237,-0.23345,0.));
#349=VECTOR('',#348,5.04492);
#350=LINE('',#313,#349);
#351=EDGE_CURVE('',#314,#342,#350,.T.);
#352=ORIENTED_EDGE('',*,*,#351,.F.);
#353=ORIENTED_EDGE('',*,*,#318,.F.);
#354=EDGE_LOOP('',(#340,#347,#352,#353));
#355=FACE_OUTER_BOUND('',#354,.T.);
#356=CARTESIAN_POINT('',(-5.02937,31.75418,0.));
#357=DIRECTION('',(-0.23345,0.97237,0.));
#358=DIRECTION('',(-0.97237,-0.23345,0.));
#359=AXIS2_PLACEMENT_3D('',#356,#357,#358);
#360=PLANE('',#359);
#361=ADVANCED_FACE('',(#355),#360,.T.);
#362=CARTESIAN_POINT('',(-14.59579,28.64586,0.));
#363=VERTEX_POINT('',#362);
#364=DIRECTION('',(-0.92388,-0.38268,0.));
#365=VECTOR('',#364,5.04492);
#366=LINE('',#334,#365);
#367=EDGE_CURVE('',#335,#363,#366,.T.);
#368=ORIENTED_EDGE('',*,*,#367,.T.);
#369=CARTESIAN_POINT('',(-14.59579,28.64586,18.));
#370=VERTEX_POINT('',#369);
#371=DIRECTION('',(0.,0.,1.));
#372=VECTOR('',#371,18.);
#373=LINE('',#362,#372);
#374=EDGE_CURVE('',#363,#370,#373,.T.);
#375=ORIENTED_EDGE('',*,*,#374,.T.);
#376=DIRECTION('',(-0.92388,-0.38268,0.));
#377=VECTOR('',#376,5.04492);
#378=LINE('',#341,#377);
#379=EDGE_CURVE('',#342,#370,#378,.T.);
#380=ORIENTED_EDGE('',*,*,#379,.F.);
#381=ORIENTED_EDGE('',*,*,#346,.F.);
#382=EDGE_LOOP('',(#368,#375,#380,#381));
#383=FACE_OUTER_BOUND('',#382,.T.);
#384=CARTESIAN_POINT('',(-9.9349,30.57647,0.));
#385=DIRECTION('',(-0.38268,0.92388,0.));
#386=DIRECTION('',(-0.92388,-0.38268,0.));
#387=AXIS2_PLACEMENT_3D('',#384,#385,#386);
#388=PLANE('',#387);
#389=ADVANCED_FACE('',(#383),#388,.T.);
#390=CARTESIAN_POINT('',(-18.8973,26.0099,0.));
#391=VERTEX_POINT('',#390);
#392=DIRECTION('',(-0.85264,-0.5225,0.));
#393=VECTOR('',#392,5.04492);
#394=LINE('',#362,#393);
#395=EDGE_CURVE('',#363,#391,#394,.T.);
#396=ORIENTED_EDGE('',*,*,#395,.T.);
#397=CARTESIAN_POINT('',(-18.8973,26.0099,18.));
#398=VERTEX_POINT('',#397);
#399=DIRECTION('',(0.,0.,1.));
#400=VECTOR('',#399,18.);
#401=LINE('',#390,#400);
#402=EDGE_CURVE('',#391,#398,#401,.T.);
#403=ORIENTED_EDGE('',*,*,#402,.T.);
#404=DIRECTION('',(-0.85264,-0.5225,0.));
#405=VECTOR('',#404,5.04492);
#406=LINE('',#369,#405);
#407=EDGE_CURVE('',#370,#398,#406,.T.);
#408=ORIENTED_EDGE('',*,*,#407,.F.);
#409=ORIENTED_EDGE('',*,*,#374,.F.);
#410=EDGE_LOOP('',(#396,#403,#408,#409));
#411=FACE_OUTER_BOUND('',#410,.T.);
#412=CARTESIAN_POINT('',(-14.59579,28.64586,0.));
#413=DIRECTION('',(-0.5225,0.85264,0.));
#414=DIRECTION('',(-0.85264,-0.5225,0.));
#415=AXIS2_PLACEMENT_3D('',#412,#413,#414);
#416=PLANE('',#415);
#417=ADVANCED_FACE('',(#411),#416,.T.);
#418=CARTESIAN_POINT('',(-22.73348,22.73348,0.));
#419=VERTEX_POINT('',#418);
#420=DIRECTION('',(-0.76041,-0.64945,0.));
#421=VECTOR('',#420,5.04492);
#422=LINE('',#390,#421);
#423=EDGE_CURVE('',#391,#419,#422,.T.);
#424=ORIENTED_EDGE('',*,*,#423,.T.);
#425=CARTESIAN_POINT('',(-22.73348,22.73348,18.));
#426=VERTEX_POINT('',#425);
#427=DIRECTION('',(0.,0.,1.));
#428=VECTOR('',#427,18.);
#429=LINE('',#418,#428);
#430=EDGE_CURVE('',#419,#426,#429,.T.);
#431=ORIENTED_EDGE('',*,*,#430,.T.);
#432=DIRECTION('',(-0.76041,-0.64945,0.));
#433=VECTOR('',#432,5.04492);
#434=LINE('',#397,#433);
#435=EDGE_CURVE('',#398,#426,#434,.T.);
#436=ORIENTED_EDGE('',*,*,#435,.F.);
#437=ORIENTED_EDGE('',*,*,#402,.F.);
#438=EDGE_LOOP('',(#424,#431,#436,#437));
#439=FACE_OUTER_BOUND('',#438,.T.);
#440=CARTESIAN_POINT('',(-18.8973,26.0099,0.));
#441=DIRECTION('',(-0.64945,0.76041,0.));
#442=DIRECTION('',(-0.76041,-0.64945,0.));
#443=AXIS2_PLACEMENT_3D('',#440,#441,#442);
#444=PLANE('',#443);
#445=ADVANCED_FACE('',(#439),#444,.T.);
#446=CARTESIAN_POINT('',(-26.0099,18.8973,0.));
#447=VERTEX_POINT('',#446);
#448=DIRECTION('',(-0.64945,-0.76041,0.));
#449=VECTOR('',#448,5.04492);
#450=LINE('',#418,#449);
#451=EDGE_CURVE('',#419,#447,#450,.T.);
#452=ORIENTED_EDGE('',*,*,#451,.T.);
#453=CARTESIAN_POINT('',(-26.0099,18.8973,18.));
#454=VERTEX_POINT('',#453);
#455=DIRECTION('',(0.,0.,1.));
#456=VECTOR('',#455,18.);
#457=LINE('',#446,#456);
#458=EDGE_CURVE('',#447,#454,#457,.T.);
#459=ORIENTED_EDGE('',*,*,#458,.T.);
#460=DIRECTION('',(-0.64945,-0.76041,0.));
#461=VECTOR('',#460,5.04492);
#462=LINE('',#425,#461);
#463=EDGE_CURVE('',#426,#454,#462,.T.);
#464=ORIENTED_EDGE('',*,*,#463,.F.);
#465=ORIENTED_EDGE('',*,*,#430,.F.);
#466=EDGE_LOOP('',(#452,#459,#464,#465));
#467=FACE_OUTER_BOUND('',#466,.T.);
#468=CARTESIAN_POINT('',(-22.73348,22.73348,0.));
#469=DIRECTION('',(-0.76041,0.64945,0.));
#470=DIRECTION('',(-0.64945,-0.76041,0.));
#471=AXIS2_PLACEMENT_3D('',#468,#469,#470);
#472=PLANE('',#471);
#473=ADVANCED_FACE('',(#467),#472,.T.);
#474=CARTESIAN_POINT('',(-28.64586,14.59579,0.));
#475=VERTEX_POINT('',#474);
#476=DIRECTION('',(-0.5225,-0.85264,0.));
#477=VECTOR('',#476,5.04492);
#478=LINE('',#446,#477);
#479=EDGE_CURVE('',#447,#475,#478,.T.);
#480=ORIENTED_EDGE('',*,*,#479,.T.);
#481=CARTESIAN_POINT('',(-28.64586,14.59579,18.));
#482=VERTEX_POINT('',#481);
#483=DIRECTION('',(0.,0.,1.));
#484=VECTOR('',#483,18.);
#485=LINE('',#474,#484);
#486=EDGE_CURVE('',#475,#482,#485,.T.);
#487=ORIENTED_EDGE('',*,*,#486,.T.);
#488=DIRECTION('',(-0.5225,-0.85264,0.));
#489=VECTOR('',#488,5.04492);
#490=LINE('',#453,#489);
#491=EDGE_CURVE('',#454,#482,#490,.T.);
#492=ORIENTED_EDGE('',*,*,#491,.F.);
#493=ORIENTED_EDGE('',*,*,#458,.F.);
#494=EDGE_LOOP('',(#480,#487,#492,#493));
#495=FACE_OUTER_BOUND('',#494,.T.);
#496=CARTESIAN_POINT('',(-26.0099,18.8973,0.));
#497=DIRECTION('',(-0.85264,0.5225,0.));
#498=DIRECTION('',(-0.5225,-0.85264,0.));
#499=AXIS2_PLACEMENT_3D('',#496,#497,#498);
#500=PLANE('',#499);
#501=ADVANCED_FACE('',(#495),#500,.T.);
#502=CARTESIAN_POINT('',(-30.57647,9.9349,0.));
#503=VERTEX_POINT('',#502);
#504=DIRECTION('',(-0.38268,-0.92388,0.));
#505=VECTOR('',#504,5.04492);
#506=LINE('',#474,#505);
#507=EDGE_CURVE('',#475,#503,#506,.T.);
#508=ORIENTED_EDGE('',*,*,#507,.T.);
#509=CARTESIAN_POINT('',(-30.57647,9.9349,18.));
#510=VERTEX_POINT('',#509);
#511=DIRECTION('',(0.,0.,1.));
#512=VECTOR('',#511,18.);
#513=LINE('',#502,#512);
#514=EDGE_CURVE('',#503,#510,#513,.T.);
#515=ORIENTED_EDGE('',*,*,#514,.T.);
#516=DIRECTION('',(-0.38268,-0.92388,0.));
#517=VECTOR('',#516,5.04492);
#518=LINE('',#481,#517);
#519=EDGE_CURVE('',#482,#510,#518,.T.);
#520=ORIENTED_EDGE('',*,*,#519,.F.);
#521=ORIENTED_EDGE('',*,*,#486,.F.);
#522=EDGE_LOOP('',(#508,#515,#520,#521));
#523=FACE_OUTER_BOUND('',#522,.T.);
#524=CARTESIAN_POINT('',(-28.64586,14.59579,0.));
#525=DIRECTION('',(-0.92388,0.38268,0.));
#526=DIRECTION('',(-0.38268,-0.92388,0.));
#527=AXIS2_PLACEMENT_3D('',#524,#525,#526);
#528=PLANE('',#527);
#529=ADVANCED_FACE('',(#523),#528,.T.);
#530=CARTESIAN_POINT('',(-31.75418,5.02937,0.));
#531=VERTEX_POINT('',#530);
#532=DIRECTION('',(-0.23345,-0.97237,0.));
#533=VECTOR('',#532,5.04492);
#534=LINE('',#502,#533);
#535=EDGE_CURVE('',#503,#531,#534,.T.);
#536=ORIENTED_EDGE('',*,*,#535,.T.);
#537=CARTESIAN_POINT('',(-31.75418,5.02937,18.));
#538=VERTEX_POINT('',#537);
#539=DIRECTION('',(0.,0.,1.));
#540=VECTOR('',#539,18.);
#541=LINE('',#530,#540);
#542=EDGE_CURVE('',#531,#538,#541,.T.);
#543=ORIENTED_EDGE('',*,*,#542,.T.);
#544=DIRECTION('',(-0.23345,-0.97237,0.));
#545=VECTOR('',#544,5.04492);
#546=LINE('',#509,#545);
#547=EDGE_CURVE('',#510,#538,#546,.T.);
#548=ORIENTED_EDGE('',*,*,#547,.F.);
#549=ORIENTED_EDGE('',*,*,#514,.F.);
#550=EDGE_LOOP('',(#536,#543,#548,#549));
#551=FACE_OUTER_BOUND('',#550,.T.);
#552=CARTESIAN_POINT('',(-30.57647,9.9349,0.));
#553=DIRECTION('',(-0.97237,0.23345,0.));
#554=DIRECTION('',(-0.23345,-0.97237,0.));
#555=AXIS2_PLACEMENT_3D('',#552,#553,#554);
#556=PLANE('',#555);
#557=ADVANCED_FACE('',(#551),#556,.T.);
#558=CARTESIAN_POINT('',(-32.15,0.,0.));
#559=VERTEX_POINT('',#558);
#560=DIRECTION('',(-0.07846,-0.99692,0.));
#561=VECTOR('',#560,5.04492);
#562=LINE('',#530,#561);
#563=EDGE_CURVE('',#531,#559,#562,.T.);
#564=ORIENTED_EDGE('',*,*,#563,.T.);
#565=CARTESIAN_POINT('',(-32.15,0.,18.));
#566=VERTEX_POINT('',#565);
#567=DIRECTION('',(0.,0.,1.));
#568=VECTOR('',#567,18.);
#569=LINE('',#558,#568);
#570=EDGE_CURVE('',#559,#566,#569,.T.);
#571=ORIENTED_EDGE('',*,*,#570,.T.);
#572=DIRECTION('',(-0.07846,-0.99692,0.));
#573=VECTOR('',#572,5.04492);
#574=LINE('',#537,#573);
#575=EDGE_CURVE('',#538,#566,#574,.T.);
#576=ORIENTED_EDGE('',*,*,#575,.F.);
#577=ORIENTED_EDGE('',*,*,#542,.F.);
#578=EDGE_LOOP('',(#564,#571,#576,#577));
#579=FACE_OUTER_BOUND('',#578,.T.);
#580=CARTESIAN_POINT('',(-31.75418,5.02937,0.));
#581=DIRECTION('',(-0.99692,0.07846,0.));
#582=DIRECTION('',(-0.07846,-0.99692,0.));
#583=AXIS2_PLACEMENT_3D('',#580,#581,#582);
#584=PLANE('',#583);
#585=ADVANCED_FACE('',(#579),#584,.T.);
#586=CARTESIAN_POINT('',(-31.75418,-5.02937,0.));
#587=VERTEX_POINT('',#586);
#588=DIRECTION('',(0.07846,-0.99692,0.));
#589=VECTOR('',#588,5.04492);
#590=LINE('',#558,#589);
#591=EDGE_CURVE('',#559,#587,#590,.T.);
#592=ORIENTED_EDGE('',*,*,#591,.T.);
#593=CARTESIAN_POINT('',(-31.75418,-5.02937,18.));
#594=VERTEX_POINT('',#593);
#595=DIRECTION('',(0.,0.,1.));
#596=VECTOR('',#595,18.);
#597=LINE('',#586,#596);
#598=EDGE_CURVE('',#587,#594,#597,.T.);
#599=ORIENTED_EDGE('',*,*,#598,.T.);
#600=DIRECTION('',(0.07846,-0.99692,0.));
#601=VECTOR('',#600,5.04492);
#602=LINE('',#565,#601);
#603=EDGE_CURVE('',#566,#594,#602,.T.);
#604=ORIENTED_EDGE('',*,*,#603,.F.);
#605=ORIENTED_EDGE('',*,*,#570,.F.);
#606=EDGE_LOOP('',(#592,#599,#604,#605));
#607=FACE_OUTER_BOUND('',#606,.T.);
#608=CARTESIAN_POINT('',(-32.15,0.,0.));
#609=DIRECTION('',(-0.99692,-0.07846,0.));
#610=DIRECTION('',(0.07846,-0.99692,0.));
#611=AXIS2_PLACEMENT_3D('',#608,#609,#610);
#612=PLANE('',#611);
#613=ADVANCED_FACE('',(#607),#612,.T.);
#614=CARTESIAN_POINT('',(-30.57647,-9.9349,0.));
#615=VERTEX_POINT('',#614);
#616=DIRECTION('',(0.23345,-0.97237,0.));
#617=VECTOR('',#616,5.04492);
#618=LINE('',#586,#617);
#619=EDGE_CURVE('',#587,#615,#618,.T.);
#620=ORIENTED_EDGE('',*,*,#619,.T.);
#621=CARTESIAN_POINT('',(-30.57647,-9.9349,18.));
#622=VERTEX_POINT('',#621);
#623=DIRECTION('',(0.,0.,1.));
#624=VECTOR('',#623,18.);
#625=LINE('',#614,#624);
#626=EDGE_CURVE('',#615,#622,#625,.T.);
#627=ORIENTED_EDGE('',*,*,#626,.T.);
#628=DIRECTION('',(0.23345,-0.97237,0.));
#629=VECTOR('',#628,5.04492);
#630=LINE('',#593,#629);
#631=EDGE_CURVE('',#594,#622,#630,.T.);
#632=ORIENTED_EDGE('',*,*,#631,.F.);
#633=ORIENTED_EDGE('',*,*,#598,.F.);
#634=EDGE_LOOP('',(#620,#627,#632,#633));
#635=FACE_OUTER_BOUND('',#634,.T.);
#636=CARTESIAN_POINT('',(-31.75418,-5.02937,0.));
#637=DIRECTION('',(-0.97237,-0.23345,0.));
#638=DIRECTION('',(0.23345,-0.97237,0.));
#639=AXIS2_PLACEMENT_3D('',#636,#637,#638);
#640=PLANE('',#639);
#641=ADVANCED_FACE('',(#635),#640,.T.);
#642=CARTESIAN_POINT('',(-28.64586,-14.59579,0.));
#643=VERTEX_POINT('',#642);
#644=DIRECTION('',(0.38268,-0.92388,0.));
#645=VECTOR('',#644,5.04492);
#646=LINE('',#614,#645);
#647=EDGE_CURVE('',#615,#643,#646,.T.);
#648=ORIENTED_EDGE('',*,*,#647,.T.);
#649=CARTESIAN_POINT('',(-28.64586,-14.59579,18.));
#650=VERTEX_POINT('',#649);
#651=DIRECTION('',(0.,0.,1.));
#652=VECTOR('',#651,18.);
#653=LINE('',#642,#652);
#654=EDGE_CURVE('',#643,#650,#653,.T.);
#655=ORIENTED_EDGE('',*,*,#654,.T.);
#656=DIRECTION('',(0.38268,-0.92388,0.));
#657=VECTOR('',#656,5.04492);
#658=LINE('',#621,#657);
#659=EDGE_CURVE('',#622,#650,#658,.T.);
#660=ORIENTED_EDGE('',*,*,#659,.F.);
#661=ORIENTED_EDGE('',*,*,#626,.F.);
#662=EDGE_LOOP('',(#648,#655,#660,#661));
#663=FACE_OUTER_BOUND('',#662,.T.);
#664=CARTESIAN_POINT('',(-30.57647,-9.9349,0.));
#665=DIRECTION('',(-0.92388,-0.38268,0.));
#666=DIRECTION('',(0.38268,-0.92388,0.));
#667=AXIS2_PLACEMENT_3D('',#664,#665,#666);
#668=PLANE('',#667);
#669=ADVANCED_FACE('',(#663),#668,.T.);
#670=CARTESIAN_POINT('',(-26.0099,-18.8973,0.));
#671=VERTEX_POINT('',#670);
#672=DIRECTION('',(0.5225,-0.85264,0.));
#673=VECTOR('',#672,5.04492);
#674=LINE('',#642,#673);
#675=EDGE_CURVE('',#643,#671,#674,.T.);
#676=ORIENTED_EDGE('',*,*,#675,.T.);
#677=CARTESIAN_POINT('',(-26.0099,-18.8973,18.));
#678=VERTEX_POINT('',#677);
#679=DIRECTION('',(0.,0.,1.));
#680=VECTOR('',#679,18.);
#681=LINE('',#670,#680);
#682=EDGE_CURVE('',#671,#678,#681,.T.);
#683=ORIENTED_EDGE('',*,*,#682,.T.);
#684=DIRECTION('',(0.5225,-0.85264,0.));
#685=VECTOR('',#684,5.04492);
#686=LINE('',#649,#685);
#687=EDGE_CURVE('',#650,#678,#686,.T.);
#688=ORIENTED_EDGE('',*,*,#687,.F.);
#689=ORIENTED_EDGE('',*,*,#654,.F.);
#690=EDGE_LOOP('',(#676,#683,#688,#689));
#691=FACE_OUTER_BOUND('',#690,.T.);
#692=CARTESIAN_POINT('',(-28.64586,-14.59579,0.));
#693=DIRECTION('',(-0.85264,-0.5225,0.));
#694=DIRECTION('',(0.5225,-0.85264,0.));
#695=AXIS2_PLACEMENT_3D('',#692,#693,#694);
#696=PLANE('',#695);
#697=ADVANCED_FACE('',(#691),#696,.T.);
#698=CARTESIAN_POINT('',(-22.73348,-22.73348,0.));
#699=VERTEX_POINT('',#698);
#700=DIRECTION('',(0.64945,-0.76041,0.));
#701=VECTOR('',#700,5.04492);
#702=LINE('',#670,#701);
#703=EDGE_CURVE('',#671,#699,#702,.T.);
#704=ORIENTED_EDGE('',*,*,#703,.T.);
#705=CARTESIAN_POINT('',(-22.73348,-22.73348,18.));
#706=VERTEX_POINT('',#705);
#707=DIRECTION('',(0.,0.,1.));
#708=VECTOR('',#707,18.);
#709=LINE('',#698,#708);
#710=EDGE_CURVE('',#699,#706,#709,.T.);
#711=ORIENTED_EDGE('',*,*,#710,.T.);
#712=DIRECTION('',(0.64945,-0.76041,0.));
#713=VECTOR('',#712,5.04492);
#714=LINE('',#677,#713);
#715=EDGE_CURVE('',#678,#706,#714,.T.);
#716=ORIENTED_EDGE('',*,*,#715,.F.);
#717=ORIENTED_EDGE('',*,*,#682,.F.);
#718=EDGE_LOOP('',(#704,#711,#716,#717));
#719=FACE_OUTER_BOUND('',#718,.T.);
#720=CARTESIAN_POINT('',(-26.0099,-18.8973,0.));
#721=DIRECTION('',(-0.76041,-0.64945,0.));
#722=DIRECTION('',(0.64945,-0.76041,0.));
#723=AXIS2_PLACEMENT_3D('',#720,#721,#722);
#724=PLANE('',#723);
#725=ADVANCED_FACE('',(#719),#724,.T.);
#726=CARTESIAN_POINT('',(-18.8973,-26.0099,0.));
#727=VERTEX_POINT('',#726);
#728=DIRECTION('',(0.76041,-0.64945,0.));
#729=VECTOR('',#728,5.04492);
#730=LINE('',#698,#729);
#731=EDGE_CURVE('',#699,#727,#730,.T.);
#732=ORIENTED_EDGE('',*,*,#731,.T.);
#733=CARTESIAN_POINT('',(-18.8973,-26.0099,18.));
#734=VERTEX_POINT('',#733);
#735=DIRECTION('',(0.,0.,1.));
#736=VECTOR('',#735,18.);
#737=LINE('',#726,#736);
#738=EDGE_CURVE('',#727,#734,#737,.T.);
#739=ORIENTED_EDGE('',*,*,#738,.T.);
#740=DIRECTION('',(0.76041,-0.64945,0.));
#741=VECTOR('',#740,5.04492);
#742=LINE('',#705,#741);
#743=EDGE_CURVE('',#706,#734,#742,.T.);
#744=ORIENTED_EDGE('',*,*,#743,.F.);
#745=ORIENTED_EDGE('',*,*,#710,.F.);
#746=EDGE_LOOP('',(#732,#739,#744,#745));
#747=FACE_OUTER_BOUND('',#746,.T.);
#748=CARTESIAN_POINT('',(-22.73348,-22.73348,0.));
#749=DIRECTION('',(-0.64945,-0.76041,0.));
#750=DIRECTION('',(0.76041,-0.64945,0.));
#751=AXIS2_PLACEMENT_3D('',#748,#749,#750);
#752=PLANE('',#751);
#753=ADVANCED_FACE('',(#747),#752,.T.);
#754=CARTESIAN_POINT('',(-14.59579,-28.64586,0.));
#755=VERTEX_POINT('',#754);
#756=DIRECTION('',(0.85264,-0.5225,0.));
#757=VECTOR('',#756,5.04492);
#758=LINE('',#726,#757);
#759=EDGE_CURVE('',#727,#755,#758,.T.);
#760=ORIENTED_EDGE('',*,*,#759,.T.);
#761=CARTESIAN_POINT('',(-14.59579,-28.64586,18.));
#762=VERTEX_POINT('',#761);
#763=DIRECTION('',(0.,0.,1.));
#764=VECTOR('',#763,18.);
#765=LINE('',#754,#764);
#766=EDGE_CURVE('',#755,#762,#765,.T.);
#767=ORIENTED_EDGE('',*,*,#766,.T.);
#768=DIRECTION('',(0.85264,-0.5225,0.));
#769=VECTOR('',#768,5.04492);
#770=LINE('',#733,#769);
#771=EDGE_CURVE('',#734,#762,#770,.T.);
#772=ORIENTED_EDGE('',*,*,#771,.F.);
#773=ORIENTED_EDGE('',*,*,#738,.F.);
#774=EDGE_LOOP('',(#760,#767,#772,#773));
#775=FACE_OUTER_BOUND('',#774,.T.);
#776=CARTESIAN_POINT('',(-18.8973,-26.0099,0.));
#777=DIRECTION('',(-0.5225,-0.85264,0.));
#778=DIRECTION('',(0.85264,-0.5225,0.));
#779=AXIS2_PLACEMENT_3D('',#776,#777,#778);
#780=PLANE('',#779);
#781=ADVANCED_FACE('',(#775),#780,.T.);
#782=CARTESIAN_POINT('',(-9.9349,-30.57647,0.));
#783=VERTEX_POINT('',#782);
#784=DIRECTION('',(0.92388,-0.38268,0.));
#785=VECTOR('',#784,5.04492);
#786=LINE('',#754,#785);
#787=EDGE_CURVE('',#755,#783,#786,.T.);
#788=ORIENTED_EDGE('',*,*,#787,.T.);
#789=CARTESIAN_POINT('',(-9.9349,-30.57647,18.));
#790=VERTEX_POINT('',#789);
#791=DIRECTION('',(0.,0.,1.));
#792=VECTOR('',#791,18.);
#793=LINE('',#782,#792);
#794=EDGE_CURVE('',#783,#790,#793,.T.);
#795=ORIENTED_EDGE('',*,*,#794,.T.);
#796=DIRECTION('',(0.92388,-0.38268,0.));
#797=VECTOR('',#796,5.04492);
#798=LINE('',#761,#797);
#799=EDGE_CURVE('',#762,#790,#798,.T.);
#800=ORIENTED_EDGE('',*,*,#799,.F.);
#801=ORIENTED_EDGE('',*,*,#766,.F.);
#802=EDGE_LOOP('',(#788,#795,#800,#801));
#803=FACE_OUTER_BOUND('',#802,.T.);
#804=CARTESIAN_POINT('',(-14.59579,-28.64586,0.));
#805=DIRECTION('',(-0.38268,-0.92388,0.));
#806=DIRECTION('',(0.92388,-0.38268,0.));
#807=AXIS2_PLACEMENT_3D('',#804,#805,#806);
#808=PLANE('',#807);
#809=ADVANCED_FACE('',(#803),#808,.T.);
#810=CARTESIAN_POINT('',(-5.02937,-31.75418,0.));
#811=VERTEX_POINT('',#810);
#812=DIRECTION('',(0.97237,-0.23345,0.));
#813=VECTOR('',#812,5.04492);
#814=LINE('',#782,#813);
#815=EDGE_CURVE('',#783,#811,#814,.T.);
#816=ORIENTED_EDGE('',*,*,#815,.T.);
#817=CARTESIAN_POINT('',(-5.02937,-31.75418,18.));
#818=VERTEX_POINT('',#817);
#819=DIRECTION('',(0.,0.,1.));
#820=VECTOR('',#819,18.);
#821=LINE('',#810,#820);
#822=EDGE_CURVE('',#811,#818,#821,.T.);
#823=ORIENTED_EDGE('',*,*,#822,.T.);
#824=DIRECTION('',(0.97237,-0.23345,0.));
#825=VECTOR('',#824,5.04492);
#826=LINE('',#789,#825);
#827=EDGE_CURVE('',#790,#818,#826,.T.);
#828=ORIENTED_EDGE('',*,*,#827,.F.);
#829=ORIENTED_EDGE('',*,*,#794,.F.);
#830=EDGE_LOOP('',(#816,#823,#828,#829));
#831=FACE_OUTER_BOUND('',#830,.T.);
#832=CARTESIAN_POINT('',(-9.9349,-30.57647,0.));
#833=DIRECTION('',(-0.23345,-0.97237,0.));
#834=DIRECTION('',(0.97237,-0.23345,0.));
#835=AXIS2_PLACEMENT_3D('',#832,#833,#834);
#836=PLANE('',#835);
#837=ADVANCED_FACE('',(#831),#836,.T.);
#838=CARTESIAN_POINT('',(0.,-32.15,0.));
#839=VERTEX_POINT('',#838);
#840=DIRECTION('',(0.99692,-0.07846,0.));
#841=VECTOR('',#840,5.04492);
#842=LINE('',#810,#841);
#843=EDGE_CURVE('',#811,#839,#842,.T.);
#844=ORIENTED_EDGE('',*,*,#843,.T.);
#845=CARTESIAN_POINT('',(0.,-32.15,18.));
#846=VERTEX_POINT('',#845);
#847=DIRECTION('',(0.,0.,1.));
#848=VECTOR('',#847,18.);
#849=LINE('',#838,#848);
#850=EDGE_CURVE('',#839,#846,#849,.T.);
#851=ORIENTED_EDGE('',*,*,#850,.T.);
#852=DIRECTION('',(0.99692,-0.07846,0.));
#853=VECTOR('',#852,5.04492);
#854=LINE('',#817,#853);
#855=EDGE_CURVE('',#818,#846,#854,.T.);
#856=ORIENTED_EDGE('',*,*,#855,.F.);
#857=ORIENTED_EDGE('',*,*,#822,.F.);
#858=EDGE_LOOP('',(#844,#851,#856,#857));
#859=FACE_OUTER_BOUND('',#858,.T.);
#860=CARTESIAN_POINT('',(-5.02937,-31.75418,0.));
#861=DIRECTION('',(-0.07846,-0.99692,0.));
#862=DIRECTION('',(0.99692,-0.07846,0.));
#863=AXIS2_PLACEMENT_3D('',#860,#861,#862);
#864=PLANE('',#863);
#865=ADVANCED_FACE('',(#859),#864,.T.);
#866=CARTESIAN_POINT('',(5.02937,-31.75418,0.));
#867=VERTEX_POINT('',#866);
#868=DIRECTION('',(0.99692,0.07846,0.));
#869=VECTOR('',#868,5.04492);
#870=LINE('',#838,#869);
#871=EDGE_CURVE('',#839,#867,#870,.T.);
#872=ORIENTED_EDGE('',*,*,#871,.T.);
#873=CARTESIAN_POINT('',(5.02937,-31.75418,18.));
#874=VERTEX_POINT('',#873);
#875=DIRECTION('',(0.,0.,1.));
#876=VECTOR('',#875,18.);
#877=LINE('',#866,#876);
#878=EDGE_CURVE('',#867,#874,#877,.T.);
#879=ORIENTED_EDGE('',*,*,#878,.T.);
#880=DIRECTION('',(0.99692,0.07846,0.));
#881=VECTOR('',#880,5.04492);
#882=LINE('',#845,#881);
#883=EDGE_CURVE('',#846,#874,#882,.T.);
#884=ORIENTED_EDGE('',*,*,#883,.F.);
#885=ORIENTED_EDGE('',*,*,#850,.F.);
#886=EDGE_LOOP('',(#872,#879,#884,#885));
#887=FACE_OUTER_BOUND('',#886,.T.);
#888=CARTESIAN_POINT('',(0.,-32.15,0.));
#889=DIRECTION('',(0.07846,-0.99692,0.));
#890=DIRECTION('',(0.99692,0.07846,0.));
#891=AXIS2_PLACEMENT_3D('',#888,#889,#890);
#892=PLANE('',#891);
#893=ADVANCED_FACE('',(#887),#892,.T.);
#894=CARTESIAN_POINT('',(9.9349,-30.57647,0.));
#895=VERTEX_POINT('',#894);
#896=DIRECTION('',(0.97237,0.23345,0.));
#897=VECTOR('',#896,5.04492);
#898=LINE('',#866,#897);
#899=EDGE_CURVE('',#867,#895,#898,.T.);
#900=ORIENTED_EDGE('',*,*,#899,.T.);
#901=CARTESIAN_POINT('',(9.9349,-30.57647,18.));
#902=VERTEX_POINT('',#901);
#903=DIRECTION('',(0.,0.,1.));
#904=VECTOR('',#903,18.);
#905=LINE('',#894,#904);
#906=EDGE_CURVE('',#895,#902,#905,.T.);
#907=ORIENTED_EDGE('',*,*,#906,.T.);
#908=DIRECTION('',(0.97237,0.23345,0.));
#909=VECTOR('',#908,5.04492);
#910=LINE('',#873,#909);
#911=EDGE_CURVE('',#874,#902,#910,.T.);
#912=ORIENTED_EDGE('',*,*,#911,.F.);
#913=ORIENTED_EDGE('',*,*,#878,.F.);
#914=EDGE_LOOP('',(#900,#907,#912,#913));
#915=FACE_OUTER_BOUND('',#914,.T.);
#916=CARTESIAN_POINT('',(5.02937,-31.75418,0.));
#917=DIRECTION('',(0.23345,-0.97237,0.));
#918=DIRECTION('',(0.97237,0.23345,0.));
#919=AXIS2_PLACEMENT_3D('',#916,#917,#918);
#920=PLANE('',#919);
#921=ADVANCED_FACE('',(#915),#920,.T.);
#922=CARTESIAN_POINT('',(14.59579,-28.64586,0.));
#923=VERTEX_POINT('',#922);
#924=DIRECTION('',(0.92388,0.38268,0.));
#925=VECTOR('',#924,5.04492);
#926=LINE('',#894,#925);
#927=EDGE_CURVE('',#895,#923,#926,.T.);
#928=ORIENTED_EDGE('',*,*,#927,.T.);
#929=CARTESIAN_POINT('',(14.59579,-28.64586,18.));
#930=VERTEX_POINT('',#929);
#931=DIRECTION('',(0.,0.,1.));
#932=VECTOR('',#931,18.);
#933=LINE('',#922,#932);
#934=EDGE_CURVE('',#923,#930,#933,.T.);
#935=ORIENTED_EDGE('',*,*,#934,.T.);
#936=DIRECTION('',(0.92388,0.38268,0.));
#937=VECTOR('',#936,5.04492);
#938=LINE('',#901,#937);
#939=EDGE_CURVE('',#902,#930,#938,.T.);
#940=ORIENTED_EDGE('',*,*,#939,.F.);
#941=ORIENTED_EDGE('',*,*,#906,.F.);
#942=EDGE_LOOP('',(#928,#935,#940,#941));
#943=FACE_OUTER_BOUND('',#942,.T.);
#944=CARTESIAN_POINT('',(9.9349,-30.57647,0.));
#945=DIRECTION('',(0.38268,-0.92388,0.));
#946=DIRECTION('',(0.92388,0.38268,0.));
#947=AXIS2_PLACEMENT_3D('',#944,#945,#946);
#948=PLANE('',#947);
#949=ADVANCED_FACE('',(#943),#948,.T.);
#950=CARTESIAN_POINT('',(18.8973,-26.0099,0.));
#951=VERTEX_POINT('',#950);
#952=DIRECTION('',(0.85264,0.5225,0.));
#953=VECTOR('',#952,5.04492);
#954=LINE('',#922,#953);
#955=EDGE_CURVE('',#923,#951,#954,.T.);
#956=ORIENTED_EDGE('',*,*,#955,.T.);
#957=CARTESIAN_POINT('',(18.8973,-26.0099,18.));
#958=VERTEX_POINT('',#957);
#959=DIRECTION('',(0.,0.,1.));
#960=VECTOR('',#959,18.);
#961=LINE('',#950,#960);
#962=EDGE_CURVE('',#951,#958,#961,.T.);
#963=ORIENTED_EDGE('',*,*,#962,.T.);
#964=DIRECTION('',(0.85264,0.5225,0.));
#965=VECTOR('',#964,5.04492);
#966=LINE('',#929,#965);
#967=EDGE_CURVE('',#930,#958,#966,.T.);
#968=ORIENTED_EDGE('',*,*,#967,.F.);
#969=ORIENTED_EDGE('',*,*,#934,.F.);
#970=EDGE_LOOP('',(#956,#963,#968,#969));
#971=FACE_OUTER_BOUND('',#970,.T.);
#972=CARTESIAN_POINT('',(14.59579,-28.64586,0.));
#973=DIRECTION('',(0.5225,-0.85264,0.));
#974=DIRECTION('',(0.85264,0.5225,0.));
#975=AXIS2_PLACEMENT_3D('',#972,#973,#974);
#976=PLANE('',#975);
#977=ADVANCED_FACE('',(#971),#976,.T.);
#978=CARTESIAN_POINT('',(22.73348,-22.73348,0.));
#979=VERTEX_POINT('',#978);
#980=DIRECTION('',(0.76041,0.64945,0.));
#981=VECTOR('',#980,5.04492);
#982=LINE('',#950,#981);
#983=EDGE_CURVE('',#951,#979,#982,.T.);
#984=ORIENTED_EDGE('',*,*,#983,.T.);
#985=CARTESIAN_POINT('',(22.73348,-22.73348,18.));
#986=VERTEX_POINT('',#985);
#987=DIRECTION('',(0.,0.,1.));
#988=VECTOR('',#987,18.);
#989=LINE('',#978,#988);
#990=EDGE_CURVE('',#979,#986,#989,.T.);
#991=ORIENTED_EDGE('',*,*,#990,.T.);
#992=DIRECTION('',(0.76041,0.64945,0.));
#993=VECTOR('',#992,5.04492);
#994=LINE('',#957,#993);
#995=EDGE_CURVE('',#958,#986,#994,.T.);
#996=ORIENTED_EDGE('',*,*,#995,.F.);
#997=ORIENTED_EDGE('',*,*,#962,.F.);
#998=EDGE_LOOP('',(#984,#991,#996,#997));
#999=FACE_OUTER_BOUND('',#998,.T.);
#1000=CARTESIAN_POINT('',(18.8973,-26.0099,0.));
#1001=DIRECTION('',(0.64945,-0.76041,0.));
#1002=DIRECTION('',(0.76041,0.64945,0.));
#1003=AXIS2_PLACEMENT_3D('',#1000,#1001,#1002);
#1004=PLANE('',#1003);
#1005=ADVANCED_FACE('',(#999),#1004,.T.);
#1006=CARTESIAN_POINT('',(26.0099,-18.8973,0.));
#1007=VERTEX_POINT('',#1006);
#1008=DIRECTION('',(0.64945,0.76041,0.));
#1009=VECTOR('',#1008,5.04492);
#1010=LINE('',#978,#1009);
#1011=EDGE_CURVE('',#979,#1007,#1010,.T.);
#1012=ORIENTED_EDGE('',*,*,#1011,.T.);
#1013=CARTESIAN_POINT('',(26.0099,-18.8973,18.));
#1014=VERTEX_POINT('',#1013);
#1015=DIRECTION('',(0.,0.,1.));
#1016=VECTOR('',#1015,18.);
#1017=LINE('',#1006,#1016);
#1018=EDGE_CURVE('',#1007,#1014,#1017,.T.);
#1019=ORIENTED_EDGE('',*,*,#1018,.T.);
#1020=DIRECTION('',(0.64945,0.76041,0.));
#1021=VECTOR('',#1020,5.04492);
#1022=LINE('',#985,#1021);
#1023=EDGE_CURVE('',#986,#1014,#1022,.T.);
#1024=ORIENTED_EDGE('',*,*,#1023,.F.);
#1025=ORIENTED_EDGE('',*,*,#990,.F.);
#1026=EDGE_LOOP('',(#1012,#1019,#1024,#1025));
#1027=FACE_OUTER_BOUND('',#1026,.T.);
#1028=CARTESIAN_POINT('',(22.73348,-22.73348,0.));
#1029=DIRECTION('',(0.76041,-0.64945,0.));
#1030=DIRECTION('',(0.64945,0.76041,0.));
#1031=AXIS2_PLACEMENT_3D('',#1028,#1029,#1030);
#1032=PLANE('',#1031);
#1033=ADVANCED_FACE('',(#1027),#1032,.T.);
#1034=CARTESIAN_POINT('',(28.64586,-14.59579,0.));
#1035=VERTEX_POINT('',#1034);
#1036=DIRECTION('',(0.5225,0.85264,0.));
#1037=VECTOR('',#1036,5.04492);
#1038=LINE('',#1006,#1037);
#1039=EDGE_CURVE('',#1007,#1035,#1038,.T.);
#1040=ORIENTED_EDGE('',*,*,#1039,.T.);
#1041=CARTESIAN_POINT('',(28.64586,-14.59579,18.));
#1042=VERTEX_POINT('',#1041);
#1043=DIRECTION('',(0.,0.,1.));
#1044=VECTOR('',#1043,18.);
#1045=LINE('',#1034,#1044);
#1046=EDGE_CURVE('',#1035,#1042,#1045,.T.);
#1047=ORIENTED_EDGE('',*,*,#1046,.T.);
#1048=DIRECTION('',(0.5225,0.85264,0.));
#1049=VECTOR('',#1048,5.04492);
#1050=LINE('',#1013,#1049);
#1051=EDGE_CURVE('',#1014,#1042,#1050,.T.);
#1052=ORIENTED_EDGE('',*,*,#1051,.F.);
#1053=ORIENTED_EDGE('',*,*,#1018,.F.);
#1054=EDGE_LOOP('',(#1040,#1047,#1052,#1053));
#1055=FACE_OUTER_BOUND('',#1054,.T.);
#1056=CARTESIAN_POINT('',(26.0099,-18.8973,0.));
#1057=DIRECTION('',(0.85264,-0.5225,0.));
#1058=DIRECTION('',(0.5225,0.85264,0.));
#1059=AXIS2_PLACEMENT_3D('',#1056,#1057,#1058);
#1060=PLANE('',#1059);
#1061=ADVANCED_FACE('',(#1055),#1060,.T.);
#1062=CARTESIAN_POINT('',(30.57647,-9.9349,0.));
#1063=VERTEX_POINT('',#1062);
#1064=DIRECTION('',(0.38268,0.92388,0.));
#1065=VECTOR('',#1064,5.04492);
#1066=LINE('',#1034,#1065);
#1067=EDGE_CURVE('',#1035,#1063,#1066,.T.);
#1068=ORIENTED_EDGE('',*,*,#1067,.T.);
#1069=CARTESIAN_POINT('',(30.57647,-9.9349,18.));
#1070=VERTEX_POINT('',#1069);
#1071=DIRECTION('',(0.,0.,1.));
#1072=VECTOR('',#1071,18.);
#1073=LINE('',#1062,#1072);
#1074=EDGE_CURVE('',#1063,#1070,#1073,.T.);
#1075=ORIENTED_EDGE('',*,*,#1074,.T.);
#1076=DIRECTION('',(0.38268,0.92388,0.));
#1077=VECTOR('',#1076,5.04492);
#1078=LINE('',#1041,#1077);
#1079=EDGE_CURVE('',#1042,#1070,#1078,.T.);
#1080=ORIENTED_EDGE('',*,*,#1079,.F.);
#1081=ORIENTED_EDGE('',*,*,#1046,.F.);
#1082=EDGE_LOOP('',(#1068,#1075,#1080,#1081));
#1083=FACE_OUTER_BOUND('',#1082,.T.);
#1084=CARTESIAN_POINT('',(28.64586,-14.59579,0.));
#1085=DIRECTION('',(0.92388,-0.38268,0.));
#1086=DIRECTION('',(0.38268,0.92388,0.));
#1087=AXIS2_PLACEMENT_3D('',#1084,#1085,#1086);
#1088=PLANE('',#1087);
#1089=ADVANCED_FACE('',(#1083),#1088,.T.);
#1090=CARTESIAN_POINT('',(31.75418,-5.02937,0.));
#1091=VERTEX_POINT('',#1090);
#1092=DIRECTION('',(0.23345,0.97237,0.));
#1093=VECTOR('',#1092,5.04492);
#1094=LINE('',#1062,#1093);
#1095=EDGE_CURVE('',#1063,#1091,#1094,.T.);
#1096=ORIENTED_EDGE('',*,*,#1095,.T.);
#1097=CARTESIAN_POINT('',(31.75418,-5.02937,18.));
#1098=VERTEX_POINT('',#1097);
#1099=DIRECTION('',(0.,0.,1.));
#1100=VECTOR('',#1099,18.);
#1101=LINE('',#1090,#1100);
#1102=EDGE_CURVE('',#1091,#1098,#1101,.T.);
#1103=ORIENTED_EDGE('',*,*,#1102,.T.);
#1104=DIRECTION('',(0.23345,0.97237,0.));
#1105=VECTOR('',#1104,5.04492);
#1106=LINE('',#1069,#1105);
#1107=EDGE_CURVE('',#1070,#1098,#1106,.T.);
#1108=ORIENTED_EDGE('',*,*,#1107,.F.);
#1109=ORIENTED_EDGE('',*,*,#1074,.F.);
#1110=EDGE_LOOP('',(#1096,#1103,#1108,#1109));
#1111=FACE_OUTER_BOUND('',#1110,.T.);
#1112=CARTESIAN_POINT('',(30.57647,-9.9349,0.));
#1113=DIRECTION('',(0.97237,-0.23345,0.));
#1114=DIRECTION('',(0.23345,0.97237,0.));
#1115=AXIS2_PLACEMENT_3D('',#1112,#1113,#1114);
#1116=PLANE('',#1115);
#1117=ADVANCED_FACE('',(#1111),#1116,.T.);
#1118=DIRECTION('',(-0.07846,-0.99692,0.));
#1119=VECTOR('',#1118,5.04492);
#1120=LINE('',#18,#1119);
#1121=EDGE_CURVE('',#19,#1091,#1120,.T.);
#1122=ORIENTED_EDGE('',*,*,#1121,.F.);
#1123=ORIENTED_EDGE('',*,*,#44,.T.);
#1124=DIRECTION('',(-0.07846,-0.99692,0.));
#1125=VECTOR('',#1124,5.04492);
#1126=LINE('',#34,#1125);
#1127=EDGE_CURVE('',#35,#1098,#1126,.T.);
#1128=ORIENTED_EDGE('',*,*,#1127,.T.);
#1129=ORIENTED_EDGE('',*,*,#1102,.F.);
#1130=EDGE_LOOP('',(#1122,#1123,#1128,#1129));
#1131=FACE_OUTER_BOUND('',#1130,.T.);
#1132=CARTESIAN_POINT('',(31.75418,-5.02937,0.));
#1133=DIRECTION('',(0.99692,-0.07846,0.));
#1134=DIRECTION('',(0.07846,0.99692,0.));
#1135=AXIS2_PLACEMENT_3D('',#1132,#1133,#1134);
#1136=PLANE('',#1135);
#1137=ADVANCED_FACE('',(#1131),#1136,.T.);
#1138=ORIENTED_EDGE('',*,*,#39,.T.);
#1139=CARTESIAN_POINT('',(23.70452,3.75443,30.));
#1140=VERTEX_POINT('',#1139);
#1141=DIRECTION('',(-0.55492,-0.08789,0.82725));
#1142=VECTOR('',#1141,14.50595);
#1143=LINE('',#27,#1142);
#1144=EDGE_CURVE('',#28,#1140,#1143,.T.);
#1145=ORIENTED_EDGE('',*,*,#1144,.T.);
#1146=CARTESIAN_POINT('',(24.,0.,30.));
#1147=VERTEX_POINT('',#1146);
#1148=DIRECTION('',(-0.07846,0.99692,0.));
#1149=VECTOR('',#1148,3.76604);
#1150=LINE('',#1146,#1149);
#1151=EDGE_CURVE('',#1147,#1140,#1150,.T.);
#1152=ORIENTED_EDGE('',*,*,#1151,.F.);
#1153=DIRECTION('',(-0.56184,0.,0.82725));
#1154=VECTOR('',#1153,14.50595);
#1155=LINE('',#34,#1154);
#1156=EDGE_CURVE('',#35,#1147,#1155,.T.);
#1157=ORIENTED_EDGE('',*,*,#1156,.F.);
#1158=EDGE_LOOP('',(#1138,#1145,#1152,#1157));
#1159=FACE_OUTER_BOUND('',#1158,.T.);
#1160=CARTESIAN_POINT('',(32.15,0.,18.));
#1161=DIRECTION('',(0.8255,0.06497,0.56065));
#1162=DIRECTION('',(-0.07846,0.99692,0.));
#1163=AXIS2_PLACEMENT_3D('',#1160,#1161,#1162);
#1164=PLANE('',#1163);
#1165=ADVANCED_FACE('',(#1159),#1164,.T.);
#1166=ORIENTED_EDGE('',*,*,#71,.T.);
#1167=CARTESIAN_POINT('',(22.82536,7.41641,30.));
#1168=VERTEX_POINT('',#1167);
#1169=DIRECTION('',(-0.53434,-0.17362,0.82725));
#1170=VECTOR('',#1169,14.50595);
#1171=LINE('',#61,#1170);
#1172=EDGE_CURVE('',#62,#1168,#1171,.T.);
#1173=ORIENTED_EDGE('',*,*,#1172,.T.);
#1174=DIRECTION('',(-0.23345,0.97237,0.));
#1175=VECTOR('',#1174,3.76604);
#1176=LINE('',#1139,#1175);
#1177=EDGE_CURVE('',#1140,#1168,#1176,.T.);
#1178=ORIENTED_EDGE('',*,*,#1177,.F.);
#1179=ORIENTED_EDGE('',*,*,#1144,.F.);
#1180=EDGE_LOOP('',(#1166,#1173,#1178,#1179));
#1181=FACE_OUTER_BOUND('',#1180,.T.);
#1182=CARTESIAN_POINT('',(31.75418,5.02937,18.));
#1183=DIRECTION('',(0.80517,0.1933,0.56065));
#1184=DIRECTION('',(-0.23345,0.97237,0.));
#1185=AXIS2_PLACEMENT_3D('',#1182,#1183,#1184);
#1186=PLANE('',#1185);
#1187=ADVANCED_FACE('',(#1181),#1186,.T.);
#1188=ORIENTED_EDGE('',*,*,#99,.T.);
#1189=CARTESIAN_POINT('',(21.38416,10.89577,30.));
#1190=VERTEX_POINT('',#1189);
#1191=DIRECTION('',(-0.5006,-0.25507,0.82725));
#1192=VECTOR('',#1191,14.50595);
#1193=LINE('',#89,#1192);
#1194=EDGE_CURVE('',#90,#1190,#1193,.T.);
#1195=ORIENTED_EDGE('',*,*,#1194,.T.);
#1196=DIRECTION('',(-0.38268,0.92388,0.));
#1197=VECTOR('',#1196,3.76604);
#1198=LINE('',#1167,#1197);
#1199=EDGE_CURVE('',#1168,#1190,#1198,.T.);
#1200=ORIENTED_EDGE('',*,*,#1199,.F.);
#1201=ORIENTED_EDGE('',*,*,#1172,.F.);
#1202=EDGE_LOOP('',(#1188,#1195,#1200,#1201));
#1203=FACE_OUTER_BOUND('',#1202,.T.);
#1204=CARTESIAN_POINT('',(30.57647,9.9349,18.));
#1205=DIRECTION('',(0.76502,0.31688,0.56065));
#1206=DIRECTION('',(-0.38268,0.92388,0.));
#1207=AXIS2_PLACEMENT_3D('',#1204,#1205,#1206);
#1208=PLANE('',#1207);
#1209=ADVANCED_FACE('',(#1203),#1208,.T.);
#1210=ORIENTED_EDGE('',*,*,#127,.T.);
#1211=CARTESIAN_POINT('',(19.41641,14.10685,30.));
#1212=VERTEX_POINT('',#1211);
#1213=DIRECTION('',(-0.45454,-0.33024,0.82725));
#1214=VECTOR('',#1213,14.50595);
#1215=LINE('',#117,#1214);
#1216=EDGE_CURVE('',#118,#1212,#1215,.T.);
#1217=ORIENTED_EDGE('',*,*,#1216,.T.);
#1218=DIRECTION('',(-0.5225,0.85264,0.));
#1219=VECTOR('',#1218,3.76604);
#1220=LINE('',#1189,#1219);
#1221=EDGE_CURVE('',#1190,#1212,#1220,.T.);
#1222=ORIENTED_EDGE('',*,*,#1221,.F.);
#1223=ORIENTED_EDGE('',*,*,#1194,.F.);
#1224=EDGE_LOOP('',(#1210,#1217,#1222,#1223));
#1225=FACE_OUTER_BOUND('',#1224,.T.);
#1226=CARTESIAN_POINT('',(28.64586,14.59579,18.));
#1227=DIRECTION('',(0.70603,0.43266,0.56065));
#1228=DIRECTION('',(-0.5225,0.85264,0.));
#1229=AXIS2_PLACEMENT_3D('',#1226,#1227,#1228);
#1230=PLANE('',#1229);
#1231=ADVANCED_FACE('',(#1225),#1230,.T.);
#1232=ORIENTED_EDGE('',*,*,#155,.T.);
#1233=CARTESIAN_POINT('',(16.97056,16.97056,30.));
#1234=VERTEX_POINT('',#1233);
#1235=DIRECTION('',(-0.39728,-0.39728,0.82725));
#1236=VECTOR('',#1235,14.50595);
#1237=LINE('',#145,#1236);
#1238=EDGE_CURVE('',#146,#1234,#1237,.T.);
#1239=ORIENTED_EDGE('',*,*,#1238,.T.);
#1240=DIRECTION('',(-0.64945,0.76041,0.));
#1241=VECTOR('',#1240,3.76604);
#1242=LINE('',#1211,#1241);
#1243=EDGE_CURVE('',#1212,#1234,#1242,.T.);
#1244=ORIENTED_EDGE('',*,*,#1243,.F.);
#1245=ORIENTED_EDGE('',*,*,#1216,.F.);
#1246=EDGE_LOOP('',(#1232,#1239,#1244,#1245));
#1247=FACE_OUTER_BOUND('',#1246,.T.);
#1248=CARTESIAN_POINT('',(26.0099,18.8973,18.));
#1249=DIRECTION('',(0.62966,0.53778,0.56065));
#1250=DIRECTION('',(-0.64945,0.76041,0.));
#1251=AXIS2_PLACEMENT_3D('',#1248,#1249,#1250);
#1252=PLANE('',#1251);
#1253=ADVANCED_FACE('',(#1247),#1252,.T.);
#1254=ORIENTED_EDGE('',*,*,#183,.T.);
#1255=CARTESIAN_POINT('',(14.10685,19.41641,30.));
#1256=VERTEX_POINT('',#1255);
#1257=DIRECTION('',(-0.33024,-0.45454,0.82725));
#1258=VECTOR('',#1257,14.50595);
#1259=LINE('',#173,#1258);
#1260=EDGE_CURVE('',#174,#1256,#1259,.T.);
#1261=ORIENTED_EDGE('',*,*,#1260,.T.);
#1262=DIRECTION('',(-0.76041,0.64945,0.));
#1263=VECTOR('',#1262,3.76604);
#1264=LINE('',#1233,#1263);
#1265=EDGE_CURVE('',#1234,#1256,#1264,.T.);
#1266=ORIENTED_EDGE('',*,*,#1265,.F.);
#1267=ORIENTED_EDGE('',*,*,#1238,.F.);
#1268=EDGE_LOOP('',(#1254,#1261,#1266,#1267));
#1269=FACE_OUTER_BOUND('',#1268,.T.);
#1270=CARTESIAN_POINT('',(22.73348,22.73348,18.));
#1271=DIRECTION('',(0.53778,0.62966,0.56065));
#1272=DIRECTION('',(-0.76041,0.64945,0.));
#1273=AXIS2_PLACEMENT_3D('',#1270,#1271,#1272);
#1274=PLANE('',#1273);
#1275=ADVANCED_FACE('',(#1269),#1274,.T.);
#1276=ORIENTED_EDGE('',*,*,#211,.T.);
#1277=CARTESIAN_POINT('',(10.89577,21.38416,30.));
#1278=VERTEX_POINT('',#1277);
#1279=DIRECTION('',(-0.25507,-0.5006,0.82725));
#1280=VECTOR('',#1279,14.50595);
#1281=LINE('',#201,#1280);
#1282=EDGE_CURVE('',#202,#1278,#1281,.T.);
#1283=ORIENTED_EDGE('',*,*,#1282,.T.);
#1284=DIRECTION('',(-0.85264,0.5225,0.));
#1285=VECTOR('',#1284,3.76604);
#1286=LINE('',#1255,#1285);
#1287=EDGE_CURVE('',#1256,#1278,#1286,.T.);
#1288=ORIENTED_EDGE('',*,*,#1287,.F.);
#1289=ORIENTED_EDGE('',*,*,#1260,.F.);
#1290=EDGE_LOOP('',(#1276,#1283,#1288,#1289));
#1291=FACE_OUTER_BOUND('',#1290,.T.);
#1292=CARTESIAN_POINT('',(18.8973,26.0099,18.));
#1293=DIRECTION('',(0.43266,0.70603,0.56065));
#1294=DIRECTION('',(-0.85264,0.5225,0.));
#1295=AXIS2_PLACEMENT_3D('',#1292,#1293,#1294);
#1296=PLANE('',#1295);
#1297=ADVANCED_FACE('',(#1291),#1296,.T.);
#1298=ORIENTED_EDGE('',*,*,#239,.T.);
#1299=CARTESIAN_POINT('',(7.41641,22.82536,30.));
#1300=VERTEX_POINT('',#1299);
#1301=DIRECTION('',(-0.17362,-0.53434,0.82725));
#1302=VECTOR('',#1301,14.50595);
#1303=LINE('',#229,#1302);
#1304=EDGE_CURVE('',#230,#1300,#1303,.T.);
#1305=ORIENTED_EDGE('',*,*,#1304,.T.);
#1306=DIRECTION('',(-0.92388,0.38268,0.));
#1307=VECTOR('',#1306,3.76604);
#1308=LINE('',#1277,#1307);
#1309=EDGE_CURVE('',#1278,#1300,#1308,.T.);
#1310=ORIENTED_EDGE('',*,*,#1309,.F.);
#1311=ORIENTED_EDGE('',*,*,#1282,.F.);
#1312=EDGE_LOOP('',(#1298,#1305,#1310,#1311));
#1313=FACE_OUTER_BOUND('',#1312,.T.);
#1314=CARTESIAN_POINT('',(14.59579,28.64586,18.));
#1315=DIRECTION('',(0.31688,0.76502,0.56065));
#1316=DIRECTION('',(-0.92388,0.38268,0.));
#1317=AXIS2_PLACEMENT_3D('',#1314,#1315,#1316);
#1318=PLANE('',#1317);
#1319=ADVANCED_FACE('',(#1313),#1318,.T.);
#1320=ORIENTED_EDGE('',*,*,#267,.T.);
#1321=CARTESIAN_POINT('',(3.75443,23.70452,30.));
#1322=VERTEX_POINT('',#1321);
#1323=DIRECTION('',(-0.08789,-0.55492,0.82725));
#1324=VECTOR('',#1323,14.50595);
#1325=LINE('',#257,#1324);
#1326=EDGE_CURVE('',#258,#1322,#1325,.T.);
#1327=ORIENTED_EDGE('',*,*,#1326,.T.);
#1328=DIRECTION('',(-0.97237,0.23345,0.));
#1329=VECTOR('',#1328,3.76604);
#1330=LINE('',#1299,#1329);
#1331=EDGE_CURVE('',#1300,#1322,#1330,.T.);
#1332=ORIENTED_EDGE('',*,*,#1331,.F.);
#1333=ORIENTED_EDGE('',*,*,#1304,.F.);
#1334=EDGE_LOOP('',(#1320,#1327,#1332,#1333));
#1335=FACE_OUTER_BOUND('',#1334,.T.);
#1336=CARTESIAN_POINT('',(9.9349,30.57647,18.));
#1337=DIRECTION('',(0.1933,0.80517,0.56065));
#1338=DIRECTION('',(-0.97237,0.23345,0.));
#1339=AXIS2_PLACEMENT_3D('',#1336,#1337,#1338);
#1340=PLANE('',#1339);
#1341=ADVANCED_FACE('',(#1335),#1340,.T.);
#1342=ORIENTED_EDGE('',*,*,#295,.T.);
#1343=CARTESIAN_POINT('',(0.,24.,30.));
#1344=VERTEX_POINT('',#1343);
#1345=DIRECTION('',(0.,-0.56184,0.82725));
#1346=VECTOR('',#1345,14.50595);
#1347=LINE('',#285,#1346);
#1348=EDGE_CURVE('',#286,#1344,#1347,.T.);
#1349=ORIENTED_EDGE('',*,*,#1348,.T.);
#1350=DIRECTION('',(-0.99692,0.07846,0.));
#1351=VECTOR('',#1350,3.76604);
#1352=LINE('',#1321,#1351);
#1353=EDGE_CURVE('',#1322,#1344,#1352,.T.);
#1354=ORIENTED_EDGE('',*,*,#1353,.F.);
#1355=ORIENTED_EDGE('',*,*,#1326,.F.);
#1356=EDGE_LOOP('',(#1342,#1349,#1354,#1355));
#1357=FACE_OUTER_BOUND('',#1356,.T.);
#1358=CARTESIAN_POINT('',(5.02937,31.75418,18.));
#1359=DIRECTION('',(0.06497,0.8255,0.56065));
#1360=DIRECTION('',(-0.99692,0.07846,0.));
#1361=AXIS2_PLACEMENT_3D('',#1358,#1359,#1360);
#1362=PLANE('',#1361);
#1363=ADVANCED_FACE('',(#1357),#1362,.T.);
#1364=ORIENTED_EDGE('',*,*,#323,.T.);
#1365=CARTESIAN_POINT('',(-3.75443,23.70452,30.));
#1366=VERTEX_POINT('',#1365);
#1367=DIRECTION('',(0.08789,-0.55492,0.82725));
#1368=VECTOR('',#1367,14.50595);
#1369=LINE('',#313,#1368);
#1370=EDGE_CURVE('',#314,#1366,#1369,.T.);
#1371=ORIENTED_EDGE('',*,*,#1370,.T.);
#1372=DIRECTION('',(-0.99692,-0.07846,0.));
#1373=VECTOR('',#1372,3.76604);
#1374=LINE('',#1343,#1373);
#1375=EDGE_CURVE('',#1344,#1366,#1374,.T.);
#1376=ORIENTED_EDGE('',*,*,#1375,.F.);
#1377=ORIENTED_EDGE('',*,*,#1348,.F.);
#1378=EDGE_LOOP('',(#1364,#1371,#1376,#1377));
#1379=FACE_OUTER_BOUND('',#1378,.T.);
#1380=CARTESIAN_POINT('',(0.,32.15,18.));
#1381=DIRECTION('',(-0.06497,0.8255,0.56065));
#1382=DIRECTION('',(-0.99692,-0.07846,0.));
#1383=AXIS2_PLACEMENT_3D('',#1380,#1381,#1382);
#1384=PLANE('',#1383);
#1385=ADVANCED_FACE('',(#1379),#1384,.T.);
#1386=ORIENTED_EDGE('',*,*,#351,.T.);
#1387=CARTESIAN_POINT('',(-7.41641,22.82536,30.));
#1388=VERTEX_POINT('',#1387);
#1389=DIRECTION('',(0.17362,-0.53434,0.82725));
#1390=VECTOR('',#1389,14.50595);
#1391=LINE('',#341,#1390);
#1392=EDGE_CURVE('',#342,#1388,#1391,.T.);
#1393=ORIENTED_EDGE('',*,*,#1392,.T.);
#1394=DIRECTION('',(-0.97237,-0.23345,0.));
#1395=VECTOR('',#1394,3.76604);
#1396=LINE('',#1365,#1395);
#1397=EDGE_CURVE('',#1366,#1388,#1396,.T.);
#1398=ORIENTED_EDGE('',*,*,#1397,.F.);
#1399=ORIENTED_EDGE('',*,*,#1370,.F.);
#1400=EDGE_LOOP('',(#1386,#1393,#1398,#1399));
#1401=FACE_OUTER_BOUND('',#1400,.T.);
#1402=CARTESIAN_POINT('',(-5.02937,31.75418,18.));
#1403=DIRECTION('',(-0.1933,0.80517,0.56065));
#1404=DIRECTION('',(-0.97237,-0.23345,0.));
#1405=AXIS2_PLACEMENT_3D('',#1402,#1403,#1404);
#1406=PLANE('',#1405);
#1407=ADVANCED_FACE('',(#1401),#1406,.T.);
#1408=ORIENTED_EDGE('',*,*,#379,.T.);
#1409=CARTESIAN_POINT('',(-10.89577,21.38416,30.));
#1410=VERTEX_POINT('',#1409);
#1411=DIRECTION('',(0.25507,-0.5006,0.82725));
#1412=VECTOR('',#1411,14.50595);
#1413=LINE('',#369,#1412);
#1414=EDGE_CURVE('',#370,#1410,#1413,.T.);
#1415=ORIENTED_EDGE('',*,*,#1414,.T.);
#1416=DIRECTION('',(-0.92388,-0.38268,0.));
#1417=VECTOR('',#1416,3.76604);
#1418=LINE('',#1387,#1417);
#1419=EDGE_CURVE('',#1388,#1410,#1418,.T.);
#1420=ORIENTED_EDGE('',*,*,#1419,.F.);
#1421=ORIENTED_EDGE('',*,*,#1392,.F.);
#1422=EDGE_LOOP('',(#1408,#1415,#1420,#1421));
#1423=FACE_OUTER_BOUND('',#1422,.T.);
#1424=CARTESIAN_POINT('',(-9.9349,30.57647,18.));
#1425=DIRECTION('',(-0.31688,0.76502,0.56065));
#1426=DIRECTION('',(-0.92388,-0.38268,0.));
#1427=AXIS2_PLACEMENT_3D('',#1424,#1425,#1426);
#1428=PLANE('',#1427);
#1429=ADVANCED_FACE('',(#1423),#1428,.T.);
#1430=ORIENTED_EDGE('',*,*,#407,.T.);
#1431=CARTESIAN_POINT('',(-14.10685,19.41641,30.));
#1432=VERTEX_POINT('',#1431);
#1433=DIRECTION('',(0.33024,-0.45454,0.82725));
#1434=VECTOR('',#1433,14.50595);
#1435=LINE('',#397,#1434);
#1436=EDGE_CURVE('',#398,#1432,#1435,.T.);
#1437=ORIENTED_EDGE('',*,*,#1436,.T.);
#1438=DIRECTION('',(-0.85264,-0.5225,0.));
#1439=VECTOR('',#1438,3.76604);
#1440=LINE('',#1409,#1439);
#1441=EDGE_CURVE('',#1410,#1432,#1440,.T.);
#1442=ORIENTED_EDGE('',*,*,#1441,.F.);
#1443=ORIENTED_EDGE('',*,*,#1414,.F.);
#1444=EDGE_LOOP('',(#1430,#1437,#1442,#1443));
#1445=FACE_OUTER_BOUND('',#1444,.T.);
#1446=CARTESIAN_POINT('',(-14.59579,28.64586,18.));
#1447=DIRECTION('',(-0.43266,0.70603,0.56065));
#1448=DIRECTION('',(-0.85264,-0.5225,0.));
#1449=AXIS2_PLACEMENT_3D('',#1446,#1447,#1448);
#1450=PLANE('',#1449);
#1451=ADVANCED_FACE('',(#1445),#1450,.T.);
#1452=ORIENTED_EDGE('',*,*,#435,.T.);
#1453=CARTESIAN_POINT('',(-16.97056,16.97056,30.));
#1454=VERTEX_POINT('',#1453);
#1455=DIRECTION('',(0.39728,-0.39728,0.82725));
#1456=VECTOR('',#1455,14.50595);
#1457=LINE('',#425,#1456);
#1458=EDGE_CURVE('',#426,#1454,#1457,.T.);
#1459=ORIENTED_EDGE('',*,*,#1458,.T.);
#1460=DIRECTION('',(-0.76041,-0.64945,0.));
#1461=VECTOR('',#1460,3.76604);
#1462=LINE('',#1431,#1461);
#1463=EDGE_CURVE('',#1432,#1454,#1462,.T.);
#1464=ORIENTED_EDGE('',*,*,#1463,.F.);
#1465=ORIENTED_EDGE('',*,*,#1436,.F.);
#1466=EDGE_LOOP('',(#1452,#1459,#1464,#1465));
#1467=FACE_OUTER_BOUND('',#1466,.T.);
#1468=CARTESIAN_POINT('',(-18.8973,26.0099,18.));
#1469=DIRECTION('',(-0.53778,0.62966,0.56065));
#1470=DIRECTION('',(-0.76041,-0.64945,0.));
#1471=AXIS2_PLACEMENT_3D('',#1468,#1469,#1470);
#1472=PLANE('',#1471);
#1473=ADVANCED_FACE('',(#1467),#1472,.T.);
#1474=ORIENTED_EDGE('',*,*,#463,.T.);
#1475=CARTESIAN_POINT('',(-19.41641,14.10685,30.));
#1476=VERTEX_POINT('',#1475);
#1477=DIRECTION('',(0.45454,-0.33024,0.82725));
#1478=VECTOR('',#1477,14.50595);
#1479=LINE('',#453,#1478);
#1480=EDGE_CURVE('',#454,#1476,#1479,.T.);
#1481=ORIENTED_EDGE('',*,*,#1480,.T.);
#1482=DIRECTION('',(-0.64945,-0.76041,0.));
#1483=VECTOR('',#1482,3.76604);
#1484=LINE('',#1453,#1483);
#1485=EDGE_CURVE('',#1454,#1476,#1484,.T.);
#1486=ORIENTED_EDGE('',*,*,#1485,.F.);
#1487=ORIENTED_EDGE('',*,*,#1458,.F.);
#1488=EDGE_LOOP('',(#1474,#1481,#1486,#1487));
#1489=FACE_OUTER_BOUND('',#1488,.T.);
#1490=CARTESIAN_POINT('',(-22.73348,22.73348,18.));
#1491=DIRECTION('',(-0.62966,0.53778,0.56065));
#1492=DIRECTION('',(-0.64945,-0.76041,0.));
#1493=AXIS2_PLACEMENT_3D('',#1490,#1491,#1492);
#1494=PLANE('',#1493);
#1495=ADVANCED_FACE('',(#1489),#1494,.T.);
#1496=ORIENTED_EDGE('',*,*,#491,.T.);
#1497=CARTESIAN_POINT('',(-21.38416,10.89577,30.));
#1498=VERTEX_POINT('',#1497);
#1499=DIRECTION('',(0.5006,-0.25507,0.82725));
#1500=VECTOR('',#1499,14.50595);
#1501=LINE('',#481,#1500);
#1502=EDGE_CURVE('',#482,#1498,#1501,.T.);
#1503=ORIENTED_EDGE('',*,*,#1502,.T.);
#1504=DIRECTION('',(-0.5225,-0.85264,0.));
#1505=VECTOR('',#1504,3.76604);
#1506=LINE('',#1475,#1505);
#1507=EDGE_CURVE('',#1476,#1498,#1506,.T.);
#1508=ORIENTED_EDGE('',*,*,#1507,.F.);
#1509=ORIENTED_EDGE('',*,*,#1480,.F.);
#1510=EDGE_LOOP('',(#1496,#1503,#1508,#1509));
#1511=FACE_OUTER_BOUND('',#1510,.T.);
#1512=CARTESIAN_POINT('',(-26.0099,18.8973,18.));
#1513=DIRECTION('',(-0.70603,0.43266,0.56065));
#1514=DIRECTION('',(-0.5225,-0.85264,0.));
#1515=AXIS2_PLACEMENT_3D('',#1512,#1513,#1514);
#1516=PLANE('',#1515);
#1517=ADVANCED_FACE('',(#1511),#1516,.T.);
#1518=ORIENTED_EDGE('',*,*,#519,.T.);
#1519=CARTESIAN_POINT('',(-22.82536,7.41641,30.));
#1520=VERTEX_POINT('',#1519);
#1521=DIRECTION('',(0.53434,-0.17362,0.82725));
#1522=VECTOR('',#1521,14.50595);
#1523=LINE('',#509,#1522);
#1524=EDGE_CURVE('',#510,#1520,#1523,.T.);
#1525=ORIENTED_EDGE('',*,*,#1524,.T.);
#1526=DIRECTION('',(-0.38268,-0.92388,0.));
#1527=VECTOR('',#1526,3.76604);
#1528=LINE('',#1497,#1527);
#1529=EDGE_CURVE('',#1498,#1520,#1528,.T.);
#1530=ORIENTED_EDGE('',*,*,#1529,.F.);
#1531=ORIENTED_EDGE('',*,*,#1502,.F.);
#1532=EDGE_LOOP('',(#1518,#1525,#1530,#1531));
#1533=FACE_OUTER_BOUND('',#1532,.T.);
#1534=CARTESIAN_POINT('',(-28.64586,14.59579,18.));
#1535=DIRECTION('',(-0.76502,0.31688,0.56065));
#1536=DIRECTION('',(-0.38268,-0.92388,0.));
#1537=AXIS2_PLACEMENT_3D('',#1534,#1535,#1536);
#1538=PLANE('',#1537);
#1539=ADVANCED_FACE('',(#1533),#1538,.T.);
#1540=ORIENTED_EDGE('',*,*,#547,.T.);
#1541=CARTESIAN_POINT('',(-23.70452,3.75443,30.));
#1542=VERTEX_POINT('',#1541);
#1543=DIRECTION('',(0.55492,-0.08789,0.82725));
#1544=VECTOR('',#1543,14.50595);
#1545=LINE('',#537,#1544);
#1546=EDGE_CURVE('',#538,#1542,#1545,.T.);
#1547=ORIENTED_EDGE('',*,*,#1546,.T.);
#1548=DIRECTION('',(-0.23345,-0.97237,0.));
#1549=VECTOR('',#1548,3.76604);
#1550=LINE('',#1519,#1549);
#1551=EDGE_CURVE('',#1520,#1542,#1550,.T.);
#1552=ORIENTED_EDGE('',*,*,#1551,.F.);
#1553=ORIENTED_EDGE('',*,*,#1524,.F.);
#1554=EDGE_LOOP('',(#1540,#1547,#1552,#1553));
#1555=FACE_OUTER_BOUND('',#1554,.T.);
#1556=CARTESIAN_POINT('',(-30.57647,9.9349,18.));
#1557=DIRECTION('',(-0.80517,0.1933,0.56065));
#1558=DIRECTION('',(-0.23345,-0.97237,0.));
#1559=AXIS2_PLACEMENT_3D('',#1556,#1557,#1558);
#1560=PLANE('',#1559);
#1561=ADVANCED_FACE('',(#1555),#1560,.T.);
#1562=ORIENTED_EDGE('',*,*,#575,.T.);
#1563=CARTESIAN_POINT('',(-24.,0.,30.));
#1564=VERTEX_POINT('',#1563);
#1565=DIRECTION('',(0.56184,0.,0.82725));
#1566=VECTOR('',#1565,14.50595);
#1567=LINE('',#565,#1566);
#1568=EDGE_CURVE('',#566,#1564,#1567,.T.);
#1569=ORIENTED_EDGE('',*,*,#1568,.T.);
#1570=DIRECTION('',(-0.07846,-0.99692,0.));
#1571=VECTOR('',#1570,3.76604);
#1572=LINE('',#1541,#1571);
#1573=EDGE_CURVE('',#1542,#1564,#1572,.T.);
#1574=ORIENTED_EDGE('',*,*,#1573,.F.);
#1575=ORIENTED_EDGE('',*,*,#1546,.F.);
#1576=EDGE_LOOP('',(#1562,#1569,#1574,#1575));
#1577=FACE_OUTER_BOUND('',#1576,.T.);
#1578=CARTESIAN_POINT('',(-31.75418,5.02937,18.));
#1579=DIRECTION('',(-0.8255,0.06497,0.56065));
#1580=DIRECTION('',(-0.07846,-0.99692,0.));
#1581=AXIS2_PLACEMENT_3D('',#1578,#1579,#1580);
#1582=PLANE('',#1581);
#1583=ADVANCED_FACE('',(#1577),#1582,.T.);
#1584=ORIENTED_EDGE('',*,*,#603,.T.);
#1585=CARTESIAN_POINT('',(-23.70452,-3.75443,30.));
#1586=VERTEX_POINT('',#1585);
#1587=DIRECTION('',(0.55492,0.08789,0.82725));
#1588=VECTOR('',#1587,14.50595);
#1589=LINE('',#593,#1588);
#1590=EDGE_CURVE('',#594,#1586,#1589,.T.);
#1591=ORIENTED_EDGE('',*,*,#1590,.T.);
#1592=DIRECTION('',(0.07846,-0.99692,0.));
#1593=VECTOR('',#1592,3.76604);
#1594=LINE('',#1563,#1593);
#1595=EDGE_CURVE('',#1564,#1586,#1594,.T.);
#1596=ORIENTED_EDGE('',*,*,#1595,.F.);
#1597=ORIENTED_EDGE('',*,*,#1568,.F.);
#1598=EDGE_LOOP('',(#1584,#1591,#1596,#1597));
#1599=FACE_OUTER_BOUND('',#1598,.T.);
#1600=CARTESIAN_POINT('',(-32.15,0.,18.));
#1601=DIRECTION('',(-0.8255,-0.06497,0.56065));
#1602=DIRECTION('',(0.07846,-0.99692,0.));
#1603=AXIS2_PLACEMENT_3D('',#1600,#1601,#1602);
#1604=PLANE('',#1603);
#1605=ADVANCED_FACE('',(#1599),#1604,.T.);
#1606=ORIENTED_EDGE('',*,*,#631,.T.);
#1607=CARTESIAN_POINT('',(-22.82536,-7.41641,30.));
#1608=VERTEX_POINT('',#1607);
#1609=DIRECTION('',(0.53434,0.17362,0.82725));
#1610=VECTOR('',#1609,14.50595);
#1611=LINE('',#621,#1610);
#1612=EDGE_CURVE('',#622,#1608,#1611,.T.);
#1613=ORIENTED_EDGE('',*,*,#1612,.T.);
#1614=DIRECTION('',(0.23345,-0.97237,0.));
#1615=VECTOR('',#1614,3.76604);
#1616=LINE('',#1585,#1615);
#1617=EDGE_CURVE('',#1586,#1608,#1616,.T.);
#1618=ORIENTED_EDGE('',*,*,#1617,.F.);
#1619=ORIENTED_EDGE('',*,*,#1590,.F.);
#1620=EDGE_LOOP('',(#1606,#1613,#1618,#1619));
#1621=FACE_OUTER_BOUND('',#1620,.T.);
#1622=CARTESIAN_POINT('',(-31.75418,-5.02937,18.));
#1623=DIRECTION('',(-0.80517,-0.1933,0.56065));
#1624=DIRECTION('',(0.23345,-0.97237,0.));
#1625=AXIS2_PLACEMENT_3D('',#1622,#1623,#1624);
#1626=PLANE('',#1625);
#1627=ADVANCED_FACE('',(#1621),#1626,.T.);
#1628=ORIENTED_EDGE('',*,*,#659,.T.);
#1629=CARTESIAN_POINT('',(-21.38416,-10.89577,30.));
#1630=VERTEX_POINT('',#1629);
#1631=DIRECTION('',(0.5006,0.25507,0.82725));
#1632=VECTOR('',#1631,14.50595);
#1633=LINE('',#649,#1632);
#1634=EDGE_CURVE('',#650,#1630,#1633,.T.);
#1635=ORIENTED_EDGE('',*,*,#1634,.T.);
#1636=DIRECTION('',(0.38268,-0.92388,0.));
#1637=VECTOR('',#1636,3.76604);
#1638=LINE('',#1607,#1637);
#1639=EDGE_CURVE('',#1608,#1630,#1638,.T.);
#1640=ORIENTED_EDGE('',*,*,#1639,.F.);
#1641=ORIENTED_EDGE('',*,*,#1612,.F.);
#1642=EDGE_LOOP('',(#1628,#1635,#1640,#1641));
#1643=FACE_OUTER_BOUND('',#1642,.T.);
#1644=CARTESIAN_POINT('',(-30.57647,-9.9349,18.));
#1645=DIRECTION('',(-0.76502,-0.31688,0.56065));
#1646=DIRECTION('',(0.38268,-0.92388,0.));
#1647=AXIS2_PLACEMENT_3D('',#1644,#1645,#1646);
#1648=PLANE('',#1647);
#1649=ADVANCED_FACE('',(#1643),#1648,.T.);
#1650=ORIENTED_EDGE('',*,*,#687,.T.);
#1651=CARTESIAN_POINT('',(-19.41641,-14.10685,30.));
#1652=VERTEX_POINT('',#1651);
#1653=DIRECTION('',(0.45454,0.33024,0.82725));
#1654=VECTOR('',#1653,14.50595);
#1655=LINE('',#677,#1654);
#1656=EDGE_CURVE('',#678,#1652,#1655,.T.);
#1657=ORIENTED_EDGE('',*,*,#1656,.T.);
#1658=DIRECTION('',(0.5225,-0.85264,0.));
#1659=VECTOR('',#1658,3.76604);
#1660=LINE('',#1629,#1659);
#1661=EDGE_CURVE('',#1630,#1652,#1660,.T.);
#1662=ORIENTED_EDGE('',*,*,#1661,.F.);
#1663=ORIENTED_EDGE('',*,*,#1634,.F.);
#1664=EDGE_LOOP('',(#1650,#1657,#1662,#1663));
#1665=FACE_OUTER_BOUND('',#1664,.T.);
#1666=CARTESIAN_POINT('',(-28.64586,-14.59579,18.));
#1667=DIRECTION('',(-0.70603,-0.43266,0.56065));
#1668=DIRECTION('',(0.5225,-0.85264,0.));
#1669=AXIS2_PLACEMENT_3D('',#1666,#1667,#1668);
#1670=PLANE('',#1669);
#1671=ADVANCED_FACE('',(#1665),#1670,.T.);
#1672=ORIENTED_EDGE('',*,*,#715,.T.);
#1673=CARTESIAN_POINT('',(-16.97056,-16.97056,30.));
#1674=VERTEX_POINT('',#1673);
#1675=DIRECTION('',(0.39728,0.39728,0.82725));
#1676=VECTOR('',#1675,14.50595);
#1677=LINE('',#705,#1676);
#1678=EDGE_CURVE('',#706,#1674,#1677,.T.);
#1679=ORIENTED_EDGE('',*,*,#1678,.T.);
#1680=DIRECTION('',(0.64945,-0.76041,0.));
#1681=VECTOR('',#1680,3.76604);
#1682=LINE('',#1651,#1681);
#1683=EDGE_CURVE('',#1652,#1674,#1682,.T.);
#1684=ORIENTED_EDGE('',*,*,#1683,.F.);
#1685=ORIENTED_EDGE('',*,*,#1656,.F.);
#1686=EDGE_LOOP('',(#1672,#1679,#1684,#1685));
#1687=FACE_OUTER_BOUND('',#1686,.T.);
#1688=CARTESIAN_POINT('',(-26.0099,-18.8973,18.));
#1689=DIRECTION('',(-0.62966,-0.53778,0.56065));
#1690=DIRECTION('',(0.64945,-0.76041,0.));
#1691=AXIS2_PLACEMENT_3D('',#1688,#1689,#1690);
#1692=PLANE('',#1691);
#1693=ADVANCED_FACE('',(#1687),#1692,.T.);
#1694=ORIENTED_EDGE('',*,*,#743,.T.);
#1695=CARTESIAN_POINT('',(-14.10685,-19.41641,30.));
#1696=VERTEX_POINT('',#1695);
#1697=DIRECTION('',(0.33024,0.45454,0.82725));
#1698=VECTOR('',#1697,14.50595);
#1699=LINE('',#733,#1698);
#1700=EDGE_CURVE('',#734,#1696,#1699,.T.);
#1701=ORIENTED_EDGE('',*,*,#1700,.T.);
#1702=DIRECTION('',(0.76041,-0.64945,0.));
#1703=VECTOR('',#1702,3.76604);
#1704=LINE('',#1673,#1703);
#1705=EDGE_CURVE('',#1674,#1696,#1704,.T.);
#1706=ORIENTED_EDGE('',*,*,#1705,.F.);
#1707=ORIENTED_EDGE('',*,*,#1678,.F.);
#1708=EDGE_LOOP('',(#1694,#1701,#1706,#1707));
#1709=FACE_OUTER_BOUND('',#1708,.T.);
#1710=CARTESIAN_POINT('',(-22.73348,-22.73348,18.));
#1711=DIRECTION('',(-0.53778,-0.62966,0.56065));
#1712=DIRECTION('',(0.76041,-0.64945,0.));
#1713=AXIS2_PLACEMENT_3D('',#1710,#1711,#1712);
#1714=PLANE('',#1713);
#1715=ADVANCED_FACE('',(#1709),#1714,.T.);
#1716=ORIENTED_EDGE('',*,*,#771,.T.);
#1717=CARTESIAN_POINT('',(-10.89577,-21.38416,30.));
#1718=VERTEX_POINT('',#1717);
#1719=DIRECTION('',(0.25507,0.5006,0.82725));
#1720=VECTOR('',#1719,14.50595);
#1721=LINE('',#761,#1720);
#1722=EDGE_CURVE('',#762,#1718,#1721,.T.);
#1723=ORIENTED_EDGE('',*,*,#1722,.T.);
#1724=DIRECTION('',(0.85264,-0.5225,0.));
#1725=VECTOR('',#1724,3.76604);
#1726=LINE('',#1695,#1725);
#1727=EDGE_CURVE('',#1696,#1718,#1726,.T.);
#1728=ORIENTED_EDGE('',*,*,#1727,.F.);
#1729=ORIENTED_EDGE('',*,*,#1700,.F.);
#1730=EDGE_LOOP('',(#1716,#1723,#1728,#1729));
#1731=FACE_OUTER_BOUND('',#1730,.T.);
#1732=CARTESIAN_POINT('',(-18.8973,-26.0099,18.));
#1733=DIRECTION('',(-0.43266,-0.70603,0.56065));
#1734=DIRECTION('',(0.85264,-0.5225,0.));
#1735=AXIS2_PLACEMENT_3D('',#1732,#1733,#1734);
#1736=PLANE('',#1735);
#1737=ADVANCED_FACE('',(#1731),#1736,.T.);
#1738=ORIENTED_EDGE('',*,*,#799,.T.);
#1739=CARTESIAN_POINT('',(-7.41641,-22.82536,30.));
#1740=VERTEX_POINT('',#1739);
#1741=DIRECTION('',(0.17362,0.53434,0.82725));
#1742=VECTOR('',#1741,14.50595);
#1743=LINE('',#789,#1742);
#1744=EDGE_CURVE('',#790,#1740,#1743,.T.);
#1745=ORIENTED_EDGE('',*,*,#1744,.T.);
#1746=DIRECTION('',(0.92388,-0.38268,0.));
#1747=VECTOR('',#1746,3.76604);
#1748=LINE('',#1717,#1747);
#1749=EDGE_CURVE('',#1718,#1740,#1748,.T.);
#1750=ORIENTED_EDGE('',*,*,#1749,.F.);
#1751=ORIENTED_EDGE('',*,*,#1722,.F.);
#1752=EDGE_LOOP('',(#1738,#1745,#1750,#1751));
#1753=FACE_OUTER_BOUND('',#1752,.T.);
#1754=CARTESIAN_POINT('',(-14.59579,-28.64586,18.));
#1755=DIRECTION('',(-0.31688,-0.76502,0.56065));
#1756=DIRECTION('',(0.92388,-0.38268,0.));
#1757=AXIS2_PLACEMENT_3D('',#1754,#1755,#1756);
#1758=PLANE('',#1757);
#1759=ADVANCED_FACE('',(#1753),#1758,.T.);
#1760=ORIENTED_EDGE('',*,*,#827,.T.);
#1761=CARTESIAN_POINT('',(-3.75443,-23.70452,30.));
#1762=VERTEX_POINT('',#1761);
#1763=DIRECTION('',(0.08789,0.55492,0.82725));
#1764=VECTOR('',#1763,14.50595);
#1765=LINE('',#817,#1764);
#1766=EDGE_CURVE('',#818,#1762,#1765,.T.);
#1767=ORIENTED_EDGE('',*,*,#1766,.T.);
#1768=DIRECTION('',(0.97237,-0.23345,0.));
#1769=VECTOR('',#1768,3.76604);
#1770=LINE('',#1739,#1769);
#1771=EDGE_CURVE('',#1740,#1762,#1770,.T.);
#1772=ORIENTED_EDGE('',*,*,#1771,.F.);
#1773=ORIENTED_EDGE('',*,*,#1744,.F.);
#1774=EDGE_LOOP('',(#1760,#1767,#1772,#1773));
#1775=FACE_OUTER_BOUND('',#1774,.T.);
#1776=CARTESIAN_POINT('',(-9.9349,-30.57647,18.));
#1777=DIRECTION('',(-0.1933,-0.80517,0.56065));
#1778=DIRECTION('',(0.97237,-0.23345,0.));
#1779=AXIS2_PLACEMENT_3D('',#1776,#1777,#1778);
#1780=PLANE('',#1779);
#1781=ADVANCED_FACE('',(#1775),#1780,.T.);
#1782=ORIENTED_EDGE('',*,*,#855,.T.);
#1783=CARTESIAN_POINT('',(0.,-24.,30.));
#1784=VERTEX_POINT('',#1783);
#1785=DIRECTION('',(0.,0.56184,0.82725));
#1786=VECTOR('',#1785,14.50595);
#1787=LINE('',#845,#1786);
#1788=EDGE_CURVE('',#846,#1784,#1787,.T.);
#1789=ORIENTED_EDGE('',*,*,#1788,.T.);
#1790=DIRECTION('',(0.99692,-0.07846,0.));
#1791=VECTOR('',#1790,3.76604);
#1792=LINE('',#1761,#1791);
#1793=EDGE_CURVE('',#1762,#1784,#1792,.T.);
#1794=ORIENTED_EDGE('',*,*,#1793,.F.);
#1795=ORIENTED_EDGE('',*,*,#1766,.F.);
#1796=EDGE_LOOP('',(#1782,#1789,#1794,#1795));
#1797=FACE_OUTER_BOUND('',#1796,.T.);
#1798=CARTESIAN_POINT('',(-5.02937,-31.75418,18.));
#1799=DIRECTION('',(-0.06497,-0.8255,0.56065));
#1800=DIRECTION('',(0.99692,-0.07846,0.));
#1801=AXIS2_PLACEMENT_3D('',#1798,#1799,#1800);
#1802=PLANE('',#1801);
#1803=ADVANCED_FACE('',(#1797),#1802,.T.);
#1804=ORIENTED_EDGE('',*,*,#883,.T.);
#1805=CARTESIAN_POINT('',(3.75443,-23.70452,30.));
#1806=VERTEX_POINT('',#1805);
#1807=DIRECTION('',(-0.08789,0.55492,0.82725));
#1808=VECTOR('',#1807,14.50595);
#1809=LINE('',#873,#1808);
#1810=EDGE_CURVE('',#874,#1806,#1809,.T.);
#1811=ORIENTED_EDGE('',*,*,#1810,.T.);
#1812=DIRECTION('',(0.99692,0.07846,0.));
#1813=VECTOR('',#1812,3.76604);
#1814=LINE('',#1783,#1813);
#1815=EDGE_CURVE('',#1784,#1806,#1814,.T.);
#1816=ORIENTED_EDGE('',*,*,#1815,.F.);
#1817=ORIENTED_EDGE('',*,*,#1788,.F.);
#1818=EDGE_LOOP('',(#1804,#1811,#1816,#1817));
#1819=FACE_OUTER_BOUND('',#1818,.T.);
#1820=CARTESIAN_POINT('',(0.,-32.15,18.));
#1821=DIRECTION('',(0.06497,-0.8255,0.56065));
#1822=DIRECTION('',(0.99692,0.07846,0.));
#1823=AXIS2_PLACEMENT_3D('',#1820,#1821,#1822);
#1824=PLANE('',#1823);
#1825=ADVANCED_FACE('',(#1819),#1824,.T.);
#1826=ORIENTED_EDGE('',*,*,#911,.T.);
#1827=CARTESIAN_POINT('',(7.41641,-22.82536,30.));
#1828=VERTEX_POINT('',#1827);
#1829=DIRECTION('',(-0.17362,0.53434,0.82725));
#1830=VECTOR('',#1829,14.50595);
#1831=LINE('',#901,#1830);
#1832=EDGE_CURVE('',#902,#1828,#1831,.T.);
#1833=ORIENTED_EDGE('',*,*,#1832,.T.);
#1834=DIRECTION('',(0.97237,0.23345,0.));
#1835=VECTOR('',#1834,3.76604);
#1836=LINE('',#1805,#1835);
#1837=EDGE_CURVE('',#1806,#1828,#1836,.T.);
#1838=ORIENTED_EDGE('',*,*,#1837,.F.);
#1839=ORIENTED_EDGE('',*,*,#1810,.F.);
#1840=EDGE_LOOP('',(#1826,#1833,#1838,#1839));
#1841=FACE_OUTER_BOUND('',#1840,.T.);
#1842=CARTESIAN_POINT('',(5.02937,-31.75418,18.));
#1843=DIRECTION('',(0.1933,-0.80517,0.56065));
#1844=DIRECTION('',(0.97237,0.23345,0.));
#1845=AXIS2_PLACEMENT_3D('',#1842,#1843,#1844);
#1846=PLANE('',#1845);
#1847=ADVANCED_FACE('',(#1841),#1846,.T.);
#1848=ORIENTED_EDGE('',*,*,#939,.T.);
#1849=CARTESIAN_POINT('',(10.89577,-21.38416,30.));
#1850=VERTEX_POINT('',#1849);
#1851=DIRECTION('',(-0.25507,0.5006,0.82725));
#1852=VECTOR('',#1851,14.50595);
#1853=LINE('',#929,#1852);
#1854=EDGE_CURVE('',#930,#1850,#1853,.T.);
#1855=ORIENTED_EDGE('',*,*,#1854,.T.);
#1856=DIRECTION('',(0.92388,0.38268,0.));
#1857=VECTOR('',#1856,3.76604);
#1858=LINE('',#1827,#1857);
#1859=EDGE_CURVE('',#1828,#1850,#1858,.T.);
#1860=ORIENTED_EDGE('',*,*,#1859,.F.);
#1861=ORIENTED_EDGE('',*,*,#1832,.F.);
#1862=EDGE_LOOP('',(#1848,#1855,#1860,#1861));
#1863=FACE_OUTER_BOUND('',#1862,.T.);
#1864=CARTESIAN_POINT('',(9.9349,-30.57647,18.));
#1865=DIRECTION('',(0.31688,-0.76502,0.56065));
#1866=DIRECTION('',(0.92388,0.38268,0.));
#1867=AXIS2_PLACEMENT_3D('',#1864,#1865,#1866);
#1868=PLANE('',#1867);
#1869=ADVANCED_FACE('',(#1863),#1868,.T.);
#1870=ORIENTED_EDGE('',*,*,#967,.T.);
#1871=CARTESIAN_POINT('',(14.10685,-19.41641,30.));
#1872=VERTEX_POINT('',#1871);
#1873=DIRECTION('',(-0.33024,0.45454,0.82725));
#1874=VECTOR('',#1873,14.50595);
#1875=LINE('',#957,#1874);
#1876=EDGE_CURVE('',#958,#1872,#1875,.T.);
#1877=ORIENTED_EDGE('',*,*,#1876,.T.);
#1878=DIRECTION('',(0.85264,0.5225,0.));
#1879=VECTOR('',#1878,3.76604);
#1880=LINE('',#1849,#1879);
#1881=EDGE_CURVE('',#1850,#1872,#1880,.T.);
#1882=ORIENTED_EDGE('',*,*,#1881,.F.);
#1883=ORIENTED_EDGE('',*,*,#1854,.F.);
#1884=EDGE_LOOP('',(#1870,#1877,#1882,#1883));
#1885=FACE_OUTER_BOUND('',#1884,.T.);
#1886=CARTESIAN_POINT('',(14.59579,-28.64586,18.));
#1887=DIRECTION('',(0.43266,-0.70603,0.56065));
#1888=DIRECTION('',(0.85264,0.5225,0.));
#1889=AXIS2_PLACEMENT_3D('',#1886,#1887,#1888);
#1890=PLANE('',#1889);
#1891=ADVANCED_FACE('',(#1885),#1890,.T.);
#1892=ORIENTED_EDGE('',*,*,#995,.T.);
#1893=CARTESIAN_POINT('',(16.97056,-16.97056,30.));
#1894=VERTEX_POINT('',#1893);
#1895=DIRECTION('',(-0.39728,0.39728,0.82725));
#1896=VECTOR('',#1895,14.50595);
#1897=LINE('',#985,#1896);
#1898=EDGE_CURVE('',#986,#1894,#1897,.T.);
#1899=ORIENTED_EDGE('',*,*,#1898,.T.);
#1900=DIRECTION('',(0.76041,0.64945,0.));
#1901=VECTOR('',#1900,3.76604);
#1902=LINE('',#1871,#1901);
#1903=EDGE_CURVE('',#1872,#1894,#1902,.T.);
#1904=ORIENTED_EDGE('',*,*,#1903,.F.);
#1905=ORIENTED_EDGE('',*,*,#1876,.F.);
#1906=EDGE_LOOP('',(#1892,#1899,#1904,#1905));
#1907=FACE_OUTER_BOUND('',#1906,.T.);
#1908=CARTESIAN_POINT('',(18.8973,-26.0099,18.));
#1909=DIRECTION('',(0.53778,-0.62966,0.56065));
#1910=DIRECTION('',(0.76041,0.64945,0.));
#1911=AXIS2_PLACEMENT_3D('',#1908,#1909,#1910);
#1912=PLANE('',#1911);
#1913=ADVANCED_FACE('',(#1907),#1912,.T.);
#1914=ORIENTED_EDGE('',*,*,#1023,.T.);
#1915=CARTESIAN_POINT('',(19.41641,-14.10685,30.));
#1916=VERTEX_POINT('',#1915);
#1917=DIRECTION('',(-0.45454,0.33024,0.82725));
#1918=VECTOR('',#1917,14.50595);
#1919=LINE('',#1013,#1918);
#1920=EDGE_CURVE('',#1014,#1916,#1919,.T.);
#1921=ORIENTED_EDGE('',*,*,#1920,.T.);
#1922=DIRECTION('',(0.64945,0.76041,0.));
#1923=VECTOR('',#1922,3.76604);
#1924=LINE('',#1893,#1923);
#1925=EDGE_CURVE('',#1894,#1916,#1924,.T.);
#1926=ORIENTED_EDGE('',*,*,#1925,.F.);
#1927=ORIENTED_EDGE('',*,*,#1898,.F.);
#1928=EDGE_LOOP('',(#1914,#1921,#1926,#1927));
#1929=FACE_OUTER_BOUND('',#1928,.T.);
#1930=CARTESIAN_POINT('',(22.73348,-22.73348,18.));
#1931=DIRECTION('',(0.62966,-0.53778,0.56065));
#1932=DIRECTION('',(0.64945,0.76041,0.));
#1933=AXIS2_PLACEMENT_3D('',#1930,#1931,#1932);
#1934=PLANE('',#1933);
#1935=ADVANCED_FACE('',(#1929),#1934,.T.);
#1936=ORIENTED_EDGE('',*,*,#1051,.T.);
#1937=CARTESIAN_POINT('',(21.38416,-10.89577,30.));
#1938=VERTEX_POINT('',#1937);
#1939=DIRECTION('',(-0.5006,0.25507,0.82725));
#1940=VECTOR('',#1939,14.50595);
#1941=LINE('',#1041,#1940);
#1942=EDGE_CURVE('',#1042,#1938,#1941,.T.);
#1943=ORIENTED_EDGE('',*,*,#1942,.T.);
#1944=DIRECTION('',(0.5225,0.85264,0.));
#1945=VECTOR('',#1944,3.76604);
#1946=LINE('',#1915,#1945);
#1947=EDGE_CURVE('',#1916,#1938,#1946,.T.);
#1948=ORIENTED_EDGE('',*,*,#1947,.F.);
#1949=ORIENTED_EDGE('',*,*,#1920,.F.);
#1950=EDGE_LOOP('',(#1936,#1943,#1948,#1949));
#1951=FACE_OUTER_BOUND('',#1950,.T.);
#1952=CARTESIAN_POINT('',(26.0099,-18.8973,18.));
#1953=DIRECTION('',(0.70603,-0.43266,0.56065));
#1954=DIRECTION('',(0.5225,0.85264,0.));
#1955=AXIS2_PLACEMENT_3D('',#1952,#1953,#1954);
#1956=PLANE('',#1955);
#1957=ADVANCED_FACE('',(#1951),#1956,.T.);
#1958=ORIENTED_EDGE('',*,*,#1079,.T.);
#1959=CARTESIAN_POINT('',(22.82536,-7.41641,30.));
#1960=VERTEX_POINT('',#1959);
#1961=DIRECTION('',(-0.53434,0.17362,0.82725));
#1962=VECTOR('',#1961,14.50595);
#1963=LINE('',#1069,#1962);
#1964=EDGE_CURVE('',#1070,#1960,#1963,.T.);
#1965=ORIENTED_EDGE('',*,*,#1964,.T.);
#1966=DIRECTION('',(0.38268,0.92388,0.));
#1967=VECTOR('',#1966,3.76604);
#1968=LINE('',#1937,#1967);
#1969=EDGE_CURVE('',#1938,#1960,#1968,.T.);
#1970=ORIENTED_EDGE('',*,*,#1969,.F.);
#1971=ORIENTED_EDGE('',*,*,#1942,.F.);
#1972=EDGE_LOOP('',(#1958,#1965,#1970,#1971));
#1973=FACE_OUTER_BOUND('',#1972,.T.);
#1974=CARTESIAN_POINT('',(28.64586,-14.59579,18.));
#1975=DIRECTION('',(0.76502,-0.31688,0.56065));
#1976=DIRECTION('',(0.38268,0.92388,0.));
#1977=AXIS2_PLACEMENT_3D('',#1974,#1975,#1976);
#1978=PLANE('',#1977);
#1979=ADVANCED_FACE('',(#1973),#1978,.T.);
#1980=ORIENTED_EDGE('',*,*,#1107,.T.);
#1981=CARTESIAN_POINT('',(23.70452,-3.75443,30.));
#1982=VERTEX_POINT('',#1981);
#1983=DIRECTION('',(-0.55492,0.08789,0.82725));
#1984=VECTOR('',#1983,14.50595);
#1985=LINE('',#1097,#1984);
#1986=EDGE_CURVE('',#1098,#1982,#1985,.T.);
#1987=ORIENTED_EDGE('',*,*,#1986,.T.);
#1988=DIRECTION('',(0.23345,0.97237,0.));
#1989=VECTOR('',#1988,3.76604);
#1990=LINE('',#1959,#1989);
#1991=EDGE_CURVE('',#1960,#1982,#1990,.T.);
#1992=ORIENTED_EDGE('',*,*,#1991,.F.);
#1993=ORIENTED_EDGE('',*,*,#1964,.F.);
#1994=EDGE_LOOP('',(#1980,#1987,#1992,#1993));
#1995=FACE_OUTER_BOUND('',#1994,.T.);
#1996=CARTESIAN_POINT('',(30.57647,-9.9349,18.));
#1997=DIRECTION('',(0.80517,-0.1933,0.56065));
#1998=DIRECTION('',(0.23345,0.97237,0.));
#1999=AXIS2_PLACEMENT_3D('',#1996,#1997,#1998);
#2000=PLANE('',#1999);
#2001=ADVANCED_FACE('',(#1995),#2000,.T.);
#2002=ORIENTED_EDGE('',*,*,#1127,.F.);
#2003=ORIENTED_EDGE('',*,*,#1156,.T.);
#2004=DIRECTION('',(-0.07846,-0.99692,0.));
#2005=VECTOR('',#2004,3.76604);
#2006=LINE('',#1146,#2005);
#2007=EDGE_CURVE('',#1147,#1982,#2006,.T.);
#2008=ORIENTED_EDGE('',*,*,#2007,.T.);
#2009=ORIENTED_EDGE('',*,*,#1986,.F.);
#2010=EDGE_LOOP('',(#2002,#2003,#2008,#2009));
#2011=FACE_OUTER_BOUND('',#2010,.T.);
#2012=CARTESIAN_POINT('',(31.75418,-5.02937,18.));
#2013=DIRECTION('',(0.8255,-0.06497,0.56065));
#2014=DIRECTION('',(0.07846,0.99692,0.));
#2015=AXIS2_PLACEMENT_3D('',#2012,#2013,#2014);
#2016=PLANE('',#2015);
#2017=ADVANCED_FACE('',(#2011),#2016,.T.);
#2018=ORIENTED_EDGE('',*,*,#1095,.F.);
#2019=ORIENTED_EDGE('',*,*,#1067,.F.);
#2020=ORIENTED_EDGE('',*,*,#1039,.F.);
#2021=ORIENTED_EDGE('',*,*,#1011,.F.);
#2022=ORIENTED_EDGE('',*,*,#983,.F.);
#2023=ORIENTED_EDGE('',*,*,#955,.F.);
#2024=ORIENTED_EDGE('',*,*,#927,.F.);
#2025=ORIENTED_EDGE('',*,*,#899,.F.);
#2026=ORIENTED_EDGE('',*,*,#871,.F.);
#2027=ORIENTED_EDGE('',*,*,#843,.F.);
#2028=ORIENTED_EDGE('',*,*,#815,.F.);
#2029=ORIENTED_EDGE('',*,*,#787,.F.);
#2030=ORIENTED_EDGE('',*,*,#759,.F.);
#2031=ORIENTED_EDGE('',*,*,#731,.F.);
#2032=ORIENTED_EDGE('',*,*,#703,.F.);
#2033=ORIENTED_EDGE('',*,*,#675,.F.);
#2034=ORIENTED_EDGE('',*,*,#647,.F.);
#2035=ORIENTED_EDGE('',*,*,#619,.F.);
#2036=ORIENTED_EDGE('',*,*,#591,.F.);
#2037=ORIENTED_EDGE('',*,*,#563,.F.);
#2038=ORIENTED_EDGE('',*,*,#535,.F.);
#2039=ORIENTED_EDGE('',*,*,#507,.F.);
#2040=ORIENTED_EDGE('',*,*,#479,.F.);
#2041=ORIENTED_EDGE('',*,*,#451,.F.);
#2042=ORIENTED_EDGE('',*,*,#423,.F.);
#2043=ORIENTED_EDGE('',*,*,#395,.F.);
#2044=ORIENTED_EDGE('',*,*,#367,.F.);
#2045=ORIENTED_EDGE('',*,*,#339,.F.);
#2046=ORIENTED_EDGE('',*,*,#311,.F.);
#2047=ORIENTED_EDGE('',*,*,#283,.F.);
#2048=ORIENTED_EDGE('',*,*,#255,.F.);
#2049=ORIENTED_EDGE('',*,*,#227,.F.);
#2050=ORIENTED_EDGE('',*,*,#199,.F.);
#2051=ORIENTED_EDGE('',*,*,#171,.F.);
#2052=ORIENTED_EDGE('',*,*,#143,.F.);
#2053=ORIENTED_EDGE('',*,*,#115,.F.);
#2054=ORIENTED_EDGE('',*,*,#87,.F.);
#2055=ORIENTED_EDGE('',*,*,#59,.F.);
#2056=ORIENTED_EDGE('',*,*,#25,.F.);
#2057=ORIENTED_EDGE('',*,*,#1121,.T.);
#2058=EDGE_LOOP('',(#2018,#2019,#2020,#2021,#2022,#2023,#2024,#2025,#2026,#2027,#2028,#2029,#2030,#2031,#2032,#2033,#2034,#2035,#2036,#2037,#2038,#2039,#2040,#2041,#2042,#2043,#2044,#2045,#2046,#2047,#2048,#2049,#2050,#2051,#2052,#2053,#2054,#2055,#2056,#2057));
#2059=FACE_OUTER_BOUND('',#2058,.T.);
#2060=CARTESIAN_POINT('',(31.75418,-5.02937,0.));
#2061=DIRECTION('',(0.,0.,-1.));
#2062=DIRECTION('',(-0.23345,-0.97237,0.));
#2063=AXIS2_PLACEMENT_3D('',#2060,#2061,#2062);
#2064=PLANE('',#2063);
#2065=ADVANCED_FACE('',(#2059),#2064,.T.);
#2066=ORIENTED_EDGE('',*,*,#1151,.T.);
#2067=ORIENTED_EDGE('',*,*,#1177,.T.);
#2068=ORIENTED_EDGE('',*,*,#1199,.T.);
#2069=ORIENTED_EDGE('',*,*,#1221,.T.);
#2070=ORIENTED_EDGE('',*,*,#1243,.T.);
#2071=ORIENTED_EDGE('',*,*,#1265,.T.);
#2072=ORIENTED_EDGE('',*,*,#1287,.T.);
#2073=ORIENTED_EDGE('',*,*,#1309,.T.);
#2074=ORIENTED_EDGE('',*,*,#1331,.T.);
#2075=ORIENTED_EDGE('',*,*,#1353,.T.);
#2076=ORIENTED_EDGE('',*,*,#1375,.T.);
#2077=ORIENTED_EDGE('',*,*,#1397,.T.);
#2078=ORIENTED_EDGE('',*,*,#1419,.T.);
#2079=ORIENTED_EDGE('',*,*,#1441,.T.);
#2080=ORIENTED_EDGE('',*,*,#1463,.T.);
#2081=ORIENTED_EDGE('',*,*,#1485,.T.);
#2082=ORIENTED_EDGE('',*,*,#1507,.T.);
#2083=ORIENTED_EDGE('',*,*,#1529,.T.);
#2084=ORIENTED_EDGE('',*,*,#1551,.T.);
#2085=ORIENTED_EDGE('',*,*,#1573,.T.);
#2086=ORIENTED_EDGE('',*,*,#1595,.T.);
#2087=ORIENTED_EDGE('',*,*,#1617,.T.);
#2088=ORIENTED_EDGE('',*,*,#1639,.T.);
#2089=ORIENTED_EDGE('',*,*,#1661,.T.);
#2090=ORIENTED_EDGE('',*,*,#1683,.T.);
#2091=ORIENTED_EDGE('',*,*,#1705,.T.);
#2092=ORIENTED_EDGE('',*,*,#1727,.T.);
#2093=ORIENTED_EDGE('',*,*,#1749,.T.);
#2094=ORIENTED_EDGE('',*,*,#1771,.T.);
#2095=ORIENTED_EDGE('',*,*,#1793,.T.);
#2096=ORIENTED_EDGE('',*,*,#1815,.T.);
#2097=ORIENTED_EDGE('',*,*,#1837,.T.);
#2098=ORIENTED_EDGE('',*,*,#1859,.T.);
#2099=ORIENTED_EDGE('',*,*,#1881,.T.);
#2100=ORIENTED_EDGE('',*,*,#1903,.T.);
#2101=ORIENTED_EDGE('',*,*,#1925,.T.);
#2102=ORIENTED_EDGE('',*,*,#1947,.T.);
#2103=ORIENTED_EDGE('',*,*,#1969,.T.);
#2104=ORIENTED_EDGE('',*,*,#1991,.T.);
#2105=ORIENTED_EDGE('',*,*,#2007,.F.);
#2106=EDGE_LOOP('',(#2066,#2067,#2068,#2069,#2070,#2071,#2072,#2073,#2074,#2075,#2076,#2077,#2078,#2079,#2080,#2081,#2082,#2083,#2084,#2085,#2086,#2087,#2088,#2089,#2090,#2091,#2092,#2093,#2094,#2095,#2096,#2097,#2098,#2099,#2100,#2101,#2102,#2103,#2104,#2105));
#2107=FACE_OUTER_BOUND('',#2106,.T.);
#2108=CARTESIAN_POINT('',(24.,0.,30.));
#2109=DIRECTION('',(0.,0.,1.));
#2110=DIRECTION('',(-0.07846,0.99692,0.));
#2111=AXIS2_PLACEMENT_3D('',#2108,#2109,#2110);
#2112=PLANE('',#2111);
#2113=ADVANCED_FACE('',(#2107),#2112,.T.);
#2114=CLOSED_SHELL('',(#53,#81,#109,#137,#165,#193,#221,#249,#277,#305,#333,#361,#389,#417,#445,#473,#501,#529,#557,#585,#613,#641,#669,#697,#725,#753,#781,#809,#837,#865,#893,#921,#949,#977,#1005,#1033,#1061,#1089,#1117,#1137,#1165,#1187,#1209,#1231,#1253,#1275,#1297,#1319,#1341,#1363,#1385,#1407,#1429,#1451,#1473,#1495,#1517,#1539,#1561,#1583,#1605,#1627,#1649,#1671,#1693,#1715,#1737,#1759,#1781,#1803,#1825,#1847,#1869,#1891,#1913,#1935,#1957,#1979,#2001,#2017,#2065,#2113));
#2115=MANIFOLD_SOLID_BREP('',#2114);
#2116=COLOUR_RGB('',0.1,0.1,0.11);
#2117=FILL_AREA_STYLE_COLOUR('',#2116);
#2118=FILL_AREA_STYLE('',(#2117));
#2119=SURFACE_STYLE_FILL_AREA(#2118);
#2120=SURFACE_SIDE_STYLE('',(#2119));
#2121=SURFACE_STYLE_USAGE(.BOTH.,#2120);
#2122=PRESENTATION_STYLE_ASSIGNMENT((#2121));
#2123=STYLED_ITEM('color',(#2122),#2115);
#2124=ADVANCED_BREP_SHAPE_REPRESENTATION('',(#17,#2115),#9);
#2125=SHAPE_DEFINITION_REPRESENTATION(#13,#2124);
#2126=MECHANICAL_DESIGN_GEOMETRIC_PRESENTATION_REPRESENTATION('',(#2123),#9);
#2127=PRODUCT_RELATED_PRODUCT_CATEGORY('part',$,(#10));
ENDSEC;
END-ISO-10303-21;
