ISO-10303-21;
HEADER;
FILE_DESCRIPTION(('AquaSentinel R3 - planar B-rep export'),'2;1');
FILE_NAME('Beam end cap','2026-10-04T21:49:42',('AquaSentinel team'),('Sanjivani University'),'AquaSentinel R3 python build','AquaSentinel R3','');
FILE_SCHEMA(('AUTOMOTIVE_DESIGN { 1 0 10303 214 1 1 1 1 }'));
ENDSEC;
DATA;
#1=APPLICATION_CONTEXT('core data for automotive mechanical design processes');
#2=APPLICATION_PROTOCOL_DEFINITION('international standard','automotive_design',2000,#1);
#3=PRODUCT_CONTEXT('',#1,'mechanical');
#4=PRODUCT_DEFINITION_CONTEXT('part definition',#1,'design');
#5=(LENGTH_UNIT()NAMED_UNIT(*)SI_UNIT(.MILLI.,.METRE.));
#6=(NAMED_UNIT(*)PLANE_ANGLE_UNIT()SI_UNIT($,.RADIAN.));
#7=(NAMED_UNIT(*)SI_UNIT($,.STERADIAN.)SOLID_ANGLE_UNIT());
#8=UNCERTAINTY_MEASURE_WITH_UNIT(LENGTH_MEASURE(1.E-04),#5,'distance_accuracy_value','confusion accuracy');
#9=(GEOMETRIC_REPRESENTATION_CONTEXT(3)GLOBAL_UNCERTAINTY_ASSIGNED_CONTEXT((#8))GLOBAL_UNIT_ASSIGNED_CONTEXT((#5,#6,#7))REPRESENTATION_CONTEXT('Context','3D Context with UNIT and UNCERTAINTY'));
#10=PRODUCT('AS3-212','Beam end cap','',(#3));
#11=PRODUCT_DEFINITION_FORMATION('','',#10);
#12=PRODUCT_DEFINITION('design','',#11,#4);
#13=PRODUCT_DEFINITION_SHAPE('','',#12);
#14=CARTESIAN_POINT('',(0.,0.,0.));
#15=DIRECTION('',(0.,0.,1.));
#16=DIRECTION('',(1.,0.,0.));
#17=AXIS2_PLACEMENT_3D('',#14,#15,#16);
#18=CARTESIAN_POINT('',(16.,4.,-20.5));
#19=VERTEX_POINT('',#18);
#20=CARTESIAN_POINT('',(18.25,4.,-19.89711));
#21=VERTEX_POINT('',#20);
#22=DIRECTION('',(0.96593,0.,0.25882));
#23=VECTOR('',#22,2.32937);
#24=LINE('',#18,#23);
#25=EDGE_CURVE('',#19,#21,#24,.T.);
#26=ORIENTED_EDGE('',*,*,#25,.T.);
#27=CARTESIAN_POINT('',(18.25,0.,-19.89711));
#28=VERTEX_POINT('',#27);
#29=DIRECTION('',(0.,1.,0.));
#30=VECTOR('',#29,4.);
#31=LINE('',#27,#30);
#32=EDGE_CURVE('',#28,#21,#31,.T.);
#33=ORIENTED_EDGE('',*,*,#32,.F.);
#34=CARTESIAN_POINT('',(16.,0.,-20.5));
#35=VERTEX_POINT('',#34);
#36=DIRECTION('',(0.96593,0.,0.25882));
#37=VECTOR('',#36,2.32937);
#38=LINE('',#34,#37);
#39=EDGE_CURVE('',#35,#28,#38,.T.);
#40=ORIENTED_EDGE('',*,*,#39,.F.);
#41=DIRECTION('',(0.,1.,0.));
#42=VECTOR('',#41,4.);
#43=LINE('',#34,#42);
#44=EDGE_CURVE('',#35,#19,#43,.T.);
#45=ORIENTED_EDGE('',*,*,#44,.T.);
#46=EDGE_LOOP('',(#26,#33,#40,#45));
#47=FACE_OUTER_BOUND('',#46,.T.);
#48=CARTESIAN_POINT('',(16.,4.,-20.5));
#49=DIRECTION('',(0.25882,0.,-0.96593));
#50=DIRECTION('',(0.96593,0.,0.25882));
#51=AXIS2_PLACEMENT_3D('',#48,#49,#50);
#52=PLANE('',#51);
#53=ADVANCED_FACE('',(#47),#52,.T.);
#54=CARTESIAN_POINT('',(19.89711,4.,-18.25));
#55=VERTEX_POINT('',#54);
#56=DIRECTION('',(0.70711,0.,0.70711));
#57=VECTOR('',#56,2.32937);
#58=LINE('',#20,#57);
#59=EDGE_CURVE('',#21,#55,#58,.T.);
#60=ORIENTED_EDGE('',*,*,#59,.T.);
#61=CARTESIAN_POINT('',(19.89711,0.,-18.25));
#62=VERTEX_POINT('',#61);
#63=DIRECTION('',(0.,1.,0.));
#64=VECTOR('',#63,4.);
#65=LINE('',#61,#64);
#66=EDGE_CURVE('',#62,#55,#65,.T.);
#67=ORIENTED_EDGE('',*,*,#66,.F.);
#68=DIRECTION('',(0.70711,0.,0.70711));
#69=VECTOR('',#68,2.32937);
#70=LINE('',#27,#69);
#71=EDGE_CURVE('',#28,#62,#70,.T.);
#72=ORIENTED_EDGE('',*,*,#71,.F.);
#73=ORIENTED_EDGE('',*,*,#32,.T.);
#74=EDGE_LOOP('',(#60,#67,#72,#73));
#75=FACE_OUTER_BOUND('',#74,.T.);
#76=CARTESIAN_POINT('',(18.25,4.,-19.89711));
#77=DIRECTION('',(0.70711,0.,-0.70711));
#78=DIRECTION('',(0.70711,0.,0.70711));
#79=AXIS2_PLACEMENT_3D('',#76,#77,#78);
#80=PLANE('',#79);
#81=ADVANCED_FACE('',(#75),#80,.T.);
#82=CARTESIAN_POINT('',(20.5,4.,-16.));
#83=VERTEX_POINT('',#82);
#84=DIRECTION('',(0.25882,0.,0.96593));
#85=VECTOR('',#84,2.32937);
#86=LINE('',#54,#85);
#87=EDGE_CURVE('',#55,#83,#86,.T.);
#88=ORIENTED_EDGE('',*,*,#87,.T.);
#89=CARTESIAN_POINT('',(20.5,0.,-16.));
#90=VERTEX_POINT('',#89);
#91=DIRECTION('',(0.,1.,0.));
#92=VECTOR('',#91,4.);
#93=LINE('',#89,#92);
#94=EDGE_CURVE('',#90,#83,#93,.T.);
#95=ORIENTED_EDGE('',*,*,#94,.F.);
#96=DIRECTION('',(0.25882,0.,0.96593));
#97=VECTOR('',#96,2.32937);
#98=LINE('',#61,#97);
#99=EDGE_CURVE('',#62,#90,#98,.T.);
#100=ORIENTED_EDGE('',*,*,#99,.F.);
#101=ORIENTED_EDGE('',*,*,#66,.T.);
#102=EDGE_LOOP('',(#88,#95,#100,#101));
#103=FACE_OUTER_BOUND('',#102,.T.);
#104=CARTESIAN_POINT('',(19.89711,4.,-18.25));
#105=DIRECTION('',(0.96593,0.,-0.25882));
#106=DIRECTION('',(0.25882,0.,0.96593));
#107=AXIS2_PLACEMENT_3D('',#104,#105,#106);
#108=PLANE('',#107);
#109=ADVANCED_FACE('',(#103),#108,.T.);
#110=CARTESIAN_POINT('',(20.5,4.,16.));
#111=VERTEX_POINT('',#110);
#112=DIRECTION('',(0.,0.,1.));
#113=VECTOR('',#112,32.);
#114=LINE('',#82,#113);
#115=EDGE_CURVE('',#83,#111,#114,.T.);
#116=ORIENTED_EDGE('',*,*,#115,.T.);
#117=CARTESIAN_POINT('',(20.5,0.,16.));
#118=VERTEX_POINT('',#117);
#119=DIRECTION('',(0.,1.,0.));
#120=VECTOR('',#119,4.);
#121=LINE('',#117,#120);
#122=EDGE_CURVE('',#118,#111,#121,.T.);
#123=ORIENTED_EDGE('',*,*,#122,.F.);
#124=DIRECTION('',(0.,0.,1.));
#125=VECTOR('',#124,32.);
#126=LINE('',#89,#125);
#127=EDGE_CURVE('',#90,#118,#126,.T.);
#128=ORIENTED_EDGE('',*,*,#127,.F.);
#129=ORIENTED_EDGE('',*,*,#94,.T.);
#130=EDGE_LOOP('',(#116,#123,#128,#129));
#131=FACE_OUTER_BOUND('',#130,.T.);
#132=CARTESIAN_POINT('',(20.5,4.,-16.));
#133=DIRECTION('',(1.,0.,0.));
#134=DIRECTION('',(0.,0.,1.));
#135=AXIS2_PLACEMENT_3D('',#132,#133,#134);
#136=PLANE('',#135);
#137=ADVANCED_FACE('',(#131),#136,.T.);
#138=CARTESIAN_POINT('',(19.89711,4.,18.25));
#139=VERTEX_POINT('',#138);
#140=DIRECTION('',(-0.25882,0.,0.96593));
#141=VECTOR('',#140,2.32937);
#142=LINE('',#110,#141);
#143=EDGE_CURVE('',#111,#139,#142,.T.);
#144=ORIENTED_EDGE('',*,*,#143,.T.);
#145=CARTESIAN_POINT('',(19.89711,0.,18.25));
#146=VERTEX_POINT('',#145);
#147=DIRECTION('',(0.,1.,0.));
#148=VECTOR('',#147,4.);
#149=LINE('',#145,#148);
#150=EDGE_CURVE('',#146,#139,#149,.T.);
#151=ORIENTED_EDGE('',*,*,#150,.F.);
#152=DIRECTION('',(-0.25882,0.,0.96593));
#153=VECTOR('',#152,2.32937);
#154=LINE('',#117,#153);
#155=EDGE_CURVE('',#118,#146,#154,.T.);
#156=ORIENTED_EDGE('',*,*,#155,.F.);
#157=ORIENTED_EDGE('',*,*,#122,.T.);
#158=EDGE_LOOP('',(#144,#151,#156,#157));
#159=FACE_OUTER_BOUND('',#158,.T.);
#160=CARTESIAN_POINT('',(20.5,4.,16.));
#161=DIRECTION('',(0.96593,0.,0.25882));
#162=DIRECTION('',(-0.25882,0.,0.96593));
#163=AXIS2_PLACEMENT_3D('',#160,#161,#162);
#164=PLANE('',#163);
#165=ADVANCED_FACE('',(#159),#164,.T.);
#166=CARTESIAN_POINT('',(18.25,4.,19.89711));
#167=VERTEX_POINT('',#166);
#168=DIRECTION('',(-0.70711,0.,0.70711));
#169=VECTOR('',#168,2.32937);
#170=LINE('',#138,#169);
#171=EDGE_CURVE('',#139,#167,#170,.T.);
#172=ORIENTED_EDGE('',*,*,#171,.T.);
#173=CARTESIAN_POINT('',(18.25,0.,19.89711));
#174=VERTEX_POINT('',#173);
#175=DIRECTION('',(0.,1.,0.));
#176=VECTOR('',#175,4.);
#177=LINE('',#173,#176);
#178=EDGE_CURVE('',#174,#167,#177,.T.);
#179=ORIENTED_EDGE('',*,*,#178,.F.);
#180=DIRECTION('',(-0.70711,0.,0.70711));
#181=VECTOR('',#180,2.32937);
#182=LINE('',#145,#181);
#183=EDGE_CURVE('',#146,#174,#182,.T.);
#184=ORIENTED_EDGE('',*,*,#183,.F.);
#185=ORIENTED_EDGE('',*,*,#150,.T.);
#186=EDGE_LOOP('',(#172,#179,#184,#185));
#187=FACE_OUTER_BOUND('',#186,.T.);
#188=CARTESIAN_POINT('',(19.89711,4.,18.25));
#189=DIRECTION('',(0.70711,0.,0.70711));
#190=DIRECTION('',(-0.70711,0.,0.70711));
#191=AXIS2_PLACEMENT_3D('',#188,#189,#190);
#192=PLANE('',#191);
#193=ADVANCED_FACE('',(#187),#192,.T.);
#194=CARTESIAN_POINT('',(16.,4.,20.5));
#195=VERTEX_POINT('',#194);
#196=DIRECTION('',(-0.96593,0.,0.25882));
#197=VECTOR('',#196,2.32937);
#198=LINE('',#166,#197);
#199=EDGE_CURVE('',#167,#195,#198,.T.);
#200=ORIENTED_EDGE('',*,*,#199,.T.);
#201=CARTESIAN_POINT('',(16.,0.,20.5));
#202=VERTEX_POINT('',#201);
#203=DIRECTION('',(0.,1.,0.));
#204=VECTOR('',#203,4.);
#205=LINE('',#201,#204);
#206=EDGE_CURVE('',#202,#195,#205,.T.);
#207=ORIENTED_EDGE('',*,*,#206,.F.);
#208=DIRECTION('',(-0.96593,0.,0.25882));
#209=VECTOR('',#208,2.32937);
#210=LINE('',#173,#209);
#211=EDGE_CURVE('',#174,#202,#210,.T.);
#212=ORIENTED_EDGE('',*,*,#211,.F.);
#213=ORIENTED_EDGE('',*,*,#178,.T.);
#214=EDGE_LOOP('',(#200,#207,#212,#213));
#215=FACE_OUTER_BOUND('',#214,.T.);
#216=CARTESIAN_POINT('',(18.25,4.,19.89711));
#217=DIRECTION('',(0.25882,0.,0.96593));
#218=DIRECTION('',(-0.96593,0.,0.25882));
#219=AXIS2_PLACEMENT_3D('',#216,#217,#218);
#220=PLANE('',#219);
#221=ADVANCED_FACE('',(#215),#220,.T.);
#222=CARTESIAN_POINT('',(-16.,4.,20.5));
#223=VERTEX_POINT('',#222);
#224=DIRECTION('',(-1.,0.,0.));
#225=VECTOR('',#224,32.);
#226=LINE('',#194,#225);
#227=EDGE_CURVE('',#195,#223,#226,.T.);
#228=ORIENTED_EDGE('',*,*,#227,.T.);
#229=CARTESIAN_POINT('',(-16.,0.,20.5));
#230=VERTEX_POINT('',#229);
#231=DIRECTION('',(0.,1.,0.));
#232=VECTOR('',#231,4.);
#233=LINE('',#229,#232);
#234=EDGE_CURVE('',#230,#223,#233,.T.);
#235=ORIENTED_EDGE('',*,*,#234,.F.);
#236=DIRECTION('',(-1.,0.,0.));
#237=VECTOR('',#236,32.);
#238=LINE('',#201,#237);
#239=EDGE_CURVE('',#202,#230,#238,.T.);
#240=ORIENTED_EDGE('',*,*,#239,.F.);
#241=ORIENTED_EDGE('',*,*,#206,.T.);
#242=EDGE_LOOP('',(#228,#235,#240,#241));
#243=FACE_OUTER_BOUND('',#242,.T.);
#244=CARTESIAN_POINT('',(16.,4.,20.5));
#245=DIRECTION('',(0.,0.,1.));
#246=DIRECTION('',(-1.,0.,0.));
#247=AXIS2_PLACEMENT_3D('',#244,#245,#246);
#248=PLANE('',#247);
#249=ADVANCED_FACE('',(#243),#248,.T.);
#250=CARTESIAN_POINT('',(-18.25,4.,19.89711));
#251=VERTEX_POINT('',#250);
#252=DIRECTION('',(-0.96593,0.,-0.25882));
#253=VECTOR('',#252,2.32937);
#254=LINE('',#222,#253);
#255=EDGE_CURVE('',#223,#251,#254,.T.);
#256=ORIENTED_EDGE('',*,*,#255,.T.);
#257=CARTESIAN_POINT('',(-18.25,0.,19.89711));
#258=VERTEX_POINT('',#257);
#259=DIRECTION('',(0.,1.,0.));
#260=VECTOR('',#259,4.);
#261=LINE('',#257,#260);
#262=EDGE_CURVE('',#258,#251,#261,.T.);
#263=ORIENTED_EDGE('',*,*,#262,.F.);
#264=DIRECTION('',(-0.96593,0.,-0.25882));
#265=VECTOR('',#264,2.32937);
#266=LINE('',#229,#265);
#267=EDGE_CURVE('',#230,#258,#266,.T.);
#268=ORIENTED_EDGE('',*,*,#267,.F.);
#269=ORIENTED_EDGE('',*,*,#234,.T.);
#270=EDGE_LOOP('',(#256,#263,#268,#269));
#271=FACE_OUTER_BOUND('',#270,.T.);
#272=CARTESIAN_POINT('',(-16.,4.,20.5));
#273=DIRECTION('',(-0.25882,0.,0.96593));
#274=DIRECTION('',(-0.96593,0.,-0.25882));
#275=AXIS2_PLACEMENT_3D('',#272,#273,#274);
#276=PLANE('',#275);
#277=ADVANCED_FACE('',(#271),#276,.T.);
#278=CARTESIAN_POINT('',(-19.89711,4.,18.25));
#279=VERTEX_POINT('',#278);
#280=DIRECTION('',(-0.70711,0.,-0.70711));
#281=VECTOR('',#280,2.32937);
#282=LINE('',#250,#281);
#283=EDGE_CURVE('',#251,#279,#282,.T.);
#284=ORIENTED_EDGE('',*,*,#283,.T.);
#285=CARTESIAN_POINT('',(-19.89711,0.,18.25));
#286=VERTEX_POINT('',#285);
#287=DIRECTION('',(0.,1.,0.));
#288=VECTOR('',#287,4.);
#289=LINE('',#285,#288);
#290=EDGE_CURVE('',#286,#279,#289,.T.);
#291=ORIENTED_EDGE('',*,*,#290,.F.);
#292=DIRECTION('',(-0.70711,0.,-0.70711));
#293=VECTOR('',#292,2.32937);
#294=LINE('',#257,#293);
#295=EDGE_CURVE('',#258,#286,#294,.T.);
#296=ORIENTED_EDGE('',*,*,#295,.F.);
#297=ORIENTED_EDGE('',*,*,#262,.T.);
#298=EDGE_LOOP('',(#284,#291,#296,#297));
#299=FACE_OUTER_BOUND('',#298,.T.);
#300=CARTESIAN_POINT('',(-18.25,4.,19.89711));
#301=DIRECTION('',(-0.70711,0.,0.70711));
#302=DIRECTION('',(-0.70711,0.,-0.70711));
#303=AXIS2_PLACEMENT_3D('',#300,#301,#302);
#304=PLANE('',#303);
#305=ADVANCED_FACE('',(#299),#304,.T.);
#306=CARTESIAN_POINT('',(-20.5,4.,16.));
#307=VERTEX_POINT('',#306);
#308=DIRECTION('',(-0.25882,0.,-0.96593));
#309=VECTOR('',#308,2.32937);
#310=LINE('',#278,#309);
#311=EDGE_CURVE('',#279,#307,#310,.T.);
#312=ORIENTED_EDGE('',*,*,#311,.T.);
#313=CARTESIAN_POINT('',(-20.5,0.,16.));
#314=VERTEX_POINT('',#313);
#315=DIRECTION('',(0.,1.,0.));
#316=VECTOR('',#315,4.);
#317=LINE('',#313,#316);
#318=EDGE_CURVE('',#314,#307,#317,.T.);
#319=ORIENTED_EDGE('',*,*,#318,.F.);
#320=DIRECTION('',(-0.25882,0.,-0.96593));
#321=VECTOR('',#320,2.32937);
#322=LINE('',#285,#321);
#323=EDGE_CURVE('',#286,#314,#322,.T.);
#324=ORIENTED_EDGE('',*,*,#323,.F.);
#325=ORIENTED_EDGE('',*,*,#290,.T.);
#326=EDGE_LOOP('',(#312,#319,#324,#325));
#327=FACE_OUTER_BOUND('',#326,.T.);
#328=CARTESIAN_POINT('',(-19.89711,4.,18.25));
#329=DIRECTION('',(-0.96593,0.,0.25882));
#330=DIRECTION('',(-0.25882,0.,-0.96593));
#331=AXIS2_PLACEMENT_3D('',#328,#329,#330);
#332=PLANE('',#331);
#333=ADVANCED_FACE('',(#327),#332,.T.);
#334=CARTESIAN_POINT('',(-20.5,4.,-16.));
#335=VERTEX_POINT('',#334);
#336=DIRECTION('',(0.,0.,-1.));
#337=VECTOR('',#336,32.);
#338=LINE('',#306,#337);
#339=EDGE_CURVE('',#307,#335,#338,.T.);
#340=ORIENTED_EDGE('',*,*,#339,.T.);
#341=CARTESIAN_POINT('',(-20.5,0.,-16.));
#342=VERTEX_POINT('',#341);
#343=DIRECTION('',(0.,1.,0.));
#344=VECTOR('',#343,4.);
#345=LINE('',#341,#344);
#346=EDGE_CURVE('',#342,#335,#345,.T.);
#347=ORIENTED_EDGE('',*,*,#346,.F.);
#348=DIRECTION('',(0.,0.,-1.));
#349=VECTOR('',#348,32.);
#350=LINE('',#313,#349);
#351=EDGE_CURVE('',#314,#342,#350,.T.);
#352=ORIENTED_EDGE('',*,*,#351,.F.);
#353=ORIENTED_EDGE('',*,*,#318,.T.);
#354=EDGE_LOOP('',(#340,#347,#352,#353));
#355=FACE_OUTER_BOUND('',#354,.T.);
#356=CARTESIAN_POINT('',(-20.5,4.,16.));
#357=DIRECTION('',(-1.,0.,0.));
#358=DIRECTION('',(0.,0.,-1.));
#359=AXIS2_PLACEMENT_3D('',#356,#357,#358);
#360=PLANE('',#359);
#361=ADVANCED_FACE('',(#355),#360,.T.);
#362=CARTESIAN_POINT('',(-19.89711,4.,-18.25));
#363=VERTEX_POINT('',#362);
#364=DIRECTION('',(0.25882,0.,-0.96593));
#365=VECTOR('',#364,2.32937);
#366=LINE('',#334,#365);
#367=EDGE_CURVE('',#335,#363,#366,.T.);
#368=ORIENTED_EDGE('',*,*,#367,.T.);
#369=CARTESIAN_POINT('',(-19.89711,0.,-18.25));
#370=VERTEX_POINT('',#369);
#371=DIRECTION('',(0.,1.,0.));
#372=VECTOR('',#371,4.);
#373=LINE('',#369,#372);
#374=EDGE_CURVE('',#370,#363,#373,.T.);
#375=ORIENTED_EDGE('',*,*,#374,.F.);
#376=DIRECTION('',(0.25882,0.,-0.96593));
#377=VECTOR('',#376,2.32937);
#378=LINE('',#341,#377);
#379=EDGE_CURVE('',#342,#370,#378,.T.);
#380=ORIENTED_EDGE('',*,*,#379,.F.);
#381=ORIENTED_EDGE('',*,*,#346,.T.);
#382=EDGE_LOOP('',(#368,#375,#380,#381));
#383=FACE_OUTER_BOUND('',#382,.T.);
#384=CARTESIAN_POINT('',(-20.5,4.,-16.));
#385=DIRECTION('',(-0.96593,0.,-0.25882));
#386=DIRECTION('',(0.25882,0.,-0.96593));
#387=AXIS2_PLACEMENT_3D('',#384,#385,#386);
#388=PLANE('',#387);
#389=ADVANCED_FACE('',(#383),#388,.T.);
#390=CARTESIAN_POINT('',(-18.25,4.,-19.89711));
#391=VERTEX_POINT('',#390);
#392=DIRECTION('',(0.70711,0.,-0.70711));
#393=VECTOR('',#392,2.32937);
#394=LINE('',#362,#393);
#395=EDGE_CURVE('',#363,#391,#394,.T.);
#396=ORIENTED_EDGE('',*,*,#395,.T.);
#397=CARTESIAN_POINT('',(-18.25,0.,-19.89711));
#398=VERTEX_POINT('',#397);
#399=DIRECTION('',(0.,1.,0.));
#400=VECTOR('',#399,4.);
#401=LINE('',#397,#400);
#402=EDGE_CURVE('',#398,#391,#401,.T.);
#403=ORIENTED_EDGE('',*,*,#402,.F.);
#404=DIRECTION('',(0.70711,0.,-0.70711));
#405=VECTOR('',#404,2.32937);
#406=LINE('',#369,#405);
#407=EDGE_CURVE('',#370,#398,#406,.T.);
#408=ORIENTED_EDGE('',*,*,#407,.F.);
#409=ORIENTED_EDGE('',*,*,#374,.T.);
#410=EDGE_LOOP('',(#396,#403,#408,#409));
#411=FACE_OUTER_BOUND('',#410,.T.);
#412=CARTESIAN_POINT('',(-19.89711,4.,-18.25));
#413=DIRECTION('',(-0.70711,0.,-0.70711));
#414=DIRECTION('',(0.70711,0.,-0.70711));
#415=AXIS2_PLACEMENT_3D('',#412,#413,#414);
#416=PLANE('',#415);
#417=ADVANCED_FACE('',(#411),#416,.T.);
#418=CARTESIAN_POINT('',(-16.,4.,-20.5));
#419=VERTEX_POINT('',#418);
#420=DIRECTION('',(0.96593,0.,-0.25882));
#421=VECTOR('',#420,2.32937);
#422=LINE('',#390,#421);
#423=EDGE_CURVE('',#391,#419,#422,.T.);
#424=ORIENTED_EDGE('',*,*,#423,.T.);
#425=CARTESIAN_POINT('',(-16.,0.,-20.5));
#426=VERTEX_POINT('',#425);
#427=DIRECTION('',(0.,1.,0.));
#428=VECTOR('',#427,4.);
#429=LINE('',#425,#428);
#430=EDGE_CURVE('',#426,#419,#429,.T.);
#431=ORIENTED_EDGE('',*,*,#430,.F.);
#432=DIRECTION('',(0.96593,0.,-0.25882));
#433=VECTOR('',#432,2.32937);
#434=LINE('',#397,#433);
#435=EDGE_CURVE('',#398,#426,#434,.T.);
#436=ORIENTED_EDGE('',*,*,#435,.F.);
#437=ORIENTED_EDGE('',*,*,#402,.T.);
#438=EDGE_LOOP('',(#424,#431,#436,#437));
#439=FACE_OUTER_BOUND('',#438,.T.);
#440=CARTESIAN_POINT('',(-18.25,4.,-19.89711));
#441=DIRECTION('',(-0.25882,0.,-0.96593));
#442=DIRECTION('',(0.96593,0.,-0.25882));
#443=AXIS2_PLACEMENT_3D('',#440,#441,#442);
#444=PLANE('',#443);
#445=ADVANCED_FACE('',(#439),#444,.T.);
#446=DIRECTION('',(-1.,0.,0.));
#447=VECTOR('',#446,32.);
#448=LINE('',#18,#447);
#449=EDGE_CURVE('',#19,#419,#448,.T.);
#450=ORIENTED_EDGE('',*,*,#449,.F.);
#451=ORIENTED_EDGE('',*,*,#44,.F.);
#452=DIRECTION('',(-1.,0.,0.));
#453=VECTOR('',#452,32.);
#454=LINE('',#34,#453);
#455=EDGE_CURVE('',#35,#426,#454,.T.);
#456=ORIENTED_EDGE('',*,*,#455,.T.);
#457=ORIENTED_EDGE('',*,*,#430,.T.);
#458=EDGE_LOOP('',(#450,#451,#456,#457));
#459=FACE_OUTER_BOUND('',#458,.T.);
#460=CARTESIAN_POINT('',(-16.,4.,-20.5));
#461=DIRECTION('',(0.,0.,-1.));
#462=DIRECTION('',(1.,0.,0.));
#463=AXIS2_PLACEMENT_3D('',#460,#461,#462);
#464=PLANE('',#463);
#465=ADVANCED_FACE('',(#459),#464,.T.);
#466=ORIENTED_EDGE('',*,*,#39,.T.);
#467=ORIENTED_EDGE('',*,*,#71,.T.);
#468=ORIENTED_EDGE('',*,*,#99,.T.);
#469=ORIENTED_EDGE('',*,*,#127,.T.);
#470=ORIENTED_EDGE('',*,*,#155,.T.);
#471=ORIENTED_EDGE('',*,*,#183,.T.);
#472=ORIENTED_EDGE('',*,*,#211,.T.);
#473=ORIENTED_EDGE('',*,*,#239,.T.);
#474=ORIENTED_EDGE('',*,*,#267,.T.);
#475=ORIENTED_EDGE('',*,*,#295,.T.);
#476=ORIENTED_EDGE('',*,*,#323,.T.);
#477=ORIENTED_EDGE('',*,*,#351,.T.);
#478=ORIENTED_EDGE('',*,*,#379,.T.);
#479=ORIENTED_EDGE('',*,*,#407,.T.);
#480=ORIENTED_EDGE('',*,*,#435,.T.);
#481=ORIENTED_EDGE('',*,*,#455,.F.);
#482=EDGE_LOOP('',(#466,#467,#468,#469,#470,#471,#472,#473,#474,#475,#476,#477,#478,#479,#480,#481));
#483=FACE_OUTER_BOUND('',#482,.T.);
#484=CARTESIAN_POINT('',(16.,0.,-20.5));
#485=DIRECTION('',(0.,-1.,0.));
#486=DIRECTION('',(0.96593,0.,0.25882));
#487=AXIS2_PLACEMENT_3D('',#484,#485,#486);
#488=PLANE('',#487);
#489=ADVANCED_FACE('',(#483),#488,.T.);
#490=ORIENTED_EDGE('',*,*,#423,.F.);
#491=ORIENTED_EDGE('',*,*,#395,.F.);
#492=ORIENTED_EDGE('',*,*,#367,.F.);
#493=ORIENTED_EDGE('',*,*,#339,.F.);
#494=ORIENTED_EDGE('',*,*,#311,.F.);
#495=ORIENTED_EDGE('',*,*,#283,.F.);
#496=ORIENTED_EDGE('',*,*,#255,.F.);
#497=ORIENTED_EDGE('',*,*,#227,.F.);
#498=ORIENTED_EDGE('',*,*,#199,.F.);
#499=ORIENTED_EDGE('',*,*,#171,.F.);
#500=ORIENTED_EDGE('',*,*,#143,.F.);
#501=ORIENTED_EDGE('',*,*,#115,.F.);
#502=ORIENTED_EDGE('',*,*,#87,.F.);
#503=ORIENTED_EDGE('',*,*,#59,.F.);
#504=ORIENTED_EDGE('',*,*,#25,.F.);
#505=ORIENTED_EDGE('',*,*,#449,.T.);
#506=EDGE_LOOP('',(#490,#491,#492,#493,#494,#495,#496,#497,#498,#499,#500,#501,#502,#503,#504,#505));
#507=FACE_OUTER_BOUND('',#506,.T.);
#508=CARTESIAN_POINT('',(-16.,4.,-20.5));
#509=DIRECTION('',(0.,1.,0.));
#510=DIRECTION('',(-0.96593,0.,0.25882));
#511=AXIS2_PLACEMENT_3D('',#508,#509,#510);
#512=PLANE('',#511);
#513=ADVANCED_FACE('',(#507),#512,.T.);
#514=CLOSED_SHELL('',(#53,#81,#109,#137,#165,#193,#221,#249,#277,#305,#333,#361,#389,#417,#445,#465,#489,#513));
#515=MANIFOLD_SOLID_BREP('',#514);
#516=COLOUR_RGB('',0.1,0.1,0.11);
#517=FILL_AREA_STYLE_COLOUR('',#516);
#518=FILL_AREA_STYLE('',(#517));
#519=SURFACE_STYLE_FILL_AREA(#518);
#520=SURFACE_SIDE_STYLE('',(#519));
#521=SURFACE_STYLE_USAGE(.BOTH.,#520);
#522=PRESENTATION_STYLE_ASSIGNMENT((#521));
#523=STYLED_ITEM('color',(#522),#515);
#524=ADVANCED_BREP_SHAPE_REPRESENTATION('',(#17,#515),#9);
#525=SHAPE_DEFINITION_REPRESENTATION(#13,#524);
#526=MECHANICAL_DESIGN_GEOMETRIC_PRESENTATION_REPRESENTATION('',(#523),#9);
#527=PRODUCT_RELATED_PRODUCT_CATEGORY('part',$,(#10));
ENDSEC;
END-ISO-10303-21;
