ISO-10303-21;
HEADER;
FILE_DESCRIPTION(('AquaSentinel R3 - planar B-rep export'),'2;1');
FILE_NAME('Stage sensor (waterproof ultrasonic, looking up)','2026-10-04T21:49:43',('AquaSentinel team'),('Sanjivani University'),'AquaSentinel R3 python build','AquaSentinel R3','');
FILE_SCHEMA(('AUTOMOTIVE_DESIGN { 1 0 10303 214 1 1 1 1 }'));
ENDSEC;
DATA;
#1=APPLICATION_CONTEXT('core data for automotive mechanical design processes');
#2=APPLICATION_PROTOCOL_DEFINITION('international standard','automotive_design',2000,#1);
#3=PRODUCT_CONTEXT('',#1,'mechanical');
#4=PRODUCT_DEFINITION_CONTEXT('part definition',#1,'design');
#5=(LENGTH_UNIT()NAMED_UNIT(*)SI_UNIT(.MILLI.,.METRE.));
#6=(NAMED_UNIT(*)PLANE_ANGLE_UNIT()SI_UNIT($,.RADIAN.));
#7=(NAMED_UNIT(*)SI_UNIT($,.STERADIAN.)SOLID_ANGLE_UNIT());
#8=UNCERTAINTY_MEASURE_WITH_UNIT(LENGTH_MEASURE(1.E-04),#5,'distance_accuracy_value','confusion accuracy');
#9=(GEOMETRIC_REPRESENTATION_CONTEXT(3)GLOBAL_UNCERTAINTY_ASSIGNED_CONTEXT((#8))GLOBAL_UNIT_ASSIGNED_CONTEXT((#5,#6,#7))REPRESENTATION_CONTEXT('Context','3D Context with UNIT and UNCERTAINTY'));
#10=PRODUCT('AS3-712','Stage sensor (waterproof ultrasonic, looking up)','Distance to the target plate -> river stage',(#3));
#11=PRODUCT_DEFINITION_FORMATION('','',#10);
#12=PRODUCT_DEFINITION('design','',#11,#4);
#13=PRODUCT_DEFINITION_SHAPE('','',#12);
#14=CARTESIAN_POINT('',(0.,0.,0.));
#15=DIRECTION('',(0.,0.,1.));
#16=DIRECTION('',(1.,0.,0.));
#17=AXIS2_PLACEMENT_3D('',#14,#15,#16);
#18=CARTESIAN_POINT('',(138.,0.,592.));
#19=VERTEX_POINT('',#18);
#20=CARTESIAN_POINT('',(137.61571,3.90181,592.));
#21=VERTEX_POINT('',#20);
#22=DIRECTION('',(-0.09802,0.99518,0.));
#23=VECTOR('',#22,3.92069);
#24=LINE('',#18,#23);
#25=EDGE_CURVE('',#19,#21,#24,.T.);
#26=ORIENTED_EDGE('',*,*,#25,.T.);
#27=CARTESIAN_POINT('',(137.61571,3.90181,632.));
#28=VERTEX_POINT('',#27);
#29=DIRECTION('',(0.,0.,1.));
#30=VECTOR('',#29,40.);
#31=LINE('',#20,#30);
#32=EDGE_CURVE('',#21,#28,#31,.T.);
#33=ORIENTED_EDGE('',*,*,#32,.T.);
#34=CARTESIAN_POINT('',(138.,0.,632.));
#35=VERTEX_POINT('',#34);
#36=DIRECTION('',(-0.09802,0.99518,0.));
#37=VECTOR('',#36,3.92069);
#38=LINE('',#34,#37);
#39=EDGE_CURVE('',#35,#28,#38,.T.);
#40=ORIENTED_EDGE('',*,*,#39,.F.);
#41=DIRECTION('',(0.,0.,1.));
#42=VECTOR('',#41,40.);
#43=LINE('',#18,#42);
#44=EDGE_CURVE('',#19,#35,#43,.T.);
#45=ORIENTED_EDGE('',*,*,#44,.F.);
#46=EDGE_LOOP('',(#26,#33,#40,#45));
#47=FACE_OUTER_BOUND('',#46,.T.);
#48=CARTESIAN_POINT('',(138.,0.,592.));
#49=DIRECTION('',(0.99518,0.09802,0.));
#50=DIRECTION('',(-0.09802,0.99518,0.));
#51=AXIS2_PLACEMENT_3D('',#48,#49,#50);
#52=PLANE('',#51);
#53=ADVANCED_FACE('',(#47),#52,.T.);
#54=CARTESIAN_POINT('',(136.47759,7.65367,592.));
#55=VERTEX_POINT('',#54);
#56=DIRECTION('',(-0.29028,0.95694,0.));
#57=VECTOR('',#56,3.92069);
#58=LINE('',#20,#57);
#59=EDGE_CURVE('',#21,#55,#58,.T.);
#60=ORIENTED_EDGE('',*,*,#59,.T.);
#61=CARTESIAN_POINT('',(136.47759,7.65367,632.));
#62=VERTEX_POINT('',#61);
#63=DIRECTION('',(0.,0.,1.));
#64=VECTOR('',#63,40.);
#65=LINE('',#54,#64);
#66=EDGE_CURVE('',#55,#62,#65,.T.);
#67=ORIENTED_EDGE('',*,*,#66,.T.);
#68=DIRECTION('',(-0.29028,0.95694,0.));
#69=VECTOR('',#68,3.92069);
#70=LINE('',#27,#69);
#71=EDGE_CURVE('',#28,#62,#70,.T.);
#72=ORIENTED_EDGE('',*,*,#71,.F.);
#73=ORIENTED_EDGE('',*,*,#32,.F.);
#74=EDGE_LOOP('',(#60,#67,#72,#73));
#75=FACE_OUTER_BOUND('',#74,.T.);
#76=CARTESIAN_POINT('',(137.61571,3.90181,592.));
#77=DIRECTION('',(0.95694,0.29028,0.));
#78=DIRECTION('',(-0.29028,0.95694,0.));
#79=AXIS2_PLACEMENT_3D('',#76,#77,#78);
#80=PLANE('',#79);
#81=ADVANCED_FACE('',(#75),#80,.T.);
#82=CARTESIAN_POINT('',(134.62939,11.1114,592.));
#83=VERTEX_POINT('',#82);
#84=DIRECTION('',(-0.4714,0.88192,0.));
#85=VECTOR('',#84,3.92069);
#86=LINE('',#54,#85);
#87=EDGE_CURVE('',#55,#83,#86,.T.);
#88=ORIENTED_EDGE('',*,*,#87,.T.);
#89=CARTESIAN_POINT('',(134.62939,11.1114,632.));
#90=VERTEX_POINT('',#89);
#91=DIRECTION('',(0.,0.,1.));
#92=VECTOR('',#91,40.);
#93=LINE('',#82,#92);
#94=EDGE_CURVE('',#83,#90,#93,.T.);
#95=ORIENTED_EDGE('',*,*,#94,.T.);
#96=DIRECTION('',(-0.4714,0.88192,0.));
#97=VECTOR('',#96,3.92069);
#98=LINE('',#61,#97);
#99=EDGE_CURVE('',#62,#90,#98,.T.);
#100=ORIENTED_EDGE('',*,*,#99,.F.);
#101=ORIENTED_EDGE('',*,*,#66,.F.);
#102=EDGE_LOOP('',(#88,#95,#100,#101));
#103=FACE_OUTER_BOUND('',#102,.T.);
#104=CARTESIAN_POINT('',(136.47759,7.65367,592.));
#105=DIRECTION('',(0.88192,0.4714,0.));
#106=DIRECTION('',(-0.4714,0.88192,0.));
#107=AXIS2_PLACEMENT_3D('',#104,#105,#106);
#108=PLANE('',#107);
#109=ADVANCED_FACE('',(#103),#108,.T.);
#110=CARTESIAN_POINT('',(132.14214,14.14214,592.));
#111=VERTEX_POINT('',#110);
#112=DIRECTION('',(-0.63439,0.77301,0.));
#113=VECTOR('',#112,3.92069);
#114=LINE('',#82,#113);
#115=EDGE_CURVE('',#83,#111,#114,.T.);
#116=ORIENTED_EDGE('',*,*,#115,.T.);
#117=CARTESIAN_POINT('',(132.14214,14.14214,632.));
#118=VERTEX_POINT('',#117);
#119=DIRECTION('',(0.,0.,1.));
#120=VECTOR('',#119,40.);
#121=LINE('',#110,#120);
#122=EDGE_CURVE('',#111,#118,#121,.T.);
#123=ORIENTED_EDGE('',*,*,#122,.T.);
#124=DIRECTION('',(-0.63439,0.77301,0.));
#125=VECTOR('',#124,3.92069);
#126=LINE('',#89,#125);
#127=EDGE_CURVE('',#90,#118,#126,.T.);
#128=ORIENTED_EDGE('',*,*,#127,.F.);
#129=ORIENTED_EDGE('',*,*,#94,.F.);
#130=EDGE_LOOP('',(#116,#123,#128,#129));
#131=FACE_OUTER_BOUND('',#130,.T.);
#132=CARTESIAN_POINT('',(134.62939,11.1114,592.));
#133=DIRECTION('',(0.77301,0.63439,0.));
#134=DIRECTION('',(-0.63439,0.77301,0.));
#135=AXIS2_PLACEMENT_3D('',#132,#133,#134);
#136=PLANE('',#135);
#137=ADVANCED_FACE('',(#131),#136,.T.);
#138=CARTESIAN_POINT('',(129.1114,16.62939,592.));
#139=VERTEX_POINT('',#138);
#140=DIRECTION('',(-0.77301,0.63439,0.));
#141=VECTOR('',#140,3.92069);
#142=LINE('',#110,#141);
#143=EDGE_CURVE('',#111,#139,#142,.T.);
#144=ORIENTED_EDGE('',*,*,#143,.T.);
#145=CARTESIAN_POINT('',(129.1114,16.62939,632.));
#146=VERTEX_POINT('',#145);
#147=DIRECTION('',(0.,0.,1.));
#148=VECTOR('',#147,40.);
#149=LINE('',#138,#148);
#150=EDGE_CURVE('',#139,#146,#149,.T.);
#151=ORIENTED_EDGE('',*,*,#150,.T.);
#152=DIRECTION('',(-0.77301,0.63439,0.));
#153=VECTOR('',#152,3.92069);
#154=LINE('',#117,#153);
#155=EDGE_CURVE('',#118,#146,#154,.T.);
#156=ORIENTED_EDGE('',*,*,#155,.F.);
#157=ORIENTED_EDGE('',*,*,#122,.F.);
#158=EDGE_LOOP('',(#144,#151,#156,#157));
#159=FACE_OUTER_BOUND('',#158,.T.);
#160=CARTESIAN_POINT('',(132.14214,14.14214,592.));
#161=DIRECTION('',(0.63439,0.77301,0.));
#162=DIRECTION('',(-0.77301,0.63439,0.));
#163=AXIS2_PLACEMENT_3D('',#160,#161,#162);
#164=PLANE('',#163);
#165=ADVANCED_FACE('',(#159),#164,.T.);
#166=CARTESIAN_POINT('',(125.65367,18.47759,592.));
#167=VERTEX_POINT('',#166);
#168=DIRECTION('',(-0.88192,0.4714,0.));
#169=VECTOR('',#168,3.92069);
#170=LINE('',#138,#169);
#171=EDGE_CURVE('',#139,#167,#170,.T.);
#172=ORIENTED_EDGE('',*,*,#171,.T.);
#173=CARTESIAN_POINT('',(125.65367,18.47759,632.));
#174=VERTEX_POINT('',#173);
#175=DIRECTION('',(0.,0.,1.));
#176=VECTOR('',#175,40.);
#177=LINE('',#166,#176);
#178=EDGE_CURVE('',#167,#174,#177,.T.);
#179=ORIENTED_EDGE('',*,*,#178,.T.);
#180=DIRECTION('',(-0.88192,0.4714,0.));
#181=VECTOR('',#180,3.92069);
#182=LINE('',#145,#181);
#183=EDGE_CURVE('',#146,#174,#182,.T.);
#184=ORIENTED_EDGE('',*,*,#183,.F.);
#185=ORIENTED_EDGE('',*,*,#150,.F.);
#186=EDGE_LOOP('',(#172,#179,#184,#185));
#187=FACE_OUTER_BOUND('',#186,.T.);
#188=CARTESIAN_POINT('',(129.1114,16.62939,592.));
#189=DIRECTION('',(0.4714,0.88192,0.));
#190=DIRECTION('',(-0.88192,0.4714,0.));
#191=AXIS2_PLACEMENT_3D('',#188,#189,#190);
#192=PLANE('',#191);
#193=ADVANCED_FACE('',(#187),#192,.T.);
#194=CARTESIAN_POINT('',(121.90181,19.61571,592.));
#195=VERTEX_POINT('',#194);
#196=DIRECTION('',(-0.95694,0.29028,0.));
#197=VECTOR('',#196,3.92069);
#198=LINE('',#166,#197);
#199=EDGE_CURVE('',#167,#195,#198,.T.);
#200=ORIENTED_EDGE('',*,*,#199,.T.);
#201=CARTESIAN_POINT('',(121.90181,19.61571,632.));
#202=VERTEX_POINT('',#201);
#203=DIRECTION('',(0.,0.,1.));
#204=VECTOR('',#203,40.);
#205=LINE('',#194,#204);
#206=EDGE_CURVE('',#195,#202,#205,.T.);
#207=ORIENTED_EDGE('',*,*,#206,.T.);
#208=DIRECTION('',(-0.95694,0.29028,0.));
#209=VECTOR('',#208,3.92069);
#210=LINE('',#173,#209);
#211=EDGE_CURVE('',#174,#202,#210,.T.);
#212=ORIENTED_EDGE('',*,*,#211,.F.);
#213=ORIENTED_EDGE('',*,*,#178,.F.);
#214=EDGE_LOOP('',(#200,#207,#212,#213));
#215=FACE_OUTER_BOUND('',#214,.T.);
#216=CARTESIAN_POINT('',(125.65367,18.47759,592.));
#217=DIRECTION('',(0.29028,0.95694,0.));
#218=DIRECTION('',(-0.95694,0.29028,0.));
#219=AXIS2_PLACEMENT_3D('',#216,#217,#218);
#220=PLANE('',#219);
#221=ADVANCED_FACE('',(#215),#220,.T.);
#222=CARTESIAN_POINT('',(118.,20.,592.));
#223=VERTEX_POINT('',#222);
#224=DIRECTION('',(-0.99518,0.09802,0.));
#225=VECTOR('',#224,3.92069);
#226=LINE('',#194,#225);
#227=EDGE_CURVE('',#195,#223,#226,.T.);
#228=ORIENTED_EDGE('',*,*,#227,.T.);
#229=CARTESIAN_POINT('',(118.,20.,632.));
#230=VERTEX_POINT('',#229);
#231=DIRECTION('',(0.,0.,1.));
#232=VECTOR('',#231,40.);
#233=LINE('',#222,#232);
#234=EDGE_CURVE('',#223,#230,#233,.T.);
#235=ORIENTED_EDGE('',*,*,#234,.T.);
#236=DIRECTION('',(-0.99518,0.09802,0.));
#237=VECTOR('',#236,3.92069);
#238=LINE('',#201,#237);
#239=EDGE_CURVE('',#202,#230,#238,.T.);
#240=ORIENTED_EDGE('',*,*,#239,.F.);
#241=ORIENTED_EDGE('',*,*,#206,.F.);
#242=EDGE_LOOP('',(#228,#235,#240,#241));
#243=FACE_OUTER_BOUND('',#242,.T.);
#244=CARTESIAN_POINT('',(121.90181,19.61571,592.));
#245=DIRECTION('',(0.09802,0.99518,0.));
#246=DIRECTION('',(-0.99518,0.09802,0.));
#247=AXIS2_PLACEMENT_3D('',#244,#245,#246);
#248=PLANE('',#247);
#249=ADVANCED_FACE('',(#243),#248,.T.);
#250=CARTESIAN_POINT('',(114.09819,19.61571,592.));
#251=VERTEX_POINT('',#250);
#252=DIRECTION('',(-0.99518,-0.09802,0.));
#253=VECTOR('',#252,3.92069);
#254=LINE('',#222,#253);
#255=EDGE_CURVE('',#223,#251,#254,.T.);
#256=ORIENTED_EDGE('',*,*,#255,.T.);
#257=CARTESIAN_POINT('',(114.09819,19.61571,632.));
#258=VERTEX_POINT('',#257);
#259=DIRECTION('',(0.,0.,1.));
#260=VECTOR('',#259,40.);
#261=LINE('',#250,#260);
#262=EDGE_CURVE('',#251,#258,#261,.T.);
#263=ORIENTED_EDGE('',*,*,#262,.T.);
#264=DIRECTION('',(-0.99518,-0.09802,0.));
#265=VECTOR('',#264,3.92069);
#266=LINE('',#229,#265);
#267=EDGE_CURVE('',#230,#258,#266,.T.);
#268=ORIENTED_EDGE('',*,*,#267,.F.);
#269=ORIENTED_EDGE('',*,*,#234,.F.);
#270=EDGE_LOOP('',(#256,#263,#268,#269));
#271=FACE_OUTER_BOUND('',#270,.T.);
#272=CARTESIAN_POINT('',(118.,20.,592.));
#273=DIRECTION('',(-0.09802,0.99518,0.));
#274=DIRECTION('',(-0.99518,-0.09802,0.));
#275=AXIS2_PLACEMENT_3D('',#272,#273,#274);
#276=PLANE('',#275);
#277=ADVANCED_FACE('',(#271),#276,.T.);
#278=CARTESIAN_POINT('',(110.34633,18.47759,592.));
#279=VERTEX_POINT('',#278);
#280=DIRECTION('',(-0.95694,-0.29028,0.));
#281=VECTOR('',#280,3.92069);
#282=LINE('',#250,#281);
#283=EDGE_CURVE('',#251,#279,#282,.T.);
#284=ORIENTED_EDGE('',*,*,#283,.T.);
#285=CARTESIAN_POINT('',(110.34633,18.47759,632.));
#286=VERTEX_POINT('',#285);
#287=DIRECTION('',(0.,0.,1.));
#288=VECTOR('',#287,40.);
#289=LINE('',#278,#288);
#290=EDGE_CURVE('',#279,#286,#289,.T.);
#291=ORIENTED_EDGE('',*,*,#290,.T.);
#292=DIRECTION('',(-0.95694,-0.29028,0.));
#293=VECTOR('',#292,3.92069);
#294=LINE('',#257,#293);
#295=EDGE_CURVE('',#258,#286,#294,.T.);
#296=ORIENTED_EDGE('',*,*,#295,.F.);
#297=ORIENTED_EDGE('',*,*,#262,.F.);
#298=EDGE_LOOP('',(#284,#291,#296,#297));
#299=FACE_OUTER_BOUND('',#298,.T.);
#300=CARTESIAN_POINT('',(114.09819,19.61571,592.));
#301=DIRECTION('',(-0.29028,0.95694,0.));
#302=DIRECTION('',(-0.95694,-0.29028,0.));
#303=AXIS2_PLACEMENT_3D('',#300,#301,#302);
#304=PLANE('',#303);
#305=ADVANCED_FACE('',(#299),#304,.T.);
#306=CARTESIAN_POINT('',(106.8886,16.62939,592.));
#307=VERTEX_POINT('',#306);
#308=DIRECTION('',(-0.88192,-0.4714,0.));
#309=VECTOR('',#308,3.92069);
#310=LINE('',#278,#309);
#311=EDGE_CURVE('',#279,#307,#310,.T.);
#312=ORIENTED_EDGE('',*,*,#311,.T.);
#313=CARTESIAN_POINT('',(106.8886,16.62939,632.));
#314=VERTEX_POINT('',#313);
#315=DIRECTION('',(0.,0.,1.));
#316=VECTOR('',#315,40.);
#317=LINE('',#306,#316);
#318=EDGE_CURVE('',#307,#314,#317,.T.);
#319=ORIENTED_EDGE('',*,*,#318,.T.);
#320=DIRECTION('',(-0.88192,-0.4714,0.));
#321=VECTOR('',#320,3.92069);
#322=LINE('',#285,#321);
#323=EDGE_CURVE('',#286,#314,#322,.T.);
#324=ORIENTED_EDGE('',*,*,#323,.F.);
#325=ORIENTED_EDGE('',*,*,#290,.F.);
#326=EDGE_LOOP('',(#312,#319,#324,#325));
#327=FACE_OUTER_BOUND('',#326,.T.);
#328=CARTESIAN_POINT('',(110.34633,18.47759,592.));
#329=DIRECTION('',(-0.4714,0.88192,0.));
#330=DIRECTION('',(-0.88192,-0.4714,0.));
#331=AXIS2_PLACEMENT_3D('',#328,#329,#330);
#332=PLANE('',#331);
#333=ADVANCED_FACE('',(#327),#332,.T.);
#334=CARTESIAN_POINT('',(103.85786,14.14214,592.));
#335=VERTEX_POINT('',#334);
#336=DIRECTION('',(-0.77301,-0.63439,0.));
#337=VECTOR('',#336,3.92069);
#338=LINE('',#306,#337);
#339=EDGE_CURVE('',#307,#335,#338,.T.);
#340=ORIENTED_EDGE('',*,*,#339,.T.);
#341=CARTESIAN_POINT('',(103.85786,14.14214,632.));
#342=VERTEX_POINT('',#341);
#343=DIRECTION('',(0.,0.,1.));
#344=VECTOR('',#343,40.);
#345=LINE('',#334,#344);
#346=EDGE_CURVE('',#335,#342,#345,.T.);
#347=ORIENTED_EDGE('',*,*,#346,.T.);
#348=DIRECTION('',(-0.77301,-0.63439,0.));
#349=VECTOR('',#348,3.92069);
#350=LINE('',#313,#349);
#351=EDGE_CURVE('',#314,#342,#350,.T.);
#352=ORIENTED_EDGE('',*,*,#351,.F.);
#353=ORIENTED_EDGE('',*,*,#318,.F.);
#354=EDGE_LOOP('',(#340,#347,#352,#353));
#355=FACE_OUTER_BOUND('',#354,.T.);
#356=CARTESIAN_POINT('',(106.8886,16.62939,592.));
#357=DIRECTION('',(-0.63439,0.77301,0.));
#358=DIRECTION('',(-0.77301,-0.63439,0.));
#359=AXIS2_PLACEMENT_3D('',#356,#357,#358);
#360=PLANE('',#359);
#361=ADVANCED_FACE('',(#355),#360,.T.);
#362=CARTESIAN_POINT('',(101.37061,11.1114,592.));
#363=VERTEX_POINT('',#362);
#364=DIRECTION('',(-0.63439,-0.77301,0.));
#365=VECTOR('',#364,3.92069);
#366=LINE('',#334,#365);
#367=EDGE_CURVE('',#335,#363,#366,.T.);
#368=ORIENTED_EDGE('',*,*,#367,.T.);
#369=CARTESIAN_POINT('',(101.37061,11.1114,632.));
#370=VERTEX_POINT('',#369);
#371=DIRECTION('',(0.,0.,1.));
#372=VECTOR('',#371,40.);
#373=LINE('',#362,#372);
#374=EDGE_CURVE('',#363,#370,#373,.T.);
#375=ORIENTED_EDGE('',*,*,#374,.T.);
#376=DIRECTION('',(-0.63439,-0.77301,0.));
#377=VECTOR('',#376,3.92069);
#378=LINE('',#341,#377);
#379=EDGE_CURVE('',#342,#370,#378,.T.);
#380=ORIENTED_EDGE('',*,*,#379,.F.);
#381=ORIENTED_EDGE('',*,*,#346,.F.);
#382=EDGE_LOOP('',(#368,#375,#380,#381));
#383=FACE_OUTER_BOUND('',#382,.T.);
#384=CARTESIAN_POINT('',(103.85786,14.14214,592.));
#385=DIRECTION('',(-0.77301,0.63439,0.));
#386=DIRECTION('',(-0.63439,-0.77301,0.));
#387=AXIS2_PLACEMENT_3D('',#384,#385,#386);
#388=PLANE('',#387);
#389=ADVANCED_FACE('',(#383),#388,.T.);
#390=CARTESIAN_POINT('',(99.52241,7.65367,592.));
#391=VERTEX_POINT('',#390);
#392=DIRECTION('',(-0.4714,-0.88192,0.));
#393=VECTOR('',#392,3.92069);
#394=LINE('',#362,#393);
#395=EDGE_CURVE('',#363,#391,#394,.T.);
#396=ORIENTED_EDGE('',*,*,#395,.T.);
#397=CARTESIAN_POINT('',(99.52241,7.65367,632.));
#398=VERTEX_POINT('',#397);
#399=DIRECTION('',(0.,0.,1.));
#400=VECTOR('',#399,40.);
#401=LINE('',#390,#400);
#402=EDGE_CURVE('',#391,#398,#401,.T.);
#403=ORIENTED_EDGE('',*,*,#402,.T.);
#404=DIRECTION('',(-0.4714,-0.88192,0.));
#405=VECTOR('',#404,3.92069);
#406=LINE('',#369,#405);
#407=EDGE_CURVE('',#370,#398,#406,.T.);
#408=ORIENTED_EDGE('',*,*,#407,.F.);
#409=ORIENTED_EDGE('',*,*,#374,.F.);
#410=EDGE_LOOP('',(#396,#403,#408,#409));
#411=FACE_OUTER_BOUND('',#410,.T.);
#412=CARTESIAN_POINT('',(101.37061,11.1114,592.));
#413=DIRECTION('',(-0.88192,0.4714,0.));
#414=DIRECTION('',(-0.4714,-0.88192,0.));
#415=AXIS2_PLACEMENT_3D('',#412,#413,#414);
#416=PLANE('',#415);
#417=ADVANCED_FACE('',(#411),#416,.T.);
#418=CARTESIAN_POINT('',(98.38429,3.90181,592.));
#419=VERTEX_POINT('',#418);
#420=DIRECTION('',(-0.29028,-0.95694,0.));
#421=VECTOR('',#420,3.92069);
#422=LINE('',#390,#421);
#423=EDGE_CURVE('',#391,#419,#422,.T.);
#424=ORIENTED_EDGE('',*,*,#423,.T.);
#425=CARTESIAN_POINT('',(98.38429,3.90181,632.));
#426=VERTEX_POINT('',#425);
#427=DIRECTION('',(0.,0.,1.));
#428=VECTOR('',#427,40.);
#429=LINE('',#418,#428);
#430=EDGE_CURVE('',#419,#426,#429,.T.);
#431=ORIENTED_EDGE('',*,*,#430,.T.);
#432=DIRECTION('',(-0.29028,-0.95694,0.));
#433=VECTOR('',#432,3.92069);
#434=LINE('',#397,#433);
#435=EDGE_CURVE('',#398,#426,#434,.T.);
#436=ORIENTED_EDGE('',*,*,#435,.F.);
#437=ORIENTED_EDGE('',*,*,#402,.F.);
#438=EDGE_LOOP('',(#424,#431,#436,#437));
#439=FACE_OUTER_BOUND('',#438,.T.);
#440=CARTESIAN_POINT('',(99.52241,7.65367,592.));
#441=DIRECTION('',(-0.95694,0.29028,0.));
#442=DIRECTION('',(-0.29028,-0.95694,0.));
#443=AXIS2_PLACEMENT_3D('',#440,#441,#442);
#444=PLANE('',#443);
#445=ADVANCED_FACE('',(#439),#444,.T.);
#446=CARTESIAN_POINT('',(98.,0.,592.));
#447=VERTEX_POINT('',#446);
#448=DIRECTION('',(-0.09802,-0.99518,0.));
#449=VECTOR('',#448,3.92069);
#450=LINE('',#418,#449);
#451=EDGE_CURVE('',#419,#447,#450,.T.);
#452=ORIENTED_EDGE('',*,*,#451,.T.);
#453=CARTESIAN_POINT('',(98.,0.,632.));
#454=VERTEX_POINT('',#453);
#455=DIRECTION('',(0.,0.,1.));
#456=VECTOR('',#455,40.);
#457=LINE('',#446,#456);
#458=EDGE_CURVE('',#447,#454,#457,.T.);
#459=ORIENTED_EDGE('',*,*,#458,.T.);
#460=DIRECTION('',(-0.09802,-0.99518,0.));
#461=VECTOR('',#460,3.92069);
#462=LINE('',#425,#461);
#463=EDGE_CURVE('',#426,#454,#462,.T.);
#464=ORIENTED_EDGE('',*,*,#463,.F.);
#465=ORIENTED_EDGE('',*,*,#430,.F.);
#466=EDGE_LOOP('',(#452,#459,#464,#465));
#467=FACE_OUTER_BOUND('',#466,.T.);
#468=CARTESIAN_POINT('',(98.38429,3.90181,592.));
#469=DIRECTION('',(-0.99518,0.09802,0.));
#470=DIRECTION('',(-0.09802,-0.99518,0.));
#471=AXIS2_PLACEMENT_3D('',#468,#469,#470);
#472=PLANE('',#471);
#473=ADVANCED_FACE('',(#467),#472,.T.);
#474=CARTESIAN_POINT('',(98.38429,-3.90181,592.));
#475=VERTEX_POINT('',#474);
#476=DIRECTION('',(0.09802,-0.99518,0.));
#477=VECTOR('',#476,3.92069);
#478=LINE('',#446,#477);
#479=EDGE_CURVE('',#447,#475,#478,.T.);
#480=ORIENTED_EDGE('',*,*,#479,.T.);
#481=CARTESIAN_POINT('',(98.38429,-3.90181,632.));
#482=VERTEX_POINT('',#481);
#483=DIRECTION('',(0.,0.,1.));
#484=VECTOR('',#483,40.);
#485=LINE('',#474,#484);
#486=EDGE_CURVE('',#475,#482,#485,.T.);
#487=ORIENTED_EDGE('',*,*,#486,.T.);
#488=DIRECTION('',(0.09802,-0.99518,0.));
#489=VECTOR('',#488,3.92069);
#490=LINE('',#453,#489);
#491=EDGE_CURVE('',#454,#482,#490,.T.);
#492=ORIENTED_EDGE('',*,*,#491,.F.);
#493=ORIENTED_EDGE('',*,*,#458,.F.);
#494=EDGE_LOOP('',(#480,#487,#492,#493));
#495=FACE_OUTER_BOUND('',#494,.T.);
#496=CARTESIAN_POINT('',(98.,0.,592.));
#497=DIRECTION('',(-0.99518,-0.09802,0.));
#498=DIRECTION('',(0.09802,-0.99518,0.));
#499=AXIS2_PLACEMENT_3D('',#496,#497,#498);
#500=PLANE('',#499);
#501=ADVANCED_FACE('',(#495),#500,.T.);
#502=CARTESIAN_POINT('',(99.52241,-7.65367,592.));
#503=VERTEX_POINT('',#502);
#504=DIRECTION('',(0.29028,-0.95694,0.));
#505=VECTOR('',#504,3.92069);
#506=LINE('',#474,#505);
#507=EDGE_CURVE('',#475,#503,#506,.T.);
#508=ORIENTED_EDGE('',*,*,#507,.T.);
#509=CARTESIAN_POINT('',(99.52241,-7.65367,632.));
#510=VERTEX_POINT('',#509);
#511=DIRECTION('',(0.,0.,1.));
#512=VECTOR('',#511,40.);
#513=LINE('',#502,#512);
#514=EDGE_CURVE('',#503,#510,#513,.T.);
#515=ORIENTED_EDGE('',*,*,#514,.T.);
#516=DIRECTION('',(0.29028,-0.95694,0.));
#517=VECTOR('',#516,3.92069);
#518=LINE('',#481,#517);
#519=EDGE_CURVE('',#482,#510,#518,.T.);
#520=ORIENTED_EDGE('',*,*,#519,.F.);
#521=ORIENTED_EDGE('',*,*,#486,.F.);
#522=EDGE_LOOP('',(#508,#515,#520,#521));
#523=FACE_OUTER_BOUND('',#522,.T.);
#524=CARTESIAN_POINT('',(98.38429,-3.90181,592.));
#525=DIRECTION('',(-0.95694,-0.29028,0.));
#526=DIRECTION('',(0.29028,-0.95694,0.));
#527=AXIS2_PLACEMENT_3D('',#524,#525,#526);
#528=PLANE('',#527);
#529=ADVANCED_FACE('',(#523),#528,.T.);
#530=CARTESIAN_POINT('',(101.37061,-11.1114,592.));
#531=VERTEX_POINT('',#530);
#532=DIRECTION('',(0.4714,-0.88192,0.));
#533=VECTOR('',#532,3.92069);
#534=LINE('',#502,#533);
#535=EDGE_CURVE('',#503,#531,#534,.T.);
#536=ORIENTED_EDGE('',*,*,#535,.T.);
#537=CARTESIAN_POINT('',(101.37061,-11.1114,632.));
#538=VERTEX_POINT('',#537);
#539=DIRECTION('',(0.,0.,1.));
#540=VECTOR('',#539,40.);
#541=LINE('',#530,#540);
#542=EDGE_CURVE('',#531,#538,#541,.T.);
#543=ORIENTED_EDGE('',*,*,#542,.T.);
#544=DIRECTION('',(0.4714,-0.88192,0.));
#545=VECTOR('',#544,3.92069);
#546=LINE('',#509,#545);
#547=EDGE_CURVE('',#510,#538,#546,.T.);
#548=ORIENTED_EDGE('',*,*,#547,.F.);
#549=ORIENTED_EDGE('',*,*,#514,.F.);
#550=EDGE_LOOP('',(#536,#543,#548,#549));
#551=FACE_OUTER_BOUND('',#550,.T.);
#552=CARTESIAN_POINT('',(99.52241,-7.65367,592.));
#553=DIRECTION('',(-0.88192,-0.4714,0.));
#554=DIRECTION('',(0.4714,-0.88192,0.));
#555=AXIS2_PLACEMENT_3D('',#552,#553,#554);
#556=PLANE('',#555);
#557=ADVANCED_FACE('',(#551),#556,.T.);
#558=CARTESIAN_POINT('',(103.85786,-14.14214,592.));
#559=VERTEX_POINT('',#558);
#560=DIRECTION('',(0.63439,-0.77301,0.));
#561=VECTOR('',#560,3.92069);
#562=LINE('',#530,#561);
#563=EDGE_CURVE('',#531,#559,#562,.T.);
#564=ORIENTED_EDGE('',*,*,#563,.T.);
#565=CARTESIAN_POINT('',(103.85786,-14.14214,632.));
#566=VERTEX_POINT('',#565);
#567=DIRECTION('',(0.,0.,1.));
#568=VECTOR('',#567,40.);
#569=LINE('',#558,#568);
#570=EDGE_CURVE('',#559,#566,#569,.T.);
#571=ORIENTED_EDGE('',*,*,#570,.T.);
#572=DIRECTION('',(0.63439,-0.77301,0.));
#573=VECTOR('',#572,3.92069);
#574=LINE('',#537,#573);
#575=EDGE_CURVE('',#538,#566,#574,.T.);
#576=ORIENTED_EDGE('',*,*,#575,.F.);
#577=ORIENTED_EDGE('',*,*,#542,.F.);
#578=EDGE_LOOP('',(#564,#571,#576,#577));
#579=FACE_OUTER_BOUND('',#578,.T.);
#580=CARTESIAN_POINT('',(101.37061,-11.1114,592.));
#581=DIRECTION('',(-0.77301,-0.63439,0.));
#582=DIRECTION('',(0.63439,-0.77301,0.));
#583=AXIS2_PLACEMENT_3D('',#580,#581,#582);
#584=PLANE('',#583);
#585=ADVANCED_FACE('',(#579),#584,.T.);
#586=CARTESIAN_POINT('',(106.8886,-16.62939,592.));
#587=VERTEX_POINT('',#586);
#588=DIRECTION('',(0.77301,-0.63439,0.));
#589=VECTOR('',#588,3.92069);
#590=LINE('',#558,#589);
#591=EDGE_CURVE('',#559,#587,#590,.T.);
#592=ORIENTED_EDGE('',*,*,#591,.T.);
#593=CARTESIAN_POINT('',(106.8886,-16.62939,632.));
#594=VERTEX_POINT('',#593);
#595=DIRECTION('',(0.,0.,1.));
#596=VECTOR('',#595,40.);
#597=LINE('',#586,#596);
#598=EDGE_CURVE('',#587,#594,#597,.T.);
#599=ORIENTED_EDGE('',*,*,#598,.T.);
#600=DIRECTION('',(0.77301,-0.63439,0.));
#601=VECTOR('',#600,3.92069);
#602=LINE('',#565,#601);
#603=EDGE_CURVE('',#566,#594,#602,.T.);
#604=ORIENTED_EDGE('',*,*,#603,.F.);
#605=ORIENTED_EDGE('',*,*,#570,.F.);
#606=EDGE_LOOP('',(#592,#599,#604,#605));
#607=FACE_OUTER_BOUND('',#606,.T.);
#608=CARTESIAN_POINT('',(103.85786,-14.14214,592.));
#609=DIRECTION('',(-0.63439,-0.77301,0.));
#610=DIRECTION('',(0.77301,-0.63439,0.));
#611=AXIS2_PLACEMENT_3D('',#608,#609,#610);
#612=PLANE('',#611);
#613=ADVANCED_FACE('',(#607),#612,.T.);
#614=CARTESIAN_POINT('',(110.34633,-18.47759,592.));
#615=VERTEX_POINT('',#614);
#616=DIRECTION('',(0.88192,-0.4714,0.));
#617=VECTOR('',#616,3.92069);
#618=LINE('',#586,#617);
#619=EDGE_CURVE('',#587,#615,#618,.T.);
#620=ORIENTED_EDGE('',*,*,#619,.T.);
#621=CARTESIAN_POINT('',(110.34633,-18.47759,632.));
#622=VERTEX_POINT('',#621);
#623=DIRECTION('',(0.,0.,1.));
#624=VECTOR('',#623,40.);
#625=LINE('',#614,#624);
#626=EDGE_CURVE('',#615,#622,#625,.T.);
#627=ORIENTED_EDGE('',*,*,#626,.T.);
#628=DIRECTION('',(0.88192,-0.4714,0.));
#629=VECTOR('',#628,3.92069);
#630=LINE('',#593,#629);
#631=EDGE_CURVE('',#594,#622,#630,.T.);
#632=ORIENTED_EDGE('',*,*,#631,.F.);
#633=ORIENTED_EDGE('',*,*,#598,.F.);
#634=EDGE_LOOP('',(#620,#627,#632,#633));
#635=FACE_OUTER_BOUND('',#634,.T.);
#636=CARTESIAN_POINT('',(106.8886,-16.62939,592.));
#637=DIRECTION('',(-0.4714,-0.88192,0.));
#638=DIRECTION('',(0.88192,-0.4714,0.));
#639=AXIS2_PLACEMENT_3D('',#636,#637,#638);
#640=PLANE('',#639);
#641=ADVANCED_FACE('',(#635),#640,.T.);
#642=CARTESIAN_POINT('',(114.09819,-19.61571,592.));
#643=VERTEX_POINT('',#642);
#644=DIRECTION('',(0.95694,-0.29028,0.));
#645=VECTOR('',#644,3.92069);
#646=LINE('',#614,#645);
#647=EDGE_CURVE('',#615,#643,#646,.T.);
#648=ORIENTED_EDGE('',*,*,#647,.T.);
#649=CARTESIAN_POINT('',(114.09819,-19.61571,632.));
#650=VERTEX_POINT('',#649);
#651=DIRECTION('',(0.,0.,1.));
#652=VECTOR('',#651,40.);
#653=LINE('',#642,#652);
#654=EDGE_CURVE('',#643,#650,#653,.T.);
#655=ORIENTED_EDGE('',*,*,#654,.T.);
#656=DIRECTION('',(0.95694,-0.29028,0.));
#657=VECTOR('',#656,3.92069);
#658=LINE('',#621,#657);
#659=EDGE_CURVE('',#622,#650,#658,.T.);
#660=ORIENTED_EDGE('',*,*,#659,.F.);
#661=ORIENTED_EDGE('',*,*,#626,.F.);
#662=EDGE_LOOP('',(#648,#655,#660,#661));
#663=FACE_OUTER_BOUND('',#662,.T.);
#664=CARTESIAN_POINT('',(110.34633,-18.47759,592.));
#665=DIRECTION('',(-0.29028,-0.95694,0.));
#666=DIRECTION('',(0.95694,-0.29028,0.));
#667=AXIS2_PLACEMENT_3D('',#664,#665,#666);
#668=PLANE('',#667);
#669=ADVANCED_FACE('',(#663),#668,.T.);
#670=CARTESIAN_POINT('',(118.,-20.,592.));
#671=VERTEX_POINT('',#670);
#672=DIRECTION('',(0.99518,-0.09802,0.));
#673=VECTOR('',#672,3.92069);
#674=LINE('',#642,#673);
#675=EDGE_CURVE('',#643,#671,#674,.T.);
#676=ORIENTED_EDGE('',*,*,#675,.T.);
#677=CARTESIAN_POINT('',(118.,-20.,632.));
#678=VERTEX_POINT('',#677);
#679=DIRECTION('',(0.,0.,1.));
#680=VECTOR('',#679,40.);
#681=LINE('',#670,#680);
#682=EDGE_CURVE('',#671,#678,#681,.T.);
#683=ORIENTED_EDGE('',*,*,#682,.T.);
#684=DIRECTION('',(0.99518,-0.09802,0.));
#685=VECTOR('',#684,3.92069);
#686=LINE('',#649,#685);
#687=EDGE_CURVE('',#650,#678,#686,.T.);
#688=ORIENTED_EDGE('',*,*,#687,.F.);
#689=ORIENTED_EDGE('',*,*,#654,.F.);
#690=EDGE_LOOP('',(#676,#683,#688,#689));
#691=FACE_OUTER_BOUND('',#690,.T.);
#692=CARTESIAN_POINT('',(114.09819,-19.61571,592.));
#693=DIRECTION('',(-0.09802,-0.99518,0.));
#694=DIRECTION('',(0.99518,-0.09802,0.));
#695=AXIS2_PLACEMENT_3D('',#692,#693,#694);
#696=PLANE('',#695);
#697=ADVANCED_FACE('',(#691),#696,.T.);
#698=CARTESIAN_POINT('',(121.90181,-19.61571,592.));
#699=VERTEX_POINT('',#698);
#700=DIRECTION('',(0.99518,0.09802,0.));
#701=VECTOR('',#700,3.92069);
#702=LINE('',#670,#701);
#703=EDGE_CURVE('',#671,#699,#702,.T.);
#704=ORIENTED_EDGE('',*,*,#703,.T.);
#705=CARTESIAN_POINT('',(121.90181,-19.61571,632.));
#706=VERTEX_POINT('',#705);
#707=DIRECTION('',(0.,0.,1.));
#708=VECTOR('',#707,40.);
#709=LINE('',#698,#708);
#710=EDGE_CURVE('',#699,#706,#709,.T.);
#711=ORIENTED_EDGE('',*,*,#710,.T.);
#712=DIRECTION('',(0.99518,0.09802,0.));
#713=VECTOR('',#712,3.92069);
#714=LINE('',#677,#713);
#715=EDGE_CURVE('',#678,#706,#714,.T.);
#716=ORIENTED_EDGE('',*,*,#715,.F.);
#717=ORIENTED_EDGE('',*,*,#682,.F.);
#718=EDGE_LOOP('',(#704,#711,#716,#717));
#719=FACE_OUTER_BOUND('',#718,.T.);
#720=CARTESIAN_POINT('',(118.,-20.,592.));
#721=DIRECTION('',(0.09802,-0.99518,0.));
#722=DIRECTION('',(0.99518,0.09802,0.));
#723=AXIS2_PLACEMENT_3D('',#720,#721,#722);
#724=PLANE('',#723);
#725=ADVANCED_FACE('',(#719),#724,.T.);
#726=CARTESIAN_POINT('',(125.65367,-18.47759,592.));
#727=VERTEX_POINT('',#726);
#728=DIRECTION('',(0.95694,0.29028,0.));
#729=VECTOR('',#728,3.92069);
#730=LINE('',#698,#729);
#731=EDGE_CURVE('',#699,#727,#730,.T.);
#732=ORIENTED_EDGE('',*,*,#731,.T.);
#733=CARTESIAN_POINT('',(125.65367,-18.47759,632.));
#734=VERTEX_POINT('',#733);
#735=DIRECTION('',(0.,0.,1.));
#736=VECTOR('',#735,40.);
#737=LINE('',#726,#736);
#738=EDGE_CURVE('',#727,#734,#737,.T.);
#739=ORIENTED_EDGE('',*,*,#738,.T.);
#740=DIRECTION('',(0.95694,0.29028,0.));
#741=VECTOR('',#740,3.92069);
#742=LINE('',#705,#741);
#743=EDGE_CURVE('',#706,#734,#742,.T.);
#744=ORIENTED_EDGE('',*,*,#743,.F.);
#745=ORIENTED_EDGE('',*,*,#710,.F.);
#746=EDGE_LOOP('',(#732,#739,#744,#745));
#747=FACE_OUTER_BOUND('',#746,.T.);
#748=CARTESIAN_POINT('',(121.90181,-19.61571,592.));
#749=DIRECTION('',(0.29028,-0.95694,0.));
#750=DIRECTION('',(0.95694,0.29028,0.));
#751=AXIS2_PLACEMENT_3D('',#748,#749,#750);
#752=PLANE('',#751);
#753=ADVANCED_FACE('',(#747),#752,.T.);
#754=CARTESIAN_POINT('',(129.1114,-16.62939,592.));
#755=VERTEX_POINT('',#754);
#756=DIRECTION('',(0.88192,0.4714,0.));
#757=VECTOR('',#756,3.92069);
#758=LINE('',#726,#757);
#759=EDGE_CURVE('',#727,#755,#758,.T.);
#760=ORIENTED_EDGE('',*,*,#759,.T.);
#761=CARTESIAN_POINT('',(129.1114,-16.62939,632.));
#762=VERTEX_POINT('',#761);
#763=DIRECTION('',(0.,0.,1.));
#764=VECTOR('',#763,40.);
#765=LINE('',#754,#764);
#766=EDGE_CURVE('',#755,#762,#765,.T.);
#767=ORIENTED_EDGE('',*,*,#766,.T.);
#768=DIRECTION('',(0.88192,0.4714,0.));
#769=VECTOR('',#768,3.92069);
#770=LINE('',#733,#769);
#771=EDGE_CURVE('',#734,#762,#770,.T.);
#772=ORIENTED_EDGE('',*,*,#771,.F.);
#773=ORIENTED_EDGE('',*,*,#738,.F.);
#774=EDGE_LOOP('',(#760,#767,#772,#773));
#775=FACE_OUTER_BOUND('',#774,.T.);
#776=CARTESIAN_POINT('',(125.65367,-18.47759,592.));
#777=DIRECTION('',(0.4714,-0.88192,0.));
#778=DIRECTION('',(0.88192,0.4714,0.));
#779=AXIS2_PLACEMENT_3D('',#776,#777,#778);
#780=PLANE('',#779);
#781=ADVANCED_FACE('',(#775),#780,.T.);
#782=CARTESIAN_POINT('',(132.14214,-14.14214,592.));
#783=VERTEX_POINT('',#782);
#784=DIRECTION('',(0.77301,0.63439,0.));
#785=VECTOR('',#784,3.92069);
#786=LINE('',#754,#785);
#787=EDGE_CURVE('',#755,#783,#786,.T.);
#788=ORIENTED_EDGE('',*,*,#787,.T.);
#789=CARTESIAN_POINT('',(132.14214,-14.14214,632.));
#790=VERTEX_POINT('',#789);
#791=DIRECTION('',(0.,0.,1.));
#792=VECTOR('',#791,40.);
#793=LINE('',#782,#792);
#794=EDGE_CURVE('',#783,#790,#793,.T.);
#795=ORIENTED_EDGE('',*,*,#794,.T.);
#796=DIRECTION('',(0.77301,0.63439,0.));
#797=VECTOR('',#796,3.92069);
#798=LINE('',#761,#797);
#799=EDGE_CURVE('',#762,#790,#798,.T.);
#800=ORIENTED_EDGE('',*,*,#799,.F.);
#801=ORIENTED_EDGE('',*,*,#766,.F.);
#802=EDGE_LOOP('',(#788,#795,#800,#801));
#803=FACE_OUTER_BOUND('',#802,.T.);
#804=CARTESIAN_POINT('',(129.1114,-16.62939,592.));
#805=DIRECTION('',(0.63439,-0.77301,0.));
#806=DIRECTION('',(0.77301,0.63439,0.));
#807=AXIS2_PLACEMENT_3D('',#804,#805,#806);
#808=PLANE('',#807);
#809=ADVANCED_FACE('',(#803),#808,.T.);
#810=CARTESIAN_POINT('',(134.62939,-11.1114,592.));
#811=VERTEX_POINT('',#810);
#812=DIRECTION('',(0.63439,0.77301,0.));
#813=VECTOR('',#812,3.92069);
#814=LINE('',#782,#813);
#815=EDGE_CURVE('',#783,#811,#814,.T.);
#816=ORIENTED_EDGE('',*,*,#815,.T.);
#817=CARTESIAN_POINT('',(134.62939,-11.1114,632.));
#818=VERTEX_POINT('',#817);
#819=DIRECTION('',(0.,0.,1.));
#820=VECTOR('',#819,40.);
#821=LINE('',#810,#820);
#822=EDGE_CURVE('',#811,#818,#821,.T.);
#823=ORIENTED_EDGE('',*,*,#822,.T.);
#824=DIRECTION('',(0.63439,0.77301,0.));
#825=VECTOR('',#824,3.92069);
#826=LINE('',#789,#825);
#827=EDGE_CURVE('',#790,#818,#826,.T.);
#828=ORIENTED_EDGE('',*,*,#827,.F.);
#829=ORIENTED_EDGE('',*,*,#794,.F.);
#830=EDGE_LOOP('',(#816,#823,#828,#829));
#831=FACE_OUTER_BOUND('',#830,.T.);
#832=CARTESIAN_POINT('',(132.14214,-14.14214,592.));
#833=DIRECTION('',(0.77301,-0.63439,0.));
#834=DIRECTION('',(0.63439,0.77301,0.));
#835=AXIS2_PLACEMENT_3D('',#832,#833,#834);
#836=PLANE('',#835);
#837=ADVANCED_FACE('',(#831),#836,.T.);
#838=CARTESIAN_POINT('',(136.47759,-7.65367,592.));
#839=VERTEX_POINT('',#838);
#840=DIRECTION('',(0.4714,0.88192,0.));
#841=VECTOR('',#840,3.92069);
#842=LINE('',#810,#841);
#843=EDGE_CURVE('',#811,#839,#842,.T.);
#844=ORIENTED_EDGE('',*,*,#843,.T.);
#845=CARTESIAN_POINT('',(136.47759,-7.65367,632.));
#846=VERTEX_POINT('',#845);
#847=DIRECTION('',(0.,0.,1.));
#848=VECTOR('',#847,40.);
#849=LINE('',#838,#848);
#850=EDGE_CURVE('',#839,#846,#849,.T.);
#851=ORIENTED_EDGE('',*,*,#850,.T.);
#852=DIRECTION('',(0.4714,0.88192,0.));
#853=VECTOR('',#852,3.92069);
#854=LINE('',#817,#853);
#855=EDGE_CURVE('',#818,#846,#854,.T.);
#856=ORIENTED_EDGE('',*,*,#855,.F.);
#857=ORIENTED_EDGE('',*,*,#822,.F.);
#858=EDGE_LOOP('',(#844,#851,#856,#857));
#859=FACE_OUTER_BOUND('',#858,.T.);
#860=CARTESIAN_POINT('',(134.62939,-11.1114,592.));
#861=DIRECTION('',(0.88192,-0.4714,0.));
#862=DIRECTION('',(0.4714,0.88192,0.));
#863=AXIS2_PLACEMENT_3D('',#860,#861,#862);
#864=PLANE('',#863);
#865=ADVANCED_FACE('',(#859),#864,.T.);
#866=CARTESIAN_POINT('',(137.61571,-3.90181,592.));
#867=VERTEX_POINT('',#866);
#868=DIRECTION('',(0.29028,0.95694,0.));
#869=VECTOR('',#868,3.92069);
#870=LINE('',#838,#869);
#871=EDGE_CURVE('',#839,#867,#870,.T.);
#872=ORIENTED_EDGE('',*,*,#871,.T.);
#873=CARTESIAN_POINT('',(137.61571,-3.90181,632.));
#874=VERTEX_POINT('',#873);
#875=DIRECTION('',(0.,0.,1.));
#876=VECTOR('',#875,40.);
#877=LINE('',#866,#876);
#878=EDGE_CURVE('',#867,#874,#877,.T.);
#879=ORIENTED_EDGE('',*,*,#878,.T.);
#880=DIRECTION('',(0.29028,0.95694,0.));
#881=VECTOR('',#880,3.92069);
#882=LINE('',#845,#881);
#883=EDGE_CURVE('',#846,#874,#882,.T.);
#884=ORIENTED_EDGE('',*,*,#883,.F.);
#885=ORIENTED_EDGE('',*,*,#850,.F.);
#886=EDGE_LOOP('',(#872,#879,#884,#885));
#887=FACE_OUTER_BOUND('',#886,.T.);
#888=CARTESIAN_POINT('',(136.47759,-7.65367,592.));
#889=DIRECTION('',(0.95694,-0.29028,0.));
#890=DIRECTION('',(0.29028,0.95694,0.));
#891=AXIS2_PLACEMENT_3D('',#888,#889,#890);
#892=PLANE('',#891);
#893=ADVANCED_FACE('',(#887),#892,.T.);
#894=DIRECTION('',(-0.09802,-0.99518,0.));
#895=VECTOR('',#894,3.92069);
#896=LINE('',#18,#895);
#897=EDGE_CURVE('',#19,#867,#896,.T.);
#898=ORIENTED_EDGE('',*,*,#897,.F.);
#899=ORIENTED_EDGE('',*,*,#44,.T.);
#900=DIRECTION('',(-0.09802,-0.99518,0.));
#901=VECTOR('',#900,3.92069);
#902=LINE('',#34,#901);
#903=EDGE_CURVE('',#35,#874,#902,.T.);
#904=ORIENTED_EDGE('',*,*,#903,.T.);
#905=ORIENTED_EDGE('',*,*,#878,.F.);
#906=EDGE_LOOP('',(#898,#899,#904,#905));
#907=FACE_OUTER_BOUND('',#906,.T.);
#908=CARTESIAN_POINT('',(137.61571,-3.90181,592.));
#909=DIRECTION('',(0.99518,-0.09802,0.));
#910=DIRECTION('',(0.09802,0.99518,0.));
#911=AXIS2_PLACEMENT_3D('',#908,#909,#910);
#912=PLANE('',#911);
#913=ADVANCED_FACE('',(#907),#912,.T.);
#914=ORIENTED_EDGE('',*,*,#871,.F.);
#915=ORIENTED_EDGE('',*,*,#843,.F.);
#916=ORIENTED_EDGE('',*,*,#815,.F.);
#917=ORIENTED_EDGE('',*,*,#787,.F.);
#918=ORIENTED_EDGE('',*,*,#759,.F.);
#919=ORIENTED_EDGE('',*,*,#731,.F.);
#920=ORIENTED_EDGE('',*,*,#703,.F.);
#921=ORIENTED_EDGE('',*,*,#675,.F.);
#922=ORIENTED_EDGE('',*,*,#647,.F.);
#923=ORIENTED_EDGE('',*,*,#619,.F.);
#924=ORIENTED_EDGE('',*,*,#591,.F.);
#925=ORIENTED_EDGE('',*,*,#563,.F.);
#926=ORIENTED_EDGE('',*,*,#535,.F.);
#927=ORIENTED_EDGE('',*,*,#507,.F.);
#928=ORIENTED_EDGE('',*,*,#479,.F.);
#929=ORIENTED_EDGE('',*,*,#451,.F.);
#930=ORIENTED_EDGE('',*,*,#423,.F.);
#931=ORIENTED_EDGE('',*,*,#395,.F.);
#932=ORIENTED_EDGE('',*,*,#367,.F.);
#933=ORIENTED_EDGE('',*,*,#339,.F.);
#934=ORIENTED_EDGE('',*,*,#311,.F.);
#935=ORIENTED_EDGE('',*,*,#283,.F.);
#936=ORIENTED_EDGE('',*,*,#255,.F.);
#937=ORIENTED_EDGE('',*,*,#227,.F.);
#938=ORIENTED_EDGE('',*,*,#199,.F.);
#939=ORIENTED_EDGE('',*,*,#171,.F.);
#940=ORIENTED_EDGE('',*,*,#143,.F.);
#941=ORIENTED_EDGE('',*,*,#115,.F.);
#942=ORIENTED_EDGE('',*,*,#87,.F.);
#943=ORIENTED_EDGE('',*,*,#59,.F.);
#944=ORIENTED_EDGE('',*,*,#25,.F.);
#945=ORIENTED_EDGE('',*,*,#897,.T.);
#946=EDGE_LOOP('',(#914,#915,#916,#917,#918,#919,#920,#921,#922,#923,#924,#925,#926,#927,#928,#929,#930,#931,#932,#933,#934,#935,#936,#937,#938,#939,#940,#941,#942,#943,#944,#945));
#947=FACE_OUTER_BOUND('',#946,.T.);
#948=CARTESIAN_POINT('',(137.61571,-3.90181,592.));
#949=DIRECTION('',(0.,0.,-1.));
#950=DIRECTION('',(-0.29028,-0.95694,0.));
#951=AXIS2_PLACEMENT_3D('',#948,#949,#950);
#952=PLANE('',#951);
#953=ADVANCED_FACE('',(#947),#952,.T.);
#954=ORIENTED_EDGE('',*,*,#39,.T.);
#955=ORIENTED_EDGE('',*,*,#71,.T.);
#956=ORIENTED_EDGE('',*,*,#99,.T.);
#957=ORIENTED_EDGE('',*,*,#127,.T.);
#958=ORIENTED_EDGE('',*,*,#155,.T.);
#959=ORIENTED_EDGE('',*,*,#183,.T.);
#960=ORIENTED_EDGE('',*,*,#211,.T.);
#961=ORIENTED_EDGE('',*,*,#239,.T.);
#962=ORIENTED_EDGE('',*,*,#267,.T.);
#963=ORIENTED_EDGE('',*,*,#295,.T.);
#964=ORIENTED_EDGE('',*,*,#323,.T.);
#965=ORIENTED_EDGE('',*,*,#351,.T.);
#966=ORIENTED_EDGE('',*,*,#379,.T.);
#967=ORIENTED_EDGE('',*,*,#407,.T.);
#968=ORIENTED_EDGE('',*,*,#435,.T.);
#969=ORIENTED_EDGE('',*,*,#463,.T.);
#970=ORIENTED_EDGE('',*,*,#491,.T.);
#971=ORIENTED_EDGE('',*,*,#519,.T.);
#972=ORIENTED_EDGE('',*,*,#547,.T.);
#973=ORIENTED_EDGE('',*,*,#575,.T.);
#974=ORIENTED_EDGE('',*,*,#603,.T.);
#975=ORIENTED_EDGE('',*,*,#631,.T.);
#976=ORIENTED_EDGE('',*,*,#659,.T.);
#977=ORIENTED_EDGE('',*,*,#687,.T.);
#978=ORIENTED_EDGE('',*,*,#715,.T.);
#979=ORIENTED_EDGE('',*,*,#743,.T.);
#980=ORIENTED_EDGE('',*,*,#771,.T.);
#981=ORIENTED_EDGE('',*,*,#799,.T.);
#982=ORIENTED_EDGE('',*,*,#827,.T.);
#983=ORIENTED_EDGE('',*,*,#855,.T.);
#984=ORIENTED_EDGE('',*,*,#883,.T.);
#985=ORIENTED_EDGE('',*,*,#903,.F.);
#986=EDGE_LOOP('',(#954,#955,#956,#957,#958,#959,#960,#961,#962,#963,#964,#965,#966,#967,#968,#969,#970,#971,#972,#973,#974,#975,#976,#977,#978,#979,#980,#981,#982,#983,#984,#985));
#987=FACE_OUTER_BOUND('',#986,.T.);
#988=CARTESIAN_POINT('',(138.,0.,632.));
#989=DIRECTION('',(0.,0.,1.));
#990=DIRECTION('',(-0.09802,0.99518,0.));
#991=AXIS2_PLACEMENT_3D('',#988,#989,#990);
#992=PLANE('',#991);
#993=ADVANCED_FACE('',(#987),#992,.T.);
#994=CLOSED_SHELL('',(#53,#81,#109,#137,#165,#193,#221,#249,#277,#305,#333,#361,#389,#417,#445,#473,#501,#529,#557,#585,#613,#641,#669,#697,#725,#753,#781,#809,#837,#865,#893,#913,#953,#993));
#995=MANIFOLD_SOLID_BREP('',#994);
#996=COLOUR_RGB('',0.1,0.1,0.11);
#997=FILL_AREA_STYLE_COLOUR('',#996);
#998=FILL_AREA_STYLE('',(#997));
#999=SURFACE_STYLE_FILL_AREA(#998);
#1000=SURFACE_SIDE_STYLE('',(#999));
#1001=SURFACE_STYLE_USAGE(.BOTH.,#1000);
#1002=PRESENTATION_STYLE_ASSIGNMENT((#1001));
#1003=STYLED_ITEM('color',(#1002),#995);
#1004=CARTESIAN_POINT('',(133.,0.,632.));
#1005=VERTEX_POINT('',#1004);
#1006=CARTESIAN_POINT('',(132.62392,3.33781,632.));
#1007=VERTEX_POINT('',#1006);
#1008=DIRECTION('',(-0.11196,0.99371,0.));
#1009=VECTOR('',#1008,3.35893);
#1010=LINE('',#1004,#1009);
#1011=EDGE_CURVE('',#1005,#1007,#1010,.T.);
#1012=ORIENTED_EDGE('',*,*,#1011,.T.);
#1013=CARTESIAN_POINT('',(132.62392,3.33781,638.));
#1014=VERTEX_POINT('',#1013);
#1015=DIRECTION('',(0.,0.,1.));
#1016=VECTOR('',#1015,6.);
#1017=LINE('',#1006,#1016);
#1018=EDGE_CURVE('',#1007,#1014,#1017,.T.);
#1019=ORIENTED_EDGE('',*,*,#1018,.T.);
#1020=CARTESIAN_POINT('',(133.,0.,638.));
#1021=VERTEX_POINT('',#1020);
#1022=DIRECTION('',(-0.11196,0.99371,0.));
#1023=VECTOR('',#1022,3.35893);
#1024=LINE('',#1020,#1023);
#1025=EDGE_CURVE('',#1021,#1014,#1024,.T.);
#1026=ORIENTED_EDGE('',*,*,#1025,.F.);
#1027=DIRECTION('',(0.,0.,1.));
#1028=VECTOR('',#1027,6.);
#1029=LINE('',#1004,#1028);
#1030=EDGE_CURVE('',#1005,#1021,#1029,.T.);
#1031=ORIENTED_EDGE('',*,*,#1030,.F.);
#1032=EDGE_LOOP('',(#1012,#1019,#1026,#1031));
#1033=FACE_OUTER_BOUND('',#1032,.T.);
#1034=CARTESIAN_POINT('',(133.,0.,632.));
#1035=DIRECTION('',(0.99371,0.11196,0.));
#1036=DIRECTION('',(-0.11196,0.99371,0.));
#1037=AXIS2_PLACEMENT_3D('',#1034,#1035,#1036);
#1038=PLANE('',#1037);
#1039=ADVANCED_FACE('',(#1033),#1038,.T.);
#1040=CARTESIAN_POINT('',(131.51453,6.50826,632.));
#1041=VERTEX_POINT('',#1040);
#1042=DIRECTION('',(-0.33028,0.94388,0.));
#1043=VECTOR('',#1042,3.35893);
#1044=LINE('',#1006,#1043);
#1045=EDGE_CURVE('',#1007,#1041,#1044,.T.);
#1046=ORIENTED_EDGE('',*,*,#1045,.T.);
#1047=CARTESIAN_POINT('',(131.51453,6.50826,638.));
#1048=VERTEX_POINT('',#1047);
#1049=DIRECTION('',(0.,0.,1.));
#1050=VECTOR('',#1049,6.);
#1051=LINE('',#1040,#1050);
#1052=EDGE_CURVE('',#1041,#1048,#1051,.T.);
#1053=ORIENTED_EDGE('',*,*,#1052,.T.);
#1054=DIRECTION('',(-0.33028,0.94388,0.));
#1055=VECTOR('',#1054,3.35893);
#1056=LINE('',#1013,#1055);
#1057=EDGE_CURVE('',#1014,#1048,#1056,.T.);
#1058=ORIENTED_EDGE('',*,*,#1057,.F.);
#1059=ORIENTED_EDGE('',*,*,#1018,.F.);
#1060=EDGE_LOOP('',(#1046,#1053,#1058,#1059));
#1061=FACE_OUTER_BOUND('',#1060,.T.);
#1062=CARTESIAN_POINT('',(132.62392,3.33781,632.));
#1063=DIRECTION('',(0.94388,0.33028,0.));
#1064=DIRECTION('',(-0.33028,0.94388,0.));
#1065=AXIS2_PLACEMENT_3D('',#1062,#1063,#1064);
#1066=PLANE('',#1065);
#1067=ADVANCED_FACE('',(#1061),#1066,.T.);
#1068=CARTESIAN_POINT('',(129.72747,9.35235,632.));
#1069=VERTEX_POINT('',#1068);
#1070=DIRECTION('',(-0.53203,0.84672,0.));
#1071=VECTOR('',#1070,3.35893);
#1072=LINE('',#1040,#1071);
#1073=EDGE_CURVE('',#1041,#1069,#1072,.T.);
#1074=ORIENTED_EDGE('',*,*,#1073,.T.);
#1075=CARTESIAN_POINT('',(129.72747,9.35235,638.));
#1076=VERTEX_POINT('',#1075);
#1077=DIRECTION('',(0.,0.,1.));
#1078=VECTOR('',#1077,6.);
#1079=LINE('',#1068,#1078);
#1080=EDGE_CURVE('',#1069,#1076,#1079,.T.);
#1081=ORIENTED_EDGE('',*,*,#1080,.T.);
#1082=DIRECTION('',(-0.53203,0.84672,0.));
#1083=VECTOR('',#1082,3.35893);
#1084=LINE('',#1047,#1083);
#1085=EDGE_CURVE('',#1048,#1076,#1084,.T.);
#1086=ORIENTED_EDGE('',*,*,#1085,.F.);
#1087=ORIENTED_EDGE('',*,*,#1052,.F.);
#1088=EDGE_LOOP('',(#1074,#1081,#1086,#1087));
#1089=FACE_OUTER_BOUND('',#1088,.T.);
#1090=CARTESIAN_POINT('',(131.51453,6.50826,632.));
#1091=DIRECTION('',(0.84672,0.53203,0.));
#1092=DIRECTION('',(-0.53203,0.84672,0.));
#1093=AXIS2_PLACEMENT_3D('',#1090,#1091,#1092);
#1094=PLANE('',#1093);
#1095=ADVANCED_FACE('',(#1089),#1094,.T.);
#1096=CARTESIAN_POINT('',(127.35235,11.72747,632.));
#1097=VERTEX_POINT('',#1096);
#1098=DIRECTION('',(-0.70711,0.70711,0.));
#1099=VECTOR('',#1098,3.35893);
#1100=LINE('',#1068,#1099);
#1101=EDGE_CURVE('',#1069,#1097,#1100,.T.);
#1102=ORIENTED_EDGE('',*,*,#1101,.T.);
#1103=CARTESIAN_POINT('',(127.35235,11.72747,638.));
#1104=VERTEX_POINT('',#1103);
#1105=DIRECTION('',(0.,0.,1.));
#1106=VECTOR('',#1105,6.);
#1107=LINE('',#1096,#1106);
#1108=EDGE_CURVE('',#1097,#1104,#1107,.T.);
#1109=ORIENTED_EDGE('',*,*,#1108,.T.);
#1110=DIRECTION('',(-0.70711,0.70711,0.));
#1111=VECTOR('',#1110,3.35893);
#1112=LINE('',#1075,#1111);
#1113=EDGE_CURVE('',#1076,#1104,#1112,.T.);
#1114=ORIENTED_EDGE('',*,*,#1113,.F.);
#1115=ORIENTED_EDGE('',*,*,#1080,.F.);
#1116=EDGE_LOOP('',(#1102,#1109,#1114,#1115));
#1117=FACE_OUTER_BOUND('',#1116,.T.);
#1118=CARTESIAN_POINT('',(129.72747,9.35235,632.));
#1119=DIRECTION('',(0.70711,0.70711,0.));
#1120=DIRECTION('',(-0.70711,0.70711,0.));
#1121=AXIS2_PLACEMENT_3D('',#1118,#1119,#1120);
#1122=PLANE('',#1121);
#1123=ADVANCED_FACE('',(#1117),#1122,.T.);
#1124=CARTESIAN_POINT('',(124.50826,13.51453,632.));
#1125=VERTEX_POINT('',#1124);
#1126=DIRECTION('',(-0.84672,0.53203,0.));
#1127=VECTOR('',#1126,3.35893);
#1128=LINE('',#1096,#1127);
#1129=EDGE_CURVE('',#1097,#1125,#1128,.T.);
#1130=ORIENTED_EDGE('',*,*,#1129,.T.);
#1131=CARTESIAN_POINT('',(124.50826,13.51453,638.));
#1132=VERTEX_POINT('',#1131);
#1133=DIRECTION('',(0.,0.,1.));
#1134=VECTOR('',#1133,6.);
#1135=LINE('',#1124,#1134);
#1136=EDGE_CURVE('',#1125,#1132,#1135,.T.);
#1137=ORIENTED_EDGE('',*,*,#1136,.T.);
#1138=DIRECTION('',(-0.84672,0.53203,0.));
#1139=VECTOR('',#1138,3.35893);
#1140=LINE('',#1103,#1139);
#1141=EDGE_CURVE('',#1104,#1132,#1140,.T.);
#1142=ORIENTED_EDGE('',*,*,#1141,.F.);
#1143=ORIENTED_EDGE('',*,*,#1108,.F.);
#1144=EDGE_LOOP('',(#1130,#1137,#1142,#1143));
#1145=FACE_OUTER_BOUND('',#1144,.T.);
#1146=CARTESIAN_POINT('',(127.35235,11.72747,632.));
#1147=DIRECTION('',(0.53203,0.84672,0.));
#1148=DIRECTION('',(-0.84672,0.53203,0.));
#1149=AXIS2_PLACEMENT_3D('',#1146,#1147,#1148);
#1150=PLANE('',#1149);
#1151=ADVANCED_FACE('',(#1145),#1150,.T.);
#1152=CARTESIAN_POINT('',(121.33781,14.62392,632.));
#1153=VERTEX_POINT('',#1152);
#1154=DIRECTION('',(-0.94388,0.33028,0.));
#1155=VECTOR('',#1154,3.35893);
#1156=LINE('',#1124,#1155);
#1157=EDGE_CURVE('',#1125,#1153,#1156,.T.);
#1158=ORIENTED_EDGE('',*,*,#1157,.T.);
#1159=CARTESIAN_POINT('',(121.33781,14.62392,638.));
#1160=VERTEX_POINT('',#1159);
#1161=DIRECTION('',(0.,0.,1.));
#1162=VECTOR('',#1161,6.);
#1163=LINE('',#1152,#1162);
#1164=EDGE_CURVE('',#1153,#1160,#1163,.T.);
#1165=ORIENTED_EDGE('',*,*,#1164,.T.);
#1166=DIRECTION('',(-0.94388,0.33028,0.));
#1167=VECTOR('',#1166,3.35893);
#1168=LINE('',#1131,#1167);
#1169=EDGE_CURVE('',#1132,#1160,#1168,.T.);
#1170=ORIENTED_EDGE('',*,*,#1169,.F.);
#1171=ORIENTED_EDGE('',*,*,#1136,.F.);
#1172=EDGE_LOOP('',(#1158,#1165,#1170,#1171));
#1173=FACE_OUTER_BOUND('',#1172,.T.);
#1174=CARTESIAN_POINT('',(124.50826,13.51453,632.));
#1175=DIRECTION('',(0.33028,0.94388,0.));
#1176=DIRECTION('',(-0.94388,0.33028,0.));
#1177=AXIS2_PLACEMENT_3D('',#1174,#1175,#1176);
#1178=PLANE('',#1177);
#1179=ADVANCED_FACE('',(#1173),#1178,.T.);
#1180=CARTESIAN_POINT('',(118.,15.,632.));
#1181=VERTEX_POINT('',#1180);
#1182=DIRECTION('',(-0.99371,0.11196,0.));
#1183=VECTOR('',#1182,3.35893);
#1184=LINE('',#1152,#1183);
#1185=EDGE_CURVE('',#1153,#1181,#1184,.T.);
#1186=ORIENTED_EDGE('',*,*,#1185,.T.);
#1187=CARTESIAN_POINT('',(118.,15.,638.));
#1188=VERTEX_POINT('',#1187);
#1189=DIRECTION('',(0.,0.,1.));
#1190=VECTOR('',#1189,6.);
#1191=LINE('',#1180,#1190);
#1192=EDGE_CURVE('',#1181,#1188,#1191,.T.);
#1193=ORIENTED_EDGE('',*,*,#1192,.T.);
#1194=DIRECTION('',(-0.99371,0.11196,0.));
#1195=VECTOR('',#1194,3.35893);
#1196=LINE('',#1159,#1195);
#1197=EDGE_CURVE('',#1160,#1188,#1196,.T.);
#1198=ORIENTED_EDGE('',*,*,#1197,.F.);
#1199=ORIENTED_EDGE('',*,*,#1164,.F.);
#1200=EDGE_LOOP('',(#1186,#1193,#1198,#1199));
#1201=FACE_OUTER_BOUND('',#1200,.T.);
#1202=CARTESIAN_POINT('',(121.33781,14.62392,632.));
#1203=DIRECTION('',(0.11196,0.99371,0.));
#1204=DIRECTION('',(-0.99371,0.11196,0.));
#1205=AXIS2_PLACEMENT_3D('',#1202,#1203,#1204);
#1206=PLANE('',#1205);
#1207=ADVANCED_FACE('',(#1201),#1206,.T.);
#1208=CARTESIAN_POINT('',(114.66219,14.62392,632.));
#1209=VERTEX_POINT('',#1208);
#1210=DIRECTION('',(-0.99371,-0.11196,0.));
#1211=VECTOR('',#1210,3.35893);
#1212=LINE('',#1180,#1211);
#1213=EDGE_CURVE('',#1181,#1209,#1212,.T.);
#1214=ORIENTED_EDGE('',*,*,#1213,.T.);
#1215=CARTESIAN_POINT('',(114.66219,14.62392,638.));
#1216=VERTEX_POINT('',#1215);
#1217=DIRECTION('',(0.,0.,1.));
#1218=VECTOR('',#1217,6.);
#1219=LINE('',#1208,#1218);
#1220=EDGE_CURVE('',#1209,#1216,#1219,.T.);
#1221=ORIENTED_EDGE('',*,*,#1220,.T.);
#1222=DIRECTION('',(-0.99371,-0.11196,0.));
#1223=VECTOR('',#1222,3.35893);
#1224=LINE('',#1187,#1223);
#1225=EDGE_CURVE('',#1188,#1216,#1224,.T.);
#1226=ORIENTED_EDGE('',*,*,#1225,.F.);
#1227=ORIENTED_EDGE('',*,*,#1192,.F.);
#1228=EDGE_LOOP('',(#1214,#1221,#1226,#1227));
#1229=FACE_OUTER_BOUND('',#1228,.T.);
#1230=CARTESIAN_POINT('',(118.,15.,632.));
#1231=DIRECTION('',(-0.11196,0.99371,0.));
#1232=DIRECTION('',(-0.99371,-0.11196,0.));
#1233=AXIS2_PLACEMENT_3D('',#1230,#1231,#1232);
#1234=PLANE('',#1233);
#1235=ADVANCED_FACE('',(#1229),#1234,.T.);
#1236=CARTESIAN_POINT('',(111.49174,13.51453,632.));
#1237=VERTEX_POINT('',#1236);
#1238=DIRECTION('',(-0.94388,-0.33028,0.));
#1239=VECTOR('',#1238,3.35893);
#1240=LINE('',#1208,#1239);
#1241=EDGE_CURVE('',#1209,#1237,#1240,.T.);
#1242=ORIENTED_EDGE('',*,*,#1241,.T.);
#1243=CARTESIAN_POINT('',(111.49174,13.51453,638.));
#1244=VERTEX_POINT('',#1243);
#1245=DIRECTION('',(0.,0.,1.));
#1246=VECTOR('',#1245,6.);
#1247=LINE('',#1236,#1246);
#1248=EDGE_CURVE('',#1237,#1244,#1247,.T.);
#1249=ORIENTED_EDGE('',*,*,#1248,.T.);
#1250=DIRECTION('',(-0.94388,-0.33028,0.));
#1251=VECTOR('',#1250,3.35893);
#1252=LINE('',#1215,#1251);
#1253=EDGE_CURVE('',#1216,#1244,#1252,.T.);
#1254=ORIENTED_EDGE('',*,*,#1253,.F.);
#1255=ORIENTED_EDGE('',*,*,#1220,.F.);
#1256=EDGE_LOOP('',(#1242,#1249,#1254,#1255));
#1257=FACE_OUTER_BOUND('',#1256,.T.);
#1258=CARTESIAN_POINT('',(114.66219,14.62392,632.));
#1259=DIRECTION('',(-0.33028,0.94388,0.));
#1260=DIRECTION('',(-0.94388,-0.33028,0.));
#1261=AXIS2_PLACEMENT_3D('',#1258,#1259,#1260);
#1262=PLANE('',#1261);
#1263=ADVANCED_FACE('',(#1257),#1262,.T.);
#1264=CARTESIAN_POINT('',(108.64765,11.72747,632.));
#1265=VERTEX_POINT('',#1264);
#1266=DIRECTION('',(-0.84672,-0.53203,0.));
#1267=VECTOR('',#1266,3.35893);
#1268=LINE('',#1236,#1267);
#1269=EDGE_CURVE('',#1237,#1265,#1268,.T.);
#1270=ORIENTED_EDGE('',*,*,#1269,.T.);
#1271=CARTESIAN_POINT('',(108.64765,11.72747,638.));
#1272=VERTEX_POINT('',#1271);
#1273=DIRECTION('',(0.,0.,1.));
#1274=VECTOR('',#1273,6.);
#1275=LINE('',#1264,#1274);
#1276=EDGE_CURVE('',#1265,#1272,#1275,.T.);
#1277=ORIENTED_EDGE('',*,*,#1276,.T.);
#1278=DIRECTION('',(-0.84672,-0.53203,0.));
#1279=VECTOR('',#1278,3.35893);
#1280=LINE('',#1243,#1279);
#1281=EDGE_CURVE('',#1244,#1272,#1280,.T.);
#1282=ORIENTED_EDGE('',*,*,#1281,.F.);
#1283=ORIENTED_EDGE('',*,*,#1248,.F.);
#1284=EDGE_LOOP('',(#1270,#1277,#1282,#1283));
#1285=FACE_OUTER_BOUND('',#1284,.T.);
#1286=CARTESIAN_POINT('',(111.49174,13.51453,632.));
#1287=DIRECTION('',(-0.53203,0.84672,0.));
#1288=DIRECTION('',(-0.84672,-0.53203,0.));
#1289=AXIS2_PLACEMENT_3D('',#1286,#1287,#1288);
#1290=PLANE('',#1289);
#1291=ADVANCED_FACE('',(#1285),#1290,.T.);
#1292=CARTESIAN_POINT('',(106.27253,9.35235,632.));
#1293=VERTEX_POINT('',#1292);
#1294=DIRECTION('',(-0.70711,-0.70711,0.));
#1295=VECTOR('',#1294,3.35893);
#1296=LINE('',#1264,#1295);
#1297=EDGE_CURVE('',#1265,#1293,#1296,.T.);
#1298=ORIENTED_EDGE('',*,*,#1297,.T.);
#1299=CARTESIAN_POINT('',(106.27253,9.35235,638.));
#1300=VERTEX_POINT('',#1299);
#1301=DIRECTION('',(0.,0.,1.));
#1302=VECTOR('',#1301,6.);
#1303=LINE('',#1292,#1302);
#1304=EDGE_CURVE('',#1293,#1300,#1303,.T.);
#1305=ORIENTED_EDGE('',*,*,#1304,.T.);
#1306=DIRECTION('',(-0.70711,-0.70711,0.));
#1307=VECTOR('',#1306,3.35893);
#1308=LINE('',#1271,#1307);
#1309=EDGE_CURVE('',#1272,#1300,#1308,.T.);
#1310=ORIENTED_EDGE('',*,*,#1309,.F.);
#1311=ORIENTED_EDGE('',*,*,#1276,.F.);
#1312=EDGE_LOOP('',(#1298,#1305,#1310,#1311));
#1313=FACE_OUTER_BOUND('',#1312,.T.);
#1314=CARTESIAN_POINT('',(108.64765,11.72747,632.));
#1315=DIRECTION('',(-0.70711,0.70711,0.));
#1316=DIRECTION('',(-0.70711,-0.70711,0.));
#1317=AXIS2_PLACEMENT_3D('',#1314,#1315,#1316);
#1318=PLANE('',#1317);
#1319=ADVANCED_FACE('',(#1313),#1318,.T.);
#1320=CARTESIAN_POINT('',(104.48547,6.50826,632.));
#1321=VERTEX_POINT('',#1320);
#1322=DIRECTION('',(-0.53203,-0.84672,0.));
#1323=VECTOR('',#1322,3.35893);
#1324=LINE('',#1292,#1323);
#1325=EDGE_CURVE('',#1293,#1321,#1324,.T.);
#1326=ORIENTED_EDGE('',*,*,#1325,.T.);
#1327=CARTESIAN_POINT('',(104.48547,6.50826,638.));
#1328=VERTEX_POINT('',#1327);
#1329=DIRECTION('',(0.,0.,1.));
#1330=VECTOR('',#1329,6.);
#1331=LINE('',#1320,#1330);
#1332=EDGE_CURVE('',#1321,#1328,#1331,.T.);
#1333=ORIENTED_EDGE('',*,*,#1332,.T.);
#1334=DIRECTION('',(-0.53203,-0.84672,0.));
#1335=VECTOR('',#1334,3.35893);
#1336=LINE('',#1299,#1335);
#1337=EDGE_CURVE('',#1300,#1328,#1336,.T.);
#1338=ORIENTED_EDGE('',*,*,#1337,.F.);
#1339=ORIENTED_EDGE('',*,*,#1304,.F.);
#1340=EDGE_LOOP('',(#1326,#1333,#1338,#1339));
#1341=FACE_OUTER_BOUND('',#1340,.T.);
#1342=CARTESIAN_POINT('',(106.27253,9.35235,632.));
#1343=DIRECTION('',(-0.84672,0.53203,0.));
#1344=DIRECTION('',(-0.53203,-0.84672,0.));
#1345=AXIS2_PLACEMENT_3D('',#1342,#1343,#1344);
#1346=PLANE('',#1345);
#1347=ADVANCED_FACE('',(#1341),#1346,.T.);
#1348=CARTESIAN_POINT('',(103.37608,3.33781,632.));
#1349=VERTEX_POINT('',#1348);
#1350=DIRECTION('',(-0.33028,-0.94388,0.));
#1351=VECTOR('',#1350,3.35893);
#1352=LINE('',#1320,#1351);
#1353=EDGE_CURVE('',#1321,#1349,#1352,.T.);
#1354=ORIENTED_EDGE('',*,*,#1353,.T.);
#1355=CARTESIAN_POINT('',(103.37608,3.33781,638.));
#1356=VERTEX_POINT('',#1355);
#1357=DIRECTION('',(0.,0.,1.));
#1358=VECTOR('',#1357,6.);
#1359=LINE('',#1348,#1358);
#1360=EDGE_CURVE('',#1349,#1356,#1359,.T.);
#1361=ORIENTED_EDGE('',*,*,#1360,.T.);
#1362=DIRECTION('',(-0.33028,-0.94388,0.));
#1363=VECTOR('',#1362,3.35893);
#1364=LINE('',#1327,#1363);
#1365=EDGE_CURVE('',#1328,#1356,#1364,.T.);
#1366=ORIENTED_EDGE('',*,*,#1365,.F.);
#1367=ORIENTED_EDGE('',*,*,#1332,.F.);
#1368=EDGE_LOOP('',(#1354,#1361,#1366,#1367));
#1369=FACE_OUTER_BOUND('',#1368,.T.);
#1370=CARTESIAN_POINT('',(104.48547,6.50826,632.));
#1371=DIRECTION('',(-0.94388,0.33028,0.));
#1372=DIRECTION('',(-0.33028,-0.94388,0.));
#1373=AXIS2_PLACEMENT_3D('',#1370,#1371,#1372);
#1374=PLANE('',#1373);
#1375=ADVANCED_FACE('',(#1369),#1374,.T.);
#1376=CARTESIAN_POINT('',(103.,0.,632.));
#1377=VERTEX_POINT('',#1376);
#1378=DIRECTION('',(-0.11196,-0.99371,0.));
#1379=VECTOR('',#1378,3.35893);
#1380=LINE('',#1348,#1379);
#1381=EDGE_CURVE('',#1349,#1377,#1380,.T.);
#1382=ORIENTED_EDGE('',*,*,#1381,.T.);
#1383=CARTESIAN_POINT('',(103.,0.,638.));
#1384=VERTEX_POINT('',#1383);
#1385=DIRECTION('',(0.,0.,1.));
#1386=VECTOR('',#1385,6.);
#1387=LINE('',#1376,#1386);
#1388=EDGE_CURVE('',#1377,#1384,#1387,.T.);
#1389=ORIENTED_EDGE('',*,*,#1388,.T.);
#1390=DIRECTION('',(-0.11196,-0.99371,0.));
#1391=VECTOR('',#1390,3.35893);
#1392=LINE('',#1355,#1391);
#1393=EDGE_CURVE('',#1356,#1384,#1392,.T.);
#1394=ORIENTED_EDGE('',*,*,#1393,.F.);
#1395=ORIENTED_EDGE('',*,*,#1360,.F.);
#1396=EDGE_LOOP('',(#1382,#1389,#1394,#1395));
#1397=FACE_OUTER_BOUND('',#1396,.T.);
#1398=CARTESIAN_POINT('',(103.37608,3.33781,632.));
#1399=DIRECTION('',(-0.99371,0.11196,0.));
#1400=DIRECTION('',(-0.11196,-0.99371,0.));
#1401=AXIS2_PLACEMENT_3D('',#1398,#1399,#1400);
#1402=PLANE('',#1401);
#1403=ADVANCED_FACE('',(#1397),#1402,.T.);
#1404=CARTESIAN_POINT('',(103.37608,-3.33781,632.));
#1405=VERTEX_POINT('',#1404);
#1406=DIRECTION('',(0.11196,-0.99371,0.));
#1407=VECTOR('',#1406,3.35893);
#1408=LINE('',#1376,#1407);
#1409=EDGE_CURVE('',#1377,#1405,#1408,.T.);
#1410=ORIENTED_EDGE('',*,*,#1409,.T.);
#1411=CARTESIAN_POINT('',(103.37608,-3.33781,638.));
#1412=VERTEX_POINT('',#1411);
#1413=DIRECTION('',(0.,0.,1.));
#1414=VECTOR('',#1413,6.);
#1415=LINE('',#1404,#1414);
#1416=EDGE_CURVE('',#1405,#1412,#1415,.T.);
#1417=ORIENTED_EDGE('',*,*,#1416,.T.);
#1418=DIRECTION('',(0.11196,-0.99371,0.));
#1419=VECTOR('',#1418,3.35893);
#1420=LINE('',#1383,#1419);
#1421=EDGE_CURVE('',#1384,#1412,#1420,.T.);
#1422=ORIENTED_EDGE('',*,*,#1421,.F.);
#1423=ORIENTED_EDGE('',*,*,#1388,.F.);
#1424=EDGE_LOOP('',(#1410,#1417,#1422,#1423));
#1425=FACE_OUTER_BOUND('',#1424,.T.);
#1426=CARTESIAN_POINT('',(103.,0.,632.));
#1427=DIRECTION('',(-0.99371,-0.11196,0.));
#1428=DIRECTION('',(0.11196,-0.99371,0.));
#1429=AXIS2_PLACEMENT_3D('',#1426,#1427,#1428);
#1430=PLANE('',#1429);
#1431=ADVANCED_FACE('',(#1425),#1430,.T.);
#1432=CARTESIAN_POINT('',(104.48547,-6.50826,632.));
#1433=VERTEX_POINT('',#1432);
#1434=DIRECTION('',(0.33028,-0.94388,0.));
#1435=VECTOR('',#1434,3.35893);
#1436=LINE('',#1404,#1435);
#1437=EDGE_CURVE('',#1405,#1433,#1436,.T.);
#1438=ORIENTED_EDGE('',*,*,#1437,.T.);
#1439=CARTESIAN_POINT('',(104.48547,-6.50826,638.));
#1440=VERTEX_POINT('',#1439);
#1441=DIRECTION('',(0.,0.,1.));
#1442=VECTOR('',#1441,6.);
#1443=LINE('',#1432,#1442);
#1444=EDGE_CURVE('',#1433,#1440,#1443,.T.);
#1445=ORIENTED_EDGE('',*,*,#1444,.T.);
#1446=DIRECTION('',(0.33028,-0.94388,0.));
#1447=VECTOR('',#1446,3.35893);
#1448=LINE('',#1411,#1447);
#1449=EDGE_CURVE('',#1412,#1440,#1448,.T.);
#1450=ORIENTED_EDGE('',*,*,#1449,.F.);
#1451=ORIENTED_EDGE('',*,*,#1416,.F.);
#1452=EDGE_LOOP('',(#1438,#1445,#1450,#1451));
#1453=FACE_OUTER_BOUND('',#1452,.T.);
#1454=CARTESIAN_POINT('',(103.37608,-3.33781,632.));
#1455=DIRECTION('',(-0.94388,-0.33028,0.));
#1456=DIRECTION('',(0.33028,-0.94388,0.));
#1457=AXIS2_PLACEMENT_3D('',#1454,#1455,#1456);
#1458=PLANE('',#1457);
#1459=ADVANCED_FACE('',(#1453),#1458,.T.);
#1460=CARTESIAN_POINT('',(106.27253,-9.35235,632.));
#1461=VERTEX_POINT('',#1460);
#1462=DIRECTION('',(0.53203,-0.84672,0.));
#1463=VECTOR('',#1462,3.35893);
#1464=LINE('',#1432,#1463);
#1465=EDGE_CURVE('',#1433,#1461,#1464,.T.);
#1466=ORIENTED_EDGE('',*,*,#1465,.T.);
#1467=CARTESIAN_POINT('',(106.27253,-9.35235,638.));
#1468=VERTEX_POINT('',#1467);
#1469=DIRECTION('',(0.,0.,1.));
#1470=VECTOR('',#1469,6.);
#1471=LINE('',#1460,#1470);
#1472=EDGE_CURVE('',#1461,#1468,#1471,.T.);
#1473=ORIENTED_EDGE('',*,*,#1472,.T.);
#1474=DIRECTION('',(0.53203,-0.84672,0.));
#1475=VECTOR('',#1474,3.35893);
#1476=LINE('',#1439,#1475);
#1477=EDGE_CURVE('',#1440,#1468,#1476,.T.);
#1478=ORIENTED_EDGE('',*,*,#1477,.F.);
#1479=ORIENTED_EDGE('',*,*,#1444,.F.);
#1480=EDGE_LOOP('',(#1466,#1473,#1478,#1479));
#1481=FACE_OUTER_BOUND('',#1480,.T.);
#1482=CARTESIAN_POINT('',(104.48547,-6.50826,632.));
#1483=DIRECTION('',(-0.84672,-0.53203,0.));
#1484=DIRECTION('',(0.53203,-0.84672,0.));
#1485=AXIS2_PLACEMENT_3D('',#1482,#1483,#1484);
#1486=PLANE('',#1485);
#1487=ADVANCED_FACE('',(#1481),#1486,.T.);
#1488=CARTESIAN_POINT('',(108.64765,-11.72747,632.));
#1489=VERTEX_POINT('',#1488);
#1490=DIRECTION('',(0.70711,-0.70711,0.));
#1491=VECTOR('',#1490,3.35893);
#1492=LINE('',#1460,#1491);
#1493=EDGE_CURVE('',#1461,#1489,#1492,.T.);
#1494=ORIENTED_EDGE('',*,*,#1493,.T.);
#1495=CARTESIAN_POINT('',(108.64765,-11.72747,638.));
#1496=VERTEX_POINT('',#1495);
#1497=DIRECTION('',(0.,0.,1.));
#1498=VECTOR('',#1497,6.);
#1499=LINE('',#1488,#1498);
#1500=EDGE_CURVE('',#1489,#1496,#1499,.T.);
#1501=ORIENTED_EDGE('',*,*,#1500,.T.);
#1502=DIRECTION('',(0.70711,-0.70711,0.));
#1503=VECTOR('',#1502,3.35893);
#1504=LINE('',#1467,#1503);
#1505=EDGE_CURVE('',#1468,#1496,#1504,.T.);
#1506=ORIENTED_EDGE('',*,*,#1505,.F.);
#1507=ORIENTED_EDGE('',*,*,#1472,.F.);
#1508=EDGE_LOOP('',(#1494,#1501,#1506,#1507));
#1509=FACE_OUTER_BOUND('',#1508,.T.);
#1510=CARTESIAN_POINT('',(106.27253,-9.35235,632.));
#1511=DIRECTION('',(-0.70711,-0.70711,0.));
#1512=DIRECTION('',(0.70711,-0.70711,0.));
#1513=AXIS2_PLACEMENT_3D('',#1510,#1511,#1512);
#1514=PLANE('',#1513);
#1515=ADVANCED_FACE('',(#1509),#1514,.T.);
#1516=CARTESIAN_POINT('',(111.49174,-13.51453,632.));
#1517=VERTEX_POINT('',#1516);
#1518=DIRECTION('',(0.84672,-0.53203,0.));
#1519=VECTOR('',#1518,3.35893);
#1520=LINE('',#1488,#1519);
#1521=EDGE_CURVE('',#1489,#1517,#1520,.T.);
#1522=ORIENTED_EDGE('',*,*,#1521,.T.);
#1523=CARTESIAN_POINT('',(111.49174,-13.51453,638.));
#1524=VERTEX_POINT('',#1523);
#1525=DIRECTION('',(0.,0.,1.));
#1526=VECTOR('',#1525,6.);
#1527=LINE('',#1516,#1526);
#1528=EDGE_CURVE('',#1517,#1524,#1527,.T.);
#1529=ORIENTED_EDGE('',*,*,#1528,.T.);
#1530=DIRECTION('',(0.84672,-0.53203,0.));
#1531=VECTOR('',#1530,3.35893);
#1532=LINE('',#1495,#1531);
#1533=EDGE_CURVE('',#1496,#1524,#1532,.T.);
#1534=ORIENTED_EDGE('',*,*,#1533,.F.);
#1535=ORIENTED_EDGE('',*,*,#1500,.F.);
#1536=EDGE_LOOP('',(#1522,#1529,#1534,#1535));
#1537=FACE_OUTER_BOUND('',#1536,.T.);
#1538=CARTESIAN_POINT('',(108.64765,-11.72747,632.));
#1539=DIRECTION('',(-0.53203,-0.84672,0.));
#1540=DIRECTION('',(0.84672,-0.53203,0.));
#1541=AXIS2_PLACEMENT_3D('',#1538,#1539,#1540);
#1542=PLANE('',#1541);
#1543=ADVANCED_FACE('',(#1537),#1542,.T.);
#1544=CARTESIAN_POINT('',(114.66219,-14.62392,632.));
#1545=VERTEX_POINT('',#1544);
#1546=DIRECTION('',(0.94388,-0.33028,0.));
#1547=VECTOR('',#1546,3.35893);
#1548=LINE('',#1516,#1547);
#1549=EDGE_CURVE('',#1517,#1545,#1548,.T.);
#1550=ORIENTED_EDGE('',*,*,#1549,.T.);
#1551=CARTESIAN_POINT('',(114.66219,-14.62392,638.));
#1552=VERTEX_POINT('',#1551);
#1553=DIRECTION('',(0.,0.,1.));
#1554=VECTOR('',#1553,6.);
#1555=LINE('',#1544,#1554);
#1556=EDGE_CURVE('',#1545,#1552,#1555,.T.);
#1557=ORIENTED_EDGE('',*,*,#1556,.T.);
#1558=DIRECTION('',(0.94388,-0.33028,0.));
#1559=VECTOR('',#1558,3.35893);
#1560=LINE('',#1523,#1559);
#1561=EDGE_CURVE('',#1524,#1552,#1560,.T.);
#1562=ORIENTED_EDGE('',*,*,#1561,.F.);
#1563=ORIENTED_EDGE('',*,*,#1528,.F.);
#1564=EDGE_LOOP('',(#1550,#1557,#1562,#1563));
#1565=FACE_OUTER_BOUND('',#1564,.T.);
#1566=CARTESIAN_POINT('',(111.49174,-13.51453,632.));
#1567=DIRECTION('',(-0.33028,-0.94388,0.));
#1568=DIRECTION('',(0.94388,-0.33028,0.));
#1569=AXIS2_PLACEMENT_3D('',#1566,#1567,#1568);
#1570=PLANE('',#1569);
#1571=ADVANCED_FACE('',(#1565),#1570,.T.);
#1572=CARTESIAN_POINT('',(118.,-15.,632.));
#1573=VERTEX_POINT('',#1572);
#1574=DIRECTION('',(0.99371,-0.11196,0.));
#1575=VECTOR('',#1574,3.35893);
#1576=LINE('',#1544,#1575);
#1577=EDGE_CURVE('',#1545,#1573,#1576,.T.);
#1578=ORIENTED_EDGE('',*,*,#1577,.T.);
#1579=CARTESIAN_POINT('',(118.,-15.,638.));
#1580=VERTEX_POINT('',#1579);
#1581=DIRECTION('',(0.,0.,1.));
#1582=VECTOR('',#1581,6.);
#1583=LINE('',#1572,#1582);
#1584=EDGE_CURVE('',#1573,#1580,#1583,.T.);
#1585=ORIENTED_EDGE('',*,*,#1584,.T.);
#1586=DIRECTION('',(0.99371,-0.11196,0.));
#1587=VECTOR('',#1586,3.35893);
#1588=LINE('',#1551,#1587);
#1589=EDGE_CURVE('',#1552,#1580,#1588,.T.);
#1590=ORIENTED_EDGE('',*,*,#1589,.F.);
#1591=ORIENTED_EDGE('',*,*,#1556,.F.);
#1592=EDGE_LOOP('',(#1578,#1585,#1590,#1591));
#1593=FACE_OUTER_BOUND('',#1592,.T.);
#1594=CARTESIAN_POINT('',(114.66219,-14.62392,632.));
#1595=DIRECTION('',(-0.11196,-0.99371,0.));
#1596=DIRECTION('',(0.99371,-0.11196,0.));
#1597=AXIS2_PLACEMENT_3D('',#1594,#1595,#1596);
#1598=PLANE('',#1597);
#1599=ADVANCED_FACE('',(#1593),#1598,.T.);
#1600=CARTESIAN_POINT('',(121.33781,-14.62392,632.));
#1601=VERTEX_POINT('',#1600);
#1602=DIRECTION('',(0.99371,0.11196,0.));
#1603=VECTOR('',#1602,3.35893);
#1604=LINE('',#1572,#1603);
#1605=EDGE_CURVE('',#1573,#1601,#1604,.T.);
#1606=ORIENTED_EDGE('',*,*,#1605,.T.);
#1607=CARTESIAN_POINT('',(121.33781,-14.62392,638.));
#1608=VERTEX_POINT('',#1607);
#1609=DIRECTION('',(0.,0.,1.));
#1610=VECTOR('',#1609,6.);
#1611=LINE('',#1600,#1610);
#1612=EDGE_CURVE('',#1601,#1608,#1611,.T.);
#1613=ORIENTED_EDGE('',*,*,#1612,.T.);
#1614=DIRECTION('',(0.99371,0.11196,0.));
#1615=VECTOR('',#1614,3.35893);
#1616=LINE('',#1579,#1615);
#1617=EDGE_CURVE('',#1580,#1608,#1616,.T.);
#1618=ORIENTED_EDGE('',*,*,#1617,.F.);
#1619=ORIENTED_EDGE('',*,*,#1584,.F.);
#1620=EDGE_LOOP('',(#1606,#1613,#1618,#1619));
#1621=FACE_OUTER_BOUND('',#1620,.T.);
#1622=CARTESIAN_POINT('',(118.,-15.,632.));
#1623=DIRECTION('',(0.11196,-0.99371,0.));
#1624=DIRECTION('',(0.99371,0.11196,0.));
#1625=AXIS2_PLACEMENT_3D('',#1622,#1623,#1624);
#1626=PLANE('',#1625);
#1627=ADVANCED_FACE('',(#1621),#1626,.T.);
#1628=CARTESIAN_POINT('',(124.50826,-13.51453,632.));
#1629=VERTEX_POINT('',#1628);
#1630=DIRECTION('',(0.94388,0.33028,0.));
#1631=VECTOR('',#1630,3.35893);
#1632=LINE('',#1600,#1631);
#1633=EDGE_CURVE('',#1601,#1629,#1632,.T.);
#1634=ORIENTED_EDGE('',*,*,#1633,.T.);
#1635=CARTESIAN_POINT('',(124.50826,-13.51453,638.));
#1636=VERTEX_POINT('',#1635);
#1637=DIRECTION('',(0.,0.,1.));
#1638=VECTOR('',#1637,6.);
#1639=LINE('',#1628,#1638);
#1640=EDGE_CURVE('',#1629,#1636,#1639,.T.);
#1641=ORIENTED_EDGE('',*,*,#1640,.T.);
#1642=DIRECTION('',(0.94388,0.33028,0.));
#1643=VECTOR('',#1642,3.35893);
#1644=LINE('',#1607,#1643);
#1645=EDGE_CURVE('',#1608,#1636,#1644,.T.);
#1646=ORIENTED_EDGE('',*,*,#1645,.F.);
#1647=ORIENTED_EDGE('',*,*,#1612,.F.);
#1648=EDGE_LOOP('',(#1634,#1641,#1646,#1647));
#1649=FACE_OUTER_BOUND('',#1648,.T.);
#1650=CARTESIAN_POINT('',(121.33781,-14.62392,632.));
#1651=DIRECTION('',(0.33028,-0.94388,0.));
#1652=DIRECTION('',(0.94388,0.33028,0.));
#1653=AXIS2_PLACEMENT_3D('',#1650,#1651,#1652);
#1654=PLANE('',#1653);
#1655=ADVANCED_FACE('',(#1649),#1654,.T.);
#1656=CARTESIAN_POINT('',(127.35235,-11.72747,632.));
#1657=VERTEX_POINT('',#1656);
#1658=DIRECTION('',(0.84672,0.53203,0.));
#1659=VECTOR('',#1658,3.35893);
#1660=LINE('',#1628,#1659);
#1661=EDGE_CURVE('',#1629,#1657,#1660,.T.);
#1662=ORIENTED_EDGE('',*,*,#1661,.T.);
#1663=CARTESIAN_POINT('',(127.35235,-11.72747,638.));
#1664=VERTEX_POINT('',#1663);
#1665=DIRECTION('',(0.,0.,1.));
#1666=VECTOR('',#1665,6.);
#1667=LINE('',#1656,#1666);
#1668=EDGE_CURVE('',#1657,#1664,#1667,.T.);
#1669=ORIENTED_EDGE('',*,*,#1668,.T.);
#1670=DIRECTION('',(0.84672,0.53203,0.));
#1671=VECTOR('',#1670,3.35893);
#1672=LINE('',#1635,#1671);
#1673=EDGE_CURVE('',#1636,#1664,#1672,.T.);
#1674=ORIENTED_EDGE('',*,*,#1673,.F.);
#1675=ORIENTED_EDGE('',*,*,#1640,.F.);
#1676=EDGE_LOOP('',(#1662,#1669,#1674,#1675));
#1677=FACE_OUTER_BOUND('',#1676,.T.);
#1678=CARTESIAN_POINT('',(124.50826,-13.51453,632.));
#1679=DIRECTION('',(0.53203,-0.84672,0.));
#1680=DIRECTION('',(0.84672,0.53203,0.));
#1681=AXIS2_PLACEMENT_3D('',#1678,#1679,#1680);
#1682=PLANE('',#1681);
#1683=ADVANCED_FACE('',(#1677),#1682,.T.);
#1684=CARTESIAN_POINT('',(129.72747,-9.35235,632.));
#1685=VERTEX_POINT('',#1684);
#1686=DIRECTION('',(0.70711,0.70711,0.));
#1687=VECTOR('',#1686,3.35893);
#1688=LINE('',#1656,#1687);
#1689=EDGE_CURVE('',#1657,#1685,#1688,.T.);
#1690=ORIENTED_EDGE('',*,*,#1689,.T.);
#1691=CARTESIAN_POINT('',(129.72747,-9.35235,638.));
#1692=VERTEX_POINT('',#1691);
#1693=DIRECTION('',(0.,0.,1.));
#1694=VECTOR('',#1693,6.);
#1695=LINE('',#1684,#1694);
#1696=EDGE_CURVE('',#1685,#1692,#1695,.T.);
#1697=ORIENTED_EDGE('',*,*,#1696,.T.);
#1698=DIRECTION('',(0.70711,0.70711,0.));
#1699=VECTOR('',#1698,3.35893);
#1700=LINE('',#1663,#1699);
#1701=EDGE_CURVE('',#1664,#1692,#1700,.T.);
#1702=ORIENTED_EDGE('',*,*,#1701,.F.);
#1703=ORIENTED_EDGE('',*,*,#1668,.F.);
#1704=EDGE_LOOP('',(#1690,#1697,#1702,#1703));
#1705=FACE_OUTER_BOUND('',#1704,.T.);
#1706=CARTESIAN_POINT('',(127.35235,-11.72747,632.));
#1707=DIRECTION('',(0.70711,-0.70711,0.));
#1708=DIRECTION('',(0.70711,0.70711,0.));
#1709=AXIS2_PLACEMENT_3D('',#1706,#1707,#1708);
#1710=PLANE('',#1709);
#1711=ADVANCED_FACE('',(#1705),#1710,.T.);
#1712=CARTESIAN_POINT('',(131.51453,-6.50826,632.));
#1713=VERTEX_POINT('',#1712);
#1714=DIRECTION('',(0.53203,0.84672,0.));
#1715=VECTOR('',#1714,3.35893);
#1716=LINE('',#1684,#1715);
#1717=EDGE_CURVE('',#1685,#1713,#1716,.T.);
#1718=ORIENTED_EDGE('',*,*,#1717,.T.);
#1719=CARTESIAN_POINT('',(131.51453,-6.50826,638.));
#1720=VERTEX_POINT('',#1719);
#1721=DIRECTION('',(0.,0.,1.));
#1722=VECTOR('',#1721,6.);
#1723=LINE('',#1712,#1722);
#1724=EDGE_CURVE('',#1713,#1720,#1723,.T.);
#1725=ORIENTED_EDGE('',*,*,#1724,.T.);
#1726=DIRECTION('',(0.53203,0.84672,0.));
#1727=VECTOR('',#1726,3.35893);
#1728=LINE('',#1691,#1727);
#1729=EDGE_CURVE('',#1692,#1720,#1728,.T.);
#1730=ORIENTED_EDGE('',*,*,#1729,.F.);
#1731=ORIENTED_EDGE('',*,*,#1696,.F.);
#1732=EDGE_LOOP('',(#1718,#1725,#1730,#1731));
#1733=FACE_OUTER_BOUND('',#1732,.T.);
#1734=CARTESIAN_POINT('',(129.72747,-9.35235,632.));
#1735=DIRECTION('',(0.84672,-0.53203,0.));
#1736=DIRECTION('',(0.53203,0.84672,0.));
#1737=AXIS2_PLACEMENT_3D('',#1734,#1735,#1736);
#1738=PLANE('',#1737);
#1739=ADVANCED_FACE('',(#1733),#1738,.T.);
#1740=CARTESIAN_POINT('',(132.62392,-3.33781,632.));
#1741=VERTEX_POINT('',#1740);
#1742=DIRECTION('',(0.33028,0.94388,0.));
#1743=VECTOR('',#1742,3.35893);
#1744=LINE('',#1712,#1743);
#1745=EDGE_CURVE('',#1713,#1741,#1744,.T.);
#1746=ORIENTED_EDGE('',*,*,#1745,.T.);
#1747=CARTESIAN_POINT('',(132.62392,-3.33781,638.));
#1748=VERTEX_POINT('',#1747);
#1749=DIRECTION('',(0.,0.,1.));
#1750=VECTOR('',#1749,6.);
#1751=LINE('',#1740,#1750);
#1752=EDGE_CURVE('',#1741,#1748,#1751,.T.);
#1753=ORIENTED_EDGE('',*,*,#1752,.T.);
#1754=DIRECTION('',(0.33028,0.94388,0.));
#1755=VECTOR('',#1754,3.35893);
#1756=LINE('',#1719,#1755);
#1757=EDGE_CURVE('',#1720,#1748,#1756,.T.);
#1758=ORIENTED_EDGE('',*,*,#1757,.F.);
#1759=ORIENTED_EDGE('',*,*,#1724,.F.);
#1760=EDGE_LOOP('',(#1746,#1753,#1758,#1759));
#1761=FACE_OUTER_BOUND('',#1760,.T.);
#1762=CARTESIAN_POINT('',(131.51453,-6.50826,632.));
#1763=DIRECTION('',(0.94388,-0.33028,0.));
#1764=DIRECTION('',(0.33028,0.94388,0.));
#1765=AXIS2_PLACEMENT_3D('',#1762,#1763,#1764);
#1766=PLANE('',#1765);
#1767=ADVANCED_FACE('',(#1761),#1766,.T.);
#1768=DIRECTION('',(-0.11196,-0.99371,0.));
#1769=VECTOR('',#1768,3.35893);
#1770=LINE('',#1004,#1769);
#1771=EDGE_CURVE('',#1005,#1741,#1770,.T.);
#1772=ORIENTED_EDGE('',*,*,#1771,.F.);
#1773=ORIENTED_EDGE('',*,*,#1030,.T.);
#1774=DIRECTION('',(-0.11196,-0.99371,0.));
#1775=VECTOR('',#1774,3.35893);
#1776=LINE('',#1020,#1775);
#1777=EDGE_CURVE('',#1021,#1748,#1776,.T.);
#1778=ORIENTED_EDGE('',*,*,#1777,.T.);
#1779=ORIENTED_EDGE('',*,*,#1752,.F.);
#1780=EDGE_LOOP('',(#1772,#1773,#1778,#1779));
#1781=FACE_OUTER_BOUND('',#1780,.T.);
#1782=CARTESIAN_POINT('',(132.62392,-3.33781,632.));
#1783=DIRECTION('',(0.99371,-0.11196,0.));
#1784=DIRECTION('',(0.11196,0.99371,0.));
#1785=AXIS2_PLACEMENT_3D('',#1782,#1783,#1784);
#1786=PLANE('',#1785);
#1787=ADVANCED_FACE('',(#1781),#1786,.T.);
#1788=ORIENTED_EDGE('',*,*,#1745,.F.);
#1789=ORIENTED_EDGE('',*,*,#1717,.F.);
#1790=ORIENTED_EDGE('',*,*,#1689,.F.);
#1791=ORIENTED_EDGE('',*,*,#1661,.F.);
#1792=ORIENTED_EDGE('',*,*,#1633,.F.);
#1793=ORIENTED_EDGE('',*,*,#1605,.F.);
#1794=ORIENTED_EDGE('',*,*,#1577,.F.);
#1795=ORIENTED_EDGE('',*,*,#1549,.F.);
#1796=ORIENTED_EDGE('',*,*,#1521,.F.);
#1797=ORIENTED_EDGE('',*,*,#1493,.F.);
#1798=ORIENTED_EDGE('',*,*,#1465,.F.);
#1799=ORIENTED_EDGE('',*,*,#1437,.F.);
#1800=ORIENTED_EDGE('',*,*,#1409,.F.);
#1801=ORIENTED_EDGE('',*,*,#1381,.F.);
#1802=ORIENTED_EDGE('',*,*,#1353,.F.);
#1803=ORIENTED_EDGE('',*,*,#1325,.F.);
#1804=ORIENTED_EDGE('',*,*,#1297,.F.);
#1805=ORIENTED_EDGE('',*,*,#1269,.F.);
#1806=ORIENTED_EDGE('',*,*,#1241,.F.);
#1807=ORIENTED_EDGE('',*,*,#1213,.F.);
#1808=ORIENTED_EDGE('',*,*,#1185,.F.);
#1809=ORIENTED_EDGE('',*,*,#1157,.F.);
#1810=ORIENTED_EDGE('',*,*,#1129,.F.);
#1811=ORIENTED_EDGE('',*,*,#1101,.F.);
#1812=ORIENTED_EDGE('',*,*,#1073,.F.);
#1813=ORIENTED_EDGE('',*,*,#1045,.F.);
#1814=ORIENTED_EDGE('',*,*,#1011,.F.);
#1815=ORIENTED_EDGE('',*,*,#1771,.T.);
#1816=EDGE_LOOP('',(#1788,#1789,#1790,#1791,#1792,#1793,#1794,#1795,#1796,#1797,#1798,#1799,#1800,#1801,#1802,#1803,#1804,#1805,#1806,#1807,#1808,#1809,#1810,#1811,#1812,#1813,#1814,#1815));
#1817=FACE_OUTER_BOUND('',#1816,.T.);
#1818=CARTESIAN_POINT('',(132.62392,-3.33781,632.));
#1819=DIRECTION('',(0.,0.,-1.));
#1820=DIRECTION('',(-0.33028,-0.94388,0.));
#1821=AXIS2_PLACEMENT_3D('',#1818,#1819,#1820);
#1822=PLANE('',#1821);
#1823=ADVANCED_FACE('',(#1817),#1822,.T.);
#1824=ORIENTED_EDGE('',*,*,#1025,.T.);
#1825=ORIENTED_EDGE('',*,*,#1057,.T.);
#1826=ORIENTED_EDGE('',*,*,#1085,.T.);
#1827=ORIENTED_EDGE('',*,*,#1113,.T.);
#1828=ORIENTED_EDGE('',*,*,#1141,.T.);
#1829=ORIENTED_EDGE('',*,*,#1169,.T.);
#1830=ORIENTED_EDGE('',*,*,#1197,.T.);
#1831=ORIENTED_EDGE('',*,*,#1225,.T.);
#1832=ORIENTED_EDGE('',*,*,#1253,.T.);
#1833=ORIENTED_EDGE('',*,*,#1281,.T.);
#1834=ORIENTED_EDGE('',*,*,#1309,.T.);
#1835=ORIENTED_EDGE('',*,*,#1337,.T.);
#1836=ORIENTED_EDGE('',*,*,#1365,.T.);
#1837=ORIENTED_EDGE('',*,*,#1393,.T.);
#1838=ORIENTED_EDGE('',*,*,#1421,.T.);
#1839=ORIENTED_EDGE('',*,*,#1449,.T.);
#1840=ORIENTED_EDGE('',*,*,#1477,.T.);
#1841=ORIENTED_EDGE('',*,*,#1505,.T.);
#1842=ORIENTED_EDGE('',*,*,#1533,.T.);
#1843=ORIENTED_EDGE('',*,*,#1561,.T.);
#1844=ORIENTED_EDGE('',*,*,#1589,.T.);
#1845=ORIENTED_EDGE('',*,*,#1617,.T.);
#1846=ORIENTED_EDGE('',*,*,#1645,.T.);
#1847=ORIENTED_EDGE('',*,*,#1673,.T.);
#1848=ORIENTED_EDGE('',*,*,#1701,.T.);
#1849=ORIENTED_EDGE('',*,*,#1729,.T.);
#1850=ORIENTED_EDGE('',*,*,#1757,.T.);
#1851=ORIENTED_EDGE('',*,*,#1777,.F.);
#1852=EDGE_LOOP('',(#1824,#1825,#1826,#1827,#1828,#1829,#1830,#1831,#1832,#1833,#1834,#1835,#1836,#1837,#1838,#1839,#1840,#1841,#1842,#1843,#1844,#1845,#1846,#1847,#1848,#1849,#1850,#1851));
#1853=FACE_OUTER_BOUND('',#1852,.T.);
#1854=CARTESIAN_POINT('',(133.,0.,638.));
#1855=DIRECTION('',(0.,0.,1.));
#1856=DIRECTION('',(-0.11196,0.99371,0.));
#1857=AXIS2_PLACEMENT_3D('',#1854,#1855,#1856);
#1858=PLANE('',#1857);
#1859=ADVANCED_FACE('',(#1853),#1858,.T.);
#1860=CLOSED_SHELL('',(#1039,#1067,#1095,#1123,#1151,#1179,#1207,#1235,#1263,#1291,#1319,#1347,#1375,#1403,#1431,#1459,#1487,#1515,#1543,#1571,#1599,#1627,#1655,#1683,#1711,#1739,#1767,#1787,#1823,#1859));
#1861=MANIFOLD_SOLID_BREP('',#1860);
#1862=STYLED_ITEM('color',(#1002),#1861);
#1863=ADVANCED_BREP_SHAPE_REPRESENTATION('',(#17,#995,#1861),#9);
#1864=SHAPE_DEFINITION_REPRESENTATION(#13,#1863);
#1865=MECHANICAL_DESIGN_GEOMETRIC_PRESENTATION_REPRESENTATION('',(#1003,#1862),#9);
#1866=PRODUCT_RELATED_PRODUCT_CATEGORY('part',$,(#10));
ENDSEC;
END-ISO-10303-21;
