ISO-10303-21;
HEADER;
FILE_DESCRIPTION(('AquaSentinel R3 - planar B-rep export'),'2;1');
FILE_NAME('Roller axle M10 + nyloc nuts','2026-10-04T21:49:42',('AquaSentinel team'),('Sanjivani University'),'AquaSentinel R3 python build','AquaSentinel R3','');
FILE_SCHEMA(('AUTOMOTIVE_DESIGN { 1 0 10303 214 1 1 1 1 }'));
ENDSEC;
DATA;
#1=APPLICATION_CONTEXT('core data for automotive mechanical design processes');
#2=APPLICATION_PROTOCOL_DEFINITION('international standard','automotive_design',2000,#1);
#3=PRODUCT_CONTEXT('',#1,'mechanical');
#4=PRODUCT_DEFINITION_CONTEXT('part definition',#1,'design');
#5=(LENGTH_UNIT()NAMED_UNIT(*)SI_UNIT(.MILLI.,.METRE.));
#6=(NAMED_UNIT(*)PLANE_ANGLE_UNIT()SI_UNIT($,.RADIAN.));
#7=(NAMED_UNIT(*)SI_UNIT($,.STERADIAN.)SOLID_ANGLE_UNIT());
#8=UNCERTAINTY_MEASURE_WITH_UNIT(LENGTH_MEASURE(1.E-04),#5,'distance_accuracy_value','confusion accuracy');
#9=(GEOMETRIC_REPRESENTATION_CONTEXT(3)GLOBAL_UNCERTAINTY_ASSIGNED_CONTEXT((#8))GLOBAL_UNIT_ASSIGNED_CONTEXT((#5,#6,#7))REPRESENTATION_CONTEXT('Context','3D Context with UNIT and UNCERTAINTY'));
#10=PRODUCT('AS3-312','Roller axle M10 + nyloc nuts','',(#3));
#11=PRODUCT_DEFINITION_FORMATION('','',#10);
#12=PRODUCT_DEFINITION('design','',#11,#4);
#13=PRODUCT_DEFINITION_SHAPE('','',#12);
#14=CARTESIAN_POINT('',(0.,0.,0.));
#15=DIRECTION('',(0.,0.,1.));
#16=DIRECTION('',(1.,0.,0.));
#17=AXIS2_PLACEMENT_3D('',#14,#15,#16);
#18=CARTESIAN_POINT('',(5.,0.,-33.));
#19=VERTEX_POINT('',#18);
#20=CARTESIAN_POINT('',(4.75528,1.54508,-33.));
#21=VERTEX_POINT('',#20);
#22=DIRECTION('',(-0.15643,0.98769,0.));
#23=VECTOR('',#22,1.56434);
#24=LINE('',#18,#23);
#25=EDGE_CURVE('',#19,#21,#24,.T.);
#26=ORIENTED_EDGE('',*,*,#25,.T.);
#27=CARTESIAN_POINT('',(4.75528,1.54508,33.));
#28=VERTEX_POINT('',#27);
#29=DIRECTION('',(0.,0.,1.));
#30=VECTOR('',#29,66.);
#31=LINE('',#20,#30);
#32=EDGE_CURVE('',#21,#28,#31,.T.);
#33=ORIENTED_EDGE('',*,*,#32,.T.);
#34=CARTESIAN_POINT('',(5.,0.,33.));
#35=VERTEX_POINT('',#34);
#36=DIRECTION('',(-0.15643,0.98769,0.));
#37=VECTOR('',#36,1.56434);
#38=LINE('',#34,#37);
#39=EDGE_CURVE('',#35,#28,#38,.T.);
#40=ORIENTED_EDGE('',*,*,#39,.F.);
#41=DIRECTION('',(0.,0.,1.));
#42=VECTOR('',#41,66.);
#43=LINE('',#18,#42);
#44=EDGE_CURVE('',#19,#35,#43,.T.);
#45=ORIENTED_EDGE('',*,*,#44,.F.);
#46=EDGE_LOOP('',(#26,#33,#40,#45));
#47=FACE_OUTER_BOUND('',#46,.T.);
#48=CARTESIAN_POINT('',(5.,0.,-33.));
#49=DIRECTION('',(0.98769,0.15643,0.));
#50=DIRECTION('',(-0.15643,0.98769,0.));
#51=AXIS2_PLACEMENT_3D('',#48,#49,#50);
#52=PLANE('',#51);
#53=ADVANCED_FACE('',(#47),#52,.T.);
#54=CARTESIAN_POINT('',(4.04508,2.93893,-33.));
#55=VERTEX_POINT('',#54);
#56=DIRECTION('',(-0.45399,0.89101,0.));
#57=VECTOR('',#56,1.56434);
#58=LINE('',#20,#57);
#59=EDGE_CURVE('',#21,#55,#58,.T.);
#60=ORIENTED_EDGE('',*,*,#59,.T.);
#61=CARTESIAN_POINT('',(4.04508,2.93893,33.));
#62=VERTEX_POINT('',#61);
#63=DIRECTION('',(0.,0.,1.));
#64=VECTOR('',#63,66.);
#65=LINE('',#54,#64);
#66=EDGE_CURVE('',#55,#62,#65,.T.);
#67=ORIENTED_EDGE('',*,*,#66,.T.);
#68=DIRECTION('',(-0.45399,0.89101,0.));
#69=VECTOR('',#68,1.56434);
#70=LINE('',#27,#69);
#71=EDGE_CURVE('',#28,#62,#70,.T.);
#72=ORIENTED_EDGE('',*,*,#71,.F.);
#73=ORIENTED_EDGE('',*,*,#32,.F.);
#74=EDGE_LOOP('',(#60,#67,#72,#73));
#75=FACE_OUTER_BOUND('',#74,.T.);
#76=CARTESIAN_POINT('',(4.75528,1.54508,-33.));
#77=DIRECTION('',(0.89101,0.45399,0.));
#78=DIRECTION('',(-0.45399,0.89101,0.));
#79=AXIS2_PLACEMENT_3D('',#76,#77,#78);
#80=PLANE('',#79);
#81=ADVANCED_FACE('',(#75),#80,.T.);
#82=CARTESIAN_POINT('',(2.93893,4.04508,-33.));
#83=VERTEX_POINT('',#82);
#84=DIRECTION('',(-0.70711,0.70711,0.));
#85=VECTOR('',#84,1.56434);
#86=LINE('',#54,#85);
#87=EDGE_CURVE('',#55,#83,#86,.T.);
#88=ORIENTED_EDGE('',*,*,#87,.T.);
#89=CARTESIAN_POINT('',(2.93893,4.04508,33.));
#90=VERTEX_POINT('',#89);
#91=DIRECTION('',(0.,0.,1.));
#92=VECTOR('',#91,66.);
#93=LINE('',#82,#92);
#94=EDGE_CURVE('',#83,#90,#93,.T.);
#95=ORIENTED_EDGE('',*,*,#94,.T.);
#96=DIRECTION('',(-0.70711,0.70711,0.));
#97=VECTOR('',#96,1.56434);
#98=LINE('',#61,#97);
#99=EDGE_CURVE('',#62,#90,#98,.T.);
#100=ORIENTED_EDGE('',*,*,#99,.F.);
#101=ORIENTED_EDGE('',*,*,#66,.F.);
#102=EDGE_LOOP('',(#88,#95,#100,#101));
#103=FACE_OUTER_BOUND('',#102,.T.);
#104=CARTESIAN_POINT('',(4.04508,2.93893,-33.));
#105=DIRECTION('',(0.70711,0.70711,0.));
#106=DIRECTION('',(-0.70711,0.70711,0.));
#107=AXIS2_PLACEMENT_3D('',#104,#105,#106);
#108=PLANE('',#107);
#109=ADVANCED_FACE('',(#103),#108,.T.);
#110=CARTESIAN_POINT('',(1.54508,4.75528,-33.));
#111=VERTEX_POINT('',#110);
#112=DIRECTION('',(-0.89101,0.45399,0.));
#113=VECTOR('',#112,1.56434);
#114=LINE('',#82,#113);
#115=EDGE_CURVE('',#83,#111,#114,.T.);
#116=ORIENTED_EDGE('',*,*,#115,.T.);
#117=CARTESIAN_POINT('',(1.54508,4.75528,33.));
#118=VERTEX_POINT('',#117);
#119=DIRECTION('',(0.,0.,1.));
#120=VECTOR('',#119,66.);
#121=LINE('',#110,#120);
#122=EDGE_CURVE('',#111,#118,#121,.T.);
#123=ORIENTED_EDGE('',*,*,#122,.T.);
#124=DIRECTION('',(-0.89101,0.45399,0.));
#125=VECTOR('',#124,1.56434);
#126=LINE('',#89,#125);
#127=EDGE_CURVE('',#90,#118,#126,.T.);
#128=ORIENTED_EDGE('',*,*,#127,.F.);
#129=ORIENTED_EDGE('',*,*,#94,.F.);
#130=EDGE_LOOP('',(#116,#123,#128,#129));
#131=FACE_OUTER_BOUND('',#130,.T.);
#132=CARTESIAN_POINT('',(2.93893,4.04508,-33.));
#133=DIRECTION('',(0.45399,0.89101,0.));
#134=DIRECTION('',(-0.89101,0.45399,0.));
#135=AXIS2_PLACEMENT_3D('',#132,#133,#134);
#136=PLANE('',#135);
#137=ADVANCED_FACE('',(#131),#136,.T.);
#138=CARTESIAN_POINT('',(0.,5.,-33.));
#139=VERTEX_POINT('',#138);
#140=DIRECTION('',(-0.98769,0.15643,0.));
#141=VECTOR('',#140,1.56434);
#142=LINE('',#110,#141);
#143=EDGE_CURVE('',#111,#139,#142,.T.);
#144=ORIENTED_EDGE('',*,*,#143,.T.);
#145=CARTESIAN_POINT('',(0.,5.,33.));
#146=VERTEX_POINT('',#145);
#147=DIRECTION('',(0.,0.,1.));
#148=VECTOR('',#147,66.);
#149=LINE('',#138,#148);
#150=EDGE_CURVE('',#139,#146,#149,.T.);
#151=ORIENTED_EDGE('',*,*,#150,.T.);
#152=DIRECTION('',(-0.98769,0.15643,0.));
#153=VECTOR('',#152,1.56434);
#154=LINE('',#117,#153);
#155=EDGE_CURVE('',#118,#146,#154,.T.);
#156=ORIENTED_EDGE('',*,*,#155,.F.);
#157=ORIENTED_EDGE('',*,*,#122,.F.);
#158=EDGE_LOOP('',(#144,#151,#156,#157));
#159=FACE_OUTER_BOUND('',#158,.T.);
#160=CARTESIAN_POINT('',(1.54508,4.75528,-33.));
#161=DIRECTION('',(0.15643,0.98769,0.));
#162=DIRECTION('',(-0.98769,0.15643,0.));
#163=AXIS2_PLACEMENT_3D('',#160,#161,#162);
#164=PLANE('',#163);
#165=ADVANCED_FACE('',(#159),#164,.T.);
#166=CARTESIAN_POINT('',(-1.54508,4.75528,-33.));
#167=VERTEX_POINT('',#166);
#168=DIRECTION('',(-0.98769,-0.15643,0.));
#169=VECTOR('',#168,1.56434);
#170=LINE('',#138,#169);
#171=EDGE_CURVE('',#139,#167,#170,.T.);
#172=ORIENTED_EDGE('',*,*,#171,.T.);
#173=CARTESIAN_POINT('',(-1.54508,4.75528,33.));
#174=VERTEX_POINT('',#173);
#175=DIRECTION('',(0.,0.,1.));
#176=VECTOR('',#175,66.);
#177=LINE('',#166,#176);
#178=EDGE_CURVE('',#167,#174,#177,.T.);
#179=ORIENTED_EDGE('',*,*,#178,.T.);
#180=DIRECTION('',(-0.98769,-0.15643,0.));
#181=VECTOR('',#180,1.56434);
#182=LINE('',#145,#181);
#183=EDGE_CURVE('',#146,#174,#182,.T.);
#184=ORIENTED_EDGE('',*,*,#183,.F.);
#185=ORIENTED_EDGE('',*,*,#150,.F.);
#186=EDGE_LOOP('',(#172,#179,#184,#185));
#187=FACE_OUTER_BOUND('',#186,.T.);
#188=CARTESIAN_POINT('',(0.,5.,-33.));
#189=DIRECTION('',(-0.15643,0.98769,0.));
#190=DIRECTION('',(-0.98769,-0.15643,0.));
#191=AXIS2_PLACEMENT_3D('',#188,#189,#190);
#192=PLANE('',#191);
#193=ADVANCED_FACE('',(#187),#192,.T.);
#194=CARTESIAN_POINT('',(-2.93893,4.04508,-33.));
#195=VERTEX_POINT('',#194);
#196=DIRECTION('',(-0.89101,-0.45399,0.));
#197=VECTOR('',#196,1.56434);
#198=LINE('',#166,#197);
#199=EDGE_CURVE('',#167,#195,#198,.T.);
#200=ORIENTED_EDGE('',*,*,#199,.T.);
#201=CARTESIAN_POINT('',(-2.93893,4.04508,33.));
#202=VERTEX_POINT('',#201);
#203=DIRECTION('',(0.,0.,1.));
#204=VECTOR('',#203,66.);
#205=LINE('',#194,#204);
#206=EDGE_CURVE('',#195,#202,#205,.T.);
#207=ORIENTED_EDGE('',*,*,#206,.T.);
#208=DIRECTION('',(-0.89101,-0.45399,0.));
#209=VECTOR('',#208,1.56434);
#210=LINE('',#173,#209);
#211=EDGE_CURVE('',#174,#202,#210,.T.);
#212=ORIENTED_EDGE('',*,*,#211,.F.);
#213=ORIENTED_EDGE('',*,*,#178,.F.);
#214=EDGE_LOOP('',(#200,#207,#212,#213));
#215=FACE_OUTER_BOUND('',#214,.T.);
#216=CARTESIAN_POINT('',(-1.54508,4.75528,-33.));
#217=DIRECTION('',(-0.45399,0.89101,0.));
#218=DIRECTION('',(-0.89101,-0.45399,0.));
#219=AXIS2_PLACEMENT_3D('',#216,#217,#218);
#220=PLANE('',#219);
#221=ADVANCED_FACE('',(#215),#220,.T.);
#222=CARTESIAN_POINT('',(-4.04508,2.93893,-33.));
#223=VERTEX_POINT('',#222);
#224=DIRECTION('',(-0.70711,-0.70711,0.));
#225=VECTOR('',#224,1.56434);
#226=LINE('',#194,#225);
#227=EDGE_CURVE('',#195,#223,#226,.T.);
#228=ORIENTED_EDGE('',*,*,#227,.T.);
#229=CARTESIAN_POINT('',(-4.04508,2.93893,33.));
#230=VERTEX_POINT('',#229);
#231=DIRECTION('',(0.,0.,1.));
#232=VECTOR('',#231,66.);
#233=LINE('',#222,#232);
#234=EDGE_CURVE('',#223,#230,#233,.T.);
#235=ORIENTED_EDGE('',*,*,#234,.T.);
#236=DIRECTION('',(-0.70711,-0.70711,0.));
#237=VECTOR('',#236,1.56434);
#238=LINE('',#201,#237);
#239=EDGE_CURVE('',#202,#230,#238,.T.);
#240=ORIENTED_EDGE('',*,*,#239,.F.);
#241=ORIENTED_EDGE('',*,*,#206,.F.);
#242=EDGE_LOOP('',(#228,#235,#240,#241));
#243=FACE_OUTER_BOUND('',#242,.T.);
#244=CARTESIAN_POINT('',(-2.93893,4.04508,-33.));
#245=DIRECTION('',(-0.70711,0.70711,0.));
#246=DIRECTION('',(-0.70711,-0.70711,0.));
#247=AXIS2_PLACEMENT_3D('',#244,#245,#246);
#248=PLANE('',#247);
#249=ADVANCED_FACE('',(#243),#248,.T.);
#250=CARTESIAN_POINT('',(-4.75528,1.54508,-33.));
#251=VERTEX_POINT('',#250);
#252=DIRECTION('',(-0.45399,-0.89101,0.));
#253=VECTOR('',#252,1.56434);
#254=LINE('',#222,#253);
#255=EDGE_CURVE('',#223,#251,#254,.T.);
#256=ORIENTED_EDGE('',*,*,#255,.T.);
#257=CARTESIAN_POINT('',(-4.75528,1.54508,33.));
#258=VERTEX_POINT('',#257);
#259=DIRECTION('',(0.,0.,1.));
#260=VECTOR('',#259,66.);
#261=LINE('',#250,#260);
#262=EDGE_CURVE('',#251,#258,#261,.T.);
#263=ORIENTED_EDGE('',*,*,#262,.T.);
#264=DIRECTION('',(-0.45399,-0.89101,0.));
#265=VECTOR('',#264,1.56434);
#266=LINE('',#229,#265);
#267=EDGE_CURVE('',#230,#258,#266,.T.);
#268=ORIENTED_EDGE('',*,*,#267,.F.);
#269=ORIENTED_EDGE('',*,*,#234,.F.);
#270=EDGE_LOOP('',(#256,#263,#268,#269));
#271=FACE_OUTER_BOUND('',#270,.T.);
#272=CARTESIAN_POINT('',(-4.04508,2.93893,-33.));
#273=DIRECTION('',(-0.89101,0.45399,0.));
#274=DIRECTION('',(-0.45399,-0.89101,0.));
#275=AXIS2_PLACEMENT_3D('',#272,#273,#274);
#276=PLANE('',#275);
#277=ADVANCED_FACE('',(#271),#276,.T.);
#278=CARTESIAN_POINT('',(-5.,0.,-33.));
#279=VERTEX_POINT('',#278);
#280=DIRECTION('',(-0.15643,-0.98769,0.));
#281=VECTOR('',#280,1.56434);
#282=LINE('',#250,#281);
#283=EDGE_CURVE('',#251,#279,#282,.T.);
#284=ORIENTED_EDGE('',*,*,#283,.T.);
#285=CARTESIAN_POINT('',(-5.,0.,33.));
#286=VERTEX_POINT('',#285);
#287=DIRECTION('',(0.,0.,1.));
#288=VECTOR('',#287,66.);
#289=LINE('',#278,#288);
#290=EDGE_CURVE('',#279,#286,#289,.T.);
#291=ORIENTED_EDGE('',*,*,#290,.T.);
#292=DIRECTION('',(-0.15643,-0.98769,0.));
#293=VECTOR('',#292,1.56434);
#294=LINE('',#257,#293);
#295=EDGE_CURVE('',#258,#286,#294,.T.);
#296=ORIENTED_EDGE('',*,*,#295,.F.);
#297=ORIENTED_EDGE('',*,*,#262,.F.);
#298=EDGE_LOOP('',(#284,#291,#296,#297));
#299=FACE_OUTER_BOUND('',#298,.T.);
#300=CARTESIAN_POINT('',(-4.75528,1.54508,-33.));
#301=DIRECTION('',(-0.98769,0.15643,0.));
#302=DIRECTION('',(-0.15643,-0.98769,0.));
#303=AXIS2_PLACEMENT_3D('',#300,#301,#302);
#304=PLANE('',#303);
#305=ADVANCED_FACE('',(#299),#304,.T.);
#306=CARTESIAN_POINT('',(-4.75528,-1.54508,-33.));
#307=VERTEX_POINT('',#306);
#308=DIRECTION('',(0.15643,-0.98769,0.));
#309=VECTOR('',#308,1.56434);
#310=LINE('',#278,#309);
#311=EDGE_CURVE('',#279,#307,#310,.T.);
#312=ORIENTED_EDGE('',*,*,#311,.T.);
#313=CARTESIAN_POINT('',(-4.75528,-1.54508,33.));
#314=VERTEX_POINT('',#313);
#315=DIRECTION('',(0.,0.,1.));
#316=VECTOR('',#315,66.);
#317=LINE('',#306,#316);
#318=EDGE_CURVE('',#307,#314,#317,.T.);
#319=ORIENTED_EDGE('',*,*,#318,.T.);
#320=DIRECTION('',(0.15643,-0.98769,0.));
#321=VECTOR('',#320,1.56434);
#322=LINE('',#285,#321);
#323=EDGE_CURVE('',#286,#314,#322,.T.);
#324=ORIENTED_EDGE('',*,*,#323,.F.);
#325=ORIENTED_EDGE('',*,*,#290,.F.);
#326=EDGE_LOOP('',(#312,#319,#324,#325));
#327=FACE_OUTER_BOUND('',#326,.T.);
#328=CARTESIAN_POINT('',(-5.,0.,-33.));
#329=DIRECTION('',(-0.98769,-0.15643,0.));
#330=DIRECTION('',(0.15643,-0.98769,0.));
#331=AXIS2_PLACEMENT_3D('',#328,#329,#330);
#332=PLANE('',#331);
#333=ADVANCED_FACE('',(#327),#332,.T.);
#334=CARTESIAN_POINT('',(-4.04508,-2.93893,-33.));
#335=VERTEX_POINT('',#334);
#336=DIRECTION('',(0.45399,-0.89101,0.));
#337=VECTOR('',#336,1.56434);
#338=LINE('',#306,#337);
#339=EDGE_CURVE('',#307,#335,#338,.T.);
#340=ORIENTED_EDGE('',*,*,#339,.T.);
#341=CARTESIAN_POINT('',(-4.04508,-2.93893,33.));
#342=VERTEX_POINT('',#341);
#343=DIRECTION('',(0.,0.,1.));
#344=VECTOR('',#343,66.);
#345=LINE('',#334,#344);
#346=EDGE_CURVE('',#335,#342,#345,.T.);
#347=ORIENTED_EDGE('',*,*,#346,.T.);
#348=DIRECTION('',(0.45399,-0.89101,0.));
#349=VECTOR('',#348,1.56434);
#350=LINE('',#313,#349);
#351=EDGE_CURVE('',#314,#342,#350,.T.);
#352=ORIENTED_EDGE('',*,*,#351,.F.);
#353=ORIENTED_EDGE('',*,*,#318,.F.);
#354=EDGE_LOOP('',(#340,#347,#352,#353));
#355=FACE_OUTER_BOUND('',#354,.T.);
#356=CARTESIAN_POINT('',(-4.75528,-1.54508,-33.));
#357=DIRECTION('',(-0.89101,-0.45399,0.));
#358=DIRECTION('',(0.45399,-0.89101,0.));
#359=AXIS2_PLACEMENT_3D('',#356,#357,#358);
#360=PLANE('',#359);
#361=ADVANCED_FACE('',(#355),#360,.T.);
#362=CARTESIAN_POINT('',(-2.93893,-4.04508,-33.));
#363=VERTEX_POINT('',#362);
#364=DIRECTION('',(0.70711,-0.70711,0.));
#365=VECTOR('',#364,1.56434);
#366=LINE('',#334,#365);
#367=EDGE_CURVE('',#335,#363,#366,.T.);
#368=ORIENTED_EDGE('',*,*,#367,.T.);
#369=CARTESIAN_POINT('',(-2.93893,-4.04508,33.));
#370=VERTEX_POINT('',#369);
#371=DIRECTION('',(0.,0.,1.));
#372=VECTOR('',#371,66.);
#373=LINE('',#362,#372);
#374=EDGE_CURVE('',#363,#370,#373,.T.);
#375=ORIENTED_EDGE('',*,*,#374,.T.);
#376=DIRECTION('',(0.70711,-0.70711,0.));
#377=VECTOR('',#376,1.56434);
#378=LINE('',#341,#377);
#379=EDGE_CURVE('',#342,#370,#378,.T.);
#380=ORIENTED_EDGE('',*,*,#379,.F.);
#381=ORIENTED_EDGE('',*,*,#346,.F.);
#382=EDGE_LOOP('',(#368,#375,#380,#381));
#383=FACE_OUTER_BOUND('',#382,.T.);
#384=CARTESIAN_POINT('',(-4.04508,-2.93893,-33.));
#385=DIRECTION('',(-0.70711,-0.70711,0.));
#386=DIRECTION('',(0.70711,-0.70711,0.));
#387=AXIS2_PLACEMENT_3D('',#384,#385,#386);
#388=PLANE('',#387);
#389=ADVANCED_FACE('',(#383),#388,.T.);
#390=CARTESIAN_POINT('',(-1.54508,-4.75528,-33.));
#391=VERTEX_POINT('',#390);
#392=DIRECTION('',(0.89101,-0.45399,0.));
#393=VECTOR('',#392,1.56434);
#394=LINE('',#362,#393);
#395=EDGE_CURVE('',#363,#391,#394,.T.);
#396=ORIENTED_EDGE('',*,*,#395,.T.);
#397=CARTESIAN_POINT('',(-1.54508,-4.75528,33.));
#398=VERTEX_POINT('',#397);
#399=DIRECTION('',(0.,0.,1.));
#400=VECTOR('',#399,66.);
#401=LINE('',#390,#400);
#402=EDGE_CURVE('',#391,#398,#401,.T.);
#403=ORIENTED_EDGE('',*,*,#402,.T.);
#404=DIRECTION('',(0.89101,-0.45399,0.));
#405=VECTOR('',#404,1.56434);
#406=LINE('',#369,#405);
#407=EDGE_CURVE('',#370,#398,#406,.T.);
#408=ORIENTED_EDGE('',*,*,#407,.F.);
#409=ORIENTED_EDGE('',*,*,#374,.F.);
#410=EDGE_LOOP('',(#396,#403,#408,#409));
#411=FACE_OUTER_BOUND('',#410,.T.);
#412=CARTESIAN_POINT('',(-2.93893,-4.04508,-33.));
#413=DIRECTION('',(-0.45399,-0.89101,0.));
#414=DIRECTION('',(0.89101,-0.45399,0.));
#415=AXIS2_PLACEMENT_3D('',#412,#413,#414);
#416=PLANE('',#415);
#417=ADVANCED_FACE('',(#411),#416,.T.);
#418=CARTESIAN_POINT('',(0.,-5.,-33.));
#419=VERTEX_POINT('',#418);
#420=DIRECTION('',(0.98769,-0.15643,0.));
#421=VECTOR('',#420,1.56434);
#422=LINE('',#390,#421);
#423=EDGE_CURVE('',#391,#419,#422,.T.);
#424=ORIENTED_EDGE('',*,*,#423,.T.);
#425=CARTESIAN_POINT('',(0.,-5.,33.));
#426=VERTEX_POINT('',#425);
#427=DIRECTION('',(0.,0.,1.));
#428=VECTOR('',#427,66.);
#429=LINE('',#418,#428);
#430=EDGE_CURVE('',#419,#426,#429,.T.);
#431=ORIENTED_EDGE('',*,*,#430,.T.);
#432=DIRECTION('',(0.98769,-0.15643,0.));
#433=VECTOR('',#432,1.56434);
#434=LINE('',#397,#433);
#435=EDGE_CURVE('',#398,#426,#434,.T.);
#436=ORIENTED_EDGE('',*,*,#435,.F.);
#437=ORIENTED_EDGE('',*,*,#402,.F.);
#438=EDGE_LOOP('',(#424,#431,#436,#437));
#439=FACE_OUTER_BOUND('',#438,.T.);
#440=CARTESIAN_POINT('',(-1.54508,-4.75528,-33.));
#441=DIRECTION('',(-0.15643,-0.98769,0.));
#442=DIRECTION('',(0.98769,-0.15643,0.));
#443=AXIS2_PLACEMENT_3D('',#440,#441,#442);
#444=PLANE('',#443);
#445=ADVANCED_FACE('',(#439),#444,.T.);
#446=CARTESIAN_POINT('',(1.54508,-4.75528,-33.));
#447=VERTEX_POINT('',#446);
#448=DIRECTION('',(0.98769,0.15643,0.));
#449=VECTOR('',#448,1.56434);
#450=LINE('',#418,#449);
#451=EDGE_CURVE('',#419,#447,#450,.T.);
#452=ORIENTED_EDGE('',*,*,#451,.T.);
#453=CARTESIAN_POINT('',(1.54508,-4.75528,33.));
#454=VERTEX_POINT('',#453);
#455=DIRECTION('',(0.,0.,1.));
#456=VECTOR('',#455,66.);
#457=LINE('',#446,#456);
#458=EDGE_CURVE('',#447,#454,#457,.T.);
#459=ORIENTED_EDGE('',*,*,#458,.T.);
#460=DIRECTION('',(0.98769,0.15643,0.));
#461=VECTOR('',#460,1.56434);
#462=LINE('',#425,#461);
#463=EDGE_CURVE('',#426,#454,#462,.T.);
#464=ORIENTED_EDGE('',*,*,#463,.F.);
#465=ORIENTED_EDGE('',*,*,#430,.F.);
#466=EDGE_LOOP('',(#452,#459,#464,#465));
#467=FACE_OUTER_BOUND('',#466,.T.);
#468=CARTESIAN_POINT('',(0.,-5.,-33.));
#469=DIRECTION('',(0.15643,-0.98769,0.));
#470=DIRECTION('',(0.98769,0.15643,0.));
#471=AXIS2_PLACEMENT_3D('',#468,#469,#470);
#472=PLANE('',#471);
#473=ADVANCED_FACE('',(#467),#472,.T.);
#474=CARTESIAN_POINT('',(2.93893,-4.04508,-33.));
#475=VERTEX_POINT('',#474);
#476=DIRECTION('',(0.89101,0.45399,0.));
#477=VECTOR('',#476,1.56434);
#478=LINE('',#446,#477);
#479=EDGE_CURVE('',#447,#475,#478,.T.);
#480=ORIENTED_EDGE('',*,*,#479,.T.);
#481=CARTESIAN_POINT('',(2.93893,-4.04508,33.));
#482=VERTEX_POINT('',#481);
#483=DIRECTION('',(0.,0.,1.));
#484=VECTOR('',#483,66.);
#485=LINE('',#474,#484);
#486=EDGE_CURVE('',#475,#482,#485,.T.);
#487=ORIENTED_EDGE('',*,*,#486,.T.);
#488=DIRECTION('',(0.89101,0.45399,0.));
#489=VECTOR('',#488,1.56434);
#490=LINE('',#453,#489);
#491=EDGE_CURVE('',#454,#482,#490,.T.);
#492=ORIENTED_EDGE('',*,*,#491,.F.);
#493=ORIENTED_EDGE('',*,*,#458,.F.);
#494=EDGE_LOOP('',(#480,#487,#492,#493));
#495=FACE_OUTER_BOUND('',#494,.T.);
#496=CARTESIAN_POINT('',(1.54508,-4.75528,-33.));
#497=DIRECTION('',(0.45399,-0.89101,0.));
#498=DIRECTION('',(0.89101,0.45399,0.));
#499=AXIS2_PLACEMENT_3D('',#496,#497,#498);
#500=PLANE('',#499);
#501=ADVANCED_FACE('',(#495),#500,.T.);
#502=CARTESIAN_POINT('',(4.04508,-2.93893,-33.));
#503=VERTEX_POINT('',#502);
#504=DIRECTION('',(0.70711,0.70711,0.));
#505=VECTOR('',#504,1.56434);
#506=LINE('',#474,#505);
#507=EDGE_CURVE('',#475,#503,#506,.T.);
#508=ORIENTED_EDGE('',*,*,#507,.T.);
#509=CARTESIAN_POINT('',(4.04508,-2.93893,33.));
#510=VERTEX_POINT('',#509);
#511=DIRECTION('',(0.,0.,1.));
#512=VECTOR('',#511,66.);
#513=LINE('',#502,#512);
#514=EDGE_CURVE('',#503,#510,#513,.T.);
#515=ORIENTED_EDGE('',*,*,#514,.T.);
#516=DIRECTION('',(0.70711,0.70711,0.));
#517=VECTOR('',#516,1.56434);
#518=LINE('',#481,#517);
#519=EDGE_CURVE('',#482,#510,#518,.T.);
#520=ORIENTED_EDGE('',*,*,#519,.F.);
#521=ORIENTED_EDGE('',*,*,#486,.F.);
#522=EDGE_LOOP('',(#508,#515,#520,#521));
#523=FACE_OUTER_BOUND('',#522,.T.);
#524=CARTESIAN_POINT('',(2.93893,-4.04508,-33.));
#525=DIRECTION('',(0.70711,-0.70711,0.));
#526=DIRECTION('',(0.70711,0.70711,0.));
#527=AXIS2_PLACEMENT_3D('',#524,#525,#526);
#528=PLANE('',#527);
#529=ADVANCED_FACE('',(#523),#528,.T.);
#530=CARTESIAN_POINT('',(4.75528,-1.54508,-33.));
#531=VERTEX_POINT('',#530);
#532=DIRECTION('',(0.45399,0.89101,0.));
#533=VECTOR('',#532,1.56434);
#534=LINE('',#502,#533);
#535=EDGE_CURVE('',#503,#531,#534,.T.);
#536=ORIENTED_EDGE('',*,*,#535,.T.);
#537=CARTESIAN_POINT('',(4.75528,-1.54508,33.));
#538=VERTEX_POINT('',#537);
#539=DIRECTION('',(0.,0.,1.));
#540=VECTOR('',#539,66.);
#541=LINE('',#530,#540);
#542=EDGE_CURVE('',#531,#538,#541,.T.);
#543=ORIENTED_EDGE('',*,*,#542,.T.);
#544=DIRECTION('',(0.45399,0.89101,0.));
#545=VECTOR('',#544,1.56434);
#546=LINE('',#509,#545);
#547=EDGE_CURVE('',#510,#538,#546,.T.);
#548=ORIENTED_EDGE('',*,*,#547,.F.);
#549=ORIENTED_EDGE('',*,*,#514,.F.);
#550=EDGE_LOOP('',(#536,#543,#548,#549));
#551=FACE_OUTER_BOUND('',#550,.T.);
#552=CARTESIAN_POINT('',(4.04508,-2.93893,-33.));
#553=DIRECTION('',(0.89101,-0.45399,0.));
#554=DIRECTION('',(0.45399,0.89101,0.));
#555=AXIS2_PLACEMENT_3D('',#552,#553,#554);
#556=PLANE('',#555);
#557=ADVANCED_FACE('',(#551),#556,.T.);
#558=DIRECTION('',(-0.15643,-0.98769,0.));
#559=VECTOR('',#558,1.56434);
#560=LINE('',#18,#559);
#561=EDGE_CURVE('',#19,#531,#560,.T.);
#562=ORIENTED_EDGE('',*,*,#561,.F.);
#563=ORIENTED_EDGE('',*,*,#44,.T.);
#564=DIRECTION('',(-0.15643,-0.98769,0.));
#565=VECTOR('',#564,1.56434);
#566=LINE('',#34,#565);
#567=EDGE_CURVE('',#35,#538,#566,.T.);
#568=ORIENTED_EDGE('',*,*,#567,.T.);
#569=ORIENTED_EDGE('',*,*,#542,.F.);
#570=EDGE_LOOP('',(#562,#563,#568,#569));
#571=FACE_OUTER_BOUND('',#570,.T.);
#572=CARTESIAN_POINT('',(4.75528,-1.54508,-33.));
#573=DIRECTION('',(0.98769,-0.15643,0.));
#574=DIRECTION('',(0.15643,0.98769,0.));
#575=AXIS2_PLACEMENT_3D('',#572,#573,#574);
#576=PLANE('',#575);
#577=ADVANCED_FACE('',(#571),#576,.T.);
#578=ORIENTED_EDGE('',*,*,#535,.F.);
#579=ORIENTED_EDGE('',*,*,#507,.F.);
#580=ORIENTED_EDGE('',*,*,#479,.F.);
#581=ORIENTED_EDGE('',*,*,#451,.F.);
#582=ORIENTED_EDGE('',*,*,#423,.F.);
#583=ORIENTED_EDGE('',*,*,#395,.F.);
#584=ORIENTED_EDGE('',*,*,#367,.F.);
#585=ORIENTED_EDGE('',*,*,#339,.F.);
#586=ORIENTED_EDGE('',*,*,#311,.F.);
#587=ORIENTED_EDGE('',*,*,#283,.F.);
#588=ORIENTED_EDGE('',*,*,#255,.F.);
#589=ORIENTED_EDGE('',*,*,#227,.F.);
#590=ORIENTED_EDGE('',*,*,#199,.F.);
#591=ORIENTED_EDGE('',*,*,#171,.F.);
#592=ORIENTED_EDGE('',*,*,#143,.F.);
#593=ORIENTED_EDGE('',*,*,#115,.F.);
#594=ORIENTED_EDGE('',*,*,#87,.F.);
#595=ORIENTED_EDGE('',*,*,#59,.F.);
#596=ORIENTED_EDGE('',*,*,#25,.F.);
#597=ORIENTED_EDGE('',*,*,#561,.T.);
#598=EDGE_LOOP('',(#578,#579,#580,#581,#582,#583,#584,#585,#586,#587,#588,#589,#590,#591,#592,#593,#594,#595,#596,#597));
#599=FACE_OUTER_BOUND('',#598,.T.);
#600=CARTESIAN_POINT('',(4.75528,-1.54508,-33.));
#601=DIRECTION('',(0.,0.,-1.));
#602=DIRECTION('',(-0.45399,-0.89101,0.));
#603=AXIS2_PLACEMENT_3D('',#600,#601,#602);
#604=PLANE('',#603);
#605=ADVANCED_FACE('',(#599),#604,.T.);
#606=ORIENTED_EDGE('',*,*,#39,.T.);
#607=ORIENTED_EDGE('',*,*,#71,.T.);
#608=ORIENTED_EDGE('',*,*,#99,.T.);
#609=ORIENTED_EDGE('',*,*,#127,.T.);
#610=ORIENTED_EDGE('',*,*,#155,.T.);
#611=ORIENTED_EDGE('',*,*,#183,.T.);
#612=ORIENTED_EDGE('',*,*,#211,.T.);
#613=ORIENTED_EDGE('',*,*,#239,.T.);
#614=ORIENTED_EDGE('',*,*,#267,.T.);
#615=ORIENTED_EDGE('',*,*,#295,.T.);
#616=ORIENTED_EDGE('',*,*,#323,.T.);
#617=ORIENTED_EDGE('',*,*,#351,.T.);
#618=ORIENTED_EDGE('',*,*,#379,.T.);
#619=ORIENTED_EDGE('',*,*,#407,.T.);
#620=ORIENTED_EDGE('',*,*,#435,.T.);
#621=ORIENTED_EDGE('',*,*,#463,.T.);
#622=ORIENTED_EDGE('',*,*,#491,.T.);
#623=ORIENTED_EDGE('',*,*,#519,.T.);
#624=ORIENTED_EDGE('',*,*,#547,.T.);
#625=ORIENTED_EDGE('',*,*,#567,.F.);
#626=EDGE_LOOP('',(#606,#607,#608,#609,#610,#611,#612,#613,#614,#615,#616,#617,#618,#619,#620,#621,#622,#623,#624,#625));
#627=FACE_OUTER_BOUND('',#626,.T.);
#628=CARTESIAN_POINT('',(5.,0.,33.));
#629=DIRECTION('',(0.,0.,1.));
#630=DIRECTION('',(-0.15643,0.98769,0.));
#631=AXIS2_PLACEMENT_3D('',#628,#629,#630);
#632=PLANE('',#631);
#633=ADVANCED_FACE('',(#627),#632,.T.);
#634=CLOSED_SHELL('',(#53,#81,#109,#137,#165,#193,#221,#249,#277,#305,#333,#361,#389,#417,#445,#473,#501,#529,#557,#577,#605,#633));
#635=MANIFOLD_SOLID_BREP('',#634);
#636=COLOUR_RGB('',0.58,0.59,0.6);
#637=FILL_AREA_STYLE_COLOUR('',#636);
#638=FILL_AREA_STYLE('',(#637));
#639=SURFACE_STYLE_FILL_AREA(#638);
#640=SURFACE_SIDE_STYLE('',(#639));
#641=SURFACE_STYLE_USAGE(.BOTH.,#640);
#642=PRESENTATION_STYLE_ASSIGNMENT((#641));
#643=STYLED_ITEM('color',(#642),#635);
#644=CARTESIAN_POINT('',(8.,4.6188,28.));
#645=VERTEX_POINT('',#644);
#646=CARTESIAN_POINT('',(0.,9.2376,28.));
#647=VERTEX_POINT('',#646);
#648=DIRECTION('',(-0.86603,0.5,0.));
#649=VECTOR('',#648,9.2376);
#650=LINE('',#644,#649);
#651=EDGE_CURVE('',#645,#647,#650,.T.);
#652=ORIENTED_EDGE('',*,*,#651,.T.);
#653=CARTESIAN_POINT('',(0.,9.2376,35.));
#654=VERTEX_POINT('',#653);
#655=DIRECTION('',(0.,0.,1.));
#656=VECTOR('',#655,7.);
#657=LINE('',#646,#656);
#658=EDGE_CURVE('',#647,#654,#657,.T.);
#659=ORIENTED_EDGE('',*,*,#658,.T.);
#660=CARTESIAN_POINT('',(8.,4.6188,35.));
#661=VERTEX_POINT('',#660);
#662=DIRECTION('',(-0.86603,0.5,0.));
#663=VECTOR('',#662,9.2376);
#664=LINE('',#660,#663);
#665=EDGE_CURVE('',#661,#654,#664,.T.);
#666=ORIENTED_EDGE('',*,*,#665,.F.);
#667=DIRECTION('',(0.,0.,1.));
#668=VECTOR('',#667,7.);
#669=LINE('',#644,#668);
#670=EDGE_CURVE('',#645,#661,#669,.T.);
#671=ORIENTED_EDGE('',*,*,#670,.F.);
#672=EDGE_LOOP('',(#652,#659,#666,#671));
#673=FACE_OUTER_BOUND('',#672,.T.);
#674=CARTESIAN_POINT('',(8.,4.6188,28.));
#675=DIRECTION('',(0.5,0.86603,0.));
#676=DIRECTION('',(-0.86603,0.5,0.));
#677=AXIS2_PLACEMENT_3D('',#674,#675,#676);
#678=PLANE('',#677);
#679=ADVANCED_FACE('',(#673),#678,.T.);
#680=CARTESIAN_POINT('',(-8.,4.6188,28.));
#681=VERTEX_POINT('',#680);
#682=DIRECTION('',(-0.86603,-0.5,0.));
#683=VECTOR('',#682,9.2376);
#684=LINE('',#646,#683);
#685=EDGE_CURVE('',#647,#681,#684,.T.);
#686=ORIENTED_EDGE('',*,*,#685,.T.);
#687=CARTESIAN_POINT('',(-8.,4.6188,35.));
#688=VERTEX_POINT('',#687);
#689=DIRECTION('',(0.,0.,1.));
#690=VECTOR('',#689,7.);
#691=LINE('',#680,#690);
#692=EDGE_CURVE('',#681,#688,#691,.T.);
#693=ORIENTED_EDGE('',*,*,#692,.T.);
#694=DIRECTION('',(-0.86603,-0.5,0.));
#695=VECTOR('',#694,9.2376);
#696=LINE('',#653,#695);
#697=EDGE_CURVE('',#654,#688,#696,.T.);
#698=ORIENTED_EDGE('',*,*,#697,.F.);
#699=ORIENTED_EDGE('',*,*,#658,.F.);
#700=EDGE_LOOP('',(#686,#693,#698,#699));
#701=FACE_OUTER_BOUND('',#700,.T.);
#702=CARTESIAN_POINT('',(0.,9.2376,28.));
#703=DIRECTION('',(-0.5,0.86603,0.));
#704=DIRECTION('',(-0.86603,-0.5,0.));
#705=AXIS2_PLACEMENT_3D('',#702,#703,#704);
#706=PLANE('',#705);
#707=ADVANCED_FACE('',(#701),#706,.T.);
#708=CARTESIAN_POINT('',(-8.,-4.6188,28.));
#709=VERTEX_POINT('',#708);
#710=DIRECTION('',(0.,-1.,0.));
#711=VECTOR('',#710,9.2376);
#712=LINE('',#680,#711);
#713=EDGE_CURVE('',#681,#709,#712,.T.);
#714=ORIENTED_EDGE('',*,*,#713,.T.);
#715=CARTESIAN_POINT('',(-8.,-4.6188,35.));
#716=VERTEX_POINT('',#715);
#717=DIRECTION('',(0.,0.,1.));
#718=VECTOR('',#717,7.);
#719=LINE('',#708,#718);
#720=EDGE_CURVE('',#709,#716,#719,.T.);
#721=ORIENTED_EDGE('',*,*,#720,.T.);
#722=DIRECTION('',(0.,-1.,0.));
#723=VECTOR('',#722,9.2376);
#724=LINE('',#687,#723);
#725=EDGE_CURVE('',#688,#716,#724,.T.);
#726=ORIENTED_EDGE('',*,*,#725,.F.);
#727=ORIENTED_EDGE('',*,*,#692,.F.);
#728=EDGE_LOOP('',(#714,#721,#726,#727));
#729=FACE_OUTER_BOUND('',#728,.T.);
#730=CARTESIAN_POINT('',(-8.,4.6188,28.));
#731=DIRECTION('',(-1.,0.,0.));
#732=DIRECTION('',(0.,-1.,0.));
#733=AXIS2_PLACEMENT_3D('',#730,#731,#732);
#734=PLANE('',#733);
#735=ADVANCED_FACE('',(#729),#734,.T.);
#736=CARTESIAN_POINT('',(0.,-9.2376,28.));
#737=VERTEX_POINT('',#736);
#738=DIRECTION('',(0.86603,-0.5,0.));
#739=VECTOR('',#738,9.2376);
#740=LINE('',#708,#739);
#741=EDGE_CURVE('',#709,#737,#740,.T.);
#742=ORIENTED_EDGE('',*,*,#741,.T.);
#743=CARTESIAN_POINT('',(0.,-9.2376,35.));
#744=VERTEX_POINT('',#743);
#745=DIRECTION('',(0.,0.,1.));
#746=VECTOR('',#745,7.);
#747=LINE('',#736,#746);
#748=EDGE_CURVE('',#737,#744,#747,.T.);
#749=ORIENTED_EDGE('',*,*,#748,.T.);
#750=DIRECTION('',(0.86603,-0.5,0.));
#751=VECTOR('',#750,9.2376);
#752=LINE('',#715,#751);
#753=EDGE_CURVE('',#716,#744,#752,.T.);
#754=ORIENTED_EDGE('',*,*,#753,.F.);
#755=ORIENTED_EDGE('',*,*,#720,.F.);
#756=EDGE_LOOP('',(#742,#749,#754,#755));
#757=FACE_OUTER_BOUND('',#756,.T.);
#758=CARTESIAN_POINT('',(-8.,-4.6188,28.));
#759=DIRECTION('',(-0.5,-0.86603,0.));
#760=DIRECTION('',(0.86603,-0.5,0.));
#761=AXIS2_PLACEMENT_3D('',#758,#759,#760);
#762=PLANE('',#761);
#763=ADVANCED_FACE('',(#757),#762,.T.);
#764=CARTESIAN_POINT('',(8.,-4.6188,28.));
#765=VERTEX_POINT('',#764);
#766=DIRECTION('',(0.86603,0.5,0.));
#767=VECTOR('',#766,9.2376);
#768=LINE('',#736,#767);
#769=EDGE_CURVE('',#737,#765,#768,.T.);
#770=ORIENTED_EDGE('',*,*,#769,.T.);
#771=CARTESIAN_POINT('',(8.,-4.6188,35.));
#772=VERTEX_POINT('',#771);
#773=DIRECTION('',(0.,0.,1.));
#774=VECTOR('',#773,7.);
#775=LINE('',#764,#774);
#776=EDGE_CURVE('',#765,#772,#775,.T.);
#777=ORIENTED_EDGE('',*,*,#776,.T.);
#778=DIRECTION('',(0.86603,0.5,0.));
#779=VECTOR('',#778,9.2376);
#780=LINE('',#743,#779);
#781=EDGE_CURVE('',#744,#772,#780,.T.);
#782=ORIENTED_EDGE('',*,*,#781,.F.);
#783=ORIENTED_EDGE('',*,*,#748,.F.);
#784=EDGE_LOOP('',(#770,#777,#782,#783));
#785=FACE_OUTER_BOUND('',#784,.T.);
#786=CARTESIAN_POINT('',(0.,-9.2376,28.));
#787=DIRECTION('',(0.5,-0.86603,0.));
#788=DIRECTION('',(0.86603,0.5,0.));
#789=AXIS2_PLACEMENT_3D('',#786,#787,#788);
#790=PLANE('',#789);
#791=ADVANCED_FACE('',(#785),#790,.T.);
#792=DIRECTION('',(0.,-1.,0.));
#793=VECTOR('',#792,9.2376);
#794=LINE('',#644,#793);
#795=EDGE_CURVE('',#645,#765,#794,.T.);
#796=ORIENTED_EDGE('',*,*,#795,.F.);
#797=ORIENTED_EDGE('',*,*,#670,.T.);
#798=DIRECTION('',(0.,-1.,0.));
#799=VECTOR('',#798,9.2376);
#800=LINE('',#660,#799);
#801=EDGE_CURVE('',#661,#772,#800,.T.);
#802=ORIENTED_EDGE('',*,*,#801,.T.);
#803=ORIENTED_EDGE('',*,*,#776,.F.);
#804=EDGE_LOOP('',(#796,#797,#802,#803));
#805=FACE_OUTER_BOUND('',#804,.T.);
#806=CARTESIAN_POINT('',(8.,-4.6188,28.));
#807=DIRECTION('',(1.,0.,0.));
#808=DIRECTION('',(0.,1.,0.));
#809=AXIS2_PLACEMENT_3D('',#806,#807,#808);
#810=PLANE('',#809);
#811=ADVANCED_FACE('',(#805),#810,.T.);
#812=ORIENTED_EDGE('',*,*,#769,.F.);
#813=ORIENTED_EDGE('',*,*,#741,.F.);
#814=ORIENTED_EDGE('',*,*,#713,.F.);
#815=ORIENTED_EDGE('',*,*,#685,.F.);
#816=ORIENTED_EDGE('',*,*,#651,.F.);
#817=ORIENTED_EDGE('',*,*,#795,.T.);
#818=EDGE_LOOP('',(#812,#813,#814,#815,#816,#817));
#819=FACE_OUTER_BOUND('',#818,.T.);
#820=CARTESIAN_POINT('',(8.,-4.6188,28.));
#821=DIRECTION('',(0.,0.,-1.));
#822=DIRECTION('',(-0.86603,-0.5,0.));
#823=AXIS2_PLACEMENT_3D('',#820,#821,#822);
#824=PLANE('',#823);
#825=ADVANCED_FACE('',(#819),#824,.T.);
#826=ORIENTED_EDGE('',*,*,#665,.T.);
#827=ORIENTED_EDGE('',*,*,#697,.T.);
#828=ORIENTED_EDGE('',*,*,#725,.T.);
#829=ORIENTED_EDGE('',*,*,#753,.T.);
#830=ORIENTED_EDGE('',*,*,#781,.T.);
#831=ORIENTED_EDGE('',*,*,#801,.F.);
#832=EDGE_LOOP('',(#826,#827,#828,#829,#830,#831));
#833=FACE_OUTER_BOUND('',#832,.T.);
#834=CARTESIAN_POINT('',(8.,4.6188,35.));
#835=DIRECTION('',(0.,0.,1.));
#836=DIRECTION('',(-0.86603,0.5,0.));
#837=AXIS2_PLACEMENT_3D('',#834,#835,#836);
#838=PLANE('',#837);
#839=ADVANCED_FACE('',(#833),#838,.T.);
#840=CLOSED_SHELL('',(#679,#707,#735,#763,#791,#811,#825,#839));
#841=MANIFOLD_SOLID_BREP('',#840);
#842=STYLED_ITEM('color',(#642),#841);
#843=CARTESIAN_POINT('',(8.,4.6188,-35.));
#844=VERTEX_POINT('',#843);
#845=CARTESIAN_POINT('',(0.,9.2376,-35.));
#846=VERTEX_POINT('',#845);
#847=DIRECTION('',(-0.86603,0.5,0.));
#848=VECTOR('',#847,9.2376);
#849=LINE('',#843,#848);
#850=EDGE_CURVE('',#844,#846,#849,.T.);
#851=ORIENTED_EDGE('',*,*,#850,.T.);
#852=CARTESIAN_POINT('',(0.,9.2376,-28.));
#853=VERTEX_POINT('',#852);
#854=DIRECTION('',(0.,0.,1.));
#855=VECTOR('',#854,7.);
#856=LINE('',#845,#855);
#857=EDGE_CURVE('',#846,#853,#856,.T.);
#858=ORIENTED_EDGE('',*,*,#857,.T.);
#859=CARTESIAN_POINT('',(8.,4.6188,-28.));
#860=VERTEX_POINT('',#859);
#861=DIRECTION('',(-0.86603,0.5,0.));
#862=VECTOR('',#861,9.2376);
#863=LINE('',#859,#862);
#864=EDGE_CURVE('',#860,#853,#863,.T.);
#865=ORIENTED_EDGE('',*,*,#864,.F.);
#866=DIRECTION('',(0.,0.,1.));
#867=VECTOR('',#866,7.);
#868=LINE('',#843,#867);
#869=EDGE_CURVE('',#844,#860,#868,.T.);
#870=ORIENTED_EDGE('',*,*,#869,.F.);
#871=EDGE_LOOP('',(#851,#858,#865,#870));
#872=FACE_OUTER_BOUND('',#871,.T.);
#873=CARTESIAN_POINT('',(8.,4.6188,-35.));
#874=DIRECTION('',(0.5,0.86603,0.));
#875=DIRECTION('',(-0.86603,0.5,0.));
#876=AXIS2_PLACEMENT_3D('',#873,#874,#875);
#877=PLANE('',#876);
#878=ADVANCED_FACE('',(#872),#877,.T.);
#879=CARTESIAN_POINT('',(-8.,4.6188,-35.));
#880=VERTEX_POINT('',#879);
#881=DIRECTION('',(-0.86603,-0.5,0.));
#882=VECTOR('',#881,9.2376);
#883=LINE('',#845,#882);
#884=EDGE_CURVE('',#846,#880,#883,.T.);
#885=ORIENTED_EDGE('',*,*,#884,.T.);
#886=CARTESIAN_POINT('',(-8.,4.6188,-28.));
#887=VERTEX_POINT('',#886);
#888=DIRECTION('',(0.,0.,1.));
#889=VECTOR('',#888,7.);
#890=LINE('',#879,#889);
#891=EDGE_CURVE('',#880,#887,#890,.T.);
#892=ORIENTED_EDGE('',*,*,#891,.T.);
#893=DIRECTION('',(-0.86603,-0.5,0.));
#894=VECTOR('',#893,9.2376);
#895=LINE('',#852,#894);
#896=EDGE_CURVE('',#853,#887,#895,.T.);
#897=ORIENTED_EDGE('',*,*,#896,.F.);
#898=ORIENTED_EDGE('',*,*,#857,.F.);
#899=EDGE_LOOP('',(#885,#892,#897,#898));
#900=FACE_OUTER_BOUND('',#899,.T.);
#901=CARTESIAN_POINT('',(0.,9.2376,-35.));
#902=DIRECTION('',(-0.5,0.86603,0.));
#903=DIRECTION('',(-0.86603,-0.5,0.));
#904=AXIS2_PLACEMENT_3D('',#901,#902,#903);
#905=PLANE('',#904);
#906=ADVANCED_FACE('',(#900),#905,.T.);
#907=CARTESIAN_POINT('',(-8.,-4.6188,-35.));
#908=VERTEX_POINT('',#907);
#909=DIRECTION('',(0.,-1.,0.));
#910=VECTOR('',#909,9.2376);
#911=LINE('',#879,#910);
#912=EDGE_CURVE('',#880,#908,#911,.T.);
#913=ORIENTED_EDGE('',*,*,#912,.T.);
#914=CARTESIAN_POINT('',(-8.,-4.6188,-28.));
#915=VERTEX_POINT('',#914);
#916=DIRECTION('',(0.,0.,1.));
#917=VECTOR('',#916,7.);
#918=LINE('',#907,#917);
#919=EDGE_CURVE('',#908,#915,#918,.T.);
#920=ORIENTED_EDGE('',*,*,#919,.T.);
#921=DIRECTION('',(0.,-1.,0.));
#922=VECTOR('',#921,9.2376);
#923=LINE('',#886,#922);
#924=EDGE_CURVE('',#887,#915,#923,.T.);
#925=ORIENTED_EDGE('',*,*,#924,.F.);
#926=ORIENTED_EDGE('',*,*,#891,.F.);
#927=EDGE_LOOP('',(#913,#920,#925,#926));
#928=FACE_OUTER_BOUND('',#927,.T.);
#929=CARTESIAN_POINT('',(-8.,4.6188,-35.));
#930=DIRECTION('',(-1.,0.,0.));
#931=DIRECTION('',(0.,-1.,0.));
#932=AXIS2_PLACEMENT_3D('',#929,#930,#931);
#933=PLANE('',#932);
#934=ADVANCED_FACE('',(#928),#933,.T.);
#935=CARTESIAN_POINT('',(0.,-9.2376,-35.));
#936=VERTEX_POINT('',#935);
#937=DIRECTION('',(0.86603,-0.5,0.));
#938=VECTOR('',#937,9.2376);
#939=LINE('',#907,#938);
#940=EDGE_CURVE('',#908,#936,#939,.T.);
#941=ORIENTED_EDGE('',*,*,#940,.T.);
#942=CARTESIAN_POINT('',(0.,-9.2376,-28.));
#943=VERTEX_POINT('',#942);
#944=DIRECTION('',(0.,0.,1.));
#945=VECTOR('',#944,7.);
#946=LINE('',#935,#945);
#947=EDGE_CURVE('',#936,#943,#946,.T.);
#948=ORIENTED_EDGE('',*,*,#947,.T.);
#949=DIRECTION('',(0.86603,-0.5,0.));
#950=VECTOR('',#949,9.2376);
#951=LINE('',#914,#950);
#952=EDGE_CURVE('',#915,#943,#951,.T.);
#953=ORIENTED_EDGE('',*,*,#952,.F.);
#954=ORIENTED_EDGE('',*,*,#919,.F.);
#955=EDGE_LOOP('',(#941,#948,#953,#954));
#956=FACE_OUTER_BOUND('',#955,.T.);
#957=CARTESIAN_POINT('',(-8.,-4.6188,-35.));
#958=DIRECTION('',(-0.5,-0.86603,0.));
#959=DIRECTION('',(0.86603,-0.5,0.));
#960=AXIS2_PLACEMENT_3D('',#957,#958,#959);
#961=PLANE('',#960);
#962=ADVANCED_FACE('',(#956),#961,.T.);
#963=CARTESIAN_POINT('',(8.,-4.6188,-35.));
#964=VERTEX_POINT('',#963);
#965=DIRECTION('',(0.86603,0.5,0.));
#966=VECTOR('',#965,9.2376);
#967=LINE('',#935,#966);
#968=EDGE_CURVE('',#936,#964,#967,.T.);
#969=ORIENTED_EDGE('',*,*,#968,.T.);
#970=CARTESIAN_POINT('',(8.,-4.6188,-28.));
#971=VERTEX_POINT('',#970);
#972=DIRECTION('',(0.,0.,1.));
#973=VECTOR('',#972,7.);
#974=LINE('',#963,#973);
#975=EDGE_CURVE('',#964,#971,#974,.T.);
#976=ORIENTED_EDGE('',*,*,#975,.T.);
#977=DIRECTION('',(0.86603,0.5,0.));
#978=VECTOR('',#977,9.2376);
#979=LINE('',#942,#978);
#980=EDGE_CURVE('',#943,#971,#979,.T.);
#981=ORIENTED_EDGE('',*,*,#980,.F.);
#982=ORIENTED_EDGE('',*,*,#947,.F.);
#983=EDGE_LOOP('',(#969,#976,#981,#982));
#984=FACE_OUTER_BOUND('',#983,.T.);
#985=CARTESIAN_POINT('',(0.,-9.2376,-35.));
#986=DIRECTION('',(0.5,-0.86603,0.));
#987=DIRECTION('',(0.86603,0.5,0.));
#988=AXIS2_PLACEMENT_3D('',#985,#986,#987);
#989=PLANE('',#988);
#990=ADVANCED_FACE('',(#984),#989,.T.);
#991=DIRECTION('',(0.,-1.,0.));
#992=VECTOR('',#991,9.2376);
#993=LINE('',#843,#992);
#994=EDGE_CURVE('',#844,#964,#993,.T.);
#995=ORIENTED_EDGE('',*,*,#994,.F.);
#996=ORIENTED_EDGE('',*,*,#869,.T.);
#997=DIRECTION('',(0.,-1.,0.));
#998=VECTOR('',#997,9.2376);
#999=LINE('',#859,#998);
#1000=EDGE_CURVE('',#860,#971,#999,.T.);
#1001=ORIENTED_EDGE('',*,*,#1000,.T.);
#1002=ORIENTED_EDGE('',*,*,#975,.F.);
#1003=EDGE_LOOP('',(#995,#996,#1001,#1002));
#1004=FACE_OUTER_BOUND('',#1003,.T.);
#1005=CARTESIAN_POINT('',(8.,-4.6188,-35.));
#1006=DIRECTION('',(1.,0.,0.));
#1007=DIRECTION('',(0.,1.,0.));
#1008=AXIS2_PLACEMENT_3D('',#1005,#1006,#1007);
#1009=PLANE('',#1008);
#1010=ADVANCED_FACE('',(#1004),#1009,.T.);
#1011=ORIENTED_EDGE('',*,*,#968,.F.);
#1012=ORIENTED_EDGE('',*,*,#940,.F.);
#1013=ORIENTED_EDGE('',*,*,#912,.F.);
#1014=ORIENTED_EDGE('',*,*,#884,.F.);
#1015=ORIENTED_EDGE('',*,*,#850,.F.);
#1016=ORIENTED_EDGE('',*,*,#994,.T.);
#1017=EDGE_LOOP('',(#1011,#1012,#1013,#1014,#1015,#1016));
#1018=FACE_OUTER_BOUND('',#1017,.T.);
#1019=CARTESIAN_POINT('',(8.,-4.6188,-35.));
#1020=DIRECTION('',(0.,0.,-1.));
#1021=DIRECTION('',(-0.86603,-0.5,0.));
#1022=AXIS2_PLACEMENT_3D('',#1019,#1020,#1021);
#1023=PLANE('',#1022);
#1024=ADVANCED_FACE('',(#1018),#1023,.T.);
#1025=ORIENTED_EDGE('',*,*,#864,.T.);
#1026=ORIENTED_EDGE('',*,*,#896,.T.);
#1027=ORIENTED_EDGE('',*,*,#924,.T.);
#1028=ORIENTED_EDGE('',*,*,#952,.T.);
#1029=ORIENTED_EDGE('',*,*,#980,.T.);
#1030=ORIENTED_EDGE('',*,*,#1000,.F.);
#1031=EDGE_LOOP('',(#1025,#1026,#1027,#1028,#1029,#1030));
#1032=FACE_OUTER_BOUND('',#1031,.T.);
#1033=CARTESIAN_POINT('',(8.,4.6188,-28.));
#1034=DIRECTION('',(0.,0.,1.));
#1035=DIRECTION('',(-0.86603,0.5,0.));
#1036=AXIS2_PLACEMENT_3D('',#1033,#1034,#1035);
#1037=PLANE('',#1036);
#1038=ADVANCED_FACE('',(#1032),#1037,.T.);
#1039=CLOSED_SHELL('',(#878,#906,#934,#962,#990,#1010,#1024,#1038));
#1040=MANIFOLD_SOLID_BREP('',#1039);
#1041=STYLED_ITEM('color',(#642),#1040);
#1042=ADVANCED_BREP_SHAPE_REPRESENTATION('',(#17,#635,#841,#1040),#9);
#1043=SHAPE_DEFINITION_REPRESENTATION(#13,#1042);
#1044=MECHANICAL_DESIGN_GEOMETRIC_PRESENTATION_REPRESENTATION('',(#643,#842,#1041),#9);
#1045=PRODUCT_RELATED_PRODUCT_CATEGORY('part',$,(#10));
ENDSEC;
END-ISO-10303-21;
