ISO-10303-21;
HEADER;
FILE_DESCRIPTION(('AquaSentinel R3 - planar B-rep export'),'2;1');
FILE_NAME('Bottle cap (septum)','2026-10-04T21:49:43',('AquaSentinel team'),('Sanjivani University'),'AquaSentinel R3 python build','AquaSentinel R3','');
FILE_SCHEMA(('AUTOMOTIVE_DESIGN { 1 0 10303 214 1 1 1 1 }'));
ENDSEC;
DATA;
#1=APPLICATION_CONTEXT('core data for automotive mechanical design processes');
#2=APPLICATION_PROTOCOL_DEFINITION('international standard','automotive_design',2000,#1);
#3=PRODUCT_CONTEXT('',#1,'mechanical');
#4=PRODUCT_DEFINITION_CONTEXT('part definition',#1,'design');
#5=(LENGTH_UNIT()NAMED_UNIT(*)SI_UNIT(.MILLI.,.METRE.));
#6=(NAMED_UNIT(*)PLANE_ANGLE_UNIT()SI_UNIT($,.RADIAN.));
#7=(NAMED_UNIT(*)SI_UNIT($,.STERADIAN.)SOLID_ANGLE_UNIT());
#8=UNCERTAINTY_MEASURE_WITH_UNIT(LENGTH_MEASURE(1.E-04),#5,'distance_accuracy_value','confusion accuracy');
#9=(GEOMETRIC_REPRESENTATION_CONTEXT(3)GLOBAL_UNCERTAINTY_ASSIGNED_CONTEXT((#8))GLOBAL_UNIT_ASSIGNED_CONTEXT((#5,#6,#7))REPRESENTATION_CONTEXT('Context','3D Context with UNIT and UNCERTAINTY'));
#10=PRODUCT('AS3-605','Bottle cap (septum)','',(#3));
#11=PRODUCT_DEFINITION_FORMATION('','',#10);
#12=PRODUCT_DEFINITION('design','',#11,#4);
#13=PRODUCT_DEFINITION_SHAPE('','',#12);
#14=CARTESIAN_POINT('',(0.,0.,0.));
#15=DIRECTION('',(0.,0.,1.));
#16=DIRECTION('',(1.,0.,0.));
#17=AXIS2_PLACEMENT_3D('',#14,#15,#16);
#18=CARTESIAN_POINT('',(16.,0.,0.));
#19=VERTEX_POINT('',#18);
#20=CARTESIAN_POINT('',(15.59885,3.56033,0.));
#21=VERTEX_POINT('',#20);
#22=DIRECTION('',(-0.11196,0.99371,0.));
#23=VECTOR('',#22,3.58286);
#24=LINE('',#18,#23);
#25=EDGE_CURVE('',#19,#21,#24,.T.);
#26=ORIENTED_EDGE('',*,*,#25,.T.);
#27=CARTESIAN_POINT('',(15.59885,3.56033,14.));
#28=VERTEX_POINT('',#27);
#29=DIRECTION('',(0.,0.,1.));
#30=VECTOR('',#29,14.);
#31=LINE('',#20,#30);
#32=EDGE_CURVE('',#21,#28,#31,.T.);
#33=ORIENTED_EDGE('',*,*,#32,.T.);
#34=CARTESIAN_POINT('',(16.,0.,14.));
#35=VERTEX_POINT('',#34);
#36=DIRECTION('',(-0.11196,0.99371,0.));
#37=VECTOR('',#36,3.58286);
#38=LINE('',#34,#37);
#39=EDGE_CURVE('',#35,#28,#38,.T.);
#40=ORIENTED_EDGE('',*,*,#39,.F.);
#41=DIRECTION('',(0.,0.,1.));
#42=VECTOR('',#41,14.);
#43=LINE('',#18,#42);
#44=EDGE_CURVE('',#19,#35,#43,.T.);
#45=ORIENTED_EDGE('',*,*,#44,.F.);
#46=EDGE_LOOP('',(#26,#33,#40,#45));
#47=FACE_OUTER_BOUND('',#46,.T.);
#48=CARTESIAN_POINT('',(16.,0.,0.));
#49=DIRECTION('',(0.99371,0.11196,0.));
#50=DIRECTION('',(-0.11196,0.99371,0.));
#51=AXIS2_PLACEMENT_3D('',#48,#49,#50);
#52=PLANE('',#51);
#53=ADVANCED_FACE('',(#47),#52,.T.);
#54=CARTESIAN_POINT('',(14.4155,6.94214,0.));
#55=VERTEX_POINT('',#54);
#56=DIRECTION('',(-0.33028,0.94388,0.));
#57=VECTOR('',#56,3.58286);
#58=LINE('',#20,#57);
#59=EDGE_CURVE('',#21,#55,#58,.T.);
#60=ORIENTED_EDGE('',*,*,#59,.T.);
#61=CARTESIAN_POINT('',(14.4155,6.94214,14.));
#62=VERTEX_POINT('',#61);
#63=DIRECTION('',(0.,0.,1.));
#64=VECTOR('',#63,14.);
#65=LINE('',#54,#64);
#66=EDGE_CURVE('',#55,#62,#65,.T.);
#67=ORIENTED_EDGE('',*,*,#66,.T.);
#68=DIRECTION('',(-0.33028,0.94388,0.));
#69=VECTOR('',#68,3.58286);
#70=LINE('',#27,#69);
#71=EDGE_CURVE('',#28,#62,#70,.T.);
#72=ORIENTED_EDGE('',*,*,#71,.F.);
#73=ORIENTED_EDGE('',*,*,#32,.F.);
#74=EDGE_LOOP('',(#60,#67,#72,#73));
#75=FACE_OUTER_BOUND('',#74,.T.);
#76=CARTESIAN_POINT('',(15.59885,3.56033,0.));
#77=DIRECTION('',(0.94388,0.33028,0.));
#78=DIRECTION('',(-0.33028,0.94388,0.));
#79=AXIS2_PLACEMENT_3D('',#76,#77,#78);
#80=PLANE('',#79);
#81=ADVANCED_FACE('',(#75),#80,.T.);
#82=CARTESIAN_POINT('',(12.5093,9.97584,0.));
#83=VERTEX_POINT('',#82);
#84=DIRECTION('',(-0.53203,0.84672,0.));
#85=VECTOR('',#84,3.58286);
#86=LINE('',#54,#85);
#87=EDGE_CURVE('',#55,#83,#86,.T.);
#88=ORIENTED_EDGE('',*,*,#87,.T.);
#89=CARTESIAN_POINT('',(12.5093,9.97584,14.));
#90=VERTEX_POINT('',#89);
#91=DIRECTION('',(0.,0.,1.));
#92=VECTOR('',#91,14.);
#93=LINE('',#82,#92);
#94=EDGE_CURVE('',#83,#90,#93,.T.);
#95=ORIENTED_EDGE('',*,*,#94,.T.);
#96=DIRECTION('',(-0.53203,0.84672,0.));
#97=VECTOR('',#96,3.58286);
#98=LINE('',#61,#97);
#99=EDGE_CURVE('',#62,#90,#98,.T.);
#100=ORIENTED_EDGE('',*,*,#99,.F.);
#101=ORIENTED_EDGE('',*,*,#66,.F.);
#102=EDGE_LOOP('',(#88,#95,#100,#101));
#103=FACE_OUTER_BOUND('',#102,.T.);
#104=CARTESIAN_POINT('',(14.4155,6.94214,0.));
#105=DIRECTION('',(0.84672,0.53203,0.));
#106=DIRECTION('',(-0.53203,0.84672,0.));
#107=AXIS2_PLACEMENT_3D('',#104,#105,#106);
#108=PLANE('',#107);
#109=ADVANCED_FACE('',(#103),#108,.T.);
#110=CARTESIAN_POINT('',(9.97584,12.5093,0.));
#111=VERTEX_POINT('',#110);
#112=DIRECTION('',(-0.70711,0.70711,0.));
#113=VECTOR('',#112,3.58286);
#114=LINE('',#82,#113);
#115=EDGE_CURVE('',#83,#111,#114,.T.);
#116=ORIENTED_EDGE('',*,*,#115,.T.);
#117=CARTESIAN_POINT('',(9.97584,12.5093,14.));
#118=VERTEX_POINT('',#117);
#119=DIRECTION('',(0.,0.,1.));
#120=VECTOR('',#119,14.);
#121=LINE('',#110,#120);
#122=EDGE_CURVE('',#111,#118,#121,.T.);
#123=ORIENTED_EDGE('',*,*,#122,.T.);
#124=DIRECTION('',(-0.70711,0.70711,0.));
#125=VECTOR('',#124,3.58286);
#126=LINE('',#89,#125);
#127=EDGE_CURVE('',#90,#118,#126,.T.);
#128=ORIENTED_EDGE('',*,*,#127,.F.);
#129=ORIENTED_EDGE('',*,*,#94,.F.);
#130=EDGE_LOOP('',(#116,#123,#128,#129));
#131=FACE_OUTER_BOUND('',#130,.T.);
#132=CARTESIAN_POINT('',(12.5093,9.97584,0.));
#133=DIRECTION('',(0.70711,0.70711,0.));
#134=DIRECTION('',(-0.70711,0.70711,0.));
#135=AXIS2_PLACEMENT_3D('',#132,#133,#134);
#136=PLANE('',#135);
#137=ADVANCED_FACE('',(#131),#136,.T.);
#138=CARTESIAN_POINT('',(6.94214,14.4155,0.));
#139=VERTEX_POINT('',#138);
#140=DIRECTION('',(-0.84672,0.53203,0.));
#141=VECTOR('',#140,3.58286);
#142=LINE('',#110,#141);
#143=EDGE_CURVE('',#111,#139,#142,.T.);
#144=ORIENTED_EDGE('',*,*,#143,.T.);
#145=CARTESIAN_POINT('',(6.94214,14.4155,14.));
#146=VERTEX_POINT('',#145);
#147=DIRECTION('',(0.,0.,1.));
#148=VECTOR('',#147,14.);
#149=LINE('',#138,#148);
#150=EDGE_CURVE('',#139,#146,#149,.T.);
#151=ORIENTED_EDGE('',*,*,#150,.T.);
#152=DIRECTION('',(-0.84672,0.53203,0.));
#153=VECTOR('',#152,3.58286);
#154=LINE('',#117,#153);
#155=EDGE_CURVE('',#118,#146,#154,.T.);
#156=ORIENTED_EDGE('',*,*,#155,.F.);
#157=ORIENTED_EDGE('',*,*,#122,.F.);
#158=EDGE_LOOP('',(#144,#151,#156,#157));
#159=FACE_OUTER_BOUND('',#158,.T.);
#160=CARTESIAN_POINT('',(9.97584,12.5093,0.));
#161=DIRECTION('',(0.53203,0.84672,0.));
#162=DIRECTION('',(-0.84672,0.53203,0.));
#163=AXIS2_PLACEMENT_3D('',#160,#161,#162);
#164=PLANE('',#163);
#165=ADVANCED_FACE('',(#159),#164,.T.);
#166=CARTESIAN_POINT('',(3.56033,15.59885,0.));
#167=VERTEX_POINT('',#166);
#168=DIRECTION('',(-0.94388,0.33028,0.));
#169=VECTOR('',#168,3.58286);
#170=LINE('',#138,#169);
#171=EDGE_CURVE('',#139,#167,#170,.T.);
#172=ORIENTED_EDGE('',*,*,#171,.T.);
#173=CARTESIAN_POINT('',(3.56033,15.59885,14.));
#174=VERTEX_POINT('',#173);
#175=DIRECTION('',(0.,0.,1.));
#176=VECTOR('',#175,14.);
#177=LINE('',#166,#176);
#178=EDGE_CURVE('',#167,#174,#177,.T.);
#179=ORIENTED_EDGE('',*,*,#178,.T.);
#180=DIRECTION('',(-0.94388,0.33028,0.));
#181=VECTOR('',#180,3.58286);
#182=LINE('',#145,#181);
#183=EDGE_CURVE('',#146,#174,#182,.T.);
#184=ORIENTED_EDGE('',*,*,#183,.F.);
#185=ORIENTED_EDGE('',*,*,#150,.F.);
#186=EDGE_LOOP('',(#172,#179,#184,#185));
#187=FACE_OUTER_BOUND('',#186,.T.);
#188=CARTESIAN_POINT('',(6.94214,14.4155,0.));
#189=DIRECTION('',(0.33028,0.94388,0.));
#190=DIRECTION('',(-0.94388,0.33028,0.));
#191=AXIS2_PLACEMENT_3D('',#188,#189,#190);
#192=PLANE('',#191);
#193=ADVANCED_FACE('',(#187),#192,.T.);
#194=CARTESIAN_POINT('',(0.,16.,0.));
#195=VERTEX_POINT('',#194);
#196=DIRECTION('',(-0.99371,0.11196,0.));
#197=VECTOR('',#196,3.58286);
#198=LINE('',#166,#197);
#199=EDGE_CURVE('',#167,#195,#198,.T.);
#200=ORIENTED_EDGE('',*,*,#199,.T.);
#201=CARTESIAN_POINT('',(0.,16.,14.));
#202=VERTEX_POINT('',#201);
#203=DIRECTION('',(0.,0.,1.));
#204=VECTOR('',#203,14.);
#205=LINE('',#194,#204);
#206=EDGE_CURVE('',#195,#202,#205,.T.);
#207=ORIENTED_EDGE('',*,*,#206,.T.);
#208=DIRECTION('',(-0.99371,0.11196,0.));
#209=VECTOR('',#208,3.58286);
#210=LINE('',#173,#209);
#211=EDGE_CURVE('',#174,#202,#210,.T.);
#212=ORIENTED_EDGE('',*,*,#211,.F.);
#213=ORIENTED_EDGE('',*,*,#178,.F.);
#214=EDGE_LOOP('',(#200,#207,#212,#213));
#215=FACE_OUTER_BOUND('',#214,.T.);
#216=CARTESIAN_POINT('',(3.56033,15.59885,0.));
#217=DIRECTION('',(0.11196,0.99371,0.));
#218=DIRECTION('',(-0.99371,0.11196,0.));
#219=AXIS2_PLACEMENT_3D('',#216,#217,#218);
#220=PLANE('',#219);
#221=ADVANCED_FACE('',(#215),#220,.T.);
#222=CARTESIAN_POINT('',(-3.56033,15.59885,0.));
#223=VERTEX_POINT('',#222);
#224=DIRECTION('',(-0.99371,-0.11196,0.));
#225=VECTOR('',#224,3.58286);
#226=LINE('',#194,#225);
#227=EDGE_CURVE('',#195,#223,#226,.T.);
#228=ORIENTED_EDGE('',*,*,#227,.T.);
#229=CARTESIAN_POINT('',(-3.56033,15.59885,14.));
#230=VERTEX_POINT('',#229);
#231=DIRECTION('',(0.,0.,1.));
#232=VECTOR('',#231,14.);
#233=LINE('',#222,#232);
#234=EDGE_CURVE('',#223,#230,#233,.T.);
#235=ORIENTED_EDGE('',*,*,#234,.T.);
#236=DIRECTION('',(-0.99371,-0.11196,0.));
#237=VECTOR('',#236,3.58286);
#238=LINE('',#201,#237);
#239=EDGE_CURVE('',#202,#230,#238,.T.);
#240=ORIENTED_EDGE('',*,*,#239,.F.);
#241=ORIENTED_EDGE('',*,*,#206,.F.);
#242=EDGE_LOOP('',(#228,#235,#240,#241));
#243=FACE_OUTER_BOUND('',#242,.T.);
#244=CARTESIAN_POINT('',(0.,16.,0.));
#245=DIRECTION('',(-0.11196,0.99371,0.));
#246=DIRECTION('',(-0.99371,-0.11196,0.));
#247=AXIS2_PLACEMENT_3D('',#244,#245,#246);
#248=PLANE('',#247);
#249=ADVANCED_FACE('',(#243),#248,.T.);
#250=CARTESIAN_POINT('',(-6.94214,14.4155,0.));
#251=VERTEX_POINT('',#250);
#252=DIRECTION('',(-0.94388,-0.33028,0.));
#253=VECTOR('',#252,3.58286);
#254=LINE('',#222,#253);
#255=EDGE_CURVE('',#223,#251,#254,.T.);
#256=ORIENTED_EDGE('',*,*,#255,.T.);
#257=CARTESIAN_POINT('',(-6.94214,14.4155,14.));
#258=VERTEX_POINT('',#257);
#259=DIRECTION('',(0.,0.,1.));
#260=VECTOR('',#259,14.);
#261=LINE('',#250,#260);
#262=EDGE_CURVE('',#251,#258,#261,.T.);
#263=ORIENTED_EDGE('',*,*,#262,.T.);
#264=DIRECTION('',(-0.94388,-0.33028,0.));
#265=VECTOR('',#264,3.58286);
#266=LINE('',#229,#265);
#267=EDGE_CURVE('',#230,#258,#266,.T.);
#268=ORIENTED_EDGE('',*,*,#267,.F.);
#269=ORIENTED_EDGE('',*,*,#234,.F.);
#270=EDGE_LOOP('',(#256,#263,#268,#269));
#271=FACE_OUTER_BOUND('',#270,.T.);
#272=CARTESIAN_POINT('',(-3.56033,15.59885,0.));
#273=DIRECTION('',(-0.33028,0.94388,0.));
#274=DIRECTION('',(-0.94388,-0.33028,0.));
#275=AXIS2_PLACEMENT_3D('',#272,#273,#274);
#276=PLANE('',#275);
#277=ADVANCED_FACE('',(#271),#276,.T.);
#278=CARTESIAN_POINT('',(-9.97584,12.5093,0.));
#279=VERTEX_POINT('',#278);
#280=DIRECTION('',(-0.84672,-0.53203,0.));
#281=VECTOR('',#280,3.58286);
#282=LINE('',#250,#281);
#283=EDGE_CURVE('',#251,#279,#282,.T.);
#284=ORIENTED_EDGE('',*,*,#283,.T.);
#285=CARTESIAN_POINT('',(-9.97584,12.5093,14.));
#286=VERTEX_POINT('',#285);
#287=DIRECTION('',(0.,0.,1.));
#288=VECTOR('',#287,14.);
#289=LINE('',#278,#288);
#290=EDGE_CURVE('',#279,#286,#289,.T.);
#291=ORIENTED_EDGE('',*,*,#290,.T.);
#292=DIRECTION('',(-0.84672,-0.53203,0.));
#293=VECTOR('',#292,3.58286);
#294=LINE('',#257,#293);
#295=EDGE_CURVE('',#258,#286,#294,.T.);
#296=ORIENTED_EDGE('',*,*,#295,.F.);
#297=ORIENTED_EDGE('',*,*,#262,.F.);
#298=EDGE_LOOP('',(#284,#291,#296,#297));
#299=FACE_OUTER_BOUND('',#298,.T.);
#300=CARTESIAN_POINT('',(-6.94214,14.4155,0.));
#301=DIRECTION('',(-0.53203,0.84672,0.));
#302=DIRECTION('',(-0.84672,-0.53203,0.));
#303=AXIS2_PLACEMENT_3D('',#300,#301,#302);
#304=PLANE('',#303);
#305=ADVANCED_FACE('',(#299),#304,.T.);
#306=CARTESIAN_POINT('',(-12.5093,9.97584,0.));
#307=VERTEX_POINT('',#306);
#308=DIRECTION('',(-0.70711,-0.70711,0.));
#309=VECTOR('',#308,3.58286);
#310=LINE('',#278,#309);
#311=EDGE_CURVE('',#279,#307,#310,.T.);
#312=ORIENTED_EDGE('',*,*,#311,.T.);
#313=CARTESIAN_POINT('',(-12.5093,9.97584,14.));
#314=VERTEX_POINT('',#313);
#315=DIRECTION('',(0.,0.,1.));
#316=VECTOR('',#315,14.);
#317=LINE('',#306,#316);
#318=EDGE_CURVE('',#307,#314,#317,.T.);
#319=ORIENTED_EDGE('',*,*,#318,.T.);
#320=DIRECTION('',(-0.70711,-0.70711,0.));
#321=VECTOR('',#320,3.58286);
#322=LINE('',#285,#321);
#323=EDGE_CURVE('',#286,#314,#322,.T.);
#324=ORIENTED_EDGE('',*,*,#323,.F.);
#325=ORIENTED_EDGE('',*,*,#290,.F.);
#326=EDGE_LOOP('',(#312,#319,#324,#325));
#327=FACE_OUTER_BOUND('',#326,.T.);
#328=CARTESIAN_POINT('',(-9.97584,12.5093,0.));
#329=DIRECTION('',(-0.70711,0.70711,0.));
#330=DIRECTION('',(-0.70711,-0.70711,0.));
#331=AXIS2_PLACEMENT_3D('',#328,#329,#330);
#332=PLANE('',#331);
#333=ADVANCED_FACE('',(#327),#332,.T.);
#334=CARTESIAN_POINT('',(-14.4155,6.94214,0.));
#335=VERTEX_POINT('',#334);
#336=DIRECTION('',(-0.53203,-0.84672,0.));
#337=VECTOR('',#336,3.58286);
#338=LINE('',#306,#337);
#339=EDGE_CURVE('',#307,#335,#338,.T.);
#340=ORIENTED_EDGE('',*,*,#339,.T.);
#341=CARTESIAN_POINT('',(-14.4155,6.94214,14.));
#342=VERTEX_POINT('',#341);
#343=DIRECTION('',(0.,0.,1.));
#344=VECTOR('',#343,14.);
#345=LINE('',#334,#344);
#346=EDGE_CURVE('',#335,#342,#345,.T.);
#347=ORIENTED_EDGE('',*,*,#346,.T.);
#348=DIRECTION('',(-0.53203,-0.84672,0.));
#349=VECTOR('',#348,3.58286);
#350=LINE('',#313,#349);
#351=EDGE_CURVE('',#314,#342,#350,.T.);
#352=ORIENTED_EDGE('',*,*,#351,.F.);
#353=ORIENTED_EDGE('',*,*,#318,.F.);
#354=EDGE_LOOP('',(#340,#347,#352,#353));
#355=FACE_OUTER_BOUND('',#354,.T.);
#356=CARTESIAN_POINT('',(-12.5093,9.97584,0.));
#357=DIRECTION('',(-0.84672,0.53203,0.));
#358=DIRECTION('',(-0.53203,-0.84672,0.));
#359=AXIS2_PLACEMENT_3D('',#356,#357,#358);
#360=PLANE('',#359);
#361=ADVANCED_FACE('',(#355),#360,.T.);
#362=CARTESIAN_POINT('',(-15.59885,3.56033,0.));
#363=VERTEX_POINT('',#362);
#364=DIRECTION('',(-0.33028,-0.94388,0.));
#365=VECTOR('',#364,3.58286);
#366=LINE('',#334,#365);
#367=EDGE_CURVE('',#335,#363,#366,.T.);
#368=ORIENTED_EDGE('',*,*,#367,.T.);
#369=CARTESIAN_POINT('',(-15.59885,3.56033,14.));
#370=VERTEX_POINT('',#369);
#371=DIRECTION('',(0.,0.,1.));
#372=VECTOR('',#371,14.);
#373=LINE('',#362,#372);
#374=EDGE_CURVE('',#363,#370,#373,.T.);
#375=ORIENTED_EDGE('',*,*,#374,.T.);
#376=DIRECTION('',(-0.33028,-0.94388,0.));
#377=VECTOR('',#376,3.58286);
#378=LINE('',#341,#377);
#379=EDGE_CURVE('',#342,#370,#378,.T.);
#380=ORIENTED_EDGE('',*,*,#379,.F.);
#381=ORIENTED_EDGE('',*,*,#346,.F.);
#382=EDGE_LOOP('',(#368,#375,#380,#381));
#383=FACE_OUTER_BOUND('',#382,.T.);
#384=CARTESIAN_POINT('',(-14.4155,6.94214,0.));
#385=DIRECTION('',(-0.94388,0.33028,0.));
#386=DIRECTION('',(-0.33028,-0.94388,0.));
#387=AXIS2_PLACEMENT_3D('',#384,#385,#386);
#388=PLANE('',#387);
#389=ADVANCED_FACE('',(#383),#388,.T.);
#390=CARTESIAN_POINT('',(-16.,0.,0.));
#391=VERTEX_POINT('',#390);
#392=DIRECTION('',(-0.11196,-0.99371,0.));
#393=VECTOR('',#392,3.58286);
#394=LINE('',#362,#393);
#395=EDGE_CURVE('',#363,#391,#394,.T.);
#396=ORIENTED_EDGE('',*,*,#395,.T.);
#397=CARTESIAN_POINT('',(-16.,0.,14.));
#398=VERTEX_POINT('',#397);
#399=DIRECTION('',(0.,0.,1.));
#400=VECTOR('',#399,14.);
#401=LINE('',#390,#400);
#402=EDGE_CURVE('',#391,#398,#401,.T.);
#403=ORIENTED_EDGE('',*,*,#402,.T.);
#404=DIRECTION('',(-0.11196,-0.99371,0.));
#405=VECTOR('',#404,3.58286);
#406=LINE('',#369,#405);
#407=EDGE_CURVE('',#370,#398,#406,.T.);
#408=ORIENTED_EDGE('',*,*,#407,.F.);
#409=ORIENTED_EDGE('',*,*,#374,.F.);
#410=EDGE_LOOP('',(#396,#403,#408,#409));
#411=FACE_OUTER_BOUND('',#410,.T.);
#412=CARTESIAN_POINT('',(-15.59885,3.56033,0.));
#413=DIRECTION('',(-0.99371,0.11196,0.));
#414=DIRECTION('',(-0.11196,-0.99371,0.));
#415=AXIS2_PLACEMENT_3D('',#412,#413,#414);
#416=PLANE('',#415);
#417=ADVANCED_FACE('',(#411),#416,.T.);
#418=CARTESIAN_POINT('',(-15.59885,-3.56033,0.));
#419=VERTEX_POINT('',#418);
#420=DIRECTION('',(0.11196,-0.99371,0.));
#421=VECTOR('',#420,3.58286);
#422=LINE('',#390,#421);
#423=EDGE_CURVE('',#391,#419,#422,.T.);
#424=ORIENTED_EDGE('',*,*,#423,.T.);
#425=CARTESIAN_POINT('',(-15.59885,-3.56033,14.));
#426=VERTEX_POINT('',#425);
#427=DIRECTION('',(0.,0.,1.));
#428=VECTOR('',#427,14.);
#429=LINE('',#418,#428);
#430=EDGE_CURVE('',#419,#426,#429,.T.);
#431=ORIENTED_EDGE('',*,*,#430,.T.);
#432=DIRECTION('',(0.11196,-0.99371,0.));
#433=VECTOR('',#432,3.58286);
#434=LINE('',#397,#433);
#435=EDGE_CURVE('',#398,#426,#434,.T.);
#436=ORIENTED_EDGE('',*,*,#435,.F.);
#437=ORIENTED_EDGE('',*,*,#402,.F.);
#438=EDGE_LOOP('',(#424,#431,#436,#437));
#439=FACE_OUTER_BOUND('',#438,.T.);
#440=CARTESIAN_POINT('',(-16.,0.,0.));
#441=DIRECTION('',(-0.99371,-0.11196,0.));
#442=DIRECTION('',(0.11196,-0.99371,0.));
#443=AXIS2_PLACEMENT_3D('',#440,#441,#442);
#444=PLANE('',#443);
#445=ADVANCED_FACE('',(#439),#444,.T.);
#446=CARTESIAN_POINT('',(-14.4155,-6.94214,0.));
#447=VERTEX_POINT('',#446);
#448=DIRECTION('',(0.33028,-0.94388,0.));
#449=VECTOR('',#448,3.58286);
#450=LINE('',#418,#449);
#451=EDGE_CURVE('',#419,#447,#450,.T.);
#452=ORIENTED_EDGE('',*,*,#451,.T.);
#453=CARTESIAN_POINT('',(-14.4155,-6.94214,14.));
#454=VERTEX_POINT('',#453);
#455=DIRECTION('',(0.,0.,1.));
#456=VECTOR('',#455,14.);
#457=LINE('',#446,#456);
#458=EDGE_CURVE('',#447,#454,#457,.T.);
#459=ORIENTED_EDGE('',*,*,#458,.T.);
#460=DIRECTION('',(0.33028,-0.94388,0.));
#461=VECTOR('',#460,3.58286);
#462=LINE('',#425,#461);
#463=EDGE_CURVE('',#426,#454,#462,.T.);
#464=ORIENTED_EDGE('',*,*,#463,.F.);
#465=ORIENTED_EDGE('',*,*,#430,.F.);
#466=EDGE_LOOP('',(#452,#459,#464,#465));
#467=FACE_OUTER_BOUND('',#466,.T.);
#468=CARTESIAN_POINT('',(-15.59885,-3.56033,0.));
#469=DIRECTION('',(-0.94388,-0.33028,0.));
#470=DIRECTION('',(0.33028,-0.94388,0.));
#471=AXIS2_PLACEMENT_3D('',#468,#469,#470);
#472=PLANE('',#471);
#473=ADVANCED_FACE('',(#467),#472,.T.);
#474=CARTESIAN_POINT('',(-12.5093,-9.97584,0.));
#475=VERTEX_POINT('',#474);
#476=DIRECTION('',(0.53203,-0.84672,0.));
#477=VECTOR('',#476,3.58286);
#478=LINE('',#446,#477);
#479=EDGE_CURVE('',#447,#475,#478,.T.);
#480=ORIENTED_EDGE('',*,*,#479,.T.);
#481=CARTESIAN_POINT('',(-12.5093,-9.97584,14.));
#482=VERTEX_POINT('',#481);
#483=DIRECTION('',(0.,0.,1.));
#484=VECTOR('',#483,14.);
#485=LINE('',#474,#484);
#486=EDGE_CURVE('',#475,#482,#485,.T.);
#487=ORIENTED_EDGE('',*,*,#486,.T.);
#488=DIRECTION('',(0.53203,-0.84672,0.));
#489=VECTOR('',#488,3.58286);
#490=LINE('',#453,#489);
#491=EDGE_CURVE('',#454,#482,#490,.T.);
#492=ORIENTED_EDGE('',*,*,#491,.F.);
#493=ORIENTED_EDGE('',*,*,#458,.F.);
#494=EDGE_LOOP('',(#480,#487,#492,#493));
#495=FACE_OUTER_BOUND('',#494,.T.);
#496=CARTESIAN_POINT('',(-14.4155,-6.94214,0.));
#497=DIRECTION('',(-0.84672,-0.53203,0.));
#498=DIRECTION('',(0.53203,-0.84672,0.));
#499=AXIS2_PLACEMENT_3D('',#496,#497,#498);
#500=PLANE('',#499);
#501=ADVANCED_FACE('',(#495),#500,.T.);
#502=CARTESIAN_POINT('',(-9.97584,-12.5093,0.));
#503=VERTEX_POINT('',#502);
#504=DIRECTION('',(0.70711,-0.70711,0.));
#505=VECTOR('',#504,3.58286);
#506=LINE('',#474,#505);
#507=EDGE_CURVE('',#475,#503,#506,.T.);
#508=ORIENTED_EDGE('',*,*,#507,.T.);
#509=CARTESIAN_POINT('',(-9.97584,-12.5093,14.));
#510=VERTEX_POINT('',#509);
#511=DIRECTION('',(0.,0.,1.));
#512=VECTOR('',#511,14.);
#513=LINE('',#502,#512);
#514=EDGE_CURVE('',#503,#510,#513,.T.);
#515=ORIENTED_EDGE('',*,*,#514,.T.);
#516=DIRECTION('',(0.70711,-0.70711,0.));
#517=VECTOR('',#516,3.58286);
#518=LINE('',#481,#517);
#519=EDGE_CURVE('',#482,#510,#518,.T.);
#520=ORIENTED_EDGE('',*,*,#519,.F.);
#521=ORIENTED_EDGE('',*,*,#486,.F.);
#522=EDGE_LOOP('',(#508,#515,#520,#521));
#523=FACE_OUTER_BOUND('',#522,.T.);
#524=CARTESIAN_POINT('',(-12.5093,-9.97584,0.));
#525=DIRECTION('',(-0.70711,-0.70711,0.));
#526=DIRECTION('',(0.70711,-0.70711,0.));
#527=AXIS2_PLACEMENT_3D('',#524,#525,#526);
#528=PLANE('',#527);
#529=ADVANCED_FACE('',(#523),#528,.T.);
#530=CARTESIAN_POINT('',(-6.94214,-14.4155,0.));
#531=VERTEX_POINT('',#530);
#532=DIRECTION('',(0.84672,-0.53203,0.));
#533=VECTOR('',#532,3.58286);
#534=LINE('',#502,#533);
#535=EDGE_CURVE('',#503,#531,#534,.T.);
#536=ORIENTED_EDGE('',*,*,#535,.T.);
#537=CARTESIAN_POINT('',(-6.94214,-14.4155,14.));
#538=VERTEX_POINT('',#537);
#539=DIRECTION('',(0.,0.,1.));
#540=VECTOR('',#539,14.);
#541=LINE('',#530,#540);
#542=EDGE_CURVE('',#531,#538,#541,.T.);
#543=ORIENTED_EDGE('',*,*,#542,.T.);
#544=DIRECTION('',(0.84672,-0.53203,0.));
#545=VECTOR('',#544,3.58286);
#546=LINE('',#509,#545);
#547=EDGE_CURVE('',#510,#538,#546,.T.);
#548=ORIENTED_EDGE('',*,*,#547,.F.);
#549=ORIENTED_EDGE('',*,*,#514,.F.);
#550=EDGE_LOOP('',(#536,#543,#548,#549));
#551=FACE_OUTER_BOUND('',#550,.T.);
#552=CARTESIAN_POINT('',(-9.97584,-12.5093,0.));
#553=DIRECTION('',(-0.53203,-0.84672,0.));
#554=DIRECTION('',(0.84672,-0.53203,0.));
#555=AXIS2_PLACEMENT_3D('',#552,#553,#554);
#556=PLANE('',#555);
#557=ADVANCED_FACE('',(#551),#556,.T.);
#558=CARTESIAN_POINT('',(-3.56033,-15.59885,0.));
#559=VERTEX_POINT('',#558);
#560=DIRECTION('',(0.94388,-0.33028,0.));
#561=VECTOR('',#560,3.58286);
#562=LINE('',#530,#561);
#563=EDGE_CURVE('',#531,#559,#562,.T.);
#564=ORIENTED_EDGE('',*,*,#563,.T.);
#565=CARTESIAN_POINT('',(-3.56033,-15.59885,14.));
#566=VERTEX_POINT('',#565);
#567=DIRECTION('',(0.,0.,1.));
#568=VECTOR('',#567,14.);
#569=LINE('',#558,#568);
#570=EDGE_CURVE('',#559,#566,#569,.T.);
#571=ORIENTED_EDGE('',*,*,#570,.T.);
#572=DIRECTION('',(0.94388,-0.33028,0.));
#573=VECTOR('',#572,3.58286);
#574=LINE('',#537,#573);
#575=EDGE_CURVE('',#538,#566,#574,.T.);
#576=ORIENTED_EDGE('',*,*,#575,.F.);
#577=ORIENTED_EDGE('',*,*,#542,.F.);
#578=EDGE_LOOP('',(#564,#571,#576,#577));
#579=FACE_OUTER_BOUND('',#578,.T.);
#580=CARTESIAN_POINT('',(-6.94214,-14.4155,0.));
#581=DIRECTION('',(-0.33028,-0.94388,0.));
#582=DIRECTION('',(0.94388,-0.33028,0.));
#583=AXIS2_PLACEMENT_3D('',#580,#581,#582);
#584=PLANE('',#583);
#585=ADVANCED_FACE('',(#579),#584,.T.);
#586=CARTESIAN_POINT('',(0.,-16.,0.));
#587=VERTEX_POINT('',#586);
#588=DIRECTION('',(0.99371,-0.11196,0.));
#589=VECTOR('',#588,3.58286);
#590=LINE('',#558,#589);
#591=EDGE_CURVE('',#559,#587,#590,.T.);
#592=ORIENTED_EDGE('',*,*,#591,.T.);
#593=CARTESIAN_POINT('',(0.,-16.,14.));
#594=VERTEX_POINT('',#593);
#595=DIRECTION('',(0.,0.,1.));
#596=VECTOR('',#595,14.);
#597=LINE('',#586,#596);
#598=EDGE_CURVE('',#587,#594,#597,.T.);
#599=ORIENTED_EDGE('',*,*,#598,.T.);
#600=DIRECTION('',(0.99371,-0.11196,0.));
#601=VECTOR('',#600,3.58286);
#602=LINE('',#565,#601);
#603=EDGE_CURVE('',#566,#594,#602,.T.);
#604=ORIENTED_EDGE('',*,*,#603,.F.);
#605=ORIENTED_EDGE('',*,*,#570,.F.);
#606=EDGE_LOOP('',(#592,#599,#604,#605));
#607=FACE_OUTER_BOUND('',#606,.T.);
#608=CARTESIAN_POINT('',(-3.56033,-15.59885,0.));
#609=DIRECTION('',(-0.11196,-0.99371,0.));
#610=DIRECTION('',(0.99371,-0.11196,0.));
#611=AXIS2_PLACEMENT_3D('',#608,#609,#610);
#612=PLANE('',#611);
#613=ADVANCED_FACE('',(#607),#612,.T.);
#614=CARTESIAN_POINT('',(3.56033,-15.59885,0.));
#615=VERTEX_POINT('',#614);
#616=DIRECTION('',(0.99371,0.11196,0.));
#617=VECTOR('',#616,3.58286);
#618=LINE('',#586,#617);
#619=EDGE_CURVE('',#587,#615,#618,.T.);
#620=ORIENTED_EDGE('',*,*,#619,.T.);
#621=CARTESIAN_POINT('',(3.56033,-15.59885,14.));
#622=VERTEX_POINT('',#621);
#623=DIRECTION('',(0.,0.,1.));
#624=VECTOR('',#623,14.);
#625=LINE('',#614,#624);
#626=EDGE_CURVE('',#615,#622,#625,.T.);
#627=ORIENTED_EDGE('',*,*,#626,.T.);
#628=DIRECTION('',(0.99371,0.11196,0.));
#629=VECTOR('',#628,3.58286);
#630=LINE('',#593,#629);
#631=EDGE_CURVE('',#594,#622,#630,.T.);
#632=ORIENTED_EDGE('',*,*,#631,.F.);
#633=ORIENTED_EDGE('',*,*,#598,.F.);
#634=EDGE_LOOP('',(#620,#627,#632,#633));
#635=FACE_OUTER_BOUND('',#634,.T.);
#636=CARTESIAN_POINT('',(0.,-16.,0.));
#637=DIRECTION('',(0.11196,-0.99371,0.));
#638=DIRECTION('',(0.99371,0.11196,0.));
#639=AXIS2_PLACEMENT_3D('',#636,#637,#638);
#640=PLANE('',#639);
#641=ADVANCED_FACE('',(#635),#640,.T.);
#642=CARTESIAN_POINT('',(6.94214,-14.4155,0.));
#643=VERTEX_POINT('',#642);
#644=DIRECTION('',(0.94388,0.33028,0.));
#645=VECTOR('',#644,3.58286);
#646=LINE('',#614,#645);
#647=EDGE_CURVE('',#615,#643,#646,.T.);
#648=ORIENTED_EDGE('',*,*,#647,.T.);
#649=CARTESIAN_POINT('',(6.94214,-14.4155,14.));
#650=VERTEX_POINT('',#649);
#651=DIRECTION('',(0.,0.,1.));
#652=VECTOR('',#651,14.);
#653=LINE('',#642,#652);
#654=EDGE_CURVE('',#643,#650,#653,.T.);
#655=ORIENTED_EDGE('',*,*,#654,.T.);
#656=DIRECTION('',(0.94388,0.33028,0.));
#657=VECTOR('',#656,3.58286);
#658=LINE('',#621,#657);
#659=EDGE_CURVE('',#622,#650,#658,.T.);
#660=ORIENTED_EDGE('',*,*,#659,.F.);
#661=ORIENTED_EDGE('',*,*,#626,.F.);
#662=EDGE_LOOP('',(#648,#655,#660,#661));
#663=FACE_OUTER_BOUND('',#662,.T.);
#664=CARTESIAN_POINT('',(3.56033,-15.59885,0.));
#665=DIRECTION('',(0.33028,-0.94388,0.));
#666=DIRECTION('',(0.94388,0.33028,0.));
#667=AXIS2_PLACEMENT_3D('',#664,#665,#666);
#668=PLANE('',#667);
#669=ADVANCED_FACE('',(#663),#668,.T.);
#670=CARTESIAN_POINT('',(9.97584,-12.5093,0.));
#671=VERTEX_POINT('',#670);
#672=DIRECTION('',(0.84672,0.53203,0.));
#673=VECTOR('',#672,3.58286);
#674=LINE('',#642,#673);
#675=EDGE_CURVE('',#643,#671,#674,.T.);
#676=ORIENTED_EDGE('',*,*,#675,.T.);
#677=CARTESIAN_POINT('',(9.97584,-12.5093,14.));
#678=VERTEX_POINT('',#677);
#679=DIRECTION('',(0.,0.,1.));
#680=VECTOR('',#679,14.);
#681=LINE('',#670,#680);
#682=EDGE_CURVE('',#671,#678,#681,.T.);
#683=ORIENTED_EDGE('',*,*,#682,.T.);
#684=DIRECTION('',(0.84672,0.53203,0.));
#685=VECTOR('',#684,3.58286);
#686=LINE('',#649,#685);
#687=EDGE_CURVE('',#650,#678,#686,.T.);
#688=ORIENTED_EDGE('',*,*,#687,.F.);
#689=ORIENTED_EDGE('',*,*,#654,.F.);
#690=EDGE_LOOP('',(#676,#683,#688,#689));
#691=FACE_OUTER_BOUND('',#690,.T.);
#692=CARTESIAN_POINT('',(6.94214,-14.4155,0.));
#693=DIRECTION('',(0.53203,-0.84672,0.));
#694=DIRECTION('',(0.84672,0.53203,0.));
#695=AXIS2_PLACEMENT_3D('',#692,#693,#694);
#696=PLANE('',#695);
#697=ADVANCED_FACE('',(#691),#696,.T.);
#698=CARTESIAN_POINT('',(12.5093,-9.97584,0.));
#699=VERTEX_POINT('',#698);
#700=DIRECTION('',(0.70711,0.70711,0.));
#701=VECTOR('',#700,3.58286);
#702=LINE('',#670,#701);
#703=EDGE_CURVE('',#671,#699,#702,.T.);
#704=ORIENTED_EDGE('',*,*,#703,.T.);
#705=CARTESIAN_POINT('',(12.5093,-9.97584,14.));
#706=VERTEX_POINT('',#705);
#707=DIRECTION('',(0.,0.,1.));
#708=VECTOR('',#707,14.);
#709=LINE('',#698,#708);
#710=EDGE_CURVE('',#699,#706,#709,.T.);
#711=ORIENTED_EDGE('',*,*,#710,.T.);
#712=DIRECTION('',(0.70711,0.70711,0.));
#713=VECTOR('',#712,3.58286);
#714=LINE('',#677,#713);
#715=EDGE_CURVE('',#678,#706,#714,.T.);
#716=ORIENTED_EDGE('',*,*,#715,.F.);
#717=ORIENTED_EDGE('',*,*,#682,.F.);
#718=EDGE_LOOP('',(#704,#711,#716,#717));
#719=FACE_OUTER_BOUND('',#718,.T.);
#720=CARTESIAN_POINT('',(9.97584,-12.5093,0.));
#721=DIRECTION('',(0.70711,-0.70711,0.));
#722=DIRECTION('',(0.70711,0.70711,0.));
#723=AXIS2_PLACEMENT_3D('',#720,#721,#722);
#724=PLANE('',#723);
#725=ADVANCED_FACE('',(#719),#724,.T.);
#726=CARTESIAN_POINT('',(14.4155,-6.94214,0.));
#727=VERTEX_POINT('',#726);
#728=DIRECTION('',(0.53203,0.84672,0.));
#729=VECTOR('',#728,3.58286);
#730=LINE('',#698,#729);
#731=EDGE_CURVE('',#699,#727,#730,.T.);
#732=ORIENTED_EDGE('',*,*,#731,.T.);
#733=CARTESIAN_POINT('',(14.4155,-6.94214,14.));
#734=VERTEX_POINT('',#733);
#735=DIRECTION('',(0.,0.,1.));
#736=VECTOR('',#735,14.);
#737=LINE('',#726,#736);
#738=EDGE_CURVE('',#727,#734,#737,.T.);
#739=ORIENTED_EDGE('',*,*,#738,.T.);
#740=DIRECTION('',(0.53203,0.84672,0.));
#741=VECTOR('',#740,3.58286);
#742=LINE('',#705,#741);
#743=EDGE_CURVE('',#706,#734,#742,.T.);
#744=ORIENTED_EDGE('',*,*,#743,.F.);
#745=ORIENTED_EDGE('',*,*,#710,.F.);
#746=EDGE_LOOP('',(#732,#739,#744,#745));
#747=FACE_OUTER_BOUND('',#746,.T.);
#748=CARTESIAN_POINT('',(12.5093,-9.97584,0.));
#749=DIRECTION('',(0.84672,-0.53203,0.));
#750=DIRECTION('',(0.53203,0.84672,0.));
#751=AXIS2_PLACEMENT_3D('',#748,#749,#750);
#752=PLANE('',#751);
#753=ADVANCED_FACE('',(#747),#752,.T.);
#754=CARTESIAN_POINT('',(15.59885,-3.56033,0.));
#755=VERTEX_POINT('',#754);
#756=DIRECTION('',(0.33028,0.94388,0.));
#757=VECTOR('',#756,3.58286);
#758=LINE('',#726,#757);
#759=EDGE_CURVE('',#727,#755,#758,.T.);
#760=ORIENTED_EDGE('',*,*,#759,.T.);
#761=CARTESIAN_POINT('',(15.59885,-3.56033,14.));
#762=VERTEX_POINT('',#761);
#763=DIRECTION('',(0.,0.,1.));
#764=VECTOR('',#763,14.);
#765=LINE('',#754,#764);
#766=EDGE_CURVE('',#755,#762,#765,.T.);
#767=ORIENTED_EDGE('',*,*,#766,.T.);
#768=DIRECTION('',(0.33028,0.94388,0.));
#769=VECTOR('',#768,3.58286);
#770=LINE('',#733,#769);
#771=EDGE_CURVE('',#734,#762,#770,.T.);
#772=ORIENTED_EDGE('',*,*,#771,.F.);
#773=ORIENTED_EDGE('',*,*,#738,.F.);
#774=EDGE_LOOP('',(#760,#767,#772,#773));
#775=FACE_OUTER_BOUND('',#774,.T.);
#776=CARTESIAN_POINT('',(14.4155,-6.94214,0.));
#777=DIRECTION('',(0.94388,-0.33028,0.));
#778=DIRECTION('',(0.33028,0.94388,0.));
#779=AXIS2_PLACEMENT_3D('',#776,#777,#778);
#780=PLANE('',#779);
#781=ADVANCED_FACE('',(#775),#780,.T.);
#782=DIRECTION('',(-0.11196,-0.99371,0.));
#783=VECTOR('',#782,3.58286);
#784=LINE('',#18,#783);
#785=EDGE_CURVE('',#19,#755,#784,.T.);
#786=ORIENTED_EDGE('',*,*,#785,.F.);
#787=ORIENTED_EDGE('',*,*,#44,.T.);
#788=DIRECTION('',(-0.11196,-0.99371,0.));
#789=VECTOR('',#788,3.58286);
#790=LINE('',#34,#789);
#791=EDGE_CURVE('',#35,#762,#790,.T.);
#792=ORIENTED_EDGE('',*,*,#791,.T.);
#793=ORIENTED_EDGE('',*,*,#766,.F.);
#794=EDGE_LOOP('',(#786,#787,#792,#793));
#795=FACE_OUTER_BOUND('',#794,.T.);
#796=CARTESIAN_POINT('',(15.59885,-3.56033,0.));
#797=DIRECTION('',(0.99371,-0.11196,0.));
#798=DIRECTION('',(0.11196,0.99371,0.));
#799=AXIS2_PLACEMENT_3D('',#796,#797,#798);
#800=PLANE('',#799);
#801=ADVANCED_FACE('',(#795),#800,.T.);
#802=ORIENTED_EDGE('',*,*,#759,.F.);
#803=ORIENTED_EDGE('',*,*,#731,.F.);
#804=ORIENTED_EDGE('',*,*,#703,.F.);
#805=ORIENTED_EDGE('',*,*,#675,.F.);
#806=ORIENTED_EDGE('',*,*,#647,.F.);
#807=ORIENTED_EDGE('',*,*,#619,.F.);
#808=ORIENTED_EDGE('',*,*,#591,.F.);
#809=ORIENTED_EDGE('',*,*,#563,.F.);
#810=ORIENTED_EDGE('',*,*,#535,.F.);
#811=ORIENTED_EDGE('',*,*,#507,.F.);
#812=ORIENTED_EDGE('',*,*,#479,.F.);
#813=ORIENTED_EDGE('',*,*,#451,.F.);
#814=ORIENTED_EDGE('',*,*,#423,.F.);
#815=ORIENTED_EDGE('',*,*,#395,.F.);
#816=ORIENTED_EDGE('',*,*,#367,.F.);
#817=ORIENTED_EDGE('',*,*,#339,.F.);
#818=ORIENTED_EDGE('',*,*,#311,.F.);
#819=ORIENTED_EDGE('',*,*,#283,.F.);
#820=ORIENTED_EDGE('',*,*,#255,.F.);
#821=ORIENTED_EDGE('',*,*,#227,.F.);
#822=ORIENTED_EDGE('',*,*,#199,.F.);
#823=ORIENTED_EDGE('',*,*,#171,.F.);
#824=ORIENTED_EDGE('',*,*,#143,.F.);
#825=ORIENTED_EDGE('',*,*,#115,.F.);
#826=ORIENTED_EDGE('',*,*,#87,.F.);
#827=ORIENTED_EDGE('',*,*,#59,.F.);
#828=ORIENTED_EDGE('',*,*,#25,.F.);
#829=ORIENTED_EDGE('',*,*,#785,.T.);
#830=EDGE_LOOP('',(#802,#803,#804,#805,#806,#807,#808,#809,#810,#811,#812,#813,#814,#815,#816,#817,#818,#819,#820,#821,#822,#823,#824,#825,#826,#827,#828,#829));
#831=FACE_OUTER_BOUND('',#830,.T.);
#832=CARTESIAN_POINT('',(15.59885,-3.56033,0.));
#833=DIRECTION('',(0.,0.,-1.));
#834=DIRECTION('',(-0.33028,-0.94388,0.));
#835=AXIS2_PLACEMENT_3D('',#832,#833,#834);
#836=PLANE('',#835);
#837=ADVANCED_FACE('',(#831),#836,.T.);
#838=ORIENTED_EDGE('',*,*,#39,.T.);
#839=ORIENTED_EDGE('',*,*,#71,.T.);
#840=ORIENTED_EDGE('',*,*,#99,.T.);
#841=ORIENTED_EDGE('',*,*,#127,.T.);
#842=ORIENTED_EDGE('',*,*,#155,.T.);
#843=ORIENTED_EDGE('',*,*,#183,.T.);
#844=ORIENTED_EDGE('',*,*,#211,.T.);
#845=ORIENTED_EDGE('',*,*,#239,.T.);
#846=ORIENTED_EDGE('',*,*,#267,.T.);
#847=ORIENTED_EDGE('',*,*,#295,.T.);
#848=ORIENTED_EDGE('',*,*,#323,.T.);
#849=ORIENTED_EDGE('',*,*,#351,.T.);
#850=ORIENTED_EDGE('',*,*,#379,.T.);
#851=ORIENTED_EDGE('',*,*,#407,.T.);
#852=ORIENTED_EDGE('',*,*,#435,.T.);
#853=ORIENTED_EDGE('',*,*,#463,.T.);
#854=ORIENTED_EDGE('',*,*,#491,.T.);
#855=ORIENTED_EDGE('',*,*,#519,.T.);
#856=ORIENTED_EDGE('',*,*,#547,.T.);
#857=ORIENTED_EDGE('',*,*,#575,.T.);
#858=ORIENTED_EDGE('',*,*,#603,.T.);
#859=ORIENTED_EDGE('',*,*,#631,.T.);
#860=ORIENTED_EDGE('',*,*,#659,.T.);
#861=ORIENTED_EDGE('',*,*,#687,.T.);
#862=ORIENTED_EDGE('',*,*,#715,.T.);
#863=ORIENTED_EDGE('',*,*,#743,.T.);
#864=ORIENTED_EDGE('',*,*,#771,.T.);
#865=ORIENTED_EDGE('',*,*,#791,.F.);
#866=EDGE_LOOP('',(#838,#839,#840,#841,#842,#843,#844,#845,#846,#847,#848,#849,#850,#851,#852,#853,#854,#855,#856,#857,#858,#859,#860,#861,#862,#863,#864,#865));
#867=FACE_OUTER_BOUND('',#866,.T.);
#868=CARTESIAN_POINT('',(16.,0.,14.));
#869=DIRECTION('',(0.,0.,1.));
#870=DIRECTION('',(-0.11196,0.99371,0.));
#871=AXIS2_PLACEMENT_3D('',#868,#869,#870);
#872=PLANE('',#871);
#873=ADVANCED_FACE('',(#867),#872,.T.);
#874=CLOSED_SHELL('',(#53,#81,#109,#137,#165,#193,#221,#249,#277,#305,#333,#361,#389,#417,#445,#473,#501,#529,#557,#585,#613,#641,#669,#697,#725,#753,#781,#801,#837,#873));
#875=MANIFOLD_SOLID_BREP('',#874);
#876=COLOUR_RGB('',0.1,0.35,0.8);
#877=FILL_AREA_STYLE_COLOUR('',#876);
#878=FILL_AREA_STYLE('',(#877));
#879=SURFACE_STYLE_FILL_AREA(#878);
#880=SURFACE_SIDE_STYLE('',(#879));
#881=SURFACE_STYLE_USAGE(.BOTH.,#880);
#882=PRESENTATION_STYLE_ASSIGNMENT((#881));
#883=STYLED_ITEM('color',(#882),#875);
#884=ADVANCED_BREP_SHAPE_REPRESENTATION('',(#17,#875),#9);
#885=SHAPE_DEFINITION_REPRESENTATION(#13,#884);
#886=MECHANICAL_DESIGN_GEOMETRIC_PRESENTATION_REPRESENTATION('',(#883),#9);
#887=PRODUCT_RELATED_PRODUCT_CATEGORY('part',$,(#10));
ENDSEC;
END-ISO-10303-21;
