ISO-10303-21;
HEADER;
FILE_DESCRIPTION(('AquaSentinel R3 - planar B-rep export'),'2;1');
FILE_NAME('PV module 20 W (frame + backsheet)','2026-10-04T21:49:43',('AquaSentinel team'),('Sanjivani University'),'AquaSentinel R3 python build','AquaSentinel R3','');
FILE_SCHEMA(('AUTOMOTIVE_DESIGN { 1 0 10303 214 1 1 1 1 }'));
ENDSEC;
DATA;
#1=APPLICATION_CONTEXT('core data for automotive mechanical design processes');
#2=APPLICATION_PROTOCOL_DEFINITION('international standard','automotive_design',2000,#1);
#3=PRODUCT_CONTEXT('',#1,'mechanical');
#4=PRODUCT_DEFINITION_CONTEXT('part definition',#1,'design');
#5=(LENGTH_UNIT()NAMED_UNIT(*)SI_UNIT(.MILLI.,.METRE.));
#6=(NAMED_UNIT(*)PLANE_ANGLE_UNIT()SI_UNIT($,.RADIAN.));
#7=(NAMED_UNIT(*)SI_UNIT($,.STERADIAN.)SOLID_ANGLE_UNIT());
#8=UNCERTAINTY_MEASURE_WITH_UNIT(LENGTH_MEASURE(1.E-04),#5,'distance_accuracy_value','confusion accuracy');
#9=(GEOMETRIC_REPRESENTATION_CONTEXT(3)GLOBAL_UNCERTAINTY_ASSIGNED_CONTEXT((#8))GLOBAL_UNIT_ASSIGNED_CONTEXT((#5,#6,#7))REPRESENTATION_CONTEXT('Context','3D Context with UNIT and UNCERTAINTY'));
#10=PRODUCT('AS3-521','PV module 20 W (frame + backsheet)','',(#3));
#11=PRODUCT_DEFINITION_FORMATION('','',#10);
#12=PRODUCT_DEFINITION('design','',#11,#4);
#13=PRODUCT_DEFINITION_SHAPE('','',#12);
#14=CARTESIAN_POINT('',(0.,0.,0.));
#15=DIRECTION('',(0.,0.,1.));
#16=DIRECTION('',(1.,0.,0.));
#17=AXIS2_PLACEMENT_3D('',#14,#15,#16);
#18=CARTESIAN_POINT('',(804.05839,-175.,580.83504));
#19=VERTEX_POINT('',#18);
#20=CARTESIAN_POINT('',(808.25974,-173.24264,580.24458));
#21=VERTEX_POINT('',#20);
#22=DIRECTION('',(0.91489,0.38268,-0.12858));
#23=VECTOR('',#22,4.5922);
#24=LINE('',#18,#23);
#25=EDGE_CURVE('',#19,#21,#24,.T.);
#26=ORIENTED_EDGE('',*,*,#25,.T.);
#27=CARTESIAN_POINT('',(811.73907,-173.24264,605.00128));
#28=VERTEX_POINT('',#27);
#29=DIRECTION('',(0.13917,0.,0.99027));
#30=VECTOR('',#29,25.);
#31=LINE('',#20,#30);
#32=EDGE_CURVE('',#21,#28,#31,.T.);
#33=ORIENTED_EDGE('',*,*,#32,.T.);
#34=CARTESIAN_POINT('',(807.53772,-175.,605.59174));
#35=VERTEX_POINT('',#34);
#36=DIRECTION('',(0.91489,0.38268,-0.12858));
#37=VECTOR('',#36,4.5922);
#38=LINE('',#34,#37);
#39=EDGE_CURVE('',#35,#28,#38,.T.);
#40=ORIENTED_EDGE('',*,*,#39,.F.);
#41=DIRECTION('',(0.13917,0.,0.99027));
#42=VECTOR('',#41,25.);
#43=LINE('',#18,#42);
#44=EDGE_CURVE('',#19,#35,#43,.T.);
#45=ORIENTED_EDGE('',*,*,#44,.F.);
#46=EDGE_LOOP('',(#26,#33,#40,#45));
#47=FACE_OUTER_BOUND('',#46,.T.);
#48=CARTESIAN_POINT('',(804.05839,-175.,580.83504));
#49=DIRECTION('',(0.37896,-0.92388,-0.05326));
#50=DIRECTION('',(0.91489,0.38268,-0.12858));
#51=AXIS2_PLACEMENT_3D('',#48,#49,#50);
#52=PLANE('',#51);
#53=ADVANCED_FACE('',(#47),#52,.T.);
#54=CARTESIAN_POINT('',(810.,-169.,580.));
#55=VERTEX_POINT('',#54);
#56=DIRECTION('',(0.37896,0.92388,-0.05326));
#57=VECTOR('',#56,4.5922);
#58=LINE('',#20,#57);
#59=EDGE_CURVE('',#21,#55,#58,.T.);
#60=ORIENTED_EDGE('',*,*,#59,.T.);
#61=CARTESIAN_POINT('',(813.47933,-169.,604.7567));
#62=VERTEX_POINT('',#61);
#63=DIRECTION('',(0.13917,0.,0.99027));
#64=VECTOR('',#63,25.);
#65=LINE('',#54,#64);
#66=EDGE_CURVE('',#55,#62,#65,.T.);
#67=ORIENTED_EDGE('',*,*,#66,.T.);
#68=DIRECTION('',(0.37896,0.92388,-0.05326));
#69=VECTOR('',#68,4.5922);
#70=LINE('',#27,#69);
#71=EDGE_CURVE('',#28,#62,#70,.T.);
#72=ORIENTED_EDGE('',*,*,#71,.F.);
#73=ORIENTED_EDGE('',*,*,#32,.F.);
#74=EDGE_LOOP('',(#60,#67,#72,#73));
#75=FACE_OUTER_BOUND('',#74,.T.);
#76=CARTESIAN_POINT('',(808.25974,-173.24264,580.24458));
#77=DIRECTION('',(0.91489,-0.38268,-0.12858));
#78=DIRECTION('',(0.37896,0.92388,-0.05326));
#79=AXIS2_PLACEMENT_3D('',#76,#77,#78);
#80=PLANE('',#79);
#81=ADVANCED_FACE('',(#75),#80,.T.);
#82=CARTESIAN_POINT('',(810.,169.,580.));
#83=VERTEX_POINT('',#82);
#84=DIRECTION('',(0.,1.,0.));
#85=VECTOR('',#84,338.);
#86=LINE('',#54,#85);
#87=EDGE_CURVE('',#55,#83,#86,.T.);
#88=ORIENTED_EDGE('',*,*,#87,.T.);
#89=CARTESIAN_POINT('',(813.47933,169.,604.7567));
#90=VERTEX_POINT('',#89);
#91=DIRECTION('',(0.13917,0.,0.99027));
#92=VECTOR('',#91,25.);
#93=LINE('',#82,#92);
#94=EDGE_CURVE('',#83,#90,#93,.T.);
#95=ORIENTED_EDGE('',*,*,#94,.T.);
#96=DIRECTION('',(0.,1.,0.));
#97=VECTOR('',#96,338.);
#98=LINE('',#61,#97);
#99=EDGE_CURVE('',#62,#90,#98,.T.);
#100=ORIENTED_EDGE('',*,*,#99,.F.);
#101=ORIENTED_EDGE('',*,*,#66,.F.);
#102=EDGE_LOOP('',(#88,#95,#100,#101));
#103=FACE_OUTER_BOUND('',#102,.T.);
#104=CARTESIAN_POINT('',(810.,-169.,580.));
#105=DIRECTION('',(0.99027,0.,-0.13917));
#106=DIRECTION('',(0.,1.,0.));
#107=AXIS2_PLACEMENT_3D('',#104,#105,#106);
#108=PLANE('',#107);
#109=ADVANCED_FACE('',(#103),#108,.T.);
#110=CARTESIAN_POINT('',(808.25974,173.24264,580.24458));
#111=VERTEX_POINT('',#110);
#112=DIRECTION('',(-0.37896,0.92388,0.05326));
#113=VECTOR('',#112,4.5922);
#114=LINE('',#82,#113);
#115=EDGE_CURVE('',#83,#111,#114,.T.);
#116=ORIENTED_EDGE('',*,*,#115,.T.);
#117=CARTESIAN_POINT('',(811.73907,173.24264,605.00128));
#118=VERTEX_POINT('',#117);
#119=DIRECTION('',(0.13917,0.,0.99027));
#120=VECTOR('',#119,25.);
#121=LINE('',#110,#120);
#122=EDGE_CURVE('',#111,#118,#121,.T.);
#123=ORIENTED_EDGE('',*,*,#122,.T.);
#124=DIRECTION('',(-0.37896,0.92388,0.05326));
#125=VECTOR('',#124,4.5922);
#126=LINE('',#89,#125);
#127=EDGE_CURVE('',#90,#118,#126,.T.);
#128=ORIENTED_EDGE('',*,*,#127,.F.);
#129=ORIENTED_EDGE('',*,*,#94,.F.);
#130=EDGE_LOOP('',(#116,#123,#128,#129));
#131=FACE_OUTER_BOUND('',#130,.T.);
#132=CARTESIAN_POINT('',(810.,169.,580.));
#133=DIRECTION('',(0.91489,0.38268,-0.12858));
#134=DIRECTION('',(-0.37896,0.92388,0.05326));
#135=AXIS2_PLACEMENT_3D('',#132,#133,#134);
#136=PLANE('',#135);
#137=ADVANCED_FACE('',(#131),#136,.T.);
#138=CARTESIAN_POINT('',(804.05839,175.,580.83504));
#139=VERTEX_POINT('',#138);
#140=DIRECTION('',(-0.91489,0.38268,0.12858));
#141=VECTOR('',#140,4.5922);
#142=LINE('',#110,#141);
#143=EDGE_CURVE('',#111,#139,#142,.T.);
#144=ORIENTED_EDGE('',*,*,#143,.T.);
#145=CARTESIAN_POINT('',(807.53772,175.,605.59174));
#146=VERTEX_POINT('',#145);
#147=DIRECTION('',(0.13917,0.,0.99027));
#148=VECTOR('',#147,25.);
#149=LINE('',#138,#148);
#150=EDGE_CURVE('',#139,#146,#149,.T.);
#151=ORIENTED_EDGE('',*,*,#150,.T.);
#152=DIRECTION('',(-0.91489,0.38268,0.12858));
#153=VECTOR('',#152,4.5922);
#154=LINE('',#117,#153);
#155=EDGE_CURVE('',#118,#146,#154,.T.);
#156=ORIENTED_EDGE('',*,*,#155,.F.);
#157=ORIENTED_EDGE('',*,*,#122,.F.);
#158=EDGE_LOOP('',(#144,#151,#156,#157));
#159=FACE_OUTER_BOUND('',#158,.T.);
#160=CARTESIAN_POINT('',(808.25974,173.24264,580.24458));
#161=DIRECTION('',(0.37896,0.92388,-0.05326));
#162=DIRECTION('',(-0.91489,0.38268,0.12858));
#163=AXIS2_PLACEMENT_3D('',#160,#161,#162);
#164=PLANE('',#163);
#165=ADVANCED_FACE('',(#159),#164,.T.);
#166=CARTESIAN_POINT('',(370.32098,175.,641.79286));
#167=VERTEX_POINT('',#166);
#168=DIRECTION('',(-0.99027,0.,0.13917));
#169=VECTOR('',#168,438.);
#170=LINE('',#138,#169);
#171=EDGE_CURVE('',#139,#167,#170,.T.);
#172=ORIENTED_EDGE('',*,*,#171,.T.);
#173=CARTESIAN_POINT('',(373.80031,175.,666.54956));
#174=VERTEX_POINT('',#173);
#175=DIRECTION('',(0.13917,0.,0.99027));
#176=VECTOR('',#175,25.);
#177=LINE('',#166,#176);
#178=EDGE_CURVE('',#167,#174,#177,.T.);
#179=ORIENTED_EDGE('',*,*,#178,.T.);
#180=DIRECTION('',(-0.99027,0.,0.13917));
#181=VECTOR('',#180,438.);
#182=LINE('',#145,#181);
#183=EDGE_CURVE('',#146,#174,#182,.T.);
#184=ORIENTED_EDGE('',*,*,#183,.F.);
#185=ORIENTED_EDGE('',*,*,#150,.F.);
#186=EDGE_LOOP('',(#172,#179,#184,#185));
#187=FACE_OUTER_BOUND('',#186,.T.);
#188=CARTESIAN_POINT('',(804.05839,175.,580.83504));
#189=DIRECTION('',(0.,1.,0.));
#190=DIRECTION('',(-0.99027,0.,0.13917));
#191=AXIS2_PLACEMENT_3D('',#188,#189,#190);
#192=PLANE('',#191);
#193=ADVANCED_FACE('',(#187),#192,.T.);
#194=CARTESIAN_POINT('',(366.11963,173.24264,642.38332));
#195=VERTEX_POINT('',#194);
#196=DIRECTION('',(-0.91489,-0.38268,0.12858));
#197=VECTOR('',#196,4.5922);
#198=LINE('',#166,#197);
#199=EDGE_CURVE('',#167,#195,#198,.T.);
#200=ORIENTED_EDGE('',*,*,#199,.T.);
#201=CARTESIAN_POINT('',(369.59895,173.24264,667.14002));
#202=VERTEX_POINT('',#201);
#203=DIRECTION('',(0.13917,0.,0.99027));
#204=VECTOR('',#203,25.);
#205=LINE('',#194,#204);
#206=EDGE_CURVE('',#195,#202,#205,.T.);
#207=ORIENTED_EDGE('',*,*,#206,.T.);
#208=DIRECTION('',(-0.91489,-0.38268,0.12858));
#209=VECTOR('',#208,4.5922);
#210=LINE('',#173,#209);
#211=EDGE_CURVE('',#174,#202,#210,.T.);
#212=ORIENTED_EDGE('',*,*,#211,.F.);
#213=ORIENTED_EDGE('',*,*,#178,.F.);
#214=EDGE_LOOP('',(#200,#207,#212,#213));
#215=FACE_OUTER_BOUND('',#214,.T.);
#216=CARTESIAN_POINT('',(370.32098,175.,641.79286));
#217=DIRECTION('',(-0.37896,0.92388,0.05326));
#218=DIRECTION('',(-0.91489,-0.38268,0.12858));
#219=AXIS2_PLACEMENT_3D('',#216,#217,#218);
#220=PLANE('',#219);
#221=ADVANCED_FACE('',(#215),#220,.T.);
#222=CARTESIAN_POINT('',(364.37937,169.,642.6279));
#223=VERTEX_POINT('',#222);
#224=DIRECTION('',(-0.37896,-0.92388,0.05326));
#225=VECTOR('',#224,4.5922);
#226=LINE('',#194,#225);
#227=EDGE_CURVE('',#195,#223,#226,.T.);
#228=ORIENTED_EDGE('',*,*,#227,.T.);
#229=CARTESIAN_POINT('',(367.8587,169.,667.3846));
#230=VERTEX_POINT('',#229);
#231=DIRECTION('',(0.13917,0.,0.99027));
#232=VECTOR('',#231,25.);
#233=LINE('',#222,#232);
#234=EDGE_CURVE('',#223,#230,#233,.T.);
#235=ORIENTED_EDGE('',*,*,#234,.T.);
#236=DIRECTION('',(-0.37896,-0.92388,0.05326));
#237=VECTOR('',#236,4.5922);
#238=LINE('',#201,#237);
#239=EDGE_CURVE('',#202,#230,#238,.T.);
#240=ORIENTED_EDGE('',*,*,#239,.F.);
#241=ORIENTED_EDGE('',*,*,#206,.F.);
#242=EDGE_LOOP('',(#228,#235,#240,#241));
#243=FACE_OUTER_BOUND('',#242,.T.);
#244=CARTESIAN_POINT('',(366.11963,173.24264,642.38332));
#245=DIRECTION('',(-0.91489,0.38268,0.12858));
#246=DIRECTION('',(-0.37896,-0.92388,0.05326));
#247=AXIS2_PLACEMENT_3D('',#244,#245,#246);
#248=PLANE('',#247);
#249=ADVANCED_FACE('',(#243),#248,.T.);
#250=CARTESIAN_POINT('',(364.37937,-169.,642.6279));
#251=VERTEX_POINT('',#250);
#252=DIRECTION('',(0.,-1.,0.));
#253=VECTOR('',#252,338.);
#254=LINE('',#222,#253);
#255=EDGE_CURVE('',#223,#251,#254,.T.);
#256=ORIENTED_EDGE('',*,*,#255,.T.);
#257=CARTESIAN_POINT('',(367.8587,-169.,667.3846));
#258=VERTEX_POINT('',#257);
#259=DIRECTION('',(0.13917,0.,0.99027));
#260=VECTOR('',#259,25.);
#261=LINE('',#250,#260);
#262=EDGE_CURVE('',#251,#258,#261,.T.);
#263=ORIENTED_EDGE('',*,*,#262,.T.);
#264=DIRECTION('',(0.,-1.,0.));
#265=VECTOR('',#264,338.);
#266=LINE('',#229,#265);
#267=EDGE_CURVE('',#230,#258,#266,.T.);
#268=ORIENTED_EDGE('',*,*,#267,.F.);
#269=ORIENTED_EDGE('',*,*,#234,.F.);
#270=EDGE_LOOP('',(#256,#263,#268,#269));
#271=FACE_OUTER_BOUND('',#270,.T.);
#272=CARTESIAN_POINT('',(364.37937,169.,642.6279));
#273=DIRECTION('',(-0.99027,0.,0.13917));
#274=DIRECTION('',(0.,-1.,0.));
#275=AXIS2_PLACEMENT_3D('',#272,#273,#274);
#276=PLANE('',#275);
#277=ADVANCED_FACE('',(#271),#276,.T.);
#278=CARTESIAN_POINT('',(366.11963,-173.24264,642.38332));
#279=VERTEX_POINT('',#278);
#280=DIRECTION('',(0.37896,-0.92388,-0.05326));
#281=VECTOR('',#280,4.5922);
#282=LINE('',#250,#281);
#283=EDGE_CURVE('',#251,#279,#282,.T.);
#284=ORIENTED_EDGE('',*,*,#283,.T.);
#285=CARTESIAN_POINT('',(369.59895,-173.24264,667.14002));
#286=VERTEX_POINT('',#285);
#287=DIRECTION('',(0.13917,0.,0.99027));
#288=VECTOR('',#287,25.);
#289=LINE('',#278,#288);
#290=EDGE_CURVE('',#279,#286,#289,.T.);
#291=ORIENTED_EDGE('',*,*,#290,.T.);
#292=DIRECTION('',(0.37896,-0.92388,-0.05326));
#293=VECTOR('',#292,4.5922);
#294=LINE('',#257,#293);
#295=EDGE_CURVE('',#258,#286,#294,.T.);
#296=ORIENTED_EDGE('',*,*,#295,.F.);
#297=ORIENTED_EDGE('',*,*,#262,.F.);
#298=EDGE_LOOP('',(#284,#291,#296,#297));
#299=FACE_OUTER_BOUND('',#298,.T.);
#300=CARTESIAN_POINT('',(364.37937,-169.,642.6279));
#301=DIRECTION('',(-0.91489,-0.38268,0.12858));
#302=DIRECTION('',(0.37896,-0.92388,-0.05326));
#303=AXIS2_PLACEMENT_3D('',#300,#301,#302);
#304=PLANE('',#303);
#305=ADVANCED_FACE('',(#299),#304,.T.);
#306=CARTESIAN_POINT('',(370.32098,-175.,641.79286));
#307=VERTEX_POINT('',#306);
#308=DIRECTION('',(0.91489,-0.38268,-0.12858));
#309=VECTOR('',#308,4.5922);
#310=LINE('',#278,#309);
#311=EDGE_CURVE('',#279,#307,#310,.T.);
#312=ORIENTED_EDGE('',*,*,#311,.T.);
#313=CARTESIAN_POINT('',(373.80031,-175.,666.54956));
#314=VERTEX_POINT('',#313);
#315=DIRECTION('',(0.13917,0.,0.99027));
#316=VECTOR('',#315,25.);
#317=LINE('',#306,#316);
#318=EDGE_CURVE('',#307,#314,#317,.T.);
#319=ORIENTED_EDGE('',*,*,#318,.T.);
#320=DIRECTION('',(0.91489,-0.38268,-0.12858));
#321=VECTOR('',#320,4.5922);
#322=LINE('',#285,#321);
#323=EDGE_CURVE('',#286,#314,#322,.T.);
#324=ORIENTED_EDGE('',*,*,#323,.F.);
#325=ORIENTED_EDGE('',*,*,#290,.F.);
#326=EDGE_LOOP('',(#312,#319,#324,#325));
#327=FACE_OUTER_BOUND('',#326,.T.);
#328=CARTESIAN_POINT('',(366.11963,-173.24264,642.38332));
#329=DIRECTION('',(-0.37896,-0.92388,0.05326));
#330=DIRECTION('',(0.91489,-0.38268,-0.12858));
#331=AXIS2_PLACEMENT_3D('',#328,#329,#330);
#332=PLANE('',#331);
#333=ADVANCED_FACE('',(#327),#332,.T.);
#334=DIRECTION('',(-0.99027,0.,0.13917));
#335=VECTOR('',#334,438.);
#336=LINE('',#18,#335);
#337=EDGE_CURVE('',#19,#307,#336,.T.);
#338=ORIENTED_EDGE('',*,*,#337,.F.);
#339=ORIENTED_EDGE('',*,*,#44,.T.);
#340=DIRECTION('',(-0.99027,0.,0.13917));
#341=VECTOR('',#340,438.);
#342=LINE('',#34,#341);
#343=EDGE_CURVE('',#35,#314,#342,.T.);
#344=ORIENTED_EDGE('',*,*,#343,.T.);
#345=ORIENTED_EDGE('',*,*,#318,.F.);
#346=EDGE_LOOP('',(#338,#339,#344,#345));
#347=FACE_OUTER_BOUND('',#346,.T.);
#348=CARTESIAN_POINT('',(370.32098,-175.,641.79286));
#349=DIRECTION('',(0.,-1.,0.));
#350=DIRECTION('',(0.99027,0.,-0.13917));
#351=AXIS2_PLACEMENT_3D('',#348,#349,#350);
#352=PLANE('',#351);
#353=ADVANCED_FACE('',(#347),#352,.T.);
#354=ORIENTED_EDGE('',*,*,#39,.T.);
#355=CARTESIAN_POINT('',(793.09388,-154.41421,607.62169));
#356=VERTEX_POINT('',#355);
#357=DIRECTION('',(-0.70023,0.70711,0.09841));
#358=VECTOR('',#357,26.62742);
#359=LINE('',#27,#358);
#360=EDGE_CURVE('',#28,#356,#359,.T.);
#361=ORIENTED_EDGE('',*,*,#360,.T.);
#362=CARTESIAN_POINT('',(791.69343,-155.,607.81851));
#363=VERTEX_POINT('',#362);
#364=DIRECTION('',(0.91489,0.38268,-0.12858));
#365=VECTOR('',#364,1.53073);
#366=LINE('',#362,#365);
#367=EDGE_CURVE('',#363,#356,#366,.T.);
#368=ORIENTED_EDGE('',*,*,#367,.F.);
#369=DIRECTION('',(-0.61862,0.78087,0.08694));
#370=VECTOR('',#369,25.6125);
#371=LINE('',#34,#370);
#372=EDGE_CURVE('',#35,#363,#371,.T.);
#373=ORIENTED_EDGE('',*,*,#372,.F.);
#374=EDGE_LOOP('',(#354,#361,#368,#373));
#375=FACE_OUTER_BOUND('',#374,.T.);
#376=CARTESIAN_POINT('',(807.53772,-175.,605.59174));
#377=DIRECTION('',(0.13917,0.,0.99027));
#378=DIRECTION('',(0.91489,0.38268,-0.12858));
#379=AXIS2_PLACEMENT_3D('',#376,#377,#378);
#380=PLANE('',#379);
#381=ADVANCED_FACE('',(#375),#380,.T.);
#382=ORIENTED_EDGE('',*,*,#71,.T.);
#383=CARTESIAN_POINT('',(793.67397,-153.,607.54016));
#384=VERTEX_POINT('',#383);
#385=DIRECTION('',(-0.77327,0.6247,0.10868));
#386=VECTOR('',#385,25.6125);
#387=LINE('',#61,#386);
#388=EDGE_CURVE('',#62,#384,#387,.T.);
#389=ORIENTED_EDGE('',*,*,#388,.T.);
#390=DIRECTION('',(0.37896,0.92388,-0.05326));
#391=VECTOR('',#390,1.53073);
#392=LINE('',#355,#391);
#393=EDGE_CURVE('',#356,#384,#392,.T.);
#394=ORIENTED_EDGE('',*,*,#393,.F.);
#395=ORIENTED_EDGE('',*,*,#360,.F.);
#396=EDGE_LOOP('',(#382,#389,#394,#395));
#397=FACE_OUTER_BOUND('',#396,.T.);
#398=CARTESIAN_POINT('',(811.73907,-173.24264,605.00128));
#399=DIRECTION('',(0.13917,0.,0.99027));
#400=DIRECTION('',(0.37896,0.92388,-0.05326));
#401=AXIS2_PLACEMENT_3D('',#398,#399,#400);
#402=PLANE('',#401);
#403=ADVANCED_FACE('',(#397),#402,.T.);
#404=ORIENTED_EDGE('',*,*,#99,.T.);
#405=CARTESIAN_POINT('',(793.67397,153.,607.54016));
#406=VERTEX_POINT('',#405);
#407=DIRECTION('',(-0.77327,-0.6247,0.10868));
#408=VECTOR('',#407,25.6125);
#409=LINE('',#89,#408);
#410=EDGE_CURVE('',#90,#406,#409,.T.);
#411=ORIENTED_EDGE('',*,*,#410,.T.);
#412=DIRECTION('',(0.,1.,0.));
#413=VECTOR('',#412,306.);
#414=LINE('',#383,#413);
#415=EDGE_CURVE('',#384,#406,#414,.T.);
#416=ORIENTED_EDGE('',*,*,#415,.F.);
#417=ORIENTED_EDGE('',*,*,#388,.F.);
#418=EDGE_LOOP('',(#404,#411,#416,#417));
#419=FACE_OUTER_BOUND('',#418,.T.);
#420=CARTESIAN_POINT('',(813.47933,-169.,604.7567));
#421=DIRECTION('',(0.13917,0.,0.99027));
#422=DIRECTION('',(0.,1.,0.));
#423=AXIS2_PLACEMENT_3D('',#420,#421,#422);
#424=PLANE('',#423);
#425=ADVANCED_FACE('',(#419),#424,.T.);
#426=ORIENTED_EDGE('',*,*,#127,.T.);
#427=CARTESIAN_POINT('',(793.09388,154.41421,607.62169));
#428=VERTEX_POINT('',#427);
#429=DIRECTION('',(-0.70023,-0.70711,0.09841));
#430=VECTOR('',#429,26.62742);
#431=LINE('',#117,#430);
#432=EDGE_CURVE('',#118,#428,#431,.T.);
#433=ORIENTED_EDGE('',*,*,#432,.T.);
#434=DIRECTION('',(-0.37896,0.92388,0.05326));
#435=VECTOR('',#434,1.53073);
#436=LINE('',#405,#435);
#437=EDGE_CURVE('',#406,#428,#436,.T.);
#438=ORIENTED_EDGE('',*,*,#437,.F.);
#439=ORIENTED_EDGE('',*,*,#410,.F.);
#440=EDGE_LOOP('',(#426,#433,#438,#439));
#441=FACE_OUTER_BOUND('',#440,.T.);
#442=CARTESIAN_POINT('',(813.47933,169.,604.7567));
#443=DIRECTION('',(0.13917,0.,0.99027));
#444=DIRECTION('',(-0.37896,0.92388,0.05326));
#445=AXIS2_PLACEMENT_3D('',#442,#443,#444);
#446=PLANE('',#445);
#447=ADVANCED_FACE('',(#441),#446,.T.);
#448=ORIENTED_EDGE('',*,*,#155,.T.);
#449=CARTESIAN_POINT('',(791.69343,155.,607.81851));
#450=VERTEX_POINT('',#449);
#451=DIRECTION('',(-0.61862,-0.78087,0.08694));
#452=VECTOR('',#451,25.6125);
#453=LINE('',#145,#452);
#454=EDGE_CURVE('',#146,#450,#453,.T.);
#455=ORIENTED_EDGE('',*,*,#454,.T.);
#456=DIRECTION('',(-0.91489,0.38268,0.12858));
#457=VECTOR('',#456,1.53073);
#458=LINE('',#427,#457);
#459=EDGE_CURVE('',#428,#450,#458,.T.);
#460=ORIENTED_EDGE('',*,*,#459,.F.);
#461=ORIENTED_EDGE('',*,*,#432,.F.);
#462=EDGE_LOOP('',(#448,#455,#460,#461));
#463=FACE_OUTER_BOUND('',#462,.T.);
#464=CARTESIAN_POINT('',(811.73907,173.24264,605.00128));
#465=DIRECTION('',(0.13917,0.,0.99027));
#466=DIRECTION('',(-0.91489,0.38268,0.12858));
#467=AXIS2_PLACEMENT_3D('',#464,#465,#466);
#468=PLANE('',#467);
#469=ADVANCED_FACE('',(#463),#468,.T.);
#470=ORIENTED_EDGE('',*,*,#183,.T.);
#471=CARTESIAN_POINT('',(389.64459,155.,664.32279));
#472=VERTEX_POINT('',#471);
#473=DIRECTION('',(0.61862,-0.78087,-0.08694));
#474=VECTOR('',#473,25.6125);
#475=LINE('',#173,#474);
#476=EDGE_CURVE('',#174,#472,#475,.T.);
#477=ORIENTED_EDGE('',*,*,#476,.T.);
#478=DIRECTION('',(-0.99027,0.,0.13917));
#479=VECTOR('',#478,406.);
#480=LINE('',#449,#479);
#481=EDGE_CURVE('',#450,#472,#480,.T.);
#482=ORIENTED_EDGE('',*,*,#481,.F.);
#483=ORIENTED_EDGE('',*,*,#454,.F.);
#484=EDGE_LOOP('',(#470,#477,#482,#483));
#485=FACE_OUTER_BOUND('',#484,.T.);
#486=CARTESIAN_POINT('',(807.53772,175.,605.59174));
#487=DIRECTION('',(0.13917,0.,0.99027));
#488=DIRECTION('',(-0.99027,0.,0.13917));
#489=AXIS2_PLACEMENT_3D('',#486,#487,#488);
#490=PLANE('',#489);
#491=ADVANCED_FACE('',(#485),#490,.T.);
#492=ORIENTED_EDGE('',*,*,#211,.T.);
#493=CARTESIAN_POINT('',(388.24414,154.41421,664.51961));
#494=VERTEX_POINT('',#493);
#495=DIRECTION('',(0.70023,-0.70711,-0.09841));
#496=VECTOR('',#495,26.62742);
#497=LINE('',#201,#496);
#498=EDGE_CURVE('',#202,#494,#497,.T.);
#499=ORIENTED_EDGE('',*,*,#498,.T.);
#500=DIRECTION('',(-0.91489,-0.38268,0.12858));
#501=VECTOR('',#500,1.53073);
#502=LINE('',#471,#501);
#503=EDGE_CURVE('',#472,#494,#502,.T.);
#504=ORIENTED_EDGE('',*,*,#503,.F.);
#505=ORIENTED_EDGE('',*,*,#476,.F.);
#506=EDGE_LOOP('',(#492,#499,#504,#505));
#507=FACE_OUTER_BOUND('',#506,.T.);
#508=CARTESIAN_POINT('',(373.80031,175.,666.54956));
#509=DIRECTION('',(0.13917,0.,0.99027));
#510=DIRECTION('',(-0.91489,-0.38268,0.12858));
#511=AXIS2_PLACEMENT_3D('',#508,#509,#510);
#512=PLANE('',#511);
#513=ADVANCED_FACE('',(#507),#512,.T.);
#514=ORIENTED_EDGE('',*,*,#239,.T.);
#515=CARTESIAN_POINT('',(387.66406,153.,664.60114));
#516=VERTEX_POINT('',#515);
#517=DIRECTION('',(0.77327,-0.6247,-0.10868));
#518=VECTOR('',#517,25.6125);
#519=LINE('',#229,#518);
#520=EDGE_CURVE('',#230,#516,#519,.T.);
#521=ORIENTED_EDGE('',*,*,#520,.T.);
#522=DIRECTION('',(-0.37896,-0.92388,0.05326));
#523=VECTOR('',#522,1.53073);
#524=LINE('',#493,#523);
#525=EDGE_CURVE('',#494,#516,#524,.T.);
#526=ORIENTED_EDGE('',*,*,#525,.F.);
#527=ORIENTED_EDGE('',*,*,#498,.F.);
#528=EDGE_LOOP('',(#514,#521,#526,#527));
#529=FACE_OUTER_BOUND('',#528,.T.);
#530=CARTESIAN_POINT('',(369.59895,173.24264,667.14002));
#531=DIRECTION('',(0.13917,0.,0.99027));
#532=DIRECTION('',(-0.37896,-0.92388,0.05326));
#533=AXIS2_PLACEMENT_3D('',#530,#531,#532);
#534=PLANE('',#533);
#535=ADVANCED_FACE('',(#529),#534,.T.);
#536=ORIENTED_EDGE('',*,*,#267,.T.);
#537=CARTESIAN_POINT('',(387.66406,-153.,664.60114));
#538=VERTEX_POINT('',#537);
#539=DIRECTION('',(0.77327,0.6247,-0.10868));
#540=VECTOR('',#539,25.6125);
#541=LINE('',#257,#540);
#542=EDGE_CURVE('',#258,#538,#541,.T.);
#543=ORIENTED_EDGE('',*,*,#542,.T.);
#544=DIRECTION('',(0.,-1.,0.));
#545=VECTOR('',#544,306.);
#546=LINE('',#515,#545);
#547=EDGE_CURVE('',#516,#538,#546,.T.);
#548=ORIENTED_EDGE('',*,*,#547,.F.);
#549=ORIENTED_EDGE('',*,*,#520,.F.);
#550=EDGE_LOOP('',(#536,#543,#548,#549));
#551=FACE_OUTER_BOUND('',#550,.T.);
#552=CARTESIAN_POINT('',(367.8587,169.,667.3846));
#553=DIRECTION('',(0.13917,0.,0.99027));
#554=DIRECTION('',(0.,-1.,0.));
#555=AXIS2_PLACEMENT_3D('',#552,#553,#554);
#556=PLANE('',#555);
#557=ADVANCED_FACE('',(#551),#556,.T.);
#558=ORIENTED_EDGE('',*,*,#295,.T.);
#559=CARTESIAN_POINT('',(388.24414,-154.41421,664.51961));
#560=VERTEX_POINT('',#559);
#561=DIRECTION('',(0.70023,0.70711,-0.09841));
#562=VECTOR('',#561,26.62742);
#563=LINE('',#285,#562);
#564=EDGE_CURVE('',#286,#560,#563,.T.);
#565=ORIENTED_EDGE('',*,*,#564,.T.);
#566=DIRECTION('',(0.37896,-0.92388,-0.05326));
#567=VECTOR('',#566,1.53073);
#568=LINE('',#537,#567);
#569=EDGE_CURVE('',#538,#560,#568,.T.);
#570=ORIENTED_EDGE('',*,*,#569,.F.);
#571=ORIENTED_EDGE('',*,*,#542,.F.);
#572=EDGE_LOOP('',(#558,#565,#570,#571));
#573=FACE_OUTER_BOUND('',#572,.T.);
#574=CARTESIAN_POINT('',(367.8587,-169.,667.3846));
#575=DIRECTION('',(0.13917,0.,0.99027));
#576=DIRECTION('',(0.37896,-0.92388,-0.05326));
#577=AXIS2_PLACEMENT_3D('',#574,#575,#576);
#578=PLANE('',#577);
#579=ADVANCED_FACE('',(#573),#578,.T.);
#580=ORIENTED_EDGE('',*,*,#323,.T.);
#581=CARTESIAN_POINT('',(389.64459,-155.,664.32279));
#582=VERTEX_POINT('',#581);
#583=DIRECTION('',(0.61862,0.78087,-0.08694));
#584=VECTOR('',#583,25.6125);
#585=LINE('',#313,#584);
#586=EDGE_CURVE('',#314,#582,#585,.T.);
#587=ORIENTED_EDGE('',*,*,#586,.T.);
#588=DIRECTION('',(0.91489,-0.38268,-0.12858));
#589=VECTOR('',#588,1.53073);
#590=LINE('',#559,#589);
#591=EDGE_CURVE('',#560,#582,#590,.T.);
#592=ORIENTED_EDGE('',*,*,#591,.F.);
#593=ORIENTED_EDGE('',*,*,#564,.F.);
#594=EDGE_LOOP('',(#580,#587,#592,#593));
#595=FACE_OUTER_BOUND('',#594,.T.);
#596=CARTESIAN_POINT('',(369.59895,-173.24264,667.14002));
#597=DIRECTION('',(0.13917,0.,0.99027));
#598=DIRECTION('',(0.91489,-0.38268,-0.12858));
#599=AXIS2_PLACEMENT_3D('',#596,#597,#598);
#600=PLANE('',#599);
#601=ADVANCED_FACE('',(#595),#600,.T.);
#602=ORIENTED_EDGE('',*,*,#343,.F.);
#603=ORIENTED_EDGE('',*,*,#372,.T.);
#604=DIRECTION('',(-0.99027,0.,0.13917));
#605=VECTOR('',#604,406.);
#606=LINE('',#362,#605);
#607=EDGE_CURVE('',#363,#582,#606,.T.);
#608=ORIENTED_EDGE('',*,*,#607,.T.);
#609=ORIENTED_EDGE('',*,*,#586,.F.);
#610=EDGE_LOOP('',(#602,#603,#608,#609));
#611=FACE_OUTER_BOUND('',#610,.T.);
#612=CARTESIAN_POINT('',(373.80031,-175.,666.54956));
#613=DIRECTION('',(0.13917,0.,0.99027));
#614=DIRECTION('',(0.99027,0.,-0.13917));
#615=AXIS2_PLACEMENT_3D('',#612,#613,#614);
#616=PLANE('',#615);
#617=ADVANCED_FACE('',(#611),#616,.T.);
#618=ORIENTED_EDGE('',*,*,#367,.T.);
#619=CARTESIAN_POINT('',(789.61455,-154.41421,582.86499));
#620=VERTEX_POINT('',#619);
#621=DIRECTION('',(-0.13917,0.,-0.99027));
#622=VECTOR('',#621,25.);
#623=LINE('',#355,#622);
#624=EDGE_CURVE('',#356,#620,#623,.T.);
#625=ORIENTED_EDGE('',*,*,#624,.T.);
#626=CARTESIAN_POINT('',(788.2141,-155.,583.06181));
#627=VERTEX_POINT('',#626);
#628=DIRECTION('',(0.91489,0.38268,-0.12858));
#629=VECTOR('',#628,1.53073);
#630=LINE('',#626,#629);
#631=EDGE_CURVE('',#627,#620,#630,.T.);
#632=ORIENTED_EDGE('',*,*,#631,.F.);
#633=DIRECTION('',(-0.13917,0.,-0.99027));
#634=VECTOR('',#633,25.);
#635=LINE('',#362,#634);
#636=EDGE_CURVE('',#363,#627,#635,.T.);
#637=ORIENTED_EDGE('',*,*,#636,.F.);
#638=EDGE_LOOP('',(#618,#625,#632,#637));
#639=FACE_OUTER_BOUND('',#638,.T.);
#640=CARTESIAN_POINT('',(791.69343,-155.,607.81851));
#641=DIRECTION('',(-0.37896,0.92388,0.05326));
#642=DIRECTION('',(0.91489,0.38268,-0.12858));
#643=AXIS2_PLACEMENT_3D('',#640,#641,#642);
#644=PLANE('',#643);
#645=ADVANCED_FACE('',(#639),#644,.T.);
#646=ORIENTED_EDGE('',*,*,#393,.T.);
#647=CARTESIAN_POINT('',(790.19464,-153.,582.78346));
#648=VERTEX_POINT('',#647);
#649=DIRECTION('',(-0.13917,0.,-0.99027));
#650=VECTOR('',#649,25.);
#651=LINE('',#383,#650);
#652=EDGE_CURVE('',#384,#648,#651,.T.);
#653=ORIENTED_EDGE('',*,*,#652,.T.);
#654=DIRECTION('',(0.37896,0.92388,-0.05326));
#655=VECTOR('',#654,1.53073);
#656=LINE('',#619,#655);
#657=EDGE_CURVE('',#620,#648,#656,.T.);
#658=ORIENTED_EDGE('',*,*,#657,.F.);
#659=ORIENTED_EDGE('',*,*,#624,.F.);
#660=EDGE_LOOP('',(#646,#653,#658,#659));
#661=FACE_OUTER_BOUND('',#660,.T.);
#662=CARTESIAN_POINT('',(793.09388,-154.41421,607.62169));
#663=DIRECTION('',(-0.91489,0.38268,0.12858));
#664=DIRECTION('',(0.37896,0.92388,-0.05326));
#665=AXIS2_PLACEMENT_3D('',#662,#663,#664);
#666=PLANE('',#665);
#667=ADVANCED_FACE('',(#661),#666,.T.);
#668=ORIENTED_EDGE('',*,*,#415,.T.);
#669=CARTESIAN_POINT('',(790.19464,153.,582.78346));
#670=VERTEX_POINT('',#669);
#671=DIRECTION('',(-0.13917,0.,-0.99027));
#672=VECTOR('',#671,25.);
#673=LINE('',#405,#672);
#674=EDGE_CURVE('',#406,#670,#673,.T.);
#675=ORIENTED_EDGE('',*,*,#674,.T.);
#676=DIRECTION('',(0.,1.,0.));
#677=VECTOR('',#676,306.);
#678=LINE('',#647,#677);
#679=EDGE_CURVE('',#648,#670,#678,.T.);
#680=ORIENTED_EDGE('',*,*,#679,.F.);
#681=ORIENTED_EDGE('',*,*,#652,.F.);
#682=EDGE_LOOP('',(#668,#675,#680,#681));
#683=FACE_OUTER_BOUND('',#682,.T.);
#684=CARTESIAN_POINT('',(793.67397,-153.,607.54016));
#685=DIRECTION('',(-0.99027,0.,0.13917));
#686=DIRECTION('',(0.,1.,0.));
#687=AXIS2_PLACEMENT_3D('',#684,#685,#686);
#688=PLANE('',#687);
#689=ADVANCED_FACE('',(#683),#688,.T.);
#690=ORIENTED_EDGE('',*,*,#437,.T.);
#691=CARTESIAN_POINT('',(789.61455,154.41421,582.86499));
#692=VERTEX_POINT('',#691);
#693=DIRECTION('',(-0.13917,0.,-0.99027));
#694=VECTOR('',#693,25.);
#695=LINE('',#427,#694);
#696=EDGE_CURVE('',#428,#692,#695,.T.);
#697=ORIENTED_EDGE('',*,*,#696,.T.);
#698=DIRECTION('',(-0.37896,0.92388,0.05326));
#699=VECTOR('',#698,1.53073);
#700=LINE('',#669,#699);
#701=EDGE_CURVE('',#670,#692,#700,.T.);
#702=ORIENTED_EDGE('',*,*,#701,.F.);
#703=ORIENTED_EDGE('',*,*,#674,.F.);
#704=EDGE_LOOP('',(#690,#697,#702,#703));
#705=FACE_OUTER_BOUND('',#704,.T.);
#706=CARTESIAN_POINT('',(793.67397,153.,607.54016));
#707=DIRECTION('',(-0.91489,-0.38268,0.12858));
#708=DIRECTION('',(-0.37896,0.92388,0.05326));
#709=AXIS2_PLACEMENT_3D('',#706,#707,#708);
#710=PLANE('',#709);
#711=ADVANCED_FACE('',(#705),#710,.T.);
#712=ORIENTED_EDGE('',*,*,#459,.T.);
#713=CARTESIAN_POINT('',(788.2141,155.,583.06181));
#714=VERTEX_POINT('',#713);
#715=DIRECTION('',(-0.13917,0.,-0.99027));
#716=VECTOR('',#715,25.);
#717=LINE('',#449,#716);
#718=EDGE_CURVE('',#450,#714,#717,.T.);
#719=ORIENTED_EDGE('',*,*,#718,.T.);
#720=DIRECTION('',(-0.91489,0.38268,0.12858));
#721=VECTOR('',#720,1.53073);
#722=LINE('',#691,#721);
#723=EDGE_CURVE('',#692,#714,#722,.T.);
#724=ORIENTED_EDGE('',*,*,#723,.F.);
#725=ORIENTED_EDGE('',*,*,#696,.F.);
#726=EDGE_LOOP('',(#712,#719,#724,#725));
#727=FACE_OUTER_BOUND('',#726,.T.);
#728=CARTESIAN_POINT('',(793.09388,154.41421,607.62169));
#729=DIRECTION('',(-0.37896,-0.92388,0.05326));
#730=DIRECTION('',(-0.91489,0.38268,0.12858));
#731=AXIS2_PLACEMENT_3D('',#728,#729,#730);
#732=PLANE('',#731);
#733=ADVANCED_FACE('',(#727),#732,.T.);
#734=ORIENTED_EDGE('',*,*,#481,.T.);
#735=CARTESIAN_POINT('',(386.16527,155.,639.56609));
#736=VERTEX_POINT('',#735);
#737=DIRECTION('',(-0.13917,0.,-0.99027));
#738=VECTOR('',#737,25.);
#739=LINE('',#471,#738);
#740=EDGE_CURVE('',#472,#736,#739,.T.);
#741=ORIENTED_EDGE('',*,*,#740,.T.);
#742=DIRECTION('',(-0.99027,0.,0.13917));
#743=VECTOR('',#742,406.);
#744=LINE('',#713,#743);
#745=EDGE_CURVE('',#714,#736,#744,.T.);
#746=ORIENTED_EDGE('',*,*,#745,.F.);
#747=ORIENTED_EDGE('',*,*,#718,.F.);
#748=EDGE_LOOP('',(#734,#741,#746,#747));
#749=FACE_OUTER_BOUND('',#748,.T.);
#750=CARTESIAN_POINT('',(791.69343,155.,607.81851));
#751=DIRECTION('',(0.,-1.,0.));
#752=DIRECTION('',(-0.99027,0.,0.13917));
#753=AXIS2_PLACEMENT_3D('',#750,#751,#752);
#754=PLANE('',#753);
#755=ADVANCED_FACE('',(#749),#754,.T.);
#756=ORIENTED_EDGE('',*,*,#503,.T.);
#757=CARTESIAN_POINT('',(384.76482,154.41421,639.76291));
#758=VERTEX_POINT('',#757);
#759=DIRECTION('',(-0.13917,0.,-0.99027));
#760=VECTOR('',#759,25.);
#761=LINE('',#493,#760);
#762=EDGE_CURVE('',#494,#758,#761,.T.);
#763=ORIENTED_EDGE('',*,*,#762,.T.);
#764=DIRECTION('',(-0.91489,-0.38268,0.12858));
#765=VECTOR('',#764,1.53073);
#766=LINE('',#735,#765);
#767=EDGE_CURVE('',#736,#758,#766,.T.);
#768=ORIENTED_EDGE('',*,*,#767,.F.);
#769=ORIENTED_EDGE('',*,*,#740,.F.);
#770=EDGE_LOOP('',(#756,#763,#768,#769));
#771=FACE_OUTER_BOUND('',#770,.T.);
#772=CARTESIAN_POINT('',(389.64459,155.,664.32279));
#773=DIRECTION('',(0.37896,-0.92388,-0.05326));
#774=DIRECTION('',(-0.91489,-0.38268,0.12858));
#775=AXIS2_PLACEMENT_3D('',#772,#773,#774);
#776=PLANE('',#775);
#777=ADVANCED_FACE('',(#771),#776,.T.);
#778=ORIENTED_EDGE('',*,*,#525,.T.);
#779=CARTESIAN_POINT('',(384.18473,153.,639.84443));
#780=VERTEX_POINT('',#779);
#781=DIRECTION('',(-0.13917,0.,-0.99027));
#782=VECTOR('',#781,25.);
#783=LINE('',#515,#782);
#784=EDGE_CURVE('',#516,#780,#783,.T.);
#785=ORIENTED_EDGE('',*,*,#784,.T.);
#786=DIRECTION('',(-0.37896,-0.92388,0.05326));
#787=VECTOR('',#786,1.53073);
#788=LINE('',#757,#787);
#789=EDGE_CURVE('',#758,#780,#788,.T.);
#790=ORIENTED_EDGE('',*,*,#789,.F.);
#791=ORIENTED_EDGE('',*,*,#762,.F.);
#792=EDGE_LOOP('',(#778,#785,#790,#791));
#793=FACE_OUTER_BOUND('',#792,.T.);
#794=CARTESIAN_POINT('',(388.24414,154.41421,664.51961));
#795=DIRECTION('',(0.91489,-0.38268,-0.12858));
#796=DIRECTION('',(-0.37896,-0.92388,0.05326));
#797=AXIS2_PLACEMENT_3D('',#794,#795,#796);
#798=PLANE('',#797);
#799=ADVANCED_FACE('',(#793),#798,.T.);
#800=ORIENTED_EDGE('',*,*,#547,.T.);
#801=CARTESIAN_POINT('',(384.18473,-153.,639.84443));
#802=VERTEX_POINT('',#801);
#803=DIRECTION('',(-0.13917,0.,-0.99027));
#804=VECTOR('',#803,25.);
#805=LINE('',#537,#804);
#806=EDGE_CURVE('',#538,#802,#805,.T.);
#807=ORIENTED_EDGE('',*,*,#806,.T.);
#808=DIRECTION('',(0.,-1.,0.));
#809=VECTOR('',#808,306.);
#810=LINE('',#779,#809);
#811=EDGE_CURVE('',#780,#802,#810,.T.);
#812=ORIENTED_EDGE('',*,*,#811,.F.);
#813=ORIENTED_EDGE('',*,*,#784,.F.);
#814=EDGE_LOOP('',(#800,#807,#812,#813));
#815=FACE_OUTER_BOUND('',#814,.T.);
#816=CARTESIAN_POINT('',(387.66406,153.,664.60114));
#817=DIRECTION('',(0.99027,0.,-0.13917));
#818=DIRECTION('',(0.,-1.,0.));
#819=AXIS2_PLACEMENT_3D('',#816,#817,#818);
#820=PLANE('',#819);
#821=ADVANCED_FACE('',(#815),#820,.T.);
#822=ORIENTED_EDGE('',*,*,#569,.T.);
#823=CARTESIAN_POINT('',(384.76482,-154.41421,639.76291));
#824=VERTEX_POINT('',#823);
#825=DIRECTION('',(-0.13917,0.,-0.99027));
#826=VECTOR('',#825,25.);
#827=LINE('',#559,#826);
#828=EDGE_CURVE('',#560,#824,#827,.T.);
#829=ORIENTED_EDGE('',*,*,#828,.T.);
#830=DIRECTION('',(0.37896,-0.92388,-0.05326));
#831=VECTOR('',#830,1.53073);
#832=LINE('',#801,#831);
#833=EDGE_CURVE('',#802,#824,#832,.T.);
#834=ORIENTED_EDGE('',*,*,#833,.F.);
#835=ORIENTED_EDGE('',*,*,#806,.F.);
#836=EDGE_LOOP('',(#822,#829,#834,#835));
#837=FACE_OUTER_BOUND('',#836,.T.);
#838=CARTESIAN_POINT('',(387.66406,-153.,664.60114));
#839=DIRECTION('',(0.91489,0.38268,-0.12858));
#840=DIRECTION('',(0.37896,-0.92388,-0.05326));
#841=AXIS2_PLACEMENT_3D('',#838,#839,#840);
#842=PLANE('',#841);
#843=ADVANCED_FACE('',(#837),#842,.T.);
#844=ORIENTED_EDGE('',*,*,#591,.T.);
#845=CARTESIAN_POINT('',(386.16527,-155.,639.56609));
#846=VERTEX_POINT('',#845);
#847=DIRECTION('',(-0.13917,0.,-0.99027));
#848=VECTOR('',#847,25.);
#849=LINE('',#581,#848);
#850=EDGE_CURVE('',#582,#846,#849,.T.);
#851=ORIENTED_EDGE('',*,*,#850,.T.);
#852=DIRECTION('',(0.91489,-0.38268,-0.12858));
#853=VECTOR('',#852,1.53073);
#854=LINE('',#823,#853);
#855=EDGE_CURVE('',#824,#846,#854,.T.);
#856=ORIENTED_EDGE('',*,*,#855,.F.);
#857=ORIENTED_EDGE('',*,*,#828,.F.);
#858=EDGE_LOOP('',(#844,#851,#856,#857));
#859=FACE_OUTER_BOUND('',#858,.T.);
#860=CARTESIAN_POINT('',(388.24414,-154.41421,664.51961));
#861=DIRECTION('',(0.37896,0.92388,-0.05326));
#862=DIRECTION('',(0.91489,-0.38268,-0.12858));
#863=AXIS2_PLACEMENT_3D('',#860,#861,#862);
#864=PLANE('',#863);
#865=ADVANCED_FACE('',(#859),#864,.T.);
#866=ORIENTED_EDGE('',*,*,#607,.F.);
#867=ORIENTED_EDGE('',*,*,#636,.T.);
#868=DIRECTION('',(-0.99027,0.,0.13917));
#869=VECTOR('',#868,406.);
#870=LINE('',#626,#869);
#871=EDGE_CURVE('',#627,#846,#870,.T.);
#872=ORIENTED_EDGE('',*,*,#871,.T.);
#873=ORIENTED_EDGE('',*,*,#850,.F.);
#874=EDGE_LOOP('',(#866,#867,#872,#873));
#875=FACE_OUTER_BOUND('',#874,.T.);
#876=CARTESIAN_POINT('',(389.64459,-155.,664.32279));
#877=DIRECTION('',(0.,1.,0.));
#878=DIRECTION('',(0.99027,0.,-0.13917));
#879=AXIS2_PLACEMENT_3D('',#876,#877,#878);
#880=PLANE('',#879);
#881=ADVANCED_FACE('',(#875),#880,.T.);
#882=ORIENTED_EDGE('',*,*,#631,.T.);
#883=DIRECTION('',(-0.70023,0.70711,0.09841));
#884=VECTOR('',#883,26.62742);
#885=LINE('',#20,#884);
#886=EDGE_CURVE('',#21,#620,#885,.T.);
#887=ORIENTED_EDGE('',*,*,#886,.F.);
#888=ORIENTED_EDGE('',*,*,#25,.F.);
#889=DIRECTION('',(-0.61862,0.78087,0.08694));
#890=VECTOR('',#889,25.6125);
#891=LINE('',#18,#890);
#892=EDGE_CURVE('',#19,#627,#891,.T.);
#893=ORIENTED_EDGE('',*,*,#892,.T.);
#894=EDGE_LOOP('',(#882,#887,#888,#893));
#895=FACE_OUTER_BOUND('',#894,.T.);
#896=CARTESIAN_POINT('',(788.2141,-155.,583.06181));
#897=DIRECTION('',(-0.13917,0.,-0.99027));
#898=DIRECTION('',(0.91489,0.38268,-0.12858));
#899=AXIS2_PLACEMENT_3D('',#896,#897,#898);
#900=PLANE('',#899);
#901=ADVANCED_FACE('',(#895),#900,.T.);
#902=ORIENTED_EDGE('',*,*,#657,.T.);
#903=DIRECTION('',(-0.77327,0.6247,0.10868));
#904=VECTOR('',#903,25.6125);
#905=LINE('',#54,#904);
#906=EDGE_CURVE('',#55,#648,#905,.T.);
#907=ORIENTED_EDGE('',*,*,#906,.F.);
#908=ORIENTED_EDGE('',*,*,#59,.F.);
#909=ORIENTED_EDGE('',*,*,#886,.T.);
#910=EDGE_LOOP('',(#902,#907,#908,#909));
#911=FACE_OUTER_BOUND('',#910,.T.);
#912=CARTESIAN_POINT('',(789.61455,-154.41421,582.86499));
#913=DIRECTION('',(-0.13917,0.,-0.99027));
#914=DIRECTION('',(0.37896,0.92388,-0.05326));
#915=AXIS2_PLACEMENT_3D('',#912,#913,#914);
#916=PLANE('',#915);
#917=ADVANCED_FACE('',(#911),#916,.T.);
#918=ORIENTED_EDGE('',*,*,#679,.T.);
#919=DIRECTION('',(-0.77327,-0.6247,0.10868));
#920=VECTOR('',#919,25.6125);
#921=LINE('',#82,#920);
#922=EDGE_CURVE('',#83,#670,#921,.T.);
#923=ORIENTED_EDGE('',*,*,#922,.F.);
#924=ORIENTED_EDGE('',*,*,#87,.F.);
#925=ORIENTED_EDGE('',*,*,#906,.T.);
#926=EDGE_LOOP('',(#918,#923,#924,#925));
#927=FACE_OUTER_BOUND('',#926,.T.);
#928=CARTESIAN_POINT('',(790.19464,-153.,582.78346));
#929=DIRECTION('',(-0.13917,0.,-0.99027));
#930=DIRECTION('',(0.,1.,0.));
#931=AXIS2_PLACEMENT_3D('',#928,#929,#930);
#932=PLANE('',#931);
#933=ADVANCED_FACE('',(#927),#932,.T.);
#934=ORIENTED_EDGE('',*,*,#701,.T.);
#935=DIRECTION('',(-0.70023,-0.70711,0.09841));
#936=VECTOR('',#935,26.62742);
#937=LINE('',#110,#936);
#938=EDGE_CURVE('',#111,#692,#937,.T.);
#939=ORIENTED_EDGE('',*,*,#938,.F.);
#940=ORIENTED_EDGE('',*,*,#115,.F.);
#941=ORIENTED_EDGE('',*,*,#922,.T.);
#942=EDGE_LOOP('',(#934,#939,#940,#941));
#943=FACE_OUTER_BOUND('',#942,.T.);
#944=CARTESIAN_POINT('',(790.19464,153.,582.78346));
#945=DIRECTION('',(-0.13917,0.,-0.99027));
#946=DIRECTION('',(-0.37896,0.92388,0.05326));
#947=AXIS2_PLACEMENT_3D('',#944,#945,#946);
#948=PLANE('',#947);
#949=ADVANCED_FACE('',(#943),#948,.T.);
#950=ORIENTED_EDGE('',*,*,#723,.T.);
#951=DIRECTION('',(-0.61862,-0.78087,0.08694));
#952=VECTOR('',#951,25.6125);
#953=LINE('',#138,#952);
#954=EDGE_CURVE('',#139,#714,#953,.T.);
#955=ORIENTED_EDGE('',*,*,#954,.F.);
#956=ORIENTED_EDGE('',*,*,#143,.F.);
#957=ORIENTED_EDGE('',*,*,#938,.T.);
#958=EDGE_LOOP('',(#950,#955,#956,#957));
#959=FACE_OUTER_BOUND('',#958,.T.);
#960=CARTESIAN_POINT('',(789.61455,154.41421,582.86499));
#961=DIRECTION('',(-0.13917,0.,-0.99027));
#962=DIRECTION('',(-0.91489,0.38268,0.12858));
#963=AXIS2_PLACEMENT_3D('',#960,#961,#962);
#964=PLANE('',#963);
#965=ADVANCED_FACE('',(#959),#964,.T.);
#966=ORIENTED_EDGE('',*,*,#745,.T.);
#967=DIRECTION('',(0.61862,-0.78087,-0.08694));
#968=VECTOR('',#967,25.6125);
#969=LINE('',#166,#968);
#970=EDGE_CURVE('',#167,#736,#969,.T.);
#971=ORIENTED_EDGE('',*,*,#970,.F.);
#972=ORIENTED_EDGE('',*,*,#171,.F.);
#973=ORIENTED_EDGE('',*,*,#954,.T.);
#974=EDGE_LOOP('',(#966,#971,#972,#973));
#975=FACE_OUTER_BOUND('',#974,.T.);
#976=CARTESIAN_POINT('',(788.2141,155.,583.06181));
#977=DIRECTION('',(-0.13917,0.,-0.99027));
#978=DIRECTION('',(-0.99027,0.,0.13917));
#979=AXIS2_PLACEMENT_3D('',#976,#977,#978);
#980=PLANE('',#979);
#981=ADVANCED_FACE('',(#975),#980,.T.);
#982=ORIENTED_EDGE('',*,*,#767,.T.);
#983=DIRECTION('',(0.70023,-0.70711,-0.09841));
#984=VECTOR('',#983,26.62742);
#985=LINE('',#194,#984);
#986=EDGE_CURVE('',#195,#758,#985,.T.);
#987=ORIENTED_EDGE('',*,*,#986,.F.);
#988=ORIENTED_EDGE('',*,*,#199,.F.);
#989=ORIENTED_EDGE('',*,*,#970,.T.);
#990=EDGE_LOOP('',(#982,#987,#988,#989));
#991=FACE_OUTER_BOUND('',#990,.T.);
#992=CARTESIAN_POINT('',(386.16527,155.,639.56609));
#993=DIRECTION('',(-0.13917,0.,-0.99027));
#994=DIRECTION('',(-0.91489,-0.38268,0.12858));
#995=AXIS2_PLACEMENT_3D('',#992,#993,#994);
#996=PLANE('',#995);
#997=ADVANCED_FACE('',(#991),#996,.T.);
#998=ORIENTED_EDGE('',*,*,#789,.T.);
#999=DIRECTION('',(0.77327,-0.6247,-0.10868));
#1000=VECTOR('',#999,25.6125);
#1001=LINE('',#222,#1000);
#1002=EDGE_CURVE('',#223,#780,#1001,.T.);
#1003=ORIENTED_EDGE('',*,*,#1002,.F.);
#1004=ORIENTED_EDGE('',*,*,#227,.F.);
#1005=ORIENTED_EDGE('',*,*,#986,.T.);
#1006=EDGE_LOOP('',(#998,#1003,#1004,#1005));
#1007=FACE_OUTER_BOUND('',#1006,.T.);
#1008=CARTESIAN_POINT('',(384.76482,154.41421,639.76291));
#1009=DIRECTION('',(-0.13917,0.,-0.99027));
#1010=DIRECTION('',(-0.37896,-0.92388,0.05326));
#1011=AXIS2_PLACEMENT_3D('',#1008,#1009,#1010);
#1012=PLANE('',#1011);
#1013=ADVANCED_FACE('',(#1007),#1012,.T.);
#1014=ORIENTED_EDGE('',*,*,#811,.T.);
#1015=DIRECTION('',(0.77327,0.6247,-0.10868));
#1016=VECTOR('',#1015,25.6125);
#1017=LINE('',#250,#1016);
#1018=EDGE_CURVE('',#251,#802,#1017,.T.);
#1019=ORIENTED_EDGE('',*,*,#1018,.F.);
#1020=ORIENTED_EDGE('',*,*,#255,.F.);
#1021=ORIENTED_EDGE('',*,*,#1002,.T.);
#1022=EDGE_LOOP('',(#1014,#1019,#1020,#1021));
#1023=FACE_OUTER_BOUND('',#1022,.T.);
#1024=CARTESIAN_POINT('',(384.18473,153.,639.84443));
#1025=DIRECTION('',(-0.13917,0.,-0.99027));
#1026=DIRECTION('',(0.,-1.,0.));
#1027=AXIS2_PLACEMENT_3D('',#1024,#1025,#1026);
#1028=PLANE('',#1027);
#1029=ADVANCED_FACE('',(#1023),#1028,.T.);
#1030=ORIENTED_EDGE('',*,*,#833,.T.);
#1031=DIRECTION('',(0.70023,0.70711,-0.09841));
#1032=VECTOR('',#1031,26.62742);
#1033=LINE('',#278,#1032);
#1034=EDGE_CURVE('',#279,#824,#1033,.T.);
#1035=ORIENTED_EDGE('',*,*,#1034,.F.);
#1036=ORIENTED_EDGE('',*,*,#283,.F.);
#1037=ORIENTED_EDGE('',*,*,#1018,.T.);
#1038=EDGE_LOOP('',(#1030,#1035,#1036,#1037));
#1039=FACE_OUTER_BOUND('',#1038,.T.);
#1040=CARTESIAN_POINT('',(384.18473,-153.,639.84443));
#1041=DIRECTION('',(-0.13917,0.,-0.99027));
#1042=DIRECTION('',(0.37896,-0.92388,-0.05326));
#1043=AXIS2_PLACEMENT_3D('',#1040,#1041,#1042);
#1044=PLANE('',#1043);
#1045=ADVANCED_FACE('',(#1039),#1044,.T.);
#1046=ORIENTED_EDGE('',*,*,#855,.T.);
#1047=DIRECTION('',(0.61862,0.78087,-0.08694));
#1048=VECTOR('',#1047,25.6125);
#1049=LINE('',#306,#1048);
#1050=EDGE_CURVE('',#307,#846,#1049,.T.);
#1051=ORIENTED_EDGE('',*,*,#1050,.F.);
#1052=ORIENTED_EDGE('',*,*,#311,.F.);
#1053=ORIENTED_EDGE('',*,*,#1034,.T.);
#1054=EDGE_LOOP('',(#1046,#1051,#1052,#1053));
#1055=FACE_OUTER_BOUND('',#1054,.T.);
#1056=CARTESIAN_POINT('',(384.76482,-154.41421,639.76291));
#1057=DIRECTION('',(-0.13917,0.,-0.99027));
#1058=DIRECTION('',(0.91489,-0.38268,-0.12858));
#1059=AXIS2_PLACEMENT_3D('',#1056,#1057,#1058);
#1060=PLANE('',#1059);
#1061=ADVANCED_FACE('',(#1055),#1060,.T.);
#1062=ORIENTED_EDGE('',*,*,#871,.F.);
#1063=ORIENTED_EDGE('',*,*,#892,.F.);
#1064=ORIENTED_EDGE('',*,*,#337,.T.);
#1065=ORIENTED_EDGE('',*,*,#1050,.T.);
#1066=EDGE_LOOP('',(#1062,#1063,#1064,#1065));
#1067=FACE_OUTER_BOUND('',#1066,.T.);
#1068=CARTESIAN_POINT('',(386.16527,-155.,639.56609));
#1069=DIRECTION('',(-0.13917,0.,-0.99027));
#1070=DIRECTION('',(0.99027,0.,-0.13917));
#1071=AXIS2_PLACEMENT_3D('',#1068,#1069,#1070);
#1072=PLANE('',#1071);
#1073=ADVANCED_FACE('',(#1067),#1072,.T.);
#1074=CLOSED_SHELL('',(#53,#81,#109,#137,#165,#193,#221,#249,#277,#305,#333,#353,#381,#403,#425,#447,#469,#491,#513,#535,#557,#579,#601,#617,#645,#667,#689,#711,#733,#755,#777,#799,#821,#843,#865,#881,#901,#917,#933,#949,#965,#981,#997,#1013,#1029,#1045,#1061,#1073));
#1075=MANIFOLD_SOLID_BREP('',#1074);
#1076=COLOUR_RGB('',0.8,0.82,0.84);
#1077=FILL_AREA_STYLE_COLOUR('',#1076);
#1078=FILL_AREA_STYLE('',(#1077));
#1079=SURFACE_STYLE_FILL_AREA(#1078);
#1080=SURFACE_SIDE_STYLE('',(#1079));
#1081=SURFACE_STYLE_USAGE(.BOTH.,#1080);
#1082=PRESENTATION_STYLE_ASSIGNMENT((#1081));
#1083=STYLED_ITEM('color',(#1082),#1075);
#1084=CARTESIAN_POINT('',(384.74142,-155.,643.80551));
#1085=VERTEX_POINT('',#1084);
#1086=CARTESIAN_POINT('',(384.74142,155.,643.80551));
#1087=VERTEX_POINT('',#1086);
#1088=DIRECTION('',(0.,1.,0.));
#1089=VECTOR('',#1088,310.);
#1090=LINE('',#1084,#1089);
#1091=EDGE_CURVE('',#1085,#1087,#1090,.T.);
#1092=ORIENTED_EDGE('',*,*,#1091,.T.);
#1093=CARTESIAN_POINT('',(790.75133,155.,586.74453));
#1094=VERTEX_POINT('',#1093);
#1095=DIRECTION('',(-0.99027,0.,0.13917));
#1096=VECTOR('',#1095,410.);
#1097=LINE('',#1093,#1096);
#1098=EDGE_CURVE('',#1094,#1087,#1097,.T.);
#1099=ORIENTED_EDGE('',*,*,#1098,.F.);
#1100=CARTESIAN_POINT('',(790.75133,-155.,586.74453));
#1101=VERTEX_POINT('',#1100);
#1102=DIRECTION('',(0.,1.,0.));
#1103=VECTOR('',#1102,310.);
#1104=LINE('',#1100,#1103);
#1105=EDGE_CURVE('',#1101,#1094,#1104,.T.);
#1106=ORIENTED_EDGE('',*,*,#1105,.F.);
#1107=DIRECTION('',(0.99027,0.,-0.13917));
#1108=VECTOR('',#1107,410.);
#1109=LINE('',#1084,#1108);
#1110=EDGE_CURVE('',#1085,#1101,#1109,.T.);
#1111=ORIENTED_EDGE('',*,*,#1110,.F.);
#1112=EDGE_LOOP('',(#1092,#1099,#1106,#1111));
#1113=FACE_OUTER_BOUND('',#1112,.T.);
#1114=CARTESIAN_POINT('',(384.74142,-155.,643.80551));
#1115=DIRECTION('',(-0.13917,0.,-0.99027));
#1116=DIRECTION('',(0.,1.,0.));
#1117=AXIS2_PLACEMENT_3D('',#1114,#1115,#1116);
#1118=PLANE('',#1117);
#1119=ADVANCED_FACE('',(#1113),#1118,.T.);
#1120=CARTESIAN_POINT('',(385.15894,-155.,646.77631));
#1121=VERTEX_POINT('',#1120);
#1122=CARTESIAN_POINT('',(791.16885,-155.,589.71534));
#1123=VERTEX_POINT('',#1122);
#1124=DIRECTION('',(0.99027,0.,-0.13917));
#1125=VECTOR('',#1124,410.);
#1126=LINE('',#1120,#1125);
#1127=EDGE_CURVE('',#1121,#1123,#1126,.T.);
#1128=ORIENTED_EDGE('',*,*,#1127,.T.);
#1129=CARTESIAN_POINT('',(791.16885,155.,589.71534));
#1130=VERTEX_POINT('',#1129);
#1131=DIRECTION('',(0.,1.,0.));
#1132=VECTOR('',#1131,310.);
#1133=LINE('',#1122,#1132);
#1134=EDGE_CURVE('',#1123,#1130,#1133,.T.);
#1135=ORIENTED_EDGE('',*,*,#1134,.T.);
#1136=CARTESIAN_POINT('',(385.15894,155.,646.77631));
#1137=VERTEX_POINT('',#1136);
#1138=DIRECTION('',(-0.99027,0.,0.13917));
#1139=VECTOR('',#1138,410.);
#1140=LINE('',#1129,#1139);
#1141=EDGE_CURVE('',#1130,#1137,#1140,.T.);
#1142=ORIENTED_EDGE('',*,*,#1141,.T.);
#1143=DIRECTION('',(0.,1.,0.));
#1144=VECTOR('',#1143,310.);
#1145=LINE('',#1120,#1144);
#1146=EDGE_CURVE('',#1121,#1137,#1145,.T.);
#1147=ORIENTED_EDGE('',*,*,#1146,.F.);
#1148=EDGE_LOOP('',(#1128,#1135,#1142,#1147));
#1149=FACE_OUTER_BOUND('',#1148,.T.);
#1150=CARTESIAN_POINT('',(385.15894,-155.,646.77631));
#1151=DIRECTION('',(0.13917,0.,0.99027));
#1152=DIRECTION('',(0.99027,0.,-0.13917));
#1153=AXIS2_PLACEMENT_3D('',#1150,#1151,#1152);
#1154=PLANE('',#1153);
#1155=ADVANCED_FACE('',(#1149),#1154,.T.);
#1156=ORIENTED_EDGE('',*,*,#1110,.T.);
#1157=DIRECTION('',(0.13917,0.,0.99027));
#1158=VECTOR('',#1157,3.);
#1159=LINE('',#1100,#1158);
#1160=EDGE_CURVE('',#1101,#1123,#1159,.T.);
#1161=ORIENTED_EDGE('',*,*,#1160,.T.);
#1162=ORIENTED_EDGE('',*,*,#1127,.F.);
#1163=DIRECTION('',(0.13917,0.,0.99027));
#1164=VECTOR('',#1163,3.);
#1165=LINE('',#1084,#1164);
#1166=EDGE_CURVE('',#1085,#1121,#1165,.T.);
#1167=ORIENTED_EDGE('',*,*,#1166,.F.);
#1168=EDGE_LOOP('',(#1156,#1161,#1162,#1167));
#1169=FACE_OUTER_BOUND('',#1168,.T.);
#1170=CARTESIAN_POINT('',(384.74142,-155.,643.80551));
#1171=DIRECTION('',(0.,-1.,0.));
#1172=DIRECTION('',(0.99027,0.,-0.13917));
#1173=AXIS2_PLACEMENT_3D('',#1170,#1171,#1172);
#1174=PLANE('',#1173);
#1175=ADVANCED_FACE('',(#1169),#1174,.T.);
#1176=ORIENTED_EDGE('',*,*,#1105,.T.);
#1177=DIRECTION('',(0.13917,0.,0.99027));
#1178=VECTOR('',#1177,3.);
#1179=LINE('',#1093,#1178);
#1180=EDGE_CURVE('',#1094,#1130,#1179,.T.);
#1181=ORIENTED_EDGE('',*,*,#1180,.T.);
#1182=ORIENTED_EDGE('',*,*,#1134,.F.);
#1183=ORIENTED_EDGE('',*,*,#1160,.F.);
#1184=EDGE_LOOP('',(#1176,#1181,#1182,#1183));
#1185=FACE_OUTER_BOUND('',#1184,.T.);
#1186=CARTESIAN_POINT('',(790.75133,-155.,586.74453));
#1187=DIRECTION('',(0.99027,0.,-0.13917));
#1188=DIRECTION('',(0.,1.,0.));
#1189=AXIS2_PLACEMENT_3D('',#1186,#1187,#1188);
#1190=PLANE('',#1189);
#1191=ADVANCED_FACE('',(#1185),#1190,.T.);
#1192=ORIENTED_EDGE('',*,*,#1098,.T.);
#1193=DIRECTION('',(0.13917,0.,0.99027));
#1194=VECTOR('',#1193,3.);
#1195=LINE('',#1086,#1194);
#1196=EDGE_CURVE('',#1087,#1137,#1195,.T.);
#1197=ORIENTED_EDGE('',*,*,#1196,.T.);
#1198=ORIENTED_EDGE('',*,*,#1141,.F.);
#1199=ORIENTED_EDGE('',*,*,#1180,.F.);
#1200=EDGE_LOOP('',(#1192,#1197,#1198,#1199));
#1201=FACE_OUTER_BOUND('',#1200,.T.);
#1202=CARTESIAN_POINT('',(790.75133,155.,586.74453));
#1203=DIRECTION('',(0.,1.,0.));
#1204=DIRECTION('',(-0.99027,0.,0.13917));
#1205=AXIS2_PLACEMENT_3D('',#1202,#1203,#1204);
#1206=PLANE('',#1205);
#1207=ADVANCED_FACE('',(#1201),#1206,.T.);
#1208=ORIENTED_EDGE('',*,*,#1091,.F.);
#1209=ORIENTED_EDGE('',*,*,#1166,.T.);
#1210=ORIENTED_EDGE('',*,*,#1146,.T.);
#1211=ORIENTED_EDGE('',*,*,#1196,.F.);
#1212=EDGE_LOOP('',(#1208,#1209,#1210,#1211));
#1213=FACE_OUTER_BOUND('',#1212,.T.);
#1214=CARTESIAN_POINT('',(384.74142,155.,643.80551));
#1215=DIRECTION('',(-0.99027,0.,0.13917));
#1216=DIRECTION('',(0.,-1.,0.));
#1217=AXIS2_PLACEMENT_3D('',#1214,#1215,#1216);
#1218=PLANE('',#1217);
#1219=ADVANCED_FACE('',(#1213),#1218,.T.);
#1220=CLOSED_SHELL('',(#1119,#1155,#1175,#1191,#1207,#1219));
#1221=MANIFOLD_SOLID_BREP('',#1220);
#1222=STYLED_ITEM('color',(#1082),#1221);
#1223=CARTESIAN_POINT('',(644.10065,-40.,585.13874));
#1224=VERTEX_POINT('',#1223);
#1225=CARTESIAN_POINT('',(644.10065,40.,585.13874));
#1226=VERTEX_POINT('',#1225);
#1227=DIRECTION('',(0.,1.,0.));
#1228=VECTOR('',#1227,80.);
#1229=LINE('',#1223,#1228);
#1230=EDGE_CURVE('',#1224,#1226,#1229,.T.);
#1231=ORIENTED_EDGE('',*,*,#1230,.T.);
#1232=CARTESIAN_POINT('',(723.3221,40.,574.00489));
#1233=VERTEX_POINT('',#1232);
#1234=DIRECTION('',(-0.99027,0.,0.13917));
#1235=VECTOR('',#1234,80.);
#1236=LINE('',#1232,#1235);
#1237=EDGE_CURVE('',#1233,#1226,#1236,.T.);
#1238=ORIENTED_EDGE('',*,*,#1237,.F.);
#1239=CARTESIAN_POINT('',(723.3221,-40.,574.00489));
#1240=VERTEX_POINT('',#1239);
#1241=DIRECTION('',(0.,1.,0.));
#1242=VECTOR('',#1241,80.);
#1243=LINE('',#1239,#1242);
#1244=EDGE_CURVE('',#1240,#1233,#1243,.T.);
#1245=ORIENTED_EDGE('',*,*,#1244,.F.);
#1246=DIRECTION('',(0.99027,0.,-0.13917));
#1247=VECTOR('',#1246,80.);
#1248=LINE('',#1223,#1247);
#1249=EDGE_CURVE('',#1224,#1240,#1248,.T.);
#1250=ORIENTED_EDGE('',*,*,#1249,.F.);
#1251=EDGE_LOOP('',(#1231,#1238,#1245,#1250));
#1252=FACE_OUTER_BOUND('',#1251,.T.);
#1253=CARTESIAN_POINT('',(644.10065,-40.,585.13874));
#1254=DIRECTION('',(-0.13917,0.,-0.99027));
#1255=DIRECTION('',(0.,1.,0.));
#1256=AXIS2_PLACEMENT_3D('',#1253,#1254,#1255);
#1257=PLANE('',#1256);
#1258=ADVANCED_FACE('',(#1252),#1257,.T.);
#1259=CARTESIAN_POINT('',(647.16246,-40.,606.92463));
#1260=VERTEX_POINT('',#1259);
#1261=CARTESIAN_POINT('',(726.38391,-40.,595.79079));
#1262=VERTEX_POINT('',#1261);
#1263=DIRECTION('',(0.99027,0.,-0.13917));
#1264=VECTOR('',#1263,80.);
#1265=LINE('',#1259,#1264);
#1266=EDGE_CURVE('',#1260,#1262,#1265,.T.);
#1267=ORIENTED_EDGE('',*,*,#1266,.T.);
#1268=CARTESIAN_POINT('',(726.38391,40.,595.79079));
#1269=VERTEX_POINT('',#1268);
#1270=DIRECTION('',(0.,1.,0.));
#1271=VECTOR('',#1270,80.);
#1272=LINE('',#1261,#1271);
#1273=EDGE_CURVE('',#1262,#1269,#1272,.T.);
#1274=ORIENTED_EDGE('',*,*,#1273,.T.);
#1275=CARTESIAN_POINT('',(647.16246,40.,606.92463));
#1276=VERTEX_POINT('',#1275);
#1277=DIRECTION('',(-0.99027,0.,0.13917));
#1278=VECTOR('',#1277,80.);
#1279=LINE('',#1268,#1278);
#1280=EDGE_CURVE('',#1269,#1276,#1279,.T.);
#1281=ORIENTED_EDGE('',*,*,#1280,.T.);
#1282=DIRECTION('',(0.,1.,0.));
#1283=VECTOR('',#1282,80.);
#1284=LINE('',#1259,#1283);
#1285=EDGE_CURVE('',#1260,#1276,#1284,.T.);
#1286=ORIENTED_EDGE('',*,*,#1285,.F.);
#1287=EDGE_LOOP('',(#1267,#1274,#1281,#1286));
#1288=FACE_OUTER_BOUND('',#1287,.T.);
#1289=CARTESIAN_POINT('',(647.16246,-40.,606.92463));
#1290=DIRECTION('',(0.13917,0.,0.99027));
#1291=DIRECTION('',(0.99027,0.,-0.13917));
#1292=AXIS2_PLACEMENT_3D('',#1289,#1290,#1291);
#1293=PLANE('',#1292);
#1294=ADVANCED_FACE('',(#1288),#1293,.T.);
#1295=ORIENTED_EDGE('',*,*,#1249,.T.);
#1296=DIRECTION('',(0.13917,0.,0.99027));
#1297=VECTOR('',#1296,22.);
#1298=LINE('',#1239,#1297);
#1299=EDGE_CURVE('',#1240,#1262,#1298,.T.);
#1300=ORIENTED_EDGE('',*,*,#1299,.T.);
#1301=ORIENTED_EDGE('',*,*,#1266,.F.);
#1302=DIRECTION('',(0.13917,0.,0.99027));
#1303=VECTOR('',#1302,22.);
#1304=LINE('',#1223,#1303);
#1305=EDGE_CURVE('',#1224,#1260,#1304,.T.);
#1306=ORIENTED_EDGE('',*,*,#1305,.F.);
#1307=EDGE_LOOP('',(#1295,#1300,#1301,#1306));
#1308=FACE_OUTER_BOUND('',#1307,.T.);
#1309=CARTESIAN_POINT('',(644.10065,-40.,585.13874));
#1310=DIRECTION('',(0.,-1.,0.));
#1311=DIRECTION('',(0.99027,0.,-0.13917));
#1312=AXIS2_PLACEMENT_3D('',#1309,#1310,#1311);
#1313=PLANE('',#1312);
#1314=ADVANCED_FACE('',(#1308),#1313,.T.);
#1315=ORIENTED_EDGE('',*,*,#1244,.T.);
#1316=DIRECTION('',(0.13917,0.,0.99027));
#1317=VECTOR('',#1316,22.);
#1318=LINE('',#1232,#1317);
#1319=EDGE_CURVE('',#1233,#1269,#1318,.T.);
#1320=ORIENTED_EDGE('',*,*,#1319,.T.);
#1321=ORIENTED_EDGE('',*,*,#1273,.F.);
#1322=ORIENTED_EDGE('',*,*,#1299,.F.);
#1323=EDGE_LOOP('',(#1315,#1320,#1321,#1322));
#1324=FACE_OUTER_BOUND('',#1323,.T.);
#1325=CARTESIAN_POINT('',(723.3221,-40.,574.00489));
#1326=DIRECTION('',(0.99027,0.,-0.13917));
#1327=DIRECTION('',(0.,1.,0.));
#1328=AXIS2_PLACEMENT_3D('',#1325,#1326,#1327);
#1329=PLANE('',#1328);
#1330=ADVANCED_FACE('',(#1324),#1329,.T.);
#1331=ORIENTED_EDGE('',*,*,#1237,.T.);
#1332=DIRECTION('',(0.13917,0.,0.99027));
#1333=VECTOR('',#1332,22.);
#1334=LINE('',#1225,#1333);
#1335=EDGE_CURVE('',#1226,#1276,#1334,.T.);
#1336=ORIENTED_EDGE('',*,*,#1335,.T.);
#1337=ORIENTED_EDGE('',*,*,#1280,.F.);
#1338=ORIENTED_EDGE('',*,*,#1319,.F.);
#1339=EDGE_LOOP('',(#1331,#1336,#1337,#1338));
#1340=FACE_OUTER_BOUND('',#1339,.T.);
#1341=CARTESIAN_POINT('',(723.3221,40.,574.00489));
#1342=DIRECTION('',(0.,1.,0.));
#1343=DIRECTION('',(-0.99027,0.,0.13917));
#1344=AXIS2_PLACEMENT_3D('',#1341,#1342,#1343);
#1345=PLANE('',#1344);
#1346=ADVANCED_FACE('',(#1340),#1345,.T.);
#1347=ORIENTED_EDGE('',*,*,#1230,.F.);
#1348=ORIENTED_EDGE('',*,*,#1305,.T.);
#1349=ORIENTED_EDGE('',*,*,#1285,.T.);
#1350=ORIENTED_EDGE('',*,*,#1335,.F.);
#1351=EDGE_LOOP('',(#1347,#1348,#1349,#1350));
#1352=FACE_OUTER_BOUND('',#1351,.T.);
#1353=CARTESIAN_POINT('',(644.10065,40.,585.13874));
#1354=DIRECTION('',(-0.99027,0.,0.13917));
#1355=DIRECTION('',(0.,-1.,0.));
#1356=AXIS2_PLACEMENT_3D('',#1353,#1354,#1355);
#1357=PLANE('',#1356);
#1358=ADVANCED_FACE('',(#1352),#1357,.T.);
#1359=CLOSED_SHELL('',(#1258,#1294,#1314,#1330,#1346,#1358));
#1360=MANIFOLD_SOLID_BREP('',#1359);
#1361=STYLED_ITEM('color',(#1082),#1360);
#1362=ADVANCED_BREP_SHAPE_REPRESENTATION('',(#17,#1075,#1221,#1360),#9);
#1363=SHAPE_DEFINITION_REPRESENTATION(#13,#1362);
#1364=MECHANICAL_DESIGN_GEOMETRIC_PRESENTATION_REPRESENTATION('',(#1083,#1222,#1361),#9);
#1365=PRODUCT_RELATED_PRODUCT_CATEGORY('part',$,(#10));
ENDSEC;
END-ISO-10303-21;
