ISO-10303-21;
HEADER;
FILE_DESCRIPTION(('AquaSentinel R3 - planar B-rep export'),'2;1');
FILE_NAME('Peristaltic pump 12 V (reversible)','2026-10-04T21:49:43',('AquaSentinel team'),('Sanjivani University'),'AquaSentinel R3 python build','AquaSentinel R3','');
FILE_SCHEMA(('AUTOMOTIVE_DESIGN { 1 0 10303 214 1 1 1 1 }'));
ENDSEC;
DATA;
#1=APPLICATION_CONTEXT('core data for automotive mechanical design processes');
#2=APPLICATION_PROTOCOL_DEFINITION('international standard','automotive_design',2000,#1);
#3=PRODUCT_CONTEXT('',#1,'mechanical');
#4=PRODUCT_DEFINITION_CONTEXT('part definition',#1,'design');
#5=(LENGTH_UNIT()NAMED_UNIT(*)SI_UNIT(.MILLI.,.METRE.));
#6=(NAMED_UNIT(*)PLANE_ANGLE_UNIT()SI_UNIT($,.RADIAN.));
#7=(NAMED_UNIT(*)SI_UNIT($,.STERADIAN.)SOLID_ANGLE_UNIT());
#8=UNCERTAINTY_MEASURE_WITH_UNIT(LENGTH_MEASURE(1.E-04),#5,'distance_accuracy_value','confusion accuracy');
#9=(GEOMETRIC_REPRESENTATION_CONTEXT(3)GLOBAL_UNCERTAINTY_ASSIGNED_CONTEXT((#8))GLOBAL_UNIT_ASSIGNED_CONTEXT((#5,#6,#7))REPRESENTATION_CONTEXT('Context','3D Context with UNIT and UNCERTAINTY'));
#10=PRODUCT('AS3-606','Peristaltic pump 12 V (reversible)','Purge 20 s to waste, then fill 30 s',(#3));
#11=PRODUCT_DEFINITION_FORMATION('','',#10);
#12=PRODUCT_DEFINITION('design','',#11,#4);
#13=PRODUCT_DEFINITION_SHAPE('','',#12);
#14=CARTESIAN_POINT('',(0.,0.,0.));
#15=DIRECTION('',(0.,0.,1.));
#16=DIRECTION('',(1.,0.,0.));
#17=AXIS2_PLACEMENT_3D('',#14,#15,#16);
#18=CARTESIAN_POINT('',(773.5,-60.,515.));
#19=VERTEX_POINT('',#18);
#20=CARTESIAN_POINT('',(772.95481,-60.,510.8589));
#21=VERTEX_POINT('',#20);
#22=DIRECTION('',(-0.13053,0.,-0.99144));
#23=VECTOR('',#22,4.17684);
#24=LINE('',#18,#23);
#25=EDGE_CURVE('',#19,#21,#24,.T.);
#26=ORIENTED_EDGE('',*,*,#25,.T.);
#27=CARTESIAN_POINT('',(772.95481,-12.,510.8589));
#28=VERTEX_POINT('',#27);
#29=DIRECTION('',(0.,1.,0.));
#30=VECTOR('',#29,48.);
#31=LINE('',#20,#30);
#32=EDGE_CURVE('',#21,#28,#31,.T.);
#33=ORIENTED_EDGE('',*,*,#32,.T.);
#34=CARTESIAN_POINT('',(773.5,-12.,515.));
#35=VERTEX_POINT('',#34);
#36=DIRECTION('',(-0.13053,0.,-0.99144));
#37=VECTOR('',#36,4.17684);
#38=LINE('',#34,#37);
#39=EDGE_CURVE('',#35,#28,#38,.T.);
#40=ORIENTED_EDGE('',*,*,#39,.F.);
#41=DIRECTION('',(0.,1.,0.));
#42=VECTOR('',#41,48.);
#43=LINE('',#18,#42);
#44=EDGE_CURVE('',#19,#35,#43,.T.);
#45=ORIENTED_EDGE('',*,*,#44,.F.);
#46=EDGE_LOOP('',(#26,#33,#40,#45));
#47=FACE_OUTER_BOUND('',#46,.T.);
#48=CARTESIAN_POINT('',(773.5,-60.,515.));
#49=DIRECTION('',(0.99144,0.,-0.13053));
#50=DIRECTION('',(-0.13053,0.,-0.99144));
#51=AXIS2_PLACEMENT_3D('',#48,#49,#50);
#52=PLANE('',#51);
#53=ADVANCED_FACE('',(#47),#52,.T.);
#54=CARTESIAN_POINT('',(771.35641,-60.,507.));
#55=VERTEX_POINT('',#54);
#56=DIRECTION('',(-0.38268,0.,-0.92388));
#57=VECTOR('',#56,4.17684);
#58=LINE('',#20,#57);
#59=EDGE_CURVE('',#21,#55,#58,.T.);
#60=ORIENTED_EDGE('',*,*,#59,.T.);
#61=CARTESIAN_POINT('',(771.35641,-12.,507.));
#62=VERTEX_POINT('',#61);
#63=DIRECTION('',(0.,1.,0.));
#64=VECTOR('',#63,48.);
#65=LINE('',#54,#64);
#66=EDGE_CURVE('',#55,#62,#65,.T.);
#67=ORIENTED_EDGE('',*,*,#66,.T.);
#68=DIRECTION('',(-0.38268,0.,-0.92388));
#69=VECTOR('',#68,4.17684);
#70=LINE('',#27,#69);
#71=EDGE_CURVE('',#28,#62,#70,.T.);
#72=ORIENTED_EDGE('',*,*,#71,.F.);
#73=ORIENTED_EDGE('',*,*,#32,.F.);
#74=EDGE_LOOP('',(#60,#67,#72,#73));
#75=FACE_OUTER_BOUND('',#74,.T.);
#76=CARTESIAN_POINT('',(772.95481,-60.,510.8589));
#77=DIRECTION('',(0.92388,0.,-0.38268));
#78=DIRECTION('',(-0.38268,0.,-0.92388));
#79=AXIS2_PLACEMENT_3D('',#76,#77,#78);
#80=PLANE('',#79);
#81=ADVANCED_FACE('',(#75),#80,.T.);
#82=CARTESIAN_POINT('',(768.81371,-60.,503.68629));
#83=VERTEX_POINT('',#82);
#84=DIRECTION('',(-0.60876,0.,-0.79335));
#85=VECTOR('',#84,4.17684);
#86=LINE('',#54,#85);
#87=EDGE_CURVE('',#55,#83,#86,.T.);
#88=ORIENTED_EDGE('',*,*,#87,.T.);
#89=CARTESIAN_POINT('',(768.81371,-12.,503.68629));
#90=VERTEX_POINT('',#89);
#91=DIRECTION('',(0.,1.,0.));
#92=VECTOR('',#91,48.);
#93=LINE('',#82,#92);
#94=EDGE_CURVE('',#83,#90,#93,.T.);
#95=ORIENTED_EDGE('',*,*,#94,.T.);
#96=DIRECTION('',(-0.60876,0.,-0.79335));
#97=VECTOR('',#96,4.17684);
#98=LINE('',#61,#97);
#99=EDGE_CURVE('',#62,#90,#98,.T.);
#100=ORIENTED_EDGE('',*,*,#99,.F.);
#101=ORIENTED_EDGE('',*,*,#66,.F.);
#102=EDGE_LOOP('',(#88,#95,#100,#101));
#103=FACE_OUTER_BOUND('',#102,.T.);
#104=CARTESIAN_POINT('',(771.35641,-60.,507.));
#105=DIRECTION('',(0.79335,0.,-0.60876));
#106=DIRECTION('',(-0.60876,0.,-0.79335));
#107=AXIS2_PLACEMENT_3D('',#104,#105,#106);
#108=PLANE('',#107);
#109=ADVANCED_FACE('',(#103),#108,.T.);
#110=CARTESIAN_POINT('',(765.5,-60.,501.14359));
#111=VERTEX_POINT('',#110);
#112=DIRECTION('',(-0.79335,0.,-0.60876));
#113=VECTOR('',#112,4.17684);
#114=LINE('',#82,#113);
#115=EDGE_CURVE('',#83,#111,#114,.T.);
#116=ORIENTED_EDGE('',*,*,#115,.T.);
#117=CARTESIAN_POINT('',(765.5,-12.,501.14359));
#118=VERTEX_POINT('',#117);
#119=DIRECTION('',(0.,1.,0.));
#120=VECTOR('',#119,48.);
#121=LINE('',#110,#120);
#122=EDGE_CURVE('',#111,#118,#121,.T.);
#123=ORIENTED_EDGE('',*,*,#122,.T.);
#124=DIRECTION('',(-0.79335,0.,-0.60876));
#125=VECTOR('',#124,4.17684);
#126=LINE('',#89,#125);
#127=EDGE_CURVE('',#90,#118,#126,.T.);
#128=ORIENTED_EDGE('',*,*,#127,.F.);
#129=ORIENTED_EDGE('',*,*,#94,.F.);
#130=EDGE_LOOP('',(#116,#123,#128,#129));
#131=FACE_OUTER_BOUND('',#130,.T.);
#132=CARTESIAN_POINT('',(768.81371,-60.,503.68629));
#133=DIRECTION('',(0.60876,0.,-0.79335));
#134=DIRECTION('',(-0.79335,0.,-0.60876));
#135=AXIS2_PLACEMENT_3D('',#132,#133,#134);
#136=PLANE('',#135);
#137=ADVANCED_FACE('',(#131),#136,.T.);
#138=CARTESIAN_POINT('',(761.6411,-60.,499.54519));
#139=VERTEX_POINT('',#138);
#140=DIRECTION('',(-0.92388,0.,-0.38268));
#141=VECTOR('',#140,4.17684);
#142=LINE('',#110,#141);
#143=EDGE_CURVE('',#111,#139,#142,.T.);
#144=ORIENTED_EDGE('',*,*,#143,.T.);
#145=CARTESIAN_POINT('',(761.6411,-12.,499.54519));
#146=VERTEX_POINT('',#145);
#147=DIRECTION('',(0.,1.,0.));
#148=VECTOR('',#147,48.);
#149=LINE('',#138,#148);
#150=EDGE_CURVE('',#139,#146,#149,.T.);
#151=ORIENTED_EDGE('',*,*,#150,.T.);
#152=DIRECTION('',(-0.92388,0.,-0.38268));
#153=VECTOR('',#152,4.17684);
#154=LINE('',#117,#153);
#155=EDGE_CURVE('',#118,#146,#154,.T.);
#156=ORIENTED_EDGE('',*,*,#155,.F.);
#157=ORIENTED_EDGE('',*,*,#122,.F.);
#158=EDGE_LOOP('',(#144,#151,#156,#157));
#159=FACE_OUTER_BOUND('',#158,.T.);
#160=CARTESIAN_POINT('',(765.5,-60.,501.14359));
#161=DIRECTION('',(0.38268,0.,-0.92388));
#162=DIRECTION('',(-0.92388,0.,-0.38268));
#163=AXIS2_PLACEMENT_3D('',#160,#161,#162);
#164=PLANE('',#163);
#165=ADVANCED_FACE('',(#159),#164,.T.);
#166=CARTESIAN_POINT('',(757.5,-60.,499.));
#167=VERTEX_POINT('',#166);
#168=DIRECTION('',(-0.99144,0.,-0.13053));
#169=VECTOR('',#168,4.17684);
#170=LINE('',#138,#169);
#171=EDGE_CURVE('',#139,#167,#170,.T.);
#172=ORIENTED_EDGE('',*,*,#171,.T.);
#173=CARTESIAN_POINT('',(757.5,-12.,499.));
#174=VERTEX_POINT('',#173);
#175=DIRECTION('',(0.,1.,0.));
#176=VECTOR('',#175,48.);
#177=LINE('',#166,#176);
#178=EDGE_CURVE('',#167,#174,#177,.T.);
#179=ORIENTED_EDGE('',*,*,#178,.T.);
#180=DIRECTION('',(-0.99144,0.,-0.13053));
#181=VECTOR('',#180,4.17684);
#182=LINE('',#145,#181);
#183=EDGE_CURVE('',#146,#174,#182,.T.);
#184=ORIENTED_EDGE('',*,*,#183,.F.);
#185=ORIENTED_EDGE('',*,*,#150,.F.);
#186=EDGE_LOOP('',(#172,#179,#184,#185));
#187=FACE_OUTER_BOUND('',#186,.T.);
#188=CARTESIAN_POINT('',(761.6411,-60.,499.54519));
#189=DIRECTION('',(0.13053,0.,-0.99144));
#190=DIRECTION('',(-0.99144,0.,-0.13053));
#191=AXIS2_PLACEMENT_3D('',#188,#189,#190);
#192=PLANE('',#191);
#193=ADVANCED_FACE('',(#187),#192,.T.);
#194=CARTESIAN_POINT('',(753.3589,-60.,499.54519));
#195=VERTEX_POINT('',#194);
#196=DIRECTION('',(-0.99144,0.,0.13053));
#197=VECTOR('',#196,4.17684);
#198=LINE('',#166,#197);
#199=EDGE_CURVE('',#167,#195,#198,.T.);
#200=ORIENTED_EDGE('',*,*,#199,.T.);
#201=CARTESIAN_POINT('',(753.3589,-12.,499.54519));
#202=VERTEX_POINT('',#201);
#203=DIRECTION('',(0.,1.,0.));
#204=VECTOR('',#203,48.);
#205=LINE('',#194,#204);
#206=EDGE_CURVE('',#195,#202,#205,.T.);
#207=ORIENTED_EDGE('',*,*,#206,.T.);
#208=DIRECTION('',(-0.99144,0.,0.13053));
#209=VECTOR('',#208,4.17684);
#210=LINE('',#173,#209);
#211=EDGE_CURVE('',#174,#202,#210,.T.);
#212=ORIENTED_EDGE('',*,*,#211,.F.);
#213=ORIENTED_EDGE('',*,*,#178,.F.);
#214=EDGE_LOOP('',(#200,#207,#212,#213));
#215=FACE_OUTER_BOUND('',#214,.T.);
#216=CARTESIAN_POINT('',(757.5,-60.,499.));
#217=DIRECTION('',(-0.13053,0.,-0.99144));
#218=DIRECTION('',(-0.99144,0.,0.13053));
#219=AXIS2_PLACEMENT_3D('',#216,#217,#218);
#220=PLANE('',#219);
#221=ADVANCED_FACE('',(#215),#220,.T.);
#222=CARTESIAN_POINT('',(749.5,-60.,501.14359));
#223=VERTEX_POINT('',#222);
#224=DIRECTION('',(-0.92388,0.,0.38268));
#225=VECTOR('',#224,4.17684);
#226=LINE('',#194,#225);
#227=EDGE_CURVE('',#195,#223,#226,.T.);
#228=ORIENTED_EDGE('',*,*,#227,.T.);
#229=CARTESIAN_POINT('',(749.5,-12.,501.14359));
#230=VERTEX_POINT('',#229);
#231=DIRECTION('',(0.,1.,0.));
#232=VECTOR('',#231,48.);
#233=LINE('',#222,#232);
#234=EDGE_CURVE('',#223,#230,#233,.T.);
#235=ORIENTED_EDGE('',*,*,#234,.T.);
#236=DIRECTION('',(-0.92388,0.,0.38268));
#237=VECTOR('',#236,4.17684);
#238=LINE('',#201,#237);
#239=EDGE_CURVE('',#202,#230,#238,.T.);
#240=ORIENTED_EDGE('',*,*,#239,.F.);
#241=ORIENTED_EDGE('',*,*,#206,.F.);
#242=EDGE_LOOP('',(#228,#235,#240,#241));
#243=FACE_OUTER_BOUND('',#242,.T.);
#244=CARTESIAN_POINT('',(753.3589,-60.,499.54519));
#245=DIRECTION('',(-0.38268,0.,-0.92388));
#246=DIRECTION('',(-0.92388,0.,0.38268));
#247=AXIS2_PLACEMENT_3D('',#244,#245,#246);
#248=PLANE('',#247);
#249=ADVANCED_FACE('',(#243),#248,.T.);
#250=CARTESIAN_POINT('',(746.18629,-60.,503.68629));
#251=VERTEX_POINT('',#250);
#252=DIRECTION('',(-0.79335,0.,0.60876));
#253=VECTOR('',#252,4.17684);
#254=LINE('',#222,#253);
#255=EDGE_CURVE('',#223,#251,#254,.T.);
#256=ORIENTED_EDGE('',*,*,#255,.T.);
#257=CARTESIAN_POINT('',(746.18629,-12.,503.68629));
#258=VERTEX_POINT('',#257);
#259=DIRECTION('',(0.,1.,0.));
#260=VECTOR('',#259,48.);
#261=LINE('',#250,#260);
#262=EDGE_CURVE('',#251,#258,#261,.T.);
#263=ORIENTED_EDGE('',*,*,#262,.T.);
#264=DIRECTION('',(-0.79335,0.,0.60876));
#265=VECTOR('',#264,4.17684);
#266=LINE('',#229,#265);
#267=EDGE_CURVE('',#230,#258,#266,.T.);
#268=ORIENTED_EDGE('',*,*,#267,.F.);
#269=ORIENTED_EDGE('',*,*,#234,.F.);
#270=EDGE_LOOP('',(#256,#263,#268,#269));
#271=FACE_OUTER_BOUND('',#270,.T.);
#272=CARTESIAN_POINT('',(749.5,-60.,501.14359));
#273=DIRECTION('',(-0.60876,0.,-0.79335));
#274=DIRECTION('',(-0.79335,0.,0.60876));
#275=AXIS2_PLACEMENT_3D('',#272,#273,#274);
#276=PLANE('',#275);
#277=ADVANCED_FACE('',(#271),#276,.T.);
#278=CARTESIAN_POINT('',(743.64359,-60.,507.));
#279=VERTEX_POINT('',#278);
#280=DIRECTION('',(-0.60876,0.,0.79335));
#281=VECTOR('',#280,4.17684);
#282=LINE('',#250,#281);
#283=EDGE_CURVE('',#251,#279,#282,.T.);
#284=ORIENTED_EDGE('',*,*,#283,.T.);
#285=CARTESIAN_POINT('',(743.64359,-12.,507.));
#286=VERTEX_POINT('',#285);
#287=DIRECTION('',(0.,1.,0.));
#288=VECTOR('',#287,48.);
#289=LINE('',#278,#288);
#290=EDGE_CURVE('',#279,#286,#289,.T.);
#291=ORIENTED_EDGE('',*,*,#290,.T.);
#292=DIRECTION('',(-0.60876,0.,0.79335));
#293=VECTOR('',#292,4.17684);
#294=LINE('',#257,#293);
#295=EDGE_CURVE('',#258,#286,#294,.T.);
#296=ORIENTED_EDGE('',*,*,#295,.F.);
#297=ORIENTED_EDGE('',*,*,#262,.F.);
#298=EDGE_LOOP('',(#284,#291,#296,#297));
#299=FACE_OUTER_BOUND('',#298,.T.);
#300=CARTESIAN_POINT('',(746.18629,-60.,503.68629));
#301=DIRECTION('',(-0.79335,0.,-0.60876));
#302=DIRECTION('',(-0.60876,0.,0.79335));
#303=AXIS2_PLACEMENT_3D('',#300,#301,#302);
#304=PLANE('',#303);
#305=ADVANCED_FACE('',(#299),#304,.T.);
#306=CARTESIAN_POINT('',(742.04519,-60.,510.8589));
#307=VERTEX_POINT('',#306);
#308=DIRECTION('',(-0.38268,0.,0.92388));
#309=VECTOR('',#308,4.17684);
#310=LINE('',#278,#309);
#311=EDGE_CURVE('',#279,#307,#310,.T.);
#312=ORIENTED_EDGE('',*,*,#311,.T.);
#313=CARTESIAN_POINT('',(742.04519,-12.,510.8589));
#314=VERTEX_POINT('',#313);
#315=DIRECTION('',(0.,1.,0.));
#316=VECTOR('',#315,48.);
#317=LINE('',#306,#316);
#318=EDGE_CURVE('',#307,#314,#317,.T.);
#319=ORIENTED_EDGE('',*,*,#318,.T.);
#320=DIRECTION('',(-0.38268,0.,0.92388));
#321=VECTOR('',#320,4.17684);
#322=LINE('',#285,#321);
#323=EDGE_CURVE('',#286,#314,#322,.T.);
#324=ORIENTED_EDGE('',*,*,#323,.F.);
#325=ORIENTED_EDGE('',*,*,#290,.F.);
#326=EDGE_LOOP('',(#312,#319,#324,#325));
#327=FACE_OUTER_BOUND('',#326,.T.);
#328=CARTESIAN_POINT('',(743.64359,-60.,507.));
#329=DIRECTION('',(-0.92388,0.,-0.38268));
#330=DIRECTION('',(-0.38268,0.,0.92388));
#331=AXIS2_PLACEMENT_3D('',#328,#329,#330);
#332=PLANE('',#331);
#333=ADVANCED_FACE('',(#327),#332,.T.);
#334=CARTESIAN_POINT('',(741.5,-60.,515.));
#335=VERTEX_POINT('',#334);
#336=DIRECTION('',(-0.13053,0.,0.99144));
#337=VECTOR('',#336,4.17684);
#338=LINE('',#306,#337);
#339=EDGE_CURVE('',#307,#335,#338,.T.);
#340=ORIENTED_EDGE('',*,*,#339,.T.);
#341=CARTESIAN_POINT('',(741.5,-12.,515.));
#342=VERTEX_POINT('',#341);
#343=DIRECTION('',(0.,1.,0.));
#344=VECTOR('',#343,48.);
#345=LINE('',#334,#344);
#346=EDGE_CURVE('',#335,#342,#345,.T.);
#347=ORIENTED_EDGE('',*,*,#346,.T.);
#348=DIRECTION('',(-0.13053,0.,0.99144));
#349=VECTOR('',#348,4.17684);
#350=LINE('',#313,#349);
#351=EDGE_CURVE('',#314,#342,#350,.T.);
#352=ORIENTED_EDGE('',*,*,#351,.F.);
#353=ORIENTED_EDGE('',*,*,#318,.F.);
#354=EDGE_LOOP('',(#340,#347,#352,#353));
#355=FACE_OUTER_BOUND('',#354,.T.);
#356=CARTESIAN_POINT('',(742.04519,-60.,510.8589));
#357=DIRECTION('',(-0.99144,0.,-0.13053));
#358=DIRECTION('',(-0.13053,0.,0.99144));
#359=AXIS2_PLACEMENT_3D('',#356,#357,#358);
#360=PLANE('',#359);
#361=ADVANCED_FACE('',(#355),#360,.T.);
#362=CARTESIAN_POINT('',(742.04519,-60.,519.1411));
#363=VERTEX_POINT('',#362);
#364=DIRECTION('',(0.13053,0.,0.99144));
#365=VECTOR('',#364,4.17684);
#366=LINE('',#334,#365);
#367=EDGE_CURVE('',#335,#363,#366,.T.);
#368=ORIENTED_EDGE('',*,*,#367,.T.);
#369=CARTESIAN_POINT('',(742.04519,-12.,519.1411));
#370=VERTEX_POINT('',#369);
#371=DIRECTION('',(0.,1.,0.));
#372=VECTOR('',#371,48.);
#373=LINE('',#362,#372);
#374=EDGE_CURVE('',#363,#370,#373,.T.);
#375=ORIENTED_EDGE('',*,*,#374,.T.);
#376=DIRECTION('',(0.13053,0.,0.99144));
#377=VECTOR('',#376,4.17684);
#378=LINE('',#341,#377);
#379=EDGE_CURVE('',#342,#370,#378,.T.);
#380=ORIENTED_EDGE('',*,*,#379,.F.);
#381=ORIENTED_EDGE('',*,*,#346,.F.);
#382=EDGE_LOOP('',(#368,#375,#380,#381));
#383=FACE_OUTER_BOUND('',#382,.T.);
#384=CARTESIAN_POINT('',(741.5,-60.,515.));
#385=DIRECTION('',(-0.99144,0.,0.13053));
#386=DIRECTION('',(0.13053,0.,0.99144));
#387=AXIS2_PLACEMENT_3D('',#384,#385,#386);
#388=PLANE('',#387);
#389=ADVANCED_FACE('',(#383),#388,.T.);
#390=CARTESIAN_POINT('',(743.64359,-60.,523.));
#391=VERTEX_POINT('',#390);
#392=DIRECTION('',(0.38268,0.,0.92388));
#393=VECTOR('',#392,4.17684);
#394=LINE('',#362,#393);
#395=EDGE_CURVE('',#363,#391,#394,.T.);
#396=ORIENTED_EDGE('',*,*,#395,.T.);
#397=CARTESIAN_POINT('',(743.64359,-12.,523.));
#398=VERTEX_POINT('',#397);
#399=DIRECTION('',(0.,1.,0.));
#400=VECTOR('',#399,48.);
#401=LINE('',#390,#400);
#402=EDGE_CURVE('',#391,#398,#401,.T.);
#403=ORIENTED_EDGE('',*,*,#402,.T.);
#404=DIRECTION('',(0.38268,0.,0.92388));
#405=VECTOR('',#404,4.17684);
#406=LINE('',#369,#405);
#407=EDGE_CURVE('',#370,#398,#406,.T.);
#408=ORIENTED_EDGE('',*,*,#407,.F.);
#409=ORIENTED_EDGE('',*,*,#374,.F.);
#410=EDGE_LOOP('',(#396,#403,#408,#409));
#411=FACE_OUTER_BOUND('',#410,.T.);
#412=CARTESIAN_POINT('',(742.04519,-60.,519.1411));
#413=DIRECTION('',(-0.92388,0.,0.38268));
#414=DIRECTION('',(0.38268,0.,0.92388));
#415=AXIS2_PLACEMENT_3D('',#412,#413,#414);
#416=PLANE('',#415);
#417=ADVANCED_FACE('',(#411),#416,.T.);
#418=CARTESIAN_POINT('',(746.18629,-60.,526.31371));
#419=VERTEX_POINT('',#418);
#420=DIRECTION('',(0.60876,0.,0.79335));
#421=VECTOR('',#420,4.17684);
#422=LINE('',#390,#421);
#423=EDGE_CURVE('',#391,#419,#422,.T.);
#424=ORIENTED_EDGE('',*,*,#423,.T.);
#425=CARTESIAN_POINT('',(746.18629,-12.,526.31371));
#426=VERTEX_POINT('',#425);
#427=DIRECTION('',(0.,1.,0.));
#428=VECTOR('',#427,48.);
#429=LINE('',#418,#428);
#430=EDGE_CURVE('',#419,#426,#429,.T.);
#431=ORIENTED_EDGE('',*,*,#430,.T.);
#432=DIRECTION('',(0.60876,0.,0.79335));
#433=VECTOR('',#432,4.17684);
#434=LINE('',#397,#433);
#435=EDGE_CURVE('',#398,#426,#434,.T.);
#436=ORIENTED_EDGE('',*,*,#435,.F.);
#437=ORIENTED_EDGE('',*,*,#402,.F.);
#438=EDGE_LOOP('',(#424,#431,#436,#437));
#439=FACE_OUTER_BOUND('',#438,.T.);
#440=CARTESIAN_POINT('',(743.64359,-60.,523.));
#441=DIRECTION('',(-0.79335,0.,0.60876));
#442=DIRECTION('',(0.60876,0.,0.79335));
#443=AXIS2_PLACEMENT_3D('',#440,#441,#442);
#444=PLANE('',#443);
#445=ADVANCED_FACE('',(#439),#444,.T.);
#446=CARTESIAN_POINT('',(749.5,-60.,528.85641));
#447=VERTEX_POINT('',#446);
#448=DIRECTION('',(0.79335,0.,0.60876));
#449=VECTOR('',#448,4.17684);
#450=LINE('',#418,#449);
#451=EDGE_CURVE('',#419,#447,#450,.T.);
#452=ORIENTED_EDGE('',*,*,#451,.T.);
#453=CARTESIAN_POINT('',(749.5,-12.,528.85641));
#454=VERTEX_POINT('',#453);
#455=DIRECTION('',(0.,1.,0.));
#456=VECTOR('',#455,48.);
#457=LINE('',#446,#456);
#458=EDGE_CURVE('',#447,#454,#457,.T.);
#459=ORIENTED_EDGE('',*,*,#458,.T.);
#460=DIRECTION('',(0.79335,0.,0.60876));
#461=VECTOR('',#460,4.17684);
#462=LINE('',#425,#461);
#463=EDGE_CURVE('',#426,#454,#462,.T.);
#464=ORIENTED_EDGE('',*,*,#463,.F.);
#465=ORIENTED_EDGE('',*,*,#430,.F.);
#466=EDGE_LOOP('',(#452,#459,#464,#465));
#467=FACE_OUTER_BOUND('',#466,.T.);
#468=CARTESIAN_POINT('',(746.18629,-60.,526.31371));
#469=DIRECTION('',(-0.60876,0.,0.79335));
#470=DIRECTION('',(0.79335,0.,0.60876));
#471=AXIS2_PLACEMENT_3D('',#468,#469,#470);
#472=PLANE('',#471);
#473=ADVANCED_FACE('',(#467),#472,.T.);
#474=CARTESIAN_POINT('',(753.3589,-60.,530.45481));
#475=VERTEX_POINT('',#474);
#476=DIRECTION('',(0.92388,0.,0.38268));
#477=VECTOR('',#476,4.17684);
#478=LINE('',#446,#477);
#479=EDGE_CURVE('',#447,#475,#478,.T.);
#480=ORIENTED_EDGE('',*,*,#479,.T.);
#481=CARTESIAN_POINT('',(753.3589,-12.,530.45481));
#482=VERTEX_POINT('',#481);
#483=DIRECTION('',(0.,1.,0.));
#484=VECTOR('',#483,48.);
#485=LINE('',#474,#484);
#486=EDGE_CURVE('',#475,#482,#485,.T.);
#487=ORIENTED_EDGE('',*,*,#486,.T.);
#488=DIRECTION('',(0.92388,0.,0.38268));
#489=VECTOR('',#488,4.17684);
#490=LINE('',#453,#489);
#491=EDGE_CURVE('',#454,#482,#490,.T.);
#492=ORIENTED_EDGE('',*,*,#491,.F.);
#493=ORIENTED_EDGE('',*,*,#458,.F.);
#494=EDGE_LOOP('',(#480,#487,#492,#493));
#495=FACE_OUTER_BOUND('',#494,.T.);
#496=CARTESIAN_POINT('',(749.5,-60.,528.85641));
#497=DIRECTION('',(-0.38268,0.,0.92388));
#498=DIRECTION('',(0.92388,0.,0.38268));
#499=AXIS2_PLACEMENT_3D('',#496,#497,#498);
#500=PLANE('',#499);
#501=ADVANCED_FACE('',(#495),#500,.T.);
#502=CARTESIAN_POINT('',(757.5,-60.,531.));
#503=VERTEX_POINT('',#502);
#504=DIRECTION('',(0.99144,0.,0.13053));
#505=VECTOR('',#504,4.17684);
#506=LINE('',#474,#505);
#507=EDGE_CURVE('',#475,#503,#506,.T.);
#508=ORIENTED_EDGE('',*,*,#507,.T.);
#509=CARTESIAN_POINT('',(757.5,-12.,531.));
#510=VERTEX_POINT('',#509);
#511=DIRECTION('',(0.,1.,0.));
#512=VECTOR('',#511,48.);
#513=LINE('',#502,#512);
#514=EDGE_CURVE('',#503,#510,#513,.T.);
#515=ORIENTED_EDGE('',*,*,#514,.T.);
#516=DIRECTION('',(0.99144,0.,0.13053));
#517=VECTOR('',#516,4.17684);
#518=LINE('',#481,#517);
#519=EDGE_CURVE('',#482,#510,#518,.T.);
#520=ORIENTED_EDGE('',*,*,#519,.F.);
#521=ORIENTED_EDGE('',*,*,#486,.F.);
#522=EDGE_LOOP('',(#508,#515,#520,#521));
#523=FACE_OUTER_BOUND('',#522,.T.);
#524=CARTESIAN_POINT('',(753.3589,-60.,530.45481));
#525=DIRECTION('',(-0.13053,0.,0.99144));
#526=DIRECTION('',(0.99144,0.,0.13053));
#527=AXIS2_PLACEMENT_3D('',#524,#525,#526);
#528=PLANE('',#527);
#529=ADVANCED_FACE('',(#523),#528,.T.);
#530=CARTESIAN_POINT('',(761.6411,-60.,530.45481));
#531=VERTEX_POINT('',#530);
#532=DIRECTION('',(0.99144,0.,-0.13053));
#533=VECTOR('',#532,4.17684);
#534=LINE('',#502,#533);
#535=EDGE_CURVE('',#503,#531,#534,.T.);
#536=ORIENTED_EDGE('',*,*,#535,.T.);
#537=CARTESIAN_POINT('',(761.6411,-12.,530.45481));
#538=VERTEX_POINT('',#537);
#539=DIRECTION('',(0.,1.,0.));
#540=VECTOR('',#539,48.);
#541=LINE('',#530,#540);
#542=EDGE_CURVE('',#531,#538,#541,.T.);
#543=ORIENTED_EDGE('',*,*,#542,.T.);
#544=DIRECTION('',(0.99144,0.,-0.13053));
#545=VECTOR('',#544,4.17684);
#546=LINE('',#509,#545);
#547=EDGE_CURVE('',#510,#538,#546,.T.);
#548=ORIENTED_EDGE('',*,*,#547,.F.);
#549=ORIENTED_EDGE('',*,*,#514,.F.);
#550=EDGE_LOOP('',(#536,#543,#548,#549));
#551=FACE_OUTER_BOUND('',#550,.T.);
#552=CARTESIAN_POINT('',(757.5,-60.,531.));
#553=DIRECTION('',(0.13053,0.,0.99144));
#554=DIRECTION('',(0.99144,0.,-0.13053));
#555=AXIS2_PLACEMENT_3D('',#552,#553,#554);
#556=PLANE('',#555);
#557=ADVANCED_FACE('',(#551),#556,.T.);
#558=CARTESIAN_POINT('',(765.5,-60.,528.85641));
#559=VERTEX_POINT('',#558);
#560=DIRECTION('',(0.92388,0.,-0.38268));
#561=VECTOR('',#560,4.17684);
#562=LINE('',#530,#561);
#563=EDGE_CURVE('',#531,#559,#562,.T.);
#564=ORIENTED_EDGE('',*,*,#563,.T.);
#565=CARTESIAN_POINT('',(765.5,-12.,528.85641));
#566=VERTEX_POINT('',#565);
#567=DIRECTION('',(0.,1.,0.));
#568=VECTOR('',#567,48.);
#569=LINE('',#558,#568);
#570=EDGE_CURVE('',#559,#566,#569,.T.);
#571=ORIENTED_EDGE('',*,*,#570,.T.);
#572=DIRECTION('',(0.92388,0.,-0.38268));
#573=VECTOR('',#572,4.17684);
#574=LINE('',#537,#573);
#575=EDGE_CURVE('',#538,#566,#574,.T.);
#576=ORIENTED_EDGE('',*,*,#575,.F.);
#577=ORIENTED_EDGE('',*,*,#542,.F.);
#578=EDGE_LOOP('',(#564,#571,#576,#577));
#579=FACE_OUTER_BOUND('',#578,.T.);
#580=CARTESIAN_POINT('',(761.6411,-60.,530.45481));
#581=DIRECTION('',(0.38268,0.,0.92388));
#582=DIRECTION('',(0.92388,0.,-0.38268));
#583=AXIS2_PLACEMENT_3D('',#580,#581,#582);
#584=PLANE('',#583);
#585=ADVANCED_FACE('',(#579),#584,.T.);
#586=CARTESIAN_POINT('',(768.81371,-60.,526.31371));
#587=VERTEX_POINT('',#586);
#588=DIRECTION('',(0.79335,0.,-0.60876));
#589=VECTOR('',#588,4.17684);
#590=LINE('',#558,#589);
#591=EDGE_CURVE('',#559,#587,#590,.T.);
#592=ORIENTED_EDGE('',*,*,#591,.T.);
#593=CARTESIAN_POINT('',(768.81371,-12.,526.31371));
#594=VERTEX_POINT('',#593);
#595=DIRECTION('',(0.,1.,0.));
#596=VECTOR('',#595,48.);
#597=LINE('',#586,#596);
#598=EDGE_CURVE('',#587,#594,#597,.T.);
#599=ORIENTED_EDGE('',*,*,#598,.T.);
#600=DIRECTION('',(0.79335,0.,-0.60876));
#601=VECTOR('',#600,4.17684);
#602=LINE('',#565,#601);
#603=EDGE_CURVE('',#566,#594,#602,.T.);
#604=ORIENTED_EDGE('',*,*,#603,.F.);
#605=ORIENTED_EDGE('',*,*,#570,.F.);
#606=EDGE_LOOP('',(#592,#599,#604,#605));
#607=FACE_OUTER_BOUND('',#606,.T.);
#608=CARTESIAN_POINT('',(765.5,-60.,528.85641));
#609=DIRECTION('',(0.60876,0.,0.79335));
#610=DIRECTION('',(0.79335,0.,-0.60876));
#611=AXIS2_PLACEMENT_3D('',#608,#609,#610);
#612=PLANE('',#611);
#613=ADVANCED_FACE('',(#607),#612,.T.);
#614=CARTESIAN_POINT('',(771.35641,-60.,523.));
#615=VERTEX_POINT('',#614);
#616=DIRECTION('',(0.60876,0.,-0.79335));
#617=VECTOR('',#616,4.17684);
#618=LINE('',#586,#617);
#619=EDGE_CURVE('',#587,#615,#618,.T.);
#620=ORIENTED_EDGE('',*,*,#619,.T.);
#621=CARTESIAN_POINT('',(771.35641,-12.,523.));
#622=VERTEX_POINT('',#621);
#623=DIRECTION('',(0.,1.,0.));
#624=VECTOR('',#623,48.);
#625=LINE('',#614,#624);
#626=EDGE_CURVE('',#615,#622,#625,.T.);
#627=ORIENTED_EDGE('',*,*,#626,.T.);
#628=DIRECTION('',(0.60876,0.,-0.79335));
#629=VECTOR('',#628,4.17684);
#630=LINE('',#593,#629);
#631=EDGE_CURVE('',#594,#622,#630,.T.);
#632=ORIENTED_EDGE('',*,*,#631,.F.);
#633=ORIENTED_EDGE('',*,*,#598,.F.);
#634=EDGE_LOOP('',(#620,#627,#632,#633));
#635=FACE_OUTER_BOUND('',#634,.T.);
#636=CARTESIAN_POINT('',(768.81371,-60.,526.31371));
#637=DIRECTION('',(0.79335,0.,0.60876));
#638=DIRECTION('',(0.60876,0.,-0.79335));
#639=AXIS2_PLACEMENT_3D('',#636,#637,#638);
#640=PLANE('',#639);
#641=ADVANCED_FACE('',(#635),#640,.T.);
#642=CARTESIAN_POINT('',(772.95481,-60.,519.1411));
#643=VERTEX_POINT('',#642);
#644=DIRECTION('',(0.38268,0.,-0.92388));
#645=VECTOR('',#644,4.17684);
#646=LINE('',#614,#645);
#647=EDGE_CURVE('',#615,#643,#646,.T.);
#648=ORIENTED_EDGE('',*,*,#647,.T.);
#649=CARTESIAN_POINT('',(772.95481,-12.,519.1411));
#650=VERTEX_POINT('',#649);
#651=DIRECTION('',(0.,1.,0.));
#652=VECTOR('',#651,48.);
#653=LINE('',#642,#652);
#654=EDGE_CURVE('',#643,#650,#653,.T.);
#655=ORIENTED_EDGE('',*,*,#654,.T.);
#656=DIRECTION('',(0.38268,0.,-0.92388));
#657=VECTOR('',#656,4.17684);
#658=LINE('',#621,#657);
#659=EDGE_CURVE('',#622,#650,#658,.T.);
#660=ORIENTED_EDGE('',*,*,#659,.F.);
#661=ORIENTED_EDGE('',*,*,#626,.F.);
#662=EDGE_LOOP('',(#648,#655,#660,#661));
#663=FACE_OUTER_BOUND('',#662,.T.);
#664=CARTESIAN_POINT('',(771.35641,-60.,523.));
#665=DIRECTION('',(0.92388,0.,0.38268));
#666=DIRECTION('',(0.38268,0.,-0.92388));
#667=AXIS2_PLACEMENT_3D('',#664,#665,#666);
#668=PLANE('',#667);
#669=ADVANCED_FACE('',(#663),#668,.T.);
#670=DIRECTION('',(-0.13053,0.,0.99144));
#671=VECTOR('',#670,4.17684);
#672=LINE('',#18,#671);
#673=EDGE_CURVE('',#19,#643,#672,.T.);
#674=ORIENTED_EDGE('',*,*,#673,.F.);
#675=ORIENTED_EDGE('',*,*,#44,.T.);
#676=DIRECTION('',(-0.13053,0.,0.99144));
#677=VECTOR('',#676,4.17684);
#678=LINE('',#34,#677);
#679=EDGE_CURVE('',#35,#650,#678,.T.);
#680=ORIENTED_EDGE('',*,*,#679,.T.);
#681=ORIENTED_EDGE('',*,*,#654,.F.);
#682=EDGE_LOOP('',(#674,#675,#680,#681));
#683=FACE_OUTER_BOUND('',#682,.T.);
#684=CARTESIAN_POINT('',(772.95481,-60.,519.1411));
#685=DIRECTION('',(0.99144,0.,0.13053));
#686=DIRECTION('',(0.13053,0.,-0.99144));
#687=AXIS2_PLACEMENT_3D('',#684,#685,#686);
#688=PLANE('',#687);
#689=ADVANCED_FACE('',(#683),#688,.T.);
#690=ORIENTED_EDGE('',*,*,#647,.F.);
#691=ORIENTED_EDGE('',*,*,#619,.F.);
#692=ORIENTED_EDGE('',*,*,#591,.F.);
#693=ORIENTED_EDGE('',*,*,#563,.F.);
#694=ORIENTED_EDGE('',*,*,#535,.F.);
#695=ORIENTED_EDGE('',*,*,#507,.F.);
#696=ORIENTED_EDGE('',*,*,#479,.F.);
#697=ORIENTED_EDGE('',*,*,#451,.F.);
#698=ORIENTED_EDGE('',*,*,#423,.F.);
#699=ORIENTED_EDGE('',*,*,#395,.F.);
#700=ORIENTED_EDGE('',*,*,#367,.F.);
#701=ORIENTED_EDGE('',*,*,#339,.F.);
#702=ORIENTED_EDGE('',*,*,#311,.F.);
#703=ORIENTED_EDGE('',*,*,#283,.F.);
#704=ORIENTED_EDGE('',*,*,#255,.F.);
#705=ORIENTED_EDGE('',*,*,#227,.F.);
#706=ORIENTED_EDGE('',*,*,#199,.F.);
#707=ORIENTED_EDGE('',*,*,#171,.F.);
#708=ORIENTED_EDGE('',*,*,#143,.F.);
#709=ORIENTED_EDGE('',*,*,#115,.F.);
#710=ORIENTED_EDGE('',*,*,#87,.F.);
#711=ORIENTED_EDGE('',*,*,#59,.F.);
#712=ORIENTED_EDGE('',*,*,#25,.F.);
#713=ORIENTED_EDGE('',*,*,#673,.T.);
#714=EDGE_LOOP('',(#690,#691,#692,#693,#694,#695,#696,#697,#698,#699,#700,#701,#702,#703,#704,#705,#706,#707,#708,#709,#710,#711,#712,#713));
#715=FACE_OUTER_BOUND('',#714,.T.);
#716=CARTESIAN_POINT('',(772.95481,-60.,519.1411));
#717=DIRECTION('',(0.,-1.,0.));
#718=DIRECTION('',(-0.38268,0.,0.92388));
#719=AXIS2_PLACEMENT_3D('',#716,#717,#718);
#720=PLANE('',#719);
#721=ADVANCED_FACE('',(#715),#720,.T.);
#722=ORIENTED_EDGE('',*,*,#39,.T.);
#723=ORIENTED_EDGE('',*,*,#71,.T.);
#724=ORIENTED_EDGE('',*,*,#99,.T.);
#725=ORIENTED_EDGE('',*,*,#127,.T.);
#726=ORIENTED_EDGE('',*,*,#155,.T.);
#727=ORIENTED_EDGE('',*,*,#183,.T.);
#728=ORIENTED_EDGE('',*,*,#211,.T.);
#729=ORIENTED_EDGE('',*,*,#239,.T.);
#730=ORIENTED_EDGE('',*,*,#267,.T.);
#731=ORIENTED_EDGE('',*,*,#295,.T.);
#732=ORIENTED_EDGE('',*,*,#323,.T.);
#733=ORIENTED_EDGE('',*,*,#351,.T.);
#734=ORIENTED_EDGE('',*,*,#379,.T.);
#735=ORIENTED_EDGE('',*,*,#407,.T.);
#736=ORIENTED_EDGE('',*,*,#435,.T.);
#737=ORIENTED_EDGE('',*,*,#463,.T.);
#738=ORIENTED_EDGE('',*,*,#491,.T.);
#739=ORIENTED_EDGE('',*,*,#519,.T.);
#740=ORIENTED_EDGE('',*,*,#547,.T.);
#741=ORIENTED_EDGE('',*,*,#575,.T.);
#742=ORIENTED_EDGE('',*,*,#603,.T.);
#743=ORIENTED_EDGE('',*,*,#631,.T.);
#744=ORIENTED_EDGE('',*,*,#659,.T.);
#745=ORIENTED_EDGE('',*,*,#679,.F.);
#746=EDGE_LOOP('',(#722,#723,#724,#725,#726,#727,#728,#729,#730,#731,#732,#733,#734,#735,#736,#737,#738,#739,#740,#741,#742,#743,#744,#745));
#747=FACE_OUTER_BOUND('',#746,.T.);
#748=CARTESIAN_POINT('',(773.5,-12.,515.));
#749=DIRECTION('',(0.,1.,0.));
#750=DIRECTION('',(-0.13053,0.,-0.99144));
#751=AXIS2_PLACEMENT_3D('',#748,#749,#750);
#752=PLANE('',#751);
#753=ADVANCED_FACE('',(#747),#752,.T.);
#754=CLOSED_SHELL('',(#53,#81,#109,#137,#165,#193,#221,#249,#277,#305,#333,#361,#389,#417,#445,#473,#501,#529,#557,#585,#613,#641,#669,#689,#721,#753));
#755=MANIFOLD_SOLID_BREP('',#754);
#756=COLOUR_RGB('',0.3,0.32,0.34);
#757=FILL_AREA_STYLE_COLOUR('',#756);
#758=FILL_AREA_STYLE('',(#757));
#759=SURFACE_STYLE_FILL_AREA(#758);
#760=SURFACE_SIDE_STYLE('',(#759));
#761=SURFACE_STYLE_USAGE(.BOTH.,#760);
#762=PRESENTATION_STYLE_ASSIGNMENT((#761));
#763=STYLED_ITEM('color',(#762),#755);
#764=CARTESIAN_POINT('',(783.5,-12.,515.));
#765=VERTEX_POINT('',#764);
#766=CARTESIAN_POINT('',(783.00042,-12.,509.92765));
#767=VERTEX_POINT('',#766);
#768=DIRECTION('',(-0.09802,0.,-0.99518));
#769=VECTOR('',#768,5.09689);
#770=LINE('',#764,#769);
#771=EDGE_CURVE('',#765,#767,#770,.T.);
#772=ORIENTED_EDGE('',*,*,#771,.T.);
#773=CARTESIAN_POINT('',(783.00042,14.,509.92765));
#774=VERTEX_POINT('',#773);
#775=DIRECTION('',(0.,1.,0.));
#776=VECTOR('',#775,26.);
#777=LINE('',#766,#776);
#778=EDGE_CURVE('',#767,#774,#777,.T.);
#779=ORIENTED_EDGE('',*,*,#778,.T.);
#780=CARTESIAN_POINT('',(783.5,14.,515.));
#781=VERTEX_POINT('',#780);
#782=DIRECTION('',(-0.09802,0.,-0.99518));
#783=VECTOR('',#782,5.09689);
#784=LINE('',#780,#783);
#785=EDGE_CURVE('',#781,#774,#784,.T.);
#786=ORIENTED_EDGE('',*,*,#785,.F.);
#787=DIRECTION('',(0.,1.,0.));
#788=VECTOR('',#787,26.);
#789=LINE('',#764,#788);
#790=EDGE_CURVE('',#765,#781,#789,.T.);
#791=ORIENTED_EDGE('',*,*,#790,.F.);
#792=EDGE_LOOP('',(#772,#779,#786,#791));
#793=FACE_OUTER_BOUND('',#792,.T.);
#794=CARTESIAN_POINT('',(783.5,-12.,515.));
#795=DIRECTION('',(0.99518,0.,-0.09802));
#796=DIRECTION('',(-0.09802,0.,-0.99518));
#797=AXIS2_PLACEMENT_3D('',#794,#795,#796);
#798=PLANE('',#797);
#799=ADVANCED_FACE('',(#793),#798,.T.);
#800=CARTESIAN_POINT('',(781.52087,-12.,505.05023));
#801=VERTEX_POINT('',#800);
#802=DIRECTION('',(-0.29028,0.,-0.95694));
#803=VECTOR('',#802,5.09689);
#804=LINE('',#766,#803);
#805=EDGE_CURVE('',#767,#801,#804,.T.);
#806=ORIENTED_EDGE('',*,*,#805,.T.);
#807=CARTESIAN_POINT('',(781.52087,14.,505.05023));
#808=VERTEX_POINT('',#807);
#809=DIRECTION('',(0.,1.,0.));
#810=VECTOR('',#809,26.);
#811=LINE('',#800,#810);
#812=EDGE_CURVE('',#801,#808,#811,.T.);
#813=ORIENTED_EDGE('',*,*,#812,.T.);
#814=DIRECTION('',(-0.29028,0.,-0.95694));
#815=VECTOR('',#814,5.09689);
#816=LINE('',#773,#815);
#817=EDGE_CURVE('',#774,#808,#816,.T.);
#818=ORIENTED_EDGE('',*,*,#817,.F.);
#819=ORIENTED_EDGE('',*,*,#778,.F.);
#820=EDGE_LOOP('',(#806,#813,#818,#819));
#821=FACE_OUTER_BOUND('',#820,.T.);
#822=CARTESIAN_POINT('',(783.00042,-12.,509.92765));
#823=DIRECTION('',(0.95694,0.,-0.29028));
#824=DIRECTION('',(-0.29028,0.,-0.95694));
#825=AXIS2_PLACEMENT_3D('',#822,#823,#824);
#826=PLANE('',#825);
#827=ADVANCED_FACE('',(#821),#826,.T.);
#828=CARTESIAN_POINT('',(779.11821,-12.,500.55517));
#829=VERTEX_POINT('',#828);
#830=DIRECTION('',(-0.4714,0.,-0.88192));
#831=VECTOR('',#830,5.09689);
#832=LINE('',#800,#831);
#833=EDGE_CURVE('',#801,#829,#832,.T.);
#834=ORIENTED_EDGE('',*,*,#833,.T.);
#835=CARTESIAN_POINT('',(779.11821,14.,500.55517));
#836=VERTEX_POINT('',#835);
#837=DIRECTION('',(0.,1.,0.));
#838=VECTOR('',#837,26.);
#839=LINE('',#828,#838);
#840=EDGE_CURVE('',#829,#836,#839,.T.);
#841=ORIENTED_EDGE('',*,*,#840,.T.);
#842=DIRECTION('',(-0.4714,0.,-0.88192));
#843=VECTOR('',#842,5.09689);
#844=LINE('',#807,#843);
#845=EDGE_CURVE('',#808,#836,#844,.T.);
#846=ORIENTED_EDGE('',*,*,#845,.F.);
#847=ORIENTED_EDGE('',*,*,#812,.F.);
#848=EDGE_LOOP('',(#834,#841,#846,#847));
#849=FACE_OUTER_BOUND('',#848,.T.);
#850=CARTESIAN_POINT('',(781.52087,-12.,505.05023));
#851=DIRECTION('',(0.88192,0.,-0.4714));
#852=DIRECTION('',(-0.4714,0.,-0.88192));
#853=AXIS2_PLACEMENT_3D('',#850,#851,#852);
#854=PLANE('',#853);
#855=ADVANCED_FACE('',(#849),#854,.T.);
#856=CARTESIAN_POINT('',(775.88478,-12.,496.61522));
#857=VERTEX_POINT('',#856);
#858=DIRECTION('',(-0.63439,0.,-0.77301));
#859=VECTOR('',#858,5.09689);
#860=LINE('',#828,#859);
#861=EDGE_CURVE('',#829,#857,#860,.T.);
#862=ORIENTED_EDGE('',*,*,#861,.T.);
#863=CARTESIAN_POINT('',(775.88478,14.,496.61522));
#864=VERTEX_POINT('',#863);
#865=DIRECTION('',(0.,1.,0.));
#866=VECTOR('',#865,26.);
#867=LINE('',#856,#866);
#868=EDGE_CURVE('',#857,#864,#867,.T.);
#869=ORIENTED_EDGE('',*,*,#868,.T.);
#870=DIRECTION('',(-0.63439,0.,-0.77301));
#871=VECTOR('',#870,5.09689);
#872=LINE('',#835,#871);
#873=EDGE_CURVE('',#836,#864,#872,.T.);
#874=ORIENTED_EDGE('',*,*,#873,.F.);
#875=ORIENTED_EDGE('',*,*,#840,.F.);
#876=EDGE_LOOP('',(#862,#869,#874,#875));
#877=FACE_OUTER_BOUND('',#876,.T.);
#878=CARTESIAN_POINT('',(779.11821,-12.,500.55517));
#879=DIRECTION('',(0.77301,0.,-0.63439));
#880=DIRECTION('',(-0.63439,0.,-0.77301));
#881=AXIS2_PLACEMENT_3D('',#878,#879,#880);
#882=PLANE('',#881);
#883=ADVANCED_FACE('',(#877),#882,.T.);
#884=CARTESIAN_POINT('',(771.94483,-12.,493.38179));
#885=VERTEX_POINT('',#884);
#886=DIRECTION('',(-0.77301,0.,-0.63439));
#887=VECTOR('',#886,5.09689);
#888=LINE('',#856,#887);
#889=EDGE_CURVE('',#857,#885,#888,.T.);
#890=ORIENTED_EDGE('',*,*,#889,.T.);
#891=CARTESIAN_POINT('',(771.94483,14.,493.38179));
#892=VERTEX_POINT('',#891);
#893=DIRECTION('',(0.,1.,0.));
#894=VECTOR('',#893,26.);
#895=LINE('',#884,#894);
#896=EDGE_CURVE('',#885,#892,#895,.T.);
#897=ORIENTED_EDGE('',*,*,#896,.T.);
#898=DIRECTION('',(-0.77301,0.,-0.63439));
#899=VECTOR('',#898,5.09689);
#900=LINE('',#863,#899);
#901=EDGE_CURVE('',#864,#892,#900,.T.);
#902=ORIENTED_EDGE('',*,*,#901,.F.);
#903=ORIENTED_EDGE('',*,*,#868,.F.);
#904=EDGE_LOOP('',(#890,#897,#902,#903));
#905=FACE_OUTER_BOUND('',#904,.T.);
#906=CARTESIAN_POINT('',(775.88478,-12.,496.61522));
#907=DIRECTION('',(0.63439,0.,-0.77301));
#908=DIRECTION('',(-0.77301,0.,-0.63439));
#909=AXIS2_PLACEMENT_3D('',#906,#907,#908);
#910=PLANE('',#909);
#911=ADVANCED_FACE('',(#905),#910,.T.);
#912=CARTESIAN_POINT('',(767.44977,-12.,490.97913));
#913=VERTEX_POINT('',#912);
#914=DIRECTION('',(-0.88192,0.,-0.4714));
#915=VECTOR('',#914,5.09689);
#916=LINE('',#884,#915);
#917=EDGE_CURVE('',#885,#913,#916,.T.);
#918=ORIENTED_EDGE('',*,*,#917,.T.);
#919=CARTESIAN_POINT('',(767.44977,14.,490.97913));
#920=VERTEX_POINT('',#919);
#921=DIRECTION('',(0.,1.,0.));
#922=VECTOR('',#921,26.);
#923=LINE('',#912,#922);
#924=EDGE_CURVE('',#913,#920,#923,.T.);
#925=ORIENTED_EDGE('',*,*,#924,.T.);
#926=DIRECTION('',(-0.88192,0.,-0.4714));
#927=VECTOR('',#926,5.09689);
#928=LINE('',#891,#927);
#929=EDGE_CURVE('',#892,#920,#928,.T.);
#930=ORIENTED_EDGE('',*,*,#929,.F.);
#931=ORIENTED_EDGE('',*,*,#896,.F.);
#932=EDGE_LOOP('',(#918,#925,#930,#931));
#933=FACE_OUTER_BOUND('',#932,.T.);
#934=CARTESIAN_POINT('',(771.94483,-12.,493.38179));
#935=DIRECTION('',(0.4714,0.,-0.88192));
#936=DIRECTION('',(-0.88192,0.,-0.4714));
#937=AXIS2_PLACEMENT_3D('',#934,#935,#936);
#938=PLANE('',#937);
#939=ADVANCED_FACE('',(#933),#938,.T.);
#940=CARTESIAN_POINT('',(762.57235,-12.,489.49958));
#941=VERTEX_POINT('',#940);
#942=DIRECTION('',(-0.95694,0.,-0.29028));
#943=VECTOR('',#942,5.09689);
#944=LINE('',#912,#943);
#945=EDGE_CURVE('',#913,#941,#944,.T.);
#946=ORIENTED_EDGE('',*,*,#945,.T.);
#947=CARTESIAN_POINT('',(762.57235,14.,489.49958));
#948=VERTEX_POINT('',#947);
#949=DIRECTION('',(0.,1.,0.));
#950=VECTOR('',#949,26.);
#951=LINE('',#940,#950);
#952=EDGE_CURVE('',#941,#948,#951,.T.);
#953=ORIENTED_EDGE('',*,*,#952,.T.);
#954=DIRECTION('',(-0.95694,0.,-0.29028));
#955=VECTOR('',#954,5.09689);
#956=LINE('',#919,#955);
#957=EDGE_CURVE('',#920,#948,#956,.T.);
#958=ORIENTED_EDGE('',*,*,#957,.F.);
#959=ORIENTED_EDGE('',*,*,#924,.F.);
#960=EDGE_LOOP('',(#946,#953,#958,#959));
#961=FACE_OUTER_BOUND('',#960,.T.);
#962=CARTESIAN_POINT('',(767.44977,-12.,490.97913));
#963=DIRECTION('',(0.29028,0.,-0.95694));
#964=DIRECTION('',(-0.95694,0.,-0.29028));
#965=AXIS2_PLACEMENT_3D('',#962,#963,#964);
#966=PLANE('',#965);
#967=ADVANCED_FACE('',(#961),#966,.T.);
#968=CARTESIAN_POINT('',(757.5,-12.,489.));
#969=VERTEX_POINT('',#968);
#970=DIRECTION('',(-0.99518,0.,-0.09802));
#971=VECTOR('',#970,5.09689);
#972=LINE('',#940,#971);
#973=EDGE_CURVE('',#941,#969,#972,.T.);
#974=ORIENTED_EDGE('',*,*,#973,.T.);
#975=CARTESIAN_POINT('',(757.5,14.,489.));
#976=VERTEX_POINT('',#975);
#977=DIRECTION('',(0.,1.,0.));
#978=VECTOR('',#977,26.);
#979=LINE('',#968,#978);
#980=EDGE_CURVE('',#969,#976,#979,.T.);
#981=ORIENTED_EDGE('',*,*,#980,.T.);
#982=DIRECTION('',(-0.99518,0.,-0.09802));
#983=VECTOR('',#982,5.09689);
#984=LINE('',#947,#983);
#985=EDGE_CURVE('',#948,#976,#984,.T.);
#986=ORIENTED_EDGE('',*,*,#985,.F.);
#987=ORIENTED_EDGE('',*,*,#952,.F.);
#988=EDGE_LOOP('',(#974,#981,#986,#987));
#989=FACE_OUTER_BOUND('',#988,.T.);
#990=CARTESIAN_POINT('',(762.57235,-12.,489.49958));
#991=DIRECTION('',(0.09802,0.,-0.99518));
#992=DIRECTION('',(-0.99518,0.,-0.09802));
#993=AXIS2_PLACEMENT_3D('',#990,#991,#992);
#994=PLANE('',#993);
#995=ADVANCED_FACE('',(#989),#994,.T.);
#996=CARTESIAN_POINT('',(752.42765,-12.,489.49958));
#997=VERTEX_POINT('',#996);
#998=DIRECTION('',(-0.99518,0.,0.09802));
#999=VECTOR('',#998,5.09689);
#1000=LINE('',#968,#999);
#1001=EDGE_CURVE('',#969,#997,#1000,.T.);
#1002=ORIENTED_EDGE('',*,*,#1001,.T.);
#1003=CARTESIAN_POINT('',(752.42765,14.,489.49958));
#1004=VERTEX_POINT('',#1003);
#1005=DIRECTION('',(0.,1.,0.));
#1006=VECTOR('',#1005,26.);
#1007=LINE('',#996,#1006);
#1008=EDGE_CURVE('',#997,#1004,#1007,.T.);
#1009=ORIENTED_EDGE('',*,*,#1008,.T.);
#1010=DIRECTION('',(-0.99518,0.,0.09802));
#1011=VECTOR('',#1010,5.09689);
#1012=LINE('',#975,#1011);
#1013=EDGE_CURVE('',#976,#1004,#1012,.T.);
#1014=ORIENTED_EDGE('',*,*,#1013,.F.);
#1015=ORIENTED_EDGE('',*,*,#980,.F.);
#1016=EDGE_LOOP('',(#1002,#1009,#1014,#1015));
#1017=FACE_OUTER_BOUND('',#1016,.T.);
#1018=CARTESIAN_POINT('',(757.5,-12.,489.));
#1019=DIRECTION('',(-0.09802,0.,-0.99518));
#1020=DIRECTION('',(-0.99518,0.,0.09802));
#1021=AXIS2_PLACEMENT_3D('',#1018,#1019,#1020);
#1022=PLANE('',#1021);
#1023=ADVANCED_FACE('',(#1017),#1022,.T.);
#1024=CARTESIAN_POINT('',(747.55023,-12.,490.97913));
#1025=VERTEX_POINT('',#1024);
#1026=DIRECTION('',(-0.95694,0.,0.29028));
#1027=VECTOR('',#1026,5.09689);
#1028=LINE('',#996,#1027);
#1029=EDGE_CURVE('',#997,#1025,#1028,.T.);
#1030=ORIENTED_EDGE('',*,*,#1029,.T.);
#1031=CARTESIAN_POINT('',(747.55023,14.,490.97913));
#1032=VERTEX_POINT('',#1031);
#1033=DIRECTION('',(0.,1.,0.));
#1034=VECTOR('',#1033,26.);
#1035=LINE('',#1024,#1034);
#1036=EDGE_CURVE('',#1025,#1032,#1035,.T.);
#1037=ORIENTED_EDGE('',*,*,#1036,.T.);
#1038=DIRECTION('',(-0.95694,0.,0.29028));
#1039=VECTOR('',#1038,5.09689);
#1040=LINE('',#1003,#1039);
#1041=EDGE_CURVE('',#1004,#1032,#1040,.T.);
#1042=ORIENTED_EDGE('',*,*,#1041,.F.);
#1043=ORIENTED_EDGE('',*,*,#1008,.F.);
#1044=EDGE_LOOP('',(#1030,#1037,#1042,#1043));
#1045=FACE_OUTER_BOUND('',#1044,.T.);
#1046=CARTESIAN_POINT('',(752.42765,-12.,489.49958));
#1047=DIRECTION('',(-0.29028,0.,-0.95694));
#1048=DIRECTION('',(-0.95694,0.,0.29028));
#1049=AXIS2_PLACEMENT_3D('',#1046,#1047,#1048);
#1050=PLANE('',#1049);
#1051=ADVANCED_FACE('',(#1045),#1050,.T.);
#1052=CARTESIAN_POINT('',(743.05517,-12.,493.38179));
#1053=VERTEX_POINT('',#1052);
#1054=DIRECTION('',(-0.88192,0.,0.4714));
#1055=VECTOR('',#1054,5.09689);
#1056=LINE('',#1024,#1055);
#1057=EDGE_CURVE('',#1025,#1053,#1056,.T.);
#1058=ORIENTED_EDGE('',*,*,#1057,.T.);
#1059=CARTESIAN_POINT('',(743.05517,14.,493.38179));
#1060=VERTEX_POINT('',#1059);
#1061=DIRECTION('',(0.,1.,0.));
#1062=VECTOR('',#1061,26.);
#1063=LINE('',#1052,#1062);
#1064=EDGE_CURVE('',#1053,#1060,#1063,.T.);
#1065=ORIENTED_EDGE('',*,*,#1064,.T.);
#1066=DIRECTION('',(-0.88192,0.,0.4714));
#1067=VECTOR('',#1066,5.09689);
#1068=LINE('',#1031,#1067);
#1069=EDGE_CURVE('',#1032,#1060,#1068,.T.);
#1070=ORIENTED_EDGE('',*,*,#1069,.F.);
#1071=ORIENTED_EDGE('',*,*,#1036,.F.);
#1072=EDGE_LOOP('',(#1058,#1065,#1070,#1071));
#1073=FACE_OUTER_BOUND('',#1072,.T.);
#1074=CARTESIAN_POINT('',(747.55023,-12.,490.97913));
#1075=DIRECTION('',(-0.4714,0.,-0.88192));
#1076=DIRECTION('',(-0.88192,0.,0.4714));
#1077=AXIS2_PLACEMENT_3D('',#1074,#1075,#1076);
#1078=PLANE('',#1077);
#1079=ADVANCED_FACE('',(#1073),#1078,.T.);
#1080=CARTESIAN_POINT('',(739.11522,-12.,496.61522));
#1081=VERTEX_POINT('',#1080);
#1082=DIRECTION('',(-0.77301,0.,0.63439));
#1083=VECTOR('',#1082,5.09689);
#1084=LINE('',#1052,#1083);
#1085=EDGE_CURVE('',#1053,#1081,#1084,.T.);
#1086=ORIENTED_EDGE('',*,*,#1085,.T.);
#1087=CARTESIAN_POINT('',(739.11522,14.,496.61522));
#1088=VERTEX_POINT('',#1087);
#1089=DIRECTION('',(0.,1.,0.));
#1090=VECTOR('',#1089,26.);
#1091=LINE('',#1080,#1090);
#1092=EDGE_CURVE('',#1081,#1088,#1091,.T.);
#1093=ORIENTED_EDGE('',*,*,#1092,.T.);
#1094=DIRECTION('',(-0.77301,0.,0.63439));
#1095=VECTOR('',#1094,5.09689);
#1096=LINE('',#1059,#1095);
#1097=EDGE_CURVE('',#1060,#1088,#1096,.T.);
#1098=ORIENTED_EDGE('',*,*,#1097,.F.);
#1099=ORIENTED_EDGE('',*,*,#1064,.F.);
#1100=EDGE_LOOP('',(#1086,#1093,#1098,#1099));
#1101=FACE_OUTER_BOUND('',#1100,.T.);
#1102=CARTESIAN_POINT('',(743.05517,-12.,493.38179));
#1103=DIRECTION('',(-0.63439,0.,-0.77301));
#1104=DIRECTION('',(-0.77301,0.,0.63439));
#1105=AXIS2_PLACEMENT_3D('',#1102,#1103,#1104);
#1106=PLANE('',#1105);
#1107=ADVANCED_FACE('',(#1101),#1106,.T.);
#1108=CARTESIAN_POINT('',(735.88179,-12.,500.55517));
#1109=VERTEX_POINT('',#1108);
#1110=DIRECTION('',(-0.63439,0.,0.77301));
#1111=VECTOR('',#1110,5.09689);
#1112=LINE('',#1080,#1111);
#1113=EDGE_CURVE('',#1081,#1109,#1112,.T.);
#1114=ORIENTED_EDGE('',*,*,#1113,.T.);
#1115=CARTESIAN_POINT('',(735.88179,14.,500.55517));
#1116=VERTEX_POINT('',#1115);
#1117=DIRECTION('',(0.,1.,0.));
#1118=VECTOR('',#1117,26.);
#1119=LINE('',#1108,#1118);
#1120=EDGE_CURVE('',#1109,#1116,#1119,.T.);
#1121=ORIENTED_EDGE('',*,*,#1120,.T.);
#1122=DIRECTION('',(-0.63439,0.,0.77301));
#1123=VECTOR('',#1122,5.09689);
#1124=LINE('',#1087,#1123);
#1125=EDGE_CURVE('',#1088,#1116,#1124,.T.);
#1126=ORIENTED_EDGE('',*,*,#1125,.F.);
#1127=ORIENTED_EDGE('',*,*,#1092,.F.);
#1128=EDGE_LOOP('',(#1114,#1121,#1126,#1127));
#1129=FACE_OUTER_BOUND('',#1128,.T.);
#1130=CARTESIAN_POINT('',(739.11522,-12.,496.61522));
#1131=DIRECTION('',(-0.77301,0.,-0.63439));
#1132=DIRECTION('',(-0.63439,0.,0.77301));
#1133=AXIS2_PLACEMENT_3D('',#1130,#1131,#1132);
#1134=PLANE('',#1133);
#1135=ADVANCED_FACE('',(#1129),#1134,.T.);
#1136=CARTESIAN_POINT('',(733.47913,-12.,505.05023));
#1137=VERTEX_POINT('',#1136);
#1138=DIRECTION('',(-0.4714,0.,0.88192));
#1139=VECTOR('',#1138,5.09689);
#1140=LINE('',#1108,#1139);
#1141=EDGE_CURVE('',#1109,#1137,#1140,.T.);
#1142=ORIENTED_EDGE('',*,*,#1141,.T.);
#1143=CARTESIAN_POINT('',(733.47913,14.,505.05023));
#1144=VERTEX_POINT('',#1143);
#1145=DIRECTION('',(0.,1.,0.));
#1146=VECTOR('',#1145,26.);
#1147=LINE('',#1136,#1146);
#1148=EDGE_CURVE('',#1137,#1144,#1147,.T.);
#1149=ORIENTED_EDGE('',*,*,#1148,.T.);
#1150=DIRECTION('',(-0.4714,0.,0.88192));
#1151=VECTOR('',#1150,5.09689);
#1152=LINE('',#1115,#1151);
#1153=EDGE_CURVE('',#1116,#1144,#1152,.T.);
#1154=ORIENTED_EDGE('',*,*,#1153,.F.);
#1155=ORIENTED_EDGE('',*,*,#1120,.F.);
#1156=EDGE_LOOP('',(#1142,#1149,#1154,#1155));
#1157=FACE_OUTER_BOUND('',#1156,.T.);
#1158=CARTESIAN_POINT('',(735.88179,-12.,500.55517));
#1159=DIRECTION('',(-0.88192,0.,-0.4714));
#1160=DIRECTION('',(-0.4714,0.,0.88192));
#1161=AXIS2_PLACEMENT_3D('',#1158,#1159,#1160);
#1162=PLANE('',#1161);
#1163=ADVANCED_FACE('',(#1157),#1162,.T.);
#1164=CARTESIAN_POINT('',(731.99958,-12.,509.92765));
#1165=VERTEX_POINT('',#1164);
#1166=DIRECTION('',(-0.29028,0.,0.95694));
#1167=VECTOR('',#1166,5.09689);
#1168=LINE('',#1136,#1167);
#1169=EDGE_CURVE('',#1137,#1165,#1168,.T.);
#1170=ORIENTED_EDGE('',*,*,#1169,.T.);
#1171=CARTESIAN_POINT('',(731.99958,14.,509.92765));
#1172=VERTEX_POINT('',#1171);
#1173=DIRECTION('',(0.,1.,0.));
#1174=VECTOR('',#1173,26.);
#1175=LINE('',#1164,#1174);
#1176=EDGE_CURVE('',#1165,#1172,#1175,.T.);
#1177=ORIENTED_EDGE('',*,*,#1176,.T.);
#1178=DIRECTION('',(-0.29028,0.,0.95694));
#1179=VECTOR('',#1178,5.09689);
#1180=LINE('',#1143,#1179);
#1181=EDGE_CURVE('',#1144,#1172,#1180,.T.);
#1182=ORIENTED_EDGE('',*,*,#1181,.F.);
#1183=ORIENTED_EDGE('',*,*,#1148,.F.);
#1184=EDGE_LOOP('',(#1170,#1177,#1182,#1183));
#1185=FACE_OUTER_BOUND('',#1184,.T.);
#1186=CARTESIAN_POINT('',(733.47913,-12.,505.05023));
#1187=DIRECTION('',(-0.95694,0.,-0.29028));
#1188=DIRECTION('',(-0.29028,0.,0.95694));
#1189=AXIS2_PLACEMENT_3D('',#1186,#1187,#1188);
#1190=PLANE('',#1189);
#1191=ADVANCED_FACE('',(#1185),#1190,.T.);
#1192=CARTESIAN_POINT('',(731.5,-12.,515.));
#1193=VERTEX_POINT('',#1192);
#1194=DIRECTION('',(-0.09802,0.,0.99518));
#1195=VECTOR('',#1194,5.09689);
#1196=LINE('',#1164,#1195);
#1197=EDGE_CURVE('',#1165,#1193,#1196,.T.);
#1198=ORIENTED_EDGE('',*,*,#1197,.T.);
#1199=CARTESIAN_POINT('',(731.5,14.,515.));
#1200=VERTEX_POINT('',#1199);
#1201=DIRECTION('',(0.,1.,0.));
#1202=VECTOR('',#1201,26.);
#1203=LINE('',#1192,#1202);
#1204=EDGE_CURVE('',#1193,#1200,#1203,.T.);
#1205=ORIENTED_EDGE('',*,*,#1204,.T.);
#1206=DIRECTION('',(-0.09802,0.,0.99518));
#1207=VECTOR('',#1206,5.09689);
#1208=LINE('',#1171,#1207);
#1209=EDGE_CURVE('',#1172,#1200,#1208,.T.);
#1210=ORIENTED_EDGE('',*,*,#1209,.F.);
#1211=ORIENTED_EDGE('',*,*,#1176,.F.);
#1212=EDGE_LOOP('',(#1198,#1205,#1210,#1211));
#1213=FACE_OUTER_BOUND('',#1212,.T.);
#1214=CARTESIAN_POINT('',(731.99958,-12.,509.92765));
#1215=DIRECTION('',(-0.99518,0.,-0.09802));
#1216=DIRECTION('',(-0.09802,0.,0.99518));
#1217=AXIS2_PLACEMENT_3D('',#1214,#1215,#1216);
#1218=PLANE('',#1217);
#1219=ADVANCED_FACE('',(#1213),#1218,.T.);
#1220=CARTESIAN_POINT('',(731.99958,-12.,520.07235));
#1221=VERTEX_POINT('',#1220);
#1222=DIRECTION('',(0.09802,0.,0.99518));
#1223=VECTOR('',#1222,5.09689);
#1224=LINE('',#1192,#1223);
#1225=EDGE_CURVE('',#1193,#1221,#1224,.T.);
#1226=ORIENTED_EDGE('',*,*,#1225,.T.);
#1227=CARTESIAN_POINT('',(731.99958,14.,520.07235));
#1228=VERTEX_POINT('',#1227);
#1229=DIRECTION('',(0.,1.,0.));
#1230=VECTOR('',#1229,26.);
#1231=LINE('',#1220,#1230);
#1232=EDGE_CURVE('',#1221,#1228,#1231,.T.);
#1233=ORIENTED_EDGE('',*,*,#1232,.T.);
#1234=DIRECTION('',(0.09802,0.,0.99518));
#1235=VECTOR('',#1234,5.09689);
#1236=LINE('',#1199,#1235);
#1237=EDGE_CURVE('',#1200,#1228,#1236,.T.);
#1238=ORIENTED_EDGE('',*,*,#1237,.F.);
#1239=ORIENTED_EDGE('',*,*,#1204,.F.);
#1240=EDGE_LOOP('',(#1226,#1233,#1238,#1239));
#1241=FACE_OUTER_BOUND('',#1240,.T.);
#1242=CARTESIAN_POINT('',(731.5,-12.,515.));
#1243=DIRECTION('',(-0.99518,0.,0.09802));
#1244=DIRECTION('',(0.09802,0.,0.99518));
#1245=AXIS2_PLACEMENT_3D('',#1242,#1243,#1244);
#1246=PLANE('',#1245);
#1247=ADVANCED_FACE('',(#1241),#1246,.T.);
#1248=CARTESIAN_POINT('',(733.47913,-12.,524.94977));
#1249=VERTEX_POINT('',#1248);
#1250=DIRECTION('',(0.29028,0.,0.95694));
#1251=VECTOR('',#1250,5.09689);
#1252=LINE('',#1220,#1251);
#1253=EDGE_CURVE('',#1221,#1249,#1252,.T.);
#1254=ORIENTED_EDGE('',*,*,#1253,.T.);
#1255=CARTESIAN_POINT('',(733.47913,14.,524.94977));
#1256=VERTEX_POINT('',#1255);
#1257=DIRECTION('',(0.,1.,0.));
#1258=VECTOR('',#1257,26.);
#1259=LINE('',#1248,#1258);
#1260=EDGE_CURVE('',#1249,#1256,#1259,.T.);
#1261=ORIENTED_EDGE('',*,*,#1260,.T.);
#1262=DIRECTION('',(0.29028,0.,0.95694));
#1263=VECTOR('',#1262,5.09689);
#1264=LINE('',#1227,#1263);
#1265=EDGE_CURVE('',#1228,#1256,#1264,.T.);
#1266=ORIENTED_EDGE('',*,*,#1265,.F.);
#1267=ORIENTED_EDGE('',*,*,#1232,.F.);
#1268=EDGE_LOOP('',(#1254,#1261,#1266,#1267));
#1269=FACE_OUTER_BOUND('',#1268,.T.);
#1270=CARTESIAN_POINT('',(731.99958,-12.,520.07235));
#1271=DIRECTION('',(-0.95694,0.,0.29028));
#1272=DIRECTION('',(0.29028,0.,0.95694));
#1273=AXIS2_PLACEMENT_3D('',#1270,#1271,#1272);
#1274=PLANE('',#1273);
#1275=ADVANCED_FACE('',(#1269),#1274,.T.);
#1276=CARTESIAN_POINT('',(735.88179,-12.,529.44483));
#1277=VERTEX_POINT('',#1276);
#1278=DIRECTION('',(0.4714,0.,0.88192));
#1279=VECTOR('',#1278,5.09689);
#1280=LINE('',#1248,#1279);
#1281=EDGE_CURVE('',#1249,#1277,#1280,.T.);
#1282=ORIENTED_EDGE('',*,*,#1281,.T.);
#1283=CARTESIAN_POINT('',(735.88179,14.,529.44483));
#1284=VERTEX_POINT('',#1283);
#1285=DIRECTION('',(0.,1.,0.));
#1286=VECTOR('',#1285,26.);
#1287=LINE('',#1276,#1286);
#1288=EDGE_CURVE('',#1277,#1284,#1287,.T.);
#1289=ORIENTED_EDGE('',*,*,#1288,.T.);
#1290=DIRECTION('',(0.4714,0.,0.88192));
#1291=VECTOR('',#1290,5.09689);
#1292=LINE('',#1255,#1291);
#1293=EDGE_CURVE('',#1256,#1284,#1292,.T.);
#1294=ORIENTED_EDGE('',*,*,#1293,.F.);
#1295=ORIENTED_EDGE('',*,*,#1260,.F.);
#1296=EDGE_LOOP('',(#1282,#1289,#1294,#1295));
#1297=FACE_OUTER_BOUND('',#1296,.T.);
#1298=CARTESIAN_POINT('',(733.47913,-12.,524.94977));
#1299=DIRECTION('',(-0.88192,0.,0.4714));
#1300=DIRECTION('',(0.4714,0.,0.88192));
#1301=AXIS2_PLACEMENT_3D('',#1298,#1299,#1300);
#1302=PLANE('',#1301);
#1303=ADVANCED_FACE('',(#1297),#1302,.T.);
#1304=CARTESIAN_POINT('',(739.11522,-12.,533.38478));
#1305=VERTEX_POINT('',#1304);
#1306=DIRECTION('',(0.63439,0.,0.77301));
#1307=VECTOR('',#1306,5.09689);
#1308=LINE('',#1276,#1307);
#1309=EDGE_CURVE('',#1277,#1305,#1308,.T.);
#1310=ORIENTED_EDGE('',*,*,#1309,.T.);
#1311=CARTESIAN_POINT('',(739.11522,14.,533.38478));
#1312=VERTEX_POINT('',#1311);
#1313=DIRECTION('',(0.,1.,0.));
#1314=VECTOR('',#1313,26.);
#1315=LINE('',#1304,#1314);
#1316=EDGE_CURVE('',#1305,#1312,#1315,.T.);
#1317=ORIENTED_EDGE('',*,*,#1316,.T.);
#1318=DIRECTION('',(0.63439,0.,0.77301));
#1319=VECTOR('',#1318,5.09689);
#1320=LINE('',#1283,#1319);
#1321=EDGE_CURVE('',#1284,#1312,#1320,.T.);
#1322=ORIENTED_EDGE('',*,*,#1321,.F.);
#1323=ORIENTED_EDGE('',*,*,#1288,.F.);
#1324=EDGE_LOOP('',(#1310,#1317,#1322,#1323));
#1325=FACE_OUTER_BOUND('',#1324,.T.);
#1326=CARTESIAN_POINT('',(735.88179,-12.,529.44483));
#1327=DIRECTION('',(-0.77301,0.,0.63439));
#1328=DIRECTION('',(0.63439,0.,0.77301));
#1329=AXIS2_PLACEMENT_3D('',#1326,#1327,#1328);
#1330=PLANE('',#1329);
#1331=ADVANCED_FACE('',(#1325),#1330,.T.);
#1332=CARTESIAN_POINT('',(743.05517,-12.,536.61821));
#1333=VERTEX_POINT('',#1332);
#1334=DIRECTION('',(0.77301,0.,0.63439));
#1335=VECTOR('',#1334,5.09689);
#1336=LINE('',#1304,#1335);
#1337=EDGE_CURVE('',#1305,#1333,#1336,.T.);
#1338=ORIENTED_EDGE('',*,*,#1337,.T.);
#1339=CARTESIAN_POINT('',(743.05517,14.,536.61821));
#1340=VERTEX_POINT('',#1339);
#1341=DIRECTION('',(0.,1.,0.));
#1342=VECTOR('',#1341,26.);
#1343=LINE('',#1332,#1342);
#1344=EDGE_CURVE('',#1333,#1340,#1343,.T.);
#1345=ORIENTED_EDGE('',*,*,#1344,.T.);
#1346=DIRECTION('',(0.77301,0.,0.63439));
#1347=VECTOR('',#1346,5.09689);
#1348=LINE('',#1311,#1347);
#1349=EDGE_CURVE('',#1312,#1340,#1348,.T.);
#1350=ORIENTED_EDGE('',*,*,#1349,.F.);
#1351=ORIENTED_EDGE('',*,*,#1316,.F.);
#1352=EDGE_LOOP('',(#1338,#1345,#1350,#1351));
#1353=FACE_OUTER_BOUND('',#1352,.T.);
#1354=CARTESIAN_POINT('',(739.11522,-12.,533.38478));
#1355=DIRECTION('',(-0.63439,0.,0.77301));
#1356=DIRECTION('',(0.77301,0.,0.63439));
#1357=AXIS2_PLACEMENT_3D('',#1354,#1355,#1356);
#1358=PLANE('',#1357);
#1359=ADVANCED_FACE('',(#1353),#1358,.T.);
#1360=CARTESIAN_POINT('',(747.55023,-12.,539.02087));
#1361=VERTEX_POINT('',#1360);
#1362=DIRECTION('',(0.88192,0.,0.4714));
#1363=VECTOR('',#1362,5.09689);
#1364=LINE('',#1332,#1363);
#1365=EDGE_CURVE('',#1333,#1361,#1364,.T.);
#1366=ORIENTED_EDGE('',*,*,#1365,.T.);
#1367=CARTESIAN_POINT('',(747.55023,14.,539.02087));
#1368=VERTEX_POINT('',#1367);
#1369=DIRECTION('',(0.,1.,0.));
#1370=VECTOR('',#1369,26.);
#1371=LINE('',#1360,#1370);
#1372=EDGE_CURVE('',#1361,#1368,#1371,.T.);
#1373=ORIENTED_EDGE('',*,*,#1372,.T.);
#1374=DIRECTION('',(0.88192,0.,0.4714));
#1375=VECTOR('',#1374,5.09689);
#1376=LINE('',#1339,#1375);
#1377=EDGE_CURVE('',#1340,#1368,#1376,.T.);
#1378=ORIENTED_EDGE('',*,*,#1377,.F.);
#1379=ORIENTED_EDGE('',*,*,#1344,.F.);
#1380=EDGE_LOOP('',(#1366,#1373,#1378,#1379));
#1381=FACE_OUTER_BOUND('',#1380,.T.);
#1382=CARTESIAN_POINT('',(743.05517,-12.,536.61821));
#1383=DIRECTION('',(-0.4714,0.,0.88192));
#1384=DIRECTION('',(0.88192,0.,0.4714));
#1385=AXIS2_PLACEMENT_3D('',#1382,#1383,#1384);
#1386=PLANE('',#1385);
#1387=ADVANCED_FACE('',(#1381),#1386,.T.);
#1388=CARTESIAN_POINT('',(752.42765,-12.,540.50042));
#1389=VERTEX_POINT('',#1388);
#1390=DIRECTION('',(0.95694,0.,0.29028));
#1391=VECTOR('',#1390,5.09689);
#1392=LINE('',#1360,#1391);
#1393=EDGE_CURVE('',#1361,#1389,#1392,.T.);
#1394=ORIENTED_EDGE('',*,*,#1393,.T.);
#1395=CARTESIAN_POINT('',(752.42765,14.,540.50042));
#1396=VERTEX_POINT('',#1395);
#1397=DIRECTION('',(0.,1.,0.));
#1398=VECTOR('',#1397,26.);
#1399=LINE('',#1388,#1398);
#1400=EDGE_CURVE('',#1389,#1396,#1399,.T.);
#1401=ORIENTED_EDGE('',*,*,#1400,.T.);
#1402=DIRECTION('',(0.95694,0.,0.29028));
#1403=VECTOR('',#1402,5.09689);
#1404=LINE('',#1367,#1403);
#1405=EDGE_CURVE('',#1368,#1396,#1404,.T.);
#1406=ORIENTED_EDGE('',*,*,#1405,.F.);
#1407=ORIENTED_EDGE('',*,*,#1372,.F.);
#1408=EDGE_LOOP('',(#1394,#1401,#1406,#1407));
#1409=FACE_OUTER_BOUND('',#1408,.T.);
#1410=CARTESIAN_POINT('',(747.55023,-12.,539.02087));
#1411=DIRECTION('',(-0.29028,0.,0.95694));
#1412=DIRECTION('',(0.95694,0.,0.29028));
#1413=AXIS2_PLACEMENT_3D('',#1410,#1411,#1412);
#1414=PLANE('',#1413);
#1415=ADVANCED_FACE('',(#1409),#1414,.T.);
#1416=CARTESIAN_POINT('',(757.5,-12.,541.));
#1417=VERTEX_POINT('',#1416);
#1418=DIRECTION('',(0.99518,0.,0.09802));
#1419=VECTOR('',#1418,5.09689);
#1420=LINE('',#1388,#1419);
#1421=EDGE_CURVE('',#1389,#1417,#1420,.T.);
#1422=ORIENTED_EDGE('',*,*,#1421,.T.);
#1423=CARTESIAN_POINT('',(757.5,14.,541.));
#1424=VERTEX_POINT('',#1423);
#1425=DIRECTION('',(0.,1.,0.));
#1426=VECTOR('',#1425,26.);
#1427=LINE('',#1416,#1426);
#1428=EDGE_CURVE('',#1417,#1424,#1427,.T.);
#1429=ORIENTED_EDGE('',*,*,#1428,.T.);
#1430=DIRECTION('',(0.99518,0.,0.09802));
#1431=VECTOR('',#1430,5.09689);
#1432=LINE('',#1395,#1431);
#1433=EDGE_CURVE('',#1396,#1424,#1432,.T.);
#1434=ORIENTED_EDGE('',*,*,#1433,.F.);
#1435=ORIENTED_EDGE('',*,*,#1400,.F.);
#1436=EDGE_LOOP('',(#1422,#1429,#1434,#1435));
#1437=FACE_OUTER_BOUND('',#1436,.T.);
#1438=CARTESIAN_POINT('',(752.42765,-12.,540.50042));
#1439=DIRECTION('',(-0.09802,0.,0.99518));
#1440=DIRECTION('',(0.99518,0.,0.09802));
#1441=AXIS2_PLACEMENT_3D('',#1438,#1439,#1440);
#1442=PLANE('',#1441);
#1443=ADVANCED_FACE('',(#1437),#1442,.T.);
#1444=CARTESIAN_POINT('',(762.57235,-12.,540.50042));
#1445=VERTEX_POINT('',#1444);
#1446=DIRECTION('',(0.99518,0.,-0.09802));
#1447=VECTOR('',#1446,5.09689);
#1448=LINE('',#1416,#1447);
#1449=EDGE_CURVE('',#1417,#1445,#1448,.T.);
#1450=ORIENTED_EDGE('',*,*,#1449,.T.);
#1451=CARTESIAN_POINT('',(762.57235,14.,540.50042));
#1452=VERTEX_POINT('',#1451);
#1453=DIRECTION('',(0.,1.,0.));
#1454=VECTOR('',#1453,26.);
#1455=LINE('',#1444,#1454);
#1456=EDGE_CURVE('',#1445,#1452,#1455,.T.);
#1457=ORIENTED_EDGE('',*,*,#1456,.T.);
#1458=DIRECTION('',(0.99518,0.,-0.09802));
#1459=VECTOR('',#1458,5.09689);
#1460=LINE('',#1423,#1459);
#1461=EDGE_CURVE('',#1424,#1452,#1460,.T.);
#1462=ORIENTED_EDGE('',*,*,#1461,.F.);
#1463=ORIENTED_EDGE('',*,*,#1428,.F.);
#1464=EDGE_LOOP('',(#1450,#1457,#1462,#1463));
#1465=FACE_OUTER_BOUND('',#1464,.T.);
#1466=CARTESIAN_POINT('',(757.5,-12.,541.));
#1467=DIRECTION('',(0.09802,0.,0.99518));
#1468=DIRECTION('',(0.99518,0.,-0.09802));
#1469=AXIS2_PLACEMENT_3D('',#1466,#1467,#1468);
#1470=PLANE('',#1469);
#1471=ADVANCED_FACE('',(#1465),#1470,.T.);
#1472=CARTESIAN_POINT('',(767.44977,-12.,539.02087));
#1473=VERTEX_POINT('',#1472);
#1474=DIRECTION('',(0.95694,0.,-0.29028));
#1475=VECTOR('',#1474,5.09689);
#1476=LINE('',#1444,#1475);
#1477=EDGE_CURVE('',#1445,#1473,#1476,.T.);
#1478=ORIENTED_EDGE('',*,*,#1477,.T.);
#1479=CARTESIAN_POINT('',(767.44977,14.,539.02087));
#1480=VERTEX_POINT('',#1479);
#1481=DIRECTION('',(0.,1.,0.));
#1482=VECTOR('',#1481,26.);
#1483=LINE('',#1472,#1482);
#1484=EDGE_CURVE('',#1473,#1480,#1483,.T.);
#1485=ORIENTED_EDGE('',*,*,#1484,.T.);
#1486=DIRECTION('',(0.95694,0.,-0.29028));
#1487=VECTOR('',#1486,5.09689);
#1488=LINE('',#1451,#1487);
#1489=EDGE_CURVE('',#1452,#1480,#1488,.T.);
#1490=ORIENTED_EDGE('',*,*,#1489,.F.);
#1491=ORIENTED_EDGE('',*,*,#1456,.F.);
#1492=EDGE_LOOP('',(#1478,#1485,#1490,#1491));
#1493=FACE_OUTER_BOUND('',#1492,.T.);
#1494=CARTESIAN_POINT('',(762.57235,-12.,540.50042));
#1495=DIRECTION('',(0.29028,0.,0.95694));
#1496=DIRECTION('',(0.95694,0.,-0.29028));
#1497=AXIS2_PLACEMENT_3D('',#1494,#1495,#1496);
#1498=PLANE('',#1497);
#1499=ADVANCED_FACE('',(#1493),#1498,.T.);
#1500=CARTESIAN_POINT('',(771.94483,-12.,536.61821));
#1501=VERTEX_POINT('',#1500);
#1502=DIRECTION('',(0.88192,0.,-0.4714));
#1503=VECTOR('',#1502,5.09689);
#1504=LINE('',#1472,#1503);
#1505=EDGE_CURVE('',#1473,#1501,#1504,.T.);
#1506=ORIENTED_EDGE('',*,*,#1505,.T.);
#1507=CARTESIAN_POINT('',(771.94483,14.,536.61821));
#1508=VERTEX_POINT('',#1507);
#1509=DIRECTION('',(0.,1.,0.));
#1510=VECTOR('',#1509,26.);
#1511=LINE('',#1500,#1510);
#1512=EDGE_CURVE('',#1501,#1508,#1511,.T.);
#1513=ORIENTED_EDGE('',*,*,#1512,.T.);
#1514=DIRECTION('',(0.88192,0.,-0.4714));
#1515=VECTOR('',#1514,5.09689);
#1516=LINE('',#1479,#1515);
#1517=EDGE_CURVE('',#1480,#1508,#1516,.T.);
#1518=ORIENTED_EDGE('',*,*,#1517,.F.);
#1519=ORIENTED_EDGE('',*,*,#1484,.F.);
#1520=EDGE_LOOP('',(#1506,#1513,#1518,#1519));
#1521=FACE_OUTER_BOUND('',#1520,.T.);
#1522=CARTESIAN_POINT('',(767.44977,-12.,539.02087));
#1523=DIRECTION('',(0.4714,0.,0.88192));
#1524=DIRECTION('',(0.88192,0.,-0.4714));
#1525=AXIS2_PLACEMENT_3D('',#1522,#1523,#1524);
#1526=PLANE('',#1525);
#1527=ADVANCED_FACE('',(#1521),#1526,.T.);
#1528=CARTESIAN_POINT('',(775.88478,-12.,533.38478));
#1529=VERTEX_POINT('',#1528);
#1530=DIRECTION('',(0.77301,0.,-0.63439));
#1531=VECTOR('',#1530,5.09689);
#1532=LINE('',#1500,#1531);
#1533=EDGE_CURVE('',#1501,#1529,#1532,.T.);
#1534=ORIENTED_EDGE('',*,*,#1533,.T.);
#1535=CARTESIAN_POINT('',(775.88478,14.,533.38478));
#1536=VERTEX_POINT('',#1535);
#1537=DIRECTION('',(0.,1.,0.));
#1538=VECTOR('',#1537,26.);
#1539=LINE('',#1528,#1538);
#1540=EDGE_CURVE('',#1529,#1536,#1539,.T.);
#1541=ORIENTED_EDGE('',*,*,#1540,.T.);
#1542=DIRECTION('',(0.77301,0.,-0.63439));
#1543=VECTOR('',#1542,5.09689);
#1544=LINE('',#1507,#1543);
#1545=EDGE_CURVE('',#1508,#1536,#1544,.T.);
#1546=ORIENTED_EDGE('',*,*,#1545,.F.);
#1547=ORIENTED_EDGE('',*,*,#1512,.F.);
#1548=EDGE_LOOP('',(#1534,#1541,#1546,#1547));
#1549=FACE_OUTER_BOUND('',#1548,.T.);
#1550=CARTESIAN_POINT('',(771.94483,-12.,536.61821));
#1551=DIRECTION('',(0.63439,0.,0.77301));
#1552=DIRECTION('',(0.77301,0.,-0.63439));
#1553=AXIS2_PLACEMENT_3D('',#1550,#1551,#1552);
#1554=PLANE('',#1553);
#1555=ADVANCED_FACE('',(#1549),#1554,.T.);
#1556=CARTESIAN_POINT('',(779.11821,-12.,529.44483));
#1557=VERTEX_POINT('',#1556);
#1558=DIRECTION('',(0.63439,0.,-0.77301));
#1559=VECTOR('',#1558,5.09689);
#1560=LINE('',#1528,#1559);
#1561=EDGE_CURVE('',#1529,#1557,#1560,.T.);
#1562=ORIENTED_EDGE('',*,*,#1561,.T.);
#1563=CARTESIAN_POINT('',(779.11821,14.,529.44483));
#1564=VERTEX_POINT('',#1563);
#1565=DIRECTION('',(0.,1.,0.));
#1566=VECTOR('',#1565,26.);
#1567=LINE('',#1556,#1566);
#1568=EDGE_CURVE('',#1557,#1564,#1567,.T.);
#1569=ORIENTED_EDGE('',*,*,#1568,.T.);
#1570=DIRECTION('',(0.63439,0.,-0.77301));
#1571=VECTOR('',#1570,5.09689);
#1572=LINE('',#1535,#1571);
#1573=EDGE_CURVE('',#1536,#1564,#1572,.T.);
#1574=ORIENTED_EDGE('',*,*,#1573,.F.);
#1575=ORIENTED_EDGE('',*,*,#1540,.F.);
#1576=EDGE_LOOP('',(#1562,#1569,#1574,#1575));
#1577=FACE_OUTER_BOUND('',#1576,.T.);
#1578=CARTESIAN_POINT('',(775.88478,-12.,533.38478));
#1579=DIRECTION('',(0.77301,0.,0.63439));
#1580=DIRECTION('',(0.63439,0.,-0.77301));
#1581=AXIS2_PLACEMENT_3D('',#1578,#1579,#1580);
#1582=PLANE('',#1581);
#1583=ADVANCED_FACE('',(#1577),#1582,.T.);
#1584=CARTESIAN_POINT('',(781.52087,-12.,524.94977));
#1585=VERTEX_POINT('',#1584);
#1586=DIRECTION('',(0.4714,0.,-0.88192));
#1587=VECTOR('',#1586,5.09689);
#1588=LINE('',#1556,#1587);
#1589=EDGE_CURVE('',#1557,#1585,#1588,.T.);
#1590=ORIENTED_EDGE('',*,*,#1589,.T.);
#1591=CARTESIAN_POINT('',(781.52087,14.,524.94977));
#1592=VERTEX_POINT('',#1591);
#1593=DIRECTION('',(0.,1.,0.));
#1594=VECTOR('',#1593,26.);
#1595=LINE('',#1584,#1594);
#1596=EDGE_CURVE('',#1585,#1592,#1595,.T.);
#1597=ORIENTED_EDGE('',*,*,#1596,.T.);
#1598=DIRECTION('',(0.4714,0.,-0.88192));
#1599=VECTOR('',#1598,5.09689);
#1600=LINE('',#1563,#1599);
#1601=EDGE_CURVE('',#1564,#1592,#1600,.T.);
#1602=ORIENTED_EDGE('',*,*,#1601,.F.);
#1603=ORIENTED_EDGE('',*,*,#1568,.F.);
#1604=EDGE_LOOP('',(#1590,#1597,#1602,#1603));
#1605=FACE_OUTER_BOUND('',#1604,.T.);
#1606=CARTESIAN_POINT('',(779.11821,-12.,529.44483));
#1607=DIRECTION('',(0.88192,0.,0.4714));
#1608=DIRECTION('',(0.4714,0.,-0.88192));
#1609=AXIS2_PLACEMENT_3D('',#1606,#1607,#1608);
#1610=PLANE('',#1609);
#1611=ADVANCED_FACE('',(#1605),#1610,.T.);
#1612=CARTESIAN_POINT('',(783.00042,-12.,520.07235));
#1613=VERTEX_POINT('',#1612);
#1614=DIRECTION('',(0.29028,0.,-0.95694));
#1615=VECTOR('',#1614,5.09689);
#1616=LINE('',#1584,#1615);
#1617=EDGE_CURVE('',#1585,#1613,#1616,.T.);
#1618=ORIENTED_EDGE('',*,*,#1617,.T.);
#1619=CARTESIAN_POINT('',(783.00042,14.,520.07235));
#1620=VERTEX_POINT('',#1619);
#1621=DIRECTION('',(0.,1.,0.));
#1622=VECTOR('',#1621,26.);
#1623=LINE('',#1612,#1622);
#1624=EDGE_CURVE('',#1613,#1620,#1623,.T.);
#1625=ORIENTED_EDGE('',*,*,#1624,.T.);
#1626=DIRECTION('',(0.29028,0.,-0.95694));
#1627=VECTOR('',#1626,5.09689);
#1628=LINE('',#1591,#1627);
#1629=EDGE_CURVE('',#1592,#1620,#1628,.T.);
#1630=ORIENTED_EDGE('',*,*,#1629,.F.);
#1631=ORIENTED_EDGE('',*,*,#1596,.F.);
#1632=EDGE_LOOP('',(#1618,#1625,#1630,#1631));
#1633=FACE_OUTER_BOUND('',#1632,.T.);
#1634=CARTESIAN_POINT('',(781.52087,-12.,524.94977));
#1635=DIRECTION('',(0.95694,0.,0.29028));
#1636=DIRECTION('',(0.29028,0.,-0.95694));
#1637=AXIS2_PLACEMENT_3D('',#1634,#1635,#1636);
#1638=PLANE('',#1637);
#1639=ADVANCED_FACE('',(#1633),#1638,.T.);
#1640=DIRECTION('',(-0.09802,0.,0.99518));
#1641=VECTOR('',#1640,5.09689);
#1642=LINE('',#764,#1641);
#1643=EDGE_CURVE('',#765,#1613,#1642,.T.);
#1644=ORIENTED_EDGE('',*,*,#1643,.F.);
#1645=ORIENTED_EDGE('',*,*,#790,.T.);
#1646=DIRECTION('',(-0.09802,0.,0.99518));
#1647=VECTOR('',#1646,5.09689);
#1648=LINE('',#780,#1647);
#1649=EDGE_CURVE('',#781,#1620,#1648,.T.);
#1650=ORIENTED_EDGE('',*,*,#1649,.T.);
#1651=ORIENTED_EDGE('',*,*,#1624,.F.);
#1652=EDGE_LOOP('',(#1644,#1645,#1650,#1651));
#1653=FACE_OUTER_BOUND('',#1652,.T.);
#1654=CARTESIAN_POINT('',(783.00042,-12.,520.07235));
#1655=DIRECTION('',(0.99518,0.,0.09802));
#1656=DIRECTION('',(0.09802,0.,-0.99518));
#1657=AXIS2_PLACEMENT_3D('',#1654,#1655,#1656);
#1658=PLANE('',#1657);
#1659=ADVANCED_FACE('',(#1653),#1658,.T.);
#1660=ORIENTED_EDGE('',*,*,#1617,.F.);
#1661=ORIENTED_EDGE('',*,*,#1589,.F.);
#1662=ORIENTED_EDGE('',*,*,#1561,.F.);
#1663=ORIENTED_EDGE('',*,*,#1533,.F.);
#1664=ORIENTED_EDGE('',*,*,#1505,.F.);
#1665=ORIENTED_EDGE('',*,*,#1477,.F.);
#1666=ORIENTED_EDGE('',*,*,#1449,.F.);
#1667=ORIENTED_EDGE('',*,*,#1421,.F.);
#1668=ORIENTED_EDGE('',*,*,#1393,.F.);
#1669=ORIENTED_EDGE('',*,*,#1365,.F.);
#1670=ORIENTED_EDGE('',*,*,#1337,.F.);
#1671=ORIENTED_EDGE('',*,*,#1309,.F.);
#1672=ORIENTED_EDGE('',*,*,#1281,.F.);
#1673=ORIENTED_EDGE('',*,*,#1253,.F.);
#1674=ORIENTED_EDGE('',*,*,#1225,.F.);
#1675=ORIENTED_EDGE('',*,*,#1197,.F.);
#1676=ORIENTED_EDGE('',*,*,#1169,.F.);
#1677=ORIENTED_EDGE('',*,*,#1141,.F.);
#1678=ORIENTED_EDGE('',*,*,#1113,.F.);
#1679=ORIENTED_EDGE('',*,*,#1085,.F.);
#1680=ORIENTED_EDGE('',*,*,#1057,.F.);
#1681=ORIENTED_EDGE('',*,*,#1029,.F.);
#1682=ORIENTED_EDGE('',*,*,#1001,.F.);
#1683=ORIENTED_EDGE('',*,*,#973,.F.);
#1684=ORIENTED_EDGE('',*,*,#945,.F.);
#1685=ORIENTED_EDGE('',*,*,#917,.F.);
#1686=ORIENTED_EDGE('',*,*,#889,.F.);
#1687=ORIENTED_EDGE('',*,*,#861,.F.);
#1688=ORIENTED_EDGE('',*,*,#833,.F.);
#1689=ORIENTED_EDGE('',*,*,#805,.F.);
#1690=ORIENTED_EDGE('',*,*,#771,.F.);
#1691=ORIENTED_EDGE('',*,*,#1643,.T.);
#1692=EDGE_LOOP('',(#1660,#1661,#1662,#1663,#1664,#1665,#1666,#1667,#1668,#1669,#1670,#1671,#1672,#1673,#1674,#1675,#1676,#1677,#1678,#1679,#1680,#1681,#1682,#1683,#1684,#1685,#1686,#1687,#1688,#1689,#1690,#1691));
#1693=FACE_OUTER_BOUND('',#1692,.T.);
#1694=CARTESIAN_POINT('',(783.00042,-12.,520.07235));
#1695=DIRECTION('',(0.,-1.,0.));
#1696=DIRECTION('',(-0.29028,0.,0.95694));
#1697=AXIS2_PLACEMENT_3D('',#1694,#1695,#1696);
#1698=PLANE('',#1697);
#1699=ADVANCED_FACE('',(#1693),#1698,.T.);
#1700=ORIENTED_EDGE('',*,*,#785,.T.);
#1701=ORIENTED_EDGE('',*,*,#817,.T.);
#1702=ORIENTED_EDGE('',*,*,#845,.T.);
#1703=ORIENTED_EDGE('',*,*,#873,.T.);
#1704=ORIENTED_EDGE('',*,*,#901,.T.);
#1705=ORIENTED_EDGE('',*,*,#929,.T.);
#1706=ORIENTED_EDGE('',*,*,#957,.T.);
#1707=ORIENTED_EDGE('',*,*,#985,.T.);
#1708=ORIENTED_EDGE('',*,*,#1013,.T.);
#1709=ORIENTED_EDGE('',*,*,#1041,.T.);
#1710=ORIENTED_EDGE('',*,*,#1069,.T.);
#1711=ORIENTED_EDGE('',*,*,#1097,.T.);
#1712=ORIENTED_EDGE('',*,*,#1125,.T.);
#1713=ORIENTED_EDGE('',*,*,#1153,.T.);
#1714=ORIENTED_EDGE('',*,*,#1181,.T.);
#1715=ORIENTED_EDGE('',*,*,#1209,.T.);
#1716=ORIENTED_EDGE('',*,*,#1237,.T.);
#1717=ORIENTED_EDGE('',*,*,#1265,.T.);
#1718=ORIENTED_EDGE('',*,*,#1293,.T.);
#1719=ORIENTED_EDGE('',*,*,#1321,.T.);
#1720=ORIENTED_EDGE('',*,*,#1349,.T.);
#1721=ORIENTED_EDGE('',*,*,#1377,.T.);
#1722=ORIENTED_EDGE('',*,*,#1405,.T.);
#1723=ORIENTED_EDGE('',*,*,#1433,.T.);
#1724=ORIENTED_EDGE('',*,*,#1461,.T.);
#1725=ORIENTED_EDGE('',*,*,#1489,.T.);
#1726=ORIENTED_EDGE('',*,*,#1517,.T.);
#1727=ORIENTED_EDGE('',*,*,#1545,.T.);
#1728=ORIENTED_EDGE('',*,*,#1573,.T.);
#1729=ORIENTED_EDGE('',*,*,#1601,.T.);
#1730=ORIENTED_EDGE('',*,*,#1629,.T.);
#1731=ORIENTED_EDGE('',*,*,#1649,.F.);
#1732=EDGE_LOOP('',(#1700,#1701,#1702,#1703,#1704,#1705,#1706,#1707,#1708,#1709,#1710,#1711,#1712,#1713,#1714,#1715,#1716,#1717,#1718,#1719,#1720,#1721,#1722,#1723,#1724,#1725,#1726,#1727,#1728,#1729,#1730,#1731));
#1733=FACE_OUTER_BOUND('',#1732,.T.);
#1734=CARTESIAN_POINT('',(783.5,14.,515.));
#1735=DIRECTION('',(0.,1.,0.));
#1736=DIRECTION('',(-0.09802,0.,-0.99518));
#1737=AXIS2_PLACEMENT_3D('',#1734,#1735,#1736);
#1738=PLANE('',#1737);
#1739=ADVANCED_FACE('',(#1733),#1738,.T.);
#1740=CLOSED_SHELL('',(#799,#827,#855,#883,#911,#939,#967,#995,#1023,#1051,#1079,#1107,#1135,#1163,#1191,#1219,#1247,#1275,#1303,#1331,#1359,#1387,#1415,#1443,#1471,#1499,#1527,#1555,#1583,#1611,#1639,#1659,#1699,#1739));
#1741=MANIFOLD_SOLID_BREP('',#1740);
#1742=STYLED_ITEM('color',(#762),#1741);
#1743=ADVANCED_BREP_SHAPE_REPRESENTATION('',(#17,#755,#1741),#9);
#1744=SHAPE_DEFINITION_REPRESENTATION(#13,#1743);
#1745=MECHANICAL_DESIGN_GEOMETRIC_PRESENTATION_REPRESENTATION('',(#763,#1742),#9);
#1746=PRODUCT_RELATED_PRODUCT_CATEGORY('part',$,(#10));
ENDSEC;
END-ISO-10303-21;
