ISO-10303-21;
HEADER;
FILE_DESCRIPTION(('AquaSentinel R3 - planar B-rep export'),'2;1');
FILE_NAME('Crossbeam SHS 40x40x3','2026-10-04T21:49:42',('AquaSentinel team'),('Sanjivani University'),'AquaSentinel R3 python build','AquaSentinel R3','');
FILE_SCHEMA(('AUTOMOTIVE_DESIGN { 1 0 10303 214 1 1 1 1 }'));
ENDSEC;
DATA;
#1=APPLICATION_CONTEXT('core data for automotive mechanical design processes');
#2=APPLICATION_PROTOCOL_DEFINITION('international standard','automotive_design',2000,#1);
#3=PRODUCT_CONTEXT('',#1,'mechanical');
#4=PRODUCT_DEFINITION_CONTEXT('part definition',#1,'design');
#5=(LENGTH_UNIT()NAMED_UNIT(*)SI_UNIT(.MILLI.,.METRE.));
#6=(NAMED_UNIT(*)PLANE_ANGLE_UNIT()SI_UNIT($,.RADIAN.));
#7=(NAMED_UNIT(*)SI_UNIT($,.STERADIAN.)SOLID_ANGLE_UNIT());
#8=UNCERTAINTY_MEASURE_WITH_UNIT(LENGTH_MEASURE(1.E-04),#5,'distance_accuracy_value','confusion accuracy');
#9=(GEOMETRIC_REPRESENTATION_CONTEXT(3)GLOBAL_UNCERTAINTY_ASSIGNED_CONTEXT((#8))GLOBAL_UNIT_ASSIGNED_CONTEXT((#5,#6,#7))REPRESENTATION_CONTEXT('Context','3D Context with UNIT and UNCERTAINTY'));
#10=PRODUCT('AS3-211','Crossbeam SHS 40x40x3','Ties both hulls, carries the deck',(#3));
#11=PRODUCT_DEFINITION_FORMATION('','',#10);
#12=PRODUCT_DEFINITION('design','',#11,#4);
#13=PRODUCT_DEFINITION_SHAPE('','',#12);
#14=CARTESIAN_POINT('',(0.,0.,0.));
#15=DIRECTION('',(0.,0.,1.));
#16=DIRECTION('',(1.,0.,0.));
#17=AXIS2_PLACEMENT_3D('',#14,#15,#16);
#18=CARTESIAN_POINT('',(16.,375.,-20.));
#19=VERTEX_POINT('',#18);
#20=CARTESIAN_POINT('',(18.,375.,-19.4641));
#21=VERTEX_POINT('',#20);
#22=DIRECTION('',(0.96593,0.,0.25882));
#23=VECTOR('',#22,2.07055);
#24=LINE('',#18,#23);
#25=EDGE_CURVE('',#19,#21,#24,.T.);
#26=ORIENTED_EDGE('',*,*,#25,.T.);
#27=CARTESIAN_POINT('',(18.,-375.,-19.4641));
#28=VERTEX_POINT('',#27);
#29=DIRECTION('',(0.,1.,0.));
#30=VECTOR('',#29,750.);
#31=LINE('',#27,#30);
#32=EDGE_CURVE('',#28,#21,#31,.T.);
#33=ORIENTED_EDGE('',*,*,#32,.F.);
#34=CARTESIAN_POINT('',(16.,-375.,-20.));
#35=VERTEX_POINT('',#34);
#36=DIRECTION('',(0.96593,0.,0.25882));
#37=VECTOR('',#36,2.07055);
#38=LINE('',#34,#37);
#39=EDGE_CURVE('',#35,#28,#38,.T.);
#40=ORIENTED_EDGE('',*,*,#39,.F.);
#41=DIRECTION('',(0.,1.,0.));
#42=VECTOR('',#41,750.);
#43=LINE('',#34,#42);
#44=EDGE_CURVE('',#35,#19,#43,.T.);
#45=ORIENTED_EDGE('',*,*,#44,.T.);
#46=EDGE_LOOP('',(#26,#33,#40,#45));
#47=FACE_OUTER_BOUND('',#46,.T.);
#48=CARTESIAN_POINT('',(16.,375.,-20.));
#49=DIRECTION('',(0.25882,0.,-0.96593));
#50=DIRECTION('',(0.96593,0.,0.25882));
#51=AXIS2_PLACEMENT_3D('',#48,#49,#50);
#52=PLANE('',#51);
#53=ADVANCED_FACE('',(#47),#52,.T.);
#54=CARTESIAN_POINT('',(19.4641,375.,-18.));
#55=VERTEX_POINT('',#54);
#56=DIRECTION('',(0.70711,0.,0.70711));
#57=VECTOR('',#56,2.07055);
#58=LINE('',#20,#57);
#59=EDGE_CURVE('',#21,#55,#58,.T.);
#60=ORIENTED_EDGE('',*,*,#59,.T.);
#61=CARTESIAN_POINT('',(19.4641,-375.,-18.));
#62=VERTEX_POINT('',#61);
#63=DIRECTION('',(0.,1.,0.));
#64=VECTOR('',#63,750.);
#65=LINE('',#61,#64);
#66=EDGE_CURVE('',#62,#55,#65,.T.);
#67=ORIENTED_EDGE('',*,*,#66,.F.);
#68=DIRECTION('',(0.70711,0.,0.70711));
#69=VECTOR('',#68,2.07055);
#70=LINE('',#27,#69);
#71=EDGE_CURVE('',#28,#62,#70,.T.);
#72=ORIENTED_EDGE('',*,*,#71,.F.);
#73=ORIENTED_EDGE('',*,*,#32,.T.);
#74=EDGE_LOOP('',(#60,#67,#72,#73));
#75=FACE_OUTER_BOUND('',#74,.T.);
#76=CARTESIAN_POINT('',(18.,375.,-19.4641));
#77=DIRECTION('',(0.70711,0.,-0.70711));
#78=DIRECTION('',(0.70711,0.,0.70711));
#79=AXIS2_PLACEMENT_3D('',#76,#77,#78);
#80=PLANE('',#79);
#81=ADVANCED_FACE('',(#75),#80,.T.);
#82=CARTESIAN_POINT('',(20.,375.,-16.));
#83=VERTEX_POINT('',#82);
#84=DIRECTION('',(0.25882,0.,0.96593));
#85=VECTOR('',#84,2.07055);
#86=LINE('',#54,#85);
#87=EDGE_CURVE('',#55,#83,#86,.T.);
#88=ORIENTED_EDGE('',*,*,#87,.T.);
#89=CARTESIAN_POINT('',(20.,-375.,-16.));
#90=VERTEX_POINT('',#89);
#91=DIRECTION('',(0.,1.,0.));
#92=VECTOR('',#91,750.);
#93=LINE('',#89,#92);
#94=EDGE_CURVE('',#90,#83,#93,.T.);
#95=ORIENTED_EDGE('',*,*,#94,.F.);
#96=DIRECTION('',(0.25882,0.,0.96593));
#97=VECTOR('',#96,2.07055);
#98=LINE('',#61,#97);
#99=EDGE_CURVE('',#62,#90,#98,.T.);
#100=ORIENTED_EDGE('',*,*,#99,.F.);
#101=ORIENTED_EDGE('',*,*,#66,.T.);
#102=EDGE_LOOP('',(#88,#95,#100,#101));
#103=FACE_OUTER_BOUND('',#102,.T.);
#104=CARTESIAN_POINT('',(19.4641,375.,-18.));
#105=DIRECTION('',(0.96593,0.,-0.25882));
#106=DIRECTION('',(0.25882,0.,0.96593));
#107=AXIS2_PLACEMENT_3D('',#104,#105,#106);
#108=PLANE('',#107);
#109=ADVANCED_FACE('',(#103),#108,.T.);
#110=CARTESIAN_POINT('',(20.,375.,16.));
#111=VERTEX_POINT('',#110);
#112=DIRECTION('',(0.,0.,1.));
#113=VECTOR('',#112,32.);
#114=LINE('',#82,#113);
#115=EDGE_CURVE('',#83,#111,#114,.T.);
#116=ORIENTED_EDGE('',*,*,#115,.T.);
#117=CARTESIAN_POINT('',(20.,-375.,16.));
#118=VERTEX_POINT('',#117);
#119=DIRECTION('',(0.,1.,0.));
#120=VECTOR('',#119,750.);
#121=LINE('',#117,#120);
#122=EDGE_CURVE('',#118,#111,#121,.T.);
#123=ORIENTED_EDGE('',*,*,#122,.F.);
#124=DIRECTION('',(0.,0.,1.));
#125=VECTOR('',#124,32.);
#126=LINE('',#89,#125);
#127=EDGE_CURVE('',#90,#118,#126,.T.);
#128=ORIENTED_EDGE('',*,*,#127,.F.);
#129=ORIENTED_EDGE('',*,*,#94,.T.);
#130=EDGE_LOOP('',(#116,#123,#128,#129));
#131=FACE_OUTER_BOUND('',#130,.T.);
#132=CARTESIAN_POINT('',(20.,375.,-16.));
#133=DIRECTION('',(1.,0.,0.));
#134=DIRECTION('',(0.,0.,1.));
#135=AXIS2_PLACEMENT_3D('',#132,#133,#134);
#136=PLANE('',#135);
#137=ADVANCED_FACE('',(#131),#136,.T.);
#138=CARTESIAN_POINT('',(19.4641,375.,18.));
#139=VERTEX_POINT('',#138);
#140=DIRECTION('',(-0.25882,0.,0.96593));
#141=VECTOR('',#140,2.07055);
#142=LINE('',#110,#141);
#143=EDGE_CURVE('',#111,#139,#142,.T.);
#144=ORIENTED_EDGE('',*,*,#143,.T.);
#145=CARTESIAN_POINT('',(19.4641,-375.,18.));
#146=VERTEX_POINT('',#145);
#147=DIRECTION('',(0.,1.,0.));
#148=VECTOR('',#147,750.);
#149=LINE('',#145,#148);
#150=EDGE_CURVE('',#146,#139,#149,.T.);
#151=ORIENTED_EDGE('',*,*,#150,.F.);
#152=DIRECTION('',(-0.25882,0.,0.96593));
#153=VECTOR('',#152,2.07055);
#154=LINE('',#117,#153);
#155=EDGE_CURVE('',#118,#146,#154,.T.);
#156=ORIENTED_EDGE('',*,*,#155,.F.);
#157=ORIENTED_EDGE('',*,*,#122,.T.);
#158=EDGE_LOOP('',(#144,#151,#156,#157));
#159=FACE_OUTER_BOUND('',#158,.T.);
#160=CARTESIAN_POINT('',(20.,375.,16.));
#161=DIRECTION('',(0.96593,0.,0.25882));
#162=DIRECTION('',(-0.25882,0.,0.96593));
#163=AXIS2_PLACEMENT_3D('',#160,#161,#162);
#164=PLANE('',#163);
#165=ADVANCED_FACE('',(#159),#164,.T.);
#166=CARTESIAN_POINT('',(18.,375.,19.4641));
#167=VERTEX_POINT('',#166);
#168=DIRECTION('',(-0.70711,0.,0.70711));
#169=VECTOR('',#168,2.07055);
#170=LINE('',#138,#169);
#171=EDGE_CURVE('',#139,#167,#170,.T.);
#172=ORIENTED_EDGE('',*,*,#171,.T.);
#173=CARTESIAN_POINT('',(18.,-375.,19.4641));
#174=VERTEX_POINT('',#173);
#175=DIRECTION('',(0.,1.,0.));
#176=VECTOR('',#175,750.);
#177=LINE('',#173,#176);
#178=EDGE_CURVE('',#174,#167,#177,.T.);
#179=ORIENTED_EDGE('',*,*,#178,.F.);
#180=DIRECTION('',(-0.70711,0.,0.70711));
#181=VECTOR('',#180,2.07055);
#182=LINE('',#145,#181);
#183=EDGE_CURVE('',#146,#174,#182,.T.);
#184=ORIENTED_EDGE('',*,*,#183,.F.);
#185=ORIENTED_EDGE('',*,*,#150,.T.);
#186=EDGE_LOOP('',(#172,#179,#184,#185));
#187=FACE_OUTER_BOUND('',#186,.T.);
#188=CARTESIAN_POINT('',(19.4641,375.,18.));
#189=DIRECTION('',(0.70711,0.,0.70711));
#190=DIRECTION('',(-0.70711,0.,0.70711));
#191=AXIS2_PLACEMENT_3D('',#188,#189,#190);
#192=PLANE('',#191);
#193=ADVANCED_FACE('',(#187),#192,.T.);
#194=CARTESIAN_POINT('',(16.,375.,20.));
#195=VERTEX_POINT('',#194);
#196=DIRECTION('',(-0.96593,0.,0.25882));
#197=VECTOR('',#196,2.07055);
#198=LINE('',#166,#197);
#199=EDGE_CURVE('',#167,#195,#198,.T.);
#200=ORIENTED_EDGE('',*,*,#199,.T.);
#201=CARTESIAN_POINT('',(16.,-375.,20.));
#202=VERTEX_POINT('',#201);
#203=DIRECTION('',(0.,1.,0.));
#204=VECTOR('',#203,750.);
#205=LINE('',#201,#204);
#206=EDGE_CURVE('',#202,#195,#205,.T.);
#207=ORIENTED_EDGE('',*,*,#206,.F.);
#208=DIRECTION('',(-0.96593,0.,0.25882));
#209=VECTOR('',#208,2.07055);
#210=LINE('',#173,#209);
#211=EDGE_CURVE('',#174,#202,#210,.T.);
#212=ORIENTED_EDGE('',*,*,#211,.F.);
#213=ORIENTED_EDGE('',*,*,#178,.T.);
#214=EDGE_LOOP('',(#200,#207,#212,#213));
#215=FACE_OUTER_BOUND('',#214,.T.);
#216=CARTESIAN_POINT('',(18.,375.,19.4641));
#217=DIRECTION('',(0.25882,0.,0.96593));
#218=DIRECTION('',(-0.96593,0.,0.25882));
#219=AXIS2_PLACEMENT_3D('',#216,#217,#218);
#220=PLANE('',#219);
#221=ADVANCED_FACE('',(#215),#220,.T.);
#222=CARTESIAN_POINT('',(-16.,375.,20.));
#223=VERTEX_POINT('',#222);
#224=DIRECTION('',(-1.,0.,0.));
#225=VECTOR('',#224,32.);
#226=LINE('',#194,#225);
#227=EDGE_CURVE('',#195,#223,#226,.T.);
#228=ORIENTED_EDGE('',*,*,#227,.T.);
#229=CARTESIAN_POINT('',(-16.,-375.,20.));
#230=VERTEX_POINT('',#229);
#231=DIRECTION('',(0.,1.,0.));
#232=VECTOR('',#231,750.);
#233=LINE('',#229,#232);
#234=EDGE_CURVE('',#230,#223,#233,.T.);
#235=ORIENTED_EDGE('',*,*,#234,.F.);
#236=DIRECTION('',(-1.,0.,0.));
#237=VECTOR('',#236,32.);
#238=LINE('',#201,#237);
#239=EDGE_CURVE('',#202,#230,#238,.T.);
#240=ORIENTED_EDGE('',*,*,#239,.F.);
#241=ORIENTED_EDGE('',*,*,#206,.T.);
#242=EDGE_LOOP('',(#228,#235,#240,#241));
#243=FACE_OUTER_BOUND('',#242,.T.);
#244=CARTESIAN_POINT('',(16.,375.,20.));
#245=DIRECTION('',(0.,0.,1.));
#246=DIRECTION('',(-1.,0.,0.));
#247=AXIS2_PLACEMENT_3D('',#244,#245,#246);
#248=PLANE('',#247);
#249=ADVANCED_FACE('',(#243),#248,.T.);
#250=CARTESIAN_POINT('',(-18.,375.,19.4641));
#251=VERTEX_POINT('',#250);
#252=DIRECTION('',(-0.96593,0.,-0.25882));
#253=VECTOR('',#252,2.07055);
#254=LINE('',#222,#253);
#255=EDGE_CURVE('',#223,#251,#254,.T.);
#256=ORIENTED_EDGE('',*,*,#255,.T.);
#257=CARTESIAN_POINT('',(-18.,-375.,19.4641));
#258=VERTEX_POINT('',#257);
#259=DIRECTION('',(0.,1.,0.));
#260=VECTOR('',#259,750.);
#261=LINE('',#257,#260);
#262=EDGE_CURVE('',#258,#251,#261,.T.);
#263=ORIENTED_EDGE('',*,*,#262,.F.);
#264=DIRECTION('',(-0.96593,0.,-0.25882));
#265=VECTOR('',#264,2.07055);
#266=LINE('',#229,#265);
#267=EDGE_CURVE('',#230,#258,#266,.T.);
#268=ORIENTED_EDGE('',*,*,#267,.F.);
#269=ORIENTED_EDGE('',*,*,#234,.T.);
#270=EDGE_LOOP('',(#256,#263,#268,#269));
#271=FACE_OUTER_BOUND('',#270,.T.);
#272=CARTESIAN_POINT('',(-16.,375.,20.));
#273=DIRECTION('',(-0.25882,0.,0.96593));
#274=DIRECTION('',(-0.96593,0.,-0.25882));
#275=AXIS2_PLACEMENT_3D('',#272,#273,#274);
#276=PLANE('',#275);
#277=ADVANCED_FACE('',(#271),#276,.T.);
#278=CARTESIAN_POINT('',(-19.4641,375.,18.));
#279=VERTEX_POINT('',#278);
#280=DIRECTION('',(-0.70711,0.,-0.70711));
#281=VECTOR('',#280,2.07055);
#282=LINE('',#250,#281);
#283=EDGE_CURVE('',#251,#279,#282,.T.);
#284=ORIENTED_EDGE('',*,*,#283,.T.);
#285=CARTESIAN_POINT('',(-19.4641,-375.,18.));
#286=VERTEX_POINT('',#285);
#287=DIRECTION('',(0.,1.,0.));
#288=VECTOR('',#287,750.);
#289=LINE('',#285,#288);
#290=EDGE_CURVE('',#286,#279,#289,.T.);
#291=ORIENTED_EDGE('',*,*,#290,.F.);
#292=DIRECTION('',(-0.70711,0.,-0.70711));
#293=VECTOR('',#292,2.07055);
#294=LINE('',#257,#293);
#295=EDGE_CURVE('',#258,#286,#294,.T.);
#296=ORIENTED_EDGE('',*,*,#295,.F.);
#297=ORIENTED_EDGE('',*,*,#262,.T.);
#298=EDGE_LOOP('',(#284,#291,#296,#297));
#299=FACE_OUTER_BOUND('',#298,.T.);
#300=CARTESIAN_POINT('',(-18.,375.,19.4641));
#301=DIRECTION('',(-0.70711,0.,0.70711));
#302=DIRECTION('',(-0.70711,0.,-0.70711));
#303=AXIS2_PLACEMENT_3D('',#300,#301,#302);
#304=PLANE('',#303);
#305=ADVANCED_FACE('',(#299),#304,.T.);
#306=CARTESIAN_POINT('',(-20.,375.,16.));
#307=VERTEX_POINT('',#306);
#308=DIRECTION('',(-0.25882,0.,-0.96593));
#309=VECTOR('',#308,2.07055);
#310=LINE('',#278,#309);
#311=EDGE_CURVE('',#279,#307,#310,.T.);
#312=ORIENTED_EDGE('',*,*,#311,.T.);
#313=CARTESIAN_POINT('',(-20.,-375.,16.));
#314=VERTEX_POINT('',#313);
#315=DIRECTION('',(0.,1.,0.));
#316=VECTOR('',#315,750.);
#317=LINE('',#313,#316);
#318=EDGE_CURVE('',#314,#307,#317,.T.);
#319=ORIENTED_EDGE('',*,*,#318,.F.);
#320=DIRECTION('',(-0.25882,0.,-0.96593));
#321=VECTOR('',#320,2.07055);
#322=LINE('',#285,#321);
#323=EDGE_CURVE('',#286,#314,#322,.T.);
#324=ORIENTED_EDGE('',*,*,#323,.F.);
#325=ORIENTED_EDGE('',*,*,#290,.T.);
#326=EDGE_LOOP('',(#312,#319,#324,#325));
#327=FACE_OUTER_BOUND('',#326,.T.);
#328=CARTESIAN_POINT('',(-19.4641,375.,18.));
#329=DIRECTION('',(-0.96593,0.,0.25882));
#330=DIRECTION('',(-0.25882,0.,-0.96593));
#331=AXIS2_PLACEMENT_3D('',#328,#329,#330);
#332=PLANE('',#331);
#333=ADVANCED_FACE('',(#327),#332,.T.);
#334=CARTESIAN_POINT('',(-20.,375.,-16.));
#335=VERTEX_POINT('',#334);
#336=DIRECTION('',(0.,0.,-1.));
#337=VECTOR('',#336,32.);
#338=LINE('',#306,#337);
#339=EDGE_CURVE('',#307,#335,#338,.T.);
#340=ORIENTED_EDGE('',*,*,#339,.T.);
#341=CARTESIAN_POINT('',(-20.,-375.,-16.));
#342=VERTEX_POINT('',#341);
#343=DIRECTION('',(0.,1.,0.));
#344=VECTOR('',#343,750.);
#345=LINE('',#341,#344);
#346=EDGE_CURVE('',#342,#335,#345,.T.);
#347=ORIENTED_EDGE('',*,*,#346,.F.);
#348=DIRECTION('',(0.,0.,-1.));
#349=VECTOR('',#348,32.);
#350=LINE('',#313,#349);
#351=EDGE_CURVE('',#314,#342,#350,.T.);
#352=ORIENTED_EDGE('',*,*,#351,.F.);
#353=ORIENTED_EDGE('',*,*,#318,.T.);
#354=EDGE_LOOP('',(#340,#347,#352,#353));
#355=FACE_OUTER_BOUND('',#354,.T.);
#356=CARTESIAN_POINT('',(-20.,375.,16.));
#357=DIRECTION('',(-1.,0.,0.));
#358=DIRECTION('',(0.,0.,-1.));
#359=AXIS2_PLACEMENT_3D('',#356,#357,#358);
#360=PLANE('',#359);
#361=ADVANCED_FACE('',(#355),#360,.T.);
#362=CARTESIAN_POINT('',(-19.4641,375.,-18.));
#363=VERTEX_POINT('',#362);
#364=DIRECTION('',(0.25882,0.,-0.96593));
#365=VECTOR('',#364,2.07055);
#366=LINE('',#334,#365);
#367=EDGE_CURVE('',#335,#363,#366,.T.);
#368=ORIENTED_EDGE('',*,*,#367,.T.);
#369=CARTESIAN_POINT('',(-19.4641,-375.,-18.));
#370=VERTEX_POINT('',#369);
#371=DIRECTION('',(0.,1.,0.));
#372=VECTOR('',#371,750.);
#373=LINE('',#369,#372);
#374=EDGE_CURVE('',#370,#363,#373,.T.);
#375=ORIENTED_EDGE('',*,*,#374,.F.);
#376=DIRECTION('',(0.25882,0.,-0.96593));
#377=VECTOR('',#376,2.07055);
#378=LINE('',#341,#377);
#379=EDGE_CURVE('',#342,#370,#378,.T.);
#380=ORIENTED_EDGE('',*,*,#379,.F.);
#381=ORIENTED_EDGE('',*,*,#346,.T.);
#382=EDGE_LOOP('',(#368,#375,#380,#381));
#383=FACE_OUTER_BOUND('',#382,.T.);
#384=CARTESIAN_POINT('',(-20.,375.,-16.));
#385=DIRECTION('',(-0.96593,0.,-0.25882));
#386=DIRECTION('',(0.25882,0.,-0.96593));
#387=AXIS2_PLACEMENT_3D('',#384,#385,#386);
#388=PLANE('',#387);
#389=ADVANCED_FACE('',(#383),#388,.T.);
#390=CARTESIAN_POINT('',(-18.,375.,-19.4641));
#391=VERTEX_POINT('',#390);
#392=DIRECTION('',(0.70711,0.,-0.70711));
#393=VECTOR('',#392,2.07055);
#394=LINE('',#362,#393);
#395=EDGE_CURVE('',#363,#391,#394,.T.);
#396=ORIENTED_EDGE('',*,*,#395,.T.);
#397=CARTESIAN_POINT('',(-18.,-375.,-19.4641));
#398=VERTEX_POINT('',#397);
#399=DIRECTION('',(0.,1.,0.));
#400=VECTOR('',#399,750.);
#401=LINE('',#397,#400);
#402=EDGE_CURVE('',#398,#391,#401,.T.);
#403=ORIENTED_EDGE('',*,*,#402,.F.);
#404=DIRECTION('',(0.70711,0.,-0.70711));
#405=VECTOR('',#404,2.07055);
#406=LINE('',#369,#405);
#407=EDGE_CURVE('',#370,#398,#406,.T.);
#408=ORIENTED_EDGE('',*,*,#407,.F.);
#409=ORIENTED_EDGE('',*,*,#374,.T.);
#410=EDGE_LOOP('',(#396,#403,#408,#409));
#411=FACE_OUTER_BOUND('',#410,.T.);
#412=CARTESIAN_POINT('',(-19.4641,375.,-18.));
#413=DIRECTION('',(-0.70711,0.,-0.70711));
#414=DIRECTION('',(0.70711,0.,-0.70711));
#415=AXIS2_PLACEMENT_3D('',#412,#413,#414);
#416=PLANE('',#415);
#417=ADVANCED_FACE('',(#411),#416,.T.);
#418=CARTESIAN_POINT('',(-16.,375.,-20.));
#419=VERTEX_POINT('',#418);
#420=DIRECTION('',(0.96593,0.,-0.25882));
#421=VECTOR('',#420,2.07055);
#422=LINE('',#390,#421);
#423=EDGE_CURVE('',#391,#419,#422,.T.);
#424=ORIENTED_EDGE('',*,*,#423,.T.);
#425=CARTESIAN_POINT('',(-16.,-375.,-20.));
#426=VERTEX_POINT('',#425);
#427=DIRECTION('',(0.,1.,0.));
#428=VECTOR('',#427,750.);
#429=LINE('',#425,#428);
#430=EDGE_CURVE('',#426,#419,#429,.T.);
#431=ORIENTED_EDGE('',*,*,#430,.F.);
#432=DIRECTION('',(0.96593,0.,-0.25882));
#433=VECTOR('',#432,2.07055);
#434=LINE('',#397,#433);
#435=EDGE_CURVE('',#398,#426,#434,.T.);
#436=ORIENTED_EDGE('',*,*,#435,.F.);
#437=ORIENTED_EDGE('',*,*,#402,.T.);
#438=EDGE_LOOP('',(#424,#431,#436,#437));
#439=FACE_OUTER_BOUND('',#438,.T.);
#440=CARTESIAN_POINT('',(-18.,375.,-19.4641));
#441=DIRECTION('',(-0.25882,0.,-0.96593));
#442=DIRECTION('',(0.96593,0.,-0.25882));
#443=AXIS2_PLACEMENT_3D('',#440,#441,#442);
#444=PLANE('',#443);
#445=ADVANCED_FACE('',(#439),#444,.T.);
#446=DIRECTION('',(-1.,0.,0.));
#447=VECTOR('',#446,32.);
#448=LINE('',#18,#447);
#449=EDGE_CURVE('',#19,#419,#448,.T.);
#450=ORIENTED_EDGE('',*,*,#449,.F.);
#451=ORIENTED_EDGE('',*,*,#44,.F.);
#452=DIRECTION('',(-1.,0.,0.));
#453=VECTOR('',#452,32.);
#454=LINE('',#34,#453);
#455=EDGE_CURVE('',#35,#426,#454,.T.);
#456=ORIENTED_EDGE('',*,*,#455,.T.);
#457=ORIENTED_EDGE('',*,*,#430,.T.);
#458=EDGE_LOOP('',(#450,#451,#456,#457));
#459=FACE_OUTER_BOUND('',#458,.T.);
#460=CARTESIAN_POINT('',(-16.,375.,-20.));
#461=DIRECTION('',(0.,0.,-1.));
#462=DIRECTION('',(1.,0.,0.));
#463=AXIS2_PLACEMENT_3D('',#460,#461,#462);
#464=PLANE('',#463);
#465=ADVANCED_FACE('',(#459),#464,.T.);
#466=CARTESIAN_POINT('',(15.5,375.,-17.));
#467=VERTEX_POINT('',#466);
#468=CARTESIAN_POINT('',(16.25,375.,-16.79904));
#469=VERTEX_POINT('',#468);
#470=DIRECTION('',(0.96593,0.,0.25882));
#471=VECTOR('',#470,0.77646);
#472=LINE('',#466,#471);
#473=EDGE_CURVE('',#467,#469,#472,.T.);
#474=ORIENTED_EDGE('',*,*,#473,.T.);
#475=DIRECTION('',(-0.54889,0.,0.8359));
#476=VECTOR('',#475,3.18827);
#477=LINE('',#20,#476);
#478=EDGE_CURVE('',#21,#469,#477,.T.);
#479=ORIENTED_EDGE('',*,*,#478,.F.);
#480=ORIENTED_EDGE('',*,*,#25,.F.);
#481=DIRECTION('',(-0.1644,0.,0.98639));
#482=VECTOR('',#481,3.04138);
#483=LINE('',#18,#482);
#484=EDGE_CURVE('',#19,#467,#483,.T.);
#485=ORIENTED_EDGE('',*,*,#484,.T.);
#486=EDGE_LOOP('',(#474,#479,#480,#485));
#487=FACE_OUTER_BOUND('',#486,.T.);
#488=CARTESIAN_POINT('',(15.5,375.,-17.));
#489=DIRECTION('',(0.,1.,0.));
#490=DIRECTION('',(0.96593,0.,0.25882));
#491=AXIS2_PLACEMENT_3D('',#488,#489,#490);
#492=PLANE('',#491);
#493=ADVANCED_FACE('',(#487),#492,.T.);
#494=CARTESIAN_POINT('',(16.79904,375.,-16.25));
#495=VERTEX_POINT('',#494);
#496=DIRECTION('',(0.70711,0.,0.70711));
#497=VECTOR('',#496,0.77646);
#498=LINE('',#468,#497);
#499=EDGE_CURVE('',#469,#495,#498,.T.);
#500=ORIENTED_EDGE('',*,*,#499,.T.);
#501=DIRECTION('',(-0.8359,0.,0.54889));
#502=VECTOR('',#501,3.18827);
#503=LINE('',#54,#502);
#504=EDGE_CURVE('',#55,#495,#503,.T.);
#505=ORIENTED_EDGE('',*,*,#504,.F.);
#506=ORIENTED_EDGE('',*,*,#59,.F.);
#507=ORIENTED_EDGE('',*,*,#478,.T.);
#508=EDGE_LOOP('',(#500,#505,#506,#507));
#509=FACE_OUTER_BOUND('',#508,.T.);
#510=CARTESIAN_POINT('',(16.25,375.,-16.79904));
#511=DIRECTION('',(0.,1.,0.));
#512=DIRECTION('',(0.70711,0.,0.70711));
#513=AXIS2_PLACEMENT_3D('',#510,#511,#512);
#514=PLANE('',#513);
#515=ADVANCED_FACE('',(#509),#514,.T.);
#516=CARTESIAN_POINT('',(17.,375.,-15.5));
#517=VERTEX_POINT('',#516);
#518=DIRECTION('',(0.25882,0.,0.96593));
#519=VECTOR('',#518,0.77646);
#520=LINE('',#494,#519);
#521=EDGE_CURVE('',#495,#517,#520,.T.);
#522=ORIENTED_EDGE('',*,*,#521,.T.);
#523=DIRECTION('',(-0.98639,0.,0.1644));
#524=VECTOR('',#523,3.04138);
#525=LINE('',#82,#524);
#526=EDGE_CURVE('',#83,#517,#525,.T.);
#527=ORIENTED_EDGE('',*,*,#526,.F.);
#528=ORIENTED_EDGE('',*,*,#87,.F.);
#529=ORIENTED_EDGE('',*,*,#504,.T.);
#530=EDGE_LOOP('',(#522,#527,#528,#529));
#531=FACE_OUTER_BOUND('',#530,.T.);
#532=CARTESIAN_POINT('',(16.79904,375.,-16.25));
#533=DIRECTION('',(0.,1.,0.));
#534=DIRECTION('',(0.25882,0.,0.96593));
#535=AXIS2_PLACEMENT_3D('',#532,#533,#534);
#536=PLANE('',#535);
#537=ADVANCED_FACE('',(#531),#536,.T.);
#538=CARTESIAN_POINT('',(17.,375.,15.5));
#539=VERTEX_POINT('',#538);
#540=DIRECTION('',(0.,0.,1.));
#541=VECTOR('',#540,31.);
#542=LINE('',#516,#541);
#543=EDGE_CURVE('',#517,#539,#542,.T.);
#544=ORIENTED_EDGE('',*,*,#543,.T.);
#545=DIRECTION('',(-0.98639,0.,-0.1644));
#546=VECTOR('',#545,3.04138);
#547=LINE('',#110,#546);
#548=EDGE_CURVE('',#111,#539,#547,.T.);
#549=ORIENTED_EDGE('',*,*,#548,.F.);
#550=ORIENTED_EDGE('',*,*,#115,.F.);
#551=ORIENTED_EDGE('',*,*,#526,.T.);
#552=EDGE_LOOP('',(#544,#549,#550,#551));
#553=FACE_OUTER_BOUND('',#552,.T.);
#554=CARTESIAN_POINT('',(17.,375.,-15.5));
#555=DIRECTION('',(0.,1.,0.));
#556=DIRECTION('',(0.,0.,1.));
#557=AXIS2_PLACEMENT_3D('',#554,#555,#556);
#558=PLANE('',#557);
#559=ADVANCED_FACE('',(#553),#558,.T.);
#560=CARTESIAN_POINT('',(16.79904,375.,16.25));
#561=VERTEX_POINT('',#560);
#562=DIRECTION('',(-0.25882,0.,0.96593));
#563=VECTOR('',#562,0.77646);
#564=LINE('',#538,#563);
#565=EDGE_CURVE('',#539,#561,#564,.T.);
#566=ORIENTED_EDGE('',*,*,#565,.T.);
#567=DIRECTION('',(-0.8359,0.,-0.54889));
#568=VECTOR('',#567,3.18827);
#569=LINE('',#138,#568);
#570=EDGE_CURVE('',#139,#561,#569,.T.);
#571=ORIENTED_EDGE('',*,*,#570,.F.);
#572=ORIENTED_EDGE('',*,*,#143,.F.);
#573=ORIENTED_EDGE('',*,*,#548,.T.);
#574=EDGE_LOOP('',(#566,#571,#572,#573));
#575=FACE_OUTER_BOUND('',#574,.T.);
#576=CARTESIAN_POINT('',(17.,375.,15.5));
#577=DIRECTION('',(0.,1.,0.));
#578=DIRECTION('',(-0.25882,0.,0.96593));
#579=AXIS2_PLACEMENT_3D('',#576,#577,#578);
#580=PLANE('',#579);
#581=ADVANCED_FACE('',(#575),#580,.T.);
#582=CARTESIAN_POINT('',(16.25,375.,16.79904));
#583=VERTEX_POINT('',#582);
#584=DIRECTION('',(-0.70711,0.,0.70711));
#585=VECTOR('',#584,0.77646);
#586=LINE('',#560,#585);
#587=EDGE_CURVE('',#561,#583,#586,.T.);
#588=ORIENTED_EDGE('',*,*,#587,.T.);
#589=DIRECTION('',(-0.54889,0.,-0.8359));
#590=VECTOR('',#589,3.18827);
#591=LINE('',#166,#590);
#592=EDGE_CURVE('',#167,#583,#591,.T.);
#593=ORIENTED_EDGE('',*,*,#592,.F.);
#594=ORIENTED_EDGE('',*,*,#171,.F.);
#595=ORIENTED_EDGE('',*,*,#570,.T.);
#596=EDGE_LOOP('',(#588,#593,#594,#595));
#597=FACE_OUTER_BOUND('',#596,.T.);
#598=CARTESIAN_POINT('',(16.79904,375.,16.25));
#599=DIRECTION('',(0.,1.,0.));
#600=DIRECTION('',(-0.70711,0.,0.70711));
#601=AXIS2_PLACEMENT_3D('',#598,#599,#600);
#602=PLANE('',#601);
#603=ADVANCED_FACE('',(#597),#602,.T.);
#604=CARTESIAN_POINT('',(15.5,375.,17.));
#605=VERTEX_POINT('',#604);
#606=DIRECTION('',(-0.96593,0.,0.25882));
#607=VECTOR('',#606,0.77646);
#608=LINE('',#582,#607);
#609=EDGE_CURVE('',#583,#605,#608,.T.);
#610=ORIENTED_EDGE('',*,*,#609,.T.);
#611=DIRECTION('',(-0.1644,0.,-0.98639));
#612=VECTOR('',#611,3.04138);
#613=LINE('',#194,#612);
#614=EDGE_CURVE('',#195,#605,#613,.T.);
#615=ORIENTED_EDGE('',*,*,#614,.F.);
#616=ORIENTED_EDGE('',*,*,#199,.F.);
#617=ORIENTED_EDGE('',*,*,#592,.T.);
#618=EDGE_LOOP('',(#610,#615,#616,#617));
#619=FACE_OUTER_BOUND('',#618,.T.);
#620=CARTESIAN_POINT('',(16.25,375.,16.79904));
#621=DIRECTION('',(0.,1.,0.));
#622=DIRECTION('',(-0.96593,0.,0.25882));
#623=AXIS2_PLACEMENT_3D('',#620,#621,#622);
#624=PLANE('',#623);
#625=ADVANCED_FACE('',(#619),#624,.T.);
#626=CARTESIAN_POINT('',(-15.5,375.,17.));
#627=VERTEX_POINT('',#626);
#628=DIRECTION('',(-1.,0.,0.));
#629=VECTOR('',#628,31.);
#630=LINE('',#604,#629);
#631=EDGE_CURVE('',#605,#627,#630,.T.);
#632=ORIENTED_EDGE('',*,*,#631,.T.);
#633=DIRECTION('',(0.1644,0.,-0.98639));
#634=VECTOR('',#633,3.04138);
#635=LINE('',#222,#634);
#636=EDGE_CURVE('',#223,#627,#635,.T.);
#637=ORIENTED_EDGE('',*,*,#636,.F.);
#638=ORIENTED_EDGE('',*,*,#227,.F.);
#639=ORIENTED_EDGE('',*,*,#614,.T.);
#640=EDGE_LOOP('',(#632,#637,#638,#639));
#641=FACE_OUTER_BOUND('',#640,.T.);
#642=CARTESIAN_POINT('',(15.5,375.,17.));
#643=DIRECTION('',(0.,1.,0.));
#644=DIRECTION('',(-1.,0.,0.));
#645=AXIS2_PLACEMENT_3D('',#642,#643,#644);
#646=PLANE('',#645);
#647=ADVANCED_FACE('',(#641),#646,.T.);
#648=CARTESIAN_POINT('',(-16.25,375.,16.79904));
#649=VERTEX_POINT('',#648);
#650=DIRECTION('',(-0.96593,0.,-0.25882));
#651=VECTOR('',#650,0.77646);
#652=LINE('',#626,#651);
#653=EDGE_CURVE('',#627,#649,#652,.T.);
#654=ORIENTED_EDGE('',*,*,#653,.T.);
#655=DIRECTION('',(0.54889,0.,-0.8359));
#656=VECTOR('',#655,3.18827);
#657=LINE('',#250,#656);
#658=EDGE_CURVE('',#251,#649,#657,.T.);
#659=ORIENTED_EDGE('',*,*,#658,.F.);
#660=ORIENTED_EDGE('',*,*,#255,.F.);
#661=ORIENTED_EDGE('',*,*,#636,.T.);
#662=EDGE_LOOP('',(#654,#659,#660,#661));
#663=FACE_OUTER_BOUND('',#662,.T.);
#664=CARTESIAN_POINT('',(-15.5,375.,17.));
#665=DIRECTION('',(0.,1.,0.));
#666=DIRECTION('',(-0.96593,0.,-0.25882));
#667=AXIS2_PLACEMENT_3D('',#664,#665,#666);
#668=PLANE('',#667);
#669=ADVANCED_FACE('',(#663),#668,.T.);
#670=CARTESIAN_POINT('',(-16.79904,375.,16.25));
#671=VERTEX_POINT('',#670);
#672=DIRECTION('',(-0.70711,0.,-0.70711));
#673=VECTOR('',#672,0.77646);
#674=LINE('',#648,#673);
#675=EDGE_CURVE('',#649,#671,#674,.T.);
#676=ORIENTED_EDGE('',*,*,#675,.T.);
#677=DIRECTION('',(0.8359,0.,-0.54889));
#678=VECTOR('',#677,3.18827);
#679=LINE('',#278,#678);
#680=EDGE_CURVE('',#279,#671,#679,.T.);
#681=ORIENTED_EDGE('',*,*,#680,.F.);
#682=ORIENTED_EDGE('',*,*,#283,.F.);
#683=ORIENTED_EDGE('',*,*,#658,.T.);
#684=EDGE_LOOP('',(#676,#681,#682,#683));
#685=FACE_OUTER_BOUND('',#684,.T.);
#686=CARTESIAN_POINT('',(-16.25,375.,16.79904));
#687=DIRECTION('',(0.,1.,0.));
#688=DIRECTION('',(-0.70711,0.,-0.70711));
#689=AXIS2_PLACEMENT_3D('',#686,#687,#688);
#690=PLANE('',#689);
#691=ADVANCED_FACE('',(#685),#690,.T.);
#692=CARTESIAN_POINT('',(-17.,375.,15.5));
#693=VERTEX_POINT('',#692);
#694=DIRECTION('',(-0.25882,0.,-0.96593));
#695=VECTOR('',#694,0.77646);
#696=LINE('',#670,#695);
#697=EDGE_CURVE('',#671,#693,#696,.T.);
#698=ORIENTED_EDGE('',*,*,#697,.T.);
#699=DIRECTION('',(0.98639,0.,-0.1644));
#700=VECTOR('',#699,3.04138);
#701=LINE('',#306,#700);
#702=EDGE_CURVE('',#307,#693,#701,.T.);
#703=ORIENTED_EDGE('',*,*,#702,.F.);
#704=ORIENTED_EDGE('',*,*,#311,.F.);
#705=ORIENTED_EDGE('',*,*,#680,.T.);
#706=EDGE_LOOP('',(#698,#703,#704,#705));
#707=FACE_OUTER_BOUND('',#706,.T.);
#708=CARTESIAN_POINT('',(-16.79904,375.,16.25));
#709=DIRECTION('',(0.,1.,0.));
#710=DIRECTION('',(-0.25882,0.,-0.96593));
#711=AXIS2_PLACEMENT_3D('',#708,#709,#710);
#712=PLANE('',#711);
#713=ADVANCED_FACE('',(#707),#712,.T.);
#714=CARTESIAN_POINT('',(-17.,375.,-15.5));
#715=VERTEX_POINT('',#714);
#716=DIRECTION('',(0.,0.,-1.));
#717=VECTOR('',#716,31.);
#718=LINE('',#692,#717);
#719=EDGE_CURVE('',#693,#715,#718,.T.);
#720=ORIENTED_EDGE('',*,*,#719,.T.);
#721=DIRECTION('',(0.98639,0.,0.1644));
#722=VECTOR('',#721,3.04138);
#723=LINE('',#334,#722);
#724=EDGE_CURVE('',#335,#715,#723,.T.);
#725=ORIENTED_EDGE('',*,*,#724,.F.);
#726=ORIENTED_EDGE('',*,*,#339,.F.);
#727=ORIENTED_EDGE('',*,*,#702,.T.);
#728=EDGE_LOOP('',(#720,#725,#726,#727));
#729=FACE_OUTER_BOUND('',#728,.T.);
#730=CARTESIAN_POINT('',(-17.,375.,15.5));
#731=DIRECTION('',(0.,1.,0.));
#732=DIRECTION('',(0.,0.,-1.));
#733=AXIS2_PLACEMENT_3D('',#730,#731,#732);
#734=PLANE('',#733);
#735=ADVANCED_FACE('',(#729),#734,.T.);
#736=CARTESIAN_POINT('',(-16.79904,375.,-16.25));
#737=VERTEX_POINT('',#736);
#738=DIRECTION('',(0.25882,0.,-0.96593));
#739=VECTOR('',#738,0.77646);
#740=LINE('',#714,#739);
#741=EDGE_CURVE('',#715,#737,#740,.T.);
#742=ORIENTED_EDGE('',*,*,#741,.T.);
#743=DIRECTION('',(0.8359,0.,0.54889));
#744=VECTOR('',#743,3.18827);
#745=LINE('',#362,#744);
#746=EDGE_CURVE('',#363,#737,#745,.T.);
#747=ORIENTED_EDGE('',*,*,#746,.F.);
#748=ORIENTED_EDGE('',*,*,#367,.F.);
#749=ORIENTED_EDGE('',*,*,#724,.T.);
#750=EDGE_LOOP('',(#742,#747,#748,#749));
#751=FACE_OUTER_BOUND('',#750,.T.);
#752=CARTESIAN_POINT('',(-17.,375.,-15.5));
#753=DIRECTION('',(0.,1.,0.));
#754=DIRECTION('',(0.25882,0.,-0.96593));
#755=AXIS2_PLACEMENT_3D('',#752,#753,#754);
#756=PLANE('',#755);
#757=ADVANCED_FACE('',(#751),#756,.T.);
#758=CARTESIAN_POINT('',(-16.25,375.,-16.79904));
#759=VERTEX_POINT('',#758);
#760=DIRECTION('',(0.70711,0.,-0.70711));
#761=VECTOR('',#760,0.77646);
#762=LINE('',#736,#761);
#763=EDGE_CURVE('',#737,#759,#762,.T.);
#764=ORIENTED_EDGE('',*,*,#763,.T.);
#765=DIRECTION('',(0.54889,0.,0.8359));
#766=VECTOR('',#765,3.18827);
#767=LINE('',#390,#766);
#768=EDGE_CURVE('',#391,#759,#767,.T.);
#769=ORIENTED_EDGE('',*,*,#768,.F.);
#770=ORIENTED_EDGE('',*,*,#395,.F.);
#771=ORIENTED_EDGE('',*,*,#746,.T.);
#772=EDGE_LOOP('',(#764,#769,#770,#771));
#773=FACE_OUTER_BOUND('',#772,.T.);
#774=CARTESIAN_POINT('',(-16.79904,375.,-16.25));
#775=DIRECTION('',(0.,1.,0.));
#776=DIRECTION('',(0.70711,0.,-0.70711));
#777=AXIS2_PLACEMENT_3D('',#774,#775,#776);
#778=PLANE('',#777);
#779=ADVANCED_FACE('',(#773),#778,.T.);
#780=CARTESIAN_POINT('',(-15.5,375.,-17.));
#781=VERTEX_POINT('',#780);
#782=DIRECTION('',(0.96593,0.,-0.25882));
#783=VECTOR('',#782,0.77646);
#784=LINE('',#758,#783);
#785=EDGE_CURVE('',#759,#781,#784,.T.);
#786=ORIENTED_EDGE('',*,*,#785,.T.);
#787=DIRECTION('',(0.1644,0.,0.98639));
#788=VECTOR('',#787,3.04138);
#789=LINE('',#418,#788);
#790=EDGE_CURVE('',#419,#781,#789,.T.);
#791=ORIENTED_EDGE('',*,*,#790,.F.);
#792=ORIENTED_EDGE('',*,*,#423,.F.);
#793=ORIENTED_EDGE('',*,*,#768,.T.);
#794=EDGE_LOOP('',(#786,#791,#792,#793));
#795=FACE_OUTER_BOUND('',#794,.T.);
#796=CARTESIAN_POINT('',(-16.25,375.,-16.79904));
#797=DIRECTION('',(0.,1.,0.));
#798=DIRECTION('',(0.96593,0.,-0.25882));
#799=AXIS2_PLACEMENT_3D('',#796,#797,#798);
#800=PLANE('',#799);
#801=ADVANCED_FACE('',(#795),#800,.T.);
#802=DIRECTION('',(-1.,0.,0.));
#803=VECTOR('',#802,31.);
#804=LINE('',#466,#803);
#805=EDGE_CURVE('',#467,#781,#804,.T.);
#806=ORIENTED_EDGE('',*,*,#805,.F.);
#807=ORIENTED_EDGE('',*,*,#484,.F.);
#808=ORIENTED_EDGE('',*,*,#449,.T.);
#809=ORIENTED_EDGE('',*,*,#790,.T.);
#810=EDGE_LOOP('',(#806,#807,#808,#809));
#811=FACE_OUTER_BOUND('',#810,.T.);
#812=CARTESIAN_POINT('',(-15.5,375.,-17.));
#813=DIRECTION('',(0.,1.,0.));
#814=DIRECTION('',(1.,0.,0.));
#815=AXIS2_PLACEMENT_3D('',#812,#813,#814);
#816=PLANE('',#815);
#817=ADVANCED_FACE('',(#811),#816,.T.);
#818=CARTESIAN_POINT('',(15.5,-375.,-17.));
#819=VERTEX_POINT('',#818);
#820=CARTESIAN_POINT('',(16.25,-375.,-16.79904));
#821=VERTEX_POINT('',#820);
#822=DIRECTION('',(0.96593,0.,0.25882));
#823=VECTOR('',#822,0.77646);
#824=LINE('',#818,#823);
#825=EDGE_CURVE('',#819,#821,#824,.T.);
#826=ORIENTED_EDGE('',*,*,#825,.T.);
#827=DIRECTION('',(0.,-1.,0.));
#828=VECTOR('',#827,750.);
#829=LINE('',#468,#828);
#830=EDGE_CURVE('',#469,#821,#829,.T.);
#831=ORIENTED_EDGE('',*,*,#830,.F.);
#832=ORIENTED_EDGE('',*,*,#473,.F.);
#833=DIRECTION('',(0.,-1.,0.));
#834=VECTOR('',#833,750.);
#835=LINE('',#466,#834);
#836=EDGE_CURVE('',#467,#819,#835,.T.);
#837=ORIENTED_EDGE('',*,*,#836,.T.);
#838=EDGE_LOOP('',(#826,#831,#832,#837));
#839=FACE_OUTER_BOUND('',#838,.T.);
#840=CARTESIAN_POINT('',(15.5,-375.,-17.));
#841=DIRECTION('',(-0.25882,0.,0.96593));
#842=DIRECTION('',(0.96593,0.,0.25882));
#843=AXIS2_PLACEMENT_3D('',#840,#841,#842);
#844=PLANE('',#843);
#845=ADVANCED_FACE('',(#839),#844,.T.);
#846=CARTESIAN_POINT('',(16.79904,-375.,-16.25));
#847=VERTEX_POINT('',#846);
#848=DIRECTION('',(0.70711,0.,0.70711));
#849=VECTOR('',#848,0.77646);
#850=LINE('',#820,#849);
#851=EDGE_CURVE('',#821,#847,#850,.T.);
#852=ORIENTED_EDGE('',*,*,#851,.T.);
#853=DIRECTION('',(0.,-1.,0.));
#854=VECTOR('',#853,750.);
#855=LINE('',#494,#854);
#856=EDGE_CURVE('',#495,#847,#855,.T.);
#857=ORIENTED_EDGE('',*,*,#856,.F.);
#858=ORIENTED_EDGE('',*,*,#499,.F.);
#859=ORIENTED_EDGE('',*,*,#830,.T.);
#860=EDGE_LOOP('',(#852,#857,#858,#859));
#861=FACE_OUTER_BOUND('',#860,.T.);
#862=CARTESIAN_POINT('',(16.25,-375.,-16.79904));
#863=DIRECTION('',(-0.70711,0.,0.70711));
#864=DIRECTION('',(0.70711,0.,0.70711));
#865=AXIS2_PLACEMENT_3D('',#862,#863,#864);
#866=PLANE('',#865);
#867=ADVANCED_FACE('',(#861),#866,.T.);
#868=CARTESIAN_POINT('',(17.,-375.,-15.5));
#869=VERTEX_POINT('',#868);
#870=DIRECTION('',(0.25882,0.,0.96593));
#871=VECTOR('',#870,0.77646);
#872=LINE('',#846,#871);
#873=EDGE_CURVE('',#847,#869,#872,.T.);
#874=ORIENTED_EDGE('',*,*,#873,.T.);
#875=DIRECTION('',(0.,-1.,0.));
#876=VECTOR('',#875,750.);
#877=LINE('',#516,#876);
#878=EDGE_CURVE('',#517,#869,#877,.T.);
#879=ORIENTED_EDGE('',*,*,#878,.F.);
#880=ORIENTED_EDGE('',*,*,#521,.F.);
#881=ORIENTED_EDGE('',*,*,#856,.T.);
#882=EDGE_LOOP('',(#874,#879,#880,#881));
#883=FACE_OUTER_BOUND('',#882,.T.);
#884=CARTESIAN_POINT('',(16.79904,-375.,-16.25));
#885=DIRECTION('',(-0.96593,0.,0.25882));
#886=DIRECTION('',(0.25882,0.,0.96593));
#887=AXIS2_PLACEMENT_3D('',#884,#885,#886);
#888=PLANE('',#887);
#889=ADVANCED_FACE('',(#883),#888,.T.);
#890=CARTESIAN_POINT('',(17.,-375.,15.5));
#891=VERTEX_POINT('',#890);
#892=DIRECTION('',(0.,0.,1.));
#893=VECTOR('',#892,31.);
#894=LINE('',#868,#893);
#895=EDGE_CURVE('',#869,#891,#894,.T.);
#896=ORIENTED_EDGE('',*,*,#895,.T.);
#897=DIRECTION('',(0.,-1.,0.));
#898=VECTOR('',#897,750.);
#899=LINE('',#538,#898);
#900=EDGE_CURVE('',#539,#891,#899,.T.);
#901=ORIENTED_EDGE('',*,*,#900,.F.);
#902=ORIENTED_EDGE('',*,*,#543,.F.);
#903=ORIENTED_EDGE('',*,*,#878,.T.);
#904=EDGE_LOOP('',(#896,#901,#902,#903));
#905=FACE_OUTER_BOUND('',#904,.T.);
#906=CARTESIAN_POINT('',(17.,-375.,-15.5));
#907=DIRECTION('',(-1.,0.,0.));
#908=DIRECTION('',(0.,0.,1.));
#909=AXIS2_PLACEMENT_3D('',#906,#907,#908);
#910=PLANE('',#909);
#911=ADVANCED_FACE('',(#905),#910,.T.);
#912=CARTESIAN_POINT('',(16.79904,-375.,16.25));
#913=VERTEX_POINT('',#912);
#914=DIRECTION('',(-0.25882,0.,0.96593));
#915=VECTOR('',#914,0.77646);
#916=LINE('',#890,#915);
#917=EDGE_CURVE('',#891,#913,#916,.T.);
#918=ORIENTED_EDGE('',*,*,#917,.T.);
#919=DIRECTION('',(0.,-1.,0.));
#920=VECTOR('',#919,750.);
#921=LINE('',#560,#920);
#922=EDGE_CURVE('',#561,#913,#921,.T.);
#923=ORIENTED_EDGE('',*,*,#922,.F.);
#924=ORIENTED_EDGE('',*,*,#565,.F.);
#925=ORIENTED_EDGE('',*,*,#900,.T.);
#926=EDGE_LOOP('',(#918,#923,#924,#925));
#927=FACE_OUTER_BOUND('',#926,.T.);
#928=CARTESIAN_POINT('',(17.,-375.,15.5));
#929=DIRECTION('',(-0.96593,0.,-0.25882));
#930=DIRECTION('',(-0.25882,0.,0.96593));
#931=AXIS2_PLACEMENT_3D('',#928,#929,#930);
#932=PLANE('',#931);
#933=ADVANCED_FACE('',(#927),#932,.T.);
#934=CARTESIAN_POINT('',(16.25,-375.,16.79904));
#935=VERTEX_POINT('',#934);
#936=DIRECTION('',(-0.70711,0.,0.70711));
#937=VECTOR('',#936,0.77646);
#938=LINE('',#912,#937);
#939=EDGE_CURVE('',#913,#935,#938,.T.);
#940=ORIENTED_EDGE('',*,*,#939,.T.);
#941=DIRECTION('',(0.,-1.,0.));
#942=VECTOR('',#941,750.);
#943=LINE('',#582,#942);
#944=EDGE_CURVE('',#583,#935,#943,.T.);
#945=ORIENTED_EDGE('',*,*,#944,.F.);
#946=ORIENTED_EDGE('',*,*,#587,.F.);
#947=ORIENTED_EDGE('',*,*,#922,.T.);
#948=EDGE_LOOP('',(#940,#945,#946,#947));
#949=FACE_OUTER_BOUND('',#948,.T.);
#950=CARTESIAN_POINT('',(16.79904,-375.,16.25));
#951=DIRECTION('',(-0.70711,0.,-0.70711));
#952=DIRECTION('',(-0.70711,0.,0.70711));
#953=AXIS2_PLACEMENT_3D('',#950,#951,#952);
#954=PLANE('',#953);
#955=ADVANCED_FACE('',(#949),#954,.T.);
#956=CARTESIAN_POINT('',(15.5,-375.,17.));
#957=VERTEX_POINT('',#956);
#958=DIRECTION('',(-0.96593,0.,0.25882));
#959=VECTOR('',#958,0.77646);
#960=LINE('',#934,#959);
#961=EDGE_CURVE('',#935,#957,#960,.T.);
#962=ORIENTED_EDGE('',*,*,#961,.T.);
#963=DIRECTION('',(0.,-1.,0.));
#964=VECTOR('',#963,750.);
#965=LINE('',#604,#964);
#966=EDGE_CURVE('',#605,#957,#965,.T.);
#967=ORIENTED_EDGE('',*,*,#966,.F.);
#968=ORIENTED_EDGE('',*,*,#609,.F.);
#969=ORIENTED_EDGE('',*,*,#944,.T.);
#970=EDGE_LOOP('',(#962,#967,#968,#969));
#971=FACE_OUTER_BOUND('',#970,.T.);
#972=CARTESIAN_POINT('',(16.25,-375.,16.79904));
#973=DIRECTION('',(-0.25882,0.,-0.96593));
#974=DIRECTION('',(-0.96593,0.,0.25882));
#975=AXIS2_PLACEMENT_3D('',#972,#973,#974);
#976=PLANE('',#975);
#977=ADVANCED_FACE('',(#971),#976,.T.);
#978=CARTESIAN_POINT('',(-15.5,-375.,17.));
#979=VERTEX_POINT('',#978);
#980=DIRECTION('',(-1.,0.,0.));
#981=VECTOR('',#980,31.);
#982=LINE('',#956,#981);
#983=EDGE_CURVE('',#957,#979,#982,.T.);
#984=ORIENTED_EDGE('',*,*,#983,.T.);
#985=DIRECTION('',(0.,-1.,0.));
#986=VECTOR('',#985,750.);
#987=LINE('',#626,#986);
#988=EDGE_CURVE('',#627,#979,#987,.T.);
#989=ORIENTED_EDGE('',*,*,#988,.F.);
#990=ORIENTED_EDGE('',*,*,#631,.F.);
#991=ORIENTED_EDGE('',*,*,#966,.T.);
#992=EDGE_LOOP('',(#984,#989,#990,#991));
#993=FACE_OUTER_BOUND('',#992,.T.);
#994=CARTESIAN_POINT('',(15.5,-375.,17.));
#995=DIRECTION('',(0.,0.,-1.));
#996=DIRECTION('',(-1.,0.,0.));
#997=AXIS2_PLACEMENT_3D('',#994,#995,#996);
#998=PLANE('',#997);
#999=ADVANCED_FACE('',(#993),#998,.T.);
#1000=CARTESIAN_POINT('',(-16.25,-375.,16.79904));
#1001=VERTEX_POINT('',#1000);
#1002=DIRECTION('',(-0.96593,0.,-0.25882));
#1003=VECTOR('',#1002,0.77646);
#1004=LINE('',#978,#1003);
#1005=EDGE_CURVE('',#979,#1001,#1004,.T.);
#1006=ORIENTED_EDGE('',*,*,#1005,.T.);
#1007=DIRECTION('',(0.,-1.,0.));
#1008=VECTOR('',#1007,750.);
#1009=LINE('',#648,#1008);
#1010=EDGE_CURVE('',#649,#1001,#1009,.T.);
#1011=ORIENTED_EDGE('',*,*,#1010,.F.);
#1012=ORIENTED_EDGE('',*,*,#653,.F.);
#1013=ORIENTED_EDGE('',*,*,#988,.T.);
#1014=EDGE_LOOP('',(#1006,#1011,#1012,#1013));
#1015=FACE_OUTER_BOUND('',#1014,.T.);
#1016=CARTESIAN_POINT('',(-15.5,-375.,17.));
#1017=DIRECTION('',(0.25882,0.,-0.96593));
#1018=DIRECTION('',(-0.96593,0.,-0.25882));
#1019=AXIS2_PLACEMENT_3D('',#1016,#1017,#1018);
#1020=PLANE('',#1019);
#1021=ADVANCED_FACE('',(#1015),#1020,.T.);
#1022=CARTESIAN_POINT('',(-16.79904,-375.,16.25));
#1023=VERTEX_POINT('',#1022);
#1024=DIRECTION('',(-0.70711,0.,-0.70711));
#1025=VECTOR('',#1024,0.77646);
#1026=LINE('',#1000,#1025);
#1027=EDGE_CURVE('',#1001,#1023,#1026,.T.);
#1028=ORIENTED_EDGE('',*,*,#1027,.T.);
#1029=DIRECTION('',(0.,-1.,0.));
#1030=VECTOR('',#1029,750.);
#1031=LINE('',#670,#1030);
#1032=EDGE_CURVE('',#671,#1023,#1031,.T.);
#1033=ORIENTED_EDGE('',*,*,#1032,.F.);
#1034=ORIENTED_EDGE('',*,*,#675,.F.);
#1035=ORIENTED_EDGE('',*,*,#1010,.T.);
#1036=EDGE_LOOP('',(#1028,#1033,#1034,#1035));
#1037=FACE_OUTER_BOUND('',#1036,.T.);
#1038=CARTESIAN_POINT('',(-16.25,-375.,16.79904));
#1039=DIRECTION('',(0.70711,0.,-0.70711));
#1040=DIRECTION('',(-0.70711,0.,-0.70711));
#1041=AXIS2_PLACEMENT_3D('',#1038,#1039,#1040);
#1042=PLANE('',#1041);
#1043=ADVANCED_FACE('',(#1037),#1042,.T.);
#1044=CARTESIAN_POINT('',(-17.,-375.,15.5));
#1045=VERTEX_POINT('',#1044);
#1046=DIRECTION('',(-0.25882,0.,-0.96593));
#1047=VECTOR('',#1046,0.77646);
#1048=LINE('',#1022,#1047);
#1049=EDGE_CURVE('',#1023,#1045,#1048,.T.);
#1050=ORIENTED_EDGE('',*,*,#1049,.T.);
#1051=DIRECTION('',(0.,-1.,0.));
#1052=VECTOR('',#1051,750.);
#1053=LINE('',#692,#1052);
#1054=EDGE_CURVE('',#693,#1045,#1053,.T.);
#1055=ORIENTED_EDGE('',*,*,#1054,.F.);
#1056=ORIENTED_EDGE('',*,*,#697,.F.);
#1057=ORIENTED_EDGE('',*,*,#1032,.T.);
#1058=EDGE_LOOP('',(#1050,#1055,#1056,#1057));
#1059=FACE_OUTER_BOUND('',#1058,.T.);
#1060=CARTESIAN_POINT('',(-16.79904,-375.,16.25));
#1061=DIRECTION('',(0.96593,0.,-0.25882));
#1062=DIRECTION('',(-0.25882,0.,-0.96593));
#1063=AXIS2_PLACEMENT_3D('',#1060,#1061,#1062);
#1064=PLANE('',#1063);
#1065=ADVANCED_FACE('',(#1059),#1064,.T.);
#1066=CARTESIAN_POINT('',(-17.,-375.,-15.5));
#1067=VERTEX_POINT('',#1066);
#1068=DIRECTION('',(0.,0.,-1.));
#1069=VECTOR('',#1068,31.);
#1070=LINE('',#1044,#1069);
#1071=EDGE_CURVE('',#1045,#1067,#1070,.T.);
#1072=ORIENTED_EDGE('',*,*,#1071,.T.);
#1073=DIRECTION('',(0.,-1.,0.));
#1074=VECTOR('',#1073,750.);
#1075=LINE('',#714,#1074);
#1076=EDGE_CURVE('',#715,#1067,#1075,.T.);
#1077=ORIENTED_EDGE('',*,*,#1076,.F.);
#1078=ORIENTED_EDGE('',*,*,#719,.F.);
#1079=ORIENTED_EDGE('',*,*,#1054,.T.);
#1080=EDGE_LOOP('',(#1072,#1077,#1078,#1079));
#1081=FACE_OUTER_BOUND('',#1080,.T.);
#1082=CARTESIAN_POINT('',(-17.,-375.,15.5));
#1083=DIRECTION('',(1.,0.,0.));
#1084=DIRECTION('',(0.,0.,-1.));
#1085=AXIS2_PLACEMENT_3D('',#1082,#1083,#1084);
#1086=PLANE('',#1085);
#1087=ADVANCED_FACE('',(#1081),#1086,.T.);
#1088=CARTESIAN_POINT('',(-16.79904,-375.,-16.25));
#1089=VERTEX_POINT('',#1088);
#1090=DIRECTION('',(0.25882,0.,-0.96593));
#1091=VECTOR('',#1090,0.77646);
#1092=LINE('',#1066,#1091);
#1093=EDGE_CURVE('',#1067,#1089,#1092,.T.);
#1094=ORIENTED_EDGE('',*,*,#1093,.T.);
#1095=DIRECTION('',(0.,-1.,0.));
#1096=VECTOR('',#1095,750.);
#1097=LINE('',#736,#1096);
#1098=EDGE_CURVE('',#737,#1089,#1097,.T.);
#1099=ORIENTED_EDGE('',*,*,#1098,.F.);
#1100=ORIENTED_EDGE('',*,*,#741,.F.);
#1101=ORIENTED_EDGE('',*,*,#1076,.T.);
#1102=EDGE_LOOP('',(#1094,#1099,#1100,#1101));
#1103=FACE_OUTER_BOUND('',#1102,.T.);
#1104=CARTESIAN_POINT('',(-17.,-375.,-15.5));
#1105=DIRECTION('',(0.96593,0.,0.25882));
#1106=DIRECTION('',(0.25882,0.,-0.96593));
#1107=AXIS2_PLACEMENT_3D('',#1104,#1105,#1106);
#1108=PLANE('',#1107);
#1109=ADVANCED_FACE('',(#1103),#1108,.T.);
#1110=CARTESIAN_POINT('',(-16.25,-375.,-16.79904));
#1111=VERTEX_POINT('',#1110);
#1112=DIRECTION('',(0.70711,0.,-0.70711));
#1113=VECTOR('',#1112,0.77646);
#1114=LINE('',#1088,#1113);
#1115=EDGE_CURVE('',#1089,#1111,#1114,.T.);
#1116=ORIENTED_EDGE('',*,*,#1115,.T.);
#1117=DIRECTION('',(0.,-1.,0.));
#1118=VECTOR('',#1117,750.);
#1119=LINE('',#758,#1118);
#1120=EDGE_CURVE('',#759,#1111,#1119,.T.);
#1121=ORIENTED_EDGE('',*,*,#1120,.F.);
#1122=ORIENTED_EDGE('',*,*,#763,.F.);
#1123=ORIENTED_EDGE('',*,*,#1098,.T.);
#1124=EDGE_LOOP('',(#1116,#1121,#1122,#1123));
#1125=FACE_OUTER_BOUND('',#1124,.T.);
#1126=CARTESIAN_POINT('',(-16.79904,-375.,-16.25));
#1127=DIRECTION('',(0.70711,0.,0.70711));
#1128=DIRECTION('',(0.70711,0.,-0.70711));
#1129=AXIS2_PLACEMENT_3D('',#1126,#1127,#1128);
#1130=PLANE('',#1129);
#1131=ADVANCED_FACE('',(#1125),#1130,.T.);
#1132=CARTESIAN_POINT('',(-15.5,-375.,-17.));
#1133=VERTEX_POINT('',#1132);
#1134=DIRECTION('',(0.96593,0.,-0.25882));
#1135=VECTOR('',#1134,0.77646);
#1136=LINE('',#1110,#1135);
#1137=EDGE_CURVE('',#1111,#1133,#1136,.T.);
#1138=ORIENTED_EDGE('',*,*,#1137,.T.);
#1139=DIRECTION('',(0.,-1.,0.));
#1140=VECTOR('',#1139,750.);
#1141=LINE('',#780,#1140);
#1142=EDGE_CURVE('',#781,#1133,#1141,.T.);
#1143=ORIENTED_EDGE('',*,*,#1142,.F.);
#1144=ORIENTED_EDGE('',*,*,#785,.F.);
#1145=ORIENTED_EDGE('',*,*,#1120,.T.);
#1146=EDGE_LOOP('',(#1138,#1143,#1144,#1145));
#1147=FACE_OUTER_BOUND('',#1146,.T.);
#1148=CARTESIAN_POINT('',(-16.25,-375.,-16.79904));
#1149=DIRECTION('',(0.25882,0.,0.96593));
#1150=DIRECTION('',(0.96593,0.,-0.25882));
#1151=AXIS2_PLACEMENT_3D('',#1148,#1149,#1150);
#1152=PLANE('',#1151);
#1153=ADVANCED_FACE('',(#1147),#1152,.T.);
#1154=DIRECTION('',(-1.,0.,0.));
#1155=VECTOR('',#1154,31.);
#1156=LINE('',#818,#1155);
#1157=EDGE_CURVE('',#819,#1133,#1156,.T.);
#1158=ORIENTED_EDGE('',*,*,#1157,.F.);
#1159=ORIENTED_EDGE('',*,*,#836,.F.);
#1160=ORIENTED_EDGE('',*,*,#805,.T.);
#1161=ORIENTED_EDGE('',*,*,#1142,.T.);
#1162=EDGE_LOOP('',(#1158,#1159,#1160,#1161));
#1163=FACE_OUTER_BOUND('',#1162,.T.);
#1164=CARTESIAN_POINT('',(-15.5,-375.,-17.));
#1165=DIRECTION('',(0.,0.,1.));
#1166=DIRECTION('',(1.,0.,0.));
#1167=AXIS2_PLACEMENT_3D('',#1164,#1165,#1166);
#1168=PLANE('',#1167);
#1169=ADVANCED_FACE('',(#1163),#1168,.T.);
#1170=ORIENTED_EDGE('',*,*,#39,.T.);
#1171=DIRECTION('',(-0.54889,0.,0.8359));
#1172=VECTOR('',#1171,3.18827);
#1173=LINE('',#27,#1172);
#1174=EDGE_CURVE('',#28,#821,#1173,.T.);
#1175=ORIENTED_EDGE('',*,*,#1174,.T.);
#1176=ORIENTED_EDGE('',*,*,#825,.F.);
#1177=DIRECTION('',(-0.1644,0.,0.98639));
#1178=VECTOR('',#1177,3.04138);
#1179=LINE('',#34,#1178);
#1180=EDGE_CURVE('',#35,#819,#1179,.T.);
#1181=ORIENTED_EDGE('',*,*,#1180,.F.);
#1182=EDGE_LOOP('',(#1170,#1175,#1176,#1181));
#1183=FACE_OUTER_BOUND('',#1182,.T.);
#1184=CARTESIAN_POINT('',(16.,-375.,-20.));
#1185=DIRECTION('',(0.,-1.,0.));
#1186=DIRECTION('',(0.96593,0.,0.25882));
#1187=AXIS2_PLACEMENT_3D('',#1184,#1185,#1186);
#1188=PLANE('',#1187);
#1189=ADVANCED_FACE('',(#1183),#1188,.T.);
#1190=ORIENTED_EDGE('',*,*,#71,.T.);
#1191=DIRECTION('',(-0.8359,0.,0.54889));
#1192=VECTOR('',#1191,3.18827);
#1193=LINE('',#61,#1192);
#1194=EDGE_CURVE('',#62,#847,#1193,.T.);
#1195=ORIENTED_EDGE('',*,*,#1194,.T.);
#1196=ORIENTED_EDGE('',*,*,#851,.F.);
#1197=ORIENTED_EDGE('',*,*,#1174,.F.);
#1198=EDGE_LOOP('',(#1190,#1195,#1196,#1197));
#1199=FACE_OUTER_BOUND('',#1198,.T.);
#1200=CARTESIAN_POINT('',(18.,-375.,-19.4641));
#1201=DIRECTION('',(0.,-1.,0.));
#1202=DIRECTION('',(0.70711,0.,0.70711));
#1203=AXIS2_PLACEMENT_3D('',#1200,#1201,#1202);
#1204=PLANE('',#1203);
#1205=ADVANCED_FACE('',(#1199),#1204,.T.);
#1206=ORIENTED_EDGE('',*,*,#99,.T.);
#1207=DIRECTION('',(-0.98639,0.,0.1644));
#1208=VECTOR('',#1207,3.04138);
#1209=LINE('',#89,#1208);
#1210=EDGE_CURVE('',#90,#869,#1209,.T.);
#1211=ORIENTED_EDGE('',*,*,#1210,.T.);
#1212=ORIENTED_EDGE('',*,*,#873,.F.);
#1213=ORIENTED_EDGE('',*,*,#1194,.F.);
#1214=EDGE_LOOP('',(#1206,#1211,#1212,#1213));
#1215=FACE_OUTER_BOUND('',#1214,.T.);
#1216=CARTESIAN_POINT('',(19.4641,-375.,-18.));
#1217=DIRECTION('',(0.,-1.,0.));
#1218=DIRECTION('',(0.25882,0.,0.96593));
#1219=AXIS2_PLACEMENT_3D('',#1216,#1217,#1218);
#1220=PLANE('',#1219);
#1221=ADVANCED_FACE('',(#1215),#1220,.T.);
#1222=ORIENTED_EDGE('',*,*,#127,.T.);
#1223=DIRECTION('',(-0.98639,0.,-0.1644));
#1224=VECTOR('',#1223,3.04138);
#1225=LINE('',#117,#1224);
#1226=EDGE_CURVE('',#118,#891,#1225,.T.);
#1227=ORIENTED_EDGE('',*,*,#1226,.T.);
#1228=ORIENTED_EDGE('',*,*,#895,.F.);
#1229=ORIENTED_EDGE('',*,*,#1210,.F.);
#1230=EDGE_LOOP('',(#1222,#1227,#1228,#1229));
#1231=FACE_OUTER_BOUND('',#1230,.T.);
#1232=CARTESIAN_POINT('',(20.,-375.,-16.));
#1233=DIRECTION('',(0.,-1.,0.));
#1234=DIRECTION('',(0.,0.,1.));
#1235=AXIS2_PLACEMENT_3D('',#1232,#1233,#1234);
#1236=PLANE('',#1235);
#1237=ADVANCED_FACE('',(#1231),#1236,.T.);
#1238=ORIENTED_EDGE('',*,*,#155,.T.);
#1239=DIRECTION('',(-0.8359,0.,-0.54889));
#1240=VECTOR('',#1239,3.18827);
#1241=LINE('',#145,#1240);
#1242=EDGE_CURVE('',#146,#913,#1241,.T.);
#1243=ORIENTED_EDGE('',*,*,#1242,.T.);
#1244=ORIENTED_EDGE('',*,*,#917,.F.);
#1245=ORIENTED_EDGE('',*,*,#1226,.F.);
#1246=EDGE_LOOP('',(#1238,#1243,#1244,#1245));
#1247=FACE_OUTER_BOUND('',#1246,.T.);
#1248=CARTESIAN_POINT('',(20.,-375.,16.));
#1249=DIRECTION('',(0.,-1.,0.));
#1250=DIRECTION('',(-0.25882,0.,0.96593));
#1251=AXIS2_PLACEMENT_3D('',#1248,#1249,#1250);
#1252=PLANE('',#1251);
#1253=ADVANCED_FACE('',(#1247),#1252,.T.);
#1254=ORIENTED_EDGE('',*,*,#183,.T.);
#1255=DIRECTION('',(-0.54889,0.,-0.8359));
#1256=VECTOR('',#1255,3.18827);
#1257=LINE('',#173,#1256);
#1258=EDGE_CURVE('',#174,#935,#1257,.T.);
#1259=ORIENTED_EDGE('',*,*,#1258,.T.);
#1260=ORIENTED_EDGE('',*,*,#939,.F.);
#1261=ORIENTED_EDGE('',*,*,#1242,.F.);
#1262=EDGE_LOOP('',(#1254,#1259,#1260,#1261));
#1263=FACE_OUTER_BOUND('',#1262,.T.);
#1264=CARTESIAN_POINT('',(19.4641,-375.,18.));
#1265=DIRECTION('',(0.,-1.,0.));
#1266=DIRECTION('',(-0.70711,0.,0.70711));
#1267=AXIS2_PLACEMENT_3D('',#1264,#1265,#1266);
#1268=PLANE('',#1267);
#1269=ADVANCED_FACE('',(#1263),#1268,.T.);
#1270=ORIENTED_EDGE('',*,*,#211,.T.);
#1271=DIRECTION('',(-0.1644,0.,-0.98639));
#1272=VECTOR('',#1271,3.04138);
#1273=LINE('',#201,#1272);
#1274=EDGE_CURVE('',#202,#957,#1273,.T.);
#1275=ORIENTED_EDGE('',*,*,#1274,.T.);
#1276=ORIENTED_EDGE('',*,*,#961,.F.);
#1277=ORIENTED_EDGE('',*,*,#1258,.F.);
#1278=EDGE_LOOP('',(#1270,#1275,#1276,#1277));
#1279=FACE_OUTER_BOUND('',#1278,.T.);
#1280=CARTESIAN_POINT('',(18.,-375.,19.4641));
#1281=DIRECTION('',(0.,-1.,0.));
#1282=DIRECTION('',(-0.96593,0.,0.25882));
#1283=AXIS2_PLACEMENT_3D('',#1280,#1281,#1282);
#1284=PLANE('',#1283);
#1285=ADVANCED_FACE('',(#1279),#1284,.T.);
#1286=ORIENTED_EDGE('',*,*,#239,.T.);
#1287=DIRECTION('',(0.1644,0.,-0.98639));
#1288=VECTOR('',#1287,3.04138);
#1289=LINE('',#229,#1288);
#1290=EDGE_CURVE('',#230,#979,#1289,.T.);
#1291=ORIENTED_EDGE('',*,*,#1290,.T.);
#1292=ORIENTED_EDGE('',*,*,#983,.F.);
#1293=ORIENTED_EDGE('',*,*,#1274,.F.);
#1294=EDGE_LOOP('',(#1286,#1291,#1292,#1293));
#1295=FACE_OUTER_BOUND('',#1294,.T.);
#1296=CARTESIAN_POINT('',(16.,-375.,20.));
#1297=DIRECTION('',(0.,-1.,0.));
#1298=DIRECTION('',(-1.,0.,0.));
#1299=AXIS2_PLACEMENT_3D('',#1296,#1297,#1298);
#1300=PLANE('',#1299);
#1301=ADVANCED_FACE('',(#1295),#1300,.T.);
#1302=ORIENTED_EDGE('',*,*,#267,.T.);
#1303=DIRECTION('',(0.54889,0.,-0.8359));
#1304=VECTOR('',#1303,3.18827);
#1305=LINE('',#257,#1304);
#1306=EDGE_CURVE('',#258,#1001,#1305,.T.);
#1307=ORIENTED_EDGE('',*,*,#1306,.T.);
#1308=ORIENTED_EDGE('',*,*,#1005,.F.);
#1309=ORIENTED_EDGE('',*,*,#1290,.F.);
#1310=EDGE_LOOP('',(#1302,#1307,#1308,#1309));
#1311=FACE_OUTER_BOUND('',#1310,.T.);
#1312=CARTESIAN_POINT('',(-16.,-375.,20.));
#1313=DIRECTION('',(0.,-1.,0.));
#1314=DIRECTION('',(-0.96593,0.,-0.25882));
#1315=AXIS2_PLACEMENT_3D('',#1312,#1313,#1314);
#1316=PLANE('',#1315);
#1317=ADVANCED_FACE('',(#1311),#1316,.T.);
#1318=ORIENTED_EDGE('',*,*,#295,.T.);
#1319=DIRECTION('',(0.8359,0.,-0.54889));
#1320=VECTOR('',#1319,3.18827);
#1321=LINE('',#285,#1320);
#1322=EDGE_CURVE('',#286,#1023,#1321,.T.);
#1323=ORIENTED_EDGE('',*,*,#1322,.T.);
#1324=ORIENTED_EDGE('',*,*,#1027,.F.);
#1325=ORIENTED_EDGE('',*,*,#1306,.F.);
#1326=EDGE_LOOP('',(#1318,#1323,#1324,#1325));
#1327=FACE_OUTER_BOUND('',#1326,.T.);
#1328=CARTESIAN_POINT('',(-18.,-375.,19.4641));
#1329=DIRECTION('',(0.,-1.,0.));
#1330=DIRECTION('',(-0.70711,0.,-0.70711));
#1331=AXIS2_PLACEMENT_3D('',#1328,#1329,#1330);
#1332=PLANE('',#1331);
#1333=ADVANCED_FACE('',(#1327),#1332,.T.);
#1334=ORIENTED_EDGE('',*,*,#323,.T.);
#1335=DIRECTION('',(0.98639,0.,-0.1644));
#1336=VECTOR('',#1335,3.04138);
#1337=LINE('',#313,#1336);
#1338=EDGE_CURVE('',#314,#1045,#1337,.T.);
#1339=ORIENTED_EDGE('',*,*,#1338,.T.);
#1340=ORIENTED_EDGE('',*,*,#1049,.F.);
#1341=ORIENTED_EDGE('',*,*,#1322,.F.);
#1342=EDGE_LOOP('',(#1334,#1339,#1340,#1341));
#1343=FACE_OUTER_BOUND('',#1342,.T.);
#1344=CARTESIAN_POINT('',(-19.4641,-375.,18.));
#1345=DIRECTION('',(0.,-1.,0.));
#1346=DIRECTION('',(-0.25882,0.,-0.96593));
#1347=AXIS2_PLACEMENT_3D('',#1344,#1345,#1346);
#1348=PLANE('',#1347);
#1349=ADVANCED_FACE('',(#1343),#1348,.T.);
#1350=ORIENTED_EDGE('',*,*,#351,.T.);
#1351=DIRECTION('',(0.98639,0.,0.1644));
#1352=VECTOR('',#1351,3.04138);
#1353=LINE('',#341,#1352);
#1354=EDGE_CURVE('',#342,#1067,#1353,.T.);
#1355=ORIENTED_EDGE('',*,*,#1354,.T.);
#1356=ORIENTED_EDGE('',*,*,#1071,.F.);
#1357=ORIENTED_EDGE('',*,*,#1338,.F.);
#1358=EDGE_LOOP('',(#1350,#1355,#1356,#1357));
#1359=FACE_OUTER_BOUND('',#1358,.T.);
#1360=CARTESIAN_POINT('',(-20.,-375.,16.));
#1361=DIRECTION('',(0.,-1.,0.));
#1362=DIRECTION('',(0.,0.,-1.));
#1363=AXIS2_PLACEMENT_3D('',#1360,#1361,#1362);
#1364=PLANE('',#1363);
#1365=ADVANCED_FACE('',(#1359),#1364,.T.);
#1366=ORIENTED_EDGE('',*,*,#379,.T.);
#1367=DIRECTION('',(0.8359,0.,0.54889));
#1368=VECTOR('',#1367,3.18827);
#1369=LINE('',#369,#1368);
#1370=EDGE_CURVE('',#370,#1089,#1369,.T.);
#1371=ORIENTED_EDGE('',*,*,#1370,.T.);
#1372=ORIENTED_EDGE('',*,*,#1093,.F.);
#1373=ORIENTED_EDGE('',*,*,#1354,.F.);
#1374=EDGE_LOOP('',(#1366,#1371,#1372,#1373));
#1375=FACE_OUTER_BOUND('',#1374,.T.);
#1376=CARTESIAN_POINT('',(-20.,-375.,-16.));
#1377=DIRECTION('',(0.,-1.,0.));
#1378=DIRECTION('',(0.25882,0.,-0.96593));
#1379=AXIS2_PLACEMENT_3D('',#1376,#1377,#1378);
#1380=PLANE('',#1379);
#1381=ADVANCED_FACE('',(#1375),#1380,.T.);
#1382=ORIENTED_EDGE('',*,*,#407,.T.);
#1383=DIRECTION('',(0.54889,0.,0.8359));
#1384=VECTOR('',#1383,3.18827);
#1385=LINE('',#397,#1384);
#1386=EDGE_CURVE('',#398,#1111,#1385,.T.);
#1387=ORIENTED_EDGE('',*,*,#1386,.T.);
#1388=ORIENTED_EDGE('',*,*,#1115,.F.);
#1389=ORIENTED_EDGE('',*,*,#1370,.F.);
#1390=EDGE_LOOP('',(#1382,#1387,#1388,#1389));
#1391=FACE_OUTER_BOUND('',#1390,.T.);
#1392=CARTESIAN_POINT('',(-19.4641,-375.,-18.));
#1393=DIRECTION('',(0.,-1.,0.));
#1394=DIRECTION('',(0.70711,0.,-0.70711));
#1395=AXIS2_PLACEMENT_3D('',#1392,#1393,#1394);
#1396=PLANE('',#1395);
#1397=ADVANCED_FACE('',(#1391),#1396,.T.);
#1398=ORIENTED_EDGE('',*,*,#435,.T.);
#1399=DIRECTION('',(0.1644,0.,0.98639));
#1400=VECTOR('',#1399,3.04138);
#1401=LINE('',#425,#1400);
#1402=EDGE_CURVE('',#426,#1133,#1401,.T.);
#1403=ORIENTED_EDGE('',*,*,#1402,.T.);
#1404=ORIENTED_EDGE('',*,*,#1137,.F.);
#1405=ORIENTED_EDGE('',*,*,#1386,.F.);
#1406=EDGE_LOOP('',(#1398,#1403,#1404,#1405));
#1407=FACE_OUTER_BOUND('',#1406,.T.);
#1408=CARTESIAN_POINT('',(-18.,-375.,-19.4641));
#1409=DIRECTION('',(0.,-1.,0.));
#1410=DIRECTION('',(0.96593,0.,-0.25882));
#1411=AXIS2_PLACEMENT_3D('',#1408,#1409,#1410);
#1412=PLANE('',#1411);
#1413=ADVANCED_FACE('',(#1407),#1412,.T.);
#1414=ORIENTED_EDGE('',*,*,#455,.F.);
#1415=ORIENTED_EDGE('',*,*,#1180,.T.);
#1416=ORIENTED_EDGE('',*,*,#1157,.T.);
#1417=ORIENTED_EDGE('',*,*,#1402,.F.);
#1418=EDGE_LOOP('',(#1414,#1415,#1416,#1417));
#1419=FACE_OUTER_BOUND('',#1418,.T.);
#1420=CARTESIAN_POINT('',(-16.,-375.,-20.));
#1421=DIRECTION('',(0.,-1.,0.));
#1422=DIRECTION('',(1.,0.,0.));
#1423=AXIS2_PLACEMENT_3D('',#1420,#1421,#1422);
#1424=PLANE('',#1423);
#1425=ADVANCED_FACE('',(#1419),#1424,.T.);
#1426=CLOSED_SHELL('',(#53,#81,#109,#137,#165,#193,#221,#249,#277,#305,#333,#361,#389,#417,#445,#465,#493,#515,#537,#559,#581,#603,#625,#647,#669,#691,#713,#735,#757,#779,#801,#817,#845,#867,#889,#911,#933,#955,#977,#999,#1021,#1043,#1065,#1087,#1109,#1131,#1153,#1169,#1189,#1205,#1221,#1237,#1253,#1269,#1285,#1301,#1317,#1333,#1349,#1365,#1381,#1397,#1413,#1425));
#1427=MANIFOLD_SOLID_BREP('',#1426);
#1428=COLOUR_RGB('',0.8,0.82,0.84);
#1429=FILL_AREA_STYLE_COLOUR('',#1428);
#1430=FILL_AREA_STYLE('',(#1429));
#1431=SURFACE_STYLE_FILL_AREA(#1430);
#1432=SURFACE_SIDE_STYLE('',(#1431));
#1433=SURFACE_STYLE_USAGE(.BOTH.,#1432);
#1434=PRESENTATION_STYLE_ASSIGNMENT((#1433));
#1435=STYLED_ITEM('color',(#1434),#1427);
#1436=ADVANCED_BREP_SHAPE_REPRESENTATION('',(#17,#1427),#9);
#1437=SHAPE_DEFINITION_REPRESENTATION(#13,#1436);
#1438=MECHANICAL_DESIGN_GEOMETRIC_PRESENTATION_REPRESENTATION('',(#1435),#9);
#1439=PRODUCT_RELATED_PRODUCT_CATEGORY('part',$,(#10));
ENDSEC;
END-ISO-10303-21;
