ISO-10303-21;
HEADER;
FILE_DESCRIPTION(('AquaSentinel R3 - planar B-rep export'),'2;1');
FILE_NAME('T-handle latch pin (tool-free)','2026-10-04T21:49:42',('AquaSentinel team'),('Sanjivani University'),'AquaSentinel R3 python build','AquaSentinel R3','');
FILE_SCHEMA(('AUTOMOTIVE_DESIGN { 1 0 10303 214 1 1 1 1 }'));
ENDSEC;
DATA;
#1=APPLICATION_CONTEXT('core data for automotive mechanical design processes');
#2=APPLICATION_PROTOCOL_DEFINITION('international standard','automotive_design',2000,#1);
#3=PRODUCT_CONTEXT('',#1,'mechanical');
#4=PRODUCT_DEFINITION_CONTEXT('part definition',#1,'design');
#5=(LENGTH_UNIT()NAMED_UNIT(*)SI_UNIT(.MILLI.,.METRE.));
#6=(NAMED_UNIT(*)PLANE_ANGLE_UNIT()SI_UNIT($,.RADIAN.));
#7=(NAMED_UNIT(*)SI_UNIT($,.STERADIAN.)SOLID_ANGLE_UNIT());
#8=UNCERTAINTY_MEASURE_WITH_UNIT(LENGTH_MEASURE(1.E-04),#5,'distance_accuracy_value','confusion accuracy');
#9=(GEOMETRIC_REPRESENTATION_CONTEXT(3)GLOBAL_UNCERTAINTY_ASSIGNED_CONTEXT((#8))GLOBAL_UNIT_ASSIGNED_CONTEXT((#5,#6,#7))REPRESENTATION_CONTEXT('Context','3D Context with UNIT and UNCERTAINTY'));
#10=PRODUCT('AS3-314','T-handle latch pin (tool-free)','',(#3));
#11=PRODUCT_DEFINITION_FORMATION('','',#10);
#12=PRODUCT_DEFINITION('design','',#11,#4);
#13=PRODUCT_DEFINITION_SHAPE('','',#12);
#14=CARTESIAN_POINT('',(0.,0.,0.));
#15=DIRECTION('',(0.,0.,1.));
#16=DIRECTION('',(1.,0.,0.));
#17=AXIS2_PLACEMENT_3D('',#14,#15,#16);
#18=CARTESIAN_POINT('',(5.,0.,-22.));
#19=VERTEX_POINT('',#18);
#20=CARTESIAN_POINT('',(4.75528,1.54508,-22.));
#21=VERTEX_POINT('',#20);
#22=DIRECTION('',(-0.15643,0.98769,0.));
#23=VECTOR('',#22,1.56434);
#24=LINE('',#18,#23);
#25=EDGE_CURVE('',#19,#21,#24,.T.);
#26=ORIENTED_EDGE('',*,*,#25,.T.);
#27=CARTESIAN_POINT('',(4.75528,1.54508,30.));
#28=VERTEX_POINT('',#27);
#29=DIRECTION('',(0.,0.,1.));
#30=VECTOR('',#29,52.);
#31=LINE('',#20,#30);
#32=EDGE_CURVE('',#21,#28,#31,.T.);
#33=ORIENTED_EDGE('',*,*,#32,.T.);
#34=CARTESIAN_POINT('',(5.,0.,30.));
#35=VERTEX_POINT('',#34);
#36=DIRECTION('',(-0.15643,0.98769,0.));
#37=VECTOR('',#36,1.56434);
#38=LINE('',#34,#37);
#39=EDGE_CURVE('',#35,#28,#38,.T.);
#40=ORIENTED_EDGE('',*,*,#39,.F.);
#41=DIRECTION('',(0.,0.,1.));
#42=VECTOR('',#41,52.);
#43=LINE('',#18,#42);
#44=EDGE_CURVE('',#19,#35,#43,.T.);
#45=ORIENTED_EDGE('',*,*,#44,.F.);
#46=EDGE_LOOP('',(#26,#33,#40,#45));
#47=FACE_OUTER_BOUND('',#46,.T.);
#48=CARTESIAN_POINT('',(5.,0.,-22.));
#49=DIRECTION('',(0.98769,0.15643,0.));
#50=DIRECTION('',(-0.15643,0.98769,0.));
#51=AXIS2_PLACEMENT_3D('',#48,#49,#50);
#52=PLANE('',#51);
#53=ADVANCED_FACE('',(#47),#52,.T.);
#54=CARTESIAN_POINT('',(4.04508,2.93893,-22.));
#55=VERTEX_POINT('',#54);
#56=DIRECTION('',(-0.45399,0.89101,0.));
#57=VECTOR('',#56,1.56434);
#58=LINE('',#20,#57);
#59=EDGE_CURVE('',#21,#55,#58,.T.);
#60=ORIENTED_EDGE('',*,*,#59,.T.);
#61=CARTESIAN_POINT('',(4.04508,2.93893,30.));
#62=VERTEX_POINT('',#61);
#63=DIRECTION('',(0.,0.,1.));
#64=VECTOR('',#63,52.);
#65=LINE('',#54,#64);
#66=EDGE_CURVE('',#55,#62,#65,.T.);
#67=ORIENTED_EDGE('',*,*,#66,.T.);
#68=DIRECTION('',(-0.45399,0.89101,0.));
#69=VECTOR('',#68,1.56434);
#70=LINE('',#27,#69);
#71=EDGE_CURVE('',#28,#62,#70,.T.);
#72=ORIENTED_EDGE('',*,*,#71,.F.);
#73=ORIENTED_EDGE('',*,*,#32,.F.);
#74=EDGE_LOOP('',(#60,#67,#72,#73));
#75=FACE_OUTER_BOUND('',#74,.T.);
#76=CARTESIAN_POINT('',(4.75528,1.54508,-22.));
#77=DIRECTION('',(0.89101,0.45399,0.));
#78=DIRECTION('',(-0.45399,0.89101,0.));
#79=AXIS2_PLACEMENT_3D('',#76,#77,#78);
#80=PLANE('',#79);
#81=ADVANCED_FACE('',(#75),#80,.T.);
#82=CARTESIAN_POINT('',(2.93893,4.04508,-22.));
#83=VERTEX_POINT('',#82);
#84=DIRECTION('',(-0.70711,0.70711,0.));
#85=VECTOR('',#84,1.56434);
#86=LINE('',#54,#85);
#87=EDGE_CURVE('',#55,#83,#86,.T.);
#88=ORIENTED_EDGE('',*,*,#87,.T.);
#89=CARTESIAN_POINT('',(2.93893,4.04508,30.));
#90=VERTEX_POINT('',#89);
#91=DIRECTION('',(0.,0.,1.));
#92=VECTOR('',#91,52.);
#93=LINE('',#82,#92);
#94=EDGE_CURVE('',#83,#90,#93,.T.);
#95=ORIENTED_EDGE('',*,*,#94,.T.);
#96=DIRECTION('',(-0.70711,0.70711,0.));
#97=VECTOR('',#96,1.56434);
#98=LINE('',#61,#97);
#99=EDGE_CURVE('',#62,#90,#98,.T.);
#100=ORIENTED_EDGE('',*,*,#99,.F.);
#101=ORIENTED_EDGE('',*,*,#66,.F.);
#102=EDGE_LOOP('',(#88,#95,#100,#101));
#103=FACE_OUTER_BOUND('',#102,.T.);
#104=CARTESIAN_POINT('',(4.04508,2.93893,-22.));
#105=DIRECTION('',(0.70711,0.70711,0.));
#106=DIRECTION('',(-0.70711,0.70711,0.));
#107=AXIS2_PLACEMENT_3D('',#104,#105,#106);
#108=PLANE('',#107);
#109=ADVANCED_FACE('',(#103),#108,.T.);
#110=CARTESIAN_POINT('',(1.54508,4.75528,-22.));
#111=VERTEX_POINT('',#110);
#112=DIRECTION('',(-0.89101,0.45399,0.));
#113=VECTOR('',#112,1.56434);
#114=LINE('',#82,#113);
#115=EDGE_CURVE('',#83,#111,#114,.T.);
#116=ORIENTED_EDGE('',*,*,#115,.T.);
#117=CARTESIAN_POINT('',(1.54508,4.75528,30.));
#118=VERTEX_POINT('',#117);
#119=DIRECTION('',(0.,0.,1.));
#120=VECTOR('',#119,52.);
#121=LINE('',#110,#120);
#122=EDGE_CURVE('',#111,#118,#121,.T.);
#123=ORIENTED_EDGE('',*,*,#122,.T.);
#124=DIRECTION('',(-0.89101,0.45399,0.));
#125=VECTOR('',#124,1.56434);
#126=LINE('',#89,#125);
#127=EDGE_CURVE('',#90,#118,#126,.T.);
#128=ORIENTED_EDGE('',*,*,#127,.F.);
#129=ORIENTED_EDGE('',*,*,#94,.F.);
#130=EDGE_LOOP('',(#116,#123,#128,#129));
#131=FACE_OUTER_BOUND('',#130,.T.);
#132=CARTESIAN_POINT('',(2.93893,4.04508,-22.));
#133=DIRECTION('',(0.45399,0.89101,0.));
#134=DIRECTION('',(-0.89101,0.45399,0.));
#135=AXIS2_PLACEMENT_3D('',#132,#133,#134);
#136=PLANE('',#135);
#137=ADVANCED_FACE('',(#131),#136,.T.);
#138=CARTESIAN_POINT('',(0.,5.,-22.));
#139=VERTEX_POINT('',#138);
#140=DIRECTION('',(-0.98769,0.15643,0.));
#141=VECTOR('',#140,1.56434);
#142=LINE('',#110,#141);
#143=EDGE_CURVE('',#111,#139,#142,.T.);
#144=ORIENTED_EDGE('',*,*,#143,.T.);
#145=CARTESIAN_POINT('',(0.,5.,30.));
#146=VERTEX_POINT('',#145);
#147=DIRECTION('',(0.,0.,1.));
#148=VECTOR('',#147,52.);
#149=LINE('',#138,#148);
#150=EDGE_CURVE('',#139,#146,#149,.T.);
#151=ORIENTED_EDGE('',*,*,#150,.T.);
#152=DIRECTION('',(-0.98769,0.15643,0.));
#153=VECTOR('',#152,1.56434);
#154=LINE('',#117,#153);
#155=EDGE_CURVE('',#118,#146,#154,.T.);
#156=ORIENTED_EDGE('',*,*,#155,.F.);
#157=ORIENTED_EDGE('',*,*,#122,.F.);
#158=EDGE_LOOP('',(#144,#151,#156,#157));
#159=FACE_OUTER_BOUND('',#158,.T.);
#160=CARTESIAN_POINT('',(1.54508,4.75528,-22.));
#161=DIRECTION('',(0.15643,0.98769,0.));
#162=DIRECTION('',(-0.98769,0.15643,0.));
#163=AXIS2_PLACEMENT_3D('',#160,#161,#162);
#164=PLANE('',#163);
#165=ADVANCED_FACE('',(#159),#164,.T.);
#166=CARTESIAN_POINT('',(-1.54508,4.75528,-22.));
#167=VERTEX_POINT('',#166);
#168=DIRECTION('',(-0.98769,-0.15643,0.));
#169=VECTOR('',#168,1.56434);
#170=LINE('',#138,#169);
#171=EDGE_CURVE('',#139,#167,#170,.T.);
#172=ORIENTED_EDGE('',*,*,#171,.T.);
#173=CARTESIAN_POINT('',(-1.54508,4.75528,30.));
#174=VERTEX_POINT('',#173);
#175=DIRECTION('',(0.,0.,1.));
#176=VECTOR('',#175,52.);
#177=LINE('',#166,#176);
#178=EDGE_CURVE('',#167,#174,#177,.T.);
#179=ORIENTED_EDGE('',*,*,#178,.T.);
#180=DIRECTION('',(-0.98769,-0.15643,0.));
#181=VECTOR('',#180,1.56434);
#182=LINE('',#145,#181);
#183=EDGE_CURVE('',#146,#174,#182,.T.);
#184=ORIENTED_EDGE('',*,*,#183,.F.);
#185=ORIENTED_EDGE('',*,*,#150,.F.);
#186=EDGE_LOOP('',(#172,#179,#184,#185));
#187=FACE_OUTER_BOUND('',#186,.T.);
#188=CARTESIAN_POINT('',(0.,5.,-22.));
#189=DIRECTION('',(-0.15643,0.98769,0.));
#190=DIRECTION('',(-0.98769,-0.15643,0.));
#191=AXIS2_PLACEMENT_3D('',#188,#189,#190);
#192=PLANE('',#191);
#193=ADVANCED_FACE('',(#187),#192,.T.);
#194=CARTESIAN_POINT('',(-2.93893,4.04508,-22.));
#195=VERTEX_POINT('',#194);
#196=DIRECTION('',(-0.89101,-0.45399,0.));
#197=VECTOR('',#196,1.56434);
#198=LINE('',#166,#197);
#199=EDGE_CURVE('',#167,#195,#198,.T.);
#200=ORIENTED_EDGE('',*,*,#199,.T.);
#201=CARTESIAN_POINT('',(-2.93893,4.04508,30.));
#202=VERTEX_POINT('',#201);
#203=DIRECTION('',(0.,0.,1.));
#204=VECTOR('',#203,52.);
#205=LINE('',#194,#204);
#206=EDGE_CURVE('',#195,#202,#205,.T.);
#207=ORIENTED_EDGE('',*,*,#206,.T.);
#208=DIRECTION('',(-0.89101,-0.45399,0.));
#209=VECTOR('',#208,1.56434);
#210=LINE('',#173,#209);
#211=EDGE_CURVE('',#174,#202,#210,.T.);
#212=ORIENTED_EDGE('',*,*,#211,.F.);
#213=ORIENTED_EDGE('',*,*,#178,.F.);
#214=EDGE_LOOP('',(#200,#207,#212,#213));
#215=FACE_OUTER_BOUND('',#214,.T.);
#216=CARTESIAN_POINT('',(-1.54508,4.75528,-22.));
#217=DIRECTION('',(-0.45399,0.89101,0.));
#218=DIRECTION('',(-0.89101,-0.45399,0.));
#219=AXIS2_PLACEMENT_3D('',#216,#217,#218);
#220=PLANE('',#219);
#221=ADVANCED_FACE('',(#215),#220,.T.);
#222=CARTESIAN_POINT('',(-4.04508,2.93893,-22.));
#223=VERTEX_POINT('',#222);
#224=DIRECTION('',(-0.70711,-0.70711,0.));
#225=VECTOR('',#224,1.56434);
#226=LINE('',#194,#225);
#227=EDGE_CURVE('',#195,#223,#226,.T.);
#228=ORIENTED_EDGE('',*,*,#227,.T.);
#229=CARTESIAN_POINT('',(-4.04508,2.93893,30.));
#230=VERTEX_POINT('',#229);
#231=DIRECTION('',(0.,0.,1.));
#232=VECTOR('',#231,52.);
#233=LINE('',#222,#232);
#234=EDGE_CURVE('',#223,#230,#233,.T.);
#235=ORIENTED_EDGE('',*,*,#234,.T.);
#236=DIRECTION('',(-0.70711,-0.70711,0.));
#237=VECTOR('',#236,1.56434);
#238=LINE('',#201,#237);
#239=EDGE_CURVE('',#202,#230,#238,.T.);
#240=ORIENTED_EDGE('',*,*,#239,.F.);
#241=ORIENTED_EDGE('',*,*,#206,.F.);
#242=EDGE_LOOP('',(#228,#235,#240,#241));
#243=FACE_OUTER_BOUND('',#242,.T.);
#244=CARTESIAN_POINT('',(-2.93893,4.04508,-22.));
#245=DIRECTION('',(-0.70711,0.70711,0.));
#246=DIRECTION('',(-0.70711,-0.70711,0.));
#247=AXIS2_PLACEMENT_3D('',#244,#245,#246);
#248=PLANE('',#247);
#249=ADVANCED_FACE('',(#243),#248,.T.);
#250=CARTESIAN_POINT('',(-4.75528,1.54508,-22.));
#251=VERTEX_POINT('',#250);
#252=DIRECTION('',(-0.45399,-0.89101,0.));
#253=VECTOR('',#252,1.56434);
#254=LINE('',#222,#253);
#255=EDGE_CURVE('',#223,#251,#254,.T.);
#256=ORIENTED_EDGE('',*,*,#255,.T.);
#257=CARTESIAN_POINT('',(-4.75528,1.54508,30.));
#258=VERTEX_POINT('',#257);
#259=DIRECTION('',(0.,0.,1.));
#260=VECTOR('',#259,52.);
#261=LINE('',#250,#260);
#262=EDGE_CURVE('',#251,#258,#261,.T.);
#263=ORIENTED_EDGE('',*,*,#262,.T.);
#264=DIRECTION('',(-0.45399,-0.89101,0.));
#265=VECTOR('',#264,1.56434);
#266=LINE('',#229,#265);
#267=EDGE_CURVE('',#230,#258,#266,.T.);
#268=ORIENTED_EDGE('',*,*,#267,.F.);
#269=ORIENTED_EDGE('',*,*,#234,.F.);
#270=EDGE_LOOP('',(#256,#263,#268,#269));
#271=FACE_OUTER_BOUND('',#270,.T.);
#272=CARTESIAN_POINT('',(-4.04508,2.93893,-22.));
#273=DIRECTION('',(-0.89101,0.45399,0.));
#274=DIRECTION('',(-0.45399,-0.89101,0.));
#275=AXIS2_PLACEMENT_3D('',#272,#273,#274);
#276=PLANE('',#275);
#277=ADVANCED_FACE('',(#271),#276,.T.);
#278=CARTESIAN_POINT('',(-5.,0.,-22.));
#279=VERTEX_POINT('',#278);
#280=DIRECTION('',(-0.15643,-0.98769,0.));
#281=VECTOR('',#280,1.56434);
#282=LINE('',#250,#281);
#283=EDGE_CURVE('',#251,#279,#282,.T.);
#284=ORIENTED_EDGE('',*,*,#283,.T.);
#285=CARTESIAN_POINT('',(-5.,0.,30.));
#286=VERTEX_POINT('',#285);
#287=DIRECTION('',(0.,0.,1.));
#288=VECTOR('',#287,52.);
#289=LINE('',#278,#288);
#290=EDGE_CURVE('',#279,#286,#289,.T.);
#291=ORIENTED_EDGE('',*,*,#290,.T.);
#292=DIRECTION('',(-0.15643,-0.98769,0.));
#293=VECTOR('',#292,1.56434);
#294=LINE('',#257,#293);
#295=EDGE_CURVE('',#258,#286,#294,.T.);
#296=ORIENTED_EDGE('',*,*,#295,.F.);
#297=ORIENTED_EDGE('',*,*,#262,.F.);
#298=EDGE_LOOP('',(#284,#291,#296,#297));
#299=FACE_OUTER_BOUND('',#298,.T.);
#300=CARTESIAN_POINT('',(-4.75528,1.54508,-22.));
#301=DIRECTION('',(-0.98769,0.15643,0.));
#302=DIRECTION('',(-0.15643,-0.98769,0.));
#303=AXIS2_PLACEMENT_3D('',#300,#301,#302);
#304=PLANE('',#303);
#305=ADVANCED_FACE('',(#299),#304,.T.);
#306=CARTESIAN_POINT('',(-4.75528,-1.54508,-22.));
#307=VERTEX_POINT('',#306);
#308=DIRECTION('',(0.15643,-0.98769,0.));
#309=VECTOR('',#308,1.56434);
#310=LINE('',#278,#309);
#311=EDGE_CURVE('',#279,#307,#310,.T.);
#312=ORIENTED_EDGE('',*,*,#311,.T.);
#313=CARTESIAN_POINT('',(-4.75528,-1.54508,30.));
#314=VERTEX_POINT('',#313);
#315=DIRECTION('',(0.,0.,1.));
#316=VECTOR('',#315,52.);
#317=LINE('',#306,#316);
#318=EDGE_CURVE('',#307,#314,#317,.T.);
#319=ORIENTED_EDGE('',*,*,#318,.T.);
#320=DIRECTION('',(0.15643,-0.98769,0.));
#321=VECTOR('',#320,1.56434);
#322=LINE('',#285,#321);
#323=EDGE_CURVE('',#286,#314,#322,.T.);
#324=ORIENTED_EDGE('',*,*,#323,.F.);
#325=ORIENTED_EDGE('',*,*,#290,.F.);
#326=EDGE_LOOP('',(#312,#319,#324,#325));
#327=FACE_OUTER_BOUND('',#326,.T.);
#328=CARTESIAN_POINT('',(-5.,0.,-22.));
#329=DIRECTION('',(-0.98769,-0.15643,0.));
#330=DIRECTION('',(0.15643,-0.98769,0.));
#331=AXIS2_PLACEMENT_3D('',#328,#329,#330);
#332=PLANE('',#331);
#333=ADVANCED_FACE('',(#327),#332,.T.);
#334=CARTESIAN_POINT('',(-4.04508,-2.93893,-22.));
#335=VERTEX_POINT('',#334);
#336=DIRECTION('',(0.45399,-0.89101,0.));
#337=VECTOR('',#336,1.56434);
#338=LINE('',#306,#337);
#339=EDGE_CURVE('',#307,#335,#338,.T.);
#340=ORIENTED_EDGE('',*,*,#339,.T.);
#341=CARTESIAN_POINT('',(-4.04508,-2.93893,30.));
#342=VERTEX_POINT('',#341);
#343=DIRECTION('',(0.,0.,1.));
#344=VECTOR('',#343,52.);
#345=LINE('',#334,#344);
#346=EDGE_CURVE('',#335,#342,#345,.T.);
#347=ORIENTED_EDGE('',*,*,#346,.T.);
#348=DIRECTION('',(0.45399,-0.89101,0.));
#349=VECTOR('',#348,1.56434);
#350=LINE('',#313,#349);
#351=EDGE_CURVE('',#314,#342,#350,.T.);
#352=ORIENTED_EDGE('',*,*,#351,.F.);
#353=ORIENTED_EDGE('',*,*,#318,.F.);
#354=EDGE_LOOP('',(#340,#347,#352,#353));
#355=FACE_OUTER_BOUND('',#354,.T.);
#356=CARTESIAN_POINT('',(-4.75528,-1.54508,-22.));
#357=DIRECTION('',(-0.89101,-0.45399,0.));
#358=DIRECTION('',(0.45399,-0.89101,0.));
#359=AXIS2_PLACEMENT_3D('',#356,#357,#358);
#360=PLANE('',#359);
#361=ADVANCED_FACE('',(#355),#360,.T.);
#362=CARTESIAN_POINT('',(-2.93893,-4.04508,-22.));
#363=VERTEX_POINT('',#362);
#364=DIRECTION('',(0.70711,-0.70711,0.));
#365=VECTOR('',#364,1.56434);
#366=LINE('',#334,#365);
#367=EDGE_CURVE('',#335,#363,#366,.T.);
#368=ORIENTED_EDGE('',*,*,#367,.T.);
#369=CARTESIAN_POINT('',(-2.93893,-4.04508,30.));
#370=VERTEX_POINT('',#369);
#371=DIRECTION('',(0.,0.,1.));
#372=VECTOR('',#371,52.);
#373=LINE('',#362,#372);
#374=EDGE_CURVE('',#363,#370,#373,.T.);
#375=ORIENTED_EDGE('',*,*,#374,.T.);
#376=DIRECTION('',(0.70711,-0.70711,0.));
#377=VECTOR('',#376,1.56434);
#378=LINE('',#341,#377);
#379=EDGE_CURVE('',#342,#370,#378,.T.);
#380=ORIENTED_EDGE('',*,*,#379,.F.);
#381=ORIENTED_EDGE('',*,*,#346,.F.);
#382=EDGE_LOOP('',(#368,#375,#380,#381));
#383=FACE_OUTER_BOUND('',#382,.T.);
#384=CARTESIAN_POINT('',(-4.04508,-2.93893,-22.));
#385=DIRECTION('',(-0.70711,-0.70711,0.));
#386=DIRECTION('',(0.70711,-0.70711,0.));
#387=AXIS2_PLACEMENT_3D('',#384,#385,#386);
#388=PLANE('',#387);
#389=ADVANCED_FACE('',(#383),#388,.T.);
#390=CARTESIAN_POINT('',(-1.54508,-4.75528,-22.));
#391=VERTEX_POINT('',#390);
#392=DIRECTION('',(0.89101,-0.45399,0.));
#393=VECTOR('',#392,1.56434);
#394=LINE('',#362,#393);
#395=EDGE_CURVE('',#363,#391,#394,.T.);
#396=ORIENTED_EDGE('',*,*,#395,.T.);
#397=CARTESIAN_POINT('',(-1.54508,-4.75528,30.));
#398=VERTEX_POINT('',#397);
#399=DIRECTION('',(0.,0.,1.));
#400=VECTOR('',#399,52.);
#401=LINE('',#390,#400);
#402=EDGE_CURVE('',#391,#398,#401,.T.);
#403=ORIENTED_EDGE('',*,*,#402,.T.);
#404=DIRECTION('',(0.89101,-0.45399,0.));
#405=VECTOR('',#404,1.56434);
#406=LINE('',#369,#405);
#407=EDGE_CURVE('',#370,#398,#406,.T.);
#408=ORIENTED_EDGE('',*,*,#407,.F.);
#409=ORIENTED_EDGE('',*,*,#374,.F.);
#410=EDGE_LOOP('',(#396,#403,#408,#409));
#411=FACE_OUTER_BOUND('',#410,.T.);
#412=CARTESIAN_POINT('',(-2.93893,-4.04508,-22.));
#413=DIRECTION('',(-0.45399,-0.89101,0.));
#414=DIRECTION('',(0.89101,-0.45399,0.));
#415=AXIS2_PLACEMENT_3D('',#412,#413,#414);
#416=PLANE('',#415);
#417=ADVANCED_FACE('',(#411),#416,.T.);
#418=CARTESIAN_POINT('',(0.,-5.,-22.));
#419=VERTEX_POINT('',#418);
#420=DIRECTION('',(0.98769,-0.15643,0.));
#421=VECTOR('',#420,1.56434);
#422=LINE('',#390,#421);
#423=EDGE_CURVE('',#391,#419,#422,.T.);
#424=ORIENTED_EDGE('',*,*,#423,.T.);
#425=CARTESIAN_POINT('',(0.,-5.,30.));
#426=VERTEX_POINT('',#425);
#427=DIRECTION('',(0.,0.,1.));
#428=VECTOR('',#427,52.);
#429=LINE('',#418,#428);
#430=EDGE_CURVE('',#419,#426,#429,.T.);
#431=ORIENTED_EDGE('',*,*,#430,.T.);
#432=DIRECTION('',(0.98769,-0.15643,0.));
#433=VECTOR('',#432,1.56434);
#434=LINE('',#397,#433);
#435=EDGE_CURVE('',#398,#426,#434,.T.);
#436=ORIENTED_EDGE('',*,*,#435,.F.);
#437=ORIENTED_EDGE('',*,*,#402,.F.);
#438=EDGE_LOOP('',(#424,#431,#436,#437));
#439=FACE_OUTER_BOUND('',#438,.T.);
#440=CARTESIAN_POINT('',(-1.54508,-4.75528,-22.));
#441=DIRECTION('',(-0.15643,-0.98769,0.));
#442=DIRECTION('',(0.98769,-0.15643,0.));
#443=AXIS2_PLACEMENT_3D('',#440,#441,#442);
#444=PLANE('',#443);
#445=ADVANCED_FACE('',(#439),#444,.T.);
#446=CARTESIAN_POINT('',(1.54508,-4.75528,-22.));
#447=VERTEX_POINT('',#446);
#448=DIRECTION('',(0.98769,0.15643,0.));
#449=VECTOR('',#448,1.56434);
#450=LINE('',#418,#449);
#451=EDGE_CURVE('',#419,#447,#450,.T.);
#452=ORIENTED_EDGE('',*,*,#451,.T.);
#453=CARTESIAN_POINT('',(1.54508,-4.75528,30.));
#454=VERTEX_POINT('',#453);
#455=DIRECTION('',(0.,0.,1.));
#456=VECTOR('',#455,52.);
#457=LINE('',#446,#456);
#458=EDGE_CURVE('',#447,#454,#457,.T.);
#459=ORIENTED_EDGE('',*,*,#458,.T.);
#460=DIRECTION('',(0.98769,0.15643,0.));
#461=VECTOR('',#460,1.56434);
#462=LINE('',#425,#461);
#463=EDGE_CURVE('',#426,#454,#462,.T.);
#464=ORIENTED_EDGE('',*,*,#463,.F.);
#465=ORIENTED_EDGE('',*,*,#430,.F.);
#466=EDGE_LOOP('',(#452,#459,#464,#465));
#467=FACE_OUTER_BOUND('',#466,.T.);
#468=CARTESIAN_POINT('',(0.,-5.,-22.));
#469=DIRECTION('',(0.15643,-0.98769,0.));
#470=DIRECTION('',(0.98769,0.15643,0.));
#471=AXIS2_PLACEMENT_3D('',#468,#469,#470);
#472=PLANE('',#471);
#473=ADVANCED_FACE('',(#467),#472,.T.);
#474=CARTESIAN_POINT('',(2.93893,-4.04508,-22.));
#475=VERTEX_POINT('',#474);
#476=DIRECTION('',(0.89101,0.45399,0.));
#477=VECTOR('',#476,1.56434);
#478=LINE('',#446,#477);
#479=EDGE_CURVE('',#447,#475,#478,.T.);
#480=ORIENTED_EDGE('',*,*,#479,.T.);
#481=CARTESIAN_POINT('',(2.93893,-4.04508,30.));
#482=VERTEX_POINT('',#481);
#483=DIRECTION('',(0.,0.,1.));
#484=VECTOR('',#483,52.);
#485=LINE('',#474,#484);
#486=EDGE_CURVE('',#475,#482,#485,.T.);
#487=ORIENTED_EDGE('',*,*,#486,.T.);
#488=DIRECTION('',(0.89101,0.45399,0.));
#489=VECTOR('',#488,1.56434);
#490=LINE('',#453,#489);
#491=EDGE_CURVE('',#454,#482,#490,.T.);
#492=ORIENTED_EDGE('',*,*,#491,.F.);
#493=ORIENTED_EDGE('',*,*,#458,.F.);
#494=EDGE_LOOP('',(#480,#487,#492,#493));
#495=FACE_OUTER_BOUND('',#494,.T.);
#496=CARTESIAN_POINT('',(1.54508,-4.75528,-22.));
#497=DIRECTION('',(0.45399,-0.89101,0.));
#498=DIRECTION('',(0.89101,0.45399,0.));
#499=AXIS2_PLACEMENT_3D('',#496,#497,#498);
#500=PLANE('',#499);
#501=ADVANCED_FACE('',(#495),#500,.T.);
#502=CARTESIAN_POINT('',(4.04508,-2.93893,-22.));
#503=VERTEX_POINT('',#502);
#504=DIRECTION('',(0.70711,0.70711,0.));
#505=VECTOR('',#504,1.56434);
#506=LINE('',#474,#505);
#507=EDGE_CURVE('',#475,#503,#506,.T.);
#508=ORIENTED_EDGE('',*,*,#507,.T.);
#509=CARTESIAN_POINT('',(4.04508,-2.93893,30.));
#510=VERTEX_POINT('',#509);
#511=DIRECTION('',(0.,0.,1.));
#512=VECTOR('',#511,52.);
#513=LINE('',#502,#512);
#514=EDGE_CURVE('',#503,#510,#513,.T.);
#515=ORIENTED_EDGE('',*,*,#514,.T.);
#516=DIRECTION('',(0.70711,0.70711,0.));
#517=VECTOR('',#516,1.56434);
#518=LINE('',#481,#517);
#519=EDGE_CURVE('',#482,#510,#518,.T.);
#520=ORIENTED_EDGE('',*,*,#519,.F.);
#521=ORIENTED_EDGE('',*,*,#486,.F.);
#522=EDGE_LOOP('',(#508,#515,#520,#521));
#523=FACE_OUTER_BOUND('',#522,.T.);
#524=CARTESIAN_POINT('',(2.93893,-4.04508,-22.));
#525=DIRECTION('',(0.70711,-0.70711,0.));
#526=DIRECTION('',(0.70711,0.70711,0.));
#527=AXIS2_PLACEMENT_3D('',#524,#525,#526);
#528=PLANE('',#527);
#529=ADVANCED_FACE('',(#523),#528,.T.);
#530=CARTESIAN_POINT('',(4.75528,-1.54508,-22.));
#531=VERTEX_POINT('',#530);
#532=DIRECTION('',(0.45399,0.89101,0.));
#533=VECTOR('',#532,1.56434);
#534=LINE('',#502,#533);
#535=EDGE_CURVE('',#503,#531,#534,.T.);
#536=ORIENTED_EDGE('',*,*,#535,.T.);
#537=CARTESIAN_POINT('',(4.75528,-1.54508,30.));
#538=VERTEX_POINT('',#537);
#539=DIRECTION('',(0.,0.,1.));
#540=VECTOR('',#539,52.);
#541=LINE('',#530,#540);
#542=EDGE_CURVE('',#531,#538,#541,.T.);
#543=ORIENTED_EDGE('',*,*,#542,.T.);
#544=DIRECTION('',(0.45399,0.89101,0.));
#545=VECTOR('',#544,1.56434);
#546=LINE('',#509,#545);
#547=EDGE_CURVE('',#510,#538,#546,.T.);
#548=ORIENTED_EDGE('',*,*,#547,.F.);
#549=ORIENTED_EDGE('',*,*,#514,.F.);
#550=EDGE_LOOP('',(#536,#543,#548,#549));
#551=FACE_OUTER_BOUND('',#550,.T.);
#552=CARTESIAN_POINT('',(4.04508,-2.93893,-22.));
#553=DIRECTION('',(0.89101,-0.45399,0.));
#554=DIRECTION('',(0.45399,0.89101,0.));
#555=AXIS2_PLACEMENT_3D('',#552,#553,#554);
#556=PLANE('',#555);
#557=ADVANCED_FACE('',(#551),#556,.T.);
#558=DIRECTION('',(-0.15643,-0.98769,0.));
#559=VECTOR('',#558,1.56434);
#560=LINE('',#18,#559);
#561=EDGE_CURVE('',#19,#531,#560,.T.);
#562=ORIENTED_EDGE('',*,*,#561,.F.);
#563=ORIENTED_EDGE('',*,*,#44,.T.);
#564=DIRECTION('',(-0.15643,-0.98769,0.));
#565=VECTOR('',#564,1.56434);
#566=LINE('',#34,#565);
#567=EDGE_CURVE('',#35,#538,#566,.T.);
#568=ORIENTED_EDGE('',*,*,#567,.T.);
#569=ORIENTED_EDGE('',*,*,#542,.F.);
#570=EDGE_LOOP('',(#562,#563,#568,#569));
#571=FACE_OUTER_BOUND('',#570,.T.);
#572=CARTESIAN_POINT('',(4.75528,-1.54508,-22.));
#573=DIRECTION('',(0.98769,-0.15643,0.));
#574=DIRECTION('',(0.15643,0.98769,0.));
#575=AXIS2_PLACEMENT_3D('',#572,#573,#574);
#576=PLANE('',#575);
#577=ADVANCED_FACE('',(#571),#576,.T.);
#578=ORIENTED_EDGE('',*,*,#535,.F.);
#579=ORIENTED_EDGE('',*,*,#507,.F.);
#580=ORIENTED_EDGE('',*,*,#479,.F.);
#581=ORIENTED_EDGE('',*,*,#451,.F.);
#582=ORIENTED_EDGE('',*,*,#423,.F.);
#583=ORIENTED_EDGE('',*,*,#395,.F.);
#584=ORIENTED_EDGE('',*,*,#367,.F.);
#585=ORIENTED_EDGE('',*,*,#339,.F.);
#586=ORIENTED_EDGE('',*,*,#311,.F.);
#587=ORIENTED_EDGE('',*,*,#283,.F.);
#588=ORIENTED_EDGE('',*,*,#255,.F.);
#589=ORIENTED_EDGE('',*,*,#227,.F.);
#590=ORIENTED_EDGE('',*,*,#199,.F.);
#591=ORIENTED_EDGE('',*,*,#171,.F.);
#592=ORIENTED_EDGE('',*,*,#143,.F.);
#593=ORIENTED_EDGE('',*,*,#115,.F.);
#594=ORIENTED_EDGE('',*,*,#87,.F.);
#595=ORIENTED_EDGE('',*,*,#59,.F.);
#596=ORIENTED_EDGE('',*,*,#25,.F.);
#597=ORIENTED_EDGE('',*,*,#561,.T.);
#598=EDGE_LOOP('',(#578,#579,#580,#581,#582,#583,#584,#585,#586,#587,#588,#589,#590,#591,#592,#593,#594,#595,#596,#597));
#599=FACE_OUTER_BOUND('',#598,.T.);
#600=CARTESIAN_POINT('',(4.75528,-1.54508,-22.));
#601=DIRECTION('',(0.,0.,-1.));
#602=DIRECTION('',(-0.45399,-0.89101,0.));
#603=AXIS2_PLACEMENT_3D('',#600,#601,#602);
#604=PLANE('',#603);
#605=ADVANCED_FACE('',(#599),#604,.T.);
#606=ORIENTED_EDGE('',*,*,#39,.T.);
#607=ORIENTED_EDGE('',*,*,#71,.T.);
#608=ORIENTED_EDGE('',*,*,#99,.T.);
#609=ORIENTED_EDGE('',*,*,#127,.T.);
#610=ORIENTED_EDGE('',*,*,#155,.T.);
#611=ORIENTED_EDGE('',*,*,#183,.T.);
#612=ORIENTED_EDGE('',*,*,#211,.T.);
#613=ORIENTED_EDGE('',*,*,#239,.T.);
#614=ORIENTED_EDGE('',*,*,#267,.T.);
#615=ORIENTED_EDGE('',*,*,#295,.T.);
#616=ORIENTED_EDGE('',*,*,#323,.T.);
#617=ORIENTED_EDGE('',*,*,#351,.T.);
#618=ORIENTED_EDGE('',*,*,#379,.T.);
#619=ORIENTED_EDGE('',*,*,#407,.T.);
#620=ORIENTED_EDGE('',*,*,#435,.T.);
#621=ORIENTED_EDGE('',*,*,#463,.T.);
#622=ORIENTED_EDGE('',*,*,#491,.T.);
#623=ORIENTED_EDGE('',*,*,#519,.T.);
#624=ORIENTED_EDGE('',*,*,#547,.T.);
#625=ORIENTED_EDGE('',*,*,#567,.F.);
#626=EDGE_LOOP('',(#606,#607,#608,#609,#610,#611,#612,#613,#614,#615,#616,#617,#618,#619,#620,#621,#622,#623,#624,#625));
#627=FACE_OUTER_BOUND('',#626,.T.);
#628=CARTESIAN_POINT('',(5.,0.,30.));
#629=DIRECTION('',(0.,0.,1.));
#630=DIRECTION('',(-0.15643,0.98769,0.));
#631=AXIS2_PLACEMENT_3D('',#628,#629,#630);
#632=PLANE('',#631);
#633=ADVANCED_FACE('',(#627),#632,.T.);
#634=CLOSED_SHELL('',(#53,#81,#109,#137,#165,#193,#221,#249,#277,#305,#333,#361,#389,#417,#445,#473,#501,#529,#557,#577,#605,#633));
#635=MANIFOLD_SOLID_BREP('',#634);
#636=COLOUR_RGB('',0.58,0.59,0.6);
#637=FILL_AREA_STYLE_COLOUR('',#636);
#638=FILL_AREA_STYLE('',(#637));
#639=SURFACE_STYLE_FILL_AREA(#638);
#640=SURFACE_SIDE_STYLE('',(#639));
#641=SURFACE_STYLE_USAGE(.BOTH.,#640);
#642=PRESENTATION_STYLE_ASSIGNMENT((#641));
#643=STYLED_ITEM('color',(#642),#635);
#644=CARTESIAN_POINT('',(9.,0.,26.));
#645=VERTEX_POINT('',#644);
#646=CARTESIAN_POINT('',(8.55951,2.78115,26.));
#647=VERTEX_POINT('',#646);
#648=DIRECTION('',(-0.15643,0.98769,0.));
#649=VECTOR('',#648,2.81582);
#650=LINE('',#644,#649);
#651=EDGE_CURVE('',#645,#647,#650,.T.);
#652=ORIENTED_EDGE('',*,*,#651,.T.);
#653=CARTESIAN_POINT('',(8.55951,2.78115,32.));
#654=VERTEX_POINT('',#653);
#655=DIRECTION('',(0.,0.,1.));
#656=VECTOR('',#655,6.);
#657=LINE('',#646,#656);
#658=EDGE_CURVE('',#647,#654,#657,.T.);
#659=ORIENTED_EDGE('',*,*,#658,.T.);
#660=CARTESIAN_POINT('',(9.,0.,32.));
#661=VERTEX_POINT('',#660);
#662=DIRECTION('',(-0.15643,0.98769,0.));
#663=VECTOR('',#662,2.81582);
#664=LINE('',#660,#663);
#665=EDGE_CURVE('',#661,#654,#664,.T.);
#666=ORIENTED_EDGE('',*,*,#665,.F.);
#667=DIRECTION('',(0.,0.,1.));
#668=VECTOR('',#667,6.);
#669=LINE('',#644,#668);
#670=EDGE_CURVE('',#645,#661,#669,.T.);
#671=ORIENTED_EDGE('',*,*,#670,.F.);
#672=EDGE_LOOP('',(#652,#659,#666,#671));
#673=FACE_OUTER_BOUND('',#672,.T.);
#674=CARTESIAN_POINT('',(9.,0.,26.));
#675=DIRECTION('',(0.98769,0.15643,0.));
#676=DIRECTION('',(-0.15643,0.98769,0.));
#677=AXIS2_PLACEMENT_3D('',#674,#675,#676);
#678=PLANE('',#677);
#679=ADVANCED_FACE('',(#673),#678,.T.);
#680=CARTESIAN_POINT('',(7.28115,5.29007,26.));
#681=VERTEX_POINT('',#680);
#682=DIRECTION('',(-0.45399,0.89101,0.));
#683=VECTOR('',#682,2.81582);
#684=LINE('',#646,#683);
#685=EDGE_CURVE('',#647,#681,#684,.T.);
#686=ORIENTED_EDGE('',*,*,#685,.T.);
#687=CARTESIAN_POINT('',(7.28115,5.29007,32.));
#688=VERTEX_POINT('',#687);
#689=DIRECTION('',(0.,0.,1.));
#690=VECTOR('',#689,6.);
#691=LINE('',#680,#690);
#692=EDGE_CURVE('',#681,#688,#691,.T.);
#693=ORIENTED_EDGE('',*,*,#692,.T.);
#694=DIRECTION('',(-0.45399,0.89101,0.));
#695=VECTOR('',#694,2.81582);
#696=LINE('',#653,#695);
#697=EDGE_CURVE('',#654,#688,#696,.T.);
#698=ORIENTED_EDGE('',*,*,#697,.F.);
#699=ORIENTED_EDGE('',*,*,#658,.F.);
#700=EDGE_LOOP('',(#686,#693,#698,#699));
#701=FACE_OUTER_BOUND('',#700,.T.);
#702=CARTESIAN_POINT('',(8.55951,2.78115,26.));
#703=DIRECTION('',(0.89101,0.45399,0.));
#704=DIRECTION('',(-0.45399,0.89101,0.));
#705=AXIS2_PLACEMENT_3D('',#702,#703,#704);
#706=PLANE('',#705);
#707=ADVANCED_FACE('',(#701),#706,.T.);
#708=CARTESIAN_POINT('',(5.29007,7.28115,26.));
#709=VERTEX_POINT('',#708);
#710=DIRECTION('',(-0.70711,0.70711,0.));
#711=VECTOR('',#710,2.81582);
#712=LINE('',#680,#711);
#713=EDGE_CURVE('',#681,#709,#712,.T.);
#714=ORIENTED_EDGE('',*,*,#713,.T.);
#715=CARTESIAN_POINT('',(5.29007,7.28115,32.));
#716=VERTEX_POINT('',#715);
#717=DIRECTION('',(0.,0.,1.));
#718=VECTOR('',#717,6.);
#719=LINE('',#708,#718);
#720=EDGE_CURVE('',#709,#716,#719,.T.);
#721=ORIENTED_EDGE('',*,*,#720,.T.);
#722=DIRECTION('',(-0.70711,0.70711,0.));
#723=VECTOR('',#722,2.81582);
#724=LINE('',#687,#723);
#725=EDGE_CURVE('',#688,#716,#724,.T.);
#726=ORIENTED_EDGE('',*,*,#725,.F.);
#727=ORIENTED_EDGE('',*,*,#692,.F.);
#728=EDGE_LOOP('',(#714,#721,#726,#727));
#729=FACE_OUTER_BOUND('',#728,.T.);
#730=CARTESIAN_POINT('',(7.28115,5.29007,26.));
#731=DIRECTION('',(0.70711,0.70711,0.));
#732=DIRECTION('',(-0.70711,0.70711,0.));
#733=AXIS2_PLACEMENT_3D('',#730,#731,#732);
#734=PLANE('',#733);
#735=ADVANCED_FACE('',(#729),#734,.T.);
#736=CARTESIAN_POINT('',(2.78115,8.55951,26.));
#737=VERTEX_POINT('',#736);
#738=DIRECTION('',(-0.89101,0.45399,0.));
#739=VECTOR('',#738,2.81582);
#740=LINE('',#708,#739);
#741=EDGE_CURVE('',#709,#737,#740,.T.);
#742=ORIENTED_EDGE('',*,*,#741,.T.);
#743=CARTESIAN_POINT('',(2.78115,8.55951,32.));
#744=VERTEX_POINT('',#743);
#745=DIRECTION('',(0.,0.,1.));
#746=VECTOR('',#745,6.);
#747=LINE('',#736,#746);
#748=EDGE_CURVE('',#737,#744,#747,.T.);
#749=ORIENTED_EDGE('',*,*,#748,.T.);
#750=DIRECTION('',(-0.89101,0.45399,0.));
#751=VECTOR('',#750,2.81582);
#752=LINE('',#715,#751);
#753=EDGE_CURVE('',#716,#744,#752,.T.);
#754=ORIENTED_EDGE('',*,*,#753,.F.);
#755=ORIENTED_EDGE('',*,*,#720,.F.);
#756=EDGE_LOOP('',(#742,#749,#754,#755));
#757=FACE_OUTER_BOUND('',#756,.T.);
#758=CARTESIAN_POINT('',(5.29007,7.28115,26.));
#759=DIRECTION('',(0.45399,0.89101,0.));
#760=DIRECTION('',(-0.89101,0.45399,0.));
#761=AXIS2_PLACEMENT_3D('',#758,#759,#760);
#762=PLANE('',#761);
#763=ADVANCED_FACE('',(#757),#762,.T.);
#764=CARTESIAN_POINT('',(0.,9.,26.));
#765=VERTEX_POINT('',#764);
#766=DIRECTION('',(-0.98769,0.15643,0.));
#767=VECTOR('',#766,2.81582);
#768=LINE('',#736,#767);
#769=EDGE_CURVE('',#737,#765,#768,.T.);
#770=ORIENTED_EDGE('',*,*,#769,.T.);
#771=CARTESIAN_POINT('',(0.,9.,32.));
#772=VERTEX_POINT('',#771);
#773=DIRECTION('',(0.,0.,1.));
#774=VECTOR('',#773,6.);
#775=LINE('',#764,#774);
#776=EDGE_CURVE('',#765,#772,#775,.T.);
#777=ORIENTED_EDGE('',*,*,#776,.T.);
#778=DIRECTION('',(-0.98769,0.15643,0.));
#779=VECTOR('',#778,2.81582);
#780=LINE('',#743,#779);
#781=EDGE_CURVE('',#744,#772,#780,.T.);
#782=ORIENTED_EDGE('',*,*,#781,.F.);
#783=ORIENTED_EDGE('',*,*,#748,.F.);
#784=EDGE_LOOP('',(#770,#777,#782,#783));
#785=FACE_OUTER_BOUND('',#784,.T.);
#786=CARTESIAN_POINT('',(2.78115,8.55951,26.));
#787=DIRECTION('',(0.15643,0.98769,0.));
#788=DIRECTION('',(-0.98769,0.15643,0.));
#789=AXIS2_PLACEMENT_3D('',#786,#787,#788);
#790=PLANE('',#789);
#791=ADVANCED_FACE('',(#785),#790,.T.);
#792=CARTESIAN_POINT('',(-2.78115,8.55951,26.));
#793=VERTEX_POINT('',#792);
#794=DIRECTION('',(-0.98769,-0.15643,0.));
#795=VECTOR('',#794,2.81582);
#796=LINE('',#764,#795);
#797=EDGE_CURVE('',#765,#793,#796,.T.);
#798=ORIENTED_EDGE('',*,*,#797,.T.);
#799=CARTESIAN_POINT('',(-2.78115,8.55951,32.));
#800=VERTEX_POINT('',#799);
#801=DIRECTION('',(0.,0.,1.));
#802=VECTOR('',#801,6.);
#803=LINE('',#792,#802);
#804=EDGE_CURVE('',#793,#800,#803,.T.);
#805=ORIENTED_EDGE('',*,*,#804,.T.);
#806=DIRECTION('',(-0.98769,-0.15643,0.));
#807=VECTOR('',#806,2.81582);
#808=LINE('',#771,#807);
#809=EDGE_CURVE('',#772,#800,#808,.T.);
#810=ORIENTED_EDGE('',*,*,#809,.F.);
#811=ORIENTED_EDGE('',*,*,#776,.F.);
#812=EDGE_LOOP('',(#798,#805,#810,#811));
#813=FACE_OUTER_BOUND('',#812,.T.);
#814=CARTESIAN_POINT('',(0.,9.,26.));
#815=DIRECTION('',(-0.15643,0.98769,0.));
#816=DIRECTION('',(-0.98769,-0.15643,0.));
#817=AXIS2_PLACEMENT_3D('',#814,#815,#816);
#818=PLANE('',#817);
#819=ADVANCED_FACE('',(#813),#818,.T.);
#820=CARTESIAN_POINT('',(-5.29007,7.28115,26.));
#821=VERTEX_POINT('',#820);
#822=DIRECTION('',(-0.89101,-0.45399,0.));
#823=VECTOR('',#822,2.81582);
#824=LINE('',#792,#823);
#825=EDGE_CURVE('',#793,#821,#824,.T.);
#826=ORIENTED_EDGE('',*,*,#825,.T.);
#827=CARTESIAN_POINT('',(-5.29007,7.28115,32.));
#828=VERTEX_POINT('',#827);
#829=DIRECTION('',(0.,0.,1.));
#830=VECTOR('',#829,6.);
#831=LINE('',#820,#830);
#832=EDGE_CURVE('',#821,#828,#831,.T.);
#833=ORIENTED_EDGE('',*,*,#832,.T.);
#834=DIRECTION('',(-0.89101,-0.45399,0.));
#835=VECTOR('',#834,2.81582);
#836=LINE('',#799,#835);
#837=EDGE_CURVE('',#800,#828,#836,.T.);
#838=ORIENTED_EDGE('',*,*,#837,.F.);
#839=ORIENTED_EDGE('',*,*,#804,.F.);
#840=EDGE_LOOP('',(#826,#833,#838,#839));
#841=FACE_OUTER_BOUND('',#840,.T.);
#842=CARTESIAN_POINT('',(-2.78115,8.55951,26.));
#843=DIRECTION('',(-0.45399,0.89101,0.));
#844=DIRECTION('',(-0.89101,-0.45399,0.));
#845=AXIS2_PLACEMENT_3D('',#842,#843,#844);
#846=PLANE('',#845);
#847=ADVANCED_FACE('',(#841),#846,.T.);
#848=CARTESIAN_POINT('',(-7.28115,5.29007,26.));
#849=VERTEX_POINT('',#848);
#850=DIRECTION('',(-0.70711,-0.70711,0.));
#851=VECTOR('',#850,2.81582);
#852=LINE('',#820,#851);
#853=EDGE_CURVE('',#821,#849,#852,.T.);
#854=ORIENTED_EDGE('',*,*,#853,.T.);
#855=CARTESIAN_POINT('',(-7.28115,5.29007,32.));
#856=VERTEX_POINT('',#855);
#857=DIRECTION('',(0.,0.,1.));
#858=VECTOR('',#857,6.);
#859=LINE('',#848,#858);
#860=EDGE_CURVE('',#849,#856,#859,.T.);
#861=ORIENTED_EDGE('',*,*,#860,.T.);
#862=DIRECTION('',(-0.70711,-0.70711,0.));
#863=VECTOR('',#862,2.81582);
#864=LINE('',#827,#863);
#865=EDGE_CURVE('',#828,#856,#864,.T.);
#866=ORIENTED_EDGE('',*,*,#865,.F.);
#867=ORIENTED_EDGE('',*,*,#832,.F.);
#868=EDGE_LOOP('',(#854,#861,#866,#867));
#869=FACE_OUTER_BOUND('',#868,.T.);
#870=CARTESIAN_POINT('',(-5.29007,7.28115,26.));
#871=DIRECTION('',(-0.70711,0.70711,0.));
#872=DIRECTION('',(-0.70711,-0.70711,0.));
#873=AXIS2_PLACEMENT_3D('',#870,#871,#872);
#874=PLANE('',#873);
#875=ADVANCED_FACE('',(#869),#874,.T.);
#876=CARTESIAN_POINT('',(-8.55951,2.78115,26.));
#877=VERTEX_POINT('',#876);
#878=DIRECTION('',(-0.45399,-0.89101,0.));
#879=VECTOR('',#878,2.81582);
#880=LINE('',#848,#879);
#881=EDGE_CURVE('',#849,#877,#880,.T.);
#882=ORIENTED_EDGE('',*,*,#881,.T.);
#883=CARTESIAN_POINT('',(-8.55951,2.78115,32.));
#884=VERTEX_POINT('',#883);
#885=DIRECTION('',(0.,0.,1.));
#886=VECTOR('',#885,6.);
#887=LINE('',#876,#886);
#888=EDGE_CURVE('',#877,#884,#887,.T.);
#889=ORIENTED_EDGE('',*,*,#888,.T.);
#890=DIRECTION('',(-0.45399,-0.89101,0.));
#891=VECTOR('',#890,2.81582);
#892=LINE('',#855,#891);
#893=EDGE_CURVE('',#856,#884,#892,.T.);
#894=ORIENTED_EDGE('',*,*,#893,.F.);
#895=ORIENTED_EDGE('',*,*,#860,.F.);
#896=EDGE_LOOP('',(#882,#889,#894,#895));
#897=FACE_OUTER_BOUND('',#896,.T.);
#898=CARTESIAN_POINT('',(-7.28115,5.29007,26.));
#899=DIRECTION('',(-0.89101,0.45399,0.));
#900=DIRECTION('',(-0.45399,-0.89101,0.));
#901=AXIS2_PLACEMENT_3D('',#898,#899,#900);
#902=PLANE('',#901);
#903=ADVANCED_FACE('',(#897),#902,.T.);
#904=CARTESIAN_POINT('',(-9.,0.,26.));
#905=VERTEX_POINT('',#904);
#906=DIRECTION('',(-0.15643,-0.98769,0.));
#907=VECTOR('',#906,2.81582);
#908=LINE('',#876,#907);
#909=EDGE_CURVE('',#877,#905,#908,.T.);
#910=ORIENTED_EDGE('',*,*,#909,.T.);
#911=CARTESIAN_POINT('',(-9.,0.,32.));
#912=VERTEX_POINT('',#911);
#913=DIRECTION('',(0.,0.,1.));
#914=VECTOR('',#913,6.);
#915=LINE('',#904,#914);
#916=EDGE_CURVE('',#905,#912,#915,.T.);
#917=ORIENTED_EDGE('',*,*,#916,.T.);
#918=DIRECTION('',(-0.15643,-0.98769,0.));
#919=VECTOR('',#918,2.81582);
#920=LINE('',#883,#919);
#921=EDGE_CURVE('',#884,#912,#920,.T.);
#922=ORIENTED_EDGE('',*,*,#921,.F.);
#923=ORIENTED_EDGE('',*,*,#888,.F.);
#924=EDGE_LOOP('',(#910,#917,#922,#923));
#925=FACE_OUTER_BOUND('',#924,.T.);
#926=CARTESIAN_POINT('',(-8.55951,2.78115,26.));
#927=DIRECTION('',(-0.98769,0.15643,0.));
#928=DIRECTION('',(-0.15643,-0.98769,0.));
#929=AXIS2_PLACEMENT_3D('',#926,#927,#928);
#930=PLANE('',#929);
#931=ADVANCED_FACE('',(#925),#930,.T.);
#932=CARTESIAN_POINT('',(-8.55951,-2.78115,26.));
#933=VERTEX_POINT('',#932);
#934=DIRECTION('',(0.15643,-0.98769,0.));
#935=VECTOR('',#934,2.81582);
#936=LINE('',#904,#935);
#937=EDGE_CURVE('',#905,#933,#936,.T.);
#938=ORIENTED_EDGE('',*,*,#937,.T.);
#939=CARTESIAN_POINT('',(-8.55951,-2.78115,32.));
#940=VERTEX_POINT('',#939);
#941=DIRECTION('',(0.,0.,1.));
#942=VECTOR('',#941,6.);
#943=LINE('',#932,#942);
#944=EDGE_CURVE('',#933,#940,#943,.T.);
#945=ORIENTED_EDGE('',*,*,#944,.T.);
#946=DIRECTION('',(0.15643,-0.98769,0.));
#947=VECTOR('',#946,2.81582);
#948=LINE('',#911,#947);
#949=EDGE_CURVE('',#912,#940,#948,.T.);
#950=ORIENTED_EDGE('',*,*,#949,.F.);
#951=ORIENTED_EDGE('',*,*,#916,.F.);
#952=EDGE_LOOP('',(#938,#945,#950,#951));
#953=FACE_OUTER_BOUND('',#952,.T.);
#954=CARTESIAN_POINT('',(-9.,0.,26.));
#955=DIRECTION('',(-0.98769,-0.15643,0.));
#956=DIRECTION('',(0.15643,-0.98769,0.));
#957=AXIS2_PLACEMENT_3D('',#954,#955,#956);
#958=PLANE('',#957);
#959=ADVANCED_FACE('',(#953),#958,.T.);
#960=CARTESIAN_POINT('',(-7.28115,-5.29007,26.));
#961=VERTEX_POINT('',#960);
#962=DIRECTION('',(0.45399,-0.89101,0.));
#963=VECTOR('',#962,2.81582);
#964=LINE('',#932,#963);
#965=EDGE_CURVE('',#933,#961,#964,.T.);
#966=ORIENTED_EDGE('',*,*,#965,.T.);
#967=CARTESIAN_POINT('',(-7.28115,-5.29007,32.));
#968=VERTEX_POINT('',#967);
#969=DIRECTION('',(0.,0.,1.));
#970=VECTOR('',#969,6.);
#971=LINE('',#960,#970);
#972=EDGE_CURVE('',#961,#968,#971,.T.);
#973=ORIENTED_EDGE('',*,*,#972,.T.);
#974=DIRECTION('',(0.45399,-0.89101,0.));
#975=VECTOR('',#974,2.81582);
#976=LINE('',#939,#975);
#977=EDGE_CURVE('',#940,#968,#976,.T.);
#978=ORIENTED_EDGE('',*,*,#977,.F.);
#979=ORIENTED_EDGE('',*,*,#944,.F.);
#980=EDGE_LOOP('',(#966,#973,#978,#979));
#981=FACE_OUTER_BOUND('',#980,.T.);
#982=CARTESIAN_POINT('',(-8.55951,-2.78115,26.));
#983=DIRECTION('',(-0.89101,-0.45399,0.));
#984=DIRECTION('',(0.45399,-0.89101,0.));
#985=AXIS2_PLACEMENT_3D('',#982,#983,#984);
#986=PLANE('',#985);
#987=ADVANCED_FACE('',(#981),#986,.T.);
#988=CARTESIAN_POINT('',(-5.29007,-7.28115,26.));
#989=VERTEX_POINT('',#988);
#990=DIRECTION('',(0.70711,-0.70711,0.));
#991=VECTOR('',#990,2.81582);
#992=LINE('',#960,#991);
#993=EDGE_CURVE('',#961,#989,#992,.T.);
#994=ORIENTED_EDGE('',*,*,#993,.T.);
#995=CARTESIAN_POINT('',(-5.29007,-7.28115,32.));
#996=VERTEX_POINT('',#995);
#997=DIRECTION('',(0.,0.,1.));
#998=VECTOR('',#997,6.);
#999=LINE('',#988,#998);
#1000=EDGE_CURVE('',#989,#996,#999,.T.);
#1001=ORIENTED_EDGE('',*,*,#1000,.T.);
#1002=DIRECTION('',(0.70711,-0.70711,0.));
#1003=VECTOR('',#1002,2.81582);
#1004=LINE('',#967,#1003);
#1005=EDGE_CURVE('',#968,#996,#1004,.T.);
#1006=ORIENTED_EDGE('',*,*,#1005,.F.);
#1007=ORIENTED_EDGE('',*,*,#972,.F.);
#1008=EDGE_LOOP('',(#994,#1001,#1006,#1007));
#1009=FACE_OUTER_BOUND('',#1008,.T.);
#1010=CARTESIAN_POINT('',(-7.28115,-5.29007,26.));
#1011=DIRECTION('',(-0.70711,-0.70711,0.));
#1012=DIRECTION('',(0.70711,-0.70711,0.));
#1013=AXIS2_PLACEMENT_3D('',#1010,#1011,#1012);
#1014=PLANE('',#1013);
#1015=ADVANCED_FACE('',(#1009),#1014,.T.);
#1016=CARTESIAN_POINT('',(-2.78115,-8.55951,26.));
#1017=VERTEX_POINT('',#1016);
#1018=DIRECTION('',(0.89101,-0.45399,0.));
#1019=VECTOR('',#1018,2.81582);
#1020=LINE('',#988,#1019);
#1021=EDGE_CURVE('',#989,#1017,#1020,.T.);
#1022=ORIENTED_EDGE('',*,*,#1021,.T.);
#1023=CARTESIAN_POINT('',(-2.78115,-8.55951,32.));
#1024=VERTEX_POINT('',#1023);
#1025=DIRECTION('',(0.,0.,1.));
#1026=VECTOR('',#1025,6.);
#1027=LINE('',#1016,#1026);
#1028=EDGE_CURVE('',#1017,#1024,#1027,.T.);
#1029=ORIENTED_EDGE('',*,*,#1028,.T.);
#1030=DIRECTION('',(0.89101,-0.45399,0.));
#1031=VECTOR('',#1030,2.81582);
#1032=LINE('',#995,#1031);
#1033=EDGE_CURVE('',#996,#1024,#1032,.T.);
#1034=ORIENTED_EDGE('',*,*,#1033,.F.);
#1035=ORIENTED_EDGE('',*,*,#1000,.F.);
#1036=EDGE_LOOP('',(#1022,#1029,#1034,#1035));
#1037=FACE_OUTER_BOUND('',#1036,.T.);
#1038=CARTESIAN_POINT('',(-5.29007,-7.28115,26.));
#1039=DIRECTION('',(-0.45399,-0.89101,0.));
#1040=DIRECTION('',(0.89101,-0.45399,0.));
#1041=AXIS2_PLACEMENT_3D('',#1038,#1039,#1040);
#1042=PLANE('',#1041);
#1043=ADVANCED_FACE('',(#1037),#1042,.T.);
#1044=CARTESIAN_POINT('',(0.,-9.,26.));
#1045=VERTEX_POINT('',#1044);
#1046=DIRECTION('',(0.98769,-0.15643,0.));
#1047=VECTOR('',#1046,2.81582);
#1048=LINE('',#1016,#1047);
#1049=EDGE_CURVE('',#1017,#1045,#1048,.T.);
#1050=ORIENTED_EDGE('',*,*,#1049,.T.);
#1051=CARTESIAN_POINT('',(0.,-9.,32.));
#1052=VERTEX_POINT('',#1051);
#1053=DIRECTION('',(0.,0.,1.));
#1054=VECTOR('',#1053,6.);
#1055=LINE('',#1044,#1054);
#1056=EDGE_CURVE('',#1045,#1052,#1055,.T.);
#1057=ORIENTED_EDGE('',*,*,#1056,.T.);
#1058=DIRECTION('',(0.98769,-0.15643,0.));
#1059=VECTOR('',#1058,2.81582);
#1060=LINE('',#1023,#1059);
#1061=EDGE_CURVE('',#1024,#1052,#1060,.T.);
#1062=ORIENTED_EDGE('',*,*,#1061,.F.);
#1063=ORIENTED_EDGE('',*,*,#1028,.F.);
#1064=EDGE_LOOP('',(#1050,#1057,#1062,#1063));
#1065=FACE_OUTER_BOUND('',#1064,.T.);
#1066=CARTESIAN_POINT('',(-2.78115,-8.55951,26.));
#1067=DIRECTION('',(-0.15643,-0.98769,0.));
#1068=DIRECTION('',(0.98769,-0.15643,0.));
#1069=AXIS2_PLACEMENT_3D('',#1066,#1067,#1068);
#1070=PLANE('',#1069);
#1071=ADVANCED_FACE('',(#1065),#1070,.T.);
#1072=CARTESIAN_POINT('',(2.78115,-8.55951,26.));
#1073=VERTEX_POINT('',#1072);
#1074=DIRECTION('',(0.98769,0.15643,0.));
#1075=VECTOR('',#1074,2.81582);
#1076=LINE('',#1044,#1075);
#1077=EDGE_CURVE('',#1045,#1073,#1076,.T.);
#1078=ORIENTED_EDGE('',*,*,#1077,.T.);
#1079=CARTESIAN_POINT('',(2.78115,-8.55951,32.));
#1080=VERTEX_POINT('',#1079);
#1081=DIRECTION('',(0.,0.,1.));
#1082=VECTOR('',#1081,6.);
#1083=LINE('',#1072,#1082);
#1084=EDGE_CURVE('',#1073,#1080,#1083,.T.);
#1085=ORIENTED_EDGE('',*,*,#1084,.T.);
#1086=DIRECTION('',(0.98769,0.15643,0.));
#1087=VECTOR('',#1086,2.81582);
#1088=LINE('',#1051,#1087);
#1089=EDGE_CURVE('',#1052,#1080,#1088,.T.);
#1090=ORIENTED_EDGE('',*,*,#1089,.F.);
#1091=ORIENTED_EDGE('',*,*,#1056,.F.);
#1092=EDGE_LOOP('',(#1078,#1085,#1090,#1091));
#1093=FACE_OUTER_BOUND('',#1092,.T.);
#1094=CARTESIAN_POINT('',(0.,-9.,26.));
#1095=DIRECTION('',(0.15643,-0.98769,0.));
#1096=DIRECTION('',(0.98769,0.15643,0.));
#1097=AXIS2_PLACEMENT_3D('',#1094,#1095,#1096);
#1098=PLANE('',#1097);
#1099=ADVANCED_FACE('',(#1093),#1098,.T.);
#1100=CARTESIAN_POINT('',(5.29007,-7.28115,26.));
#1101=VERTEX_POINT('',#1100);
#1102=DIRECTION('',(0.89101,0.45399,0.));
#1103=VECTOR('',#1102,2.81582);
#1104=LINE('',#1072,#1103);
#1105=EDGE_CURVE('',#1073,#1101,#1104,.T.);
#1106=ORIENTED_EDGE('',*,*,#1105,.T.);
#1107=CARTESIAN_POINT('',(5.29007,-7.28115,32.));
#1108=VERTEX_POINT('',#1107);
#1109=DIRECTION('',(0.,0.,1.));
#1110=VECTOR('',#1109,6.);
#1111=LINE('',#1100,#1110);
#1112=EDGE_CURVE('',#1101,#1108,#1111,.T.);
#1113=ORIENTED_EDGE('',*,*,#1112,.T.);
#1114=DIRECTION('',(0.89101,0.45399,0.));
#1115=VECTOR('',#1114,2.81582);
#1116=LINE('',#1079,#1115);
#1117=EDGE_CURVE('',#1080,#1108,#1116,.T.);
#1118=ORIENTED_EDGE('',*,*,#1117,.F.);
#1119=ORIENTED_EDGE('',*,*,#1084,.F.);
#1120=EDGE_LOOP('',(#1106,#1113,#1118,#1119));
#1121=FACE_OUTER_BOUND('',#1120,.T.);
#1122=CARTESIAN_POINT('',(2.78115,-8.55951,26.));
#1123=DIRECTION('',(0.45399,-0.89101,0.));
#1124=DIRECTION('',(0.89101,0.45399,0.));
#1125=AXIS2_PLACEMENT_3D('',#1122,#1123,#1124);
#1126=PLANE('',#1125);
#1127=ADVANCED_FACE('',(#1121),#1126,.T.);
#1128=CARTESIAN_POINT('',(7.28115,-5.29007,26.));
#1129=VERTEX_POINT('',#1128);
#1130=DIRECTION('',(0.70711,0.70711,0.));
#1131=VECTOR('',#1130,2.81582);
#1132=LINE('',#1100,#1131);
#1133=EDGE_CURVE('',#1101,#1129,#1132,.T.);
#1134=ORIENTED_EDGE('',*,*,#1133,.T.);
#1135=CARTESIAN_POINT('',(7.28115,-5.29007,32.));
#1136=VERTEX_POINT('',#1135);
#1137=DIRECTION('',(0.,0.,1.));
#1138=VECTOR('',#1137,6.);
#1139=LINE('',#1128,#1138);
#1140=EDGE_CURVE('',#1129,#1136,#1139,.T.);
#1141=ORIENTED_EDGE('',*,*,#1140,.T.);
#1142=DIRECTION('',(0.70711,0.70711,0.));
#1143=VECTOR('',#1142,2.81582);
#1144=LINE('',#1107,#1143);
#1145=EDGE_CURVE('',#1108,#1136,#1144,.T.);
#1146=ORIENTED_EDGE('',*,*,#1145,.F.);
#1147=ORIENTED_EDGE('',*,*,#1112,.F.);
#1148=EDGE_LOOP('',(#1134,#1141,#1146,#1147));
#1149=FACE_OUTER_BOUND('',#1148,.T.);
#1150=CARTESIAN_POINT('',(5.29007,-7.28115,26.));
#1151=DIRECTION('',(0.70711,-0.70711,0.));
#1152=DIRECTION('',(0.70711,0.70711,0.));
#1153=AXIS2_PLACEMENT_3D('',#1150,#1151,#1152);
#1154=PLANE('',#1153);
#1155=ADVANCED_FACE('',(#1149),#1154,.T.);
#1156=CARTESIAN_POINT('',(8.55951,-2.78115,26.));
#1157=VERTEX_POINT('',#1156);
#1158=DIRECTION('',(0.45399,0.89101,0.));
#1159=VECTOR('',#1158,2.81582);
#1160=LINE('',#1128,#1159);
#1161=EDGE_CURVE('',#1129,#1157,#1160,.T.);
#1162=ORIENTED_EDGE('',*,*,#1161,.T.);
#1163=CARTESIAN_POINT('',(8.55951,-2.78115,32.));
#1164=VERTEX_POINT('',#1163);
#1165=DIRECTION('',(0.,0.,1.));
#1166=VECTOR('',#1165,6.);
#1167=LINE('',#1156,#1166);
#1168=EDGE_CURVE('',#1157,#1164,#1167,.T.);
#1169=ORIENTED_EDGE('',*,*,#1168,.T.);
#1170=DIRECTION('',(0.45399,0.89101,0.));
#1171=VECTOR('',#1170,2.81582);
#1172=LINE('',#1135,#1171);
#1173=EDGE_CURVE('',#1136,#1164,#1172,.T.);
#1174=ORIENTED_EDGE('',*,*,#1173,.F.);
#1175=ORIENTED_EDGE('',*,*,#1140,.F.);
#1176=EDGE_LOOP('',(#1162,#1169,#1174,#1175));
#1177=FACE_OUTER_BOUND('',#1176,.T.);
#1178=CARTESIAN_POINT('',(7.28115,-5.29007,26.));
#1179=DIRECTION('',(0.89101,-0.45399,0.));
#1180=DIRECTION('',(0.45399,0.89101,0.));
#1181=AXIS2_PLACEMENT_3D('',#1178,#1179,#1180);
#1182=PLANE('',#1181);
#1183=ADVANCED_FACE('',(#1177),#1182,.T.);
#1184=DIRECTION('',(-0.15643,-0.98769,0.));
#1185=VECTOR('',#1184,2.81582);
#1186=LINE('',#644,#1185);
#1187=EDGE_CURVE('',#645,#1157,#1186,.T.);
#1188=ORIENTED_EDGE('',*,*,#1187,.F.);
#1189=ORIENTED_EDGE('',*,*,#670,.T.);
#1190=DIRECTION('',(-0.15643,-0.98769,0.));
#1191=VECTOR('',#1190,2.81582);
#1192=LINE('',#660,#1191);
#1193=EDGE_CURVE('',#661,#1164,#1192,.T.);
#1194=ORIENTED_EDGE('',*,*,#1193,.T.);
#1195=ORIENTED_EDGE('',*,*,#1168,.F.);
#1196=EDGE_LOOP('',(#1188,#1189,#1194,#1195));
#1197=FACE_OUTER_BOUND('',#1196,.T.);
#1198=CARTESIAN_POINT('',(8.55951,-2.78115,26.));
#1199=DIRECTION('',(0.98769,-0.15643,0.));
#1200=DIRECTION('',(0.15643,0.98769,0.));
#1201=AXIS2_PLACEMENT_3D('',#1198,#1199,#1200);
#1202=PLANE('',#1201);
#1203=ADVANCED_FACE('',(#1197),#1202,.T.);
#1204=ORIENTED_EDGE('',*,*,#1161,.F.);
#1205=ORIENTED_EDGE('',*,*,#1133,.F.);
#1206=ORIENTED_EDGE('',*,*,#1105,.F.);
#1207=ORIENTED_EDGE('',*,*,#1077,.F.);
#1208=ORIENTED_EDGE('',*,*,#1049,.F.);
#1209=ORIENTED_EDGE('',*,*,#1021,.F.);
#1210=ORIENTED_EDGE('',*,*,#993,.F.);
#1211=ORIENTED_EDGE('',*,*,#965,.F.);
#1212=ORIENTED_EDGE('',*,*,#937,.F.);
#1213=ORIENTED_EDGE('',*,*,#909,.F.);
#1214=ORIENTED_EDGE('',*,*,#881,.F.);
#1215=ORIENTED_EDGE('',*,*,#853,.F.);
#1216=ORIENTED_EDGE('',*,*,#825,.F.);
#1217=ORIENTED_EDGE('',*,*,#797,.F.);
#1218=ORIENTED_EDGE('',*,*,#769,.F.);
#1219=ORIENTED_EDGE('',*,*,#741,.F.);
#1220=ORIENTED_EDGE('',*,*,#713,.F.);
#1221=ORIENTED_EDGE('',*,*,#685,.F.);
#1222=ORIENTED_EDGE('',*,*,#651,.F.);
#1223=ORIENTED_EDGE('',*,*,#1187,.T.);
#1224=EDGE_LOOP('',(#1204,#1205,#1206,#1207,#1208,#1209,#1210,#1211,#1212,#1213,#1214,#1215,#1216,#1217,#1218,#1219,#1220,#1221,#1222,#1223));
#1225=FACE_OUTER_BOUND('',#1224,.T.);
#1226=CARTESIAN_POINT('',(8.55951,-2.78115,26.));
#1227=DIRECTION('',(0.,0.,-1.));
#1228=DIRECTION('',(-0.45399,-0.89101,0.));
#1229=AXIS2_PLACEMENT_3D('',#1226,#1227,#1228);
#1230=PLANE('',#1229);
#1231=ADVANCED_FACE('',(#1225),#1230,.T.);
#1232=ORIENTED_EDGE('',*,*,#665,.T.);
#1233=ORIENTED_EDGE('',*,*,#697,.T.);
#1234=ORIENTED_EDGE('',*,*,#725,.T.);
#1235=ORIENTED_EDGE('',*,*,#753,.T.);
#1236=ORIENTED_EDGE('',*,*,#781,.T.);
#1237=ORIENTED_EDGE('',*,*,#809,.T.);
#1238=ORIENTED_EDGE('',*,*,#837,.T.);
#1239=ORIENTED_EDGE('',*,*,#865,.T.);
#1240=ORIENTED_EDGE('',*,*,#893,.T.);
#1241=ORIENTED_EDGE('',*,*,#921,.T.);
#1242=ORIENTED_EDGE('',*,*,#949,.T.);
#1243=ORIENTED_EDGE('',*,*,#977,.T.);
#1244=ORIENTED_EDGE('',*,*,#1005,.T.);
#1245=ORIENTED_EDGE('',*,*,#1033,.T.);
#1246=ORIENTED_EDGE('',*,*,#1061,.T.);
#1247=ORIENTED_EDGE('',*,*,#1089,.T.);
#1248=ORIENTED_EDGE('',*,*,#1117,.T.);
#1249=ORIENTED_EDGE('',*,*,#1145,.T.);
#1250=ORIENTED_EDGE('',*,*,#1173,.T.);
#1251=ORIENTED_EDGE('',*,*,#1193,.F.);
#1252=EDGE_LOOP('',(#1232,#1233,#1234,#1235,#1236,#1237,#1238,#1239,#1240,#1241,#1242,#1243,#1244,#1245,#1246,#1247,#1248,#1249,#1250,#1251));
#1253=FACE_OUTER_BOUND('',#1252,.T.);
#1254=CARTESIAN_POINT('',(9.,0.,32.));
#1255=DIRECTION('',(0.,0.,1.));
#1256=DIRECTION('',(-0.15643,0.98769,0.));
#1257=AXIS2_PLACEMENT_3D('',#1254,#1255,#1256);
#1258=PLANE('',#1257);
#1259=ADVANCED_FACE('',(#1253),#1258,.T.);
#1260=CLOSED_SHELL('',(#679,#707,#735,#763,#791,#819,#847,#875,#903,#931,#959,#987,#1015,#1043,#1071,#1099,#1127,#1155,#1183,#1203,#1231,#1259));
#1261=MANIFOLD_SOLID_BREP('',#1260);
#1262=STYLED_ITEM('color',(#642),#1261);
#1263=CARTESIAN_POINT('',(-24.,-4.5,38.));
#1264=VERTEX_POINT('',#1263);
#1265=CARTESIAN_POINT('',(-24.,-4.05436,36.04752));
#1266=VERTEX_POINT('',#1265);
#1267=DIRECTION('',(0.,0.22252,-0.97493));
#1268=VECTOR('',#1267,2.00269);
#1269=LINE('',#1263,#1268);
#1270=EDGE_CURVE('',#1264,#1266,#1269,.T.);
#1271=ORIENTED_EDGE('',*,*,#1270,.T.);
#1272=CARTESIAN_POINT('',(24.,-4.05436,36.04752));
#1273=VERTEX_POINT('',#1272);
#1274=DIRECTION('',(1.,0.,0.));
#1275=VECTOR('',#1274,48.);
#1276=LINE('',#1265,#1275);
#1277=EDGE_CURVE('',#1266,#1273,#1276,.T.);
#1278=ORIENTED_EDGE('',*,*,#1277,.T.);
#1279=CARTESIAN_POINT('',(24.,-4.5,38.));
#1280=VERTEX_POINT('',#1279);
#1281=DIRECTION('',(0.,0.22252,-0.97493));
#1282=VECTOR('',#1281,2.00269);
#1283=LINE('',#1279,#1282);
#1284=EDGE_CURVE('',#1280,#1273,#1283,.T.);
#1285=ORIENTED_EDGE('',*,*,#1284,.F.);
#1286=DIRECTION('',(1.,0.,0.));
#1287=VECTOR('',#1286,48.);
#1288=LINE('',#1263,#1287);
#1289=EDGE_CURVE('',#1264,#1280,#1288,.T.);
#1290=ORIENTED_EDGE('',*,*,#1289,.F.);
#1291=EDGE_LOOP('',(#1271,#1278,#1285,#1290));
#1292=FACE_OUTER_BOUND('',#1291,.T.);
#1293=CARTESIAN_POINT('',(-24.,-4.5,38.));
#1294=DIRECTION('',(0.,-0.97493,-0.22252));
#1295=DIRECTION('',(0.,0.22252,-0.97493));
#1296=AXIS2_PLACEMENT_3D('',#1293,#1294,#1295);
#1297=PLANE('',#1296);
#1298=ADVANCED_FACE('',(#1292),#1297,.T.);
#1299=CARTESIAN_POINT('',(-24.,-2.8057,34.48176));
#1300=VERTEX_POINT('',#1299);
#1301=DIRECTION('',(0.,0.62349,-0.78183));
#1302=VECTOR('',#1301,2.00269);
#1303=LINE('',#1265,#1302);
#1304=EDGE_CURVE('',#1266,#1300,#1303,.T.);
#1305=ORIENTED_EDGE('',*,*,#1304,.T.);
#1306=CARTESIAN_POINT('',(24.,-2.8057,34.48176));
#1307=VERTEX_POINT('',#1306);
#1308=DIRECTION('',(1.,0.,0.));
#1309=VECTOR('',#1308,48.);
#1310=LINE('',#1299,#1309);
#1311=EDGE_CURVE('',#1300,#1307,#1310,.T.);
#1312=ORIENTED_EDGE('',*,*,#1311,.T.);
#1313=DIRECTION('',(0.,0.62349,-0.78183));
#1314=VECTOR('',#1313,2.00269);
#1315=LINE('',#1272,#1314);
#1316=EDGE_CURVE('',#1273,#1307,#1315,.T.);
#1317=ORIENTED_EDGE('',*,*,#1316,.F.);
#1318=ORIENTED_EDGE('',*,*,#1277,.F.);
#1319=EDGE_LOOP('',(#1305,#1312,#1317,#1318));
#1320=FACE_OUTER_BOUND('',#1319,.T.);
#1321=CARTESIAN_POINT('',(-24.,-4.05436,36.04752));
#1322=DIRECTION('',(0.,-0.78183,-0.62349));
#1323=DIRECTION('',(0.,0.62349,-0.78183));
#1324=AXIS2_PLACEMENT_3D('',#1321,#1322,#1323);
#1325=PLANE('',#1324);
#1326=ADVANCED_FACE('',(#1320),#1325,.T.);
#1327=CARTESIAN_POINT('',(-24.,-1.00134,33.61282));
#1328=VERTEX_POINT('',#1327);
#1329=DIRECTION('',(0.,0.90097,-0.43388));
#1330=VECTOR('',#1329,2.00269);
#1331=LINE('',#1299,#1330);
#1332=EDGE_CURVE('',#1300,#1328,#1331,.T.);
#1333=ORIENTED_EDGE('',*,*,#1332,.T.);
#1334=CARTESIAN_POINT('',(24.,-1.00134,33.61282));
#1335=VERTEX_POINT('',#1334);
#1336=DIRECTION('',(1.,0.,0.));
#1337=VECTOR('',#1336,48.);
#1338=LINE('',#1327,#1337);
#1339=EDGE_CURVE('',#1328,#1335,#1338,.T.);
#1340=ORIENTED_EDGE('',*,*,#1339,.T.);
#1341=DIRECTION('',(0.,0.90097,-0.43388));
#1342=VECTOR('',#1341,2.00269);
#1343=LINE('',#1306,#1342);
#1344=EDGE_CURVE('',#1307,#1335,#1343,.T.);
#1345=ORIENTED_EDGE('',*,*,#1344,.F.);
#1346=ORIENTED_EDGE('',*,*,#1311,.F.);
#1347=EDGE_LOOP('',(#1333,#1340,#1345,#1346));
#1348=FACE_OUTER_BOUND('',#1347,.T.);
#1349=CARTESIAN_POINT('',(-24.,-2.8057,34.48176));
#1350=DIRECTION('',(0.,-0.43388,-0.90097));
#1351=DIRECTION('',(0.,0.90097,-0.43388));
#1352=AXIS2_PLACEMENT_3D('',#1349,#1350,#1351);
#1353=PLANE('',#1352);
#1354=ADVANCED_FACE('',(#1348),#1353,.T.);
#1355=CARTESIAN_POINT('',(-24.,1.00134,33.61282));
#1356=VERTEX_POINT('',#1355);
#1357=DIRECTION('',(0.,1.,0.));
#1358=VECTOR('',#1357,2.00269);
#1359=LINE('',#1327,#1358);
#1360=EDGE_CURVE('',#1328,#1356,#1359,.T.);
#1361=ORIENTED_EDGE('',*,*,#1360,.T.);
#1362=CARTESIAN_POINT('',(24.,1.00134,33.61282));
#1363=VERTEX_POINT('',#1362);
#1364=DIRECTION('',(1.,0.,0.));
#1365=VECTOR('',#1364,48.);
#1366=LINE('',#1355,#1365);
#1367=EDGE_CURVE('',#1356,#1363,#1366,.T.);
#1368=ORIENTED_EDGE('',*,*,#1367,.T.);
#1369=DIRECTION('',(0.,1.,0.));
#1370=VECTOR('',#1369,2.00269);
#1371=LINE('',#1334,#1370);
#1372=EDGE_CURVE('',#1335,#1363,#1371,.T.);
#1373=ORIENTED_EDGE('',*,*,#1372,.F.);
#1374=ORIENTED_EDGE('',*,*,#1339,.F.);
#1375=EDGE_LOOP('',(#1361,#1368,#1373,#1374));
#1376=FACE_OUTER_BOUND('',#1375,.T.);
#1377=CARTESIAN_POINT('',(-24.,-1.00134,33.61282));
#1378=DIRECTION('',(0.,0.,-1.));
#1379=DIRECTION('',(0.,1.,0.));
#1380=AXIS2_PLACEMENT_3D('',#1377,#1378,#1379);
#1381=PLANE('',#1380);
#1382=ADVANCED_FACE('',(#1376),#1381,.T.);
#1383=CARTESIAN_POINT('',(-24.,2.8057,34.48176));
#1384=VERTEX_POINT('',#1383);
#1385=DIRECTION('',(0.,0.90097,0.43388));
#1386=VECTOR('',#1385,2.00269);
#1387=LINE('',#1355,#1386);
#1388=EDGE_CURVE('',#1356,#1384,#1387,.T.);
#1389=ORIENTED_EDGE('',*,*,#1388,.T.);
#1390=CARTESIAN_POINT('',(24.,2.8057,34.48176));
#1391=VERTEX_POINT('',#1390);
#1392=DIRECTION('',(1.,0.,0.));
#1393=VECTOR('',#1392,48.);
#1394=LINE('',#1383,#1393);
#1395=EDGE_CURVE('',#1384,#1391,#1394,.T.);
#1396=ORIENTED_EDGE('',*,*,#1395,.T.);
#1397=DIRECTION('',(0.,0.90097,0.43388));
#1398=VECTOR('',#1397,2.00269);
#1399=LINE('',#1362,#1398);
#1400=EDGE_CURVE('',#1363,#1391,#1399,.T.);
#1401=ORIENTED_EDGE('',*,*,#1400,.F.);
#1402=ORIENTED_EDGE('',*,*,#1367,.F.);
#1403=EDGE_LOOP('',(#1389,#1396,#1401,#1402));
#1404=FACE_OUTER_BOUND('',#1403,.T.);
#1405=CARTESIAN_POINT('',(-24.,1.00134,33.61282));
#1406=DIRECTION('',(0.,0.43388,-0.90097));
#1407=DIRECTION('',(0.,0.90097,0.43388));
#1408=AXIS2_PLACEMENT_3D('',#1405,#1406,#1407);
#1409=PLANE('',#1408);
#1410=ADVANCED_FACE('',(#1404),#1409,.T.);
#1411=CARTESIAN_POINT('',(-24.,4.05436,36.04752));
#1412=VERTEX_POINT('',#1411);
#1413=DIRECTION('',(0.,0.62349,0.78183));
#1414=VECTOR('',#1413,2.00269);
#1415=LINE('',#1383,#1414);
#1416=EDGE_CURVE('',#1384,#1412,#1415,.T.);
#1417=ORIENTED_EDGE('',*,*,#1416,.T.);
#1418=CARTESIAN_POINT('',(24.,4.05436,36.04752));
#1419=VERTEX_POINT('',#1418);
#1420=DIRECTION('',(1.,0.,0.));
#1421=VECTOR('',#1420,48.);
#1422=LINE('',#1411,#1421);
#1423=EDGE_CURVE('',#1412,#1419,#1422,.T.);
#1424=ORIENTED_EDGE('',*,*,#1423,.T.);
#1425=DIRECTION('',(0.,0.62349,0.78183));
#1426=VECTOR('',#1425,2.00269);
#1427=LINE('',#1390,#1426);
#1428=EDGE_CURVE('',#1391,#1419,#1427,.T.);
#1429=ORIENTED_EDGE('',*,*,#1428,.F.);
#1430=ORIENTED_EDGE('',*,*,#1395,.F.);
#1431=EDGE_LOOP('',(#1417,#1424,#1429,#1430));
#1432=FACE_OUTER_BOUND('',#1431,.T.);
#1433=CARTESIAN_POINT('',(-24.,2.8057,34.48176));
#1434=DIRECTION('',(0.,0.78183,-0.62349));
#1435=DIRECTION('',(0.,0.62349,0.78183));
#1436=AXIS2_PLACEMENT_3D('',#1433,#1434,#1435);
#1437=PLANE('',#1436);
#1438=ADVANCED_FACE('',(#1432),#1437,.T.);
#1439=CARTESIAN_POINT('',(-24.,4.5,38.));
#1440=VERTEX_POINT('',#1439);
#1441=DIRECTION('',(0.,0.22252,0.97493));
#1442=VECTOR('',#1441,2.00269);
#1443=LINE('',#1411,#1442);
#1444=EDGE_CURVE('',#1412,#1440,#1443,.T.);
#1445=ORIENTED_EDGE('',*,*,#1444,.T.);
#1446=CARTESIAN_POINT('',(24.,4.5,38.));
#1447=VERTEX_POINT('',#1446);
#1448=DIRECTION('',(1.,0.,0.));
#1449=VECTOR('',#1448,48.);
#1450=LINE('',#1439,#1449);
#1451=EDGE_CURVE('',#1440,#1447,#1450,.T.);
#1452=ORIENTED_EDGE('',*,*,#1451,.T.);
#1453=DIRECTION('',(0.,0.22252,0.97493));
#1454=VECTOR('',#1453,2.00269);
#1455=LINE('',#1418,#1454);
#1456=EDGE_CURVE('',#1419,#1447,#1455,.T.);
#1457=ORIENTED_EDGE('',*,*,#1456,.F.);
#1458=ORIENTED_EDGE('',*,*,#1423,.F.);
#1459=EDGE_LOOP('',(#1445,#1452,#1457,#1458));
#1460=FACE_OUTER_BOUND('',#1459,.T.);
#1461=CARTESIAN_POINT('',(-24.,4.05436,36.04752));
#1462=DIRECTION('',(0.,0.97493,-0.22252));
#1463=DIRECTION('',(0.,0.22252,0.97493));
#1464=AXIS2_PLACEMENT_3D('',#1461,#1462,#1463);
#1465=PLANE('',#1464);
#1466=ADVANCED_FACE('',(#1460),#1465,.T.);
#1467=CARTESIAN_POINT('',(-24.,4.05436,39.95248));
#1468=VERTEX_POINT('',#1467);
#1469=DIRECTION('',(0.,-0.22252,0.97493));
#1470=VECTOR('',#1469,2.00269);
#1471=LINE('',#1439,#1470);
#1472=EDGE_CURVE('',#1440,#1468,#1471,.T.);
#1473=ORIENTED_EDGE('',*,*,#1472,.T.);
#1474=CARTESIAN_POINT('',(24.,4.05436,39.95248));
#1475=VERTEX_POINT('',#1474);
#1476=DIRECTION('',(1.,0.,0.));
#1477=VECTOR('',#1476,48.);
#1478=LINE('',#1467,#1477);
#1479=EDGE_CURVE('',#1468,#1475,#1478,.T.);
#1480=ORIENTED_EDGE('',*,*,#1479,.T.);
#1481=DIRECTION('',(0.,-0.22252,0.97493));
#1482=VECTOR('',#1481,2.00269);
#1483=LINE('',#1446,#1482);
#1484=EDGE_CURVE('',#1447,#1475,#1483,.T.);
#1485=ORIENTED_EDGE('',*,*,#1484,.F.);
#1486=ORIENTED_EDGE('',*,*,#1451,.F.);
#1487=EDGE_LOOP('',(#1473,#1480,#1485,#1486));
#1488=FACE_OUTER_BOUND('',#1487,.T.);
#1489=CARTESIAN_POINT('',(-24.,4.5,38.));
#1490=DIRECTION('',(0.,0.97493,0.22252));
#1491=DIRECTION('',(0.,-0.22252,0.97493));
#1492=AXIS2_PLACEMENT_3D('',#1489,#1490,#1491);
#1493=PLANE('',#1492);
#1494=ADVANCED_FACE('',(#1488),#1493,.T.);
#1495=CARTESIAN_POINT('',(-24.,2.8057,41.51824));
#1496=VERTEX_POINT('',#1495);
#1497=DIRECTION('',(0.,-0.62349,0.78183));
#1498=VECTOR('',#1497,2.00269);
#1499=LINE('',#1467,#1498);
#1500=EDGE_CURVE('',#1468,#1496,#1499,.T.);
#1501=ORIENTED_EDGE('',*,*,#1500,.T.);
#1502=CARTESIAN_POINT('',(24.,2.8057,41.51824));
#1503=VERTEX_POINT('',#1502);
#1504=DIRECTION('',(1.,0.,0.));
#1505=VECTOR('',#1504,48.);
#1506=LINE('',#1495,#1505);
#1507=EDGE_CURVE('',#1496,#1503,#1506,.T.);
#1508=ORIENTED_EDGE('',*,*,#1507,.T.);
#1509=DIRECTION('',(0.,-0.62349,0.78183));
#1510=VECTOR('',#1509,2.00269);
#1511=LINE('',#1474,#1510);
#1512=EDGE_CURVE('',#1475,#1503,#1511,.T.);
#1513=ORIENTED_EDGE('',*,*,#1512,.F.);
#1514=ORIENTED_EDGE('',*,*,#1479,.F.);
#1515=EDGE_LOOP('',(#1501,#1508,#1513,#1514));
#1516=FACE_OUTER_BOUND('',#1515,.T.);
#1517=CARTESIAN_POINT('',(-24.,4.05436,39.95248));
#1518=DIRECTION('',(0.,0.78183,0.62349));
#1519=DIRECTION('',(0.,-0.62349,0.78183));
#1520=AXIS2_PLACEMENT_3D('',#1517,#1518,#1519);
#1521=PLANE('',#1520);
#1522=ADVANCED_FACE('',(#1516),#1521,.T.);
#1523=CARTESIAN_POINT('',(-24.,1.00134,42.38718));
#1524=VERTEX_POINT('',#1523);
#1525=DIRECTION('',(0.,-0.90097,0.43388));
#1526=VECTOR('',#1525,2.00269);
#1527=LINE('',#1495,#1526);
#1528=EDGE_CURVE('',#1496,#1524,#1527,.T.);
#1529=ORIENTED_EDGE('',*,*,#1528,.T.);
#1530=CARTESIAN_POINT('',(24.,1.00134,42.38718));
#1531=VERTEX_POINT('',#1530);
#1532=DIRECTION('',(1.,0.,0.));
#1533=VECTOR('',#1532,48.);
#1534=LINE('',#1523,#1533);
#1535=EDGE_CURVE('',#1524,#1531,#1534,.T.);
#1536=ORIENTED_EDGE('',*,*,#1535,.T.);
#1537=DIRECTION('',(0.,-0.90097,0.43388));
#1538=VECTOR('',#1537,2.00269);
#1539=LINE('',#1502,#1538);
#1540=EDGE_CURVE('',#1503,#1531,#1539,.T.);
#1541=ORIENTED_EDGE('',*,*,#1540,.F.);
#1542=ORIENTED_EDGE('',*,*,#1507,.F.);
#1543=EDGE_LOOP('',(#1529,#1536,#1541,#1542));
#1544=FACE_OUTER_BOUND('',#1543,.T.);
#1545=CARTESIAN_POINT('',(-24.,2.8057,41.51824));
#1546=DIRECTION('',(0.,0.43388,0.90097));
#1547=DIRECTION('',(0.,-0.90097,0.43388));
#1548=AXIS2_PLACEMENT_3D('',#1545,#1546,#1547);
#1549=PLANE('',#1548);
#1550=ADVANCED_FACE('',(#1544),#1549,.T.);
#1551=CARTESIAN_POINT('',(-24.,-1.00134,42.38718));
#1552=VERTEX_POINT('',#1551);
#1553=DIRECTION('',(0.,-1.,0.));
#1554=VECTOR('',#1553,2.00269);
#1555=LINE('',#1523,#1554);
#1556=EDGE_CURVE('',#1524,#1552,#1555,.T.);
#1557=ORIENTED_EDGE('',*,*,#1556,.T.);
#1558=CARTESIAN_POINT('',(24.,-1.00134,42.38718));
#1559=VERTEX_POINT('',#1558);
#1560=DIRECTION('',(1.,0.,0.));
#1561=VECTOR('',#1560,48.);
#1562=LINE('',#1551,#1561);
#1563=EDGE_CURVE('',#1552,#1559,#1562,.T.);
#1564=ORIENTED_EDGE('',*,*,#1563,.T.);
#1565=DIRECTION('',(0.,-1.,0.));
#1566=VECTOR('',#1565,2.00269);
#1567=LINE('',#1530,#1566);
#1568=EDGE_CURVE('',#1531,#1559,#1567,.T.);
#1569=ORIENTED_EDGE('',*,*,#1568,.F.);
#1570=ORIENTED_EDGE('',*,*,#1535,.F.);
#1571=EDGE_LOOP('',(#1557,#1564,#1569,#1570));
#1572=FACE_OUTER_BOUND('',#1571,.T.);
#1573=CARTESIAN_POINT('',(-24.,1.00134,42.38718));
#1574=DIRECTION('',(0.,0.,1.));
#1575=DIRECTION('',(0.,-1.,0.));
#1576=AXIS2_PLACEMENT_3D('',#1573,#1574,#1575);
#1577=PLANE('',#1576);
#1578=ADVANCED_FACE('',(#1572),#1577,.T.);
#1579=CARTESIAN_POINT('',(-24.,-2.8057,41.51824));
#1580=VERTEX_POINT('',#1579);
#1581=DIRECTION('',(0.,-0.90097,-0.43388));
#1582=VECTOR('',#1581,2.00269);
#1583=LINE('',#1551,#1582);
#1584=EDGE_CURVE('',#1552,#1580,#1583,.T.);
#1585=ORIENTED_EDGE('',*,*,#1584,.T.);
#1586=CARTESIAN_POINT('',(24.,-2.8057,41.51824));
#1587=VERTEX_POINT('',#1586);
#1588=DIRECTION('',(1.,0.,0.));
#1589=VECTOR('',#1588,48.);
#1590=LINE('',#1579,#1589);
#1591=EDGE_CURVE('',#1580,#1587,#1590,.T.);
#1592=ORIENTED_EDGE('',*,*,#1591,.T.);
#1593=DIRECTION('',(0.,-0.90097,-0.43388));
#1594=VECTOR('',#1593,2.00269);
#1595=LINE('',#1558,#1594);
#1596=EDGE_CURVE('',#1559,#1587,#1595,.T.);
#1597=ORIENTED_EDGE('',*,*,#1596,.F.);
#1598=ORIENTED_EDGE('',*,*,#1563,.F.);
#1599=EDGE_LOOP('',(#1585,#1592,#1597,#1598));
#1600=FACE_OUTER_BOUND('',#1599,.T.);
#1601=CARTESIAN_POINT('',(-24.,-1.00134,42.38718));
#1602=DIRECTION('',(0.,-0.43388,0.90097));
#1603=DIRECTION('',(0.,-0.90097,-0.43388));
#1604=AXIS2_PLACEMENT_3D('',#1601,#1602,#1603);
#1605=PLANE('',#1604);
#1606=ADVANCED_FACE('',(#1600),#1605,.T.);
#1607=CARTESIAN_POINT('',(-24.,-4.05436,39.95248));
#1608=VERTEX_POINT('',#1607);
#1609=DIRECTION('',(0.,-0.62349,-0.78183));
#1610=VECTOR('',#1609,2.00269);
#1611=LINE('',#1579,#1610);
#1612=EDGE_CURVE('',#1580,#1608,#1611,.T.);
#1613=ORIENTED_EDGE('',*,*,#1612,.T.);
#1614=CARTESIAN_POINT('',(24.,-4.05436,39.95248));
#1615=VERTEX_POINT('',#1614);
#1616=DIRECTION('',(1.,0.,0.));
#1617=VECTOR('',#1616,48.);
#1618=LINE('',#1607,#1617);
#1619=EDGE_CURVE('',#1608,#1615,#1618,.T.);
#1620=ORIENTED_EDGE('',*,*,#1619,.T.);
#1621=DIRECTION('',(0.,-0.62349,-0.78183));
#1622=VECTOR('',#1621,2.00269);
#1623=LINE('',#1586,#1622);
#1624=EDGE_CURVE('',#1587,#1615,#1623,.T.);
#1625=ORIENTED_EDGE('',*,*,#1624,.F.);
#1626=ORIENTED_EDGE('',*,*,#1591,.F.);
#1627=EDGE_LOOP('',(#1613,#1620,#1625,#1626));
#1628=FACE_OUTER_BOUND('',#1627,.T.);
#1629=CARTESIAN_POINT('',(-24.,-2.8057,41.51824));
#1630=DIRECTION('',(0.,-0.78183,0.62349));
#1631=DIRECTION('',(0.,-0.62349,-0.78183));
#1632=AXIS2_PLACEMENT_3D('',#1629,#1630,#1631);
#1633=PLANE('',#1632);
#1634=ADVANCED_FACE('',(#1628),#1633,.T.);
#1635=DIRECTION('',(0.,0.22252,0.97493));
#1636=VECTOR('',#1635,2.00269);
#1637=LINE('',#1263,#1636);
#1638=EDGE_CURVE('',#1264,#1608,#1637,.T.);
#1639=ORIENTED_EDGE('',*,*,#1638,.F.);
#1640=ORIENTED_EDGE('',*,*,#1289,.T.);
#1641=DIRECTION('',(0.,0.22252,0.97493));
#1642=VECTOR('',#1641,2.00269);
#1643=LINE('',#1279,#1642);
#1644=EDGE_CURVE('',#1280,#1615,#1643,.T.);
#1645=ORIENTED_EDGE('',*,*,#1644,.T.);
#1646=ORIENTED_EDGE('',*,*,#1619,.F.);
#1647=EDGE_LOOP('',(#1639,#1640,#1645,#1646));
#1648=FACE_OUTER_BOUND('',#1647,.T.);
#1649=CARTESIAN_POINT('',(-24.,-4.05436,39.95248));
#1650=DIRECTION('',(0.,-0.97493,0.22252));
#1651=DIRECTION('',(0.,-0.22252,-0.97493));
#1652=AXIS2_PLACEMENT_3D('',#1649,#1650,#1651);
#1653=PLANE('',#1652);
#1654=ADVANCED_FACE('',(#1648),#1653,.T.);
#1655=ORIENTED_EDGE('',*,*,#1612,.F.);
#1656=ORIENTED_EDGE('',*,*,#1584,.F.);
#1657=ORIENTED_EDGE('',*,*,#1556,.F.);
#1658=ORIENTED_EDGE('',*,*,#1528,.F.);
#1659=ORIENTED_EDGE('',*,*,#1500,.F.);
#1660=ORIENTED_EDGE('',*,*,#1472,.F.);
#1661=ORIENTED_EDGE('',*,*,#1444,.F.);
#1662=ORIENTED_EDGE('',*,*,#1416,.F.);
#1663=ORIENTED_EDGE('',*,*,#1388,.F.);
#1664=ORIENTED_EDGE('',*,*,#1360,.F.);
#1665=ORIENTED_EDGE('',*,*,#1332,.F.);
#1666=ORIENTED_EDGE('',*,*,#1304,.F.);
#1667=ORIENTED_EDGE('',*,*,#1270,.F.);
#1668=ORIENTED_EDGE('',*,*,#1638,.T.);
#1669=EDGE_LOOP('',(#1655,#1656,#1657,#1658,#1659,#1660,#1661,#1662,#1663,#1664,#1665,#1666,#1667,#1668));
#1670=FACE_OUTER_BOUND('',#1669,.T.);
#1671=CARTESIAN_POINT('',(-24.,-4.05436,39.95248));
#1672=DIRECTION('',(-1.,0.,0.));
#1673=DIRECTION('',(0.,0.62349,0.78183));
#1674=AXIS2_PLACEMENT_3D('',#1671,#1672,#1673);
#1675=PLANE('',#1674);
#1676=ADVANCED_FACE('',(#1670),#1675,.T.);
#1677=ORIENTED_EDGE('',*,*,#1284,.T.);
#1678=ORIENTED_EDGE('',*,*,#1316,.T.);
#1679=ORIENTED_EDGE('',*,*,#1344,.T.);
#1680=ORIENTED_EDGE('',*,*,#1372,.T.);
#1681=ORIENTED_EDGE('',*,*,#1400,.T.);
#1682=ORIENTED_EDGE('',*,*,#1428,.T.);
#1683=ORIENTED_EDGE('',*,*,#1456,.T.);
#1684=ORIENTED_EDGE('',*,*,#1484,.T.);
#1685=ORIENTED_EDGE('',*,*,#1512,.T.);
#1686=ORIENTED_EDGE('',*,*,#1540,.T.);
#1687=ORIENTED_EDGE('',*,*,#1568,.T.);
#1688=ORIENTED_EDGE('',*,*,#1596,.T.);
#1689=ORIENTED_EDGE('',*,*,#1624,.T.);
#1690=ORIENTED_EDGE('',*,*,#1644,.F.);
#1691=EDGE_LOOP('',(#1677,#1678,#1679,#1680,#1681,#1682,#1683,#1684,#1685,#1686,#1687,#1688,#1689,#1690));
#1692=FACE_OUTER_BOUND('',#1691,.T.);
#1693=CARTESIAN_POINT('',(24.,-4.5,38.));
#1694=DIRECTION('',(1.,0.,0.));
#1695=DIRECTION('',(0.,0.22252,-0.97493));
#1696=AXIS2_PLACEMENT_3D('',#1693,#1694,#1695);
#1697=PLANE('',#1696);
#1698=ADVANCED_FACE('',(#1692),#1697,.T.);
#1699=CLOSED_SHELL('',(#1298,#1326,#1354,#1382,#1410,#1438,#1466,#1494,#1522,#1550,#1578,#1606,#1634,#1654,#1676,#1698));
#1700=MANIFOLD_SOLID_BREP('',#1699);
#1701=STYLED_ITEM('color',(#642),#1700);
#1702=CARTESIAN_POINT('',(4.5,0.,30.));
#1703=VERTEX_POINT('',#1702);
#1704=CARTESIAN_POINT('',(4.05436,1.95248,30.));
#1705=VERTEX_POINT('',#1704);
#1706=DIRECTION('',(-0.22252,0.97493,0.));
#1707=VECTOR('',#1706,2.00269);
#1708=LINE('',#1702,#1707);
#1709=EDGE_CURVE('',#1703,#1705,#1708,.T.);
#1710=ORIENTED_EDGE('',*,*,#1709,.T.);
#1711=CARTESIAN_POINT('',(4.05436,1.95248,38.));
#1712=VERTEX_POINT('',#1711);
#1713=DIRECTION('',(0.,0.,1.));
#1714=VECTOR('',#1713,8.);
#1715=LINE('',#1704,#1714);
#1716=EDGE_CURVE('',#1705,#1712,#1715,.T.);
#1717=ORIENTED_EDGE('',*,*,#1716,.T.);
#1718=CARTESIAN_POINT('',(4.5,0.,38.));
#1719=VERTEX_POINT('',#1718);
#1720=DIRECTION('',(-0.22252,0.97493,0.));
#1721=VECTOR('',#1720,2.00269);
#1722=LINE('',#1718,#1721);
#1723=EDGE_CURVE('',#1719,#1712,#1722,.T.);
#1724=ORIENTED_EDGE('',*,*,#1723,.F.);
#1725=DIRECTION('',(0.,0.,1.));
#1726=VECTOR('',#1725,8.);
#1727=LINE('',#1702,#1726);
#1728=EDGE_CURVE('',#1703,#1719,#1727,.T.);
#1729=ORIENTED_EDGE('',*,*,#1728,.F.);
#1730=EDGE_LOOP('',(#1710,#1717,#1724,#1729));
#1731=FACE_OUTER_BOUND('',#1730,.T.);
#1732=CARTESIAN_POINT('',(4.5,0.,30.));
#1733=DIRECTION('',(0.97493,0.22252,0.));
#1734=DIRECTION('',(-0.22252,0.97493,0.));
#1735=AXIS2_PLACEMENT_3D('',#1732,#1733,#1734);
#1736=PLANE('',#1735);
#1737=ADVANCED_FACE('',(#1731),#1736,.T.);
#1738=CARTESIAN_POINT('',(2.8057,3.51824,30.));
#1739=VERTEX_POINT('',#1738);
#1740=DIRECTION('',(-0.62349,0.78183,0.));
#1741=VECTOR('',#1740,2.00269);
#1742=LINE('',#1704,#1741);
#1743=EDGE_CURVE('',#1705,#1739,#1742,.T.);
#1744=ORIENTED_EDGE('',*,*,#1743,.T.);
#1745=CARTESIAN_POINT('',(2.8057,3.51824,38.));
#1746=VERTEX_POINT('',#1745);
#1747=DIRECTION('',(0.,0.,1.));
#1748=VECTOR('',#1747,8.);
#1749=LINE('',#1738,#1748);
#1750=EDGE_CURVE('',#1739,#1746,#1749,.T.);
#1751=ORIENTED_EDGE('',*,*,#1750,.T.);
#1752=DIRECTION('',(-0.62349,0.78183,0.));
#1753=VECTOR('',#1752,2.00269);
#1754=LINE('',#1711,#1753);
#1755=EDGE_CURVE('',#1712,#1746,#1754,.T.);
#1756=ORIENTED_EDGE('',*,*,#1755,.F.);
#1757=ORIENTED_EDGE('',*,*,#1716,.F.);
#1758=EDGE_LOOP('',(#1744,#1751,#1756,#1757));
#1759=FACE_OUTER_BOUND('',#1758,.T.);
#1760=CARTESIAN_POINT('',(4.05436,1.95248,30.));
#1761=DIRECTION('',(0.78183,0.62349,0.));
#1762=DIRECTION('',(-0.62349,0.78183,0.));
#1763=AXIS2_PLACEMENT_3D('',#1760,#1761,#1762);
#1764=PLANE('',#1763);
#1765=ADVANCED_FACE('',(#1759),#1764,.T.);
#1766=CARTESIAN_POINT('',(1.00134,4.38718,30.));
#1767=VERTEX_POINT('',#1766);
#1768=DIRECTION('',(-0.90097,0.43388,0.));
#1769=VECTOR('',#1768,2.00269);
#1770=LINE('',#1738,#1769);
#1771=EDGE_CURVE('',#1739,#1767,#1770,.T.);
#1772=ORIENTED_EDGE('',*,*,#1771,.T.);
#1773=CARTESIAN_POINT('',(1.00134,4.38718,38.));
#1774=VERTEX_POINT('',#1773);
#1775=DIRECTION('',(0.,0.,1.));
#1776=VECTOR('',#1775,8.);
#1777=LINE('',#1766,#1776);
#1778=EDGE_CURVE('',#1767,#1774,#1777,.T.);
#1779=ORIENTED_EDGE('',*,*,#1778,.T.);
#1780=DIRECTION('',(-0.90097,0.43388,0.));
#1781=VECTOR('',#1780,2.00269);
#1782=LINE('',#1745,#1781);
#1783=EDGE_CURVE('',#1746,#1774,#1782,.T.);
#1784=ORIENTED_EDGE('',*,*,#1783,.F.);
#1785=ORIENTED_EDGE('',*,*,#1750,.F.);
#1786=EDGE_LOOP('',(#1772,#1779,#1784,#1785));
#1787=FACE_OUTER_BOUND('',#1786,.T.);
#1788=CARTESIAN_POINT('',(2.8057,3.51824,30.));
#1789=DIRECTION('',(0.43388,0.90097,0.));
#1790=DIRECTION('',(-0.90097,0.43388,0.));
#1791=AXIS2_PLACEMENT_3D('',#1788,#1789,#1790);
#1792=PLANE('',#1791);
#1793=ADVANCED_FACE('',(#1787),#1792,.T.);
#1794=CARTESIAN_POINT('',(-1.00134,4.38718,30.));
#1795=VERTEX_POINT('',#1794);
#1796=DIRECTION('',(-1.,0.,0.));
#1797=VECTOR('',#1796,2.00269);
#1798=LINE('',#1766,#1797);
#1799=EDGE_CURVE('',#1767,#1795,#1798,.T.);
#1800=ORIENTED_EDGE('',*,*,#1799,.T.);
#1801=CARTESIAN_POINT('',(-1.00134,4.38718,38.));
#1802=VERTEX_POINT('',#1801);
#1803=DIRECTION('',(0.,0.,1.));
#1804=VECTOR('',#1803,8.);
#1805=LINE('',#1794,#1804);
#1806=EDGE_CURVE('',#1795,#1802,#1805,.T.);
#1807=ORIENTED_EDGE('',*,*,#1806,.T.);
#1808=DIRECTION('',(-1.,0.,0.));
#1809=VECTOR('',#1808,2.00269);
#1810=LINE('',#1773,#1809);
#1811=EDGE_CURVE('',#1774,#1802,#1810,.T.);
#1812=ORIENTED_EDGE('',*,*,#1811,.F.);
#1813=ORIENTED_EDGE('',*,*,#1778,.F.);
#1814=EDGE_LOOP('',(#1800,#1807,#1812,#1813));
#1815=FACE_OUTER_BOUND('',#1814,.T.);
#1816=CARTESIAN_POINT('',(1.00134,4.38718,30.));
#1817=DIRECTION('',(0.,1.,0.));
#1818=DIRECTION('',(-1.,0.,0.));
#1819=AXIS2_PLACEMENT_3D('',#1816,#1817,#1818);
#1820=PLANE('',#1819);
#1821=ADVANCED_FACE('',(#1815),#1820,.T.);
#1822=CARTESIAN_POINT('',(-2.8057,3.51824,30.));
#1823=VERTEX_POINT('',#1822);
#1824=DIRECTION('',(-0.90097,-0.43388,0.));
#1825=VECTOR('',#1824,2.00269);
#1826=LINE('',#1794,#1825);
#1827=EDGE_CURVE('',#1795,#1823,#1826,.T.);
#1828=ORIENTED_EDGE('',*,*,#1827,.T.);
#1829=CARTESIAN_POINT('',(-2.8057,3.51824,38.));
#1830=VERTEX_POINT('',#1829);
#1831=DIRECTION('',(0.,0.,1.));
#1832=VECTOR('',#1831,8.);
#1833=LINE('',#1822,#1832);
#1834=EDGE_CURVE('',#1823,#1830,#1833,.T.);
#1835=ORIENTED_EDGE('',*,*,#1834,.T.);
#1836=DIRECTION('',(-0.90097,-0.43388,0.));
#1837=VECTOR('',#1836,2.00269);
#1838=LINE('',#1801,#1837);
#1839=EDGE_CURVE('',#1802,#1830,#1838,.T.);
#1840=ORIENTED_EDGE('',*,*,#1839,.F.);
#1841=ORIENTED_EDGE('',*,*,#1806,.F.);
#1842=EDGE_LOOP('',(#1828,#1835,#1840,#1841));
#1843=FACE_OUTER_BOUND('',#1842,.T.);
#1844=CARTESIAN_POINT('',(-1.00134,4.38718,30.));
#1845=DIRECTION('',(-0.43388,0.90097,0.));
#1846=DIRECTION('',(-0.90097,-0.43388,0.));
#1847=AXIS2_PLACEMENT_3D('',#1844,#1845,#1846);
#1848=PLANE('',#1847);
#1849=ADVANCED_FACE('',(#1843),#1848,.T.);
#1850=CARTESIAN_POINT('',(-4.05436,1.95248,30.));
#1851=VERTEX_POINT('',#1850);
#1852=DIRECTION('',(-0.62349,-0.78183,0.));
#1853=VECTOR('',#1852,2.00269);
#1854=LINE('',#1822,#1853);
#1855=EDGE_CURVE('',#1823,#1851,#1854,.T.);
#1856=ORIENTED_EDGE('',*,*,#1855,.T.);
#1857=CARTESIAN_POINT('',(-4.05436,1.95248,38.));
#1858=VERTEX_POINT('',#1857);
#1859=DIRECTION('',(0.,0.,1.));
#1860=VECTOR('',#1859,8.);
#1861=LINE('',#1850,#1860);
#1862=EDGE_CURVE('',#1851,#1858,#1861,.T.);
#1863=ORIENTED_EDGE('',*,*,#1862,.T.);
#1864=DIRECTION('',(-0.62349,-0.78183,0.));
#1865=VECTOR('',#1864,2.00269);
#1866=LINE('',#1829,#1865);
#1867=EDGE_CURVE('',#1830,#1858,#1866,.T.);
#1868=ORIENTED_EDGE('',*,*,#1867,.F.);
#1869=ORIENTED_EDGE('',*,*,#1834,.F.);
#1870=EDGE_LOOP('',(#1856,#1863,#1868,#1869));
#1871=FACE_OUTER_BOUND('',#1870,.T.);
#1872=CARTESIAN_POINT('',(-2.8057,3.51824,30.));
#1873=DIRECTION('',(-0.78183,0.62349,0.));
#1874=DIRECTION('',(-0.62349,-0.78183,0.));
#1875=AXIS2_PLACEMENT_3D('',#1872,#1873,#1874);
#1876=PLANE('',#1875);
#1877=ADVANCED_FACE('',(#1871),#1876,.T.);
#1878=CARTESIAN_POINT('',(-4.5,0.,30.));
#1879=VERTEX_POINT('',#1878);
#1880=DIRECTION('',(-0.22252,-0.97493,0.));
#1881=VECTOR('',#1880,2.00269);
#1882=LINE('',#1850,#1881);
#1883=EDGE_CURVE('',#1851,#1879,#1882,.T.);
#1884=ORIENTED_EDGE('',*,*,#1883,.T.);
#1885=CARTESIAN_POINT('',(-4.5,0.,38.));
#1886=VERTEX_POINT('',#1885);
#1887=DIRECTION('',(0.,0.,1.));
#1888=VECTOR('',#1887,8.);
#1889=LINE('',#1878,#1888);
#1890=EDGE_CURVE('',#1879,#1886,#1889,.T.);
#1891=ORIENTED_EDGE('',*,*,#1890,.T.);
#1892=DIRECTION('',(-0.22252,-0.97493,0.));
#1893=VECTOR('',#1892,2.00269);
#1894=LINE('',#1857,#1893);
#1895=EDGE_CURVE('',#1858,#1886,#1894,.T.);
#1896=ORIENTED_EDGE('',*,*,#1895,.F.);
#1897=ORIENTED_EDGE('',*,*,#1862,.F.);
#1898=EDGE_LOOP('',(#1884,#1891,#1896,#1897));
#1899=FACE_OUTER_BOUND('',#1898,.T.);
#1900=CARTESIAN_POINT('',(-4.05436,1.95248,30.));
#1901=DIRECTION('',(-0.97493,0.22252,0.));
#1902=DIRECTION('',(-0.22252,-0.97493,0.));
#1903=AXIS2_PLACEMENT_3D('',#1900,#1901,#1902);
#1904=PLANE('',#1903);
#1905=ADVANCED_FACE('',(#1899),#1904,.T.);
#1906=CARTESIAN_POINT('',(-4.05436,-1.95248,30.));
#1907=VERTEX_POINT('',#1906);
#1908=DIRECTION('',(0.22252,-0.97493,0.));
#1909=VECTOR('',#1908,2.00269);
#1910=LINE('',#1878,#1909);
#1911=EDGE_CURVE('',#1879,#1907,#1910,.T.);
#1912=ORIENTED_EDGE('',*,*,#1911,.T.);
#1913=CARTESIAN_POINT('',(-4.05436,-1.95248,38.));
#1914=VERTEX_POINT('',#1913);
#1915=DIRECTION('',(0.,0.,1.));
#1916=VECTOR('',#1915,8.);
#1917=LINE('',#1906,#1916);
#1918=EDGE_CURVE('',#1907,#1914,#1917,.T.);
#1919=ORIENTED_EDGE('',*,*,#1918,.T.);
#1920=DIRECTION('',(0.22252,-0.97493,0.));
#1921=VECTOR('',#1920,2.00269);
#1922=LINE('',#1885,#1921);
#1923=EDGE_CURVE('',#1886,#1914,#1922,.T.);
#1924=ORIENTED_EDGE('',*,*,#1923,.F.);
#1925=ORIENTED_EDGE('',*,*,#1890,.F.);
#1926=EDGE_LOOP('',(#1912,#1919,#1924,#1925));
#1927=FACE_OUTER_BOUND('',#1926,.T.);
#1928=CARTESIAN_POINT('',(-4.5,0.,30.));
#1929=DIRECTION('',(-0.97493,-0.22252,0.));
#1930=DIRECTION('',(0.22252,-0.97493,0.));
#1931=AXIS2_PLACEMENT_3D('',#1928,#1929,#1930);
#1932=PLANE('',#1931);
#1933=ADVANCED_FACE('',(#1927),#1932,.T.);
#1934=CARTESIAN_POINT('',(-2.8057,-3.51824,30.));
#1935=VERTEX_POINT('',#1934);
#1936=DIRECTION('',(0.62349,-0.78183,0.));
#1937=VECTOR('',#1936,2.00269);
#1938=LINE('',#1906,#1937);
#1939=EDGE_CURVE('',#1907,#1935,#1938,.T.);
#1940=ORIENTED_EDGE('',*,*,#1939,.T.);
#1941=CARTESIAN_POINT('',(-2.8057,-3.51824,38.));
#1942=VERTEX_POINT('',#1941);
#1943=DIRECTION('',(0.,0.,1.));
#1944=VECTOR('',#1943,8.);
#1945=LINE('',#1934,#1944);
#1946=EDGE_CURVE('',#1935,#1942,#1945,.T.);
#1947=ORIENTED_EDGE('',*,*,#1946,.T.);
#1948=DIRECTION('',(0.62349,-0.78183,0.));
#1949=VECTOR('',#1948,2.00269);
#1950=LINE('',#1913,#1949);
#1951=EDGE_CURVE('',#1914,#1942,#1950,.T.);
#1952=ORIENTED_EDGE('',*,*,#1951,.F.);
#1953=ORIENTED_EDGE('',*,*,#1918,.F.);
#1954=EDGE_LOOP('',(#1940,#1947,#1952,#1953));
#1955=FACE_OUTER_BOUND('',#1954,.T.);
#1956=CARTESIAN_POINT('',(-4.05436,-1.95248,30.));
#1957=DIRECTION('',(-0.78183,-0.62349,0.));
#1958=DIRECTION('',(0.62349,-0.78183,0.));
#1959=AXIS2_PLACEMENT_3D('',#1956,#1957,#1958);
#1960=PLANE('',#1959);
#1961=ADVANCED_FACE('',(#1955),#1960,.T.);
#1962=CARTESIAN_POINT('',(-1.00134,-4.38718,30.));
#1963=VERTEX_POINT('',#1962);
#1964=DIRECTION('',(0.90097,-0.43388,0.));
#1965=VECTOR('',#1964,2.00269);
#1966=LINE('',#1934,#1965);
#1967=EDGE_CURVE('',#1935,#1963,#1966,.T.);
#1968=ORIENTED_EDGE('',*,*,#1967,.T.);
#1969=CARTESIAN_POINT('',(-1.00134,-4.38718,38.));
#1970=VERTEX_POINT('',#1969);
#1971=DIRECTION('',(0.,0.,1.));
#1972=VECTOR('',#1971,8.);
#1973=LINE('',#1962,#1972);
#1974=EDGE_CURVE('',#1963,#1970,#1973,.T.);
#1975=ORIENTED_EDGE('',*,*,#1974,.T.);
#1976=DIRECTION('',(0.90097,-0.43388,0.));
#1977=VECTOR('',#1976,2.00269);
#1978=LINE('',#1941,#1977);
#1979=EDGE_CURVE('',#1942,#1970,#1978,.T.);
#1980=ORIENTED_EDGE('',*,*,#1979,.F.);
#1981=ORIENTED_EDGE('',*,*,#1946,.F.);
#1982=EDGE_LOOP('',(#1968,#1975,#1980,#1981));
#1983=FACE_OUTER_BOUND('',#1982,.T.);
#1984=CARTESIAN_POINT('',(-2.8057,-3.51824,30.));
#1985=DIRECTION('',(-0.43388,-0.90097,0.));
#1986=DIRECTION('',(0.90097,-0.43388,0.));
#1987=AXIS2_PLACEMENT_3D('',#1984,#1985,#1986);
#1988=PLANE('',#1987);
#1989=ADVANCED_FACE('',(#1983),#1988,.T.);
#1990=CARTESIAN_POINT('',(1.00134,-4.38718,30.));
#1991=VERTEX_POINT('',#1990);
#1992=DIRECTION('',(1.,0.,0.));
#1993=VECTOR('',#1992,2.00269);
#1994=LINE('',#1962,#1993);
#1995=EDGE_CURVE('',#1963,#1991,#1994,.T.);
#1996=ORIENTED_EDGE('',*,*,#1995,.T.);
#1997=CARTESIAN_POINT('',(1.00134,-4.38718,38.));
#1998=VERTEX_POINT('',#1997);
#1999=DIRECTION('',(0.,0.,1.));
#2000=VECTOR('',#1999,8.);
#2001=LINE('',#1990,#2000);
#2002=EDGE_CURVE('',#1991,#1998,#2001,.T.);
#2003=ORIENTED_EDGE('',*,*,#2002,.T.);
#2004=DIRECTION('',(1.,0.,0.));
#2005=VECTOR('',#2004,2.00269);
#2006=LINE('',#1969,#2005);
#2007=EDGE_CURVE('',#1970,#1998,#2006,.T.);
#2008=ORIENTED_EDGE('',*,*,#2007,.F.);
#2009=ORIENTED_EDGE('',*,*,#1974,.F.);
#2010=EDGE_LOOP('',(#1996,#2003,#2008,#2009));
#2011=FACE_OUTER_BOUND('',#2010,.T.);
#2012=CARTESIAN_POINT('',(-1.00134,-4.38718,30.));
#2013=DIRECTION('',(0.,-1.,0.));
#2014=DIRECTION('',(1.,0.,0.));
#2015=AXIS2_PLACEMENT_3D('',#2012,#2013,#2014);
#2016=PLANE('',#2015);
#2017=ADVANCED_FACE('',(#2011),#2016,.T.);
#2018=CARTESIAN_POINT('',(2.8057,-3.51824,30.));
#2019=VERTEX_POINT('',#2018);
#2020=DIRECTION('',(0.90097,0.43388,0.));
#2021=VECTOR('',#2020,2.00269);
#2022=LINE('',#1990,#2021);
#2023=EDGE_CURVE('',#1991,#2019,#2022,.T.);
#2024=ORIENTED_EDGE('',*,*,#2023,.T.);
#2025=CARTESIAN_POINT('',(2.8057,-3.51824,38.));
#2026=VERTEX_POINT('',#2025);
#2027=DIRECTION('',(0.,0.,1.));
#2028=VECTOR('',#2027,8.);
#2029=LINE('',#2018,#2028);
#2030=EDGE_CURVE('',#2019,#2026,#2029,.T.);
#2031=ORIENTED_EDGE('',*,*,#2030,.T.);
#2032=DIRECTION('',(0.90097,0.43388,0.));
#2033=VECTOR('',#2032,2.00269);
#2034=LINE('',#1997,#2033);
#2035=EDGE_CURVE('',#1998,#2026,#2034,.T.);
#2036=ORIENTED_EDGE('',*,*,#2035,.F.);
#2037=ORIENTED_EDGE('',*,*,#2002,.F.);
#2038=EDGE_LOOP('',(#2024,#2031,#2036,#2037));
#2039=FACE_OUTER_BOUND('',#2038,.T.);
#2040=CARTESIAN_POINT('',(1.00134,-4.38718,30.));
#2041=DIRECTION('',(0.43388,-0.90097,0.));
#2042=DIRECTION('',(0.90097,0.43388,0.));
#2043=AXIS2_PLACEMENT_3D('',#2040,#2041,#2042);
#2044=PLANE('',#2043);
#2045=ADVANCED_FACE('',(#2039),#2044,.T.);
#2046=CARTESIAN_POINT('',(4.05436,-1.95248,30.));
#2047=VERTEX_POINT('',#2046);
#2048=DIRECTION('',(0.62349,0.78183,0.));
#2049=VECTOR('',#2048,2.00269);
#2050=LINE('',#2018,#2049);
#2051=EDGE_CURVE('',#2019,#2047,#2050,.T.);
#2052=ORIENTED_EDGE('',*,*,#2051,.T.);
#2053=CARTESIAN_POINT('',(4.05436,-1.95248,38.));
#2054=VERTEX_POINT('',#2053);
#2055=DIRECTION('',(0.,0.,1.));
#2056=VECTOR('',#2055,8.);
#2057=LINE('',#2046,#2056);
#2058=EDGE_CURVE('',#2047,#2054,#2057,.T.);
#2059=ORIENTED_EDGE('',*,*,#2058,.T.);
#2060=DIRECTION('',(0.62349,0.78183,0.));
#2061=VECTOR('',#2060,2.00269);
#2062=LINE('',#2025,#2061);
#2063=EDGE_CURVE('',#2026,#2054,#2062,.T.);
#2064=ORIENTED_EDGE('',*,*,#2063,.F.);
#2065=ORIENTED_EDGE('',*,*,#2030,.F.);
#2066=EDGE_LOOP('',(#2052,#2059,#2064,#2065));
#2067=FACE_OUTER_BOUND('',#2066,.T.);
#2068=CARTESIAN_POINT('',(2.8057,-3.51824,30.));
#2069=DIRECTION('',(0.78183,-0.62349,0.));
#2070=DIRECTION('',(0.62349,0.78183,0.));
#2071=AXIS2_PLACEMENT_3D('',#2068,#2069,#2070);
#2072=PLANE('',#2071);
#2073=ADVANCED_FACE('',(#2067),#2072,.T.);
#2074=DIRECTION('',(-0.22252,-0.97493,0.));
#2075=VECTOR('',#2074,2.00269);
#2076=LINE('',#1702,#2075);
#2077=EDGE_CURVE('',#1703,#2047,#2076,.T.);
#2078=ORIENTED_EDGE('',*,*,#2077,.F.);
#2079=ORIENTED_EDGE('',*,*,#1728,.T.);
#2080=DIRECTION('',(-0.22252,-0.97493,0.));
#2081=VECTOR('',#2080,2.00269);
#2082=LINE('',#1718,#2081);
#2083=EDGE_CURVE('',#1719,#2054,#2082,.T.);
#2084=ORIENTED_EDGE('',*,*,#2083,.T.);
#2085=ORIENTED_EDGE('',*,*,#2058,.F.);
#2086=EDGE_LOOP('',(#2078,#2079,#2084,#2085));
#2087=FACE_OUTER_BOUND('',#2086,.T.);
#2088=CARTESIAN_POINT('',(4.05436,-1.95248,30.));
#2089=DIRECTION('',(0.97493,-0.22252,0.));
#2090=DIRECTION('',(0.22252,0.97493,0.));
#2091=AXIS2_PLACEMENT_3D('',#2088,#2089,#2090);
#2092=PLANE('',#2091);
#2093=ADVANCED_FACE('',(#2087),#2092,.T.);
#2094=ORIENTED_EDGE('',*,*,#2051,.F.);
#2095=ORIENTED_EDGE('',*,*,#2023,.F.);
#2096=ORIENTED_EDGE('',*,*,#1995,.F.);
#2097=ORIENTED_EDGE('',*,*,#1967,.F.);
#2098=ORIENTED_EDGE('',*,*,#1939,.F.);
#2099=ORIENTED_EDGE('',*,*,#1911,.F.);
#2100=ORIENTED_EDGE('',*,*,#1883,.F.);
#2101=ORIENTED_EDGE('',*,*,#1855,.F.);
#2102=ORIENTED_EDGE('',*,*,#1827,.F.);
#2103=ORIENTED_EDGE('',*,*,#1799,.F.);
#2104=ORIENTED_EDGE('',*,*,#1771,.F.);
#2105=ORIENTED_EDGE('',*,*,#1743,.F.);
#2106=ORIENTED_EDGE('',*,*,#1709,.F.);
#2107=ORIENTED_EDGE('',*,*,#2077,.T.);
#2108=EDGE_LOOP('',(#2094,#2095,#2096,#2097,#2098,#2099,#2100,#2101,#2102,#2103,#2104,#2105,#2106,#2107));
#2109=FACE_OUTER_BOUND('',#2108,.T.);
#2110=CARTESIAN_POINT('',(4.05436,-1.95248,30.));
#2111=DIRECTION('',(0.,0.,-1.));
#2112=DIRECTION('',(-0.62349,-0.78183,0.));
#2113=AXIS2_PLACEMENT_3D('',#2110,#2111,#2112);
#2114=PLANE('',#2113);
#2115=ADVANCED_FACE('',(#2109),#2114,.T.);
#2116=ORIENTED_EDGE('',*,*,#1723,.T.);
#2117=ORIENTED_EDGE('',*,*,#1755,.T.);
#2118=ORIENTED_EDGE('',*,*,#1783,.T.);
#2119=ORIENTED_EDGE('',*,*,#1811,.T.);
#2120=ORIENTED_EDGE('',*,*,#1839,.T.);
#2121=ORIENTED_EDGE('',*,*,#1867,.T.);
#2122=ORIENTED_EDGE('',*,*,#1895,.T.);
#2123=ORIENTED_EDGE('',*,*,#1923,.T.);
#2124=ORIENTED_EDGE('',*,*,#1951,.T.);
#2125=ORIENTED_EDGE('',*,*,#1979,.T.);
#2126=ORIENTED_EDGE('',*,*,#2007,.T.);
#2127=ORIENTED_EDGE('',*,*,#2035,.T.);
#2128=ORIENTED_EDGE('',*,*,#2063,.T.);
#2129=ORIENTED_EDGE('',*,*,#2083,.F.);
#2130=EDGE_LOOP('',(#2116,#2117,#2118,#2119,#2120,#2121,#2122,#2123,#2124,#2125,#2126,#2127,#2128,#2129));
#2131=FACE_OUTER_BOUND('',#2130,.T.);
#2132=CARTESIAN_POINT('',(4.5,0.,38.));
#2133=DIRECTION('',(0.,0.,1.));
#2134=DIRECTION('',(-0.22252,0.97493,0.));
#2135=AXIS2_PLACEMENT_3D('',#2132,#2133,#2134);
#2136=PLANE('',#2135);
#2137=ADVANCED_FACE('',(#2131),#2136,.T.);
#2138=CLOSED_SHELL('',(#1737,#1765,#1793,#1821,#1849,#1877,#1905,#1933,#1961,#1989,#2017,#2045,#2073,#2093,#2115,#2137));
#2139=MANIFOLD_SOLID_BREP('',#2138);
#2140=STYLED_ITEM('color',(#642),#2139);
#2141=ADVANCED_BREP_SHAPE_REPRESENTATION('',(#17,#635,#1261,#1700,#2139),#9);
#2142=SHAPE_DEFINITION_REPRESENTATION(#13,#2141);
#2143=MECHANICAL_DESIGN_GEOMETRIC_PRESENTATION_REPRESENTATION('',(#643,#1262,#1701,#2140),#9);
#2144=PRODUCT_RELATED_PRODUCT_CATEGORY('part',$,(#10));
ENDSEC;
END-ISO-10303-21;
